<svg width="22" height="22" viewBox="0 0 22 22" fill="none" xmlns="http://www.w3.org/2000/svg">
<path d="M11 0C14.0387 0 16.5 2.46125 16.5 5.5C16.5 8.53875 14.0387 11 11 11C7.96125 11 5.5 8.53875 5.5 5.5C5.5 2.46125 7.96125 0 11 0ZM11 2.75C9.4875 2.75 8.25 3.9875 8.25 5.5C8.25 7.0125 9.4875 8.25 11 8.25C12.5125 8.25 13.75 7.02625 13.75 5.5C13.75 3.97375 12.5262 2.75 11 2.75ZM11 12.375C14.6712 12.375 22 14.2038 22 17.875V22H0V17.875C0 14.2038 7.32875 12.375 11 12.375ZM11 14.9875C6.91625 14.9875 2.6125 16.995 2.6125 17.875V19.3875H19.3875V17.875C19.3875 16.995 15.0837 14.9875 11 14.9875Z" fill="black"/>
</svg>
