<?xml version="1.0" encoding="iso-8859-1"?>
<!-- Generator: Adobe Illustrator 17.1.0, SVG Export Plug-In . SVG Version: 6.00 Build 0)  -->
<!DOCTYPE svg PUBLIC "-//W3C//DTD SVG 1.1//EN" "http://www.w3.org/Graphics/SVG/1.1/DTD/svg11.dtd">
<svg version="1.1" id="Capa_1" xmlns="http://www.w3.org/2000/svg" xmlns:xlink="http://www.w3.org/1999/xlink" x="0px" y="0px"
	 viewBox="0 0 242.667 242.667" style="enable-background:new 0 0 242.667 242.667;" xml:space="preserve">
<path d="M0,0v242.667h242.667V0H0z M155.336,148.425c-18.516,9.562-33.542,4.857-37.488,2.884c-3.946-1.973-7.285-6.678-7.285-6.678
	s-4.553,19.579-8.196,29.748c-3.643,10.169-15.481,23.828-15.481,23.828s-3.794-15.329-1.062-32.024s11.535-52.665,11.535-52.665
	s-5.312-10.624-0.911-21.097c4.401-10.472,11.99-15.329,22.007-11.535c10.017,3.794,5.16,18.061,4.098,21.552
	c-1.062,3.491-8.044,21.4-5.919,27.623c2.125,6.223,16.847,19.427,34.604-4.857c17.758-24.284,7.93-50.389-6.981-59.951
	c-10.654-6.831-36.547-14.316-55.397,6.982c-23.373,26.409-2.732,49.175-2.732,49.175l-5.464,12.749c0,0-22.159-4.401-20.186-36.881
	c1.973-32.48,32.783-52.969,61.62-52.817c28.837,0.152,48.568,15.633,57.522,38.55C188.575,105.929,173.852,138.864,155.336,148.425
	z"/>
<g>
</g>
<g>
</g>
<g>
</g>
<g>
</g>
<g>
</g>
<g>
</g>
<g>
</g>
<g>
</g>
<g>
</g>
<g>
</g>
<g>
</g>
<g>
</g>
<g>
</g>
<g>
</g>
<g>
</g>
</svg>
