<svg width="22" height="22" viewBox="0 0 22 22" fill="none" xmlns="http://www.w3.org/2000/svg">
<path d="M2.44444 22H19.5556C20.9037 22 22 21.0133 22 19.8V7.7C22 7.40826 21.8712 7.12847 21.642 6.92218C21.4128 6.71589 21.1019 6.6 20.7778 6.6H17.1111V5.5C17.1111 2.4673 14.3697 0 11 0C7.63033 0 4.88889 2.4673 4.88889 5.5V6.6H1.22222C0.898069 6.6 0.587192 6.71589 0.357981 6.92218C0.128769 7.12847 0 7.40826 0 7.7V19.8C0 21.0133 1.09633 22 2.44444 22ZM7.33333 5.5C7.33333 3.6806 8.97844 2.2 11 2.2C13.0216 2.2 14.6667 3.6806 14.6667 5.5V6.6H7.33333V5.5ZM2.44444 8.8H4.88889V11H7.33333V8.8H14.6667V11H17.1111V8.8H19.5556L19.558 19.8H2.44444V8.8Z" fill="black"/>
</svg>
