<svg fill="#000000" xmlns="http://www.w3.org/2000/svg"  viewBox="0 0 100 100" width="40px" height="40px"><path d="M 50 14 C 30.149 14 14 30.149 14 50 C 14 69.851 30.149 86 50 86 C 69.851 86 86 69.851 86 50 C 86 30.149 69.851 14 50 14 z M 50 16 C 68.748 16 84 31.252 84 50 C 84 68.748 68.748 84 50 84 C 31.252 84 16 68.748 16 50 C 16 31.252 31.252 16 50 16 z M 50 19 C 32.907 19 19 32.906 19 50 C 19 67.094 32.907 81 50 81 C 67.093 81 81 67.094 81 50 C 81 41.684 77.751516 33.875672 71.853516 28.013672 C 71.657516 27.819672 71.341484 27.819625 71.146484 28.015625 C 70.951484 28.211625 70.952437 28.528656 71.148438 28.722656 C 76.856437 34.396656 80 41.952 80 50 C 80 66.542 66.542 80 50 80 C 33.458 80 20 66.542 20 50 C 20 33.458 33.458 20 50 20 C 53.55 20 57.025125 20.613219 60.328125 21.824219 C 60.589125 21.918219 60.875703 21.788344 60.970703 21.527344 C 61.065703 21.268344 60.932828 20.980766 60.673828 20.884766 C 57.259828 19.634766 53.668 19 50 19 z M 63.53125 22.142578 C 63.336484 22.131094 63.144984 22.234672 63.052734 22.419922 C 62.931734 22.664922 63.029344 22.967797 63.277344 23.091797 C 63.946344 23.423797 64.608094 23.78025 65.246094 24.15625 C 65.483094 24.29725 65.790641 24.219469 65.931641 23.980469 C 65.978641 23.900469 66 23.812562 66 23.726562 C 66 23.555563 65.911906 23.389875 65.753906 23.296875 C 65.095906 22.908875 64.411656 22.536359 63.722656 22.193359 C 63.660656 22.162859 63.596172 22.146406 63.53125 22.142578 z M 67.414062 24.525391 C 67.288187 24.547516 67.171297 24.617469 67.091797 24.730469 C 66.933797 24.955469 66.986891 25.266781 67.212891 25.425781 C 67.544891 25.658781 67.872312 25.899484 68.195312 26.146484 C 68.415312 26.313484 68.728484 26.272734 68.896484 26.052734 C 68.966484 25.962734 69 25.854047 69 25.748047 C 69 25.598047 68.933688 25.449563 68.804688 25.351562 C 68.471688 25.096563 68.131109 24.848422 67.787109 24.607422 C 67.674109 24.527922 67.539938 24.503266 67.414062 24.525391 z M 52.5 28 C 45.369048 28 40.45659 30.824083 37.371094 34.423828 C 34.285598 38.023574 33 42.361111 33 45.5 C 33 51.412138 36.226408 54.253984 38.070312 55.355469 C 38.922821 55.864296 40.044027 55.380529 40.283203 54.423828 L 40.861328 52.113281 C 40.974353 51.66269 40.863528 51.194609 40.59375 50.835938 A 0.50005 0.50005 0 0 0 40.59375 50.833984 C 40.082391 50.156479 38.998047 48.389406 38.998047 45.5 C 38.998047 43.133333 39.96544 39.967209 42.011719 37.439453 C 44.057997 34.911697 47.146195 33 51.498047 33 C 66.998047 33 62.609158 56 54.498047 56 C 53.13324 56 52.206039 55.606606 51.521484 54.996094 C 50.860018 54.406172 50.440372 53.572155 50.164062 52.654297 C 50.663905 50.698581 51.117767 48.817173 51.445312 47.246094 C 51.783859 45.622252 51.998047 44.334217 51.998047 43.5 C 51.998047 41.375 51.153398 40.169323 50.275391 39.583984 C 49.397383 38.998646 48.498047 39 48.498047 39 C 47.33138 39 46.179609 39.592552 45.349609 40.699219 C 44.519609 41.805885 43.998047 43.416667 43.998047 45.5 C 43.998047 46.389791 44.105783 47.654312 44.341797 49.068359 L 40.015625 66.378906 A 0.50005 0.50005 0 0 0 40.005859 66.570312 L 41.005859 73.570312 A 0.50005 0.50005 0 0 0 41.916016 73.777344 L 45.916016 67.777344 A 0.50005 0.50005 0 0 0 45.978516 67.644531 C 45.978516 67.644531 47.250646 63.340793 48.550781 58.669922 C 50.241219 60.569155 52.462112 62 55.5 62 C 59.190476 62 62.583745 59.891466 65.029297 56.544922 C 67.474849 53.198378 69 48.6 69 43.5 C 69 41.375 68.232814 37.562523 65.779297 34.205078 C 63.32578 30.847634 59.141026 28 52.5 28 z M 52.5 29 C 58.858974 29 62.67422 31.652366 64.970703 34.794922 C 67.267186 37.937477 68 41.625 68 43.5 C 68 48.4 66.525151 52.801622 64.220703 55.955078 C 61.916255 59.108534 58.809524 61 55.5 61 C 52.428909 61 50.274432 59.558695 48.683594 57.478516 A 0.50005 0.50005 0 0 0 47.804688 57.648438 C 46.390487 62.787555 45.059948 67.223943 45.041016 67.287109 L 41.808594 72.134766 L 41.009766 66.525391 L 45.332031 49.230469 A 0.50005 0.50005 0 0 0 45.339844 49.023438 C 45.094496 47.601328 44.998047 46.347047 44.998047 45.5 C 44.998047 43.583333 45.478437 42.194115 46.148438 41.300781 C 46.818438 40.407448 47.664714 40 48.498047 40 C 48.498047 40 49.098711 40.0014 49.720703 40.416016 C 50.342695 40.830677 50.998047 41.625 50.998047 43.5 C 50.998047 44.148783 50.80025 45.44356 50.466797 47.042969 C 50.133344 48.642377 49.670195 50.567416 49.152344 52.585938 A 0.50005 0.50005 0 0 0 49.15625 52.849609 C 49.465913 53.929719 49.986773 54.96745 50.855469 55.742188 C 51.72417 56.516925 52.933854 57 54.498047 57 C 64.386936 57 67.998047 32 51.498047 32 C 46.849899 32 43.44005 34.088303 41.236328 36.810547 C 39.032607 39.532791 37.998047 42.866667 37.998047 45.5 C 37.998047 48.638847 39.185976 50.62823 39.794922 51.435547 C 39.895189 51.568875 39.927604 51.723685 39.890625 51.871094 L 39.314453 54.181641 C 39.229633 54.520938 38.877476 54.67322 38.583984 54.498047 C 36.935892 53.513531 34 51.053862 34 45.5 C 34 42.638889 35.214402 38.476426 38.128906 35.076172 C 41.04341 31.675917 45.630952 29 52.5 29 z"/></svg>