<svg xmlns="http://www.w3.org/2000/svg" viewBox="0 0 85 43"><g id="background"><g id="Ebene_2" data-name="Ebene 2"><rect width="85" height="43" style="fill:#fff"/></g></g><g id="icon"><path d="M71.4,22.37a6.72,6.72,0,0,0-.18-2.1c-.22-1.82-.48-3.64-.73-5.45a.31.31,0,0,1,.11-.32l9.23,6.65c0,.2-.2.15-.26.25a13.48,13.48,0,0,1-2.68.5c-.27.05-.55.06-.83.12-1.17.09-2.33.32-3.49.45l-.72.07C71.68,22.56,71.48,22.62,71.4,22.37Z" style="fill:#d20037"/><path d="M58.5,24.91H57.41L57,18.78H58l.28,4.48,2.57-4.49h1l.22,4.29.1,0c.83-1.44,1.66-2.87,2.49-4.33h1.23l-3.56,6.14H61.2L61,20.8l-.12,0Z" style="fill:#d20037"/><path d="M24.09,18.77h1.14l.21,4.11.11,0L27.9,18.8a3.72,3.72,0,0,1,1.11,0l.45,6.13H28.4l-.27-4.31-.1,0-2.5,4.34h-.94l-.24-4.49L21.77,24.9H20.54Z" style="fill:#d10037"/><path d="M16,18.77h1.08l1.53,3.36,2-3.37h1.16L18.22,24.9H17.05l1-1.72Z" style="fill:#3b4547"/><path d="M70.75,26,66,28.5l-.13-.12,1.66-2.77a1.29,1.29,0,0,0,1,.19,11.91,11.91,0,0,1,1.79,0A.35.35,0,0,1,70.75,26Z" style="fill:#d10137"/><path d="M77,22.79a5.41,5.41,0,0,1-1.12.58,14.77,14.77,0,0,1-2.74.14c-1.12,0-2.25,0-3.38,0-.29,0-.65.1-.84-.25a1.29,1.29,0,0,1,.33-.58c1.49-.08,3,0,4.46,0a27.44,27.44,0,0,1,2.87,0C76.7,22.68,76.85,22.66,77,22.79Z" style="fill:#a70b31"/><path d="M77,22.79c-2.25,0-4.5,0-6.75,0-.33,0-.7.28-1-.1a.88.88,0,0,1,.25-.45,5.59,5.59,0,0,1,1.78.11l.15,0c.38.18.74-.16,1.12,0,1.1,0,2.21-.06,3.31-.08.49,0,1,0,1.47,0,.12,0,.32,0,.33.19A1.8,1.8,0,0,1,77,22.79Z" style="fill:#9c102f"/><path d="M67.85,25l.12-.2a.82.82,0,0,1,.58-.18c1.2,0,2.4.11,3.61.05.19,0,.54-.11.47.33a4.17,4.17,0,0,1-1,.51,12.46,12.46,0,0,1-2.73.11C68.44,25.64,68,25.61,67.85,25Z" style="fill:#c80136"/><path d="M77.63,22.45H73.11c-.2,0-.42.07-.59-.11,1.17-.15,2.33-.4,3.52-.46a8.78,8.78,0,0,0,1.54-.06,1.21,1.21,0,0,1,1,.18A3.39,3.39,0,0,1,77.63,22.45Z" style="fill:#92122e"/><path d="M72.63,25c-.14-.4-.44-.15-.67-.15-1.33,0-2.66,0-4-.05a1.46,1.46,0,0,1,.33-.58.42.42,0,0,1,.36.05c1.38,0,2.75,0,4.13,0,.24,0,.6-.16.64.3A2.48,2.48,0,0,1,72.63,25Z" style="fill:#c20436"/><path d="M68.5,23.9l.18-.32a4.42,4.42,0,0,1,1.45-.1c1.19,0,2.38,0,3.56,0a5.61,5.61,0,0,1,1.16.18c.13.35-.19.28-.33.34-.46.21-1,.05-1.43.15a.6.6,0,0,1-.19,0c-1.24-.1-2.49-.05-3.74-.06C68.93,24.07,68.66,24.19,68.5,23.9Z" style="fill:#b40533"/><path d="M74.9,23.79a3.79,3.79,0,0,0-1.2-.21,36.32,36.32,0,0,0-4.3.1,2.6,2.6,0,0,1-.72-.1l.21-.33c1.58.22,3.17,0,4.76.12a8.53,8.53,0,0,1,2.2,0,3.18,3.18,0,0,1-.84.43C75,23.85,74.93,23.85,74.9,23.79Z" style="fill:#b00733"/><path d="M67.85,25a1.18,1.18,0,0,0,1.07.48c.64,0,1.29,0,1.93,0,.26,0,.33-.24.54-.23a.29.29,0,0,1,.23.22,2.88,2.88,0,0,1-.87.45,1.47,1.47,0,0,0-1,0,1,1,0,0,1-.63-.15,2.59,2.59,0,0,1-1.34.17.55.55,0,0,1-.29-.35A1.35,1.35,0,0,1,67.85,25Z" style="fill:#cc0137"/><path d="M73,24h.12c.27.18.72-.15.9.31l-.56.26c-.08-.19-.22-.17-.41-.16-1.42,0-2.85.07-4.27.1-.11,0-.16-.08-.21-.17.12-.34.42-.34.7-.34,1.1,0,2.19-.05,3.28,0C72.68,24.09,72.82,24,73,24Z" style="fill:#be0435"/><path d="M73,24a.56.56,0,0,1-.5.18c-1.07-.14-2.14,0-3.2-.07a1,1,0,0,0-.73.23l-.24-.12.2-.35,3.51,0A2.61,2.61,0,0,1,73,24Z" style="fill:#ba0635"/><path d="M78.54,22H76.45c-.15,0-.3,0-.41-.12,1.18-.14,2.34-.42,3.53-.47C79.32,21.75,78.88,21.78,78.54,22Z" style="fill:#87152c"/><path d="M71.25,22.33a4.12,4.12,0,0,1-1.78-.11,1.26,1.26,0,0,1,.39-.62A5.13,5.13,0,0,1,71.25,22.33Z" style="fill:#951631"/><path d="M74,24.34c-.18-.19-.41-.12-.63-.13s-.3.06-.27-.18c.59-.18,1.23,0,1.81-.24H75Z" style="fill:#ba0635"/><path d="M49,20a1.7,1.7,0,0,0-1.67-1.22c-.84,0-1.69,0-2.57,0-.51,2-1,4.06-1.55,6.13a5.82,5.82,0,0,0,1.07-.07c.17-.69.35-1.38.53-2.06h1.23c.35.71.69,1.42,1,2.08h1.11c-.36-.75-.69-1.45-1-2.18a3.78,3.78,0,0,0,1.13-.51A2,2,0,0,0,49,20ZM47.39,21.6a3.8,3.8,0,0,1-1.77.21c-.15,0-.3,0-.53,0,.18-.68.34-1.31.51-2,.52,0,1,0,1.46,0s.84.16.92.66A1,1,0,0,1,47.39,21.6Z" style="fill:#d10037"/><path d="M53.18,18.69a3.59,3.59,0,0,0-3.29,3.62A2.57,2.57,0,0,0,53,25,3.59,3.59,0,0,0,56,21.26,2.55,2.55,0,0,0,53.18,18.69ZM53,24A1.56,1.56,0,0,1,51,22.65a2.66,2.66,0,0,1,1.43-2.77,1.63,1.63,0,0,1,2.4,1.58A2.53,2.53,0,0,1,53,24Z" style="fill:#d10137"/><path d="M42.93,20.22A1.76,1.76,0,0,0,41,18.81H38.66c-.52,2-1,4.05-1.57,6.13a4.44,4.44,0,0,0,1.07-.08c.19-.7.37-1.39.54-2.05h1.24c.34.72.68,1.41,1,2.09h1.1l-1-2.18a7.24,7.24,0,0,0,.72-.28A2,2,0,0,0,42.93,20.22Zm-1.58,1.32a1.84,1.84,0,0,1-1,.27c-.45,0-.9,0-1.43,0,.18-.72.34-1.33.51-2,.5,0,1,0,1.47,0a.83.83,0,0,1,.91.61A1,1,0,0,1,41.35,21.54Z" style="fill:#d10037"/><path d="M36.6,21.07A2.56,2.56,0,0,0,34,18.69a3.6,3.6,0,0,0-3.42,3.93A2.55,2.55,0,0,0,33.64,25,3.65,3.65,0,0,0,36.6,21.07ZM33.68,24a1.56,1.56,0,0,1-2-1.17,2.65,2.65,0,0,1,1.49-2.94A1.63,1.63,0,0,1,35.5,21.5,2.54,2.54,0,0,1,33.68,24Z" style="fill:#d10137"/><path d="M13.25,18.77h-1c-.91,2-1.82,4.06-2.75,6.15a4.41,4.41,0,0,0,1.12-.05l.72-1.4h2.8l.72,1.43H16Zm-1.54,3.67c.35-.81.69-1.58,1.06-2.45l1.07,2.45Z" style="fill:#3b4547"/><path d="M8,18.84c-.93-.08-1.88,0-2.83,0v6.1a4.11,4.11,0,0,0,1-.06V23c.66,0,1.27,0,1.86-.09a1.89,1.89,0,0,0,1.68-2.07A1.83,1.83,0,0,0,8,18.84Zm-.17,3.07a1.28,1.28,0,0,1-.27.05H6.2V19.82c.52,0,1,0,1.48,0a1,1,0,0,1,1,1A1,1,0,0,1,7.83,21.91Z" style="fill:#3b4547"/></g></svg>