<svg xmlns="http://www.w3.org/2000/svg" viewBox="0 0 85 43"><g id="background"><g id="Ebene_2" data-name="Ebene 2"><rect width="85" height="43" style="fill:#eb6f93"/></g></g><g id="icon"><path id="Shape" d="M30.54,29.56H28.63a4.89,4.89,0,0,1-2,3.94l-.76.57,2.94,4h2.42l-2.71-3.68A6.73,6.73,0,0,0,30.54,29.56Z" style="fill:#fff"/><rect id="Rectangle-path" x="23.69" y="29.56" width="1.96" height="8.49" style="fill:#fff"/><rect x="31.82" y="29.56" width="1.85" height="8.49" style="fill:#fff"/><path d="M49.89,32a2.12,2.12,0,0,0-1.82.82v-.66H46.31v5.88h1.78V35a1.23,1.23,0,0,1,1.33-1.32A1.15,1.15,0,0,1,50.64,35v3.1H52.4V34.32A2.33,2.33,0,0,0,49.89,32Z" style="fill:#fff"/><path d="M39.26,32.18v.38a3.1,3.1,0,1,0,0,5.12v.38H41V32.18Zm-1.61,4.45a1.51,1.51,0,1,1,1.6-1.51A1.56,1.56,0,0,1,37.65,36.63Z" style="fill:#fff"/><path d="M43.76,32.94v-.76H42v5.88h1.82V35.32c0-.93,1-1.42,1.7-1.42h0V32.18A2.22,2.22,0,0,0,43.76,32.94Z" style="fill:#fff"/><path d="M57.89,32.18v.38a3.1,3.1,0,1,0,0,5.12v.38h1.76V32.18Zm-1.61,4.45a1.51,1.51,0,1,1,1.6-1.51A1.56,1.56,0,0,1,56.28,36.63Z" style="fill:#fff"/><path d="M61.54,36a1.11,1.11,0,1,0,1.11,1.1A1.11,1.11,0,0,0,61.54,36Z" style="fill:#fff"/><path id="_Path_" data-name=" Path " d="M54.13,24.81,40.28,5.48a24.67,24.67,0,0,0-9.81,15.34Zm-24.66-3.7A25.55,25.55,0,0,1,40.12,4.45a.46.46,0,0,1,.65.11L55.55,25.18a.46.46,0,0,1-.46.72L29.85,21.65A.46.46,0,0,1,29.47,21.11Z" style="fill:#fff"/><path id="_Path_2" data-name=" Path 2" d="M41.77,7.6,41.35,8a2,2,0,0,1-.21.24,2.73,2.73,0,0,1-.22.24c-.76.83-1.29,1.21-1.81,1.22a3.18,3.18,0,0,0-3.44,3.51c0,.14,0,.26,0,.44a3.23,3.23,0,0,1,0,.44c0,.49-.38,1.07-1.81,2.58-1.73,1.85-1.78,4-.76,5.36a.48.48,0,0,0,.66.1.46.46,0,0,0,.1-.64c-.76-1-.73-2.68.69-4.19,1.58-1.68,2-2.39,2.06-3.19,0-.15,0-.22,0-.55,0-.16,0-.26,0-.38a2.27,2.27,0,0,1,2.51-2.56c.87,0,1.57-.51,2.5-1.52l.22-.25.22-.23.38-.41a.45.45,0,0,0,0-.65A.47.47,0,0,0,41.77,7.6Z" style="fill:#fff"/><path id="_Path_3" data-name=" Path 3" d="M40.73,23.07a3.73,3.73,0,0,1,7.07.77c0,.15,0,.29.05.44a.47.47,0,0,0,.94-.06,5,5,0,0,0-.07-.54,4.67,4.67,0,0,0-8.85-1,.47.47,0,1,0,.86.36Z" style="fill:#fff"/><path id="_Path_4" data-name=" Path 4" d="M39.14,18.9A4.28,4.28,0,0,0,35.44,20a.47.47,0,0,0,0,.65.47.47,0,0,0,.67,0A3.3,3.3,0,0,1,39,19.81a.46.46,0,1,0,.18-.91Z" style="fill:#fff"/><path id="_Path_5" data-name=" Path 5" d="M45.58,17.34A4.18,4.18,0,0,0,48.34,20a.49.49,0,0,0,.59-.31.48.48,0,0,0-.32-.58A3.22,3.22,0,0,1,46.47,17a.48.48,0,0,0-.6-.29A.46.46,0,0,0,45.58,17.34Z" style="fill:#fff"/><path id="Oval" d="M41.45,18.25a3.35,3.35,0,1,1,3.4-3.35A3.38,3.38,0,0,1,41.45,18.25Zm0-.92A2.43,2.43,0,1,0,39,14.9,2.45,2.45,0,0,0,41.45,17.33Z" style="fill:#fff"/></g></svg>