<svg xmlns="http://www.w3.org/2000/svg" viewBox="0 0 85 43"><g id="background"><g id="Ebene_2" data-name="Ebene 2"><rect width="85" height="43" style="fill:#0070ba"/></g></g><g id="icon"><path d="M61.41,16.81H57.56a.54.54,0,0,0-.53.45l-1.56,9.87a.32.32,0,0,0,.32.37h2a.38.38,0,0,0,.37-.32l.44-2.8a.53.53,0,0,1,.53-.45h1.21q3.81,0,4.38-3.66a2.92,2.92,0,0,0-.49-2.48A3.55,3.55,0,0,0,61.41,16.81Zm.44,3.6c-.21,1.38-1.26,1.38-2.28,1.38H59l.41-2.58a.33.33,0,0,1,.32-.27H60c.69,0,1.35,0,1.68.4A1.24,1.24,0,0,1,61.85,20.41Z" style="fill:#fff"/><path d="M34,16.81H30.11a.53.53,0,0,0-.53.45L28,27.13a.32.32,0,0,0,.32.37h1.84a.53.53,0,0,0,.52-.45l.42-2.67a.54.54,0,0,1,.53-.45h1.22q3.81,0,4.38-3.66a3,3,0,0,0-.49-2.48A3.58,3.58,0,0,0,34,16.81Zm.44,3.6c-.21,1.38-1.27,1.38-2.29,1.38h-.58l.41-2.58a.32.32,0,0,1,.32-.27h.26c.7,0,1.35,0,1.69.4A1.27,1.27,0,0,1,34.4,20.41Z" style="fill:#fff"/><path d="M45.46,20.37H43.62a.31.31,0,0,0-.32.27l-.08.51L43.09,21a2.63,2.63,0,0,0-2.18-.78A4.25,4.25,0,0,0,36.8,23.9a3.47,3.47,0,0,0,.68,2.83,2.92,2.92,0,0,0,2.33.94,3.52,3.52,0,0,0,2.55-1.06l-.09.52a.32.32,0,0,0,.32.37h1.66a.54.54,0,0,0,.53-.45l1-6.31A.32.32,0,0,0,45.46,20.37ZM42.89,24a2,2,0,0,1-2.08,1.76,1.59,1.59,0,0,1-1.24-.49,1.62,1.62,0,0,1-.29-1.3,2.07,2.07,0,0,1,2.07-1.77,1.55,1.55,0,0,1,1.23.5A1.59,1.59,0,0,1,42.89,24Z" style="fill:#fff"/><path d="M72.91,20.37H71.07a.32.32,0,0,0-.32.27l-.08.51L70.54,21a2.63,2.63,0,0,0-2.18-.78,4.25,4.25,0,0,0-4.11,3.71,3.44,3.44,0,0,0,.69,2.83,2.88,2.88,0,0,0,2.32.94,3.52,3.52,0,0,0,2.55-1.06l-.08.52a.32.32,0,0,0,.31.37H71.7a.53.53,0,0,0,.53-.45l1-6.31A.32.32,0,0,0,72.91,20.37ZM70.34,24a2,2,0,0,1-2.08,1.76,1.42,1.42,0,0,1-1.52-1.79,2.05,2.05,0,0,1,2.06-1.77,1.54,1.54,0,0,1,1.23.5A1.59,1.59,0,0,1,70.34,24Z" style="fill:#fff"/><path d="M55.28,20.37H53.42a.53.53,0,0,0-.44.23l-2.55,3.76-1.09-3.61a.53.53,0,0,0-.51-.38H47a.31.31,0,0,0-.3.42l2,6-1.92,2.71a.32.32,0,0,0,.26.5h1.85a.53.53,0,0,0,.44-.23l6.16-8.89A.32.32,0,0,0,55.28,20.37Z" style="fill:#fff"/><path d="M75.08,17.08,73.5,27.13a.32.32,0,0,0,.32.37h1.59a.54.54,0,0,0,.53-.45l1.56-9.87a.32.32,0,0,0-.32-.37H75.4A.32.32,0,0,0,75.08,17.08Z" style="fill:#fff"/><path d="M20.47,17.32a3.34,3.34,0,0,0-.72-3c-.78-.9-2.2-1.28-4-1.28H10.45a.76.76,0,0,0-.75.64L7.51,27.58a.45.45,0,0,0,.44.53h3.26L11,29.53a.39.39,0,0,0,.39.46h2.75a.66.66,0,0,0,.65-.56l0-.14L15.32,26l0-.18a.66.66,0,0,1,.65-.56h.41c2.66,0,4.74-1.08,5.35-4.2a3.56,3.56,0,0,0-.55-3.17,2.59,2.59,0,0,0-.75-.58h0" style="fill:#fff;opacity:0.680000007152557;isolation:isolate"/><path d="M20.47,17.32a3.34,3.34,0,0,0-.72-3c-.78-.9-2.2-1.28-4-1.28H10.45a.76.76,0,0,0-.75.64L7.51,27.58a.45.45,0,0,0,.44.53h3.26L12,22.92l0,.16a.76.76,0,0,1,.75-.64H14.3c3,0,5.42-1.23,6.12-4.81,0-.1,0-.21,0-.31" style="fill:#fff;opacity:0.699999988079071;isolation:isolate"/><path d="M12.91,17.34a.68.68,0,0,1,.65-.56H17.7a9.69,9.69,0,0,1,1.37.1l.34.07.33.08.16,0a4.24,4.24,0,0,1,.57.24,3.34,3.34,0,0,0-.72-3c-.78-.9-2.2-1.28-4-1.28H10.45a.76.76,0,0,0-.75.64L7.51,27.58a.45.45,0,0,0,.44.53h3.26L12,22.92Z" style="fill:#fff"/></g></svg>