<svg xmlns="http://www.w3.org/2000/svg" viewBox="0 0 85 43"><g id="background"><g id="Ebene_2" data-name="Ebene 2"><rect width="85" height="43" style="fill:#fff"/></g></g><g id="icon"><g id="g5088"><polygon id="polygon10" points="32.16 31.92 35.7 11.13 41.37 11.13 37.83 31.92 32.16 31.92" style="fill:#1a1f71"/><path id="path12" d="M58.38,11.64a14.66,14.66,0,0,0-5.08-.87c-5.6,0-9.54,2.82-9.58,6.86,0,3,2.82,4.65,5,5.65s3,1.67,2.94,2.58c0,1.39-1.77,2-3.4,2A12,12,0,0,1,42.9,26.8l-.73-.33-.8,4.65a18.12,18.12,0,0,0,6.32,1.11c6,0,9.82-2.79,9.87-7.1,0-2.37-1.49-4.17-4.76-5.65-2-1-3.2-1.61-3.18-2.58s1-1.79,3.24-1.79a10.39,10.39,0,0,1,4.24.8l.51.24.77-4.51Z" style="fill:#1a1f71"/><path id="path14" d="M72.91,11.15H68.53a2.81,2.81,0,0,0-3,1.72L57.15,31.93h6l1.19-3.13h7.26c.17.73.69,3.12.69,3.12H77.5L72.91,11.15m-7,13.4,2.26-5.81c0,.05.47-1.2.75-2l.39,1.79s1.08,5,1.31,6Z" style="fill:#1a1f71"/><path id="path16" d="M27.41,11.14,21.86,25.32l-.59-2.88a16.24,16.24,0,0,0-7.85-8.72L18.49,31.9h6l8.92-20.76Z" style="fill:#1a1f71"/><path id="path18" d="M16.71,11.13H7.57l-.07.44c7.11,1.72,11.81,5.88,13.77,10.87l-2-9.55a2.38,2.38,0,0,0-2.57-1.76Z" style="fill:#f7b600"/></g></g></svg>