<svg xmlns="http://www.w3.org/2000/svg" viewBox="0 0 85 43"><g id="twt-background"><g id="Ebene_2" data-name="Ebene 2"><rect width="85" height="43" style="fill:#fff"/></g></g><g id="twt-primary"><path d="M21.66,15.54H23v9.24H21.66Zm.64,4H24a1.06,1.06,0,0,0,.45-.1.65.65,0,0,0,.29-.28,1,1,0,0,0,.1-.44v-1a1,1,0,0,0-.1-.47.65.65,0,0,0-.29-.3.93.93,0,0,0-.45-.1H22.3V15.54h1.59a3.09,3.09,0,0,1,1.27.24,1.81,1.81,0,0,1,.8.72,2.15,2.15,0,0,1,.28,1.13v1.08A2.25,2.25,0,0,1,26,19.88a1.77,1.77,0,0,1-.81.74,2.86,2.86,0,0,1-1.26.25H22.3Zm1.43,1,1.29-.3,1.48,4.49H25Z"/><path d="M28.22,24.62a1.65,1.65,0,0,1-.7-.71,2.54,2.54,0,0,1-.24-1.15V20.3a2.81,2.81,0,0,1,.24-1.21,1.68,1.68,0,0,1,.68-.76,2.16,2.16,0,0,1,1.08-.26,2.34,2.34,0,0,1,1.09.25,1.71,1.71,0,0,1,.69.72,2.54,2.54,0,0,1,.23,1.15V22H28.34V20.92H30v-.75a1,1,0,0,0-.18-.63.61.61,0,0,0-.5-.22.56.56,0,0,0-.49.24,1.07,1.07,0,0,0-.17.67v2.58a.89.89,0,0,0,.18.59.69.69,0,0,0,.53.2.65.65,0,0,0,.48-.16A.61.61,0,0,0,30,23v-.14h1.33V23a1.84,1.84,0,0,1-.52,1.41,2,2,0,0,1-1.46.49A2.28,2.28,0,0,1,28.22,24.62Z"/><path d="M33.37,24.65a1.55,1.55,0,0,1-.7-.64,2.09,2.09,0,0,1-.24-1V20.06A2.27,2.27,0,0,1,32.67,19a1.7,1.7,0,0,1,.7-.68,2.45,2.45,0,0,1,1.1-.23,2.32,2.32,0,0,1,1.1.24,1.54,1.54,0,0,1,.7.68,2.27,2.27,0,0,1,.24,1.08v.39H35.14v-.33a.87.87,0,0,0-.17-.59.57.57,0,0,0-.48-.21.61.61,0,0,0-.49.21.86.86,0,0,0-.17.57v2.8a.69.69,0,0,0,.17.5.66.66,0,0,0,.49.18.59.59,0,0,0,.48-.19.72.72,0,0,0,.17-.53v-.3h1.39V23a2,2,0,0,1-.25,1,1.63,1.63,0,0,1-.7.65,2.53,2.53,0,0,1-1.11.23A2.45,2.45,0,0,1,33.37,24.65Z"/><path d="M37.53,15.55h1.4v9.23h-1.4Zm2.71,4.63a1,1,0,0,0-.16-.61.59.59,0,0,0-.5-.21.58.58,0,0,0-.49.21,1,1,0,0,0-.16.62l-.13-.87a2.07,2.07,0,0,1,.59-.93,1.34,1.34,0,0,1,.87-.32,1.23,1.23,0,0,1,1,.45,2,2,0,0,1,.35,1.28v5H40.24Z"/><path d="M43,18.19h1.4v6.59H43Zm2.7,2a1,1,0,0,0-.16-.62.68.68,0,0,0-1,0,1,1,0,0,0-.16.63l-.13-.86a2,2,0,0,1,.59-.93,1.32,1.32,0,0,1,.87-.32,1.22,1.22,0,0,1,1,.45,2,2,0,0,1,.36,1.28v5h-1.4Z"/><path d="M49.89,23a.64.64,0,0,0,.15.46.62.62,0,0,0,.46.15.55.55,0,0,0,.44-.16.66.66,0,0,0,.15-.48l.09.73a1.85,1.85,0,0,1-.47.86,1.11,1.11,0,0,1-.77.28,1.26,1.26,0,0,1-1.07-.46,2.13,2.13,0,0,1-.37-1.35V18.19h1.39Zm1.2-4.84h1.39v6.59H51.09Z"/><path d="M53.86,18.19h1.4v6.59h-1.4Zm2.71,2a1,1,0,0,0-.16-.62.59.59,0,0,0-.5-.21.58.58,0,0,0-.49.21,1.08,1.08,0,0,0-.16.63l-.13-.86a2,2,0,0,1,.59-.93,1.36,1.36,0,0,1,.87-.32,1.2,1.2,0,0,1,1,.45A2,2,0,0,1,58,19.8v5H56.57Z"/><path d="M59.85,24.67a1.34,1.34,0,0,1-.47-.65,2.8,2.8,0,0,1-.16-1V20a2.84,2.84,0,0,1,.16-1,1.37,1.37,0,0,1,.47-.66,1.26,1.26,0,0,1,.75-.23,1.24,1.24,0,0,1,.81.31,2.16,2.16,0,0,1,.59.87l-.13.87a1.1,1.1,0,0,0-.08-.43.58.58,0,0,0-.21-.27.65.65,0,0,0-.35-.09.57.57,0,0,0-.47.21.85.85,0,0,0-.17.58v2.76a.77.77,0,0,0,.17.55.59.59,0,0,0,.47.2.65.65,0,0,0,.35-.09.58.58,0,0,0,.21-.27,1,1,0,0,0,.08-.41l.09.88a1.82,1.82,0,0,1-.53.85,1.34,1.34,0,0,1-1.58.08ZM59.77,27a1.8,1.8,0,0,1-.52-1.38v-.25h1.38v.23a.63.63,0,0,0,.17.47.61.61,0,0,0,.46.16.61.61,0,0,0,.45-.16.59.59,0,0,0,.16-.45V18.19h1.39v7.39a2,2,0,0,1-.24,1,1.57,1.57,0,0,1-.7.65,2.68,2.68,0,0,1-1.11.22A2,2,0,0,1,59.77,27Z"/></g></svg>