<svg xmlns="http://www.w3.org/2000/svg" viewBox="0 0 85 43"><g id="icon"><g id="Ebene_2" data-name="Ebene 2"><rect width="85" height="43" style="fill:#fff"/></g><g id="g2997"><g id="g3003"><path id="path3005" d="M55.27,10.85a2.43,2.43,0,1,0-2.42-2.42,2.43,2.43,0,0,0,2.42,2.42M36.69,12.16A17.4,17.4,0,0,1,33.89,17V7.1l-5.08,1V26h5.08V20.46A19,19,0,0,1,36.08,26h6.09a39.87,39.87,0,0,0-3.24-7.11,22.21,22.21,0,0,0,3.57-6.71ZM50,12c-4.55.15-6.86,2.19-6.86,6.24V26h5V19.65c0-2.43.32-3.47,3.2-3.57V12A7.05,7.05,0,0,0,50,12M20.3,14.13c-.63,0-2.07-.14-2.07-1.43,0-1.57,2.08-1.57,2.85-1.57a17.16,17.16,0,0,1,4.41.79s.7.24,1.3.5h.06V8.15l-.08,0a17.59,17.59,0,0,0-6.44-1c-5.55,0-7.51,3.23-7.51,6,0,1.6.68,5.35,7,5.79.54,0,2,.11,2,1.45,0,1.11-1.17,1.76-3.14,1.76A15.47,15.47,0,0,1,13.16,21v4.41a25.68,25.68,0,0,0,6.56.75c5.42,0,7.85-3.06,7.85-6.09,0-3.43-2.71-5.67-7.27-6M52.81,26h4.92V12.17H52.81ZM67,8V26h4.92V7.1ZM59.82,8l4.91-.88V26H59.82Z" style="fill:#862165"/></g><g id="g3007"><path id="path3009" d="M18.45,35.27V32.36c0-.34-.13-.56-.46-.56a1.19,1.19,0,0,0-.76.4v3.07H15.8V32.36c0-.34-.13-.56-.46-.56a1.17,1.17,0,0,0-.76.4v3.07H13.15V30.62h1.26l.1.63A2,2,0,0,1,16,30.52a1.16,1.16,0,0,1,1.16.73,2.07,2.07,0,0,1,1.45-.73c.86,0,1.32.55,1.32,1.45v3.3Z"/></g><g id="g3011"><path id="path3013" d="M22.85,31.7c-.55,0-.84.48-.84,1.24s.3,1.27.84,1.27.86-.51.86-1.26-.31-1.25-.86-1.25m0,3.67A2.2,2.2,0,0,1,20.62,33a2.24,2.24,0,1,1,4.47,0,2.23,2.23,0,0,1-2.25,2.43"/></g><g id="g3015"><path id="path3017" d="M28.55,35.27V32.36c0-.34-.14-.56-.48-.56a1.16,1.16,0,0,0-.78.41v3.06H25.85V30.62h1.26l.11.63a2.11,2.11,0,0,1,1.45-.73c.87,0,1.32.55,1.32,1.45v3.3Z"/></g><g id="g3019"><path id="path3021" d="M32.88,31.45c-.4,0-.69.36-.73,1.07h1.46c0-.71-.3-1.07-.73-1.07M35,33.31H32.16a1,1,0,0,0,1.14,1,3.11,3.11,0,0,0,1.52-.48l.15,1a3.33,3.33,0,0,1-1.85.53A2.18,2.18,0,0,1,30.72,33a2.2,2.2,0,0,1,2.2-2.44c1.42,0,2.06,1.07,2.06,2.42a1.83,1.83,0,0,1,0,.37"/></g><g id="g3023"><path id="path3025" d="M38.25,35.37c-.42,1.21-1,1.63-2,1.63a2.14,2.14,0,0,1-.55-.06l-.18-1.15a1.69,1.69,0,0,0,.57.08.76.76,0,0,0,.76-.45l.06-.14-1.69-4.55,1.54-.18.9,2.94.86-2.87H39.9Z"/></g><g id="g3027"><path id="path3029" d="M42.69,31.81a1.07,1.07,0,0,0-.78.44v1.84a1.42,1.42,0,0,0,.52.09c.56,0,1-.34,1-1.26s-.29-1.11-.7-1.11m-.22,3.52a5.7,5.7,0,0,1-2-.33V28.64l1.44-.23v2.72a1.73,1.73,0,0,1,1.24-.61c1,0,1.67.72,1.67,2.3a2.18,2.18,0,0,1-2.35,2.51"/></g><g id="g3031"><path id="path3033" d="M47.61,31.7c-.55,0-.84.48-.84,1.24s.3,1.27.84,1.27.86-.51.86-1.26-.31-1.25-.86-1.25m0,3.67A2.2,2.2,0,0,1,45.38,33a2.24,2.24,0,1,1,4.47,0,2.23,2.23,0,0,1-2.25,2.43"/></g><g id="g3035"><path id="path3037" d="M52.62,31.7c-.55,0-.85.48-.85,1.24s.31,1.27.85,1.27.85-.51.85-1.26-.3-1.25-.85-1.25m0,3.67A2.21,2.21,0,0,1,50.38,33a2.25,2.25,0,1,1,4.48,0,2.23,2.23,0,0,1-2.25,2.43"/></g><g id="g3039"><path id="path3041" d="M58.4,35.34l-1.35-2.23v2.16H55.62V28.64l1.43-.23v4.12l1.24-1.91h1.54l-1.46,2.12,1.52,2.39Z"/></g><g id="g3043"><path id="path3045" d="M62.15,31.45c-.4,0-.68.36-.73,1.07h1.46c-.05-.71-.29-1.07-.73-1.07m2.07,1.86H61.43a1,1,0,0,0,1.14,1,3.18,3.18,0,0,0,1.53-.48l.14,1a3.33,3.33,0,0,1-1.85.53A2.18,2.18,0,0,1,60,33a2.2,2.2,0,0,1,2.2-2.44c1.42,0,2.06,1.07,2.06,2.42a1.83,1.83,0,0,1,0,.37"/></g><g id="g3047"><path id="path3049" d="M66.45,32.69v2.58H65V30.62h1.25l.15.92a1.67,1.67,0,0,1,1.36-1L68,32a2.29,2.29,0,0,0-1.57.71"/></g><g id="g3051"><path id="path3053" d="M70.27,35.35a4.14,4.14,0,0,1-1.91-.47l.17-1.09a3.58,3.58,0,0,0,1.76.55c.39,0,.58-.13.58-.35s-.13-.34-.78-.5c-1.17-.31-1.67-.62-1.67-1.5s.65-1.44,1.79-1.44a4.43,4.43,0,0,1,1.72.34L71.75,32a3.52,3.52,0,0,0-1.53-.43c-.34,0-.5.12-.5.3s.14.3.79.48c1.24.33,1.67.64,1.67,1.51s-.67,1.51-1.91,1.51"/></g></g></g></svg>