<svg xmlns="http://www.w3.org/2000/svg" viewBox="0 0 85 43"><g id="background"><g id="Ebene_2" data-name="Ebene 2"><rect width="85" height="43" style="fill:#eb6f93"/></g></g><g id="icon"><path id="Shape" d="M30.54,29.56H28.63a4.89,4.89,0,0,1-2,3.94l-.76.57,2.94,4h2.42l-2.71-3.68A6.73,6.73,0,0,0,30.54,29.56Z" style="fill:#fff"/><rect id="Rectangle-path" x="23.69" y="29.56" width="1.96" height="8.49" style="fill:#fff"/><rect x="31.82" y="29.56" width="1.85" height="8.49" style="fill:#fff"/><path d="M49.89,32a2.12,2.12,0,0,0-1.82.82v-.66H46.31v5.88h1.78V35a1.23,1.23,0,0,1,1.33-1.32A1.15,1.15,0,0,1,50.64,35v3.1H52.4V34.32A2.33,2.33,0,0,0,49.89,32Z" style="fill:#fff"/><path d="M39.26,32.18v.38a3.1,3.1,0,1,0,0,5.12v.38H41V32.18Zm-1.61,4.45a1.51,1.51,0,1,1,1.6-1.51A1.56,1.56,0,0,1,37.65,36.63Z" style="fill:#fff"/><path d="M43.76,32.94v-.76H42v5.88h1.82V35.32c0-.93,1-1.42,1.7-1.42h0V32.18A2.22,2.22,0,0,0,43.76,32.94Z" style="fill:#fff"/><path d="M57.89,32.18v.38a3.1,3.1,0,1,0,0,5.12v.38h1.76V32.18Zm-1.61,4.45a1.51,1.51,0,1,1,1.6-1.51A1.56,1.56,0,0,1,56.28,36.63Z" style="fill:#fff"/><path d="M61.54,36a1.11,1.11,0,1,0,1.11,1.1A1.11,1.11,0,0,0,61.54,36Z" style="fill:#fff"/><path id="_Path_" data-name=" Path " d="M40.18,20a1.14,1.14,0,0,1,0,1.63l-.08.1a1.17,1.17,0,0,1-1.64,0L35.9,19.18c-.71-.71-.81-1.59-.36-2.05l.09-.1a1.06,1.06,0,0,1,1.4-.09.47.47,0,0,0,.58-.73,2,2,0,0,0-2.65.18l-.09.09a2.4,2.4,0,0,0,.37,3.36l2.59,2.56a2.09,2.09,0,0,0,3,0l.09-.09a2.09,2.09,0,0,0,0-2.95.46.46,0,0,0-.65,0A.47.47,0,0,0,40.18,20Z" style="fill:#fff"/><path id="_Path_2" data-name=" Path 2" d="M38.64,6.13l1,8.68a.48.48,0,0,0,.52.41.47.47,0,0,0,.41-.52L39.56,6V5.93a1.39,1.39,0,0,1,.86-1.66,1.27,1.27,0,0,1,1,.19,1.28,1.28,0,0,1,.56.82l1.83,7.85a.47.47,0,0,0,.91-.21L42.84,5.08a2.19,2.19,0,0,0-2.62-1.71A2.3,2.3,0,0,0,38.64,6.13Z" style="fill:#fff"/><path id="_Path_3" data-name=" Path 3" d="M48.34,16.33,50.43,5.92A2.2,2.2,0,0,0,48.9,3.35,2.3,2.3,0,0,0,46.1,5L43.78,12.9a.47.47,0,1,0,.9.26L47,5.23a1.38,1.38,0,0,1,1.66-1,1.27,1.27,0,0,1,.87,1.49L47.43,16.15a.46.46,0,1,0,.91.18Z" style="fill:#fff"/><path d="M43.08,26.36A5.88,5.88,0,0,1,37,20.48a.47.47,0,0,0-.93,0,6.81,6.81,0,0,0,7,6.81.47.47,0,1,0,0-.93Z" style="fill:#fff"/><path id="_Path_4" data-name=" Path 4" d="M41.45,18.25a1.24,1.24,0,0,1-.46.64l-.1.06a1.16,1.16,0,0,1-1.61-.31l-2-3c-.56-.84-.49-1.72,0-2.09l.1-.06c.68-.4,1.26-.1,1.86.77L41,16.76a.46.46,0,0,0,.64.13.47.47,0,0,0,.13-.64L40,13.72c-.84-1.22-1.88-1.76-3.12-1l-.13.08a2.4,2.4,0,0,0-.31,3.37l2,3a2.1,2.1,0,0,0,2.9.56l.1-.07a2.07,2.07,0,0,0,.83-1.16.46.46,0,1,0-.89-.24Z" style="fill:#fff"/><path d="M44.52,19.78a3.48,3.48,0,0,0-1.64,3.09.47.47,0,0,0,.44.48.46.46,0,0,0,.49-.44,2.42,2.42,0,0,1,1.48-2.46,3.21,3.21,0,0,1,1.42-.17l.12,0a.46.46,0,0,0,.19-.91l-3.57-.8c-1.67-.45-1.93-1.07-1.62-2.1a1,1,0,0,1,.82-.77,2.37,2.37,0,0,1,.88,0l.17,0L49.11,17l.11,0a.78.78,0,0,1,.27.2A3,3,0,0,1,50,19.57c-.36,4.21-2.32,6.83-7,6.79a.46.46,0,0,0-.46.46.47.47,0,0,0,.46.47c5.23,0,7.51-3,7.9-7.64a3.85,3.85,0,0,0-.71-3,1.6,1.6,0,0,0-.88-.52l-5.36-1.25-.24,0a3.24,3.24,0,0,0-1.24,0,2,2,0,0,0-1.51,1.41c-.44,1.49,0,2.66,2.28,3.27Z" style="fill:#fff"/></g></svg>