<svg xmlns="http://www.w3.org/2000/svg" viewBox="0 0 85 43"><g id="twt-background"><g id="Ebene_2" data-name="Ebene 2"><rect width="85" height="43" style="fill:#fff"/></g></g><g id="twt-primary"><path d="M18.3,15.55h1.4v9.23H18.3Zm.83,7.92h1.45a.78.78,0,0,0,.55-.18.66.66,0,0,0,.19-.51V21.56a1.19,1.19,0,0,0-.09-.49.66.66,0,0,0-.27-.32.82.82,0,0,0-.42-.11H19.13v-1.3h1.39a.61.61,0,0,0,.51-.22.94.94,0,0,0,.18-.62v-1A.68.68,0,0,0,21,17a.65.65,0,0,0-.5-.18h-1.4v-1.3H20.6a2.54,2.54,0,0,1,1.08.21,1.53,1.53,0,0,1,.68.65,2,2,0,0,1,.24,1v1a1.67,1.67,0,0,1-.16.76,1.34,1.34,0,0,1-.43.54,1.55,1.55,0,0,1-.68.28,1.86,1.86,0,0,1,.75.28,1.5,1.5,0,0,1,.47.56,1.86,1.86,0,0,1,.17.81v1.24a2.18,2.18,0,0,1-.23,1,1.61,1.61,0,0,1-.67.65,2.33,2.33,0,0,1-1.06.23H19.13Z"/><path d="M24.18,24.4a2.14,2.14,0,0,1-.4-1.4,2.23,2.23,0,0,1,.54-1.63,2.09,2.09,0,0,1,1.57-.56h.67L26.65,22h-.71a.74.74,0,0,0-.63.26,1.19,1.19,0,0,0-.21.76.74.74,0,0,0,.16.51.64.64,0,0,0,.47.17.74.74,0,0,0,.59-.22.86.86,0,0,0,.21-.63l.12.57a2.12,2.12,0,0,1-.16.81,1.06,1.06,0,0,1-.43.5,1.41,1.41,0,0,1-.71.16A1.47,1.47,0,0,1,24.18,24.4ZM26.53,20a.69.69,0,0,0-.18-.51.68.68,0,0,0-.5-.18.52.52,0,0,0-.43.18.73.73,0,0,0-.16.51H23.92a1.87,1.87,0,0,1,.52-1.42,1.94,1.94,0,0,1,1.43-.51A2.39,2.39,0,0,1,27,18.3a1.6,1.6,0,0,1,.68.66,2.25,2.25,0,0,1,.23,1v4.78H26.53Z"/><path d="M29.25,18.19h1.39v6.59H29.25Zm3,1.32H32a1.37,1.37,0,0,0-1,.35,1.3,1.3,0,0,0-.37.95l-.13-1.47a2.4,2.4,0,0,1,.78-.93,1.76,1.76,0,0,1,1.05-.34V19.5Z"/><path d="M36.77,19.39l-2.11,4.08h2.28v1.31H33.17V23.55l2.2-4.06H33.26v-1.3h3.51Z"/><path d="M38.33,24.4a2.09,2.09,0,0,1-.4-1.4,2.23,2.23,0,0,1,.54-1.63A2.09,2.09,0,0,1,40,20.81h.67L40.8,22h-.72a.74.74,0,0,0-.62.26,1.19,1.19,0,0,0-.21.76.69.69,0,0,0,.16.51.63.63,0,0,0,.47.17.74.74,0,0,0,.59-.22.85.85,0,0,0,.2-.63l.12.57a2,2,0,0,1-.15.81,1.08,1.08,0,0,1-.44.5,1.37,1.37,0,0,1-.7.16A1.47,1.47,0,0,1,38.33,24.4ZM40.67,20a.73.73,0,0,0-.17-.51.69.69,0,0,0-.51-.18.54.54,0,0,0-.43.18.84.84,0,0,0-.16.51H38.06a1.79,1.79,0,0,1,2-1.93,2.32,2.32,0,0,1,1.07.23,1.5,1.5,0,0,1,.68.66A2.13,2.13,0,0,1,42,20v4.78H40.67Z"/><path d="M43.39,15.55h1.4v9.23h-1.4Zm2.71,4.63a1,1,0,0,0-.16-.61.59.59,0,0,0-.5-.21.58.58,0,0,0-.49.21,1,1,0,0,0-.16.62l-.13-.87a2,2,0,0,1,.59-.93,1.34,1.34,0,0,1,.87-.32,1.23,1.23,0,0,1,1,.45,2,2,0,0,1,.35,1.28v5H46.1Z"/><path d="M50.27,22.9a.57.57,0,0,0,.12.39.43.43,0,0,0,.34.14H51v1.35h-.54a1.53,1.53,0,0,1-1.17-.46A1.9,1.9,0,0,1,48.88,23V15.55h1.39Z"/><path d="M53.27,23a.64.64,0,0,0,.15.46.62.62,0,0,0,.46.15.57.57,0,0,0,.44-.16.66.66,0,0,0,.15-.48l.09.73a1.77,1.77,0,0,1-.48.86,1.07,1.07,0,0,1-.76.28,1.29,1.29,0,0,1-1.08-.46,2.13,2.13,0,0,1-.36-1.35V18.19h1.39Zm1.2-4.84h1.39v6.59H54.47Z"/><path d="M57.24,18.19h1.4v6.59h-1.4Zm2.7,2a1,1,0,0,0-.15-.62.6.6,0,0,0-.5-.21.58.58,0,0,0-.49.21,1.08,1.08,0,0,0-.16.63l-.13-.86a2,2,0,0,1,.59-.93,1.32,1.32,0,0,1,.87-.32,1.21,1.21,0,0,1,1,.45,2,2,0,0,1,.36,1.28v5h-1.4Z"/><path d="M63.23,24.67a1.41,1.41,0,0,1-.48-.65,3,3,0,0,1-.16-1V20a3.14,3.14,0,0,1,.16-1,1.41,1.41,0,0,1,.48-.65,1.26,1.26,0,0,1,.75-.23,1.28,1.28,0,0,1,.81.31,2.16,2.16,0,0,1,.59.87l-.13.87a1.1,1.1,0,0,0-.08-.43.58.58,0,0,0-.21-.27.65.65,0,0,0-.35-.09.57.57,0,0,0-.47.21.86.86,0,0,0-.18.58v2.76a.78.78,0,0,0,.18.55.59.59,0,0,0,.47.2.65.65,0,0,0,.35-.09.58.58,0,0,0,.21-.27,1,1,0,0,0,.08-.41l.09.88a1.82,1.82,0,0,1-.53.85,1.34,1.34,0,0,1-1.58.08ZM63.15,27a1.8,1.8,0,0,1-.52-1.38v-.25H64v.23a.62.62,0,0,0,.16.47.64.64,0,0,0,.47.16.61.61,0,0,0,.45-.16.63.63,0,0,0,.16-.45V18.19h1.39v7.39a2,2,0,0,1-.24,1,1.6,1.6,0,0,1-.71.65,2.6,2.6,0,0,1-1.1.21A2,2,0,0,1,63.15,27Z"/></g></svg>