<svg xmlns="http://www.w3.org/2000/svg" viewBox="0 0 85 43"><g id="twt-background"><g id="Ebene_2" data-name="Ebene 2"><rect width="85" height="43" style="fill:#fff"/></g></g><g id="twt-primary"><path d="M8,24.59a1.76,1.76,0,0,1-.75-.8A2.94,2.94,0,0,1,7,22.52V17.81a2.87,2.87,0,0,1,.26-1.27A1.84,1.84,0,0,1,8,15.73a2.28,2.28,0,0,1,1.17-.28,2.27,2.27,0,0,1,1.18.28,1.74,1.74,0,0,1,.75.81,2.9,2.9,0,0,1,.26,1.27v.57H9.93v-.57a1.35,1.35,0,0,0-.09-.52.69.69,0,0,0-.69-.46.71.71,0,0,0-.41.12.89.89,0,0,0-.27.33,1.4,1.4,0,0,0-.09.53v4.71a1.35,1.35,0,0,0,.09.52.75.75,0,0,0,.27.33.71.71,0,0,0,.41.12.75.75,0,0,0,.43-.12A.78.78,0,0,0,9.84,23a1.4,1.4,0,0,0,.09-.53v-.57h1.41v.57a3.14,3.14,0,0,1-.26,1.28,1.84,1.84,0,0,1-.75.81,2.42,2.42,0,0,1-1.18.27A2.28,2.28,0,0,1,8,24.59Z"/><path d="M12.84,24.4a2.09,2.09,0,0,1-.4-1.4A2.28,2.28,0,0,1,13,21.37a2.09,2.09,0,0,1,1.57-.56h.68L15.31,22h-.72a.72.72,0,0,0-.62.26,1.19,1.19,0,0,0-.21.76.69.69,0,0,0,.16.51.6.6,0,0,0,.46.17.78.78,0,0,0,.6-.22.9.9,0,0,0,.2-.63l.12.57a2.12,2.12,0,0,1-.16.81,1.06,1.06,0,0,1-.43.5,1.41,1.41,0,0,1-.71.16A1.44,1.44,0,0,1,12.84,24.4ZM15.18,20a.69.69,0,0,0-.18-.51.68.68,0,0,0-.5-.18.52.52,0,0,0-.43.18.78.78,0,0,0-.16.51H12.57a1.9,1.9,0,0,1,.52-1.42,2,2,0,0,1,1.44-.51,2.38,2.38,0,0,1,1.07.23,1.6,1.6,0,0,1,.68.66,2.25,2.25,0,0,1,.23,1v4.78H15.18Z"/><path d="M18.54,24.62a1.69,1.69,0,0,1-.71-.69,2.1,2.1,0,0,1-.26-1.05V22.8H18.9v.08a.77.77,0,0,0,.19.55.66.66,0,0,0,.51.21.7.7,0,0,0,.52-.2.72.72,0,0,0,.18-.51.63.63,0,0,0-.12-.4.91.91,0,0,0-.3-.25L19.36,22l-.09,0s-.05,0-.08,0h-.06a3.91,3.91,0,0,1-.74-.39,1.58,1.58,0,0,1-.52-.59,2,2,0,0,1-.21-1,2.08,2.08,0,0,1,.23-1,1.69,1.69,0,0,1,.66-.69,2,2,0,0,1,1-.24,2.11,2.11,0,0,1,1,.23,1.58,1.58,0,0,1,.67.66,2.08,2.08,0,0,1,.23,1V20l-1.32,0V20a.67.67,0,0,0-.16-.46.58.58,0,0,0-.83,0A.78.78,0,0,0,19,20a.7.7,0,0,0,.12.42.9.9,0,0,0,.32.26,3.08,3.08,0,0,0,.52.21H20a4.26,4.26,0,0,1,.82.36,1.55,1.55,0,0,1,.55.58,2.33,2.33,0,0,1,0,2.08,1.61,1.61,0,0,1-.71.68,2.25,2.25,0,0,1-1.07.24A2.13,2.13,0,0,1,18.54,24.62Z"/><path d="M22.65,15.55H24v9.23H22.65Zm2.7,4.63a1,1,0,0,0-.16-.61.68.68,0,0,0-1,0,1,1,0,0,0-.17.62l-.12-.87a2.06,2.06,0,0,1,.58-.93,1.36,1.36,0,0,1,.88-.32,1.21,1.21,0,0,1,1,.45,2,2,0,0,1,.36,1.28v5h-1.4Z"/><path d="M31.58,24.65a1.57,1.57,0,0,1-.67-.63,2.08,2.08,0,0,1-.23-1V19.89a2,2,0,0,1,.23-1,1.49,1.49,0,0,1,.67-.62,2.59,2.59,0,0,1,2.09,0,1.42,1.42,0,0,1,.66.62,2,2,0,0,1,.22,1V23a2.07,2.07,0,0,1-.22,1,1.55,1.55,0,0,1-.66.63,2.4,2.4,0,0,1-1.05.21A2.25,2.25,0,0,1,31.58,24.65ZM33,23.41a.69.69,0,0,0,.14-.47V20a.69.69,0,0,0-.14-.45.61.61,0,0,0-.82,0,.64.64,0,0,0-.15.45v3a.68.68,0,0,0,.15.47.52.52,0,0,0,.41.17A.53.53,0,0,0,33,23.41Z"/><path d="M35.8,18.19h1.41v6.59H35.8Zm2.71,2a1,1,0,0,0-.16-.62.59.59,0,0,0-.5-.21.55.55,0,0,0-.48.21,1,1,0,0,0-.16.63l-.14-.86a2,2,0,0,1,.59-.93,1.36,1.36,0,0,1,.87-.32,1.23,1.23,0,0,1,1,.45,2,2,0,0,1,.35,1.28v5H38.51Z"/><path d="M44.47,24.67A1.34,1.34,0,0,1,44,24a2.8,2.8,0,0,1-.16-1V20A2.84,2.84,0,0,1,44,19a1.44,1.44,0,0,1,.47-.66,1.25,1.25,0,0,1,.74-.23,1.29,1.29,0,0,1,.82.31,2.27,2.27,0,0,1,.59.87l-.14.89a1.11,1.11,0,0,0-.07-.43.58.58,0,0,0-.21-.27.65.65,0,0,0-.35-.09.57.57,0,0,0-.47.21.91.91,0,0,0-.17.58v2.73a.79.79,0,0,0,.17.54.59.59,0,0,0,.47.2.65.65,0,0,0,.35-.09.61.61,0,0,0,.21-.26,1.09,1.09,0,0,0,.07-.42l.09.9a1.73,1.73,0,0,1-.52.85,1.27,1.27,0,0,1-.84.3A1.24,1.24,0,0,1,44.47,24.67Zm2-9.12h1.4v9.23h-1.4Z"/><path d="M50.08,24.62a1.6,1.6,0,0,1-.7-.71,2.41,2.41,0,0,1-.25-1.15V20.3a2.81,2.81,0,0,1,.24-1.21,1.8,1.8,0,0,1,.68-.76,2.16,2.16,0,0,1,1.08-.26,2.31,2.31,0,0,1,1.09.25,1.71,1.71,0,0,1,.69.72,2.54,2.54,0,0,1,.24,1.15V22h-3V20.92h1.62v-.75a1,1,0,0,0-.18-.63.59.59,0,0,0-.5-.22.58.58,0,0,0-.49.24,1.14,1.14,0,0,0-.17.67v2.58a.84.84,0,0,0,.19.59.67.67,0,0,0,.52.2.65.65,0,0,0,.48-.16.57.57,0,0,0,.17-.45v-.14h1.34V23a1.84,1.84,0,0,1-.52,1.41,2.06,2.06,0,0,1-1.47.49A2.21,2.21,0,0,1,50.08,24.62Z"/><path d="M55.82,22.9a.62.62,0,0,0,.11.39.43.43,0,0,0,.34.14h.28v1.35H56a1.49,1.49,0,0,1-1.16-.46A1.86,1.86,0,0,1,54.42,23V15.55h1.4Z"/><path d="M57.42,15.59h1.39V17H57.42Zm0,2.6h1.39v6.59H57.42Z"/><path d="M62.92,18.19h1.37l-1.75,6.59H61.46l-1.77-6.59h1.37l.94,4.6Z"/><path d="M65.92,24.62a1.65,1.65,0,0,1-.7-.71A2.54,2.54,0,0,1,65,22.76V20.3a2.81,2.81,0,0,1,.23-1.21,1.76,1.76,0,0,1,.69-.76A2.15,2.15,0,0,1,67,18.07a2.28,2.28,0,0,1,1.09.25,1.6,1.6,0,0,1,.69.72A2.54,2.54,0,0,1,69,20.19V22H66V20.92h1.61v-.75a1,1,0,0,0-.17-.63.61.61,0,0,0-.51-.22.55.55,0,0,0-.48.24,1.07,1.07,0,0,0-.18.67v2.58a.89.89,0,0,0,.19.59.69.69,0,0,0,.53.2.68.68,0,0,0,.48-.16.61.61,0,0,0,.17-.45v-.14H69V23a1.84,1.84,0,0,1-.52,1.41,2,2,0,0,1-1.46.49A2.25,2.25,0,0,1,65.92,24.62Z"/><path d="M70.26,18.19h1.4v6.59h-1.4Zm3,1.32H73a1.37,1.37,0,0,0-1,.35,1.3,1.3,0,0,0-.37.95l-.13-1.47a2.4,2.4,0,0,1,.78-.93,1.76,1.76,0,0,1,1-.34V19.5Z"/><path d="M74,18.19H75.3l1.34,5.7L76,25.4Zm4.57,0-1.87,8.13a1.58,1.58,0,0,1-.34.67,1.48,1.48,0,0,1-.62.4,2.84,2.84,0,0,1-.92.13h-.34V26.17h.36a1,1,0,0,0,.59-.15.92.92,0,0,0,.28-.53l1.51-7.3Z"/></g></svg>