<svg xmlns="http://www.w3.org/2000/svg" xmlns:xlink="http://www.w3.org/1999/xlink" viewBox="0 0 85 43"><defs><radialGradient id="Unbenannter_Verlauf_6" cx="269.28" cy="-363.01" r="0.58" gradientTransform="matrix(19.17, 0, 0, -21.64, -5147.19, -7839.6)" gradientUnits="userSpaceOnUse"><stop offset="0" stop-color="#fc0"/><stop offset="0.09" stop-color="#ffc800"/><stop offset="0.17" stop-color="#ffbd00"/><stop offset="0.25" stop-color="#ffab00"/><stop offset="0.33" stop-color="#ff9100"/><stop offset="0.4" stop-color="#ff7000"/><stop offset="0.48" stop-color="#ff4700"/><stop offset="0.55" stop-color="#ff1800"/><stop offset="0.58" stop-color="red"/><stop offset="1" stop-color="red"/></radialGradient><radialGradient id="Unbenannter_Verlauf_4" cx="264.44" cy="-363.02" r="0.72" gradientTransform="matrix(14.31, 0, 0, -21.67, -3775.24, -7848.25)" gradientUnits="userSpaceOnUse"><stop offset="0" stop-color="#00b4e6"/><stop offset="0.2" stop-color="#00b0e3"/><stop offset="0.39" stop-color="#01a5db"/><stop offset="0.57" stop-color="#0292cd"/><stop offset="0.75" stop-color="#0377ba"/><stop offset="0.93" stop-color="#0455a1"/><stop offset="1" stop-color="#054696"/></radialGradient></defs><g id="background"><g id="Ebene_2" data-name="Ebene 2"><rect width="85" height="43"/></g></g><g id="icon"><path id="Shape" d="M27,26.87a1,1,0,0,1-.48.82l-9.28,5.37a1.08,1.08,0,0,1-1,0L7,27.69a1,1,0,0,1-.48-.82V16.13A1.06,1.06,0,0,1,7,15.31l9.28-5.37a1.08,1.08,0,0,1,1,0l9.28,5.37a1,1,0,0,1,.48.82Zm51.52-10H70.19v2h3v8.5h2.35v-8.5h3Zm-37.74,0H32.44v2h3v8.5h2.35v-8.5h3Zm24.05-.32a3.78,3.78,0,0,0-4.07,4.08v6.73h2.32V20.61a1.7,1.7,0,0,1,1.77-1.86,1.78,1.78,0,0,1,1.76,1.86v6.78h2.33V20.66A3.81,3.81,0,0,0,64.81,16.58ZM56,16.9V27.39h2.33V16.9Zm-7.88,4.16.07.47,2.19,5.86h1l3-10.49H52l-1.42,5.51-.09.6-.11-.6-1.9-5.51h-.75l-1.9,5.51-.11.6-.08-.6L44.26,16.9H42l3,10.49h1l2.19-5.86.07-.47" style="fill:#fff"/><path id="Shape-2" data-name="Shape" d="M21.58,21.53l-2.43,3.55-1.23-1.9L19.34,21a2.78,2.78,0,0,0,.18-2.86,3,3,0,0,0-2.69-1.72,3,3,0,0,0-2.71,1.72A2.75,2.75,0,0,0,14.29,21s.79,1.16,1.45,2.15l1.08,1.56,1.61,2.48a1,1,0,0,0,.72.4,1,1,0,0,0,.74-.43l3.79-5.62h-2.1v0Zm-4.76.08s-.64-1-1.05-1.63a1.21,1.21,0,1,1,2.1,0C17.46,20.65,16.82,21.61,16.82,21.61Z" style="fill:url(#Unbenannter_Verlauf_6)"/><path d="M14.49,25l-2.38-3.34s-.63-1-1-1.64a1.19,1.19,0,0,1,1-1.79,1.08,1.08,0,0,1,.36.05l.83-1.54a3.12,3.12,0,0,0-1.17-.25,3,3,0,0,0-2.71,1.72A2.78,2.78,0,0,0,9.58,21l4.16,6.16a1,1,0,0,0,.75.45.9.9,0,0,0,.73-.44l1.26-1.91L15.4,23.69,14.49,25Z" style="fill:url(#Unbenannter_Verlauf_4)"/></g></svg>