<svg xmlns="http://www.w3.org/2000/svg" viewBox="0 0 85 43"><g id="icon"><path id="path5457" d="M10.26,34.32V32H12v.39H10.72v.51h1.16v.39H10.72v.63H12v.38Z" style="fill:#10298e"/><path id="path5459" d="M12.42,32h.44v.41h-.44Zm0,.64h.44v1.66h-.44Z" style="fill:#10298e"/><path id="path5471" d="M14.85,34.32h-.44v-.85a2.28,2.28,0,0,0,0-.35.23.23,0,0,0-.1-.12.24.24,0,0,0-.15,0,.34.34,0,0,0-.2.06.27.27,0,0,0-.13.17,1.51,1.51,0,0,0,0,.38v.75h-.44V32.66h.41v.24a.64.64,0,0,1,.54-.28.76.76,0,0,1,.27.05.44.44,0,0,1,.18.14.38.38,0,0,1,.09.18,1.24,1.24,0,0,1,0,.3Z" style="fill:#10298e"/><path id="path5475" d="M15.76,32v.85a.66.66,0,0,1,.51-.25.61.61,0,0,1,.28.06.37.37,0,0,1,.18.14.66.66,0,0,1,.09.19,2.68,2.68,0,0,1,0,.34v1H16.4v-.88a1.11,1.11,0,0,0,0-.33.18.18,0,0,0-.08-.11.29.29,0,0,0-.16,0,.33.33,0,0,0-.2,0,.34.34,0,0,0-.13.16,1.19,1.19,0,0,0,0,.32v.83h-.44V32Z" style="fill:#10298e"/><path id="path5479" d="M18.28,33.79l.44.08a.8.8,0,0,1-.27.37.83.83,0,0,1-.46.12.74.74,0,0,1-.64-.28,1,1,0,0,1-.17-.58.92.92,0,0,1,.22-.65.73.73,0,0,1,.55-.23.74.74,0,0,1,.58.24,1.11,1.11,0,0,1,.21.76H17.63a.45.45,0,0,0,.11.3A.31.31,0,0,0,18,34a.35.35,0,0,0,.18-.05.38.38,0,0,0,.11-.19m0-.44a.4.4,0,0,0-.1-.29A.29.29,0,0,0,18,33a.33.33,0,0,0-.24.1.44.44,0,0,0-.09.29Z" style="fill:#10298e"/><path id="path5481" d="M19.12,32h.44v.41h-.44Zm0,.64h.44v1.66h-.44Z" style="fill:#10298e"/><path id="path5485" d="M20.8,32.66V33h-.3v.67a1.11,1.11,0,0,0,0,.24l0,0,.07,0a.62.62,0,0,0,.18,0l0,.35a1,1,0,0,1-.35.06.54.54,0,0,1-.22,0,.39.39,0,0,1-.14-.1.38.38,0,0,1-.06-.17,2.29,2.29,0,0,1,0-.31V33h-.21v-.35h.21v-.33l.44-.26v.59Z" style="fill:#10298e"/><path id="path5487" d="M21.13,32h.44v2.3h-.44Z" style="fill:#10298e"/><path id="path5489" d="M22,32h.45v.41H22Zm0,.64h.45v1.66H22Z" style="fill:#10298e"/><path id="path5493" d="M24.41,33.15l-.43.08a.38.38,0,0,0-.1-.2.32.32,0,0,0-.2-.06.33.33,0,0,0-.27.11.62.62,0,0,0-.09.38.65.65,0,0,0,.1.42.31.31,0,0,0,.26.12.28.28,0,0,0,.21-.07.45.45,0,0,0,.11-.24l.43.07a.76.76,0,0,1-.25.45.82.82,0,0,1-.52.15.77.77,0,0,1-.58-.23,1,1,0,0,1,0-1.28.79.79,0,0,1,.59-.23.78.78,0,0,1,.48.13.72.72,0,0,1,.26.4" style="fill:#10298e"/><path id="path5497" d="M25.21,32v.85a.63.63,0,0,1,.51-.25.6.6,0,0,1,.27.06.35.35,0,0,1,.19.14.46.46,0,0,1,.08.19,1.46,1.46,0,0,1,0,.34v1h-.45v-.88a1.25,1.25,0,0,0,0-.33.24.24,0,0,0-.09-.11.25.25,0,0,0-.16,0,.3.3,0,0,0-.19,0,.34.34,0,0,0-.13.16.89.89,0,0,0,0,.32v.83h-.44V32Z" style="fill:#10298e"/><path id="path5501" d="M27.72,33.79l.44.08a.69.69,0,0,1-.72.49.76.76,0,0,1-.65-.28,1,1,0,0,1-.16-.58,1,1,0,0,1,.21-.65.75.75,0,0,1,.55-.23.76.76,0,0,1,.59.24,1.11,1.11,0,0,1,.2.76h-1.1a.41.41,0,0,0,.11.3.3.3,0,0,0,.25.11.29.29,0,0,0,.17-.05.32.32,0,0,0,.11-.19m0-.44a.45.45,0,0,0-.1-.29.3.3,0,0,0-.23-.1.3.3,0,0,0-.24.1.44.44,0,0,0-.09.29Z" style="fill:#10298e"/><path id="path5505" d="M29,34.32h-.44V32.66H29v.23a.73.73,0,0,1,.19-.22.36.36,0,0,1,.19-.05.63.63,0,0,1,.29.08l-.14.39a.37.37,0,0,0-.21-.08.2.2,0,0,0-.15.06.31.31,0,0,0-.11.18,3.26,3.26,0,0,0,0,.56Z" style="fill:#10298e"/><path id="path5509" d="M30.76,34.32V32h1.7v.39H31.22v.51h1.16v.39H31.22v.63h1.29v.38Z" style="fill:#10298e"/><path id="path5513" d="M34,34.32v-.25a.61.61,0,0,1-.24.21.58.58,0,0,1-.31.08.62.62,0,0,1-.31-.07.43.43,0,0,1-.19-.21.92.92,0,0,1-.06-.37V32.66h.44v.76a1.67,1.67,0,0,0,0,.43.18.18,0,0,0,.09.13.25.25,0,0,0,.16.05.31.31,0,0,0,.2-.07.29.29,0,0,0,.12-.15,1.37,1.37,0,0,0,0-.45v-.7h.44v1.66Z" style="fill:#10298e"/><path id="path5517" d="M35.33,34.32h-.44V32.66h.41v.23a.73.73,0,0,1,.19-.22.38.38,0,0,1,.19-.05.63.63,0,0,1,.29.08l-.14.39a.37.37,0,0,0-.21-.08.2.2,0,0,0-.15.06.26.26,0,0,0-.1.18,2.28,2.28,0,0,0,0,.56Z" style="fill:#10298e"/><path id="path5521" d="M36.08,33.47a.84.84,0,0,1,.11-.43.69.69,0,0,1,.3-.31,1,1,0,0,1,.45-.11.81.81,0,0,1,.62.25.84.84,0,0,1,.24.62.81.81,0,0,1-.25.62.79.79,0,0,1-.61.25,1,1,0,0,1-.44-.1.67.67,0,0,1-.31-.31.9.9,0,0,1-.11-.48m.45,0a.54.54,0,0,0,.12.38.36.36,0,0,0,.29.13.37.37,0,0,0,.29-.13.56.56,0,0,0,.11-.38.54.54,0,0,0-.11-.38.37.37,0,0,0-.29-.13.36.36,0,0,0-.29.13.56.56,0,0,0-.12.38" style="fill:#10298e"/><path id="path5523" d="M38.12,33.27H39v.44h-.86Z" style="fill:#10298e"/><path id="path5527" d="M39.06,34.32V33.9l1.21-1.49H39.2V32h1.68v.36l-1.26,1.56h1.31v.38Z" style="fill:#10298e"/><path id="path5531" d="M41.57,33.17l-.4-.08a.61.61,0,0,1,.24-.35.82.82,0,0,1,.49-.12,1,1,0,0,1,.43.07.48.48,0,0,1,.21.18.87.87,0,0,1,.06.39v.52a2.33,2.33,0,0,0,0,.32,1.19,1.19,0,0,0,.08.22h-.43a.59.59,0,0,1,0-.13v0a.89.89,0,0,1-.24.17.87.87,0,0,1-.28,0,.53.53,0,0,1-.4-.14.45.45,0,0,1-.15-.35.41.41,0,0,1,.07-.25.37.37,0,0,1,.18-.17,1.55,1.55,0,0,1,.36-.11,2.15,2.15,0,0,0,.42-.1v-.05A.24.24,0,0,0,42.1,33a.43.43,0,0,0-.24,0,.32.32,0,0,0-.18,0,.38.38,0,0,0-.11.17m.59.35a1.28,1.28,0,0,1-.26.07.63.63,0,0,0-.24.08.18.18,0,0,0-.09.15.19.19,0,0,0,.07.16.21.21,0,0,0,.17.07A.4.4,0,0,0,42,34a.36.36,0,0,0,.11-.14,1.16,1.16,0,0,0,0-.22Z" style="fill:#10298e"/><path id="path5535" d="M43.49,32v.85a.66.66,0,0,1,.51-.25.61.61,0,0,1,.28.06.37.37,0,0,1,.18.14.66.66,0,0,1,.09.19,2.68,2.68,0,0,1,0,.34v1h-.44v-.88a1.11,1.11,0,0,0,0-.33A.18.18,0,0,0,44,33a.29.29,0,0,0-.16,0,.33.33,0,0,0-.2,0,.34.34,0,0,0-.13.16,1.19,1.19,0,0,0,0,.32v.83h-.44V32Z" style="fill:#10298e"/><path id="path5537" d="M45,32h.44v2.3H45Z" style="fill:#10298e"/><path id="path5541" d="M47.05,34.32v-.25a.61.61,0,0,1-.24.21.58.58,0,0,1-.31.08.6.6,0,0,1-.3-.07.43.43,0,0,1-.19-.21.92.92,0,0,1-.06-.37V32.66h.44v.76a2.93,2.93,0,0,0,0,.43.25.25,0,0,0,.09.13.28.28,0,0,0,.16.05.31.31,0,0,0,.21-.07.29.29,0,0,0,.12-.15,1.94,1.94,0,0,0,0-.45v-.7h.44v1.66Z" style="fill:#10298e"/><path id="path5545" d="M49.46,34.32H49v-.85a1.28,1.28,0,0,0,0-.35A.27.27,0,0,0,48.9,33a.29.29,0,0,0-.16,0,.36.36,0,0,0-.2.06.37.37,0,0,0-.13.17,1.51,1.51,0,0,0,0,.38v.75h-.44V32.66h.41v.24a.66.66,0,0,1,.55-.28.75.75,0,0,1,.26.05.47.47,0,0,1,.19.14.37.37,0,0,1,.08.18,1.15,1.15,0,0,1,0,.3Z" style="fill:#10298e"/><path id="path5549" d="M49.89,34.43l.5.07a.23.23,0,0,0,.06.12.35.35,0,0,0,.2,0,.43.43,0,0,0,.25,0A.2.2,0,0,0,51,34.5a.5.5,0,0,0,0-.2v-.25a.58.58,0,0,1-.5.27A.61.61,0,0,1,50,34a1,1,0,0,1-.15-.56.94.94,0,0,1,.2-.64.63.63,0,0,1,.5-.22.6.6,0,0,1,.51.27v-.23h.41v1.49a1.59,1.59,0,0,1,0,.44.56.56,0,0,1-.14.23A.55.55,0,0,1,51,35a1.22,1.22,0,0,1-.37,0,.94.94,0,0,1-.6-.15.43.43,0,0,1-.18-.36Zm.39-1a.58.58,0,0,0,.1.38.32.32,0,0,0,.26.13.35.35,0,0,0,.27-.13.56.56,0,0,0,.11-.37.55.55,0,0,0-.11-.39.34.34,0,0,0-.27-.12.34.34,0,0,0-.26.12.58.58,0,0,0-.1.38" style="fill:#10298e"/><path id="path5553" d="M51.76,33.85l.44-.07a.39.39,0,0,0,.11.2.44.44,0,0,0,.25.06.42.42,0,0,0,.25-.06.14.14,0,0,0,.06-.12l0-.08a.37.37,0,0,0-.15-.06,2.61,2.61,0,0,1-.67-.21.42.42,0,0,1-.2-.38.48.48,0,0,1,.17-.36.78.78,0,0,1,.53-.15,1,1,0,0,1,.51.11.57.57,0,0,1,.23.33l-.42.08a.24.24,0,0,0-.1-.15.33.33,0,0,0-.21-.05.41.41,0,0,0-.25.05l-.05.08,0,.08a1.45,1.45,0,0,0,.41.13,1.37,1.37,0,0,1,.5.19.42.42,0,0,1,.13.33.5.5,0,0,1-.19.4.81.81,0,0,1-.56.16.87.87,0,0,1-.54-.14.58.58,0,0,1-.26-.37" style="fill:#10298e"/><path id="path5557" d="M54.18,34.32l-.67-1.66H54l.32.85.09.28a1.19,1.19,0,0,0,0-.14s0-.1,0-.14l.32-.85h.45l-.66,1.66Z" style="fill:#10298e"/><path id="path5561" d="M56.5,33.79l.44.08a.8.8,0,0,1-.27.37.81.81,0,0,1-.46.12.74.74,0,0,1-.64-.28,1.07,1.07,0,0,1,0-1.23.75.75,0,0,1,.55-.23.76.76,0,0,1,.59.24,1.11,1.11,0,0,1,.2.76h-1.1a.4.4,0,0,0,.1.3.33.33,0,0,0,.26.11.31.31,0,0,0,.17-.05.38.38,0,0,0,.11-.19m0-.44a.37.37,0,0,0-.1-.29.27.27,0,0,0-.22-.1.3.3,0,0,0-.24.1.39.39,0,0,0-.1.29Z" style="fill:#10298e"/><path id="path5565" d="M57.77,34.32h-.45V32.66h.41v.23a.9.9,0,0,1,.19-.22.41.41,0,0,1,.19-.05.6.6,0,0,1,.29.08l-.13.39a.43.43,0,0,0-.21-.08.25.25,0,0,0-.16.06.37.37,0,0,0-.1.18,3.26,3.26,0,0,0,0,.56Z" style="fill:#10298e"/><path id="path5569" d="M58.6,34.32V32H59v1.22l.52-.58h.54l-.57.61.61,1h-.47l-.42-.75-.21.22v.53Z" style="fill:#10298e"/><path id="path5573" d="M61.39,33.79l.44.08a.73.73,0,0,1-.27.37.79.79,0,0,1-.45.12.76.76,0,0,1-.65-.28,1,1,0,0,1-.16-.58,1,1,0,0,1,.21-.65.81.81,0,0,1,1.14,0,1.11,1.11,0,0,1,.2.76h-1.1a.41.41,0,0,0,.11.3.3.3,0,0,0,.25.11.29.29,0,0,0,.17-.05.32.32,0,0,0,.11-.19m0-.44a.45.45,0,0,0-.1-.29.29.29,0,0,0-.23-.1.3.3,0,0,0-.24.1.44.44,0,0,0-.09.29Z" style="fill:#10298e"/><path id="path5577" d="M62.68,32v.85a.63.63,0,0,1,.51-.25.6.6,0,0,1,.27.06.37.37,0,0,1,.18.14.48.48,0,0,1,.09.19,2.68,2.68,0,0,1,0,.34v1h-.44v-.88a2,2,0,0,0,0-.33A.24.24,0,0,0,63.2,33,.27.27,0,0,0,63,33a.35.35,0,0,0-.2,0,.28.28,0,0,0-.12.16.89.89,0,0,0,0,.32v.83h-.45V32Z" style="fill:#10298e"/><path id="path5581" d="M64.64,34.32H64.2V32.66h.41v.23a.9.9,0,0,1,.19-.22.41.41,0,0,1,.19-.05.6.6,0,0,1,.29.08l-.13.39a.43.43,0,0,0-.21-.08.23.23,0,0,0-.16.06.37.37,0,0,0-.1.18,3,3,0,0,0,0,.56Z" style="fill:#10298e"/><path id="path5585" d="M65.34,33.85l.44-.07a.34.34,0,0,0,.12.2.38.38,0,0,0,.24.06A.48.48,0,0,0,66.4,34a.17.17,0,0,0,0-.12l0-.08a.38.38,0,0,0-.14-.06,2.59,2.59,0,0,1-.68-.21.44.44,0,0,1-.2-.38.48.48,0,0,1,.17-.36.8.8,0,0,1,.53-.15,1,1,0,0,1,.51.11.57.57,0,0,1,.23.33l-.42.08a.21.21,0,0,0-.1-.15.33.33,0,0,0-.21-.05.41.41,0,0,0-.25.05l0,.08,0,.08a1.44,1.44,0,0,0,.42.13,1.3,1.3,0,0,1,.49.19.42.42,0,0,1,.14.33.53.53,0,0,1-.19.4,1.1,1.1,0,0,1-1.11,0,.62.62,0,0,1-.26-.37" style="fill:#10298e"/><path id="path5589" d="M67.73,34.32h-.44V32.66h.41v.23a.73.73,0,0,1,.19-.22.36.36,0,0,1,.19-.05.63.63,0,0,1,.29.08l-.14.39A.37.37,0,0,0,68,33a.2.2,0,0,0-.15.06.31.31,0,0,0-.11.18,3.26,3.26,0,0,0,0,.56Z" style="fill:#10298e"/><path id="path5593" d="M68.91,33.17l-.4-.08a.56.56,0,0,1,.23-.35.82.82,0,0,1,.49-.12,1,1,0,0,1,.44.07.45.45,0,0,1,.2.18.87.87,0,0,1,.06.39v.52a1.38,1.38,0,0,0,0,.32.74.74,0,0,0,.08.22h-.44l0-.13,0,0a.66.66,0,0,1-.24.17.81.81,0,0,1-.27,0,.55.55,0,0,1-.41-.14.45.45,0,0,1-.15-.35.49.49,0,0,1,.07-.25.44.44,0,0,1,.19-.17,1.45,1.45,0,0,1,.35-.11,2.11,2.11,0,0,0,.43-.1v-.05a.24.24,0,0,0-.06-.18.48.48,0,0,0-.24,0A.36.36,0,0,0,69,33a.38.38,0,0,0-.1.17m.59.35a1.68,1.68,0,0,1-.27.07.81.81,0,0,0-.24.08.18.18,0,0,0-.09.15A.22.22,0,0,0,69,34a.24.24,0,0,0,.18.07.43.43,0,0,0,.23-.08.33.33,0,0,0,.1-.14,1,1,0,0,0,0-.22Z" style="fill:#10298e"/><path id="path5597" d="M71.49,34.32v-.25a.69.69,0,0,1-.56.29.6.6,0,0,1-.3-.07.43.43,0,0,1-.19-.21.92.92,0,0,1-.06-.37V32.66h.44v.76a2.93,2.93,0,0,0,0,.43.25.25,0,0,0,.09.13.31.31,0,0,0,.17.05.31.31,0,0,0,.2-.07.29.29,0,0,0,.12-.15,1.94,1.94,0,0,0,0-.45v-.7h.45v1.66Z" style="fill:#10298e"/><path id="path5601" d="M72.34,32.66h.41v.22a.66.66,0,0,1,.52-.26.47.47,0,0,1,.27.07.52.52,0,0,1,.2.19.72.72,0,0,1,.24-.19.5.5,0,0,1,.27-.07.62.62,0,0,1,.31.07.51.51,0,0,1,.19.22,1,1,0,0,1,0,.35v1.06h-.44v-1a.76.76,0,0,0,0-.32.22.22,0,0,0-.19-.09.41.41,0,0,0-.18,0,.34.34,0,0,0-.11.17,1,1,0,0,0,0,.34v.8h-.44v-.91a1.67,1.67,0,0,0,0-.31.19.19,0,0,0-.08-.11.25.25,0,0,0-.13,0,.32.32,0,0,0-.19,0,.31.31,0,0,0-.11.16.94.94,0,0,0,0,.34v.81h-.44Z" style="fill:#10298e"/><path id="path5605" d="M10.2,29.17l.67-.06a.84.84,0,0,0,.24.49.75.75,0,0,0,.49.15.73.73,0,0,0,.5-.14.41.41,0,0,0,.17-.32.38.38,0,0,0-.07-.21.63.63,0,0,0-.25-.14l-.54-.15a1.81,1.81,0,0,1-.77-.33.87.87,0,0,1-.31-.68.92.92,0,0,1,.14-.48,1,1,0,0,1,.42-.35,1.92,1.92,0,0,1,.67-.11,1.38,1.38,0,0,1,.95.28,1,1,0,0,1,.34.74l-.68,0a.55.55,0,0,0-.19-.37.65.65,0,0,0-.43-.12.76.76,0,0,0-.46.12.25.25,0,0,0-.11.21.26.26,0,0,0,.1.21,1.69,1.69,0,0,0,.63.22,3,3,0,0,1,.73.25.87.87,0,0,1,.37.34,1,1,0,0,1,.14.54,1.06,1.06,0,0,1-.16.54,1,1,0,0,1-.46.38,1.92,1.92,0,0,1-.73.12,1.46,1.46,0,0,1-1-.3,1.32,1.32,0,0,1-.41-.86" style="fill:#10298e"/><path id="path5607" d="M13.66,26.9h.65v.59h-.65Zm0,.92h.65v2.45h-.65Z" style="fill:#10298e"/><path id="path5611" d="M17.33,30.27h-.64V29a1.73,1.73,0,0,0-.05-.51.3.3,0,0,0-.13-.18.41.41,0,0,0-.22-.07.55.55,0,0,0-.31.1.43.43,0,0,0-.18.24,2.24,2.24,0,0,0-.05.56v1.11H15.1V27.82h.61v.36a1,1,0,0,1,.8-.41,1,1,0,0,1,.39.08.62.62,0,0,1,.27.19.8.8,0,0,1,.13.28,2.31,2.31,0,0,1,0,.43Z" style="fill:#10298e"/><path id="path5615" d="M18.07,30.43l.74.09a.25.25,0,0,0,.08.18.56.56,0,0,0,.29.07.74.74,0,0,0,.38-.08.3.3,0,0,0,.13-.16,1.05,1.05,0,0,0,0-.3v-.36a.85.85,0,0,1-.73.4.89.89,0,0,1-.78-.42A1.41,1.41,0,0,1,18,29a1.34,1.34,0,0,1,.29-.94,1,1,0,0,1,.74-.32.87.87,0,0,1,.74.4v-.35h.61V30a2.16,2.16,0,0,1-.07.65.88.88,0,0,1-.2.33.84.84,0,0,1-.35.19,1.65,1.65,0,0,1-.54.07,1.42,1.42,0,0,1-.88-.21.67.67,0,0,1-.26-.54ZM18.65,29a.88.88,0,0,0,.15.57.46.46,0,0,0,.37.18.5.5,0,0,0,.4-.19.79.79,0,0,0,.16-.55.87.87,0,0,0-.15-.56.53.53,0,0,0-.4-.19.46.46,0,0,0-.38.19.84.84,0,0,0-.15.55" style="fill:#10298e"/><path id="path5617" d="M21.15,26.9h.65v3.37h-.65Z" style="fill:#10298e"/><path id="path5621" d="M24,29.49l.64.11a1,1,0,0,1-.39.54,1.17,1.17,0,0,1-.67.18,1.07,1.07,0,0,1-.94-.41,1.35,1.35,0,0,1-.25-.84,1.37,1.37,0,0,1,.32-1,1,1,0,0,1,.8-.34,1.1,1.1,0,0,1,.87.36,1.59,1.59,0,0,1,.3,1.1H23.08a.63.63,0,0,0,.15.45.49.49,0,0,0,.38.16.41.41,0,0,0,.25-.08.59.59,0,0,0,.16-.27m0-.65a.67.67,0,0,0-.15-.43.43.43,0,0,0-.34-.15.48.48,0,0,0-.35.16.6.6,0,0,0-.13.42Z" style="fill:#10298e"/><path id="path5625" d="M26.82,30.27V26.9h2.5v.57H27.5v.74h1.7v.57H27.5v.92h1.89v.57Z" style="fill:#10298e"/><path id="path5629" d="M31.71,30.27V29.9a.88.88,0,0,1-.35.31,1,1,0,0,1-.9,0,.64.64,0,0,1-.28-.31,1.32,1.32,0,0,1-.09-.54V27.82h.65V29a3.72,3.72,0,0,0,0,.63.3.3,0,0,0,.13.18.36.36,0,0,0,.24.07.53.53,0,0,0,.3-.09.55.55,0,0,0,.18-.22,2.71,2.71,0,0,0,.05-.66v-1h.64v2.45Z" style="fill:#10298e"/><path id="path5633" d="M33.74,30.27H33.1V27.82h.6v.35a1,1,0,0,1,.27-.32.57.57,0,0,1,.28-.08.85.85,0,0,1,.43.12l-.2.57a.58.58,0,0,0-.3-.11.33.33,0,0,0-.23.07.44.44,0,0,0-.15.28,3.41,3.41,0,0,0-.06.81Z" style="fill:#10298e"/><path id="path5637" d="M35,29a1.27,1.27,0,0,1,.16-.62,1,1,0,0,1,.45-.46,1.28,1.28,0,0,1,.65-.16,1.23,1.23,0,0,1,.91.36,1.36,1.36,0,0,1,0,1.83,1.19,1.19,0,0,1-.9.36,1.46,1.46,0,0,1-.64-.15,1,1,0,0,1-.46-.44A1.47,1.47,0,0,1,35,29m.66,0a.76.76,0,0,0,.18.55.53.53,0,0,0,.42.2.57.57,0,0,0,.43-.2,1,1,0,0,0,0-1.11.56.56,0,0,0-.43-.19.52.52,0,0,0-.42.19.79.79,0,0,0-.18.56" style="fill:#10298e"/><path id="path5641" d="M39.58,30.27V26.9h1.09a3.6,3.6,0,0,1,.81.05.88.88,0,0,1,.48.33,1,1,0,0,1,.2.65,1.22,1.22,0,0,1-.11.53.94.94,0,0,1-.29.33,1,1,0,0,1-.35.16,4.08,4.08,0,0,1-.71.05h-.44v1.27Zm.68-2.8v1h.37a1.65,1.65,0,0,0,.54-.05.39.39,0,0,0,.21-.17.46.46,0,0,0,0-.56.46.46,0,0,0-.27-.15,2.85,2.85,0,0,0-.49,0Z" style="fill:#10298e"/><path id="path5645" d="M43.34,28.57l-.59-.11a.94.94,0,0,1,.34-.52,1.3,1.3,0,0,1,.72-.17,1.55,1.55,0,0,1,.65.1.62.62,0,0,1,.29.26,1.31,1.31,0,0,1,.09.58v.76a1.84,1.84,0,0,0,0,.47,1.28,1.28,0,0,0,.11.33h-.64a1.08,1.08,0,0,1-.06-.19s0-.07,0-.08a1,1,0,0,1-.36.24.9.9,0,0,1-.4.08.84.84,0,0,1-.6-.2.7.7,0,0,1-.21-.52.66.66,0,0,1,.1-.37.6.6,0,0,1,.27-.25,3.14,3.14,0,0,1,.52-.15,3.06,3.06,0,0,0,.63-.16v-.06a.33.33,0,0,0-.1-.27.54.54,0,0,0-.34-.08.4.4,0,0,0-.43.31m.87.53c-.09,0-.22.06-.4.09a1.12,1.12,0,0,0-.35.12.28.28,0,0,0-.13.23.34.34,0,0,0,.1.23.35.35,0,0,0,.26.1.56.56,0,0,0,.34-.12.39.39,0,0,0,.15-.21,1.12,1.12,0,0,0,0-.32Z" style="fill:#10298e"/><path id="path5649" d="M45.31,27.83H46l.59,1.73.57-1.73h.67L47,30.18l-.15.42a1.69,1.69,0,0,1-.16.33.52.52,0,0,1-.18.18.64.64,0,0,1-.25.11,1.06,1.06,0,0,1-.33,0,1.47,1.47,0,0,1-.36,0l-.06-.5.27,0a.42.42,0,0,0,.34-.14.78.78,0,0,0,.16-.33Z" style="fill:#10298e"/><path id="path5653" d="M48.33,27.83h.6v.33a1,1,0,0,1,.76-.39.76.76,0,0,1,.41.1.66.66,0,0,1,.28.29,1.15,1.15,0,0,1,.35-.29.82.82,0,0,1,.4-.1.88.88,0,0,1,.45.11.63.63,0,0,1,.28.32,1.25,1.25,0,0,1,.07.51v1.56h-.65v-1.4a1.15,1.15,0,0,0-.06-.47.32.32,0,0,0-.28-.14.43.43,0,0,0-.26.09.44.44,0,0,0-.17.24,2.05,2.05,0,0,0,0,.51v1.17h-.65V28.93a2.12,2.12,0,0,0,0-.46.25.25,0,0,0-.11-.15.3.3,0,0,0-.2-.06.44.44,0,0,0-.27.09.51.51,0,0,0-.17.23,1.91,1.91,0,0,0-.05.5v1.19h-.65Z" style="fill:#10298e"/><path id="path5657" d="M54.13,29.49l.65.11a1.07,1.07,0,0,1-.4.54,1.17,1.17,0,0,1-.67.18,1.08,1.08,0,0,1-.94-.41,1.41,1.41,0,0,1-.24-.84,1.37,1.37,0,0,1,.31-1,1.06,1.06,0,0,1,.81-.34,1.09,1.09,0,0,1,.86.36,1.59,1.59,0,0,1,.3,1.1H53.19a.63.63,0,0,0,.16.45.47.47,0,0,0,.37.16.45.45,0,0,0,.26-.08.58.58,0,0,0,.15-.27m0-.65a.62.62,0,0,0-.15-.43.43.43,0,0,0-.33-.15.46.46,0,0,0-.35.16.61.61,0,0,0-.14.42Z" style="fill:#10298e"/><path id="path5661" d="M57.7,30.27h-.64V29a1.73,1.73,0,0,0-.05-.51.3.3,0,0,0-.13-.18.41.41,0,0,0-.22-.07.55.55,0,0,0-.31.1.43.43,0,0,0-.18.24,2.24,2.24,0,0,0-.05.56v1.11h-.65V27.82h.61v.36a1,1,0,0,1,.8-.41,1,1,0,0,1,.39.08.62.62,0,0,1,.27.19.8.8,0,0,1,.13.28,2.31,2.31,0,0,1,0,.43Z" style="fill:#10298e"/><path id="path5665" d="M59.62,27.83v.51h-.44v1a2.22,2.22,0,0,0,0,.34l.06.09a.2.2,0,0,0,.11,0,.84.84,0,0,0,.26-.06l.05.5a1.36,1.36,0,0,1-.51.09.78.78,0,0,1-.31-.05.44.44,0,0,1-.21-.16.66.66,0,0,1-.09-.25,3.68,3.68,0,0,1,0-.45V28.34h-.3v-.51h.3v-.49l.65-.38v.87Z" style="fill:#10298e"/><path id="path5669" d="M60,29.57l.65-.1a.52.52,0,0,0,.17.29.61.61,0,0,0,.35.1.64.64,0,0,0,.38-.09.21.21,0,0,0,.09-.18.17.17,0,0,0,0-.12.43.43,0,0,0-.21-.08,3.44,3.44,0,0,1-1-.32.63.63,0,0,1-.29-.55.69.69,0,0,1,.25-.53,1.15,1.15,0,0,1,.78-.22,1.35,1.35,0,0,1,.75.16.83.83,0,0,1,.33.49l-.61.11a.34.34,0,0,0-.14-.22.58.58,0,0,0-.32-.08.64.64,0,0,0-.36.08.14.14,0,0,0-.08.13.15.15,0,0,0,.07.11,2.12,2.12,0,0,0,.6.19,1.67,1.67,0,0,1,.72.28.61.61,0,0,1,.21.49.75.75,0,0,1-.28.57,1.28,1.28,0,0,1-.84.24,1.34,1.34,0,0,1-.79-.2.94.94,0,0,1-.38-.55" style="fill:#10298e"/><path id="path5673" d="M67.3,30.27h-.74l-.3-.77H64.91l-.28.77h-.72l1.32-3.37H66ZM66,28.93l-.46-1.25-.46,1.25Z" style="fill:#10298e"/><path id="path5677" d="M68.42,30.27h-.65V27.82h.6v.35a.92.92,0,0,1,.28-.32.51.51,0,0,1,.28-.08.81.81,0,0,1,.42.12l-.2.57a.58.58,0,0,0-.3-.11.35.35,0,0,0-.23.07.56.56,0,0,0-.15.28,3.6,3.6,0,0,0,0,.81Z" style="fill:#10298e"/><path id="path5681" d="M71.19,29.49l.64.11a1,1,0,0,1-.39.54,1.17,1.17,0,0,1-.67.18,1.07,1.07,0,0,1-.94-.41,1.35,1.35,0,0,1-.25-.84,1.37,1.37,0,0,1,.32-1,1,1,0,0,1,.8-.34,1.1,1.1,0,0,1,.87.36,1.59,1.59,0,0,1,.3,1.1H70.25a.63.63,0,0,0,.15.45.49.49,0,0,0,.38.16.41.41,0,0,0,.25-.08.59.59,0,0,0,.16-.27m0-.65a.62.62,0,0,0-.14-.43.43.43,0,0,0-.34-.15.48.48,0,0,0-.35.16.6.6,0,0,0-.13.42Z" style="fill:#10298e"/><path id="path5685" d="M73,28.57l-.59-.11a.94.94,0,0,1,.34-.52,1.27,1.27,0,0,1,.72-.17,1.58,1.58,0,0,1,.65.1.62.62,0,0,1,.29.26,1.31,1.31,0,0,1,.09.58v.76a2.67,2.67,0,0,0,0,.47,1.34,1.34,0,0,0,.12.33H74a1.08,1.08,0,0,1-.06-.19.22.22,0,0,0,0-.08,1,1,0,0,1-.35.24.92.92,0,0,1-.4.08.84.84,0,0,1-.6-.2.71.71,0,0,1-.22-.52.76.76,0,0,1,.1-.37.68.68,0,0,1,.28-.25,3.14,3.14,0,0,1,.52-.15,2.75,2.75,0,0,0,.62-.16v-.06a.37.37,0,0,0-.09-.27.58.58,0,0,0-.35-.08.47.47,0,0,0-.26.07.48.48,0,0,0-.16.24m.86.53c-.08,0-.21.06-.39.09a1,1,0,0,0-.35.12.26.26,0,0,0-.13.23.34.34,0,0,0,.1.23.35.35,0,0,0,.26.1.52.52,0,0,0,.33-.12.41.41,0,0,0,.16-.21,1.24,1.24,0,0,0,0-.32Z" style="fill:#10298e"/><path id="path5689" d="M24.54,13.63H20.12a2.87,2.87,0,0,0-.25-1.46c-.27-.36-1-.55-2.18-.55a5.35,5.35,0,0,0-2.29.32q-.57.32-.57,1.38a1.37,1.37,0,0,0,.5,1.27,2.05,2.05,0,0,0,.94.26l.9.06c1.91.13,3.1.22,3.58.27A5.47,5.47,0,0,1,24,16.38a3.23,3.23,0,0,1,.95,2A13.73,13.73,0,0,1,25.08,20a8.81,8.81,0,0,1-.41,3.12,4,4,0,0,1-3.32,2.3,20.17,20.17,0,0,1-3.3.2,20.72,20.72,0,0,1-5.18-.44A3.37,3.37,0,0,1,10.5,23a10.5,10.5,0,0,1-.32-3.08h4.43v.37c0,.77.22,1.26.66,1.48a2.59,2.59,0,0,0,1.1.24H18a5.68,5.68,0,0,0,1.59-.13,1.33,1.33,0,0,0,.8-.77,2.87,2.87,0,0,0,.1-.85c0-.78-.28-1.25-.85-1.42a26,26,0,0,0-3-.28c-1.41-.1-2.4-.2-2.94-.29a3.92,3.92,0,0,1-2.9-1.68,6.59,6.59,0,0,1-.63-3.26,8.43,8.43,0,0,1,.34-2.66,2.92,2.92,0,0,1,1.11-1.52,5.58,5.58,0,0,1,2.86-.94c1-.08,2-.13,3.21-.13a17.27,17.27,0,0,1,4,.32c1.92.52,2.89,2,2.89,4.35,0,.19,0,.48-.05.87" style="fill:#10298e"/><path id="path5693" d="M44,25.66V8h8.86a9.86,9.86,0,0,1,2.78.3,4.31,4.31,0,0,1,2.93,2.8A10.78,10.78,0,0,1,59,14.45a12.51,12.51,0,0,1-.43,3.86A4,4,0,0,1,55,21c-.21,0-1.09.07-2.65.1l-.79,0H48.74v4.56ZM48.74,17h3a5.29,5.29,0,0,0,1.71-.21,1.32,1.32,0,0,0,.57-.93,7.84,7.84,0,0,0,.09-1.38,5.63,5.63,0,0,0-.18-1.66,1.41,1.41,0,0,0-1.23-.93,8.27,8.27,0,0,0-.92,0h-3Z" style="fill:#10298e"/><path id="path5697" d="M69.09,22.61H62.74l-.86,3.05H57L62.27,8h7.17l5.38,17.66H70Zm-.94-3.44-2.23-7.66-2.16,7.66Z" style="fill:#10298e"/><path id="path5701" d="M37.43,10.48a6.26,6.26,0,0,1,4.86,2.32l1-2.19a9,9,0,0,0-14.45,3h-2l-1.18,2.53h2.57c0,.24,0,.47,0,.71a8.11,8.11,0,0,0,.05.86H27l-1.18,2.53h3.13a8.92,8.92,0,0,0,8.21,5.31,9,9,0,0,0,5-1.51V21a6.25,6.25,0,0,1-10-.7h6.55l1.18-2.53H31.23a5.82,5.82,0,0,1-.07-.93c0-.22,0-.43,0-.64h9.46l1.18-2.53H32a6.26,6.26,0,0,1,5.42-3.14" style="fill:#ffbe00"/><path id="path5705" d="M37.43,10.56a6.17,6.17,0,0,1,4.8,2.29l.08.09,0-.11,1-2.19,0-.05,0,0A9.12,9.12,0,0,0,32,9.63a8.78,8.78,0,0,0-3.25,4l.07,0H26.81l0,0-1.18,2.53-.05.11h2.69l-.07-.09c0,.27,0,.5,0,.72a8.57,8.57,0,0,0,0,.87l.08-.09H26.93l0,.05-1.18,2.53-.05.1h3.24l-.07,0a9,9,0,0,0,8.28,5.36,9.13,9.13,0,0,0,5-1.52l0,0V20.75l-.13.15a6.19,6.19,0,0,1-9.83-.69l-.06.11h6.6l0,0L40,17.75l0-.11H31.23l.07.07a7.26,7.26,0,0,1-.07-.92q0-.32,0-.63l-.07.07H40.7l0-.05,1.18-2.53.05-.1H32l.06.11a6.22,6.22,0,0,1,5.36-3.1M32,13.7h9.82l-.07-.11-1.18,2.53.07,0H31.12v.06c0,.22,0,.43,0,.65a6,6,0,0,0,.07.94v.07h8.76l-.07-.11-1.18,2.53.07,0H32.05l.08.12A6.33,6.33,0,0,0,42.19,21L42.06,21v3.1l0-.06A8.93,8.93,0,0,1,29,20.22l0,0H25.79l.07.11L27,17.75,27,17.8h1.38v-.09a8.06,8.06,0,0,1,0-.85c0-.21,0-.44,0-.7v-.08H25.68l.07.1,1.18-2.53-.07,0h2.05l0,0a8.67,8.67,0,0,1,3.19-3.9,9,9,0,0,1,11.14.91v-.09l-1,2.2.13,0a6.32,6.32,0,0,0-4.92-2.34,6.39,6.39,0,0,0-5.49,3.17l-.07.12Z" style="fill:#10298e"/></g></svg>