<svg xmlns="http://www.w3.org/2000/svg" viewBox="0 0 85 43"><g id="icon"><path id="path5689" d="M22.55,18H17.64a3.16,3.16,0,0,0-.29-1.63c-.29-.4-1.1-.61-2.42-.61a5.9,5.9,0,0,0-2.55.36c-.41.23-.62.74-.62,1.53s.18,1.19.55,1.41a2.37,2.37,0,0,0,1,.29l1,.07c2.13.14,3.45.24,4,.29A6.08,6.08,0,0,1,22,21a3.57,3.57,0,0,1,1.07,2.22,16.9,16.9,0,0,1,.09,1.84,9.81,9.81,0,0,1-.45,3.47q-.81,2-3.69,2.56a21.84,21.84,0,0,1-3.67.22,22.62,22.62,0,0,1-5.75-.49A3.74,3.74,0,0,1,7,28.37,11.48,11.48,0,0,1,6.59,25h4.92v.4c0,.86.24,1.4.73,1.65a3,3,0,0,0,1.23.27h1.81A6.16,6.16,0,0,0,17,27.12a1.41,1.41,0,0,0,.89-.86,3.06,3.06,0,0,0,.11-.94c0-.86-.31-1.39-.94-1.58a30.4,30.4,0,0,0-3.29-.31c-1.57-.11-2.66-.22-3.27-.32a4.38,4.38,0,0,1-3.22-1.86,7.33,7.33,0,0,1-.7-3.62,9.21,9.21,0,0,1,.38-3A3.14,3.14,0,0,1,8.23,13a6.22,6.22,0,0,1,3.18-1.05c1.07-.09,2.26-.14,3.57-.14a18.79,18.79,0,0,1,4.41.36Q22.6,13,22.6,17c0,.22,0,.54-.05,1" style="fill:#10298e"/><path id="path5693" d="M44.16,31.31V11.69H54a10.91,10.91,0,0,1,3.08.33,4.78,4.78,0,0,1,3.26,3.11,12,12,0,0,1,.43,3.72,13.7,13.7,0,0,1-.47,4.29,4.42,4.42,0,0,1-3.89,3c-.23,0-1.21.07-2.95.1l-.87,0H49.44v5.06Zm5.28-9.62h3.29a5.63,5.63,0,0,0,1.91-.24,1.41,1.41,0,0,0,.62-1,8.31,8.31,0,0,0,.1-1.53,6.09,6.09,0,0,0-.2-1.85,1.58,1.58,0,0,0-1.36-1,10.11,10.11,0,0,0-1,0H49.44Z" style="fill:#10298e"/><path id="path5697" d="M72.05,27.92H65L64,31.31H58.57l5.9-19.62h8l6,19.62H73.06ZM71,24.1l-2.47-8.51L66.12,24.1Z" style="fill:#10298e"/><path id="path5701" d="M36.87,14.45A7,7,0,0,1,42.27,17l1.14-2.44a10,10,0,0,0-6.88-2.72,9.9,9.9,0,0,0-9.18,6.07H25.13l-1.32,2.81h2.86c0,.26,0,.53,0,.79s0,.64,0,1H25.25L23.94,25.3h3.47a9.91,9.91,0,0,0,9.12,5.9,10,10,0,0,0,5.56-1.67V26.08A7,7,0,0,1,31,25.3h7.28l1.31-2.81H30a7.17,7.17,0,0,1-.07-1c0-.24,0-.47,0-.71H40.44l1.32-2.81H30.84a7,7,0,0,1,6-3.48" style="fill:#ffbe00"/><path id="path5705" d="M36.87,14.53a6.84,6.84,0,0,1,5.33,2.55l.09.1.05-.12,1.14-2.44,0-.06,0,0a10.16,10.16,0,0,0-12.58-1,9.76,9.76,0,0,0-3.61,4.41l.08,0H25.07l0,0-1.31,2.81-.06.12h3l-.08-.09a7.59,7.59,0,0,0,0,.79c0,.32,0,.64.05,1l.08-.1H25.2l0,.05-1.31,2.81-.05.12h3.6l-.07-.05a10,10,0,0,0,9.19,6,10.12,10.12,0,0,0,5.61-1.68l0,0V25.86L42,26a6.86,6.86,0,0,1-10.92-.77l-.07.13h7.34l0-.05,1.31-2.81,0-.12H30l.09.07a7,7,0,0,1-.08-1,5.48,5.48,0,0,1,0-.7l-.09.08H40.5l0,0L41.83,18l.06-.12h-11l.07.13a6.91,6.91,0,0,1,6-3.45m-6,3.49H41.76l-.08-.12-1.31,2.81.07-.05H29.86v.08a5.53,5.53,0,0,0,0,.71,7.42,7.42,0,0,0,.08,1.05v.07h9.73l-.07-.12-1.31,2.81.07-.05H30.89l.08.13a7,7,0,0,0,11.19.8L42,26.08v3.45l0-.07a10,10,0,0,1-5.52,1.66,9.81,9.81,0,0,1-9-5.86l0-.05H23.94l.08.12,1.31-2.81-.08.05h1.53v-.09c0-.32-.05-.64-.05-.95s0-.49,0-.78v-.09h-3l.08.12L25.2,18l-.07.05H27.4l0-.05A9.7,9.7,0,0,1,31,13.63a10,10,0,0,1,12.38,1l0-.09L42.19,17l.14,0a7,7,0,0,0-11.56.92l-.08.13Z" style="fill:#10298e"/></g></svg>