<svg xmlns="http://www.w3.org/2000/svg" viewBox="0 0 85 43"><g id="background"><g id="Ebene_2" data-name="Ebene 2"><rect width="85" height="43" style="fill:#fff"/></g></g><g id="icon"><path d="M18.08,25.62v8.19h.8V31.6a4,4,0,0,1,.06-.85,1.33,1.33,0,0,1,.31-.7,1,1,0,0,1,.79-.3,1,1,0,0,1,.67.21.91.91,0,0,1,.27.51,4,4,0,0,1,.05.71v2.63h.8V31a2.74,2.74,0,0,0-.31-1.42,1.4,1.4,0,0,0-1.28-.6,1.51,1.51,0,0,0-.75.18,1.57,1.57,0,0,0-.57.52l0,0V25.62Z" style="fill:#0b2d44"/><path d="M27.4,31.65a3,3,0,0,0-.2-1.3,2.17,2.17,0,0,0-.75-1,2.32,2.32,0,0,0-2.5,0,2,2,0,0,0-.76.9,3,3,0,0,0-.27,1.27,2.5,2.5,0,0,0,.63,1.71,2.16,2.16,0,0,0,1.66.69,2.32,2.32,0,0,0,2.15-1.31l-.67-.39a2.07,2.07,0,0,1-.57.69,1.33,1.33,0,0,1-.85.27,1.47,1.47,0,0,1-1.1-.46,1.58,1.58,0,0,1-.43-1.1H27.4ZM23.78,31a1.42,1.42,0,0,1,.49-.87,1.44,1.44,0,0,1,.93-.36,1.34,1.34,0,0,1,.9.36,1.53,1.53,0,0,1,.47.87Z" style="fill:#0b2d44"/><path d="M29.5,29.15h-.8v4.66h.8Zm-.39-2.33a.57.57,0,0,0-.4.17.52.52,0,0,0-.17.39.59.59,0,0,0,.17.41.56.56,0,0,0,.4.16.56.56,0,0,0,.56-.57A.56.56,0,0,0,29.5,27a.58.58,0,0,0-.39-.17" style="fill:#0b2d44"/><path d="M33.08,29.75a1.53,1.53,0,0,1,1.15.5,1.76,1.76,0,0,1,.41,1.19,2,2,0,0,1-.39,1.24,1.55,1.55,0,0,1-2,.28,1.67,1.67,0,0,1-.52-.65,2.13,2.13,0,0,1-.17-.88A1.85,1.85,0,0,1,32,30.26a1.45,1.45,0,0,1,1.12-.51m1.53,4.06h.79V25.62h-.79v4.19h0a2.07,2.07,0,0,0-.7-.58A2,2,0,0,0,33,29a2.23,2.23,0,0,0-1.21.34,2.26,2.26,0,0,0-.78.9,2.84,2.84,0,0,0,0,2.44,2.36,2.36,0,0,0,.77.89,2.24,2.24,0,0,0,2.09.15,1.81,1.81,0,0,0,.71-.58h0Z" style="fill:#0b2d44"/><path d="M40.93,31.65a3,3,0,0,0-.2-1.3,2.17,2.17,0,0,0-.75-1,2.32,2.32,0,0,0-2.5,0,2.11,2.11,0,0,0-.77.9,3.13,3.13,0,0,0-.26,1.27,2.54,2.54,0,0,0,.62,1.71,2.2,2.2,0,0,0,1.67.69,2.32,2.32,0,0,0,2.15-1.31l-.67-.39a2.07,2.07,0,0,1-.57.69,1.33,1.33,0,0,1-.85.27,1.47,1.47,0,0,1-1.1-.46,1.58,1.58,0,0,1-.43-1.1h3.66ZM37.3,31a1.48,1.48,0,0,1,1.42-1.23,1.39,1.39,0,0,1,.91.36,1.57,1.57,0,0,1,.46.87Z" style="fill:#0b2d44"/><rect x="42.03" y="25.62" width="0.8" height="8.19" style="fill:#0b2d44"/><path d="M46.53,29.54a1.75,1.75,0,0,1,1.59,1,2.39,2.39,0,0,1,.22,1,2,2,0,0,1-.5,1.35,1.68,1.68,0,0,1-1.3.58A1.78,1.78,0,0,1,45.22,33a1.94,1.94,0,0,1-.51-1.34,2.46,2.46,0,0,1,.21-1,1.84,1.84,0,0,1,.61-.76,1.73,1.73,0,0,1,1-.29m-1.78-.32h-.44v7.27h.44V33h0a1.92,1.92,0,0,0,.77.67,2.25,2.25,0,0,0,1,.22,2.2,2.2,0,0,0,1.65-.67,2.46,2.46,0,0,0,.61-1.68,2.79,2.79,0,0,0-.28-1.24,2.12,2.12,0,0,0-.78-.87,2.28,2.28,0,0,0-1.21-.33,2.33,2.33,0,0,0-1,.24,1.79,1.79,0,0,0-.75.69h0v-.83Z" style="fill:#0b2d44"/><path d="M51.65,29.54a1.83,1.83,0,0,1,1.34.55,1.89,1.89,0,0,1,.5,1.35,2.25,2.25,0,0,1-.21,1,1.78,1.78,0,0,1-.6.75,1.81,1.81,0,0,1-1,.28,1.69,1.69,0,0,1-1.58-1,2.32,2.32,0,0,1-.22-1,2,2,0,0,1,.84-1.67,1.69,1.69,0,0,1,.93-.27m2.26-.32h-.45V30h0a1.92,1.92,0,0,0-.76-.66,2.31,2.31,0,0,0-1-.24A2.16,2.16,0,0,0,50,29.8a2.44,2.44,0,0,0-.61,1.69,2.71,2.71,0,0,0,.28,1.22,2.12,2.12,0,0,0,.78.87,2.22,2.22,0,0,0,1.2.33,2.17,2.17,0,0,0,1-.24,1.77,1.77,0,0,0,.75-.68h0v.82h.44V29.22Z" style="fill:#0b2d44"/><polygon points="56.81 33.9 55.71 36.5 56.16 36.5 59.24 29.22 58.78 29.22 57.03 33.38 55.07 29.22 54.6 29.22 56.81 33.9" style="fill:#0b2d44"/><path d="M66.92,6.5H66V20.4a12.79,12.79,0,0,0-23.17.07V10.63H42v9.86a12.36,12.36,0,0,0-11.58-7.43,12.32,12.32,0,0,0-11.57,7.43V15.16h-.8v9.25h.79c0-5.83,5.17-10.58,11.57-10.58S41.83,18.39,42,24.06v.35h.79c0-5.78,5.29-10.58,11.64-10.58S66,18.63,66,24.41h.93Z" style="fill:#0b2d44"/></g></svg>