<svg xmlns="http://www.w3.org/2000/svg" viewBox="0 0 85 43"><g id="background"><g id="Ebene_2" data-name="Ebene 2"><rect width="85" height="43" style="fill:#eb6f93"/></g></g><g id="icon"><path id="Ratenkauf." d="M22.74,38.3H21l-1.36-2.62c-1,.38-1.28.74-1.28,1.64v1H16.84V30.77h2.87c1.69,0,2.68.86,2.68,2.33a2.13,2.13,0,0,1-1.3,2.06Zm-4.35-3.54a4.39,4.39,0,0,1,1.12-.52l.32-.1c.71-.24,1-.55,1-1.06s-.41-.89-1.17-.89H18.39Zm8.78-1.67h1.42V38.3H27.17v-.51a2,2,0,0,1-1.54.61,2.71,2.71,0,0,1,0-5.41,2,2,0,0,1,1.54.61ZM25.78,37A1.35,1.35,0,1,0,24.4,35.7,1.35,1.35,0,0,0,25.78,37Zm5.33-1.4V34.37a1.78,1.78,0,0,0,1.37.52v-1.4a1.3,1.3,0,0,1-1.37-1.26v-.81H29.65v4.3A2.45,2.45,0,0,0,32.3,38.3h.22V36.92A1.21,1.21,0,0,1,31.11,35.64Zm7.19,0a2.56,2.56,0,0,1,0,.37,14.87,14.87,0,0,0-3.66.43,1.36,1.36,0,0,0,1.24.68,2,2,0,0,0,1.39-.59l.76,1a2.93,2.93,0,0,1-2.15.9A2.73,2.73,0,0,1,33,35.68,2.68,2.68,0,0,1,35.76,33,2.5,2.5,0,0,1,38.3,35.65Zm-2.58-1.38a1.24,1.24,0,0,0-1.25,1.12A10.31,10.31,0,0,1,36.82,35,1.08,1.08,0,0,0,35.72,34.27ZM42.13,33a2,2,0,0,0-1.6.67v-.56H39.11V38.3h1.46V35.57a1.19,1.19,0,1,1,2.37,0V38.3H44.4v-3A2.18,2.18,0,0,0,42.13,33ZM49.2,38.3l-1.56-2.12-.65.65V38.3H45.53V30.77H47v4.39l2-2.07h1.79l-2.13,2.15,2.27,3.06ZM55,33.09h1.42V38.3H55v-.51a2,2,0,0,1-1.54.61,2.71,2.71,0,0,1,0-5.41A2,2,0,0,1,55,33.6ZM53.65,37a1.35,1.35,0,1,0-1.39-1.34A1.36,1.36,0,0,0,53.65,37Zm7.6-3.95v2.79a1.13,1.13,0,1,1-2.26,0V33.09H57.53v3.06a2.15,2.15,0,0,0,2.24,2.27,1.92,1.92,0,0,0,1.52-.64v.52h1.42V33.09Zm5.5-.94V30.77h-.22a2.45,2.45,0,0,0-2.65,2.58V38.3h1.46V36.13a1.28,1.28,0,0,1,1.36-1.26v-1.4a1.76,1.76,0,0,0-1.36.52v-.56A1.2,1.2,0,0,1,66.75,32.15Zm1.15,6.23a1,1,0,1,0-1-1A1,1,0,0,0,67.9,38.38Z" style="fill:#fff;fill-rule:evenodd"/><path id="_Path_" data-name=" Path " d="M54.13,24.81,40.28,5.48a24.67,24.67,0,0,0-9.81,15.34Zm-24.66-3.7A25.55,25.55,0,0,1,40.12,4.45a.46.46,0,0,1,.65.11L55.55,25.18a.46.46,0,0,1-.46.72L29.85,21.65A.46.46,0,0,1,29.47,21.11Z" style="fill:#fff"/><path id="_Path_2" data-name=" Path 2" d="M41.77,7.6,41.35,8a2,2,0,0,1-.21.24,2.73,2.73,0,0,1-.22.24c-.76.83-1.29,1.21-1.81,1.22a3.18,3.18,0,0,0-3.44,3.51c0,.14,0,.26,0,.44a3.23,3.23,0,0,1,0,.44c0,.49-.38,1.07-1.81,2.58-1.73,1.85-1.78,4-.76,5.36a.48.48,0,0,0,.66.1.46.46,0,0,0,.1-.64c-.76-1-.73-2.68.69-4.19,1.58-1.68,2-2.39,2.06-3.19,0-.15,0-.22,0-.55,0-.16,0-.26,0-.38a2.27,2.27,0,0,1,2.51-2.56c.87,0,1.57-.51,2.5-1.52l.22-.25.22-.23.38-.41a.45.45,0,0,0,0-.65A.47.47,0,0,0,41.77,7.6Z" style="fill:#fff"/><path id="_Path_3" data-name=" Path 3" d="M40.73,23.07a3.73,3.73,0,0,1,7.07.77c0,.15,0,.29.05.44a.47.47,0,0,0,.94-.06,5,5,0,0,0-.07-.54,4.67,4.67,0,0,0-8.85-1,.47.47,0,1,0,.86.36Z" style="fill:#fff"/><path id="_Path_4" data-name=" Path 4" d="M39.14,18.9A4.28,4.28,0,0,0,35.44,20a.47.47,0,0,0,0,.65.47.47,0,0,0,.67,0A3.3,3.3,0,0,1,39,19.81a.46.46,0,1,0,.18-.91Z" style="fill:#fff"/><path id="_Path_5" data-name=" Path 5" d="M45.58,17.34A4.18,4.18,0,0,0,48.34,20a.49.49,0,0,0,.59-.31.48.48,0,0,0-.32-.58A3.22,3.22,0,0,1,46.47,17a.48.48,0,0,0-.6-.29A.46.46,0,0,0,45.58,17.34Z" style="fill:#fff"/><path id="Oval" d="M41.45,18.25a3.35,3.35,0,1,1,3.4-3.35A3.38,3.38,0,0,1,41.45,18.25Zm0-.92A2.43,2.43,0,1,0,39,14.9,2.45,2.45,0,0,0,41.45,17.33Z" style="fill:#fff"/></g></svg>