<svg xmlns="http://www.w3.org/2000/svg" viewBox="0 0 85 43"><g id="twt-background"><g id="Ebene_2" data-name="Ebene 2"><rect width="85" height="43" style="fill:#fff"/></g></g><g id="twt-primary"><path d="M8.64,15.55H10v9.23H8.64Zm.71,4.32H11a.7.7,0,0,0,.38-.1.76.76,0,0,0,.24-.29,1.13,1.13,0,0,0,.09-.47V17.76a1.34,1.34,0,0,0-.08-.48.68.68,0,0,0-.25-.3.7.7,0,0,0-.38-.11H9.35V15.55h1.7a2.52,2.52,0,0,1,1.14.24,1.62,1.62,0,0,1,.72.72,2.33,2.33,0,0,1,.25,1.13v1.51a2.21,2.21,0,0,1-.25,1.1,1.65,1.65,0,0,1-.73.7,2.33,2.33,0,0,1-1.13.25H9.35Z"/><path d="M14.44,24.4A2.09,2.09,0,0,1,14,23a2.24,2.24,0,0,1,.54-1.63,2.07,2.07,0,0,1,1.57-.56h.67L16.91,22h-.72a.74.74,0,0,0-.62.26,1.19,1.19,0,0,0-.21.76.69.69,0,0,0,.16.51.63.63,0,0,0,.47.17.76.76,0,0,0,.59-.22.9.9,0,0,0,.2-.63l.12.57a2,2,0,0,1-.15.81,1.08,1.08,0,0,1-.44.5,1.37,1.37,0,0,1-.7.16A1.47,1.47,0,0,1,14.44,24.4ZM16.78,20a.69.69,0,0,0-.18-.51.65.65,0,0,0-.5-.18.54.54,0,0,0-.43.18.84.84,0,0,0-.16.51H14.17a1.79,1.79,0,0,1,2-1.93,2.32,2.32,0,0,1,1.07.23,1.55,1.55,0,0,1,.68.66,2.13,2.13,0,0,1,.24,1v4.78H16.78Z"/><path d="M19.44,15.59h1.38V17H19.44Zm0,2.6h1.38v6.59H19.44Z"/><path d="M22.64,24.67a1.41,1.41,0,0,1-.47-.65A2.8,2.8,0,0,1,22,23V20a2.84,2.84,0,0,1,.16-1,1.39,1.39,0,0,1,.48-.66,1.21,1.21,0,0,1,.74-.23,1.28,1.28,0,0,1,.81.31,2.16,2.16,0,0,1,.59.87l-.13.89a1.1,1.1,0,0,0-.08-.43.52.52,0,0,0-.21-.27.62.62,0,0,0-.34-.09.57.57,0,0,0-.47.21.85.85,0,0,0-.17.58v2.73a.75.75,0,0,0,.17.54.59.59,0,0,0,.47.2.62.62,0,0,0,.34-.09.54.54,0,0,0,.21-.26,1.08,1.08,0,0,0,.08-.42l.09.9a1.75,1.75,0,0,1-.53.85,1.34,1.34,0,0,1-1.58.08Zm2-9.12h1.39v9.23H24.66Z"/><path d="M30.06,15.59h1.38V17H30.06Zm0,2.6h1.38v6.59H30.06Z"/><path d="M32.76,18.19h1.4v6.59h-1.4Zm2.71,2a1,1,0,0,0-.16-.62.59.59,0,0,0-.5-.21.58.58,0,0,0-.49.21,1.08,1.08,0,0,0-.16.63L34,19.32a2,2,0,0,1,.59-.93,1.36,1.36,0,0,1,.87-.32,1.21,1.21,0,0,1,1,.45,2,2,0,0,1,.36,1.28v5H35.47Z"/><path d="M41.23,24.4a2.14,2.14,0,0,1-.4-1.4,2.24,2.24,0,0,1,.54-1.63,2.09,2.09,0,0,1,1.57-.56h.67L43.7,22H43a.74.74,0,0,0-.62.26,1.19,1.19,0,0,0-.21.76.74.74,0,0,0,.16.51.63.63,0,0,0,.47.17.74.74,0,0,0,.59-.22.85.85,0,0,0,.2-.63l.13.57a2.12,2.12,0,0,1-.16.81,1.08,1.08,0,0,1-.44.5,1.37,1.37,0,0,1-.7.16A1.47,1.47,0,0,1,41.23,24.4ZM43.57,20a.61.61,0,0,0-.67-.69.54.54,0,0,0-.44.18.84.84,0,0,0-.16.51H41a1.9,1.9,0,0,1,.51-1.42,2,2,0,0,1,1.44-.51A2.32,2.32,0,0,1,44,18.3a1.5,1.5,0,0,1,.68.66,2.13,2.13,0,0,1,.24,1v4.78H43.57Z"/><path d="M46.79,24.67a1.41,1.41,0,0,1-.47-.65,2.8,2.8,0,0,1-.16-1V20a2.84,2.84,0,0,1,.16-1,1.39,1.39,0,0,1,.48-.66,1.21,1.21,0,0,1,.74-.23,1.28,1.28,0,0,1,.81.31,2.27,2.27,0,0,1,.59.87l-.13.89a1.1,1.1,0,0,0-.08-.43.58.58,0,0,0-.21-.27.62.62,0,0,0-.34-.09.55.55,0,0,0-.47.21.85.85,0,0,0-.17.58v2.73a.75.75,0,0,0,.17.54.58.58,0,0,0,.47.2.62.62,0,0,0,.34-.09.61.61,0,0,0,.21-.26,1.08,1.08,0,0,0,.08-.42l.09.9a1.75,1.75,0,0,1-.53.85,1.34,1.34,0,0,1-1.58.08Zm2-9.12H50.2v9.23H48.81Z"/><path d="M54.38,18.19h1.37L54,24.78H52.92l-1.78-6.59h1.38l.94,4.6Z"/><path d="M57,24.4a2.09,2.09,0,0,1-.4-1.4,2.28,2.28,0,0,1,.53-1.63,2.11,2.11,0,0,1,1.58-.56h.67L59.47,22h-.72a.72.72,0,0,0-.62.26,1.19,1.19,0,0,0-.21.76.69.69,0,0,0,.16.51.61.61,0,0,0,.47.17.77.77,0,0,0,.59-.22.9.9,0,0,0,.2-.63l.12.57a2,2,0,0,1-.15.81,1.08,1.08,0,0,1-.44.5,1.37,1.37,0,0,1-.7.16A1.44,1.44,0,0,1,57,24.4ZM59.34,20a.69.69,0,0,0-.18-.51.67.67,0,0,0-.5-.18.52.52,0,0,0-.43.18.84.84,0,0,0-.16.51H56.73a1.79,1.79,0,0,1,2-1.93,2.35,2.35,0,0,1,1.07.23,1.55,1.55,0,0,1,.68.66,2.25,2.25,0,0,1,.23,1v4.78H59.34Z"/><path d="M62.06,18.19h1.4v6.59h-1.4Zm2.7,2a1,1,0,0,0-.16-.62.57.57,0,0,0-.49-.21.58.58,0,0,0-.49.21,1,1,0,0,0-.16.63l-.13-.86a2,2,0,0,1,.59-.93,1.32,1.32,0,0,1,.87-.32,1.22,1.22,0,0,1,1,.45,2,2,0,0,1,.36,1.28v5h-1.4Z"/><path d="M68.35,24.65a1.5,1.5,0,0,1-.7-.64,2.09,2.09,0,0,1-.24-1V20.06A2.27,2.27,0,0,1,67.65,19a1.64,1.64,0,0,1,.7-.68,2.45,2.45,0,0,1,1.1-.23,2.35,2.35,0,0,1,1.1.24,1.54,1.54,0,0,1,.7.68,2.27,2.27,0,0,1,.24,1.08v.39H70.12v-.33a.92.92,0,0,0-.17-.59.6.6,0,0,0-.48-.21.61.61,0,0,0-.49.21.86.86,0,0,0-.17.57v2.8a.61.61,0,0,0,.66.68.62.62,0,0,0,.48-.19.77.77,0,0,0,.17-.53v-.3H71.5V23a2.1,2.1,0,0,1-.24,1,1.63,1.63,0,0,1-.7.65,2.53,2.53,0,0,1-1.11.23A2.45,2.45,0,0,1,68.35,24.65Z"/><path d="M73.32,24.62a1.65,1.65,0,0,1-.7-.71,2.54,2.54,0,0,1-.24-1.15V20.3a3,3,0,0,1,.23-1.21,1.76,1.76,0,0,1,.69-.76,2.16,2.16,0,0,1,1.08-.26,2.27,2.27,0,0,1,1.08.25,1.68,1.68,0,0,1,.7.72,2.54,2.54,0,0,1,.23,1.15V22h-3V20.92h1.61v-.75a1,1,0,0,0-.17-.63.61.61,0,0,0-.5-.22.55.55,0,0,0-.49.24,1.07,1.07,0,0,0-.17.67v2.58a.89.89,0,0,0,.18.59.69.69,0,0,0,.53.2.68.68,0,0,0,.48-.16.61.61,0,0,0,.17-.45v-.14h1.33V23a1.84,1.84,0,0,1-.52,1.41,2,2,0,0,1-1.46.49A2.28,2.28,0,0,1,73.32,24.62Z"/></g></svg>