<svg xmlns="http://www.w3.org/2000/svg" viewBox="0 0 85 43"><g id="twt-background"><g id="Ebene_2" data-name="Ebene 2"><rect width="85" height="43" style="fill:#fff"/></g></g><g id="twt-primary"><path d="M29.17,24.78H27.78V15.55h1.39Z"/><path d="M30.43,18.19h1.4v6.59h-1.4Zm2.7,2a1,1,0,0,0-.16-.62.68.68,0,0,0-1,0,1,1,0,0,0-.16.63l-.13-.86a2,2,0,0,1,.59-.93,1.32,1.32,0,0,1,.87-.32,1.22,1.22,0,0,1,1,.45,2,2,0,0,1,.36,1.28v5h-1.4Z"/><path d="M38.52,18.19h1.37l-1.76,6.59H37.05l-1.77-6.59h1.37l.94,4.6Z"/><path d="M41.46,24.65A1.54,1.54,0,0,1,40.8,24a2,2,0,0,1-.23-1V19.89a1.9,1.9,0,0,1,.23-1,1.47,1.47,0,0,1,.66-.62,2.26,2.26,0,0,1,1-.22,2.22,2.22,0,0,1,1,.22,1.42,1.42,0,0,1,.66.62,2,2,0,0,1,.23,1V23a2.07,2.07,0,0,1-.23,1,1.55,1.55,0,0,1-.66.63,2.35,2.35,0,0,1-1,.21A2.26,2.26,0,0,1,41.46,24.65Zm1.45-1.24a.65.65,0,0,0,.15-.47V20a.64.64,0,0,0-.15-.45.5.5,0,0,0-.41-.16.51.51,0,0,0-.4.16A.64.64,0,0,0,42,20v3a.68.68,0,0,0,.15.47.5.5,0,0,0,.4.17A.51.51,0,0,0,42.91,23.41Z"/><path d="M45.63,15.59H47V17H45.63Zm0,2.6H47v6.59H45.63Z"/><path d="M49.14,24.65a1.5,1.5,0,0,1-.7-.64,2.09,2.09,0,0,1-.24-1V20.06A2.27,2.27,0,0,1,48.44,19a1.64,1.64,0,0,1,.7-.68,2.45,2.45,0,0,1,1.1-.23,2.35,2.35,0,0,1,1.1.24A1.54,1.54,0,0,1,52,19a2.27,2.27,0,0,1,.24,1.08v.39H50.91v-.33a.92.92,0,0,0-.17-.59.6.6,0,0,0-.48-.21.61.61,0,0,0-.49.21.81.81,0,0,0-.17.57v2.8a.65.65,0,0,0,.17.5.63.63,0,0,0,.49.18.62.62,0,0,0,.48-.19.77.77,0,0,0,.17-.53v-.3h1.38V23a2.1,2.1,0,0,1-.24,1,1.6,1.6,0,0,1-.71.65,2.8,2.8,0,0,1-2.2,0Z"/><path d="M54.11,24.62a1.65,1.65,0,0,1-.7-.71,2.54,2.54,0,0,1-.24-1.15V20.3a2.81,2.81,0,0,1,.23-1.21,1.76,1.76,0,0,1,.69-.76,2.15,2.15,0,0,1,1.07-.26,2.28,2.28,0,0,1,1.09.25,1.6,1.6,0,0,1,.69.72,2.54,2.54,0,0,1,.24,1.15V22h-3V20.92h1.62v-.75a1,1,0,0,0-.17-.63.61.61,0,0,0-.51-.22.58.58,0,0,0-.49.24,1.14,1.14,0,0,0-.17.67v2.58a.89.89,0,0,0,.19.59.8.8,0,0,0,1,0,.61.61,0,0,0,.17-.45v-.14H57.2V23a1.84,1.84,0,0,1-.52,1.41,2,2,0,0,1-1.47.49A2.24,2.24,0,0,1,54.11,24.62Z"/></g></svg>