<svg xmlns="http://www.w3.org/2000/svg" viewBox="0 0 85 43"><g id="icon"><g id="Ebene_2" data-name="Ebene 2"><rect width="85" height="43" style="fill:#fff"/></g><path d="M20.72,35.05a2.74,2.74,0,1,1,3.45,1.79A2.74,2.74,0,0,1,20.72,35.05Z" style="fill:#00933a"/><path d="M14.84,35.2a2,2,0,1,1,2.48,1.28A2,2,0,0,1,14.84,35.2Z" style="fill:#00933a"/><path d="M10.3,32.79a1.58,1.58,0,1,1,2,1A1.58,1.58,0,0,1,10.3,32.79Z" style="fill:#00933a"/><path d="M50.4,13.59v2H47.82v-2ZM44.13,12v4.85a4.24,4.24,0,0,0-1.36-1,4.6,4.6,0,0,0-4.92.94,5,5,0,0,0-1.5,3.81,5,5,0,0,0,1.15,3.44A4.45,4.45,0,0,0,41,25.53a4,4,0,0,0,2-.48A3.57,3.57,0,0,0,44.13,24v1.23h2.59V12Zm-.61,10.48a2.3,2.3,0,0,1-1.9.95,2.37,2.37,0,0,1-1.76-.75,2.83,2.83,0,0,1-.78-2.09,3.31,3.31,0,0,1,.51-1.81,2.32,2.32,0,0,1,2-1.13,2.26,2.26,0,0,1,1.79.83,3.09,3.09,0,0,1,.7,2.09A3,3,0,0,1,43.52,22.51Zm6.88-6.67v9.37H47.82V15.84ZM76.49,18v4.49a.55.55,0,0,0,.18.48,1,1,0,0,0,.56.12H79v2.16H75.61a1.82,1.82,0,0,1-1.33-.44,2,2,0,0,1-.36-1.35V12.48h2.57v3.31H79V18Zm-2.82-2.12h-3l-2.62,3.59V12.51H65.49v6.42a4.72,4.72,0,0,0-.89-1.65,4.82,4.82,0,0,0-3.94-1.76,5.11,5.11,0,0,0-2.61.65,4,4,0,0,0-1,.74v-1.1H54.14a4,4,0,0,0-1.47.41,3.21,3.21,0,0,0-1,.82,2.27,2.27,0,0,0-.46,1.51V25.2h2.58V18.86a1.16,1.16,0,0,1,.23-.4,1.61,1.61,0,0,1,.42-.28,1.47,1.47,0,0,1,.68-.13h1.16a5.42,5.42,0,0,0-.56,2.46A4.83,4.83,0,0,0,57,24a5.1,5.1,0,0,0,3.84,1.58A5,5,0,0,0,64,24.45a5.22,5.22,0,0,0,1.41-1.77L63,22a1.88,1.88,0,0,1-.66.76,2.68,2.68,0,0,1-1.5.46,2.38,2.38,0,0,1-1.9-.85,2.52,2.52,0,0,1-.55-1.26h7.1v4.08h2.58V21.32l2.61,3.89h3l-3.2-4.88ZM58.38,19.66a2.61,2.61,0,0,1,.52-1.19,2.24,2.24,0,0,1,1.79-.78,2.37,2.37,0,0,1,1.85.78,2.19,2.19,0,0,1,.54,1.19Z" style="fill:#042b60"/><path d="M32.82,15.84l-2.18,5.57-1.9-5.57H23.62V17a4.73,4.73,0,0,0-1.09-1,3.76,3.76,0,0,0-2-.53,4.46,4.46,0,0,0-2.4.66,4.28,4.28,0,0,0-1.64,1.71,6.26,6.26,0,0,0-.35.8,4.7,4.7,0,0,0-4.45-3.17A4,4,0,0,0,9.62,16a3.58,3.58,0,0,0-1,1V15.84H6V28.93H8.62V24.19a4,4,0,0,0,3.14,1.34,4.61,4.61,0,0,0,2.82-.87,4.28,4.28,0,0,0,1.56-2.11,4.35,4.35,0,0,0,.77,1.4,4.26,4.26,0,0,0,3.45,1.58,4,4,0,0,0,3.26-1.61v1.29H26.2V16.4L29.28,25l-.91,2.59a2.59,2.59,0,0,1,2.47.8l4.72-12.55ZM13.18,22.4a2.34,2.34,0,0,1-2.07,1.06,2.36,2.36,0,0,1-1.79-.75,2.93,2.93,0,0,1-.7-2.07,3.31,3.31,0,0,1,.5-1.86,2.38,2.38,0,0,1,2.07-1.1,2.3,2.3,0,0,1,1.79.8,3.09,3.09,0,0,1,.71,2.14A3.08,3.08,0,0,1,13.18,22.4Zm9.81.09a2.37,2.37,0,0,1-1.93,1,2.28,2.28,0,0,1-1.66-.7,2.92,2.92,0,0,1-.82-2.16,3.22,3.22,0,0,1,.61-2,2.21,2.21,0,0,1,1.89-.94,2.37,2.37,0,0,1,2,.93,3,3,0,0,1,.6,1.89A3.13,3.13,0,0,1,23,22.49Zm6.28,9.9a2,2,0,1,0-2.49-1.28A2,2,0,0,0,29.27,32.39Z" style="fill:#00933a"/></g></svg>