<svg xmlns="http://www.w3.org/2000/svg" viewBox="0 0 85 43"><g id="background"><g id="Ebene_2" data-name="Ebene 2"><rect width="85" height="43" style="fill:#fff"/></g></g><g id="icon"><path d="M78.73,36.6H6.27a.78.78,0,0,1-.77-.78V7.18a.78.78,0,0,1,.77-.78H78.73a.78.78,0,0,1,.77.78V35.82A.78.78,0,0,1,78.73,36.6ZM6.27,6.83a.35.35,0,0,0-.34.35V35.82a.35.35,0,0,0,.34.35H78.73a.35.35,0,0,0,.34-.35V7.18a.35.35,0,0,0-.34-.35Z" style="fill:#aeb1bc"/><path d="M43.08,22.69a5.64,5.64,0,0,1-2.65-.64l.25-1.66a5,5,0,0,0,2.38.63c.93,0,1.35-.34,1.35-.93,0-1.35-3.94-.78-3.94-3.64,0-1.45.93-2.63,3.1-2.63a6.7,6.7,0,0,1,2.4.44l-.24,1.63a6.86,6.86,0,0,0-2.07-.37c-1.06,0-1.34.37-1.34.82,0,1.34,3.94.72,3.94,3.62C46.26,21.65,45.08,22.69,43.08,22.69Z" style="fill:#005da0"/><path d="M53.68,20.85v1.68H47.86V14h5.82v1.7h-3.9v1.7H53V18.9H49.78v2Z" style="fill:#005da0"/><path d="M58.45,19.74H57.31v2.79H55.38V14h3.07c2.38,0,3.35.93,3.35,2.93C61.8,18.71,60.84,19.74,58.45,19.74Zm0-4.16H57.31V18.2h1.14c.95,0,1.36-.24,1.36-1.31S59.44,15.58,58.45,15.58Z" style="fill:#005da0"/><path d="M67.68,20.86H64.57l-.48,1.67h-2L65,14h2.29l3,8.56H68.16ZM65.9,16.32,65,19.25h2.18l-.82-2.93-.23-.9h0Z" style="fill:#005da0"/><path d="M25.84,15.84l-3.68-2.76-3.67-2.77a.59.59,0,0,0-.82.12l-3.23,4.3a.72.72,0,0,0-.1.22.58.58,0,0,0,.21.61l2.19,1.65,3,2.22,2.19,1.65a.62.62,0,0,0,.83-.13L26,16.65A.58.58,0,0,0,25.84,15.84Zm-7.59-5.2,2.19,1.65h0l1.48,1.11,1.48,1.11h0l2.19,1.65a.19.19,0,0,1,0,.26l-.53.72-2.48-1.86-2.68-2L17.46,11.4l.52-.72A.2.2,0,0,1,18.25,10.64Zm4.14,10.09a.24.24,0,0,1-.11.06.15.15,0,0,1-.14,0l-2.2-1.65-3-2.21-2.2-1.66a.19.19,0,0,1-.07-.12.13.13,0,0,1,0-.12l.6-.8,1.24-1.63,2.47,1.86,2.69,2,2.48,1.86L23,19.93Z" style="fill:#aeb1bc"/><path d="M26.5,22.42,32,15l.57-.75v0a.12.12,0,0,0,0-.17L31,12.93a.11.11,0,0,0-.16,0l0,0-.21.28-6.85,9.16H16.25l-2.83,9.32H32.29l-2.67-9.32Zm-12.57,9,2.58-8.58h7l-.6.81L22,24.8l-.1.18-.09.2-.09.23-.1.25-.09.27-.1.26-.08.27-.09.26-.08.25-.07.22-.06.2-.05.17,0,.12,0,.08,0,0s-.13.12-.21.06-.08-.28-.07-.39l.08-.95c0-.11-.13-.17-.22-.12a2.55,2.55,0,0,0-.83.8l.06-.22A8.68,8.68,0,0,0,20,26c0-.19,0-.42-.25-.46s-.42.23-.54.4a12.32,12.32,0,0,1-1.06,1.66.62.62,0,0,1-.62.23c-.29-.09-.4.26.11.3s.88-.49,1.11-.86.31-.55.48-.83a3,3,0,0,1,.24-.38c0-.05.12-.2.18-.21s.07,0,.07.09a2.62,2.62,0,0,1-.13.48l-.13.51L19.2,28a.15.15,0,0,0,.27.11,4.67,4.67,0,0,1,1-1.29l0,.33a5.66,5.66,0,0,0,0,.57c0,.31.25.52.54.39a1,1,0,0,0,.26-.18h0l.06-.05.11-.07.15-.11.17-.12.19-.13.22-.16.22-.16.22-.16.22-.17.22-.16.2-.15.19-.16.16-.12.13-.12.1-.1h0l.69-.82,1.76-2.36h3.13l2.43,8.58Z" style="fill:#005da0"/><path d="M33.32,14.61l-.21-.15a.09.09,0,0,0-.13,0L30.34,18a.09.09,0,0,0,0,.13l.21.16a.09.09,0,0,0,.13,0l2.64-3.51A.09.09,0,0,0,33.32,14.61Z" style="fill:#005da0"/><polygon points="22.73 29.54 27.98 29.54 27.86 29.13 22.73 29.13 17.6 29.13 17.49 29.54 22.73 29.54" style="fill:#005da0"/><path d="M41.78,28.51H40.43V25h1.34c1.13,0,1.6.54,1.6,1.77S42.83,28.51,41.78,28.51Zm0-2.84h-.52V27.8h.52c.55,0,.77-.18.77-1.09S42.32,25.67,41.76,25.67Z" style="fill:#005da0"/><path d="M44.53,25.33c-.28,0-.42-.08-.42-.32s.14-.31.42-.31.42.11.42.31S44.82,25.33,44.53,25.33Zm-.38,3.18V25.65l.76,0v2.89Z" style="fill:#005da0"/><path d="M45.79,28.51V25.65l.59,0,.06.48h0a.86.86,0,0,1,.79-.52,1.3,1.3,0,0,1,.31,0l-.05.73a1,1,0,0,0-.31-.05.67.67,0,0,0-.67.76v1.44Z" style="fill:#005da0"/><path d="M48,27c0-.92.4-1.46,1.26-1.46s1.19.43,1.19,1.34a2,2,0,0,1,0,.35H48.72c0,.48.27.66.76.66a2.23,2.23,0,0,0,.77-.14l.08.59a2.31,2.31,0,0,1-.94.18C48.4,28.56,48,28,48,27Zm1.78-.26c0-.42-.2-.58-.51-.58s-.49.16-.53.58Z" style="fill:#005da0"/><path d="M52.91,26.34a1.58,1.58,0,0,0-.49-.09c-.54,0-.71.22-.71.83s.25.86.7.86a1.24,1.24,0,0,0,.52-.11l0,.57a1.4,1.4,0,0,1-.74.17c-.85,0-1.3-.48-1.3-1.49s.4-1.49,1.32-1.49a2.07,2.07,0,0,1,.69.12Z" style="fill:#005da0"/><path d="M54.48,26.19v1.47c0,.22.11.32.34.32a.72.72,0,0,0,.22,0l.05.54a1.48,1.48,0,0,1-.5.08.78.78,0,0,1-.85-.88V26.19h-.32v-.55h.35L53.9,25l.58-.06v.71h.64v.55Z" style="fill:#005da0"/><path d="M58.58,28.51H57.23V25h1.34c1.13,0,1.6.54,1.6,1.77S59.63,28.51,58.58,28.51Zm0-2.84H58V27.8h.52c.55,0,.77-.18.77-1.09S59.12,25.67,58.56,25.67Z" style="fill:#005da0"/><path d="M60.74,27c0-.92.4-1.46,1.27-1.46s1.19.43,1.19,1.34c0,.11,0,.25,0,.35H61.5c0,.48.27.66.77.66a2.14,2.14,0,0,0,.76-.14l.08.59a2.3,2.3,0,0,1-.93.18C61.18,28.56,60.74,28,60.74,27Zm1.78-.26c0-.42-.2-.58-.51-.58s-.49.16-.52.58Z" style="fill:#005da0"/><path d="M65.24,28.57a1.1,1.1,0,0,1-.77-.29l-.09.23h-.5v-3.7l.74,0v1h0a1,1,0,0,1,.71-.26c.66,0,1.08.43,1.08,1.48S66,28.57,65.24,28.57Zm-.13-2.34a.58.58,0,0,0-.49.24v1.26a.56.56,0,0,0,.5.25c.33,0,.53-.16.53-.9S65.46,26.23,65.11,26.23Z" style="fill:#005da0"/><path d="M67.54,25.33c-.29,0-.42-.08-.42-.32s.13-.31.42-.31.42.11.42.31S67.83,25.33,67.54,25.33Zm-.38,3.18V25.65l.75,0v2.89Z" style="fill:#005da0"/><path d="M69.66,26.19v1.47c0,.22.12.32.34.32a.73.73,0,0,0,.23,0l0,.54a1.46,1.46,0,0,1-.49.08.78.78,0,0,1-.85-.88V26.19H68.6v-.55H69l.12-.65.58-.06v.71h.64v.55Z" style="fill:#005da0"/></g></svg>