<svg xmlns="http://www.w3.org/2000/svg" viewBox="0 0 85 43"><g id="twt-background"><g id="Ebene_2" data-name="Ebene 2"><rect width="85" height="43" style="fill:#fff"/></g></g><g id="twt-primary"><path d="M23.05,15.55h1.46l1.06,6.72,1.05-6.72h1.47L26.3,24.78H24.83Z"/><path d="M29,24.65a1.57,1.57,0,0,1-.67-.63,2.08,2.08,0,0,1-.23-1V19.89a2,2,0,0,1,.23-1,1.49,1.49,0,0,1,.67-.62,2.59,2.59,0,0,1,2.09,0,1.42,1.42,0,0,1,.66.62,2,2,0,0,1,.22,1V23a2.07,2.07,0,0,1-.22,1,1.55,1.55,0,0,1-.66.63,2.4,2.4,0,0,1-1.05.21A2.25,2.25,0,0,1,29,24.65Zm1.45-1.24a.69.69,0,0,0,.14-.47V20a.69.69,0,0,0-.14-.45.51.51,0,0,0-.41-.16.53.53,0,0,0-.41.16.69.69,0,0,0-.14.45v3a.68.68,0,0,0,.14.47.58.58,0,0,0,.82,0Z"/><path d="M33.26,18.19h1.39v6.59H33.26Zm3,1.32H36a1.37,1.37,0,0,0-1,.35,1.3,1.3,0,0,0-.37.95l-.13-1.47a2.4,2.4,0,0,1,.78-.93,1.76,1.76,0,0,1,1.05-.34V19.5Z"/><path d="M37.38,15.55h1.39v9.23H37.38Zm.8,6.59,2.31-3.95h1.43L38.25,24Zm1.07-.74.85-1,2.08,4.36h-1.5Z"/><path d="M43,24.4a2.09,2.09,0,0,1-.4-1.4,2.28,2.28,0,0,1,.53-1.63,2.09,2.09,0,0,1,1.57-.56h.68L45.45,22h-.72a.72.72,0,0,0-.62.26,1.19,1.19,0,0,0-.21.76.69.69,0,0,0,.16.51.61.61,0,0,0,.47.17.77.77,0,0,0,.59-.22.9.9,0,0,0,.2-.63l.12.57a2.13,2.13,0,0,1-.15.81,1.08,1.08,0,0,1-.44.5,1.41,1.41,0,0,1-.71.16A1.44,1.44,0,0,1,43,24.4ZM45.32,20a.69.69,0,0,0-.18-.51.67.67,0,0,0-.5-.18.52.52,0,0,0-.43.18.78.78,0,0,0-.16.51H42.71a1.9,1.9,0,0,1,.52-1.42,2,2,0,0,1,1.44-.51,2.38,2.38,0,0,1,1.07.23,1.55,1.55,0,0,1,.68.66,2.25,2.25,0,0,1,.23,1v4.78H45.32Z"/><path d="M48.68,24.62a1.69,1.69,0,0,1-.71-.69,2.1,2.1,0,0,1-.26-1.05V22.8H49v.08a.77.77,0,0,0,.19.55.67.67,0,0,0,.52.21.69.69,0,0,0,.51-.2.72.72,0,0,0,.18-.51.63.63,0,0,0-.12-.4.91.91,0,0,0-.3-.25L49.5,22l-.08,0a.32.32,0,0,1-.09,0h-.06a3.91,3.91,0,0,1-.74-.39A1.67,1.67,0,0,1,48,21a2,2,0,0,1-.21-1A2.19,2.19,0,0,1,48,19a1.65,1.65,0,0,1,.67-.69,2,2,0,0,1,1-.24,2.11,2.11,0,0,1,1,.23,1.58,1.58,0,0,1,.67.66,2.08,2.08,0,0,1,.23,1V20l-1.32,0V20a.63.63,0,0,0-.16-.46.58.58,0,0,0-.83,0,.78.78,0,0,0-.15.51.7.7,0,0,0,.12.42.9.9,0,0,0,.32.26,3.08,3.08,0,0,0,.52.21s0,0,0,0h.07a4,4,0,0,1,.82.36,1.47,1.47,0,0,1,.55.58,2.06,2.06,0,0,1,.23,1,2.16,2.16,0,0,1-.25,1,1.72,1.72,0,0,1-.71.68,2.31,2.31,0,0,1-1.07.24A2.14,2.14,0,0,1,48.68,24.62Z"/><path d="M53.43,24.62a1.69,1.69,0,0,1-.71-.69,2.1,2.1,0,0,1-.26-1.05V22.8h1.33v.08a.77.77,0,0,0,.19.55.66.66,0,0,0,.51.21.7.7,0,0,0,.52-.2.72.72,0,0,0,.18-.51.63.63,0,0,0-.12-.4.91.91,0,0,0-.3-.25L54.25,22l-.09,0s0,0-.08,0H54a3.91,3.91,0,0,1-.74-.39,1.58,1.58,0,0,1-.52-.59,2,2,0,0,1-.21-1,2.08,2.08,0,0,1,.23-1,1.69,1.69,0,0,1,.66-.69,2,2,0,0,1,1-.24,2.11,2.11,0,0,1,1,.23,1.58,1.58,0,0,1,.67.66,2.08,2.08,0,0,1,.23,1V20l-1.32,0V20a.67.67,0,0,0-.16-.46.58.58,0,0,0-.83,0,.78.78,0,0,0-.15.51.7.7,0,0,0,.12.42.82.82,0,0,0,.32.26,3.08,3.08,0,0,0,.52.21h.09a4.26,4.26,0,0,1,.82.36,1.55,1.55,0,0,1,.55.58,2.06,2.06,0,0,1,.23,1,2.16,2.16,0,0,1-.25,1,1.69,1.69,0,0,1-.72.68,2.25,2.25,0,0,1-1.07.24A2.13,2.13,0,0,1,53.43,24.62Z"/><path d="M58.35,24.62a1.6,1.6,0,0,1-.7-.71,2.54,2.54,0,0,1-.25-1.15V20.3a2.81,2.81,0,0,1,.24-1.21,1.76,1.76,0,0,1,.69-.76,2.12,2.12,0,0,1,1.07-.26,2.28,2.28,0,0,1,1.09.25,1.65,1.65,0,0,1,.69.72,2.54,2.54,0,0,1,.24,1.15V22h-3V20.92h1.62v-.75a1,1,0,0,0-.18-.63.65.65,0,0,0-1,0,1.14,1.14,0,0,0-.17.67v2.58a.84.84,0,0,0,.19.59.8.8,0,0,0,1,0,.61.61,0,0,0,.17-.45v-.14h1.33V23a1.84,1.84,0,0,1-.52,1.41,2.06,2.06,0,0,1-1.47.49A2.21,2.21,0,0,1,58.35,24.62Z"/></g></svg>