<svg xmlns="http://www.w3.org/2000/svg" viewBox="0 0 85 43"><g id="background"><g id="Ebene_2" data-name="Ebene 2"><rect width="85" height="43" style="fill:#fff"/></g></g><g id="icon"><path d="M23.27,18.58V14.81a2.51,2.51,0,0,0-.05-.61,1.77,1.77,0,0,0-.51-1.32c-1.12-1.12-2.19-2.29-3.31-3.47a2.16,2.16,0,0,0-1.73-.71h-5.5a2.16,2.16,0,0,0-1.73.71L7.13,12.88a1.77,1.77,0,0,0-.51,1.32,2.51,2.51,0,0,0,0,.61v3.77c-.05.56-.05,1-.05,1.37v.11a3.55,3.55,0,0,0,.71,2.34c0,.1.1.15.15.25.31.46.67,1,1.12,1.68,1.68,2.5,3.42,5,5.1,7.54.56.81.91,1.17,1.27,1.17s.76-.36,1.27-1.17c1.73-2.5,3.41-5,5.09-7.54.46-.71.87-1.22,1.12-1.68.06-.1.11-.15.16-.25a3.85,3.85,0,0,0,.71-2.34V20A11.15,11.15,0,0,0,23.27,18.58Zm-7.33,4.68a43,43,0,0,1-5.14,0V18.07h0V13.84c0-.61.2-.91.81-1a14.82,14.82,0,0,1,6.52-.26c.41.1.81.1.71.76-.15.92-.36,1.23-1,1.12a13,13,0,0,0-4.17,0c-.61.11-1,.31-1,1,.05,1.68,0,6,0,6s2.29,0,3-.1a2.31,2.31,0,0,0,1.38-.71A1.61,1.61,0,0,0,17.57,19c-.15-.66-.66-.87-1.28-1a5.52,5.52,0,0,0-2-.05c-.36.05-.71.1-.77-.41s-.2-1,.41-1.12a6.07,6.07,0,0,1,4.84.66,2.16,2.16,0,0,1,.92,1.73C19.91,21.13,18.43,22.91,15.94,23.26Z" style="fill:#74b730"/><path d="M29.18,13.74a11.45,11.45,0,0,1,2.08-.15,3.84,3.84,0,0,1,2.25.51,1.65,1.65,0,0,1,.81,1.48A1.81,1.81,0,0,1,33,17.26h0a2,2,0,0,1,1.57,1.93,2.08,2.08,0,0,1-.76,1.63,4.25,4.25,0,0,1-2.9.71,13.07,13.07,0,0,1-1.73-.1Zm1.42,3.11h.72c1,0,1.52-.46,1.52-1.12s-.56-1.07-1.47-1.07a3.25,3.25,0,0,0-.82.05v2.14Zm0,3.56c.21,0,.41.05.77.05.91,0,1.73-.35,1.73-1.32s-.77-1.27-1.78-1.27H30.6Z" style="fill:#5c5c5c"/><path d="M39.06,21.48,39,20.87H38.9a2,2,0,0,1-1.68.76A1.68,1.68,0,0,1,35.44,20c0-1.42,1.27-2.13,3.36-2.13v-.11c0-.35-.15-1-1.17-1a3,3,0,0,0-1.53.4l-.25-.91a4,4,0,0,1,2-.51,2.12,2.12,0,0,1,2.35,2.39v2a5.63,5.63,0,0,0,.1,1.37H39.06Zm-.21-2.75c-1,0-2,.21-2,1.07a.75.75,0,0,0,.81.82,1.18,1.18,0,0,0,1.12-.77.63.63,0,0,0,.05-.3Z" style="fill:#5c5c5c"/><path d="M41.75,17.66c0-.76,0-1.32,0-1.83h1.23l0,1.07H43a1.62,1.62,0,0,1,1.52-1.22.87.87,0,0,1,.36.05v1.32c-.1,0-.25-.05-.41-.05a1.27,1.27,0,0,0-1.27,1.07c0,.15,0,.25,0,.46v2.9H41.75Z" style="fill:#5c5c5c"/><path d="M45.42,20.67,47.56,18l.81-1H45.62V15.88H50.1v.87L48,19.39c-.26.36-.56.67-.82,1h3v1.12H45.42Z" style="fill:#5c5c5c"/><path d="M54.38,21.48l-.1-.61h-.05a2,2,0,0,1-1.68.76A1.68,1.68,0,0,1,50.77,20c0-1.42,1.27-2.13,3.36-2.13v-.11c0-.35-.16-1-1.17-1a3,3,0,0,0-1.53.4l-.26-.91a4.08,4.08,0,0,1,2-.51,2.12,2.12,0,0,1,2.34,2.39v2a5.63,5.63,0,0,0,.1,1.37H54.38Zm-.2-2.75c-1,0-2,.21-2,1.07a.76.76,0,0,0,.82.82,1.19,1.19,0,0,0,1.12-.77.63.63,0,0,0,0-.3Z" style="fill:#5c5c5c"/><path d="M57.08,13.23h1.43v3.36h0a1.75,1.75,0,0,1,.71-.66,2,2,0,0,1,1-.25c1,0,2,.66,2,2.44v3.31H60.75V18.27c0-.81-.31-1.42-1.07-1.42a1.15,1.15,0,0,0-1.12.81,1,1,0,0,0-.05.41v3.36H57.08Z" style="fill:#5c5c5c"/><path d="M63.75,13.23h1.43v8.25H63.75Z" style="fill:#5c5c5c"/><path d="M67.72,19a1.54,1.54,0,0,0,1.73,1.47A4.71,4.71,0,0,0,71,20.26l.21,1a5.46,5.46,0,0,1-2,.35,2.66,2.66,0,0,1-2.9-2.85,2.81,2.81,0,0,1,2.75-3.05,2.47,2.47,0,0,1,2.44,2.75,2.17,2.17,0,0,1-.05.61Zm2.5-1a1.21,1.21,0,0,0-1.17-1.37,1.42,1.42,0,0,0-1.33,1.37Z" style="fill:#5c5c5c"/><path d="M72.71,17.51c0-.66,0-1.17,0-1.68h1.27l.06.87H74a2,2,0,0,1,1.78-1c1,0,2,.66,2,2.44v3.36H76.38V18.32c0-.81-.31-1.42-1.07-1.42a1.23,1.23,0,0,0-1.12.81,1.48,1.48,0,0,0,0,.46v3.31H72.71v-4Z" style="fill:#5c5c5c"/><path d="M32.69,26.93A1.84,1.84,0,0,1,30.86,29a1.82,1.82,0,0,1-1.78-2,1.82,1.82,0,1,1,3.61-.05Zm-3.11.1c0,.87.46,1.63,1.28,1.63s1.27-.76,1.27-1.68-.41-1.63-1.27-1.63S29.58,26.12,29.58,27Z" style="fill:#c1c1c1"/><path d="M33.35,26.88v-.76h.46l0,.45h0a1.11,1.11,0,0,1,1-.56c.41,0,1,.26,1,1.23V29h-.51V27.34c0-.46-.15-.87-.66-.87A.81.81,0,0,0,34,27a2,2,0,0,0-.05.26V29H33.4V26.88Z" style="fill:#c1c1c1"/><path d="M36.61,24.79h.51V29h-.51Z" style="fill:#c1c1c1"/><path d="M38.6,25.3a.31.31,0,0,1-.36.31.3.3,0,0,1-.3-.31.29.29,0,0,1,.3-.3C38.5,25,38.6,25.15,38.6,25.3ZM38,29V26.12h.51V29Z" style="fill:#c1c1c1"/><path d="M39.41,26.88v-.76h.46l.05.45h0a1.11,1.11,0,0,1,1-.56c.41,0,1,.26,1,1.23V29H41.4V27.34c0-.46-.16-.87-.66-.87A.8.8,0,0,0,40,27a2,2,0,0,0-.05.26V29h-.51V26.88Z" style="fill:#c1c1c1"/><path d="M43,27.64a.91.91,0,0,0,1,1,1.85,1.85,0,0,0,.82-.15l.1.35a2.1,2.1,0,0,1-1,.16,1.34,1.34,0,0,1-1.42-1.43,1.38,1.38,0,0,1,1.32-1.53A1.2,1.2,0,0,1,45,27.39v.25Zm1.52-.35c0-.36-.15-.87-.71-.87s-.76.51-.81.87Z" style="fill:#c1c1c1"/><path d="M46.9,29V24.74h.51v1.78h0a1.1,1.1,0,0,1,1-.51,1.32,1.32,0,0,1,1.23,1.48A1.37,1.37,0,0,1,48.32,29a1,1,0,0,1-1-.56h0v.46H46.9Zm.51-1.12v.2a.8.8,0,0,0,.76.61c.56,0,.87-.46.87-1.12s-.31-1.07-.87-1.07a.9.9,0,0,0-.81.66c0,.05-.06.16-.06.21v.51Z" style="fill:#c1c1c1"/><path d="M51.84,29l-.05-.36h0a1.11,1.11,0,0,1-.87.41.82.82,0,0,1-.87-.82c0-.71.61-1.07,1.74-1.07v-.05a.59.59,0,0,0-.67-.66,1.9,1.9,0,0,0-.76.2l-.1-.35a1.77,1.77,0,0,1,.91-.26c.87,0,1.07.61,1.07,1.17v1.07a2.61,2.61,0,0,0,0,.67h-.45Zm-.05-1.43c-.57,0-1.23.1-1.23.66a.46.46,0,0,0,.51.51.83.83,0,0,0,.72-.46c0-.05.05-.1.05-.15v-.56Z" style="fill:#c1c1c1"/><path d="M53.11,27v-.91h.46v.56h0a.86.86,0,0,1,.81-.62h.15v.51h-.15a.76.76,0,0,0-.71.67V29h-.51V27Z" style="fill:#c1c1c1"/><path d="M56.27,29V24.74h.51v1.78h0a1.09,1.09,0,0,1,1-.51c.72,0,1.22.61,1.22,1.48A1.37,1.37,0,0,1,57.69,29a1,1,0,0,1-1-.56h0v.46h-.45Zm.56-1.12v.2a.8.8,0,0,0,.76.61c.56,0,.87-.46.87-1.12s-.31-1.07-.87-1.07a.9.9,0,0,0-.81.66c0,.05-.06.16-.06.21v.51Z" style="fill:#c1c1c1"/><path d="M60,27.64a.92.92,0,0,0,1,1,1.85,1.85,0,0,0,.82-.15l.1.35a2.12,2.12,0,0,1-1,.16,1.34,1.34,0,0,1-1.43-1.43,1.38,1.38,0,0,1,1.33-1.53A1.21,1.21,0,0,1,62,27.39v.25Zm1.53-.35c0-.36-.15-.87-.71-.87s-.77.51-.82.87Z" style="fill:#c1c1c1"/><path d="M62.33,28.66,63.6,27c.1-.15.25-.3.35-.46H62.43v-.4h2.19v.3L63.34,28.1c-.1.15-.25.31-.35.46h1.68V29H62.33v-.31Z" style="fill:#c1c1c1"/><path d="M66.76,29l-.06-.36h0a1.08,1.08,0,0,1-.86.41A.82.82,0,0,1,65,28.2c0-.71.61-1.07,1.73-1.07v-.05a.58.58,0,0,0-.66-.66,1.9,1.9,0,0,0-.76.2l-.1-.35a1.77,1.77,0,0,1,.91-.26c.87,0,1.07.61,1.07,1.17v1.07a2.61,2.61,0,0,0,0,.67h-.45Zm-.11-1.43c-.56,0-1.22.1-1.22.66a.45.45,0,0,0,.51.51.81.81,0,0,0,.71-.46c0-.05,0-.1,0-.15v-.56Z" style="fill:#c1c1c1"/><path d="M68,24.79h.51v1.78h0a1.17,1.17,0,0,1,.35-.35,1,1,0,0,1,.51-.16c.41,0,1,.26,1,1.23V29h-.51V27.34c0-.46-.15-.87-.66-.87a.78.78,0,0,0-.71.51.39.39,0,0,0-.05.26V29H68V24.79Z" style="fill:#c1c1c1"/><path d="M71.29,24.79h.51V29h-.51Z" style="fill:#c1c1c1"/><path d="M73,27.64a.92.92,0,0,0,1,1,1.82,1.82,0,0,0,.82-.15l.1.35a2.1,2.1,0,0,1-1,.16,1.34,1.34,0,0,1-1.42-1.43,1.38,1.38,0,0,1,1.32-1.53A1.2,1.2,0,0,1,75,27.39v.25Zm1.52-.35c0-.36-.15-.87-.71-.87s-.76.51-.81.87Z" style="fill:#c1c1c1"/><path d="M75.67,26.88v-.76h.45l.06.45h0a1.1,1.1,0,0,1,1-.56c.41,0,1,.26,1,1.23V29h-.51V27.34c0-.46-.15-.87-.66-.87a.78.78,0,0,0-.71.51,2,2,0,0,0,0,.26V29h-.51V26.88Z" style="fill:#c1c1c1"/></g></svg>