<svg xmlns="http://www.w3.org/2000/svg" viewBox="0 0 85 43"><g id="background"><rect width="85" height="43" style="fill:#eb6f93"/></g><g id="icon"><path id="Slice-it." d="M28.47,38.44A2.42,2.42,0,0,0,31.05,36c0-1.34-.95-1.92-2.11-2.26-.74-.21-1.21-.38-1.21-.9a.78.78,0,0,1,.83-.79,1.13,1.13,0,0,1,1,.63l1.22-.77a2.42,2.42,0,0,0-4.54,1c0,1,.58,1.72,2,2.14.78.23,1.28.38,1.28,1a.94.94,0,0,1-1,1A1.87,1.87,0,0,1,27,36.21l-1,1A3,3,0,0,0,28.47,38.44ZM32,38.3h1.48V30.77H32Zm3.45-6a.92.92,0,1,0-.93-.93A.93.93,0,0,0,35.44,32.3Zm-.74,6h1.47V33.09H34.7Zm5.09.14a2.6,2.6,0,0,0,2.43-1.38l-1.28-.66a1.35,1.35,0,1,1,0-1.41l1.28-.66A2.6,2.6,0,0,0,39.79,33a2.75,2.75,0,1,0,0,5.49Zm8-2.79a2.56,2.56,0,0,1,0,.37,14.87,14.87,0,0,0-3.66.43,1.36,1.36,0,0,0,1.24.68,2,2,0,0,0,1.38-.59l.77,1a2.93,2.93,0,0,1-2.15.9,2.72,2.72,0,0,1-2.82-2.76A2.68,2.68,0,0,1,45.2,33,2.51,2.51,0,0,1,47.74,35.65Zm-2.58-1.38a1.24,1.24,0,0,0-1.25,1.12A10.31,10.31,0,0,1,46.25,35,1.06,1.06,0,0,0,45.16,34.27Zm6.47-2a.92.92,0,1,0-.92-.93A.93.93,0,0,0,51.63,32.3Zm-.73,6h1.46V33.09H50.9ZM55,35.64V34.37a1.79,1.79,0,0,0,1.37.52v-1.4A1.3,1.3,0,0,1,55,32.23v-.81H53.55v4.3a2.46,2.46,0,0,0,2.66,2.58h.21V36.92A1.21,1.21,0,0,1,55,35.64Zm3.16,2.74a1,1,0,1,0-1-1A1,1,0,0,0,58.17,38.38Z" style="fill:#fff;fill-rule:evenodd"/><path id="_Path_" data-name=" Path " d="M54.13,24.81,40.28,5.48a24.67,24.67,0,0,0-9.81,15.34Zm-24.66-3.7A25.55,25.55,0,0,1,40.12,4.45a.46.46,0,0,1,.65.11L55.55,25.18a.46.46,0,0,1-.46.72L29.85,21.65A.46.46,0,0,1,29.47,21.11Z" style="fill:#fff"/><path id="_Path_2" data-name=" Path 2" d="M41.77,7.6,41.35,8a2,2,0,0,1-.21.24,2.73,2.73,0,0,1-.22.24c-.76.83-1.29,1.21-1.81,1.22a3.18,3.18,0,0,0-3.44,3.51c0,.14,0,.26,0,.44a3.23,3.23,0,0,1,0,.44c0,.49-.38,1.07-1.81,2.58-1.73,1.85-1.78,4-.76,5.36a.48.48,0,0,0,.66.1.46.46,0,0,0,.1-.64c-.76-1-.73-2.68.69-4.19,1.58-1.68,2-2.39,2.06-3.19,0-.15,0-.22,0-.55,0-.16,0-.26,0-.38a2.27,2.27,0,0,1,2.51-2.56c.87,0,1.57-.51,2.5-1.52l.22-.25.22-.23.38-.41a.45.45,0,0,0,0-.65A.47.47,0,0,0,41.77,7.6Z" style="fill:#fff"/><path id="_Path_3" data-name=" Path 3" d="M40.73,23.07a3.73,3.73,0,0,1,7.07.77c0,.15,0,.29.05.44a.47.47,0,0,0,.94-.06,5,5,0,0,0-.07-.54,4.67,4.67,0,0,0-8.85-1,.47.47,0,1,0,.86.36Z" style="fill:#fff"/><path id="_Path_4" data-name=" Path 4" d="M39.14,18.9A4.28,4.28,0,0,0,35.44,20a.47.47,0,0,0,0,.65.47.47,0,0,0,.67,0A3.3,3.3,0,0,1,39,19.81a.46.46,0,1,0,.18-.91Z" style="fill:#fff"/><path id="_Path_5" data-name=" Path 5" d="M45.58,17.34A4.18,4.18,0,0,0,48.34,20a.49.49,0,0,0,.59-.31.48.48,0,0,0-.32-.58A3.22,3.22,0,0,1,46.47,17a.48.48,0,0,0-.6-.29A.46.46,0,0,0,45.58,17.34Z" style="fill:#fff"/><path id="Oval" d="M41.45,18.25a3.35,3.35,0,1,1,3.4-3.35A3.38,3.38,0,0,1,41.45,18.25Zm0-.92A2.43,2.43,0,1,0,39,14.9,2.45,2.45,0,0,0,41.45,17.33Z" style="fill:#fff"/></g></svg>