<svg xmlns="http://www.w3.org/2000/svg" viewBox="0 0 85 43"><g id="twt-background"><g id="Ebene_2" data-name="Ebene 2"><rect width="85" height="43" style="fill:#fff"/></g></g><g id="twt-primary"><path d="M19.5,15.55h1.39v9.23H19.5Zm.65,7.9h3.26v1.33H20.15Z"/><path d="M24.71,24.4a2.14,2.14,0,0,1-.4-1.4,2.23,2.23,0,0,1,.54-1.63,2.09,2.09,0,0,1,1.57-.56h.68L27.18,22h-.71a.74.74,0,0,0-.63.26,1.25,1.25,0,0,0-.2.76.74.74,0,0,0,.15.51.64.64,0,0,0,.47.17.74.74,0,0,0,.59-.22.86.86,0,0,0,.21-.63l.12.57a2.12,2.12,0,0,1-.16.81,1.06,1.06,0,0,1-.43.5,1.41,1.41,0,0,1-.71.16A1.47,1.47,0,0,1,24.71,24.4ZM27.06,20a.69.69,0,0,0-.18-.51.68.68,0,0,0-.5-.18.52.52,0,0,0-.43.18.73.73,0,0,0-.16.51H24.45A1.9,1.9,0,0,1,25,18.58a1.94,1.94,0,0,1,1.43-.51,2.39,2.39,0,0,1,1.08.23,1.6,1.6,0,0,1,.68.66,2.25,2.25,0,0,1,.23,1v4.78H27.06Z"/><path d="M30.42,24.62a1.65,1.65,0,0,1-.71-.7,2.06,2.06,0,0,1-.26-1V22.8h1.33v.07a.78.78,0,0,0,.19.56.74.74,0,0,0,1,0,.69.69,0,0,0,.19-.51.62.62,0,0,0-.12-.4.91.91,0,0,0-.3-.25c-.13-.07-.3-.14-.52-.23l-.09,0s0,0-.08,0H31a4.36,4.36,0,0,1-.75-.39,1.87,1.87,0,0,1-.52-.59,2,2,0,0,1-.21-1,2.08,2.08,0,0,1,.24-1,1.69,1.69,0,0,1,.66-.69,2,2,0,0,1,1-.24,2.11,2.11,0,0,1,1,.23,1.61,1.61,0,0,1,.67.65,2.15,2.15,0,0,1,.23,1V20l-1.33,0V20a.67.67,0,0,0-.15-.46.58.58,0,0,0-.83,0,.78.78,0,0,0-.15.51.7.7,0,0,0,.12.42.82.82,0,0,0,.32.26,3.08,3.08,0,0,0,.52.21h.09a4.26,4.26,0,0,1,.82.36,1.55,1.55,0,0,1,.55.58,2.42,2.42,0,0,1,0,2.08,1.61,1.61,0,0,1-.71.68,2.25,2.25,0,0,1-1.07.24A2.13,2.13,0,0,1,30.42,24.62Z"/><path d="M34,18.19h2.92v1.29H34Zm1,6.18a1.92,1.92,0,0,1-.39-1.31V16.27H36v6.66a.62.62,0,0,0,.11.39.39.39,0,0,0,.33.14h.47v1.35h-.66A1.58,1.58,0,0,1,35,24.37Z"/><path d="M38.65,24.62a1.6,1.6,0,0,1-.71-.7,2.06,2.06,0,0,1-.26-1V22.8H39v.07a.78.78,0,0,0,.19.56.74.74,0,0,0,1,0,.69.69,0,0,0,.19-.51.62.62,0,0,0-.12-.4.91.91,0,0,0-.3-.25,5.1,5.1,0,0,0-.53-.23l-.08,0s-.05,0-.08,0h-.06a4.36,4.36,0,0,1-.75-.39A1.87,1.87,0,0,1,38,21a2,2,0,0,1-.21-1A2.08,2.08,0,0,1,38,19a1.69,1.69,0,0,1,.66-.69,2,2,0,0,1,1-.24,2.11,2.11,0,0,1,1,.23,1.53,1.53,0,0,1,.66.65,2,2,0,0,1,.24,1V20l-1.33,0V20a.67.67,0,0,0-.15-.46.58.58,0,0,0-.83,0,.78.78,0,0,0-.15.51.7.7,0,0,0,.12.42.82.82,0,0,0,.32.26,3.08,3.08,0,0,0,.52.21h.09a4.26,4.26,0,0,1,.82.36,1.55,1.55,0,0,1,.55.58,2.42,2.42,0,0,1,0,2.08,1.61,1.61,0,0,1-.71.68,2.25,2.25,0,0,1-1.07.24A2.13,2.13,0,0,1,38.65,24.62Z"/><path d="M43.56,24.65a1.5,1.5,0,0,1-.7-.64,2.09,2.09,0,0,1-.24-1V20.06A2.27,2.27,0,0,1,42.86,19a1.59,1.59,0,0,1,.7-.68,2.45,2.45,0,0,1,1.1-.23,2.35,2.35,0,0,1,1.1.24,1.54,1.54,0,0,1,.7.68,2.27,2.27,0,0,1,.24,1.08v.39H45.33v-.33a.92.92,0,0,0-.17-.59.57.57,0,0,0-.48-.21.63.63,0,0,0-.49.2.91.91,0,0,0-.17.58v2.8a.7.7,0,0,0,.17.5.64.64,0,0,0,.49.18.59.59,0,0,0,.48-.19.77.77,0,0,0,.17-.53v-.3h1.39V23a2.11,2.11,0,0,1-.25,1,1.63,1.63,0,0,1-.7.65,2.53,2.53,0,0,1-1.11.23A2.45,2.45,0,0,1,43.56,24.65Z"/><path d="M47.72,15.55h1.4v9.23h-1.4Zm2.7,4.63a1,1,0,0,0-.16-.61.57.57,0,0,0-.49-.21.58.58,0,0,0-.49.21,1,1,0,0,0-.16.62L49,19.32a2,2,0,0,1,.59-.93,1.32,1.32,0,0,1,.87-.32,1.2,1.2,0,0,1,1,.45,2,2,0,0,1,.36,1.28v5h-1.4Z"/><path d="M53.21,18.19H54.6v6.59H53.21Zm2.95,1.32H56a1.37,1.37,0,0,0-1,.35,1.3,1.3,0,0,0-.37.95l-.13-1.47a2.4,2.4,0,0,1,.78-.93,1.76,1.76,0,0,1,1-.34V19.5Z"/><path d="M57.27,15.59h1.38V17H57.27Zm0,2.6h1.38v6.59H57.27Z"/><path d="M59.47,18.19h3.11v1.23H59.47Zm.62-.9A1.89,1.89,0,0,1,60.5,16a1.68,1.68,0,0,1,1.27-.43h.81v1.3h-.66a.39.39,0,0,0-.33.15.63.63,0,0,0-.11.38v7.4H60.09Z"/><path d="M62.83,18.19h2.92v1.29H62.83Zm1,6.18a1.92,1.92,0,0,1-.39-1.31V16.27h1.38v6.66a.57.57,0,0,0,.12.39.36.36,0,0,0,.32.14h.47v1.35h-.66A1.6,1.6,0,0,1,63.85,24.37Z"/></g></svg>