<svg xmlns="http://www.w3.org/2000/svg" viewBox="0 0 85 43"><g id="background"><g id="Ebene_2" data-name="Ebene 2"><rect y="-0.05" width="85" height="43" style="fill:#fff"/></g></g><g id="icon"><path d="M13.7,10.65H12.37a.17.17,0,0,0-.18.15l-.54,3.41a.11.11,0,0,0,.11.12h.64a.18.18,0,0,0,.18-.15l.14-.92a.19.19,0,0,1,.19-.16h.42a1.36,1.36,0,0,0,1.51-1.26,1,1,0,0,0-.17-.86A1.25,1.25,0,0,0,13.7,10.65Zm.15,1.24c-.07.48-.43.48-.79.48h-.2l.14-.89a.12.12,0,0,1,.11-.1h.1c.24,0,.46,0,.58.14A.43.43,0,0,1,13.85,11.89Z" style="fill:#253b80"/><path d="M17.67,11.87H17a.12.12,0,0,0-.11.1l0,.18,0-.07a.9.9,0,0,0-.75-.27,1.47,1.47,0,0,0-1.42,1.28,1.21,1.21,0,0,0,.24,1,1,1,0,0,0,.8.32A1.21,1.21,0,0,0,16.6,14l0,.18a.11.11,0,0,0,.11.12h.57a.19.19,0,0,0,.19-.15L17.78,12A.11.11,0,0,0,17.67,11.87Zm-.89,1.24a.7.7,0,0,1-.71.61.54.54,0,0,1-.43-.17.56.56,0,0,1-.1-.45.71.71,0,0,1,.71-.61.56.56,0,0,1,.43.17A.58.58,0,0,1,16.78,13.11Z" style="fill:#253b80"/><path d="M21.06,11.87h-.64a.18.18,0,0,0-.15.08l-.89,1.3L19,12a.19.19,0,0,0-.18-.14h-.62a.12.12,0,0,0-.11.15l.7,2.07-.66.93a.12.12,0,0,0,.09.18h.64a.18.18,0,0,0,.15-.08l2.13-3.07A.11.11,0,0,0,21.06,11.87Z" style="fill:#253b80"/><path d="M23.17,10.65H21.84a.18.18,0,0,0-.18.15l-.53,3.41a.11.11,0,0,0,.1.12h.69a.12.12,0,0,0,.12-.1l.16-1a.18.18,0,0,1,.18-.16h.42a1.36,1.36,0,0,0,1.51-1.26,1,1,0,0,0-.17-.86A1.24,1.24,0,0,0,23.17,10.65Zm.16,1.24c-.08.48-.44.48-.79.48h-.2l.14-.89a.11.11,0,0,1,.11-.1h.09c.24,0,.47,0,.58.14A.46.46,0,0,1,23.33,11.89Z" style="fill:#179bd7"/><path d="M27.14,11.87h-.63a.11.11,0,0,0-.11.1l0,.18,0-.07a.92.92,0,0,0-.76-.27,1.47,1.47,0,0,0-1.42,1.28,1.21,1.21,0,0,0,.24,1,1,1,0,0,0,.8.32,1.21,1.21,0,0,0,.88-.36l0,.18a.11.11,0,0,0,.11.12h.58a.18.18,0,0,0,.18-.15L27.25,12A.11.11,0,0,0,27.14,11.87Zm-.88,1.24a.71.71,0,0,1-.72.61.55.55,0,0,1-.43-.17.56.56,0,0,1-.1-.45.71.71,0,0,1,.71-.61.55.55,0,0,1,.43.17A.58.58,0,0,1,26.26,13.11Z" style="fill:#179bd7"/><path d="M27.89,10.74l-.54,3.47a.11.11,0,0,0,.11.12H28a.18.18,0,0,0,.19-.15l.53-3.41a.1.1,0,0,0-.1-.12H28A.12.12,0,0,0,27.89,10.74Z" style="fill:#179bd7"/><path d="M6.14,15l.1-.65H4.93l.75-4.76,0,0,0,0H7.57a1.62,1.62,0,0,1,1.24.38.82.82,0,0,1,.19.37,1.22,1.22,0,0,1,0,.51v.15l.11.06a.64.64,0,0,1,.2.16.67.67,0,0,1,.17.37,1.74,1.74,0,0,1,0,.55,2.05,2.05,0,0,1-.23.62,1.27,1.27,0,0,1-.35.38,1.51,1.51,0,0,1-.48.22,2.25,2.25,0,0,1-.6.07H7.66a.43.43,0,0,0-.27.1.46.46,0,0,0-.15.26v.06l-.18,1.13V15s0,0,0,0H6.14Z" style="fill:#253b80"/><path d="M9.2,10.82h0a.43.43,0,0,1,0,.11,1.91,1.91,0,0,1-2.11,1.66H6.54a.26.26,0,0,0-.26.22h0L6,14.55,5.93,15a.14.14,0,0,0,.13.16H7a.24.24,0,0,0,.23-.2V15l.18-1.13v-.06a.22.22,0,0,1,.22-.19H7.8a1.68,1.68,0,0,0,1.85-1.45A1.25,1.25,0,0,0,9.46,11,1.06,1.06,0,0,0,9.2,10.82Z" style="fill:#179bd7"/><path d="M9,10.72l-.11,0-.12,0a3.48,3.48,0,0,0-.47,0H6.82l-.1,0a.23.23,0,0,0-.13.17l-.3,1.92v.06a.26.26,0,0,1,.26-.22h.53a1.91,1.91,0,0,0,2.11-1.66.43.43,0,0,0,0-.11.93.93,0,0,0-.2-.08Z" style="fill:#222d65"/><path d="M6.59,10.83a.23.23,0,0,1,.13-.17l.1,0H8.25a3.48,3.48,0,0,1,.47,0l.12,0,.11,0,.05,0a.93.93,0,0,1,.2.08,1.18,1.18,0,0,0-.24-1,1.83,1.83,0,0,0-1.39-.45H5.74a.27.27,0,0,0-.25.22l-.76,4.81a.16.16,0,0,0,.15.19H6l.28-1.8Z" style="fill:#253b80"/><path d="M41,9.42l-2.4,5.66H37l-1.18-4.52c-.08-.28-.12-.39-.35-.51A6,6,0,0,0,34,9.58l0-.16H36.6a.66.66,0,0,1,.66.59l.63,3.3,1.54-3.85H41Zm6,3.81c0-1.49-2.08-1.57-2-2.24,0-.2.19-.43.62-.47a2.89,2.89,0,0,1,1.46.24l.27-1.22A4.21,4.21,0,0,0,46,9.3c-1.46,0-2.48.79-2.48,1.89,0,.82.75,1.25,1.3,1.53s.75.47.75.71c0,.39-.48.55-.87.55a3,3,0,0,1-1.49-.36l-.28,1.26a5.34,5.34,0,0,0,1.65.32c1.46,0,2.48-.79,2.48-2m3.85,1.85h1.38L51.06,9.42H49.8a.68.68,0,0,0-.63.43L47,15.12H48.5l.32-.87H50.7Zm-1.65-2L50,11l.43,2.12ZM43,9.42l-1.22,5.66H40.37l1.22-5.66Z" style="fill:#1a1f71"/><path d="M73.71,30.82H53.86a.21.21,0,0,1-.21-.21V22.76a.21.21,0,0,1,.21-.21H73.71a.21.21,0,0,1,.21.21v7.85A.21.21,0,0,1,73.71,30.82ZM53.86,22.67a.09.09,0,0,0-.09.09v7.85a.09.09,0,0,0,.09.09H73.71a.1.1,0,0,0,.1-.09V22.76a.1.1,0,0,0-.1-.09Z" style="fill:#aeb1bc"/><path d="M64,27a1.51,1.51,0,0,1-.73-.17l.07-.46a1.37,1.37,0,0,0,.65.17c.26,0,.37-.09.37-.25,0-.37-1.08-.21-1.08-1,0-.4.26-.72.85-.72a1.94,1.94,0,0,1,.66.12l-.07.45a1.66,1.66,0,0,0-.56-.1c-.29,0-.37.1-.37.22,0,.37,1.08.2,1.08,1C64.82,26.73,64.49,27,64,27Z" style="fill:#005da0"/><path d="M66.85,26.51V27h-1.6V24.62h1.6v.47H65.78v.46h.87V26h-.87v.54Z" style="fill:#005da0"/><path d="M68.16,26.2h-.32V27h-.52V24.62h.84c.65,0,.91.26.91.81S68.81,26.2,68.16,26.2Zm0-1.14h-.32v.72h.32c.26,0,.37-.06.37-.36S68.43,25.06,68.16,25.06Z" style="fill:#005da0"/><path d="M70.68,26.51h-.85L69.7,27h-.55L70,24.62h.62L71.4,27h-.58Zm-.48-1.24-.24.8h.6l-.23-.8L70.27,25h0Z" style="fill:#005da0"/><path d="M63.93,28.49v.22h-.69V27.62h.25v.87Z" style="fill:#005da0"/><path d="M64.59,28.63h0a.28.28,0,0,1-.24.1.25.25,0,0,1-.27-.29c0-.16.11-.27.32-.27l.16,0v-.05c0-.09,0-.13-.16-.13a.7.7,0,0,0-.25.05v-.18a.67.67,0,0,1,.3-.06c.26,0,.35.11.35.36v.54H64.6Zm0-.3-.12,0q-.15,0-.15.12c0,.09,0,.12.13.12s.14-.05.14-.11Z" style="fill:#005da0"/><path d="M65.26,28.73a.57.57,0,0,1-.27-.06l0-.19a.57.57,0,0,0,.25.06c.09,0,.13,0,.13-.09S65,28.4,65,28.09s.11-.27.34-.27a.73.73,0,0,1,.25,0l0,.19a.74.74,0,0,0-.24-.05c-.07,0-.11,0-.11.08s.4.05.4.35S65.5,28.73,65.26,28.73Z" style="fill:#005da0"/><path d="M66,28v.45c0,.07,0,.1.11.1h.07v.16l-.15,0a.23.23,0,0,1-.26-.26V28h-.1v-.17h.11l0-.2H66v.21h.2V28Z" style="fill:#005da0"/><path d="M66.67,28.73a.57.57,0,0,1-.27-.06l0-.19a.57.57,0,0,0,.25.06c.09,0,.13,0,.13-.09s-.41-.05-.41-.36.11-.27.34-.27a.69.69,0,0,1,.25,0l0,.19a.74.74,0,0,0-.24-.05c-.07,0-.11,0-.11.08s.4.05.4.35S66.91,28.73,66.67,28.73Z" style="fill:#005da0"/><path d="M67.77,28.05a.33.33,0,0,0-.15,0c-.16,0-.21.07-.21.25s.07.26.21.26a.41.41,0,0,0,.16,0l0,.18a.52.52,0,0,1-.23.05c-.26,0-.4-.15-.4-.46s.12-.45.4-.45a.73.73,0,0,1,.22,0Z" style="fill:#005da0"/><path d="M68.52,28.71v-.56a.13.13,0,0,0-.14-.14.17.17,0,0,0-.15.07v.63H68V27.58h.23v.32h0a.3.3,0,0,1,.22-.08c.18,0,.29.13.29.34v.56Z" style="fill:#005da0"/><path d="M69,28.71v-.87h.18l0,.14h0a.27.27,0,0,1,.24-.15h.1v.22h-.1a.21.21,0,0,0-.21.23v.44Z" style="fill:#005da0"/><path d="M69.85,27.74c-.09,0-.13,0-.13-.1s0-.1.13-.1.13,0,.13.1S69.94,27.74,69.85,27.74Zm-.12,1v-.87H70v.88Z" style="fill:#005da0"/><path d="M70.29,28.71V28h-.11v-.17h.11v0c0-.13.09-.24.3-.24l.14,0v.15h-.08c-.09,0-.13,0-.13.09v0h.19V28h-.19v.71Z" style="fill:#005da0"/><path d="M71.16,28v.45c0,.07,0,.1.11.1h.07v.16l-.15,0a.23.23,0,0,1-.26-.26V28h-.1v-.17H71l0-.2h.17v.21h.2V28Z" style="fill:#005da0"/><path d="M59.22,25.13l-1-.75-1-.76a.16.16,0,0,0-.22,0l-.89,1.18s0,0,0,.06a.18.18,0,0,0,.06.17l.6.45.81.61.6.45a.17.17,0,0,0,.18,0l0,0,.88-1.18A.16.16,0,0,0,59.22,25.13Zm-2.08-1.42.6.45h0l.41.31.4.3h0l.6.45a0,0,0,0,1,0,.07l-.14.2L58.34,25l-.73-.55-.68-.51.14-.2A0,0,0,0,1,57.14,23.71Zm1.14,2.76,0,0h0l-.6-.45-.81-.61L56.2,25s0,0,0,0,0,0,0,0l.17-.22.34-.44.68.51.73.55.68.51-.34.44Z" style="fill:#aeb1bc"/><path d="M59.4,26.94l1.52-2,.16-.21h0a0,0,0,0,0,0-.05l-.43-.31s0,0,0,0h0l-.05.08-1.88,2.51H56.59l-.77,2.55H61l-.73-2.55ZM56,29.39,56.67,27h1.91l-.16.22-.24.33,0,.05,0,.05,0,.07,0,.07,0,.07L58,28,58,28l0,.07,0,.07,0,.06,0,.06v.1h0a0,0,0,0,1-.05,0s0-.08,0-.11l0-.26a0,0,0,0,0-.06,0,.69.69,0,0,0-.23.22l0-.06a2.86,2.86,0,0,0,.07-.28c0-.05,0-.11-.07-.12s-.11.06-.14.11-.17.32-.29.45a.16.16,0,0,1-.17.06c-.08,0-.11.07,0,.09s.24-.14.3-.24a1.71,1.71,0,0,0,.13-.23l.07-.1a.15.15,0,0,1,0-.06s0,0,0,0l0,.13,0,.14-.08.29c0,.05.05.07.08,0a1.06,1.06,0,0,1,.27-.35v.09a.43.43,0,0,0,0,.16.1.1,0,0,0,.15.1l.07,0h0l0,0,0,0,.05,0,0,0,.06,0,.06-.05.06,0,.06-.05.06,0,.05,0,0-.05.05,0,0,0,0,0h0l.19-.22.49-.65h.85l.67,2.35Z" style="fill:#005da0"/><rect x="60.24" y="25.22" width="1.25" height="0.12" rx="0.03" transform="translate(4.09 58.75) rotate(-53.07)" style="fill:#005da0"/><polygon points="58.37 28.89 59.81 28.89 59.78 28.77 58.37 28.77 56.97 28.77 56.94 28.89 58.37 28.89" style="fill:#005da0"/><g id="Layer_2" data-name="Layer 2"><g id="Layer_1-2" data-name="Layer 1-2"><rect x="28.4" y="19.24" width="18.09" height="14.83" style="fill:none"/><path d="M32.88,32.21v-.74a.45.45,0,0,0-.41-.47h-.06a.46.46,0,0,0-.41.21.46.46,0,0,0-.39-.21.41.41,0,0,0-.35.18V31H31v1.18h.26v-.65a.27.27,0,0,1,.23-.31h.06c.17,0,.25.11.25.31v.66h.26v-.66a.28.28,0,0,1,.24-.31h0c.17,0,.26.11.26.31v.66ZM36.7,31h-.42v-.35H36V31h-.23v.24H36v.54c0,.27.1.43.41.43a.62.62,0,0,0,.32-.09l-.08-.22a.34.34,0,0,1-.22.07c-.13,0-.17-.08-.17-.2v-.53h.42Zm2.19,0a.35.35,0,0,0-.31.18V31h-.25v1.18h.25v-.66c0-.19.09-.3.25-.3a.45.45,0,0,1,.16,0l.08-.25a.58.58,0,0,0-.19,0Zm-3.3.13A1,1,0,0,0,35.1,31c-.29,0-.49.15-.49.38s.15.31.41.35h.12c.14,0,.21.06.21.13s-.09.14-.27.14a.67.67,0,0,1-.39-.12l-.12.2a.88.88,0,0,0,.51.15c.34,0,.53-.16.53-.38s-.15-.32-.41-.36h-.12c-.11,0-.2,0-.2-.12s.08-.14.22-.14a.79.79,0,0,1,.37.1ZM42.45,31a.35.35,0,0,0-.31.18V31h-.26v1.18h.26v-.66c0-.19.08-.3.25-.3a.45.45,0,0,1,.16,0l.08-.25a.58.58,0,0,0-.19,0Zm-3.3.62a.6.6,0,0,0,.57.62h.06a.6.6,0,0,0,.42-.14l-.12-.2a.57.57,0,0,1-.31.1.37.37,0,0,1-.35-.4.38.38,0,0,1,.35-.35.51.51,0,0,1,.31.11l.12-.21a.65.65,0,0,0-1.05.42v.05Zm2.4,0V31h-.26v.15a.45.45,0,0,0-.37-.18.61.61,0,0,0-.61.62.61.61,0,0,0,.61.61.41.41,0,0,0,.37-.17v.15h.26Zm-1,0a.37.37,0,0,1,.38-.34.35.35,0,0,1,.33.38A.36.36,0,0,1,41,32a.37.37,0,0,1-.36-.35ZM37.5,31a.63.63,0,0,0-.61.63.61.61,0,0,0,.63.6h0a.68.68,0,0,0,.49-.16l-.13-.19a.51.51,0,0,1-.34.13.33.33,0,0,1-.35-.29h.87v-.1A.55.55,0,0,0,37.5,31Zm0,.23a.3.3,0,0,1,.3.29h-.62a.31.31,0,0,1,.32-.29Zm6.42.39V30.56h-.25v.62a.43.43,0,0,0-.36-.18.62.62,0,0,0-.62.62.61.61,0,0,0,.62.61.4.4,0,0,0,.36-.17v.15h.25Zm.43.42h0l0,0,0,0a.14.14,0,0,1,0,.09l0,0,0,0h0a.12.12,0,0,1-.11-.07.14.14,0,0,1,0-.09.08.08,0,0,1,0,0l0,0Zm0,.21h0l0,0a.09.09,0,0,0,0-.12s0,0,0,0h-.07l0,0a.09.09,0,0,0,0,.12l0,0Zm0-.15h0a0,0,0,0,1,0,0v0h0l0,0h0l0,0h0v0h0V32.1Zm0,0v0h0ZM43,31.62a.36.36,0,0,1,.38-.33.34.34,0,0,1,.33.37.35.35,0,0,1-.35.34.37.37,0,0,1-.36-.35Zm-8.65,0V31h-.25v.15A.46.46,0,0,0,33.7,31a.62.62,0,0,0-.62.62.61.61,0,0,0,.62.61.42.42,0,0,0,.37-.17v.15h.25Zm-1,0a.35.35,0,0,1,.37-.33.36.36,0,0,1,0,.71.37.37,0,0,1-.37-.35,0,0,0,0,1,0,0Z" style="fill:#231f20"/><g id="_Group_" data-name=" Group "><rect x="35.5" y="22.06" width="3.88" height="6.97" style="fill:#ff5f00"/><path id="_Path_" data-name=" Path " d="M35.75,25.54a4.42,4.42,0,0,1,1.69-3.48,4.43,4.43,0,1,0,0,7A4.42,4.42,0,0,1,35.75,25.54Z" style="fill:#eb001b"/><path d="M44.62,25.54A4.44,4.44,0,0,1,37.44,29a4.44,4.44,0,0,0,.75-6.23,4.77,4.77,0,0,0-.75-.74,4.43,4.43,0,0,1,7.18,3.48Z" style="fill:#f79e1b"/><path d="M44.19,28.29v-.14h.06v0H44.1v0h.07v.14Zm.29,0v-.17h0l0,.12-.05-.12h0v.17h0v-.13l0,.12h0l.05-.12v.13Z" style="fill:#f79e1b"/></g></g></g><text transform="translate(58.49 11.73)" style="font-size:3.75px;font-family:Lato-Black, Lato Black;font-weight:800"><tspan style="letter-spacing:0.025em">K</tspan><tspan x="2.77" y="0">A</tspan><tspan x="5.53" y="0" style="letter-spacing:0.025em">UF </tspan><tspan x="11.35" y="0">A</tspan><tspan x="14.11" y="0" style="letter-spacing:0.025em">UF</tspan><tspan style="letter-spacing:0.025em"><tspan x="-0.02" y="3.75">RECHNUNG</tspan></tspan></text><g id="layer1"><path id="path3078" d="M10.78,21.83H20v5l-.45.71.45.63V31H10.78V26.33l.29-.32-.29-.31Z" style="fill:#016fd0"/><path id="path3082" d="M12.56,28.22V26.78h1.53l.16.22.17-.22H20v1.34a.6.6,0,0,1-.31.1H16.58L16.4,28v.22h-.61v-.38a.53.53,0,0,1-.26.05h-.2v.33h-.92L14.25,28l-.17.21Z" style="fill:#fff"/><path id="path3080" d="M10.78,25.7l.35-.81h.59l.2.45v-.45h.74l.11.33.12-.33h3.32v.17a.69.69,0,0,1,.46-.17h1.07l.2.44v-.45h.62l.17.26v-.26h.62v1.44h-.62l-.17-.25v.25h-.91l-.09-.22h-.24l-.09.22h-.62a.58.58,0,0,1-.4-.16v.16h-.93l-.19-.22v.22H11.63l-.09-.22H11.3l-.09.22h-.43Z" style="fill:#fff"/><path id="path3046" d="M11.25,25.07l-.47,1.08h.31l.08-.22h.5l.08.22h.31l-.46-1.08Zm.17.25.15.38h-.3Z" style="fill:#016fd0"/><path id="path3048" d="M12.1,26.15V25.07h.43l.24.7.25-.7h.42v1.08h-.27v-.79l-.28.79h-.24l-.28-.79v.79Z" style="fill:#016fd0"/><path id="path3050" d="M13.63,26.15V25.07h.88v.24H13.9v.19h.6v.22h-.6v.2h.61v.23Z" style="fill:#016fd0"/><path id="path3052" d="M14.67,25.07v1.08h.27v-.38h.11l.32.38h.33l-.35-.4a.32.32,0,0,0,.29-.33.35.35,0,0,0-.37-.35Zm.27.24h.3a.12.12,0,0,1,.13.12.12.12,0,0,1-.12.11h-.31v-.23Z" style="fill:#016fd0"/><path id="path3054" d="M16,26.15h-.28V25.07H16Z" style="fill:#016fd0"/><path id="path3056" d="M16.68,26.15h-.06a.47.47,0,0,1-.46-.53.5.5,0,0,1,.54-.55H17v.26h-.31a.29.29,0,0,0,0,.58h.08Z" style="fill:#016fd0"/><path id="path3058" d="M17.27,25.07l-.47,1.08h.31l.08-.22h.5l.09.22h.3l-.46-1.08Zm.17.25.15.38h-.3l.15-.38Z" style="fill:#016fd0"/><path id="path3060" d="M18.12,26.15V25.07h.34l.44.68v-.68h.27v1.08h-.34l-.44-.7v.7Z" style="fill:#016fd0"/><path id="path3062" d="M12.75,28V27h.88v.24H13v.19h.59v.22H13v.19h.61V28Z" style="fill:#016fd0"/><path id="path3064" d="M17.06,28V27h.88v.24h-.61v.19h.6v.22h-.6v.19h.61V28Z" style="fill:#016fd0"/><path id="path3066" d="M13.66,28l.43-.53L13.65,27H14l.26.34.27-.34h.32l-.43.54.43.54H14.5l-.25-.33L14,28Z" style="fill:#016fd0"/><path id="path3068" d="M14.87,27V28h.28V27.7h.28a.37.37,0,0,0,.42-.38.35.35,0,0,0-.38-.36Zm.28.24h.3a.13.13,0,0,1,.13.13.12.12,0,0,1-.13.12h-.3V27.2Z" style="fill:#016fd0"/><path id="path3072" d="M16,27V28h.27v-.38h.11l.33.38H17l-.36-.4a.33.33,0,0,0,.3-.33.35.35,0,0,0-.38-.35Zm.27.24h.31a.13.13,0,0,1,.13.11.12.12,0,0,1-.13.12h-.31Z" style="fill:#016fd0"/><path id="path3074" d="M18.07,28V27.8h.54c.08,0,.11,0,.11-.09s0-.09-.11-.09h-.25A.3.3,0,0,1,18,27.3c0-.17.11-.34.43-.34H19l-.11.24h-.46c-.08,0-.11.05-.11.09a.09.09,0,0,0,.1.1h.25c.24,0,.34.13.34.31a.32.32,0,0,1-.35.34Z" style="fill:#016fd0"/><path id="path3076" d="M19.06,28V27.8h.54c.08,0,.11,0,.11-.09s0-.09-.11-.09h-.25A.3.3,0,0,1,19,27.3c0-.17.11-.34.43-.34H20l-.11.24H19.4c-.08,0-.11.05-.11.09a.09.09,0,0,0,.1.1h.25c.24,0,.34.13.34.31a.32.32,0,0,1-.35.34Z" style="fill:#016fd0"/></g></g></svg>