<svg xmlns="http://www.w3.org/2000/svg" viewBox="0 0 85 43"><g id="background"><g id="Ebene_2" data-name="Ebene 2"><rect width="85" height="43" style="fill:#eb6f93"/></g></g><g id="icon"><path id="Sofort." d="M29.61,38.44A2.42,2.42,0,0,0,32.19,36c0-1.34-.95-1.92-2.11-2.26-.74-.21-1.2-.38-1.2-.9a.77.77,0,0,1,.82-.79,1.13,1.13,0,0,1,1,.63l1.22-.77a2.42,2.42,0,0,0-4.54,1c0,1,.58,1.72,2,2.14.79.23,1.28.38,1.28,1a.94.94,0,0,1-1,1,1.87,1.87,0,0,1-1.45-.81l-1,1A3,3,0,0,0,29.61,38.44Zm5.91,0a2.75,2.75,0,1,1,2.8-2.74A2.79,2.79,0,0,1,35.52,38.44Zm0-1.38a1.37,1.37,0,1,0-1.35-1.36A1.33,1.33,0,0,0,35.52,37.06Zm6.42-4.91V30.77h-.21a2.45,2.45,0,0,0-2.66,2.58V38.3h1.46V36.13a1.28,1.28,0,0,1,1.37-1.26v-1.4a1.79,1.79,0,0,0-1.37.52v-.56A1.2,1.2,0,0,1,41.94,32.15Zm3.19,6.29a2.75,2.75,0,1,1,2.81-2.74A2.79,2.79,0,0,1,45.13,38.44Zm0-1.38a1.37,1.37,0,1,0-1.34-1.36A1.33,1.33,0,0,0,45.13,37.06Zm5-3.37v-.6H48.73V38.3h1.46V35.92a1.24,1.24,0,0,1,1.39-1.34V33A1.47,1.47,0,0,0,50.15,33.69Zm3.72,2V34.37a1.79,1.79,0,0,0,1.37.52v-1.4a1.3,1.3,0,0,1-1.37-1.26v-.81H52.41v4.3a2.46,2.46,0,0,0,2.66,2.58h.21V36.92A1.21,1.21,0,0,1,53.87,35.64ZM57,38.38a1,1,0,1,0-1-1A1,1,0,0,0,57,38.38Z" style="fill:#fff;fill-rule:evenodd"/><path id="_Path_" data-name=" Path " d="M40.18,20a1.14,1.14,0,0,1,0,1.63l-.08.1a1.17,1.17,0,0,1-1.64,0L35.9,19.18c-.71-.71-.81-1.59-.36-2.05l.09-.1a1.06,1.06,0,0,1,1.4-.09.47.47,0,0,0,.58-.73,2,2,0,0,0-2.65.18l-.09.09a2.4,2.4,0,0,0,.37,3.36l2.59,2.56a2.09,2.09,0,0,0,3,0l.09-.09a2.09,2.09,0,0,0,0-2.95.46.46,0,0,0-.65,0A.47.47,0,0,0,40.18,20Z" style="fill:#fff"/><path id="_Path_2" data-name=" Path 2" d="M38.64,6.13l1,8.68a.48.48,0,0,0,.52.41.47.47,0,0,0,.41-.52L39.56,6V5.93a1.39,1.39,0,0,1,.86-1.66,1.27,1.27,0,0,1,1,.19,1.28,1.28,0,0,1,.56.82l1.83,7.85a.47.47,0,0,0,.91-.21L42.84,5.08a2.19,2.19,0,0,0-2.62-1.71A2.3,2.3,0,0,0,38.64,6.13Z" style="fill:#fff"/><path id="_Path_3" data-name=" Path 3" d="M48.34,16.33,50.43,5.92A2.2,2.2,0,0,0,48.9,3.35,2.3,2.3,0,0,0,46.1,5L43.78,12.9a.47.47,0,1,0,.9.26L47,5.23a1.38,1.38,0,0,1,1.66-1,1.27,1.27,0,0,1,.87,1.49L47.43,16.15a.46.46,0,1,0,.91.18Z" style="fill:#fff"/><path id="Shape" d="M43.08,26.36A5.88,5.88,0,0,1,37,20.48a.47.47,0,0,0-.93,0,6.81,6.81,0,0,0,7,6.81.47.47,0,1,0,0-.93Z" style="fill:#fff"/><path id="_Path_4" data-name=" Path 4" d="M41.45,18.25a1.24,1.24,0,0,1-.46.64l-.1.06a1.16,1.16,0,0,1-1.61-.31l-2-3c-.56-.84-.49-1.72,0-2.09l.1-.06c.68-.4,1.26-.1,1.86.77L41,16.76a.46.46,0,0,0,.64.13.47.47,0,0,0,.13-.64L40,13.72c-.84-1.22-1.88-1.76-3.12-1l-.13.08a2.4,2.4,0,0,0-.31,3.37l2,3a2.1,2.1,0,0,0,2.9.56l.1-.07a2.07,2.07,0,0,0,.83-1.16.46.46,0,1,0-.89-.24Z" style="fill:#fff"/><path d="M44.52,19.78a3.48,3.48,0,0,0-1.64,3.09.47.47,0,0,0,.44.48.46.46,0,0,0,.49-.44,2.42,2.42,0,0,1,1.48-2.46,3.21,3.21,0,0,1,1.42-.17l.12,0a.46.46,0,0,0,.19-.91l-3.57-.8c-1.67-.45-1.93-1.07-1.62-2.1a1,1,0,0,1,.82-.77,2.37,2.37,0,0,1,.88,0l.17,0L49.11,17l.11,0a.78.78,0,0,1,.27.2A3,3,0,0,1,50,19.57c-.36,4.21-2.32,6.83-7,6.79a.46.46,0,0,0-.46.46.47.47,0,0,0,.46.47c5.23,0,7.51-3,7.9-7.64a3.85,3.85,0,0,0-.71-3,1.6,1.6,0,0,0-.88-.52l-5.36-1.25-.24,0a3.24,3.24,0,0,0-1.24,0,2,2,0,0,0-1.51,1.41c-.44,1.49,0,2.66,2.28,3.27Z" style="fill:#fff"/></g></svg>