<svg xmlns="http://www.w3.org/2000/svg" viewBox="0 0 85 43"><g id="background"><g id="Ebene_2" data-name="Ebene 2"><rect width="85" height="43" style="fill:#fff"/></g></g><g id="icon"><g id="Layer_2" data-name="Layer 2"><g id="Layer_1-2" data-name="Layer 1-2"><rect x="17.5" y="0.99" width="50" height="41.01" style="fill:none"/><path d="M29.88,36.85V34.8a1.21,1.21,0,0,0-1.13-1.29H28.6a1.27,1.27,0,0,0-1.15.58,1.17,1.17,0,0,0-1.07-.58,1.08,1.08,0,0,0-1,.48v-.4h-.7v3.26h.71v-1.8a.76.76,0,0,1,.65-.85h.15c.47,0,.71.31.71.86v1.81h.71V35.05a.76.76,0,0,1,.66-.85h.14c.48,0,.71.31.71.86v1.81Zm10.58-3.26H39.3v-1h-.72v1h-.64v.65h.66v1.5c0,.75.29,1.2,1.13,1.2a1.61,1.61,0,0,0,.88-.25l-.2-.61a1.29,1.29,0,0,1-.63.19c-.34,0-.47-.22-.47-.55V34.24h1.16Zm6-.08a.94.94,0,0,0-.86.48v-.4H45v3.26h.7V35c0-.54.24-.84.69-.84a1.32,1.32,0,0,1,.44.08l.22-.68a2.28,2.28,0,0,0-.51-.09Zm-9.14.34A2.38,2.38,0,0,0,36,33.51c-.82,0-1.36.39-1.36,1s.39.86,1.12,1l.34.05c.39,0,.58.16.58.34s-.26.39-.75.39A1.62,1.62,0,0,1,34.89,36l-.34.56a2.43,2.43,0,0,0,1.41.42c.94,0,1.49-.44,1.49-1.06s-.43-.88-1.14-1l-.34,0c-.31,0-.55-.1-.55-.32s.23-.38.62-.38a2.17,2.17,0,0,1,1,.28Zm19-.34a.94.94,0,0,0-.86.48v-.4h-.7v3.26h.7V35c0-.54.24-.84.69-.84a1.32,1.32,0,0,1,.44.08l.22-.68a2.28,2.28,0,0,0-.51-.09Zm-9.13,1.7a1.64,1.64,0,0,0,1.58,1.71H49a1.68,1.68,0,0,0,1.18-.38L49.79,36a1.49,1.49,0,0,1-.86.3,1,1,0,0,1,0-2.09,1.49,1.49,0,0,1,.86.3l.34-.58A1.74,1.74,0,0,0,49,33.49,1.65,1.65,0,0,0,47.22,35v.16Zm6.63,0V33.59h-.71V34a1.2,1.2,0,0,0-1-.48,1.7,1.7,0,1,0,0,3.4,1.22,1.22,0,0,0,1-.47v.39h.71Zm-2.63,0a.89.89,0,1,1,0,.08A.22.22,0,0,1,51.22,35.21Zm-8.55-1.7a1.7,1.7,0,1,0,0,3.4h0a2,2,0,0,0,1.36-.44L43.73,36a1.64,1.64,0,0,1-.95.34.89.89,0,0,1-1-.8h2.41v-.27a1.54,1.54,0,0,0-1.54-1.7Zm0,.63a.81.81,0,0,1,.82.79h-1.7a.84.84,0,0,1,.86-.79Zm17.75,1.08V32.28h-.68V34a1.23,1.23,0,0,0-1-.48,1.7,1.7,0,0,0,0,3.4,1.25,1.25,0,0,0,1-.47v.39h.68Zm1.18,1.15a.31.31,0,0,1,.13,0,.33.33,0,0,1,.1.06.26.26,0,0,1,.07.11.28.28,0,0,1,0,.25.23.23,0,0,1-.07.1l-.1.07a.31.31,0,0,1-.13,0,.35.35,0,0,1-.31-.2.36.36,0,0,1,0-.25.41.41,0,0,1,.07-.11.39.39,0,0,1,.11-.06.32.32,0,0,1,.14,0Zm0,.58.1,0a.21.21,0,0,0,.08-.06.27.27,0,0,0,0-.34l-.08-.05-.1,0-.1,0-.08.05a.25.25,0,0,0,0,.34.16.16,0,0,0,.08.06l.11,0Zm0-.41a.16.16,0,0,1,.09,0,.09.09,0,0,1,0,.07.07.07,0,0,1,0,.06.09.09,0,0,1-.07,0l.1.12h-.08l-.09-.12h0v.12h-.06v-.3Zm-.08.06v.08h.12v-.06h0ZM57.8,35.22a1,1,0,1,1,1,1,1,1,0,0,1-1-1A.21.21,0,0,1,57.8,35.22Zm-23.92,0V33.59h-.71V34a1.22,1.22,0,0,0-1-.48,1.7,1.7,0,1,0,0,3.4,1.24,1.24,0,0,0,1-.47v.39h.71Zm-2.64,0a1,1,0,1,1,2,.11,1,1,0,0,1-2,0v-.08Z" style="fill:#231f20"/><g id="_Group_" data-name=" Group "><rect x="37.14" y="8.78" width="10.73" height="19.28" style="fill:#ff5f00"/><path id="_Path_" data-name=" Path " d="M37.82,18.42A12.22,12.22,0,0,1,42.5,8.78a12.26,12.26,0,1,0,0,19.28A12.22,12.22,0,0,1,37.82,18.42Z" style="fill:#eb001b"/><path d="M62.34,18.42A12.26,12.26,0,0,1,42.5,28.06a12.26,12.26,0,0,0,2.06-17.22A11.81,11.81,0,0,0,42.5,8.78a12.26,12.26,0,0,1,19.84,9.64Z" style="fill:#f79e1b"/><path d="M61.17,26v-.39h.16v-.08h-.41v.08h.18V26ZM62,26v-.47h-.13l-.14.34-.14-.34h-.11V26h.09v-.35l.13.31h.09l.13-.31V26Z" style="fill:#f79e1b"/></g></g></g></g></svg>