<svg xmlns="http://www.w3.org/2000/svg" xmlns:xlink="http://www.w3.org/1999/xlink" viewBox="0 0 85 43"><defs><radialGradient id="Unbenannter_Verlauf_6" cx="174.47" cy="-363.01" r="0.59" gradientTransform="matrix(19.17, 0, 0, -21.64, -3329.76, -7839.6)" gradientUnits="userSpaceOnUse"><stop offset="0" stop-color="#fc0"/><stop offset="0.09" stop-color="#ffc800"/><stop offset="0.17" stop-color="#ffbd00"/><stop offset="0.25" stop-color="#ffab00"/><stop offset="0.33" stop-color="#ff9100"/><stop offset="0.4" stop-color="#ff7000"/><stop offset="0.48" stop-color="#ff4700"/><stop offset="0.55" stop-color="#ff1800"/><stop offset="0.58" stop-color="red"/><stop offset="1" stop-color="red"/></radialGradient><radialGradient id="Unbenannter_Verlauf_4" cx="171.4" cy="-363.02" r="0.73" gradientTransform="matrix(14.31, 0, 0, -21.67, -2444.1, -7848.25)" gradientUnits="userSpaceOnUse"><stop offset="0" stop-color="#00b4e6"/><stop offset="0.2" stop-color="#00b0e3"/><stop offset="0.39" stop-color="#01a5db"/><stop offset="0.57" stop-color="#0292cd"/><stop offset="0.75" stop-color="#0377ba"/><stop offset="0.93" stop-color="#0455a1"/><stop offset="1" stop-color="#054696"/></radialGradient></defs><g id="background"><g id="Ebene_2" data-name="Ebene 2"><rect width="85" height="43" style="fill:#fff"/></g></g><g id="icon"><path id="Shape" d="M27,26.87a1,1,0,0,1-.48.82l-9.28,5.37a1.08,1.08,0,0,1-1,0L7,27.69a1,1,0,0,1-.48-.82V16.13A1.06,1.06,0,0,1,7,15.31l9.28-5.37a1.08,1.08,0,0,1,1,0l9.28,5.37a1,1,0,0,1,.48.82Zm51.52-10H70.19v2h3v8.5h2.35v-8.5h3Zm-37.74,0H32.44v2h3v8.5h2.35v-8.5h3Zm24.05-.32a3.78,3.78,0,0,0-4.07,4.08v6.73h2.32V20.61a1.7,1.7,0,0,1,1.77-1.86,1.78,1.78,0,0,1,1.76,1.86v6.78h2.33V20.66A3.81,3.81,0,0,0,64.81,16.58ZM56,16.9V27.39h2.33V16.9Zm-7.88,4.16.07.47,2.19,5.86h1l3-10.49H52l-1.42,5.51-.09.6-.11-.6-1.9-5.51h-.75l-1.9,5.51-.11.6-.08-.6L44.26,16.9H42l3,10.49h1l2.19-5.86.07-.47"/><path id="Shape-2" data-name="Shape" d="M21.29,21.53l-2.46,3.6-1.26-1.92L19,21a2.83,2.83,0,0,0,.18-2.9,3,3,0,0,0-5.47,0A2.77,2.77,0,0,0,13.9,21l1.47,2.18,1.09,1.58,1.64,2.52a1,1,0,0,0,.73.41,1,1,0,0,0,.74-.44l3.85-5.7H21.29v0Zm-4.83.09s-.64-1-1.06-1.66a1.22,1.22,0,1,1,2.12,0C17.11,20.64,16.46,21.62,16.46,21.62Z" style="fill:url(#Unbenannter_Verlauf_6)"/><path d="M14.1,25l-2.41-3.39s-.64-1-1.06-1.66a1.21,1.21,0,0,1,1.06-1.82,1.08,1.08,0,0,1,.36.05l.85-1.55A3,3,0,0,0,9,18.14,2.77,2.77,0,0,0,9.13,21l4.21,6.25a1,1,0,0,0,.76.45.93.93,0,0,0,.74-.44l1.27-1.93L15,23.72,14.1,25Z" style="fill:url(#Unbenannter_Verlauf_4)"/></g></svg>