<svg xmlns="http://www.w3.org/2000/svg" viewBox="0 0 85 43"><g id="background"><g id="Ebene_2" data-name="Ebene 2"><rect width="85" height="43" style="fill:#fff"/></g></g><g id="icon"><rect x="12.2" y="2.3" width="60.6" height="38.5" style="fill:#fff"/><rect x="13.2" y="34.5" width="58.6" height="5.3" style="fill:#f7b600"/><rect x="13.2" y="3.3" width="58.6" height="5.3" style="fill:#1a1f71"/><path d="M36.7,14.3,30.6,28.7H26.7l-3-11.5c-.2-.7-.3-1-.9-1.3a16.08,16.08,0,0,0-3.7-1.2l.1-.4h6.4a1.7,1.7,0,0,1,1.7,1.5l1.6,8.4,3.9-9.8h3.9ZM52.1,24c0-3.8-5.3-4-5.2-5.7,0-.5.5-1.1,1.6-1.2a7.42,7.42,0,0,1,3.7.6l.7-3.1a11,11,0,0,0-3.5-.6c-3.7,0-6.3,2-6.3,4.8,0,2.1,1.9,3.2,3.3,3.9s1.9,1.2,1.9,1.8c0,1-1.2,1.4-2.2,1.4a7.76,7.76,0,0,1-3.8-.9l-.7,3.2a13.57,13.57,0,0,0,4.2.8c3.7,0,6.3-2,6.3-5m9.8,4.7h3.5l-3-14.4H59.2a1.71,1.71,0,0,0-1.6,1.1L52,28.8h3.9l.8-2.2h4.8Zm-4.2-5.1,2-5.4,1.1,5.4ZM42,14.3,38.9,28.7H35.2l3.1-14.4Z" style="fill:#1a1f71"/></g></svg>