<svg xmlns="http://www.w3.org/2000/svg" viewBox="0 0 85 43"><g id="background"><rect width="85" height="43" style="fill:#343434"/></g><g id="icon"><path d="M19.82,13.69H16.37a8.83,8.83,0,0,1-3.55,7.11l-1.36,1L16.74,29h4.35l-4.87-6.63A12.2,12.2,0,0,0,19.82,13.69Z" style="fill:#fff"/><rect x="7.5" y="13.69" width="3.52" height="15.33" style="fill:#fff"/><rect x="22.11" y="13.69" width="3.32" height="15.33" style="fill:#fff"/><path d="M54.58,18.12a3.85,3.85,0,0,0-3.28,1.49V18.42H48.15V29h3.2V23.46a2.23,2.23,0,0,1,2.38-2.4c1.39,0,2.19.83,2.19,2.38V29h3.17V22.28A4.2,4.2,0,0,0,54.58,18.12Z" style="fill:#fff"/><path d="M35.48,18.42v.68a5.53,5.53,0,0,0-3.16-1,5.6,5.6,0,0,0,0,11.19,5.52,5.52,0,0,0,3.16-1V29h3.16V18.42Zm-2.89,8a2.72,2.72,0,1,1,2.87-2.72A2.8,2.8,0,0,1,32.59,26.44Z" style="fill:#fff"/><path d="M43.56,19.79V18.42H40.31V29h3.26V24.07c0-1.67,1.81-2.56,3.06-2.56h0V18.42A4,4,0,0,0,43.56,19.79Z" style="fill:#fff"/><path d="M69,18.42v.68a5.5,5.5,0,0,0-3.15-1,5.6,5.6,0,1,0,0,11.19,5.49,5.49,0,0,0,3.15-1V29h3.17V18.42Zm-2.89,8a2.72,2.72,0,1,1,2.88-2.72A2.8,2.8,0,0,1,66.06,26.44Z" style="fill:#fff"/><path d="M74.58,18.73a.25.25,0,0,0-.28-.25H74v.8h.14V19h.15l.12.29h.16L74.44,19A.25.25,0,0,0,74.58,18.73Zm-.28.12h-.15V18.6h.15a.12.12,0,0,1,.14.13C74.44,18.8,74.41,18.85,74.3,18.85Z" style="fill:#fff"/><path d="M74.25,18.14a.76.76,0,1,0,.76.76A.76.76,0,0,0,74.25,18.14Zm0,1.37a.6.6,0,0,1-.6-.61.61.61,0,1,1,1.21,0A.61.61,0,0,1,74.25,19.51Z" style="fill:#fff"/><path d="M75.51,25.26a2,2,0,1,0,2,2A2,2,0,0,0,75.51,25.26Z" style="fill:#fff"/></g></svg>