<svg xmlns="http://www.w3.org/2000/svg" viewBox="0 0 85 43"><g id="background"><g id="Ebene_2" data-name="Ebene 2"><rect width="85" height="43" style="fill:#eb6f93"/></g></g><g id="icon"><path id="Shape" d="M30.54,29.56H28.63a4.89,4.89,0,0,1-2,3.94l-.76.57,2.94,4h2.42l-2.71-3.68A6.73,6.73,0,0,0,30.54,29.56Z" style="fill:#fff"/><rect id="Rectangle-path" x="23.69" y="29.56" width="1.96" height="8.49" style="fill:#fff"/><rect x="31.82" y="29.56" width="1.85" height="8.49" style="fill:#fff"/><path d="M49.89,32a2.12,2.12,0,0,0-1.82.82v-.66H46.31v5.88h1.78V35a1.23,1.23,0,0,1,1.33-1.32A1.15,1.15,0,0,1,50.64,35v3.1H52.4V34.32A2.33,2.33,0,0,0,49.89,32Z" style="fill:#fff"/><path d="M39.26,32.18v.38a3.1,3.1,0,1,0,0,5.12v.38H41V32.18Zm-1.61,4.45a1.51,1.51,0,1,1,1.6-1.51A1.56,1.56,0,0,1,37.65,36.63Z" style="fill:#fff"/><path d="M43.76,32.94v-.76H42v5.88h1.82V35.32c0-.93,1-1.42,1.7-1.42h0V32.18A2.22,2.22,0,0,0,43.76,32.94Z" style="fill:#fff"/><path d="M57.89,32.18v.38a3.1,3.1,0,1,0,0,5.12v.38h1.76V32.18Zm-1.61,4.45a1.51,1.51,0,1,1,1.6-1.51A1.56,1.56,0,0,1,56.28,36.63Z" style="fill:#fff"/><path d="M61.54,36a1.11,1.11,0,1,0,1.11,1.1A1.11,1.11,0,0,0,61.54,36Z" style="fill:#fff"/><path id="_Path_" data-name=" Path " d="M25.51,11.11a74.39,74.39,0,0,1,7.75-.43c1.81,0,3.13.06,4.93.19l.83.07.81.05c.79,0,1.46.08,2.16.08a.47.47,0,0,0,.47-.46.46.46,0,0,0-.47-.45c-.68,0-1.33,0-2.1-.07l-.8-.06L38.26,10c-1.82-.14-3.16-.2-5-.2a75.92,75.92,0,0,0-8.25.48.46.46,0,0,0-.41.45v1.42a.39.39,0,0,0,.06.21,6.23,6.23,0,0,1,.68,2.18,12.39,12.39,0,0,0,1.11,5.29c1.07,2.14,3,3.35,5.91,3.35,5.09,0,6.6-1.13,7.69-4.51,0-.05.14-.42.17-.52s.12-.37.18-.53c-.06.18.76-2.27,1-2.71.26-.63.46-.85.65-.85a.46.46,0,0,0,.47-.45.47.47,0,0,0-.47-.46c-.68,0-1.11.47-1.51,1.42-.2.47-1,3-1,2.75l-.19.55c0,.11-.15.48-.17.53a4.8,4.8,0,0,1-1.61,2.76c-1,.73-2.6,1.11-5.2,1.11s-4.16-1-5.08-2.84a11.8,11.8,0,0,1-1-5A6.75,6.75,0,0,0,25.51,12Z" style="fill:#fff"/><path id="Combined-Shape" d="M32.49,20.68h-.05a4.07,4.07,0,0,1-3-1.15,6.67,6.67,0,0,1-1.58-4.38,12.41,12.41,0,0,1-.06-1.24,1.42,1.42,0,0,1,.33-1.08,1.52,1.52,0,0,1,1-.53c1.12-.12,2.84-.18,4-.19,2.9,0,4.48.14,5.12.56.86.55.75,1.37,0,3.73l-.21.51C37.29,19.34,36.87,20.68,32.49,20.68Zm1.64-7.75-4.39,5.38a.45.45,0,0,0,.07.64.48.48,0,0,0,.65-.07l4.39-5.39a.45.45,0,0,0-.07-.63A.46.46,0,0,0,34.13,12.93Zm-2.91-.19L28.7,15.83a.45.45,0,0,0,.07.64.47.47,0,0,0,.65-.07l2.52-3.09a.46.46,0,0,0-.07-.64A.48.48,0,0,0,31.22,12.74Z" style="fill:#fff"/><path id="_Path_2" data-name=" Path 2" d="M58.47,11.11V12a7,7,0,0,0-.73,2.4,11.83,11.83,0,0,1-1,5c-.92,1.83-2.52,2.84-5.08,2.84s-4.22-.38-5.2-1.12a4.79,4.79,0,0,1-1.61-2.77c0-.05-.14-.41-.17-.52s-.13-.38-.19-.54c.08.22-.76-2.29-1-2.76-.4-.94-.83-1.41-1.52-1.41a.45.45,0,1,0,0,.9c.2,0,.4.22.66.86.19.43,1,2.88,1,2.7.06.16.11.33.18.53l.17.52c1.09,3.38,2.6,4.52,7.69,4.52,2.92,0,4.84-1.21,5.91-3.35a12.43,12.43,0,0,0,1.11-5.32,6.27,6.27,0,0,1,.68-2.15.39.39,0,0,0,.06-.21V10.7a.46.46,0,0,0-.41-.45,75.92,75.92,0,0,0-8.25-.48c-1.85,0-3.19.06-5,.2L44.9,10l-.8.06c-.77.05-1.42.07-2.11.07a.46.46,0,0,0-.46.45.47.47,0,0,0,.46.46c.71,0,1.38,0,2.17-.08l.81-.05.83-.07c1.8-.13,3.12-.19,4.93-.19A74,74,0,0,1,58.47,11.11Z" style="fill:#fff"/><path d="M51.49,20.68c-4.38,0-4.81-1.34-5.57-3.76l-.17-.54c-.77-2.35-.87-3.17,0-3.73.64-.43,2.22-.59,5.11-.56,1.14,0,2.85.07,4,.2a1.46,1.46,0,0,1,1.34,1.62,9,9,0,0,1-.06,1.27,6.67,6.67,0,0,1-1.58,4.35,4,4,0,0,1-3,1.15Zm-2.55-7.94-2.52,3.09a.46.46,0,0,0,.07.64.47.47,0,0,0,.65-.07l2.52-3.09a.45.45,0,0,0-.07-.64A.48.48,0,0,0,48.94,12.74Zm2.91.19-4.39,5.38a.45.45,0,0,0,.08.64.48.48,0,0,0,.65-.07l4.38-5.39a.44.44,0,0,0-.07-.63A.46.46,0,0,0,51.85,12.93Z" style="fill:#fff"/></g></svg>