<svg xmlns="http://www.w3.org/2000/svg" viewBox="0 0 85 43"><g id="background"><g id="Ebene_2" data-name="Ebene 2"><rect width="85" height="43" style="fill:#fff"/></g></g><g id="icon"><g id="Logos"><path id="Fill-1" d="M60,17.74a3.37,3.37,0,0,0-2,.7v4.22a3.36,3.36,0,0,0,2,.73c1.39,0,2.09-.94,2.09-2.82S61.33,17.74,60,17.74Zm-2.13-.2a4.24,4.24,0,0,1,1.22-.75,3.67,3.67,0,0,1,1.34-.26,3.1,3.1,0,0,1,1.31.27,2.66,2.66,0,0,1,1,.79,3.77,3.77,0,0,1,.63,1.25,5.66,5.66,0,0,1,.22,1.66,5.56,5.56,0,0,1-.24,1.69,3.82,3.82,0,0,1-.65,1.29,3.14,3.14,0,0,1-1,.82,3,3,0,0,1-1.35.3,3.37,3.37,0,0,1-2.35-.9v3.54c0,.21-.1.31-.3.31h-.89c-.2,0-.3-.1-.3-.31V17.06a.27.27,0,0,1,.3-.3h.67a.31.31,0,0,1,.34.3l.08.48Z" style="fill:#f90;fill-rule:evenodd"/><path id="Fill-2" d="M67.33,23.49a3.11,3.11,0,0,0,1-.19,4.29,4.29,0,0,0,1-.58V21.18c-.25-.06-.52-.11-.79-.15a7.65,7.65,0,0,0-.81-.05q-1.71,0-1.71,1.32a1.17,1.17,0,0,0,.31.88A1.26,1.26,0,0,0,67.33,23.49Zm-1.77-5.42-.11,0-.13,0c-.13,0-.2-.1-.2-.28v-.41a.5.5,0,0,1,.06-.29.51.51,0,0,1,.25-.16,5.7,5.7,0,0,1,1.19-.34A7.58,7.58,0,0,1,68,16.53a3.19,3.19,0,0,1,2.12.59A2.26,2.26,0,0,1,70.84,19v5.18a.27.27,0,0,1-.3.3h-.65a.31.31,0,0,1-.33-.29l-.08-.5a3.91,3.91,0,0,1-1.2.73,3.64,3.64,0,0,1-1.31.26A2.39,2.39,0,0,1,65.24,24a2.4,2.4,0,0,1,.16-3.4A3.17,3.17,0,0,1,67.51,20a8.28,8.28,0,0,1,1.91.26v-1a1.51,1.51,0,0,0-.36-1.15,1.9,1.9,0,0,0-1.27-.33,7.85,7.85,0,0,0-2.23.34Z" style="fill:#f90;fill-rule:evenodd"/><path id="Fill-3" d="M75.76,25.78a3.77,3.77,0,0,1-1,1.5,2.07,2.07,0,0,1-1.39.45,3.23,3.23,0,0,1-.87-.11.46.46,0,0,1-.24-.14.53.53,0,0,1-.07-.31v-.39c0-.2.07-.29.22-.29l.23,0a2.22,2.22,0,0,0,.41,0,1.33,1.33,0,0,0,.89-.27,2.57,2.57,0,0,0,.58-1l.28-.77L71.93,17.3a1.09,1.09,0,0,1-.1-.36q0-.18.21-.18H73a.54.54,0,0,1,.33.07.78.78,0,0,1,.18.34L75.58,23l2-5.87a.78.78,0,0,1,.18-.34.57.57,0,0,1,.34-.07H79c.15,0,.22.06.22.18a1.19,1.19,0,0,1-.11.36l-3.33,8.48" style="fill:#f90;fill-rule:evenodd"/><path id="Fill-4" d="M34.72,27.46a17.73,17.73,0,0,1-10,3.07,18.17,18.17,0,0,1-12.24-4.67c-.25-.23,0-.54.28-.37A24.62,24.62,0,0,0,25,28.74a24.35,24.35,0,0,0,9.34-1.91c.46-.19.84.3.39.63" style="fill:#f90;fill-rule:evenodd"/><path id="Fill-5" d="M35.85,26.18c-.34-.45-2.29-.21-3.16-.11-.27,0-.31-.2-.07-.37,1.55-1.09,4.09-.77,4.39-.41s-.08,2.92-1.53,4.14c-.23.18-.44.08-.34-.16.33-.82,1.06-2.65.71-3.09" style="fill:#f90;fill-rule:evenodd"/><path id="Fill-6" d="M32.76,17.94V16.88a.27.27,0,0,1,.27-.27h4.75a.26.26,0,0,1,.27.27v.9a1.41,1.41,0,0,1-.36.67L35.23,22a5.34,5.34,0,0,1,2.71.58.47.47,0,0,1,.25.41v1.13c0,.16-.17.34-.35.25a5.44,5.44,0,0,0-5,0c-.16.08-.34-.09-.34-.25V23a1.3,1.3,0,0,1,.18-.73l2.85-4.09H33a.27.27,0,0,1-.28-.26" style="fill:#333e48;fill-rule:evenodd"/><path id="Fill-7" d="M15.46,24.55H14a.27.27,0,0,1-.26-.25V16.9a.28.28,0,0,1,.28-.27h1.35a.27.27,0,0,1,.26.25v1h0a2,2,0,0,1,3.77,0,2.14,2.14,0,0,1,3.67-.56,4,4,0,0,1,.36,2.33v4.67a.28.28,0,0,1-.28.27H21.75a.27.27,0,0,1-.26-.27V20.35a9,9,0,0,0,0-1.38.75.75,0,0,0-.85-.64.94.94,0,0,0-.86.61,4.37,4.37,0,0,0-.14,1.41v3.93a.27.27,0,0,1-.28.27H17.88a.28.28,0,0,1-.26-.27V20.35c0-.82.14-2-.89-2s-1,1.19-1,2v3.93a.27.27,0,0,1-.27.27" style="fill:#333e48;fill-rule:evenodd"/><path id="Fill-8" d="M42.15,18C41.08,18,41,19.43,41,20.34s0,2.84,1.11,2.84,1.18-1.56,1.18-2.51a6.81,6.81,0,0,0-.22-2A.9.9,0,0,0,42.15,18Zm0-1.52c2.15,0,3.31,1.84,3.31,4.18s-1.28,4.05-3.31,4.05-3.24-1.84-3.24-4.13,1.16-4.1,3.24-4.1Z" style="fill:#333e48;fill-rule:evenodd"/><path id="Fill-9" d="M48.21,24.55H46.78a.27.27,0,0,1-.26-.27V16.87a.29.29,0,0,1,.28-.24h1.34a.28.28,0,0,1,.26.21V18h0a2,2,0,0,1,2-1.5,1.91,1.91,0,0,1,1.69.88,4.78,4.78,0,0,1,.37,2.3v4.67a.26.26,0,0,1-.27.23H50.72a.29.29,0,0,1-.26-.23v-4c0-.81.1-2-.9-2a1,1,0,0,0-.84.59,3.3,3.3,0,0,0-.22,1.4v4a.29.29,0,0,1-.29.27" style="fill:#333e48;fill-rule:evenodd"/><path id="Fill-10" d="M30.44,24.6a.32.32,0,0,1-.35,0,3.65,3.65,0,0,1-.82-1,2.86,2.86,0,0,1-2.38,1,2,2,0,0,1-2.16-2.25,2.45,2.45,0,0,1,1.54-2.36,10.3,10.3,0,0,1,2.71-.5v-.18a1.87,1.87,0,0,0-.17-1.05A1,1,0,0,0,28,18a1.12,1.12,0,0,0-1.17.87.31.31,0,0,1-.25.27L25.18,19a.25.25,0,0,1-.21-.3c.32-1.69,1.85-2.21,3.23-2.21a3.27,3.27,0,0,1,2.17.72A3.07,3.07,0,0,1,31,19.68v2.24a2,2,0,0,0,.54,1.34.29.29,0,0,1,0,.39c-.3.24-.82.7-1.11,1ZM29,21.08a2.87,2.87,0,0,1-.27,1.53,1.16,1.16,0,0,1-1,.66c-.55,0-.88-.42-.88-1.05,0-1.23,1.11-1.45,2.15-1.45v.31Z" style="fill:#333e48;fill-rule:evenodd"/><path id="Fill-11" d="M11.51,24.6a.3.3,0,0,1-.34,0,3.71,3.71,0,0,1-.83-1,2.85,2.85,0,0,1-2.38,1A2.05,2.05,0,0,1,5.8,22.47a2.46,2.46,0,0,1,1.54-2.36,10.45,10.45,0,0,1,2.72-.5v-.18a1.88,1.88,0,0,0-.18-1.05A1,1,0,0,0,9.07,18a1.11,1.11,0,0,0-1.16.87.31.31,0,0,1-.25.27L6.26,19a.24.24,0,0,1-.21-.3C6.37,17,7.9,16.47,9.27,16.47a3.3,3.3,0,0,1,2.18.72c.7.66.63,1.53.63,2.49v2.24a1.94,1.94,0,0,0,.55,1.34.28.28,0,0,1,0,.39c-.29.24-.82.7-1.1,1Zm-1.45-3.52a2.87,2.87,0,0,1-.27,1.53,1.18,1.18,0,0,1-1,.66c-.56,0-.88-.42-.88-1.05,0-1.23,1.1-1.45,2.15-1.45v.31Z" style="fill:#333e48;fill-rule:evenodd"/></g></g></svg>