<svg xmlns="http://www.w3.org/2000/svg" viewBox="0 0 85 43"><g id="background"><g id="Ebene_2" data-name="Ebene 2"><rect width="85" height="43" style="fill:#eb6f93"/></g></g><g id="icon"><path id="Pay-now." d="M24.24,30.77c1.75,0,2.68.93,2.68,2.31S26.24,35,25,35.42l-.47.16c-1.07.37-1.51.6-1.51,1.79v.93H21.45V30.77Zm.13,3.36c.73-.22,1-.57,1-1.07s-.39-.87-1.17-.87H23v2.52a3.09,3.09,0,0,1,1.05-.49Zm7-1h1.42V38.3H31.37v-.51a2,2,0,0,1-1.54.61,2.71,2.71,0,0,1,0-5.41,2,2,0,0,1,1.54.61ZM30,37a1.35,1.35,0,1,0-1.39-1.34A1.35,1.35,0,0,0,30,37Zm7.28-3.95-1.12,3-1.18-3H33.32l2,4.93a1.36,1.36,0,0,1-1.35.77l-.33,0v1.38a2.05,2.05,0,0,0,.47,0C36,40.19,36.52,39,37.32,37l1.52-3.86ZM44.81,33a2,2,0,0,0-1.61.67v-.56H41.79V38.3h1.46V35.57a1.18,1.18,0,1,1,2.36,0V38.3h1.46v-3A2.17,2.17,0,0,0,44.81,33Zm5.78,5.46a2.75,2.75,0,1,1,2.8-2.74A2.79,2.79,0,0,1,50.59,38.44Zm0-1.38a1.37,1.37,0,1,0-1.35-1.36A1.33,1.33,0,0,0,50.59,37.06Zm10.26-4H62.4L60.79,38.3H59.13a18.13,18.13,0,0,1-1.19-2.69,18,18,0,0,1-1.18,2.69H55.13l-1.6-5.21h1.55l1.06,3.67a12.87,12.87,0,0,0,1.15-3.67h1.34a12.37,12.37,0,0,0,1.16,3.65Zm2.45,5.29a1,1,0,1,1,1-1A1,1,0,0,1,63.3,38.38Z" style="fill:#fff;fill-rule:evenodd"/><path id="_Path_" data-name=" Path " d="M40.18,20a1.14,1.14,0,0,1,0,1.63l-.08.1a1.17,1.17,0,0,1-1.64,0L35.9,19.18c-.71-.71-.81-1.59-.36-2.05l.09-.1a1.06,1.06,0,0,1,1.4-.09.47.47,0,0,0,.58-.73,2,2,0,0,0-2.65.18l-.09.09a2.4,2.4,0,0,0,.37,3.36l2.59,2.56a2.09,2.09,0,0,0,3,0l.09-.09a2.09,2.09,0,0,0,0-2.95.46.46,0,0,0-.65,0A.47.47,0,0,0,40.18,20Z" style="fill:#fff"/><path id="_Path_2" data-name=" Path 2" d="M38.64,6.13l1,8.68a.48.48,0,0,0,.52.41.47.47,0,0,0,.41-.52L39.56,6V5.93a1.39,1.39,0,0,1,.86-1.66,1.27,1.27,0,0,1,1,.19,1.28,1.28,0,0,1,.56.82l1.83,7.85a.47.47,0,0,0,.91-.21L42.84,5.08a2.19,2.19,0,0,0-2.62-1.71A2.3,2.3,0,0,0,38.64,6.13Z" style="fill:#fff"/><path id="_Path_3" data-name=" Path 3" d="M48.34,16.33,50.43,5.92A2.2,2.2,0,0,0,48.9,3.35,2.3,2.3,0,0,0,46.1,5L43.78,12.9a.47.47,0,1,0,.9.26L47,5.23a1.38,1.38,0,0,1,1.66-1,1.27,1.27,0,0,1,.87,1.49L47.43,16.15a.46.46,0,1,0,.91.18Z" style="fill:#fff"/><path id="Shape" d="M43.08,26.36A5.88,5.88,0,0,1,37,20.48a.47.47,0,0,0-.93,0,6.81,6.81,0,0,0,7,6.81.47.47,0,1,0,0-.93Z" style="fill:#fff"/><path id="_Path_4" data-name=" Path 4" d="M41.45,18.25a1.24,1.24,0,0,1-.46.64l-.1.06a1.16,1.16,0,0,1-1.61-.31l-2-3c-.56-.84-.49-1.72,0-2.09l.1-.06c.68-.4,1.26-.1,1.86.77L41,16.76a.46.46,0,0,0,.64.13.47.47,0,0,0,.13-.64L40,13.72c-.84-1.22-1.88-1.76-3.12-1l-.13.08a2.4,2.4,0,0,0-.31,3.37l2,3a2.1,2.1,0,0,0,2.9.56l.1-.07a2.07,2.07,0,0,0,.83-1.16.46.46,0,1,0-.89-.24Z" style="fill:#fff"/><path d="M44.52,19.78a3.48,3.48,0,0,0-1.64,3.09.47.47,0,0,0,.44.48.46.46,0,0,0,.49-.44,2.42,2.42,0,0,1,1.48-2.46,3.21,3.21,0,0,1,1.42-.17l.12,0a.46.46,0,0,0,.19-.91l-3.57-.8c-1.67-.45-1.93-1.07-1.62-2.1a1,1,0,0,1,.82-.77,2.37,2.37,0,0,1,.88,0l.17,0L49.11,17l.11,0a.78.78,0,0,1,.27.2A3,3,0,0,1,50,19.57c-.36,4.21-2.32,6.83-7,6.79a.46.46,0,0,0-.46.46.47.47,0,0,0,.46.47c5.23,0,7.51-3,7.9-7.64a3.85,3.85,0,0,0-.71-3,1.6,1.6,0,0,0-.88-.52l-5.36-1.25-.24,0a3.24,3.24,0,0,0-1.24,0,2,2,0,0,0-1.51,1.41c-.44,1.49,0,2.66,2.28,3.27Z" style="fill:#fff"/></g></svg>