<svg xmlns="http://www.w3.org/2000/svg" viewBox="0 0 85 43"><g id="background"><g id="Ebene_2" data-name="Ebene 2"><rect width="85" height="43" style="fill:#fff"/></g></g><g id="icon"><path d="M33.67,16.78H29.8a.54.54,0,0,0-.53.45L27.7,27.16a.33.33,0,0,0,.32.38h1.85a.54.54,0,0,0,.53-.46l.43-2.68a.53.53,0,0,1,.53-.45h1.22c2.55,0,4-1.24,4.41-3.68a3,3,0,0,0-.49-2.5A3.59,3.59,0,0,0,33.67,16.78Zm.45,3.62c-.21,1.39-1.27,1.39-2.3,1.39h-.58l.41-2.59a.31.31,0,0,1,.31-.27h.27c.7,0,1.36,0,1.7.39A1.27,1.27,0,0,1,34.12,20.4Z" style="fill:#253b80"/><path d="M45.25,20.36H43.4a.31.31,0,0,0-.32.27l-.08.52L42.87,21a2.65,2.65,0,0,0-2.19-.78,4.27,4.27,0,0,0-4.14,3.74,3.46,3.46,0,0,0,.69,2.84,2.88,2.88,0,0,0,2.33.95,3.57,3.57,0,0,0,2.57-1.06l-.08.51a.33.33,0,0,0,.32.38H44a.55.55,0,0,0,.53-.46l1-6.35A.32.32,0,0,0,45.25,20.36ZM42.67,24a2.07,2.07,0,0,1-2.1,1.77A1.43,1.43,0,0,1,39,23.94a2.08,2.08,0,0,1,2.08-1.79,1.56,1.56,0,0,1,1.23.51A1.58,1.58,0,0,1,42.67,24Z" style="fill:#253b80"/><path d="M55.13,20.36H53.27a.54.54,0,0,0-.45.24l-2.57,3.78-1.09-3.64a.55.55,0,0,0-.51-.38H46.81a.32.32,0,0,0-.3.43l2.05,6-1.93,2.73a.32.32,0,0,0,.26.51h1.87a.55.55,0,0,0,.44-.23l6.2-8.95A.33.33,0,0,0,55.13,20.36Z" style="fill:#253b80"/><path d="M61.3,16.78H57.43a.54.54,0,0,0-.53.45l-1.57,9.93a.33.33,0,0,0,.32.38h2a.38.38,0,0,0,.37-.32l.44-2.82A.55.55,0,0,1,59,24h1.22c2.55,0,4-1.24,4.41-3.68a3,3,0,0,0-.49-2.5A3.59,3.59,0,0,0,61.3,16.78Zm.45,3.62c-.21,1.39-1.27,1.39-2.3,1.39h-.58l.41-2.59a.31.31,0,0,1,.32-.27h.26c.7,0,1.36,0,1.7.39A1.27,1.27,0,0,1,61.75,20.4Z" style="fill:#179bd7"/><path d="M72.88,20.36H71a.31.31,0,0,0-.32.27l-.08.52L70.5,21a2.65,2.65,0,0,0-2.19-.78,4.27,4.27,0,0,0-4.14,3.74,3.46,3.46,0,0,0,.69,2.84,2.88,2.88,0,0,0,2.33.95,3.54,3.54,0,0,0,2.57-1.06l-.08.51a.33.33,0,0,0,.32.38h1.67a.55.55,0,0,0,.53-.46l1-6.35A.32.32,0,0,0,72.88,20.36ZM70.3,24a2.07,2.07,0,0,1-2.1,1.77,1.43,1.43,0,0,1-1.53-1.8,2.08,2.08,0,0,1,2.08-1.79,1.56,1.56,0,0,1,1.23.51A1.58,1.58,0,0,1,70.3,24Z" style="fill:#179bd7"/><path d="M75.07,17.05,73.48,27.16a.33.33,0,0,0,.32.38h1.6a.55.55,0,0,0,.53-.46l1.57-9.93a.32.32,0,0,0-.32-.37H75.39A.31.31,0,0,0,75.07,17.05Z" style="fill:#179bd7"/><path d="M11.62,29.47l.29-1.89H8.1l2.19-13.88a.17.17,0,0,1,.06-.11.18.18,0,0,1,.12-.05h5.31c1.77,0,3,.37,3.62,1.09A2.47,2.47,0,0,1,20,15.71a4,4,0,0,1,0,1.5v.42l.3.17a2.5,2.5,0,0,1,.61.46,2.18,2.18,0,0,1,.49,1.1A4.88,4.88,0,0,1,21.3,21a5.68,5.68,0,0,1-.66,1.81,3.61,3.61,0,0,1-1,1.13,4.32,4.32,0,0,1-1.39.63,7.17,7.17,0,0,1-1.74.2h-.42a1.27,1.27,0,0,0-1.23,1.05l0,.17-.52,3.31,0,.13a.16.16,0,0,1,0,.07l-.05,0Z" style="fill:#253b80"/><path d="M20.55,17.3h0c0,.1,0,.2-.05.31-.7,3.59-3.1,4.84-6.16,4.84H12.78a.76.76,0,0,0-.75.64h0l-.79,5.06L11,29.58a.4.4,0,0,0,.39.47h2.77a.67.67,0,0,0,.66-.56l0-.15.52-3.3,0-.18a.66.66,0,0,1,.65-.56h.42c2.68,0,4.77-1.09,5.39-4.24a3.61,3.61,0,0,0-.56-3.18A2.47,2.47,0,0,0,20.55,17.3Z" style="fill:#179bd7"/><path d="M19.82,17l-.33-.08-.35-.07a8.4,8.4,0,0,0-1.37-.1H13.6a.73.73,0,0,0-.29.07.64.64,0,0,0-.36.49l-.89,5.62,0,.16a.76.76,0,0,1,.75-.64h1.56c3.06,0,5.46-1.25,6.16-4.84,0-.11,0-.21.05-.31a3,3,0,0,0-.57-.25Z" style="fill:#222d65"/><path d="M13,17.31a.64.64,0,0,1,.36-.49.73.73,0,0,1,.29-.07h4.17a9.69,9.69,0,0,1,1.37.1l.35.07.33.08.16.05a3.38,3.38,0,0,1,.58.25,3.43,3.43,0,0,0-.73-3.06c-.79-.9-2.22-1.29-4-1.29H10.47a.77.77,0,0,0-.75.65l-2.21,14a.45.45,0,0,0,.45.53h3.28l.82-5.22Z" style="fill:#253b80"/></g></svg>