<svg xmlns="http://www.w3.org/2000/svg" viewBox="0 0 85 43"><g id="background"><g id="Ebene_2" data-name="Ebene 2"><rect width="85" height="43" style="fill:#fff"/></g></g><g id="icon"><path d="M6,27.15l1.8-5.89H9.57l.4,2.28L10,24c0,.15,0,.32.06.48,0-.12.07-.24.12-.38l.21-.51,1.06-2.31h1.73l.14,5.89H11.9V23.87l0-.46a5.74,5.74,0,0,1-.3.74l-.06.13-1.35,2.87h-1l-.55-2.86c0-.15-.06-.29-.08-.44l-.06-.44c0,.18-.06.34-.1.5s-.07.3-.1.43l-.82,2.81Z" style="fill:#3a4747"/><polygon points="14.05 27.15 14.98 21.26 16.59 21.26 15.65 27.15 14.05 27.15" style="fill:#3a4747"/><path d="M22.24,21.54,22,23.16a2.5,2.5,0,0,0-.73-.44,2.34,2.34,0,0,0-.83-.15,1.59,1.59,0,0,0-1.21.51,1.85,1.85,0,0,0-.47,1.3,1.47,1.47,0,0,0,.4,1.11,1.53,1.53,0,0,0,1.12.39,2.46,2.46,0,0,0,.65-.08,4.63,4.63,0,0,0,.7-.22l-.25,1.52a3.91,3.91,0,0,1-.67.15,6.26,6.26,0,0,1-.78.05,2.7,2.7,0,0,1-2-.78,2.83,2.83,0,0,1-.76-2.07,3.58,3.58,0,0,1,.2-1.19,3.35,3.35,0,0,1,.57-1A2.92,2.92,0,0,1,19,21.4a3.77,3.77,0,0,1,1.49-.28,3.82,3.82,0,0,1,.9.1,4.07,4.07,0,0,1,.86.32Z" style="fill:#3a4747"/><path d="M23.87,27.15H22.3l.93-5.89H24.8a9,9,0,0,1,1.06,0,2,2,0,0,1,.6.17,1.55,1.55,0,0,1,.67.59,1.67,1.67,0,0,1,.23.91,1.75,1.75,0,0,1-.44,1.23,1.93,1.93,0,0,1-1.2.61l1.44,2.33h-1.8L24.22,24.9l-.35,2.25Zm.5-3.2h.49a1.09,1.09,0,0,0,.72-.21.76.76,0,0,0,.25-.62.66.66,0,0,0-.23-.55,1.34,1.34,0,0,0-.75-.17h-.23L24.37,24Z" style="fill:#3a4747"/><path d="M31.27,22.57a1.57,1.57,0,0,0-1.21.52,1.77,1.77,0,0,0-.49,1.28A1.5,1.5,0,0,0,30,25.46a1.36,1.36,0,0,0,1,.4,1.56,1.56,0,0,0,1.2-.53A1.87,1.87,0,0,0,32.69,24a1.41,1.41,0,0,0-.4-1,1.35,1.35,0,0,0-1-.41Zm-.36,4.74a3.43,3.43,0,0,1-1.15-.18,2.47,2.47,0,0,1-.92-.52,2.54,2.54,0,0,1-.66-.91,2.82,2.82,0,0,1-.24-1.15,3.88,3.88,0,0,1,.2-1.24,3.31,3.31,0,0,1,.61-1,3.14,3.14,0,0,1,1.15-.85,3.74,3.74,0,0,1,1.47-.29,3,3,0,0,1,2.15.76,2.61,2.61,0,0,1,.81,2,3.53,3.53,0,0,1-.2,1.23,3.2,3.2,0,0,1-.61,1,3.11,3.11,0,0,1-1.15.86,3.5,3.5,0,0,1-1.46.3Z" style="fill:#3a4747"/><path d="M42.16,23.84h.14a2.24,2.24,0,0,0,1-.16.59.59,0,0,0,.27-.55.53.53,0,0,0-.23-.47,1.4,1.4,0,0,0-.73-.15h-.28l-.21,1.33Zm-2.1,3.31.94-5.9h1.62a6.28,6.28,0,0,1,1,.06,2,2,0,0,1,.59.18,1.52,1.52,0,0,1,.67.63,1.88,1.88,0,0,1,.23.95,2.26,2.26,0,0,1-.24,1,1.82,1.82,0,0,1-.65.72,1.74,1.74,0,0,1-.58.21,6.31,6.31,0,0,1-1,.06H42l-.33,2.06Z" style="fill:#a4292f"/><path d="M44.22,27.15l3-5.9h2l1.25,5.9h-1.6L48.56,26H46.5l-.57,1.12Zm2.87-2.43h1.24l-.27-1.37c0-.14,0-.26-.06-.37s0-.21,0-.3c-.06.16-.11.3-.16.42a1.3,1.3,0,0,1-.11.27l-.62,1.35Z" style="fill:#a4292f"/><path d="M51.62,27.15,52,24.52l-1.66-3.27h1.75l.65,1.51c0,.08.07.16.1.26a2.83,2.83,0,0,1,.11.31c.07-.16.13-.3.18-.39s.08-.16.1-.2l1-1.49h1.81l-2.51,3.28-.41,2.62Z" style="fill:#a4292f"/><path d="M55.17,27.15l1.8-5.9h1.75l.4,2.29c0,.13,0,.28.06.44s0,.31.06.48a3.3,3.3,0,0,1,.12-.38q.07-.21.21-.51l1.06-2.32h1.73l.15,5.89H61.05v-2.8c0-.16,0-.32,0-.47s0-.31,0-.47a5.79,5.79,0,0,1-.3.75l-.06.13-1.35,2.86h-1l-.55-2.86c0-.14-.06-.29-.08-.43l-.06-.44c0,.17-.06.34-.1.49s-.06.3-.1.44l-.82,2.81Z" style="fill:#a4292f"/><polygon points="64.95 25.84 66.78 25.84 66.57 27.14 63.18 27.14 64.11 21.25 67.5 21.25 67.29 22.61 65.47 22.61 65.32 23.58 67.01 23.58 66.81 24.85 65.11 24.85 64.95 25.84" style="fill:#a4292f"/><path d="M67.65,27.15l.93-5.9h1.8l1.25,2.91a.79.79,0,0,0,.05.13,4.49,4.49,0,0,1,.28.83V25c0-.11,0-.23,0-.36s0-.29.06-.47l.45-2.9h1.58l-.93,5.89H71.4l-1.31-3c-.1-.22-.17-.4-.22-.54a3.52,3.52,0,0,1-.13-.43v.17c0,.1,0,.22,0,.34a3.43,3.43,0,0,1,0,.47l-.44,3H67.65Z" style="fill:#a4292f"/><polygon points="75.2 27.14 75.92 22.62 74.6 22.62 74.82 21.25 78.98 21.25 78.75 22.62 77.5 22.62 76.78 27.14 75.2 27.14" style="fill:#a4292f"/><path d="M34.77,16.56v.33h.12a.31.31,0,0,0,.16,0,.14.14,0,0,0,.06-.12.14.14,0,0,0-.06-.13.3.3,0,0,0-.18,0Zm-.34-.22h.49a.72.72,0,0,1,.4.09.31.31,0,0,1,.14.27.38.38,0,0,1-.07.21.35.35,0,0,1-.19.12l.27.55H35.1l-.24-.49h-.09v.49h-.34V16.34Zm.47-.27a1,1,0,0,0-.35.06,1.12,1.12,0,0,0-.29.19,1.06,1.06,0,0,0-.21.31A.86.86,0,0,0,34,17a.8.8,0,0,0,.07.34,1,1,0,0,0,.19.3.83.83,0,0,0,.3.2.94.94,0,0,0,.36.08,1,1,0,0,0,.35-.07,1,1,0,0,0,.3-.2.86.86,0,0,0,.21-.29,1.15,1.15,0,0,0,.07-.36,1,1,0,0,0-.07-.35,1.17,1.17,0,0,0-.19-.3.87.87,0,0,0-.31-.2.86.86,0,0,0-.36-.07Zm0-.21a1.33,1.33,0,0,1,.45.08,1.31,1.31,0,0,1,.37.26,1.11,1.11,0,0,1,.23.36A1.18,1.18,0,0,1,36,17a1.12,1.12,0,0,1-.09.44,1.19,1.19,0,0,1-.24.36,1.47,1.47,0,0,1-.37.24,1.06,1.06,0,0,1-.43.08,1.26,1.26,0,0,1-.43-.08,1.18,1.18,0,0,1-.37-.26,1.41,1.41,0,0,1-.24-.36,1,1,0,0,1-.08-.42,1.08,1.08,0,0,1,.09-.44,1,1,0,0,1,.25-.37,1,1,0,0,1,.36-.24,1,1,0,0,1,.42-.08Z" style="fill:#3a4747"/><path d="M36.05,27.31S38.63,24.36,36,22s-3.43-2.67-4.9-4-1.44-2.25,0-4,.85-2.7-.17-2.8a34.38,34.38,0,0,0-7.63.71c-2.79.61-7.81,1.33-8.36,1.46s8-2.35,8.8-2.53,3.46-.81,4.49-1A15.51,15.51,0,0,1,32,9.77c1.09.17,4.15,1.4,1.23,3.56s-2.22,3.72-.47,5.12,4.87,3.3,5.13,5.39-1.84,3.47-1.84,3.47Z" style="fill:#3a4747"/></g></svg>