<svg xmlns="http://www.w3.org/2000/svg" viewBox="0 0 85 43"><g id="background"><g id="Ebene_2" data-name="Ebene 2"><rect width="85" height="43" style="fill:#fff"/></g></g><g id="icon"><path d="M19.15,20.84q0-.37-.36-.39H17.55a.44.44,0,0,0-.45.48v2.23a.45.45,0,0,0,.5.48h1.14A.38.38,0,0,0,19,23.5a.31.31,0,0,0,.12-.26Zm-3.64-.32a2,2,0,0,1,.37-1.27,1.63,1.63,0,0,1,.48-.3,1.41,1.41,0,0,1,.58-.14h2.27q1.5,0,1.53,1.65v3.35a1.39,1.39,0,0,1-.45,1,1.45,1.45,0,0,1-1,.46H17.1v2.42H15.51Z" style="fill:#008bcb"/><path d="M23.61,23.31a.23.23,0,0,0,.13.22.39.39,0,0,0,.28.11h1.23q.41,0,.42-.33v-.45c0-.25-.14-.38-.44-.38H24a.57.57,0,0,0-.33.08.56.56,0,0,0-.08.35Zm2.06-2.51c0-.24-.13-.36-.42-.35H22V18.82h3.61a1.4,1.4,0,0,1,1.6,1.52v3.42a1.59,1.59,0,0,1-.4,1.07,1.35,1.35,0,0,1-1,.44H23.63c-1.06,0-1.59-.49-1.61-1.46V22.5A1.38,1.38,0,0,1,23.56,21h2.11Z" style="fill:#008bcb"/><path d="M31.71,26.05a.54.54,0,0,0,.33-.13.37.37,0,0,0,.12-.26v-.39h-2a1.82,1.82,0,0,1-.64-.1,1.52,1.52,0,0,1-.84-.88,1.73,1.73,0,0,1-.11-.65V18.81h1.59v4.31c0,.34.14.52.43.52h1.12A.48.48,0,0,0,32,23.5a.31.31,0,0,0,.14-.27V18.81h1.58v7.12a2,2,0,0,1-.4,1.26,1.39,1.39,0,0,1-1.09.5H28.54V26.05Z" style="fill:#008bcb"/><path d="M35,23.64h2.83c.26,0,.4-.12.4-.32v-.14a.35.35,0,0,0,0-.14c-.07-.13-.15-.19-.24-.19h-1.4a1.56,1.56,0,0,1-1.07-.43,1.2,1.2,0,0,1-.47-.94V20.27c0-.95.53-1.44,1.55-1.46h3.28v1.64H37.06c-.32,0-.49.1-.49.3v.16c0,.2.17.31.5.31h1.4a1.32,1.32,0,0,1,1,.43,1.39,1.39,0,0,1,.41,1v1.19a1.52,1.52,0,0,1-.46,1,1.22,1.22,0,0,1-.44.34,1.75,1.75,0,0,1-.63.09H35Z" style="fill:#008bcb"/><path d="M42.56,23.31a.25.25,0,0,0,.13.22.42.42,0,0,0,.29.11H44.2c.28,0,.42-.11.43-.33v-.45c0-.25-.15-.38-.44-.38H43a.53.53,0,0,0-.33.08.49.49,0,0,0-.09.35Zm2.07-2.51c0-.24-.14-.36-.43-.35H41V18.82h3.61a1.4,1.4,0,0,1,1.59,1.52v3.42a1.58,1.58,0,0,1-.39,1.07,1.37,1.37,0,0,1-1,.44H42.59c-1.06,0-1.6-.49-1.61-1.46V22.5A1.38,1.38,0,0,1,42.51,21h2.12Z" style="fill:#008bcb"/><path d="M47.5,17.89A1.34,1.34,0,0,1,48,16.83a1.83,1.83,0,0,1,1.21-.42h1V18H49.6c-.33,0-.51.17-.51.48v.35h1.12v1.63H49.09v4.82H47.5Z" style="fill:#008bcb"/><path d="M54.73,20.77v0a.26.26,0,0,0-.1-.21.45.45,0,0,0-.27-.07H53.25a.47.47,0,0,0-.34.12.34.34,0,0,0-.17.3v.65Zm-2,2.31v.1a.45.45,0,0,0,.11.31.23.23,0,0,0,.2.15h3.27v1.63H52.87a2.35,2.35,0,0,1-.74-.09,1.35,1.35,0,0,1-.51-.31,1.32,1.32,0,0,1-.36-.53,2.56,2.56,0,0,1-.09-.75l0-3.27a1.39,1.39,0,0,1,1.55-1.51h2.14a1.39,1.39,0,0,1,1.51,1.57v1.29Z" style="fill:#008bcb"/><path d="M59.72,25.27a3.23,3.23,0,0,1-.66-.06,1.4,1.4,0,0,1-.63-.3,1.56,1.56,0,0,1-.46-.64,2.36,2.36,0,0,1-.13-.78v-3a2.21,2.21,0,0,1,.08-.66,1.28,1.28,0,0,1,.33-.55,1.54,1.54,0,0,1,.6-.38,2.82,2.82,0,0,1,.68-.08H62v.38H59.59a1.69,1.69,0,0,0-1,.26,1.16,1.16,0,0,0-.37,1v3a2.18,2.18,0,0,0,.09.63,1.12,1.12,0,0,0,.85.77,2.62,2.62,0,0,0,.57.06H62v.38Z" style="fill:#008bcb"/><path d="M68.24,21.31H65a1.23,1.23,0,0,0-.9.36,1.32,1.32,0,0,0-.33.95v1a2.12,2.12,0,0,0,.06.52.78.78,0,0,0,.3.43,1.39,1.39,0,0,0,.91.35H67a1.12,1.12,0,0,0,1.22-1.28Zm.37,2.2a3.18,3.18,0,0,1,0,.65,1.35,1.35,0,0,1-.31.59,1.58,1.58,0,0,1-1.24.52h-1.9a1.7,1.7,0,0,1-1.21-.44,1.59,1.59,0,0,1-.47-1.21v-1a1.52,1.52,0,0,1,1.65-1.71h3.17V20.5a1.53,1.53,0,0,0-.31-.93,1,1,0,0,0-.46-.35,2.58,2.58,0,0,0-.59-.07H63.44v-.38h3.27a4,4,0,0,1,.81.07.83.83,0,0,1,.35.14,1.1,1.1,0,0,1,.31.3,1.94,1.94,0,0,1,.43,1.3Z" style="fill:#008bcb"/><path d="M72.19,19.15c-.89,0-1.33.5-1.31,1.46v4.66H70.5V20.61c0-1.23.56-1.84,1.75-1.84h.42v.38Z" style="fill:#008bcb"/><path d="M78.62,19.16h-3a2.17,2.17,0,0,0-.59.07,1,1,0,0,0-.52.33,1.14,1.14,0,0,0-.3.49,1.82,1.82,0,0,0-.08.6v3a1.1,1.1,0,0,0,.44,1,1.78,1.78,0,0,0,.47.19,2.22,2.22,0,0,0,.59.07h1.32a2,2,0,0,0,1.2-.34,1.3,1.3,0,0,0,.48-1.11Zm.38,4.3a1.67,1.67,0,0,1-2,1.81H75.64a3.84,3.84,0,0,1-.8-.07,1.55,1.55,0,0,1-.7-.45,1.35,1.35,0,0,1-.32-.63,2.27,2.27,0,0,1-.08-.71V20.64a1.68,1.68,0,0,1,1.89-1.87h3v-2.1H79Z" style="fill:#008bcb"/><path d="M6.68,18.57a1.9,1.9,0,0,1,.38-.13,2.41,2.41,0,0,1,4.72,0,1.72,1.72,0,0,1,.89.42,2.94,2.94,0,0,0,0-.6,3.24,3.24,0,0,0-6.46.15c0,.15,0,.31,0,.47a2.2,2.2,0,0,1,.51-.32" style="fill:#e30613"/><path d="M11.31,18.82H7.43a1.39,1.39,0,0,0-.58.13,1.63,1.63,0,0,0-.48.3A2,2,0,0,0,6,20.52v3a2,2,0,0,0,.37,1.27,1.89,1.89,0,0,0,.48.31,1.56,1.56,0,0,0,.58.13h3.88q1.5,0,1.53-1.65V20.46c0-1.09-.53-1.64-1.53-1.64" style="fill:#e30613"/></g></svg>