<svg xmlns="http://www.w3.org/2000/svg" viewBox="0 0 85 43"><g id="background"><g id="Ebene_2" data-name="Ebene 2"><rect width="85" height="43"/></g></g><g id="icon"><path d="M40.86,22v7H38.61V11.74h5.85a5.56,5.56,0,0,1,3.82,1.5,4.77,4.77,0,0,1,1.58,3.67,4.87,4.87,0,0,1-1.58,3.67,5.42,5.42,0,0,1-3.82,1.5L40.86,22Zm0-8.17v6h3.75a3,3,0,0,0,2.25-5l-.08-.07a2.72,2.72,0,0,0-2.17-.9Z" style="fill:#fff"/><path d="M55,16.83a5.49,5.49,0,0,1,3.9,1.35,4.65,4.65,0,0,1,1.42,3.6V29h-2.1V27.33h-.07a4.26,4.26,0,0,1-3.67,2,5,5,0,0,1-3.3-1.13,4,4,0,0,1-1.35-2.92,3.64,3.64,0,0,1,1.35-2.93,5.62,5.62,0,0,1,3.67-1.05,5.89,5.89,0,0,1,3.22.75v-.52a2.42,2.42,0,0,0-.9-1.95A3.23,3.23,0,0,0,55,18.78a3.27,3.27,0,0,0-2.92,1.58l-2-1.2A5.7,5.7,0,0,1,55,16.83Zm-2.85,8.55a1.72,1.72,0,0,0,.75,1.43,3.07,3.07,0,0,0,1.73.6,3.53,3.53,0,0,0,2.47-1.05A3.17,3.17,0,0,0,58.25,24a4.64,4.64,0,0,0-2.92-.83,3.65,3.65,0,0,0-2.25.68A1.76,1.76,0,0,0,52.18,25.38Z" style="fill:#fff"/><path d="M72.5,17.21l-7.42,17H62.83l2.77-5.92-4.87-11h2.4l3.52,8.48h.08l3.45-8.48H72.5Z" style="fill:#fff"/><path d="M31.94,20.51a19.8,19.8,0,0,0-.15-2H22.42v3.83h5.32a4.58,4.58,0,0,1-1.95,3v2.47H29A9.61,9.61,0,0,0,31.94,20.51Z" style="fill:#4285f4"/><path d="M22.42,30.18A9.6,9.6,0,0,0,29,27.78l-3.22-2.47a6,6,0,0,1-3.37,1,5.87,5.87,0,0,1-5.55-4.12h-3.3v2.55A9.91,9.91,0,0,0,22.42,30.18Z" style="fill:#34a853"/><path d="M16.87,22.16a5.6,5.6,0,0,1,0-3.83V15.79h-3.3a9.81,9.81,0,0,0,0,8.92Z" style="fill:#fbbc04"/><path d="M22.42,14.29a5.56,5.56,0,0,1,3.82,1.5h0l2.85-2.85a9.46,9.46,0,0,0-6.6-2.55,9.83,9.83,0,0,0-8.85,5.47l3.3,2.55A5.72,5.72,0,0,1,22.42,14.29Z" style="fill:#ea4335"/></g></svg>