<svg xmlns="http://www.w3.org/2000/svg" viewBox="0 0 85 43"><g id="twt-background"><g id="Ebene_2" data-name="Ebene 2"><rect width="85" height="43" style="fill:#fff"/></g></g><g id="twt-primary"><path d="M17.43,15.55h1.14l2.35,6.62-.18.2V15.55H22v9.22H20.87l-2.33-6.33.19-.21v6.54h-1.3Z"/><path d="M23.66,24.4a2.09,2.09,0,0,1-.4-1.4,2.24,2.24,0,0,1,.54-1.63,2.07,2.07,0,0,1,1.57-.56H26L26.13,22h-.72a.74.74,0,0,0-.62.26,1.19,1.19,0,0,0-.21.76.69.69,0,0,0,.16.51.63.63,0,0,0,.47.17.76.76,0,0,0,.59-.22.85.85,0,0,0,.2-.63l.12.57a2,2,0,0,1-.15.81,1.08,1.08,0,0,1-.44.5,1.37,1.37,0,0,1-.7.16A1.47,1.47,0,0,1,23.66,24.4ZM26,20a.73.73,0,0,0-.17-.51.69.69,0,0,0-.51-.18.54.54,0,0,0-.43.18.84.84,0,0,0-.16.51H23.39a1.79,1.79,0,0,1,2-1.93,2.32,2.32,0,0,1,1.07.23,1.55,1.55,0,0,1,.68.66,2.13,2.13,0,0,1,.24,1v4.78H26Z"/><path d="M29.52,24.65a1.53,1.53,0,0,1-.69-.64,2.09,2.09,0,0,1-.24-1V20.06A2.27,2.27,0,0,1,28.83,19a1.67,1.67,0,0,1,.69-.68,2.49,2.49,0,0,1,1.11-.23,2.38,2.38,0,0,1,1.1.24,1.59,1.59,0,0,1,.7.68,2.27,2.27,0,0,1,.24,1.08v.39H31.3v-.33a.92.92,0,0,0-.17-.59.61.61,0,0,0-.49-.21.6.6,0,0,0-.48.21.81.81,0,0,0-.18.57v2.8a.65.65,0,0,0,.18.5.62.62,0,0,0,.48.18.63.63,0,0,0,.49-.19.77.77,0,0,0,.17-.53v-.3h1.38V23a2.1,2.1,0,0,1-.24,1,1.66,1.66,0,0,1-.71.65,2.45,2.45,0,0,1-1.1.23A2.5,2.5,0,0,1,29.52,24.65Z"/><path d="M33.69,15.55h1.39v9.23H33.69Zm2.7,4.63a1,1,0,0,0-.16-.61.68.68,0,0,0-1,0,1,1,0,0,0-.17.62L35,19.32a2.06,2.06,0,0,1,.58-.93,1.36,1.36,0,0,1,.88-.32,1.21,1.21,0,0,1,1,.45,2,2,0,0,1,.36,1.28v5h-1.4Z"/><path d="M39.17,18.19h1.41v6.59H39.17Zm2.71,2a1,1,0,0,0-.16-.62.59.59,0,0,0-.5-.21.58.58,0,0,0-.49.21,1.08,1.08,0,0,0-.15.63l-.14-.86a2,2,0,0,1,.59-.93,1.36,1.36,0,0,1,.87-.32,1.2,1.2,0,0,1,1,.45,2,2,0,0,1,.36,1.28v5H41.88Z"/><path d="M45,24.4a2.14,2.14,0,0,1-.4-1.4,2.24,2.24,0,0,1,.54-1.63,2.09,2.09,0,0,1,1.57-.56h.67L47.43,22h-.71a.74.74,0,0,0-.63.26,1.19,1.19,0,0,0-.21.76.74.74,0,0,0,.16.51.64.64,0,0,0,.47.17.74.74,0,0,0,.59-.22.86.86,0,0,0,.21-.63l.12.57a2.12,2.12,0,0,1-.16.81,1.06,1.06,0,0,1-.43.5,1.41,1.41,0,0,1-.71.16A1.47,1.47,0,0,1,45,24.4ZM47.31,20a.69.69,0,0,0-.18-.51.68.68,0,0,0-.5-.18.52.52,0,0,0-.43.18A.73.73,0,0,0,46,20H44.7a1.9,1.9,0,0,1,.51-1.42,2,2,0,0,1,1.44-.51,2.39,2.39,0,0,1,1.08.23,1.53,1.53,0,0,1,.67.66,2.13,2.13,0,0,1,.24,1v4.78H47.31Z"/><path d="M50,15.55h1.4v9.23H50Zm2.71,4.63a1,1,0,0,0-.16-.61.58.58,0,0,0-.49-.21.59.59,0,0,0-.5.21,1,1,0,0,0-.16.62l-.13-.87a2.16,2.16,0,0,1,.59-.93,1.36,1.36,0,0,1,.87-.32,1.23,1.23,0,0,1,1,.45,2,2,0,0,1,.36,1.28v5h-1.4Z"/><path d="M55.51,18.19h1.4v6.59h-1.4Zm2.72,2a1,1,0,0,0-.16-.62.7.7,0,0,0-1,0,1,1,0,0,0-.17.62l-.13-.88a2.08,2.08,0,0,1,.6-.92,1.44,1.44,0,0,1,.89-.31,1.39,1.39,0,0,1,.73.19,1.18,1.18,0,0,1,.47.56,2.44,2.44,0,0,1,.15.91v5.05H58.23Zm2.71,0a1,1,0,0,0-.17-.62.61.61,0,0,0-.5-.2.56.56,0,0,0-.48.21,1,1,0,0,0-.17.62l-.14-.88a2,2,0,0,1,.6-.92,1.45,1.45,0,0,1,1.63-.11,1.33,1.33,0,0,1,.47.59,2.4,2.4,0,0,1,.16.94v5h-1.4Z"/><path d="M64.54,24.62a1.6,1.6,0,0,1-.7-.71,2.41,2.41,0,0,1-.25-1.15V20.3a2.81,2.81,0,0,1,.24-1.21,1.76,1.76,0,0,1,.69-.76,2.09,2.09,0,0,1,1.07-.26,2.31,2.31,0,0,1,1.09.25,1.71,1.71,0,0,1,.69.72,2.54,2.54,0,0,1,.24,1.15V22h-3V20.92h1.62v-.75a1,1,0,0,0-.18-.63.59.59,0,0,0-.5-.22.58.58,0,0,0-.49.24,1.14,1.14,0,0,0-.17.67v2.58a.84.84,0,0,0,.19.59.67.67,0,0,0,.52.2.69.69,0,0,0,.49-.16A.61.61,0,0,0,66.3,23v-.14h1.33V23a1.84,1.84,0,0,1-.52,1.41,2.06,2.06,0,0,1-1.47.49A2.21,2.21,0,0,1,64.54,24.62Z"/></g></svg>