<svg xmlns="http://www.w3.org/2000/svg" viewBox="0 0 85 43"><g id="twt-background"><g id="Ebene_2" data-name="Ebene 2"><rect width="85" height="43" style="fill:#fff"/></g></g><g id="twt-primary"><path d="M19.67,24.59a1.8,1.8,0,0,1-.74-.8,2.8,2.8,0,0,1-.26-1.27V17.81a2.74,2.74,0,0,1,.26-1.27,1.88,1.88,0,0,1,.74-.81,2.63,2.63,0,0,1,2.36,0,1.79,1.79,0,0,1,.75.81A2.91,2.91,0,0,1,23,17.81v.57H21.62v-.57a1.58,1.58,0,0,0-.08-.52.71.71,0,0,0-.27-.34.74.74,0,0,0-.42-.12.69.69,0,0,0-.41.12.73.73,0,0,0-.27.33,1.39,1.39,0,0,0-.1.53v4.71a1.34,1.34,0,0,0,.1.52.64.64,0,0,0,.27.33.69.69,0,0,0,.41.12.7.7,0,0,0,.42-.12.73.73,0,0,0,.27-.33,1.64,1.64,0,0,0,.08-.53v-.57H23v.57a3,3,0,0,1-.26,1.28,1.88,1.88,0,0,1-.74.81,2.42,2.42,0,0,1-1.18.27A2.32,2.32,0,0,1,19.67,24.59Z"/><path d="M24.23,18.19h1.39v6.59H24.23Zm2.95,1.32H27a1.37,1.37,0,0,0-1,.35,1.3,1.3,0,0,0-.37.95l-.13-1.47a2.4,2.4,0,0,1,.78-.93,1.76,1.76,0,0,1,1.05-.34V19.5Z"/><path d="M29,24.62a1.65,1.65,0,0,1-.7-.71,2.54,2.54,0,0,1-.25-1.15V20.3a2.81,2.81,0,0,1,.24-1.21,1.76,1.76,0,0,1,.69-.76,2.15,2.15,0,0,1,1.07-.26,2.28,2.28,0,0,1,1.09.25,1.68,1.68,0,0,1,.7.72,2.68,2.68,0,0,1,.23,1.15V22h-3V20.92h1.62v-.75a1,1,0,0,0-.17-.63.61.61,0,0,0-.51-.22.55.55,0,0,0-.48.24,1.07,1.07,0,0,0-.18.67v2.58a.89.89,0,0,0,.19.59.8.8,0,0,0,1,0A.61.61,0,0,0,30.8,23v-.14h1.33V23a1.84,1.84,0,0,1-.52,1.41,2,2,0,0,1-1.47.49A2.24,2.24,0,0,1,29,24.62Z"/><path d="M33.88,24.67a1.41,1.41,0,0,1-.47-.65,2.8,2.8,0,0,1-.16-1V20a2.83,2.83,0,0,1,.17-1,1.37,1.37,0,0,1,.47-.66,1.21,1.21,0,0,1,.74-.23,1.26,1.26,0,0,1,.81.31,2.16,2.16,0,0,1,.59.87l-.13.89a1.1,1.1,0,0,0-.08-.43.48.48,0,0,0-.21-.27.62.62,0,0,0-.34-.09.57.57,0,0,0-.47.21.85.85,0,0,0-.17.58v2.73a.75.75,0,0,0,.17.54.59.59,0,0,0,.47.2.62.62,0,0,0,.34-.09.49.49,0,0,0,.21-.26,1.08,1.08,0,0,0,.08-.42l.09.9a1.75,1.75,0,0,1-.53.85,1.34,1.34,0,0,1-1.58.08Zm2-9.12h1.39v9.23H35.9Z"/><path d="M38.62,15.59H40V17H38.62Zm0,2.6H40v6.59H38.62Z"/><path d="M40.81,18.19h2.92v1.29H40.81Zm1,6.18a1.87,1.87,0,0,1-.4-1.31V16.27h1.39v6.67a.56.56,0,0,0,.11.38.39.39,0,0,0,.32.14h.47v1.35h-.66A1.58,1.58,0,0,1,41.84,24.37Z"/><path d="M48.43,24.59a1.76,1.76,0,0,1-.75-.8,2.94,2.94,0,0,1-.26-1.27V17.81a2.87,2.87,0,0,1,.26-1.27,1.84,1.84,0,0,1,.75-.81,2.61,2.61,0,0,1,2.35,0,1.74,1.74,0,0,1,.75.81,2.9,2.9,0,0,1,.26,1.27v.57H50.38v-.57a1.35,1.35,0,0,0-.09-.52A.71.71,0,0,0,50,17a.7.7,0,0,0-.42-.12.69.69,0,0,0-.41.12.89.89,0,0,0-.27.33,1.4,1.4,0,0,0-.09.53v4.71a1.35,1.35,0,0,0,.09.52.75.75,0,0,0,.27.33.69.69,0,0,0,.41.12.75.75,0,0,0,.43-.12.78.78,0,0,0,.26-.33,1.4,1.4,0,0,0,.09-.53v-.57h1.41v.57a3.14,3.14,0,0,1-.26,1.28,1.84,1.84,0,0,1-.75.81,2.42,2.42,0,0,1-1.18.27A2.28,2.28,0,0,1,48.43,24.59Z"/><path d="M53.29,24.4a2.09,2.09,0,0,1-.41-1.4,2.24,2.24,0,0,1,.54-1.63A2.09,2.09,0,0,1,55,20.81h.68L55.75,22H55a.71.71,0,0,0-.62.26,1.19,1.19,0,0,0-.21.76.74.74,0,0,0,.15.51.64.64,0,0,0,.47.17.74.74,0,0,0,.59-.22.86.86,0,0,0,.21-.63l.12.57a2.12,2.12,0,0,1-.16.81,1.06,1.06,0,0,1-.43.5,1.41,1.41,0,0,1-.71.16A1.44,1.44,0,0,1,53.29,24.4ZM55.63,20a.69.69,0,0,0-.18-.51.68.68,0,0,0-.5-.18.52.52,0,0,0-.43.18.78.78,0,0,0-.16.51H53a1.9,1.9,0,0,1,.52-1.42A1.94,1.94,0,0,1,55,18.07a2.39,2.39,0,0,1,1.08.23,1.6,1.6,0,0,1,.68.66A2.25,2.25,0,0,1,57,20v4.78H55.63Z"/><path d="M58.35,18.19h1.39v6.59H58.35Zm2.95,1.32h-.18a1.37,1.37,0,0,0-1,.35,1.3,1.3,0,0,0-.37.95l-.13-1.47a2.4,2.4,0,0,1,.78-.93,1.76,1.76,0,0,1,1-.34V19.5Z"/><path d="M62.85,24.67a1.28,1.28,0,0,1-.47-.65,2.79,2.79,0,0,1-.17-1V20a2.83,2.83,0,0,1,.17-1,1.44,1.44,0,0,1,.47-.66,1.23,1.23,0,0,1,.74-.23,1.24,1.24,0,0,1,.81.31,2.07,2.07,0,0,1,.59.87l-.13.89a1.11,1.11,0,0,0-.07-.43.58.58,0,0,0-.21-.27.65.65,0,0,0-.35-.09.57.57,0,0,0-.47.21.91.91,0,0,0-.17.58v2.73a.79.79,0,0,0,.17.54.59.59,0,0,0,.47.2.65.65,0,0,0,.35-.09.61.61,0,0,0,.21-.26,1.09,1.09,0,0,0,.07-.42l.09.9a1.73,1.73,0,0,1-.52.85,1.27,1.27,0,0,1-.84.3A1.22,1.22,0,0,1,62.85,24.67Zm2-9.12h1.4v9.23h-1.4Z"/></g></svg>