<svg xmlns="http://www.w3.org/2000/svg" viewBox="0 0 85 43"><g id="background"><g id="Ebene_2" data-name="Ebene 2"><rect width="85" height="43" style="fill:#6772e5"/></g></g><g id="icon"><g id="Stripe"><path d="M75.2,22c0-4.6-2.3-8.3-6.6-8.3s-6.9,3.7-6.9,8.3c0,5.5,3.1,8.2,7.5,8.2a9.68,9.68,0,0,0,5-1.2V25.4a9.53,9.53,0,0,1-4.4,1c-1.8,0-3.3-.6-3.5-2.8h8.9A8.53,8.53,0,0,1,75.2,22Zm-9-1.8c0-2.1,1.3-2.9,2.4-2.9s2.3.9,2.3,2.9Z" style="fill:#fff"/><path d="M54.7,13.6A5.25,5.25,0,0,0,51.1,15l-.2-1.1h-4V35.1l4.5-1V29a5,5,0,0,0,3.2,1.1c3.2,0,6.2-2.6,6.2-8.4C60.8,16.5,57.9,13.6,54.7,13.6ZM53.6,26.1a2.46,2.46,0,0,1-2.1-.9V18.5a2.83,2.83,0,0,1,2.2-.9c1.7,0,2.8,1.9,2.8,4.2C56.4,24.3,55.3,26.1,53.6,26.1Z" style="fill:#fff"/><polygon points="40.6 12.6 45.2 11.6 45.2 7.9 40.6 8.9 40.6 12.6" style="fill:#fff"/><rect x="40.6" y="14" width="4.6" height="15.9" style="fill:#fff"/><path d="M35.8,15.3,35.5,14H31.6V29.9h4.5V19.1a3.11,3.11,0,0,1,3.4-.9V14A2.83,2.83,0,0,0,35.8,15.3Z" style="fill:#fff"/><path d="M26.7,10l-4.4,1V25.5A4.57,4.57,0,0,0,27,30.2a7.48,7.48,0,0,0,3.2-.6V25.9c-.6.2-3.4,1.1-3.4-1.6V17.9h3.4V14H26.8Z" style="fill:#fff"/><path d="M14.4,18.6c0-.7.6-1,1.5-1a9.49,9.49,0,0,1,4.5,1.2V14.5a11.89,11.89,0,0,0-4.5-.8c-3.7,0-6.1,1.9-6.1,5.1,0,5,6.9,4.2,6.9,6.4,0,.8-.7,1.1-1.7,1.1a11,11,0,0,1-5-1.5v4.3a13.11,13.11,0,0,0,5,1c3.8,0,6.4-1.9,6.4-5.1C21.3,19.6,14.4,20.6,14.4,18.6Z" style="fill:#fff"/></g></g></svg>