<svg xmlns="http://www.w3.org/2000/svg" viewBox="0 0 85 43"><g id="background"><g id="Ebene_2" data-name="Ebene 2"><rect width="85" height="43" style="fill:#1578be"/></g></g><g id="icon"><path id="path3046" d="M11,10.21,7.5,18.42H9.8l.65-1.64h3.79l.65,1.64h2.35l-3.53-8.21Zm1.31,1.91L13.49,15H11.18Z" style="fill:#fff"/><path id="path3048" d="M17.48,18.42V10.21h3.27l1.9,5.3,1.85-5.31h3.24v8.21h-2V12.37l-2.18,6.05h-1.8l-2.18-6.05v6.05Z" style="fill:#fff"/><path id="path3050" d="M29.15,18.42V10.21h6.69v1.84H31.22v1.4h4.52v1.73H31.22v1.46h4.62v1.78Z" style="fill:#fff"/><path id="path3052" d="M37,10.21v8.21h2V15.51H40l2.46,2.91h2.51l-2.7-3a2.51,2.51,0,0,0,2.25-2.52,2.66,2.66,0,0,0-2.87-2.67Zm2,1.84h2.35a.94.94,0,0,1,1,.86.93.93,0,0,1-.94.87H39.08V12.05Z" style="fill:#fff"/><path id="path3054" d="M47.4,18.42H45.31V10.21H47.4Z" style="fill:#fff"/><path id="path3056" d="M52.37,18.42h-.45c-2.19,0-3.52-1.72-3.52-4.07s1.32-4.14,4.08-4.14h2.27v1.94H52.4a2,2,0,0,0-1.92,2.22,2,2,0,0,0,2.22,2.26h.54Z" style="fill:#fff"/><path id="path3058" d="M56.84,10.21l-3.53,8.21h2.3l.65-1.64h3.79l.64,1.64H63l-3.52-8.21Zm1.3,1.91L59.3,15H57l1.15-2.88Z" style="fill:#fff"/><path id="path3060" d="M63.28,18.42V10.21h2.61l3.33,5.16V10.21h2.06v8.21H68.75l-3.41-5.29v5.29Z" style="fill:#fff"/><path id="path3062" d="M22.45,32.79V24.58h6.7v1.83H24.52v1.41H29v1.73H24.52V31h4.63v1.78Z" style="fill:#fff"/><path id="path3064" d="M55.27,32.79V24.58H62v1.83H57.34v1.41h4.5v1.73h-4.5V31H62v1.78Z" style="fill:#fff"/><path id="path3066" d="M29.41,32.79l3.26-4.06-3.34-4.15h2.58l2,2.57,2-2.57h2.48l-3.29,4.1,3.26,4.11H35.77l-1.93-2.53L32,32.79Z" style="fill:#fff"/><path id="path3068" d="M38.6,24.58v8.21h2.1V30.2h2.17c1.82,0,3.21-1,3.21-2.86a2.7,2.7,0,0,0-2.95-2.76Zm2.1,1.86H43a.92.92,0,0,1,1,.94,1,1,0,0,1-1,.95H40.7V26.44Z" style="fill:#fff"/><path id="path3072" d="M47,24.58v8.21H49V29.87h.87l2.46,2.92h2.51l-2.7-3a2.5,2.5,0,0,0,2.25-2.52,2.65,2.65,0,0,0-2.87-2.66ZM49,26.41h2.35a.94.94,0,0,1,1,.87.93.93,0,0,1-.94.86H49Z" style="fill:#fff"/><path id="path3074" d="M62.92,32.79V31H67c.61,0,.87-.33.87-.69s-.26-.7-.87-.7H65.17a2.3,2.3,0,0,1-2.52-2.46c0-1.31.83-2.58,3.23-2.58h4L69,26.43H65.55c-.66,0-.86.34-.86.67a.72.72,0,0,0,.75.72h2A2.25,2.25,0,0,1,70,30.18a2.46,2.46,0,0,1-2.68,2.61Z" style="fill:#fff"/><path id="path3076" d="M70.45,32.79V31h4.11c.6,0,.87-.33.87-.69s-.27-.7-.87-.7H72.7a2.29,2.29,0,0,1-2.51-2.46c0-1.31.82-2.58,3.22-2.58h4l-.87,1.85H73.08c-.66,0-.86.34-.86.67a.72.72,0,0,0,.76.72h1.94a2.25,2.25,0,0,1,2.58,2.36,2.46,2.46,0,0,1-2.68,2.61Z" style="fill:#fff"/></g></svg>