<svg xmlns="http://www.w3.org/2000/svg" viewBox="0 0 85 43"><g id="twt-background"><g id="Ebene_2" data-name="Ebene 2"><rect width="85" height="43" style="fill:#fff"/></g></g><g id="twt-primary"><path d="M14.75,15.55h1.4v9.23h-1.4Zm.67,0h3.37v1.32H15.42Zm0,4.06h3.06v1.33H15.42Z"/><path d="M19.8,15.59h1.38V17H19.8Zm0,2.6h1.38v6.59H19.8Z"/><path d="M22.5,18.19h1.41v6.59H22.5Zm2.71,2a1,1,0,0,0-.16-.62.59.59,0,0,0-.5-.21.58.58,0,0,0-.49.21,1.08,1.08,0,0,0-.15.63l-.14-.86a2,2,0,0,1,.59-.93,1.36,1.36,0,0,1,.87-.32,1.23,1.23,0,0,1,1,.45,2.05,2.05,0,0,1,.35,1.28v5H25.21Z"/><path d="M28.29,24.4a2.14,2.14,0,0,1-.4-1.4,2.23,2.23,0,0,1,.54-1.63A2.09,2.09,0,0,1,30,20.81h.67L30.76,22h-.71a.74.74,0,0,0-.63.26,1.19,1.19,0,0,0-.21.76.74.74,0,0,0,.16.51.63.63,0,0,0,.47.17.74.74,0,0,0,.59-.22.86.86,0,0,0,.21-.63l.12.57a2.12,2.12,0,0,1-.16.81,1.06,1.06,0,0,1-.43.5,1.41,1.41,0,0,1-.71.16A1.47,1.47,0,0,1,28.29,24.4ZM30.64,20a.69.69,0,0,0-.18-.51.68.68,0,0,0-.5-.18.56.56,0,0,0-.44.18.78.78,0,0,0-.15.51H28a1.9,1.9,0,0,1,.51-1.42A2,2,0,0,1,30,18.07a2.32,2.32,0,0,1,1.07.23,1.5,1.5,0,0,1,.68.66A2.13,2.13,0,0,1,32,20v4.78H30.64Z"/><path d="M33.35,18.19h1.41v6.59H33.35Zm2.71,2a1,1,0,0,0-.16-.62.59.59,0,0,0-.5-.21.55.55,0,0,0-.48.21,1,1,0,0,0-.16.63l-.14-.86a2,2,0,0,1,.59-.93,1.36,1.36,0,0,1,.87-.32,1.23,1.23,0,0,1,1,.45,2.05,2.05,0,0,1,.35,1.28v5H36.06Z"/><path d="M42.24,19.39l-2.11,4.08h2.28v1.31H38.64V23.55l2.19-4.06h-2.1v-1.3h3.51Z"/><path d="M43.43,15.59h1.38V17H43.43Zm0,2.6h1.38v6.59H43.43Z"/><path d="M47,24.62a1.6,1.6,0,0,1-.7-.71A2.41,2.41,0,0,1,46,22.76V20.3a2.81,2.81,0,0,1,.24-1.21,1.76,1.76,0,0,1,.69-.76A2.12,2.12,0,0,1,48,18.07a2.17,2.17,0,0,1,1.09.25,1.6,1.6,0,0,1,.69.72A2.54,2.54,0,0,1,50,20.19V22h-3V20.92h1.62v-.75a1,1,0,0,0-.18-.63.58.58,0,0,0-.5-.22.59.59,0,0,0-.49.23,1.2,1.2,0,0,0-.17.68v2.58a.8.8,0,0,0,.19.58.66.66,0,0,0,.52.21.69.69,0,0,0,.49-.16.61.61,0,0,0,.17-.45v-.14H50V23a1.84,1.84,0,0,1-.52,1.41,2.06,2.06,0,0,1-1.47.49A2.21,2.21,0,0,1,47,24.62Z"/><path d="M51.29,18.19h1.4v6.59h-1.4Zm3,1.32h-.17a1.35,1.35,0,0,0-1,.35,1.26,1.26,0,0,0-.37.95l-.13-1.47a2.3,2.3,0,0,1,.77-.93,1.76,1.76,0,0,1,1.05-.34V19.5Z"/><path d="M56.8,23a.6.6,0,0,0,.16.46.61.61,0,0,0,.45.15.58.58,0,0,0,.45-.16A.66.66,0,0,0,58,23l.09.73a1.77,1.77,0,0,1-.48.86,1.07,1.07,0,0,1-.77.28,1.27,1.27,0,0,1-1.07-.46,2.13,2.13,0,0,1-.36-1.35V18.19H56.8ZM58,18.19h1.38v6.59H58Z"/><path d="M60.78,18.19h1.4v6.59h-1.4Zm2.7,2a1,1,0,0,0-.16-.62.57.57,0,0,0-.49-.21.58.58,0,0,0-.49.21,1.08,1.08,0,0,0-.16.63l-.13-.86a2,2,0,0,1,.59-.93,1.32,1.32,0,0,1,.87-.32,1.22,1.22,0,0,1,1,.45,2,2,0,0,1,.36,1.28v5h-1.4Z"/><path d="M66.77,24.67a1.41,1.41,0,0,1-.48-.65,3,3,0,0,1-.16-1V20a3.14,3.14,0,0,1,.16-1,1.41,1.41,0,0,1,.48-.65,1.21,1.21,0,0,1,.74-.23,1.29,1.29,0,0,1,.82.31,2.27,2.27,0,0,1,.59.87l-.14.87a1.11,1.11,0,0,0-.07-.43.54.54,0,0,0-.22-.27.59.59,0,0,0-.34-.09.6.6,0,0,0-.48.21.91.91,0,0,0-.17.58v2.76a.82.82,0,0,0,.17.55.63.63,0,0,0,.48.2.59.59,0,0,0,.34-.09.54.54,0,0,0,.22-.27,1,1,0,0,0,.07-.41l.09.88a1.81,1.81,0,0,1-.52.85,1.27,1.27,0,0,1-.84.3A1.2,1.2,0,0,1,66.77,24.67ZM66.68,27a1.88,1.88,0,0,1-.52-1.38v-.25h1.39v.23a.56.56,0,0,0,.62.63.61.61,0,0,0,.46-.16.63.63,0,0,0,.15-.45V18.19h1.39v7.39a2,2,0,0,1-.24,1,1.52,1.52,0,0,1-.7.65,2.6,2.6,0,0,1-1.1.21A2,2,0,0,1,66.68,27Z"/></g></svg>