<svg xmlns="http://www.w3.org/2000/svg" viewBox="0 0 85 43"><g id="background"><g id="Ebene_2" data-name="Ebene 2"><rect width="85" height="43" style="fill:#fff"/></g></g><g id="icon"><g id="_Layer_1" data-name=" #Layer_1"><path d="M19.57,31.14c5.26,0,10.07-4.3,10.07-9.56a9.85,9.85,0,0,0-10.07-9.72H15a9.51,9.51,0,0,0-9.72,9.72A9.67,9.67,0,0,0,15,31.14Z" style="fill:#0079be"/><path d="M15.05,12.66a8.82,8.82,0,1,0,8.82,8.82A8.81,8.81,0,0,0,15.05,12.66ZM9.46,21.48h0a5.63,5.63,0,0,1,3.59-5.22V26.7A5.63,5.63,0,0,1,9.46,21.48Zm7.59,5.22h0V16.26a5.58,5.58,0,0,1,0,10.44Z" style="fill:#fff"/><path d="M32.73,16c0-.91-.48-.85-.93-.86v-.26h2.95c2.62,0,4,1.75,4,3.54,0,1-.59,3.53-4.18,3.53l-1.46,0L31.8,22V21.7c.61-.06.9-.08.93-.77V16Zm1,4.75h0c0,.78.56.88,1.06.88,2.19,0,2.9-1.66,2.9-3.17a3,3,0,0,0-3.17-3.26c-.41,0-.6,0-.79,0v5.51Z" style="fill:#211e1f"/><path d="M39.16,21.7h.19c.28,0,.48,0,.48-.34V18.62c0-.45-.15-.51-.52-.71v-.17c.47-.14,1-.33,1.08-.36a.35.35,0,0,1,.18-.05s.07.06.07.14v3.89c0,.34.23.34.51.34h.17V22l-1.06,0-1.1,0V21.7Zm1.08-5.93h0a.5.5,0,1,1,0-1,.51.51,0,0,1,.5.49A.52.52,0,0,1,40.24,15.77Z" style="fill:#211e1f"/><path d="M42.29,18.68c0-.38-.12-.48-.59-.67v-.19c.43-.15.85-.28,1.34-.49,0,0,.06,0,.06.1v.66a2.91,2.91,0,0,1,1.75-.76c.86,0,1.17.63,1.17,1.42v2.61c0,.34.22.34.5.34h.18V22l-1.07,0-1.09,0V21.7h.18c.28,0,.48,0,.48-.34V18.74c0-.58-.35-.86-.93-.86a2.7,2.7,0,0,0-1.17.48v3c0,.34.22.34.5.34h.19V22l-1.08,0-1.09,0V21.7h.18c.28,0,.49,0,.49-.34V18.68Z" style="fill:#211e1f"/><path d="M47.47,19.16a2.62,2.62,0,0,0,0,.59A1.69,1.69,0,0,0,49,21.5a1.94,1.94,0,0,0,1.37-.67l.14.14a2.35,2.35,0,0,1-1.87,1.14,2,2,0,0,1-1.94-2.21c0-2,1.34-2.57,2.05-2.57a1.6,1.6,0,0,1,1.71,1.59,1.09,1.09,0,0,1,0,.18l-.09.06Zm1.8-.32h0c.25,0,.28-.13.28-.25a.86.86,0,0,0-.88-.94c-.62,0-1,.46-1.16,1.19Z" style="fill:#211e1f"/><path d="M50.66,21.7h.27c.28,0,.49,0,.49-.34V18.51c0-.31-.38-.37-.53-.45v-.15c.74-.32,1.14-.58,1.24-.58s.09,0,.09.13v.91h0c.25-.39.68-1,1.29-1a.55.55,0,0,1,.58.54.49.49,0,0,1-.47.51c-.32,0-.32-.24-.67-.24a.85.85,0,0,0-.74.84v2.38c0,.34.2.34.48.34h.57V22l-1.42,0-1.2,0V21.7Z" style="fill:#211e1f"/><path d="M54.56,20.55a1.34,1.34,0,0,0,1.28,1.24.72.72,0,0,0,.82-.72c0-1.2-2.21-.81-2.21-2.44A1.39,1.39,0,0,1,56,17.33a2.67,2.67,0,0,1,1.15.29l.07,1H57a1,1,0,0,0-1.1-1,.71.71,0,0,0-.79.67c0,1.19,2.35.82,2.35,2.41,0,.67-.54,1.38-1.75,1.38a2.67,2.67,0,0,1-1.23-.34l-.11-1.17.18-.05Z" style="fill:#211e1f"/><path d="M66.62,16.72h-.26a1.92,1.92,0,0,0-2.16-1.66,2.89,2.89,0,0,0-2.86,3.21,3.3,3.3,0,0,0,3,3.52,2.05,2.05,0,0,0,2-1.76l.24.06-.24,1.48a5.55,5.55,0,0,1-2.24.54,3.61,3.61,0,0,1-3.87-3.81,3.73,3.73,0,0,1,3.84-3.57,7.46,7.46,0,0,1,2.4.54l.1,1.45Z" style="fill:#211e1f"/><path d="M67,21.7h.19c.29,0,.49,0,.49-.34V15.72c0-.66-.15-.68-.54-.79v-.17a6.36,6.36,0,0,0,1-.43,1,1,0,0,1,.22-.11c.06,0,.08.06.08.14v7c0,.34.22.34.51.34h.17V22l-1.06,0L67,22V21.7Z" style="fill:#211e1f"/><path d="M73.49,21.4c0,.19.11.2.28.2h.41v.21a10.25,10.25,0,0,0-1.46.31l0,0v-.82a2.74,2.74,0,0,1-1.8.85,1.09,1.09,0,0,1-1.11-1.2v-2.6c0-.26,0-.52-.61-.57v-.19l1.31-.07c.11,0,.11.07.11.29v2.62c0,.3,0,1.17.88,1.17A2.28,2.28,0,0,0,72.68,21V18.22c0-.2-.49-.31-.85-.42v-.18c.91-.06,1.48-.14,1.58-.14s.08.07.08.18V21.4Z" style="fill:#211e1f"/><path d="M75.51,18.06A2.51,2.51,0,0,1,77,17.33a2,2,0,0,1,1.88,2.13,2.56,2.56,0,0,1-2.42,2.65,3,3,0,0,1-1.41-.35l-.3.23-.22-.11a12,12,0,0,0,.14-1.8V15.72c0-.66-.15-.68-.53-.79v-.17a6.58,6.58,0,0,0,1-.43,1,1,0,0,1,.22-.11c.06,0,.09.06.09.14v3.7Zm0,2.75h0a1.09,1.09,0,0,0,1,1c1.08,0,1.54-1.07,1.54-2a1.93,1.93,0,0,0-1.62-2,1.54,1.54,0,0,0-1,.47v2.46Z" style="fill:#211e1f"/><path d="M31.79,27.85h.07c.2,0,.41,0,.41-.31V24.65c0-.29-.21-.31-.41-.31h-.07v-.17l.81,0,.87,0v.17h-.08c-.2,0-.41,0-.41.31v2.89c0,.29.21.31.41.31h.08V28l-.87,0-.81,0v-.17Z" style="fill:#211e1f"/><path d="M33.47,28l-.87,0-.81,0h0v-.21h.1c.2,0,.39,0,.39-.29V24.65c0-.27-.19-.29-.39-.29h-.1v-.21h0l.81,0,.87,0h0v.21h-.1c-.2,0-.38,0-.38.29v2.89c0,.27.18.28.38.29h.1V28Zm0,0h0v-.12h0c-.2,0-.43,0-.43-.34V24.65c0-.3.23-.34.43-.34h0v-.12l-.84,0-.79,0v.12h.05c.2,0,.44,0,.44.34v2.89c0,.3-.24.34-.44.34h-.05V28l.79,0,.84,0Z" style="fill:#211e1f"/><path d="M37.26,26.93h0V24.85a.45.45,0,0,0-.48-.51h-.12v-.17l.77,0,.68,0v.17H38c-.23,0-.49,0-.49.7v2.51a3.24,3.24,0,0,0,0,.55h-.21l-2.84-3.16v2.27c0,.48.09.64.51.64h.1V28l-.71,0-.75,0v-.17h.07c.38,0,.5-.26.5-.7V24.83a.49.49,0,0,0-.5-.49h-.07v-.17l.63,0,.49,0,2.46,2.76Z" style="fill:#211e1f"/><path d="M37.58,28.13h-.23L34.55,25v2.21c0,.48.08.61.49.62h.12V28h0l-.71,0-.75,0h0v-.21h.1c.37,0,.47-.24.48-.68V24.83a.47.47,0,0,0-.48-.47h-.1v-.21h0l.63,0,.51,0,2.42,2.73v-2c0-.43-.29-.49-.45-.49h-.15v-.21h0l.77,0,.68,0h0v.21H38c-.22,0-.46,0-.46.68v2.5a3.32,3.32,0,0,0,0,.56v0Zm-.21-.05h.18a3.14,3.14,0,0,1,0-.54V25c0-.67.28-.73.51-.73h.06v-.12c-.22,0-.43,0-.65,0l-.75,0v.12h.1a.48.48,0,0,1,.5.54v2.09h0l0,0L34.8,24.19c-.16,0-.32,0-.49,0l-.61,0v.12h0a.52.52,0,0,1,.52.52v2.32c0,.44-.12.73-.52.73h0V28l.73,0c.23,0,.46,0,.68,0v-.12H35c-.43,0-.54-.19-.54-.67V24.87l2.87,3.21Zm-.11-1.15Zm0,0Z" style="fill:#211e1f"/><path d="M38.94,24.44c-.41,0-.43.1-.51.51h-.17c0-.16.05-.31.07-.47a3.71,3.71,0,0,0,0-.47h.14c0,.17.18.16.33.16h2.84c.15,0,.29,0,.3-.17l.13,0-.06.45c0,.15,0,.3,0,.44l-.16.07c0-.21,0-.54-.41-.54h-.91v2.94c0,.42.2.47.46.47h.1V28l-.89,0-.94,0v-.17h.11c.3,0,.46,0,.46-.46V24.44Z" style="fill:#211e1f"/><path d="M41.12,28l-.9,0-.94,0h0v-.21h.13c.3,0,.43,0,.43-.44V24.47h-.88v0h.93v3c0,.44-.18.49-.48.49h-.08V28l.91,0,.87,0v-.11H41c-.27,0-.48-.07-.48-.5v-3h.93c.37,0,.42.32.43.52l.12,0c0-.15,0-.29,0-.44s0-.28,0-.42H42c0,.16-.18.17-.32.16H38.8c-.13,0-.27,0-.32-.16h-.09a2.22,2.22,0,0,1,0,.45c0,.15,0,.3-.06.44h.12c.07-.38.12-.51.53-.5v0c-.41,0-.4.08-.49.48v0h-.21v0c0-.15,0-.31.07-.47a3.44,3.44,0,0,0,0-.46v0h.18c0,.14.14.14.28.15h2.87c.15,0,.27,0,.28-.15v0h0l.16,0v0a3.47,3.47,0,0,0-.06.45,3.24,3.24,0,0,0,0,.44v0h0l-.2.07v0c0-.21,0-.51-.38-.51h-.88v2.91c0,.42.17.44.43.45h.13V28Z" style="fill:#211e1f"/><path d="M42.28,27.85h.08c.19,0,.4,0,.4-.31V24.65c0-.29-.21-.31-.4-.31h-.08v-.17l1.37,0,1.41,0c0,.24,0,.6,0,.84l-.16,0c0-.36-.1-.65-.67-.65h-.77v1.45h.66c.33,0,.4-.19.43-.49h.17c0,.22,0,.43,0,.65s0,.42,0,.63l-.17,0c0-.33-.05-.55-.43-.55h-.66v1.29c0,.36.32.36.67.36.66,0,1-.05,1.12-.68l.16,0c-.08.29-.14.59-.19.88l-1.48,0-1.47,0v-.17Z" style="fill:#211e1f"/><path d="M45.23,28l-1.49,0-1.46,0h0v-.21h.11c.19,0,.38,0,.38-.29V24.65c0-.27-.19-.29-.38-.29h-.11v-.21h0l1.37,0,1.41,0h0v0a2.53,2.53,0,0,0,0,.29c0,.19,0,.39,0,.55v0h0l-.2.05v0c0-.36-.08-.62-.64-.62h-.75v1.39h.64c.31,0,.37-.16.41-.46v0h.21v0c0,.22,0,.43,0,.65s0,.42,0,.63h0l-.19,0v0c0-.34,0-.52-.41-.52h-.64v1.26c0,.33.29.33.65.33.67,0,.93,0,1.1-.65v0h0l.17,0v0c-.07.29-.14.58-.19.87v0Zm0-.05h0c0-.27.11-.55.18-.83l-.11,0c-.17.62-.49.67-1.14.67-.35,0-.69,0-.7-.38V26.11h.69c.38,0,.42.23.45.54l.12,0c0-.21,0-.41,0-.61s0-.42,0-.62h-.12c0,.28-.12.48-.45.48h-.69V24.39h.8c.57,0,.66.29.69.64l.12,0c0-.15,0-.35,0-.53a2.26,2.26,0,0,1,0-.27l-1.39,0-1.35,0v.12h.05c.2,0,.44,0,.44.34v2.89c0,.3-.24.34-.44.34H42.3V28l1.44,0,1.47,0Z" style="fill:#211e1f"/><path d="M46.16,24.75c0-.4-.22-.41-.39-.41h-.1v-.17l.85,0,.89,0c.69,0,1.31.19,1.31,1a1,1,0,0,1-.76,1l.94,1.41a.58.58,0,0,0,.53.33V28l-.54,0-.51,0a14.79,14.79,0,0,1-1.15-1.79h-.36v1.18c0,.43.19.44.45.44h.1V28l-1,0-.8,0v-.17h.1c.2,0,.39-.09.39-.29V24.75ZM46.87,26h.26c.56,0,.85-.21.85-.86a.75.75,0,0,0-.8-.8c-.17,0-.24,0-.31,0V26Z" style="fill:#211e1f"/><path d="M49.43,28l-.54,0c-.17,0-.34,0-.53,0a14.54,14.54,0,0,1-1.15-1.77h-.32v1.15c0,.42.17.41.43.42h.12V28h0l-1,0-.8,0h0v-.21h.13c.2,0,.36-.09.36-.27V24.75c0-.39-.19-.39-.36-.39h-.13v-.21h0l.85,0,.89,0c.7,0,1.34.19,1.34,1a1,1,0,0,1-.76,1l.93,1.39a.6.6,0,0,0,.52.32h0V28Zm-2.57-1.83h.39A17.43,17.43,0,0,0,48.38,28c.16,0,.34,0,.51,0l.52,0v-.12a.63.63,0,0,1-.53-.33l-1-1.44h0a1,1,0,0,0,.75-.95c0-.77-.6-.94-1.29-.95-.29,0-.55,0-.89,0s-.65,0-.83,0v.12h.08c.17,0,.41,0,.41.44v2.81c0,.22-.21.32-.41.32h-.08V28l.78,0,.92,0v-.11h-.07c-.26,0-.48,0-.48-.47v-1.2Zm0-.15h0V24.37h0a1.8,1.8,0,0,1,.32,0,.78.78,0,0,1,.83.83c0,.66-.32.89-.88.89Zm.27,0h0c.55,0,.83-.19.83-.84a.72.72,0,0,0-.78-.78c-.15,0-.22,0-.29,0V26Z" style="fill:#211e1f"/><path d="M53.18,26.93h0V24.85a.45.45,0,0,0-.48-.51h-.12v-.17l.77,0,.68,0v.17H54c-.24,0-.5,0-.5.7v2.51a3.24,3.24,0,0,0,0,.55h-.21l-2.84-3.16v2.27c0,.48.09.64.52.64h.09V28l-.71,0-.75,0v-.17h.08c.38,0,.49-.26.49-.7V24.83a.49.49,0,0,0-.5-.49H49.6v-.17l.63,0,.49,0,2.46,2.76Z" style="fill:#211e1f"/><path d="M53.5,28.13h-.23L50.47,25v2.21c0,.48.08.61.5.62h.11V28h0l-.71,0-.75,0h0v-.21h.11c.36,0,.46-.24.47-.68V24.83a.47.47,0,0,0-.48-.47h-.1v-.21h0l.63,0,.51,0,2.42,2.73v-2c0-.43-.29-.49-.45-.49h-.15v-.21h0l.77,0,.68,0h0v.21H54c-.23,0-.47,0-.47.68v2.5a3.32,3.32,0,0,0,0,.56v0Zm-.21-.05h.18a4.63,4.63,0,0,1,0-.54V25c0-.67.28-.73.52-.73h0v-.12c-.21,0-.43,0-.65,0l-.75,0v.12h.1a.48.48,0,0,1,.5.54v2.09h0v0l-2.46-2.78c-.16,0-.32,0-.49,0l-.61,0v.12h.05a.52.52,0,0,1,.53.52v2.32c0,.44-.13.73-.52.73h-.06V28l.73,0L51,28v-.11H51c-.44,0-.55-.19-.55-.67V24.87l2.87,3.21Zm-.11-1.15Zm0,0Z" style="fill:#211e1f"/><path d="M54.93,27.23a2.09,2.09,0,0,0-.13.43c0,.17.24.19.42.19h.06V28l-.67,0L54,28v-.17h0a.49.49,0,0,0,.48-.36L55.41,25a4.37,4.37,0,0,0,.2-.68,2.72,2.72,0,0,0,.51-.24h0s0,0,0,0,0,.09,0,.14l1,2.88c.07.19.13.4.21.56a.34.34,0,0,0,.36.22h0V28l-.76,0-.82,0v-.17h.06c.12,0,.34,0,.34-.16a1.72,1.72,0,0,0-.11-.39l-.22-.64H55.1l-.17.57Zm.8-2.44h0l-.51,1.56h1Z" style="fill:#211e1f"/><path d="M57.86,28l-.76,0-.82,0h0v-.21h.09c.12,0,.31,0,.31-.14a1.16,1.16,0,0,0-.11-.39l-.21-.62H55.12l-.17.56a2,2,0,0,0-.12.42c0,.14.2.17.39.17h.08V28h0l-.67,0L54,28h0v-.21h.06a.47.47,0,0,0,.45-.34L55.39,25c.07-.21.17-.48.22-.7a2.92,2.92,0,0,0,.5-.24h0a.07.07,0,0,1,.06,0s0,.09.05.14l1,2.88a5.15,5.15,0,0,0,.2.56.31.31,0,0,0,.34.21h.06V28ZM56.3,28h0l.8,0,.74,0v-.11h0a.38.38,0,0,1-.39-.24c-.07-.16-.13-.37-.2-.56l-1-2.89a.69.69,0,0,1,0-.13h0a2,2,0,0,1-.49.22,5.49,5.49,0,0,1-.21.69l-.88,2.53a.53.53,0,0,1-.5.38h0V28l.57,0,.64,0v-.11h0c-.18,0-.43,0-.44-.22a2.5,2.5,0,0,1,.12-.44h0l.18-.59h1.29l.22.66a1.76,1.76,0,0,1,.11.4c0,.17-.24.18-.36.19h0V28Zm-1.13-1.62h0l.53-1.61h0v0h0v0h0l.52,1.61Zm.07-.05h1l-.48-1.47Zm.47-1.53Z" style="fill:#211e1f"/><path d="M58.11,24.44c-.42,0-.43.1-.52.51h-.16c0-.16,0-.31.06-.47a2.49,2.49,0,0,0,0-.47h.13c0,.17.18.16.33.16h2.85c.14,0,.28,0,.29-.17l.14,0a3.47,3.47,0,0,0-.06.45,3.31,3.31,0,0,0,0,.44L61,25c0-.21,0-.54-.41-.54h-.9v2.94c0,.42.19.47.45.47h.11V28l-.9,0-.93,0v-.17h.1c.31,0,.46,0,.46-.46V24.44Z" style="fill:#211e1f"/><path d="M60.28,28l-.9,0-.93,0h0v-.21h.13c.31,0,.43,0,.44-.44V24.47h-.88v0H59v3c0,.44-.17.49-.48.49h-.08V28c.22,0,.59,0,.91,0s.66,0,.87,0v-.12h-.08c-.26,0-.48-.07-.48-.5v-3h.93c.37,0,.42.32.43.52l.12,0c0-.15,0-.29,0-.44l.06-.42h-.09c0,.16-.18.17-.31.16H58c-.13,0-.27,0-.32-.16h-.09a3.29,3.29,0,0,1,0,.45l-.06.44h.11c.08-.38.12-.51.54-.5v0c-.41,0-.4.08-.49.48v0H57.4v0c0-.15.05-.31.07-.46a3.71,3.71,0,0,0,0-.47v0h.18c0,.14.14.14.28.15h2.88c.15,0,.26,0,.27-.15v0h0l.15,0v0l-.06.45c0,.15,0,.3,0,.44v0h0L61,25v0c0-.21,0-.51-.39-.51h-.88v2.91c0,.42.17.44.43.45h.13V28Z" style="fill:#211e1f"/><path d="M61.47,27.85h.08c.2,0,.4,0,.4-.31V24.65c0-.29-.2-.31-.4-.31h-.08v-.17l.81,0,.87,0v.17h-.08c-.19,0-.41,0-.41.31v2.89c0,.29.22.31.41.31h.08V28l-.87,0-.81,0v-.17Z" style="fill:#211e1f"/><path d="M63.15,28l-.87,0-.81,0h0v-.21h.11c.2,0,.38,0,.38-.29V24.65c0-.27-.18-.29-.38-.29h-.11v-.21h0l.81,0,.87,0h0v.21h-.1c-.2,0-.38,0-.38.29v2.89c0,.27.18.29.38.29h.1V28Zm0-.05h0v-.11h-.06c-.19,0-.43,0-.43-.34V24.65c0-.3.24-.34.43-.34h.06v-.12l-.85,0-.79,0v.12h.06c.19,0,.43,0,.43.34v2.89c0,.3-.24.34-.43.34h-.06V28l.79,0,.85,0Z" style="fill:#211e1f"/><path d="M65.35,24.09A1.93,1.93,0,0,1,67.46,26a2,2,0,0,1-2.08,2.11,1.94,1.94,0,0,1-2.06-2,2,2,0,0,1,2-2Zm.08,3.77h0c1.07,0,1.26-.94,1.26-1.75s-.44-1.78-1.35-1.78-1.25.86-1.25,1.6c0,1,.45,1.93,1.34,1.93Z" style="fill:#211e1f"/><path d="M63.29,26.12a2,2,0,0,1,2.06-2.06v.05a2,2,0,0,0-2,2,1.93,1.93,0,0,0,2,2A2,2,0,0,0,67.44,26a1.91,1.91,0,0,0-2.09-1.88v-.05A2,2,0,0,1,67.49,26a2.07,2.07,0,0,1-2.11,2.14,2,2,0,0,1-2.09-2Zm.77-.19h0c0-.74.3-1.63,1.28-1.63s1.37,1,1.37,1.81-.19,1.77-1.28,1.77v0c1,0,1.23-.92,1.24-1.73s-.43-1.76-1.33-1.76-1.23.84-1.23,1.58c0,1,.45,1.9,1.32,1.91v0c-.91,0-1.36-1-1.37-1.95Z" style="fill:#211e1f"/><path d="M71.18,26.93h0V24.85a.45.45,0,0,0-.48-.51h-.12v-.17l.77,0,.68,0v.17H72c-.24,0-.5,0-.5.7v2.51a3.24,3.24,0,0,0,0,.55h-.21l-2.84-3.16v2.27c0,.48.09.64.52.64h.09V28l-.71,0-.75,0v-.17h.08c.38,0,.49-.26.49-.7V24.83a.49.49,0,0,0-.5-.49H67.6v-.17l.63,0,.49,0,2.46,2.76Z" style="fill:#211e1f"/><path d="M71.5,28.13h-.23L68.47,25v2.21c0,.48.08.61.5.62h.11V28h0l-.71,0-.75,0h0v-.21h.1c.36,0,.46-.24.47-.68V24.83a.47.47,0,0,0-.48-.47h-.09v-.21h0l.63,0,.51,0,2.42,2.73v-2c0-.43-.29-.49-.45-.49h-.15v-.21h0l.77,0,.68,0h0v.21H72c-.23,0-.47,0-.47.68v2.5a3.32,3.32,0,0,0,0,.56v0Zm-.21-.05h.18a4.63,4.63,0,0,1,0-.54V25c0-.67.28-.73.52-.73H72v-.12c-.21,0-.43,0-.65,0l-.75,0v.12h.1a.48.48,0,0,1,.5.54v2.09h0l0,0-2.46-2.78c-.16,0-.32,0-.49,0l-.61,0v.12h0a.52.52,0,0,1,.53.52v2.32c0,.44-.13.73-.52.73h-.06V28l.73,0L69,28v-.11H69c-.44,0-.55-.19-.55-.67V24.87l2.87,3.21Zm-.11-1.15Zm0,0Z" style="fill:#211e1f"/><path d="M72.92,27.23a2.7,2.7,0,0,0-.12.43c0,.17.24.19.42.19h.06V28l-.67,0L72,28v-.17h0a.49.49,0,0,0,.48-.36L73.41,25a4.37,4.37,0,0,0,.2-.68,2.72,2.72,0,0,0,.51-.24h0s0,0,0,0,0,.09,0,.14l1,2.88c.07.19.13.4.21.56a.34.34,0,0,0,.36.22h0V28l-.76,0-.82,0v-.17h.06c.12,0,.34,0,.34-.16a1.72,1.72,0,0,0-.11-.39l-.22-.64H73.1l-.18.57Zm.81-2.44h0l-.51,1.56h1Z" style="fill:#211e1f"/><path d="M75.86,28l-.76,0-.82,0h0v-.21h.09c.12,0,.31,0,.31-.14a1.16,1.16,0,0,0-.11-.39l-.2-.62H73.12l-.17.56a2,2,0,0,0-.12.42c0,.14.2.17.39.17h.08V28h0l-.67,0L72,28h0v-.21h.06a.49.49,0,0,0,.46-.34L73.39,25c.07-.21.17-.48.22-.7a2.92,2.92,0,0,0,.5-.24h0a.06.06,0,0,1,.06,0s0,.09,0,.14l1,2.88a5.15,5.15,0,0,0,.2.56.31.31,0,0,0,.34.21h.06V28ZM74.3,28h0l.8,0,.74,0v-.11h0a.38.38,0,0,1-.39-.24c-.07-.16-.13-.37-.2-.56l-1-2.89a.69.69,0,0,1,0-.13h-.05a2,2,0,0,1-.49.22,5.49,5.49,0,0,1-.21.69l-.88,2.53a.53.53,0,0,1-.5.38h0V28l.57,0,.64,0v-.11h0c-.18,0-.43,0-.44-.22a2.5,2.5,0,0,1,.12-.44h0l.18-.59h1.29l.22.66a1.76,1.76,0,0,1,.11.4c0,.17-.24.18-.36.19h0V28Zm-1.13-1.62h0l.53-1.61h0v0h0v0h0l.52,1.61Zm.07-.05h1l-.48-1.47-.48,1.47Zm.47-1.53Z" style="fill:#211e1f"/><path d="M77.25,27.48c0,.22.16.29.33.31a6,6,0,0,0,.73,0,.8.8,0,0,0,.53-.3,1.15,1.15,0,0,0,.17-.4h.16c-.06.32-.14.63-.2.94l-1.46,0-1.45,0v-.17h.07c.2,0,.42,0,.42-.37V24.65c0-.29-.22-.31-.42-.31h-.07v-.17l.87,0,.84,0v.17h-.14c-.21,0-.38,0-.38.29v2.85Z" style="fill:#211e1f"/><path d="M79,28l-1.46,0-1.45,0h0v-.21h.1c.2,0,.39,0,.39-.35V24.65c0-.27-.19-.29-.39-.29H76v-.21h0l.87,0,.84,0h0v.21h-.16c-.22,0-.35,0-.35.27v2.85c0,.2.13.26.31.28h.3a3,3,0,0,0,.42,0,.74.74,0,0,0,.51-.28,1.11,1.11,0,0,0,.17-.39v0h.21v0L79,28v0ZM79,28h0c.06-.29.13-.59.19-.89H79a1.11,1.11,0,0,1-.17.39.8.8,0,0,1-.55.31,3,3,0,0,1-.42,0h-.31c-.18,0-.35-.1-.35-.33V24.63c0-.3.19-.32.4-.32h.11v-.12l-.81,0c-.29,0-.57,0-.85,0v.12h0c.2,0,.44,0,.44.34v2.83c0,.36-.24.4-.44.4h0V28l1.43,0L79,28Z" style="fill:#211e1f"/><path d="M79.1,24a.58.58,0,0,1,.59.59.59.59,0,0,1-1.17,0A.58.58,0,0,1,79.1,24Zm0,1.06h0a.48.48,0,1,0-.46-.47A.47.47,0,0,0,79.1,25.07Zm-.28-.17h0v0c.07,0,.08,0,.08-.05v-.43c0-.06,0-.08-.08-.08v0h.3c.1,0,.19,0,.19.16a.18.18,0,0,1-.14.17l.1.14a.4.4,0,0,0,.13.13v0h-.12s-.1-.11-.2-.27H79v.2s0,0,.09,0v0Zm.19-.3h.07c.07,0,.11-.06.11-.15s0-.13-.11-.13H79Z" style="fill:#211e1f"/><path d="M19.57,31.14c5.26,0,10.07-4.3,10.07-9.56a9.85,9.85,0,0,0-10.07-9.72H15a9.51,9.51,0,0,0-9.72,9.72A9.67,9.67,0,0,0,15,31.14Z" style="fill:#0079be"/><path d="M15.05,12.66a8.82,8.82,0,1,0,8.82,8.82A8.81,8.81,0,0,0,15.05,12.66ZM9.46,21.48h0a5.63,5.63,0,0,1,3.59-5.22V26.7A5.63,5.63,0,0,1,9.46,21.48Zm7.59,5.22h0V16.26a5.58,5.58,0,0,1,0,10.44Z" style="fill:#fff"/><path d="M32.73,16c0-.91-.48-.85-.93-.86v-.26h2.95c2.62,0,4,1.75,4,3.54,0,1-.59,3.53-4.18,3.53l-1.46,0L31.8,22V21.7c.61-.06.9-.08.93-.77V16Zm1,4.75h0c0,.78.56.88,1.06.88,2.19,0,2.9-1.66,2.9-3.17a3,3,0,0,0-3.17-3.26c-.41,0-.6,0-.79,0v5.51Z" style="fill:#211e1f"/><path d="M39.16,21.7h.19c.28,0,.48,0,.48-.34V18.62c0-.45-.15-.51-.52-.71v-.17c.47-.14,1-.33,1.08-.36a.35.35,0,0,1,.18-.05s.07.06.07.14v3.89c0,.34.23.34.51.34h.17V22l-1.06,0-1.1,0V21.7Zm1.08-5.93h0a.5.5,0,1,1,0-1,.51.51,0,0,1,.5.49A.52.52,0,0,1,40.24,15.77Z" style="fill:#211e1f"/><path d="M42.29,18.68c0-.38-.12-.48-.59-.67v-.19c.43-.15.85-.28,1.34-.49,0,0,.06,0,.06.1v.66a2.91,2.91,0,0,1,1.75-.76c.86,0,1.17.63,1.17,1.42v2.61c0,.34.22.34.5.34h.18V22l-1.07,0-1.09,0V21.7h.18c.28,0,.48,0,.48-.34V18.74c0-.58-.35-.86-.93-.86a2.7,2.7,0,0,0-1.17.48v3c0,.34.22.34.5.34h.19V22l-1.08,0-1.09,0V21.7h.18c.28,0,.49,0,.49-.34V18.68Z" style="fill:#211e1f"/><path d="M47.47,19.16a2.62,2.62,0,0,0,0,.59A1.69,1.69,0,0,0,49,21.5a1.94,1.94,0,0,0,1.37-.67l.14.14a2.35,2.35,0,0,1-1.87,1.14,2,2,0,0,1-1.94-2.21c0-2,1.34-2.57,2.05-2.57a1.6,1.6,0,0,1,1.71,1.59,1.09,1.09,0,0,1,0,.18l-.09.06Zm1.8-.32h0c.25,0,.28-.13.28-.25a.86.86,0,0,0-.88-.94c-.62,0-1,.46-1.16,1.19Z" style="fill:#211e1f"/><path d="M50.66,21.7h.27c.28,0,.49,0,.49-.34V18.51c0-.31-.38-.37-.53-.45v-.15c.74-.32,1.14-.58,1.24-.58s.09,0,.09.13v.91h0c.25-.39.68-1,1.29-1a.55.55,0,0,1,.58.54.49.49,0,0,1-.47.51c-.32,0-.32-.24-.67-.24a.85.85,0,0,0-.74.84v2.38c0,.34.2.34.48.34h.57V22l-1.42,0-1.2,0V21.7Z" style="fill:#211e1f"/><path d="M54.56,20.55a1.34,1.34,0,0,0,1.28,1.24.72.72,0,0,0,.82-.72c0-1.2-2.21-.81-2.21-2.44A1.39,1.39,0,0,1,56,17.33a2.67,2.67,0,0,1,1.15.29l.07,1H57a1,1,0,0,0-1.1-1,.71.71,0,0,0-.79.67c0,1.19,2.35.82,2.35,2.41,0,.67-.54,1.38-1.75,1.38a2.67,2.67,0,0,1-1.23-.34l-.11-1.17.18-.05Z" style="fill:#211e1f"/><path d="M66.62,16.72h-.26a1.92,1.92,0,0,0-2.16-1.66,2.89,2.89,0,0,0-2.86,3.21,3.3,3.3,0,0,0,3,3.52,2.05,2.05,0,0,0,2-1.76l.24.06-.24,1.48a5.55,5.55,0,0,1-2.24.54,3.61,3.61,0,0,1-3.87-3.81,3.73,3.73,0,0,1,3.84-3.57,7.46,7.46,0,0,1,2.4.54l.1,1.45Z" style="fill:#211e1f"/><path d="M67,21.7h.19c.29,0,.49,0,.49-.34V15.72c0-.66-.15-.68-.54-.79v-.17a6.36,6.36,0,0,0,1-.43,1,1,0,0,1,.22-.11c.06,0,.08.06.08.14v7c0,.34.22.34.51.34h.17V22l-1.06,0L67,22V21.7Z" style="fill:#211e1f"/><path d="M73.49,21.4c0,.19.11.2.28.2h.41v.21a10.25,10.25,0,0,0-1.46.31l0,0v-.82a2.74,2.74,0,0,1-1.8.85,1.09,1.09,0,0,1-1.11-1.2v-2.6c0-.26,0-.52-.61-.57v-.19l1.31-.07c.11,0,.11.07.11.29v2.62c0,.3,0,1.17.88,1.17A2.28,2.28,0,0,0,72.68,21V18.22c0-.2-.49-.31-.85-.42v-.18c.91-.06,1.48-.14,1.58-.14s.08.07.08.18V21.4Z" style="fill:#211e1f"/><path d="M75.51,18.06A2.51,2.51,0,0,1,77,17.33a2,2,0,0,1,1.88,2.13,2.56,2.56,0,0,1-2.42,2.65,3,3,0,0,1-1.41-.35l-.3.23-.22-.11a12,12,0,0,0,.14-1.8V15.72c0-.66-.15-.68-.53-.79v-.17a6.58,6.58,0,0,0,1-.43,1,1,0,0,1,.22-.11c.06,0,.09.06.09.14v3.7Zm0,2.75h0a1.09,1.09,0,0,0,1,1c1.08,0,1.54-1.07,1.54-2a1.93,1.93,0,0,0-1.62-2,1.54,1.54,0,0,0-1,.47v2.46Z" style="fill:#211e1f"/><path d="M31.79,27.85h.07c.2,0,.41,0,.41-.31V24.65c0-.29-.21-.31-.41-.31h-.07v-.17l.81,0,.87,0v.17h-.08c-.2,0-.41,0-.41.31v2.89c0,.29.21.31.41.31h.08V28l-.87,0-.81,0v-.17Z" style="fill:#211e1f"/><path d="M33.47,28l-.87,0-.81,0h0v-.21h.1c.2,0,.39,0,.39-.29V24.65c0-.27-.19-.29-.39-.29h-.1v-.21h0l.81,0,.87,0h0v.21h-.1c-.2,0-.38,0-.38.29v2.89c0,.27.18.28.38.29h.1V28Zm0,0h0v-.12h0c-.2,0-.43,0-.43-.34V24.65c0-.3.23-.34.43-.34h0v-.12l-.84,0-.79,0v.12h.05c.2,0,.44,0,.44.34v2.89c0,.3-.24.34-.44.34h-.05V28l.79,0,.84,0Z" style="fill:#211e1f"/><path d="M37.26,26.93h0V24.85a.45.45,0,0,0-.48-.51h-.12v-.17l.77,0,.68,0v.17H38c-.23,0-.49,0-.49.7v2.51a3.24,3.24,0,0,0,0,.55h-.21l-2.84-3.16v2.27c0,.48.09.64.51.64h.1V28l-.71,0-.75,0v-.17h.07c.38,0,.5-.26.5-.7V24.83a.49.49,0,0,0-.5-.49h-.07v-.17l.63,0,.49,0,2.46,2.76Z" style="fill:#211e1f"/><path d="M37.58,28.13h-.23L34.55,25v2.21c0,.48.08.61.49.62h.12V28h0l-.71,0-.75,0h0v-.21h.1c.37,0,.47-.24.48-.68V24.83a.47.47,0,0,0-.48-.47h-.1v-.21h0l.63,0,.51,0,2.42,2.73v-2c0-.43-.29-.49-.45-.49h-.15v-.21h0l.77,0,.68,0h0v.21H38c-.22,0-.46,0-.46.68v2.5a3.32,3.32,0,0,0,0,.56v0Zm-.21-.05h.18a3.14,3.14,0,0,1,0-.54V25c0-.67.28-.73.51-.73h.06v-.12c-.22,0-.43,0-.65,0l-.75,0v.12h.1a.48.48,0,0,1,.5.54v2.09h0l0,0L34.8,24.19c-.16,0-.32,0-.49,0l-.61,0v.12h0a.52.52,0,0,1,.52.52v2.32c0,.44-.12.73-.52.73h0V28l.73,0c.23,0,.46,0,.68,0v-.12H35c-.43,0-.54-.19-.54-.67V24.87l2.87,3.21Zm-.11-1.15Zm0,0Z" style="fill:#211e1f"/><path d="M38.94,24.44c-.41,0-.43.1-.51.51h-.17c0-.16.05-.31.07-.47a3.71,3.71,0,0,0,0-.47h.14c0,.17.18.16.33.16h2.84c.15,0,.29,0,.3-.17l.13,0-.06.45c0,.15,0,.3,0,.44l-.16.07c0-.21,0-.54-.41-.54h-.91v2.94c0,.42.2.47.46.47h.1V28l-.89,0-.94,0v-.17h.11c.3,0,.46,0,.46-.46V24.44Z" style="fill:#211e1f"/><path d="M41.12,28l-.9,0-.94,0h0v-.21h.13c.3,0,.43,0,.43-.44V24.47h-.88v0h.93v3c0,.44-.18.49-.48.49h-.08V28l.91,0,.87,0v-.11H41c-.27,0-.48-.07-.48-.5v-3h.93c.37,0,.42.32.43.52l.12,0c0-.15,0-.29,0-.44s0-.28,0-.42H42c0,.16-.18.17-.32.16H38.8c-.13,0-.27,0-.32-.16h-.09a2.22,2.22,0,0,1,0,.45c0,.15,0,.3-.06.44h.12c.07-.38.12-.51.53-.5v0c-.41,0-.4.08-.49.48v0h-.21v0c0-.15,0-.31.07-.47a3.44,3.44,0,0,0,0-.46v0h.18c0,.14.14.14.28.15h2.87c.15,0,.27,0,.28-.15v0h0l.16,0v0a3.47,3.47,0,0,0-.06.45,3.24,3.24,0,0,0,0,.44v0h0l-.2.07v0c0-.21,0-.51-.38-.51h-.88v2.91c0,.42.17.44.43.45h.13V28Z" style="fill:#211e1f"/><path d="M42.28,27.85h.08c.19,0,.4,0,.4-.31V24.65c0-.29-.21-.31-.4-.31h-.08v-.17l1.37,0,1.41,0c0,.24,0,.6,0,.84l-.16,0c0-.36-.1-.65-.67-.65h-.77v1.45h.66c.33,0,.4-.19.43-.49h.17c0,.22,0,.43,0,.65s0,.42,0,.63l-.17,0c0-.33-.05-.55-.43-.55h-.66v1.29c0,.36.32.36.67.36.66,0,1-.05,1.12-.68l.16,0c-.08.29-.14.59-.19.88l-1.48,0-1.47,0v-.17Z" style="fill:#211e1f"/><path d="M45.23,28l-1.49,0-1.46,0h0v-.21h.11c.19,0,.38,0,.38-.29V24.65c0-.27-.19-.29-.38-.29h-.11v-.21h0l1.37,0,1.41,0h0v0a2.53,2.53,0,0,0,0,.29c0,.19,0,.39,0,.55v0h0l-.2.05v0c0-.36-.08-.62-.64-.62h-.75v1.39h.64c.31,0,.37-.16.41-.46v0h.21v0c0,.22,0,.43,0,.65s0,.42,0,.63h0l-.19,0v0c0-.34,0-.52-.41-.52h-.64v1.26c0,.33.29.33.65.33.67,0,.93,0,1.1-.65v0h0l.17,0v0c-.07.29-.14.58-.19.87v0Zm0-.05h0c0-.27.11-.55.18-.83l-.11,0c-.17.62-.49.67-1.14.67-.35,0-.69,0-.7-.38V26.11h.69c.38,0,.42.23.45.54l.12,0c0-.21,0-.41,0-.61s0-.42,0-.62h-.12c0,.28-.12.48-.45.48h-.69V24.39h.8c.57,0,.66.29.69.64l.12,0c0-.15,0-.35,0-.53a2.26,2.26,0,0,1,0-.27l-1.39,0-1.35,0v.12h.05c.2,0,.44,0,.44.34v2.89c0,.3-.24.34-.44.34H42.3V28l1.44,0,1.47,0Z" style="fill:#211e1f"/><path d="M46.16,24.75c0-.4-.22-.41-.39-.41h-.1v-.17l.85,0,.89,0c.69,0,1.31.19,1.31,1a1,1,0,0,1-.76,1l.94,1.41a.58.58,0,0,0,.53.33V28l-.54,0-.51,0a14.79,14.79,0,0,1-1.15-1.79h-.36v1.18c0,.43.19.44.45.44h.1V28l-1,0-.8,0v-.17h.1c.2,0,.39-.09.39-.29V24.75ZM46.87,26h.26c.56,0,.85-.21.85-.86a.75.75,0,0,0-.8-.8c-.17,0-.24,0-.31,0V26Z" style="fill:#211e1f"/><path d="M49.43,28l-.54,0c-.17,0-.34,0-.53,0a14.54,14.54,0,0,1-1.15-1.77h-.32v1.15c0,.42.17.41.43.42h.12V28h0l-1,0-.8,0h0v-.21h.13c.2,0,.36-.09.36-.27V24.75c0-.39-.19-.39-.36-.39h-.13v-.21h0l.85,0,.89,0c.7,0,1.34.19,1.34,1a1,1,0,0,1-.76,1l.93,1.39a.6.6,0,0,0,.52.32h0V28Zm-2.57-1.83h.39A17.43,17.43,0,0,0,48.38,28c.16,0,.34,0,.51,0l.52,0v-.12a.63.63,0,0,1-.53-.33l-1-1.44h0a1,1,0,0,0,.75-.95c0-.77-.6-.94-1.29-.95-.29,0-.55,0-.89,0s-.65,0-.83,0v.12h.08c.17,0,.41,0,.41.44v2.81c0,.22-.21.32-.41.32h-.08V28l.78,0,.92,0v-.11h-.07c-.26,0-.48,0-.48-.47v-1.2Zm0-.15h0V24.37h0a1.8,1.8,0,0,1,.32,0,.78.78,0,0,1,.83.83c0,.66-.32.89-.88.89Zm.27,0h0c.55,0,.83-.19.83-.84a.72.72,0,0,0-.78-.78c-.15,0-.22,0-.29,0V26Z" style="fill:#211e1f"/><path d="M53.18,26.93h0V24.85a.45.45,0,0,0-.48-.51h-.12v-.17l.77,0,.68,0v.17H54c-.24,0-.5,0-.5.7v2.51a3.24,3.24,0,0,0,0,.55h-.21l-2.84-3.16v2.27c0,.48.09.64.52.64h.09V28l-.71,0-.75,0v-.17h.08c.38,0,.49-.26.49-.7V24.83a.49.49,0,0,0-.5-.49H49.6v-.17l.63,0,.49,0,2.46,2.76Z" style="fill:#211e1f"/><path d="M53.5,28.13h-.23L50.47,25v2.21c0,.48.08.61.5.62h.11V28h0l-.71,0-.75,0h0v-.21h.11c.36,0,.46-.24.47-.68V24.83a.47.47,0,0,0-.48-.47h-.1v-.21h0l.63,0,.51,0,2.42,2.73v-2c0-.43-.29-.49-.45-.49h-.15v-.21h0l.77,0,.68,0h0v.21H54c-.23,0-.47,0-.47.68v2.5a3.32,3.32,0,0,0,0,.56v0Zm-.21-.05h.18a4.63,4.63,0,0,1,0-.54V25c0-.67.28-.73.52-.73h0v-.12c-.21,0-.43,0-.65,0l-.75,0v.12h.1a.48.48,0,0,1,.5.54v2.09h0v0l-2.46-2.78c-.16,0-.32,0-.49,0l-.61,0v.12h.05a.52.52,0,0,1,.53.52v2.32c0,.44-.13.73-.52.73h-.06V28l.73,0L51,28v-.11H51c-.44,0-.55-.19-.55-.67V24.87l2.87,3.21Zm-.11-1.15Zm0,0Z" style="fill:#211e1f"/><path d="M54.93,27.23a2.09,2.09,0,0,0-.13.43c0,.17.24.19.42.19h.06V28l-.67,0L54,28v-.17h0a.49.49,0,0,0,.48-.36L55.41,25a4.37,4.37,0,0,0,.2-.68,2.72,2.72,0,0,0,.51-.24h0s0,0,0,0,0,.09,0,.14l1,2.88c.07.19.13.4.21.56a.34.34,0,0,0,.36.22h0V28l-.76,0-.82,0v-.17h.06c.12,0,.34,0,.34-.16a1.72,1.72,0,0,0-.11-.39l-.22-.64H55.1l-.17.57Zm.8-2.44h0l-.51,1.56h1Z" style="fill:#211e1f"/><path d="M57.86,28l-.76,0-.82,0h0v-.21h.09c.12,0,.31,0,.31-.14a1.16,1.16,0,0,0-.11-.39l-.21-.62H55.12l-.17.56a2,2,0,0,0-.12.42c0,.14.2.17.39.17h.08V28h0l-.67,0L54,28h0v-.21h.06a.47.47,0,0,0,.45-.34L55.39,25c.07-.21.17-.48.22-.7a2.92,2.92,0,0,0,.5-.24h0a.07.07,0,0,1,.06,0s0,.09.05.14l1,2.88a5.15,5.15,0,0,0,.2.56.31.31,0,0,0,.34.21h.06V28ZM56.3,28h0l.8,0,.74,0v-.11h0a.38.38,0,0,1-.39-.24c-.07-.16-.13-.37-.2-.56l-1-2.89a.69.69,0,0,1,0-.13h0a2,2,0,0,1-.49.22,5.49,5.49,0,0,1-.21.69l-.88,2.53a.53.53,0,0,1-.5.38h0V28l.57,0,.64,0v-.11h0c-.18,0-.43,0-.44-.22a2.5,2.5,0,0,1,.12-.44h0l.18-.59h1.29l.22.66a1.76,1.76,0,0,1,.11.4c0,.17-.24.18-.36.19h0V28Zm-1.13-1.62h0l.53-1.61h0v0h0v0h0l.52,1.61Zm.07-.05h1l-.48-1.47Zm.47-1.53Z" style="fill:#211e1f"/><path d="M58.11,24.44c-.42,0-.43.1-.52.51h-.16c0-.16,0-.31.06-.47a2.49,2.49,0,0,0,0-.47h.13c0,.17.18.16.33.16h2.85c.14,0,.28,0,.29-.17l.14,0a3.47,3.47,0,0,0-.06.45,3.31,3.31,0,0,0,0,.44L61,25c0-.21,0-.54-.41-.54h-.9v2.94c0,.42.19.47.45.47h.11V28l-.9,0-.93,0v-.17h.1c.31,0,.46,0,.46-.46V24.44Z" style="fill:#211e1f"/><path d="M60.28,28l-.9,0-.93,0h0v-.21h.13c.31,0,.43,0,.44-.44V24.47h-.88v0H59v3c0,.44-.17.49-.48.49h-.08V28c.22,0,.59,0,.91,0s.66,0,.87,0v-.12h-.08c-.26,0-.48-.07-.48-.5v-3h.93c.37,0,.42.32.43.52l.12,0c0-.15,0-.29,0-.44l.06-.42h-.09c0,.16-.18.17-.31.16H58c-.13,0-.27,0-.32-.16h-.09a3.29,3.29,0,0,1,0,.45l-.06.44h.11c.08-.38.12-.51.54-.5v0c-.41,0-.4.08-.49.48v0H57.4v0c0-.15.05-.31.07-.46a3.71,3.71,0,0,0,0-.47v0h.18c0,.14.14.14.28.15h2.88c.15,0,.26,0,.27-.15v0h0l.15,0v0l-.06.45c0,.15,0,.3,0,.44v0h0L61,25v0c0-.21,0-.51-.39-.51h-.88v2.91c0,.42.17.44.43.45h.13V28Z" style="fill:#211e1f"/><path d="M61.47,27.85h.08c.2,0,.4,0,.4-.31V24.65c0-.29-.2-.31-.4-.31h-.08v-.17l.81,0,.87,0v.17h-.08c-.19,0-.41,0-.41.31v2.89c0,.29.22.31.41.31h.08V28l-.87,0-.81,0v-.17Z" style="fill:#211e1f"/><path d="M63.15,28l-.87,0-.81,0h0v-.21h.11c.2,0,.38,0,.38-.29V24.65c0-.27-.18-.29-.38-.29h-.11v-.21h0l.81,0,.87,0h0v.21h-.1c-.2,0-.38,0-.38.29v2.89c0,.27.18.29.38.29h.1V28Zm0-.05h0v-.11h-.06c-.19,0-.43,0-.43-.34V24.65c0-.3.24-.34.43-.34h.06v-.12l-.85,0-.79,0v.12h.06c.19,0,.43,0,.43.34v2.89c0,.3-.24.34-.43.34h-.06V28l.79,0,.85,0Z" style="fill:#211e1f"/><path d="M65.35,24.09A1.93,1.93,0,0,1,67.46,26a2,2,0,0,1-2.08,2.11,1.94,1.94,0,0,1-2.06-2,2,2,0,0,1,2-2Zm.08,3.77h0c1.07,0,1.26-.94,1.26-1.75s-.44-1.78-1.35-1.78-1.25.86-1.25,1.6c0,1,.45,1.93,1.34,1.93Z" style="fill:#211e1f"/><path d="M63.29,26.12a2,2,0,0,1,2.06-2.06v.05a2,2,0,0,0-2,2,1.93,1.93,0,0,0,2,2A2,2,0,0,0,67.44,26a1.91,1.91,0,0,0-2.09-1.88v-.05A2,2,0,0,1,67.49,26a2.07,2.07,0,0,1-2.11,2.14,2,2,0,0,1-2.09-2Zm.77-.19h0c0-.74.3-1.63,1.28-1.63s1.37,1,1.37,1.81-.19,1.77-1.28,1.77v0c1,0,1.23-.92,1.24-1.73s-.43-1.76-1.33-1.76-1.23.84-1.23,1.58c0,1,.45,1.9,1.32,1.91v0c-.91,0-1.36-1-1.37-1.95Z" style="fill:#211e1f"/><path d="M71.18,26.93h0V24.85a.45.45,0,0,0-.48-.51h-.12v-.17l.77,0,.68,0v.17H72c-.24,0-.5,0-.5.7v2.51a3.24,3.24,0,0,0,0,.55h-.21l-2.84-3.16v2.27c0,.48.09.64.52.64h.09V28l-.71,0-.75,0v-.17h.08c.38,0,.49-.26.49-.7V24.83a.49.49,0,0,0-.5-.49H67.6v-.17l.63,0,.49,0,2.46,2.76Z" style="fill:#211e1f"/><path d="M71.5,28.13h-.23L68.47,25v2.21c0,.48.08.61.5.62h.11V28h0l-.71,0-.75,0h0v-.21h.1c.36,0,.46-.24.47-.68V24.83a.47.47,0,0,0-.48-.47h-.09v-.21h0l.63,0,.51,0,2.42,2.73v-2c0-.43-.29-.49-.45-.49h-.15v-.21h0l.77,0,.68,0h0v.21H72c-.23,0-.47,0-.47.68v2.5a3.32,3.32,0,0,0,0,.56v0Zm-.21-.05h.18a4.63,4.63,0,0,1,0-.54V25c0-.67.28-.73.52-.73H72v-.12c-.21,0-.43,0-.65,0l-.75,0v.12h.1a.48.48,0,0,1,.5.54v2.09h0l0,0-2.46-2.78c-.16,0-.32,0-.49,0l-.61,0v.12h0a.52.52,0,0,1,.53.52v2.32c0,.44-.13.73-.52.73h-.06V28l.73,0L69,28v-.11H69c-.44,0-.55-.19-.55-.67V24.87l2.87,3.21Zm-.11-1.15Zm0,0Z" style="fill:#211e1f"/><path d="M72.92,27.23a2.7,2.7,0,0,0-.12.43c0,.17.24.19.42.19h.06V28l-.67,0L72,28v-.17h0a.49.49,0,0,0,.48-.36L73.41,25a4.37,4.37,0,0,0,.2-.68,2.72,2.72,0,0,0,.51-.24h0s0,0,0,0,0,.09,0,.14l1,2.88c.07.19.13.4.21.56a.34.34,0,0,0,.36.22h0V28l-.76,0-.82,0v-.17h.06c.12,0,.34,0,.34-.16a1.72,1.72,0,0,0-.11-.39l-.22-.64H73.1l-.18.57Zm.81-2.44h0l-.51,1.56h1Z" style="fill:#211e1f"/><path d="M75.86,28l-.76,0-.82,0h0v-.21h.09c.12,0,.31,0,.31-.14a1.16,1.16,0,0,0-.11-.39l-.2-.62H73.12l-.17.56a2,2,0,0,0-.12.42c0,.14.2.17.39.17h.08V28h0l-.67,0L72,28h0v-.21h.06a.49.49,0,0,0,.46-.34L73.39,25c.07-.21.17-.48.22-.7a2.92,2.92,0,0,0,.5-.24h0a.06.06,0,0,1,.06,0s0,.09,0,.14l1,2.88a5.15,5.15,0,0,0,.2.56.31.31,0,0,0,.34.21h.06V28ZM74.3,28h0l.8,0,.74,0v-.11h0a.38.38,0,0,1-.39-.24c-.07-.16-.13-.37-.2-.56l-1-2.89a.69.69,0,0,1,0-.13h-.05a2,2,0,0,1-.49.22,5.49,5.49,0,0,1-.21.69l-.88,2.53a.53.53,0,0,1-.5.38h0V28l.57,0,.64,0v-.11h0c-.18,0-.43,0-.44-.22a2.5,2.5,0,0,1,.12-.44h0l.18-.59h1.29l.22.66a1.76,1.76,0,0,1,.11.4c0,.17-.24.18-.36.19h0V28Zm-1.13-1.62h0l.53-1.61h0v0h0v0h0l.52,1.61Zm.07-.05h1l-.48-1.47-.48,1.47Zm.47-1.53Z" style="fill:#211e1f"/><path d="M77.25,27.48c0,.22.16.29.33.31a6,6,0,0,0,.73,0,.8.8,0,0,0,.53-.3,1.15,1.15,0,0,0,.17-.4h.16c-.06.32-.14.63-.2.94l-1.46,0-1.45,0v-.17h.07c.2,0,.42,0,.42-.37V24.65c0-.29-.22-.31-.42-.31h-.07v-.17l.87,0,.84,0v.17h-.14c-.21,0-.38,0-.38.29v2.85Z" style="fill:#211e1f"/><path d="M79,28l-1.46,0-1.45,0h0v-.21h.1c.2,0,.39,0,.39-.35V24.65c0-.27-.19-.29-.39-.29H76v-.21h0l.87,0,.84,0h0v.21h-.16c-.22,0-.35,0-.35.27v2.85c0,.2.13.26.31.28h.3a3,3,0,0,0,.42,0,.74.74,0,0,0,.51-.28,1.11,1.11,0,0,0,.17-.39v0h.21v0L79,28v0ZM79,28h0c.06-.29.13-.59.19-.89H79a1.11,1.11,0,0,1-.17.39.8.8,0,0,1-.55.31,3,3,0,0,1-.42,0h-.31c-.18,0-.35-.1-.35-.33V24.63c0-.3.19-.32.4-.32h.11v-.12l-.81,0c-.29,0-.57,0-.85,0v.12h0c.2,0,.44,0,.44.34v2.83c0,.36-.24.4-.44.4h0V28l1.43,0L79,28Z" style="fill:#211e1f"/><path d="M79.1,24a.58.58,0,0,1,.59.59.59.59,0,0,1-1.17,0A.58.58,0,0,1,79.1,24Zm0,1.06h0a.48.48,0,1,0-.46-.47A.47.47,0,0,0,79.1,25.07Zm-.28-.17h0v0c.07,0,.08,0,.08-.05v-.43c0-.06,0-.08-.08-.08v0h.3c.1,0,.19,0,.19.16a.18.18,0,0,1-.14.17l.1.14a.4.4,0,0,0,.13.13v0h-.12s-.1-.11-.2-.27H79v.2s0,0,.09,0v0Zm.19-.3h.07c.07,0,.11-.06.11-.15s0-.13-.11-.13H79Z" style="fill:#211e1f"/></g></g></svg>