<svg xmlns="http://www.w3.org/2000/svg" viewBox="0 0 85 43"><g id="background"><g id="Ebene_2" data-name="Ebene 2"><rect width="85" height="43" style="fill:#fff"/></g></g><g id="icon"><path d="M79.53,16.5c-.06.23-.11.46-.18.69a3.8,3.8,0,0,1-2.53,2.7,3.65,3.65,0,0,1-2.68-.11,2.47,2.47,0,0,1-1.51-2.2,4.12,4.12,0,0,1,1.15-3.25,3.84,3.84,0,0,1,2.41-1.17,3.55,3.55,0,0,1,1.74.15,2.34,2.34,0,0,1,1.42,1.46c.05.13,0,.2-.12.25l-1.34.53c-.11,0-.2,0-.24-.09a1.3,1.3,0,0,0-1.88-.72,2.28,2.28,0,0,0-1.2,1.38,2.42,2.42,0,0,0-.13,1.33,1.5,1.5,0,0,0,2.89.22s0-.05,0-.08,0,0,0,0H76.27c-.26,0-.28,0-.24-.28s.08-.56.13-.84.06-.22.27-.22h2.84a1.19,1.19,0,0,1,.26.05Z" style="fill:#002f86"/><path d="M32.19,17.32c.06-.37.11-.71.17-1.05l.42-2.7a.24.24,0,0,1,.27-.23h1.26c.15,0,.2.05.17.22-.11.73-.23,1.47-.34,2.21-.2,1.23-.39,2.46-.59,3.69a1.52,1.52,0,0,1,0,.21.22.22,0,0,1-.22.18H31.88a.37.37,0,0,1-.18-.15c-.76-1.21-1.51-2.42-2.26-3.64l-.12-.2-.1.55c-.16,1.07-.33,2.13-.5,3.2,0,.19-.1.24-.29.24H27.22c-.19,0-.23,0-.2-.23l.45-2.87c.17-1.05.33-2.1.5-3.14,0-.21.1-.28.32-.28h1.25a.27.27,0,0,1,.26.15l2.27,3.66A1.36,1.36,0,0,0,32.19,17.32Z" style="fill:#002f86"/><path d="M70.09,17.32c.06-.32.1-.6.15-.89l.45-2.86a.25.25,0,0,1,.29-.24H72.2c.18,0,.22.05.19.24-.1.66-.21,1.32-.31,2-.21,1.29-.41,2.59-.62,3.89a1.22,1.22,0,0,1,0,.17c0,.17-.1.23-.27.23H69.85a.24.24,0,0,1-.25-.15c-.75-1.23-1.51-2.45-2.28-3.68l-.1-.16c0,.2-.06.36-.09.52-.17,1.07-.33,2.15-.5,3.23,0,.18-.1.24-.3.24H65.12c-.19,0-.22,0-.2-.23.09-.54.17-1.07.26-1.59.2-1.3.4-2.59.61-3.88l.09-.59a.26.26,0,0,1,.27-.23h1.34a.24.24,0,0,1,.22.15L70,17.16Z" style="fill:#002f86"/><path d="M49.35,15.84h2.43c.06-.36.12-.73.17-1.09s.13-.79.19-1.18a.25.25,0,0,1,.27-.24h1.26c.15,0,.2.06.17.23-.11.73-.23,1.47-.35,2.21-.19,1.23-.39,2.46-.58,3.69l0,.2a.22.22,0,0,1-.23.19H51.34c-.15,0-.18-.05-.16-.22.08-.52.17-1,.25-1.56,0-.29.09-.58.14-.87H49.14c0,.21-.08.42-.11.63-.09.59-.18,1.18-.28,1.77,0,.19-.1.25-.28.25H47.23c-.16,0-.21-.05-.18-.21q.42-2.75.86-5.49l.09-.58a.24.24,0,0,1,.27-.23h1.26c.15,0,.2.06.18.22-.11.7-.23,1.41-.34,2.12C49.36,15.73,49.36,15.78,49.35,15.84Z" style="fill:#002f86"/><path d="M7.54,17.35c-.07.48-.15.93-.22,1.37s-.1.63-.14.94a.2.2,0,0,1-.23.19H5.66c-.16,0-.21-.05-.18-.21l.24-1.57c.22-1.36.43-2.72.65-4.08,0-.15,0-.31.07-.47a.2.2,0,0,1,.22-.19l2.76,0a2.17,2.17,0,0,1,.55.12,1.46,1.46,0,0,1,1,1.63A2.22,2.22,0,0,1,9.82,17a6,6,0,0,1-.56.22c.2.34.41.68.62,1s.54.88.8,1.33c0,.06.08.17.05.21a.3.3,0,0,1-.21.08c-.52,0-1,0-1.54,0a.31.31,0,0,1-.34-.22c-.34-.72-.69-1.44-1-2.16Zm.18-1.09H8l.36,0a.93.93,0,0,0,.86-1,.5.5,0,0,0-.45-.58,4.79,4.79,0,0,0-.65,0s-.13.08-.14.14C7.87,15.27,7.8,15.75,7.72,16.26Z" style="fill:#002f86"/><path d="M60.28,13.33h.63c.15,0,.2.07.18.22-.18,1.16-.37,2.32-.54,3.48a3.48,3.48,0,0,0,0,.79.75.75,0,0,0,.73.71,1.2,1.2,0,0,0,1.38-.84A9.84,9.84,0,0,0,63,16.26c.15-.89.28-1.8.42-2.69a.25.25,0,0,1,.28-.24h1.24c.17,0,.21.06.18.23-.13.86-.26,1.72-.4,2.58-.09.54-.16,1.09-.29,1.63A2.73,2.73,0,0,1,62,20a3.9,3.9,0,0,1-2.06-.15,1.66,1.66,0,0,1-1.17-1.63,10.45,10.45,0,0,1,.16-1.57c.14-1,.3-1.95.46-2.93,0-.3.09-.35.39-.35Z" style="fill:#002f86"/><path d="M44.18,13.33h.74a.22.22,0,0,1,.25.21l1,4.56.34,1.52c0,.18,0,.23-.19.23h-1.4a.19.19,0,0,1-.22-.17c0-.28-.12-.55-.17-.83,0-.1-.06-.12-.16-.12H42.29a.18.18,0,0,0-.19.11l-.48.87a.23.23,0,0,1-.24.14H40.06c-.24,0-.29-.08-.17-.29l3.17-5.85c.25-.46.12-.37.65-.37Zm.06,4.09c-.12-.69-.24-1.36-.36-2h0l-1,2Z" style="fill:#002f86"/><path d="M15.5,13.33h.75a.21.21,0,0,1,.24.19c.44,2,.89,4.07,1.33,6.11,0,.17,0,.22-.18.22H16.22a.16.16,0,0,1-.2-.16c0-.27-.12-.54-.17-.82,0-.11-.06-.14-.17-.14H13.62c-.1,0-.15,0-.19.1l-.49.89a.2.2,0,0,1-.22.13H11.36c-.2,0-.25-.08-.16-.26q1.65-3.06,3.32-6.12a.22.22,0,0,1,.22-.14Zm.06,4.09c-.12-.69-.23-1.36-.36-2.08-.35.72-.68,1.39-1,2.08Z" style="fill:#002f86"/><path d="M37,18.41h2.43c.24,0,.27,0,.24.27l-.15.95a.23.23,0,0,1-.26.22h-5c-.05,0-.15,0-.15-.07a.3.3,0,0,1,0-.21l2.65-3.47.91-1.2a.92.92,0,0,0,.09-.13H35.45c-.24,0-.27,0-.23-.25s.09-.62.15-.93.1-.25.31-.25h4.75a.26.26,0,0,1,.2.08.29.29,0,0,1-.05.21L37,18.29Z" style="fill:#002f86"/><path d="M24.72,15.86h1.66c.2,0,.24,0,.21.24l-.15,1a.26.26,0,0,1-.3.23H24.77c-.21,0-.29.06-.32.26s-.09.56-.14.85h1.76c.2,0,.25.05.22.24s-.1.66-.16,1a.23.23,0,0,1-.25.21H22.59c-.15,0-.2-.06-.17-.21.32-2,.63-4,.95-6,0-.2.11-.27.33-.27h3.18c.2,0,.24.06.21.26s-.09.62-.14.93-.1.25-.3.25H25.2c-.25,0-.31.05-.35.3S24.77,15.58,24.72,15.86Z" style="fill:#002f86"/><path d="M21,14.77c-.1.6-.19,1.17-.28,1.74-.16,1-.32,2.06-.49,3.1,0,.18-.1.24-.29.24H18.71c-.18,0-.22,0-.19-.23.25-1.57.49-3.14.74-4.71a.57.57,0,0,0,0-.14H18.09c-.15,0-.2,0-.18-.2.06-.33.11-.66.16-1a.24.24,0,0,1,.27-.23h4.05c.15,0,.21.07.19.21,0,.33-.1.66-.16,1,0,.18-.1.23-.28.23Z" style="fill:#002f86"/><path d="M56,18.41h1.79c.18,0,.23.06.21.23-.05.33-.1.66-.16,1a.22.22,0,0,1-.25.21h-3.3c-.16,0-.2-.05-.18-.2.13-.84.27-1.68.4-2.52.18-1.18.37-2.35.56-3.53,0-.21.1-.26.31-.27H56.5c.22,0,.26.06.23.27C56.47,15.2,56.22,16.79,56,18.41Z" style="fill:#002f86"/><path d="M48.36,28.26c0,.2-.07.38-.07.38h-.43l.54-3.4h.45c-.07.42-.13.83-.2,1.29a1.15,1.15,0,0,1,.69-.37,1,1,0,0,1,1.19.86,1.5,1.5,0,0,1-1.12,1.68A.91.91,0,0,1,48.36,28.26Zm.13-.7a.34.34,0,0,0,0,.1.66.66,0,0,0,.91.61,1,1,0,0,0,.68-1.09.66.66,0,0,0-.76-.62A1,1,0,0,0,48.49,27.56Z" style="fill:#99999a"/><path d="M46.74,25.23c-.06.38-.11.73-.17,1.09-.11.73-.25,1.59-.36,2.32h-.44a2.61,2.61,0,0,0,0-.31l-.09.08a1.15,1.15,0,0,1-1.23.23,1,1,0,0,1-.58-1,1.58,1.58,0,0,1,.58-1.25,1.08,1.08,0,0,1,1.59.15c.05-.3.1-.59.14-.88,0-.13.05-.34.08-.47ZM44.88,28.3h.26l.12,0a1,1,0,0,0,.58-1.46.57.57,0,0,0-.53-.27,1,1,0,0,0-.92,1.24A.64.64,0,0,0,44.88,28.3Z" style="fill:#99999a"/><path d="M36,26.23c.09.63.17,1.25.25,1.87l.51-1.17.29-.7h.47l-.1.2-1,2.21H36c-.08-.6-.16-1.19-.25-1.82l-.08.16c-.23.51-.53,1.15-.75,1.66h-.45c-.12-.8-.23-1.6-.35-2.41h.45c.07.6.14,1.22.21,1.85l.08-.14c.23-.51.53-1.19.75-1.71Z" style="fill:#99999a"/><path d="M28.78,28.62c.18-1.13.35-2.25.54-3.41a13,13,0,0,1,1.4.07c.56.08.82.55.7,1.17a1.18,1.18,0,0,1-1.21,1c-.25,0-.5,0-.76,0-.07.4-.13.8-.2,1.19ZM29.5,27c.26,0,.49,0,.71,0a.78.78,0,0,0,.74-.9.51.51,0,0,0-.44-.49c-.26,0-.52,0-.78,0C29.66,26.1,29.58,26.56,29.5,27Z" style="fill:#99999a"/><path d="M43.68,27.59H41.84a.63.63,0,0,0,.6.74,1.5,1.5,0,0,0,1-.23l0,.37s-.16.09-.32.16a1.65,1.65,0,0,1-.82.08,1,1,0,0,1-.86-.9,1.46,1.46,0,0,1,1-1.61,1.75,1.75,0,0,1,.56,0,.89.89,0,0,1,.79,1C43.72,27.29,43.7,27.43,43.68,27.59Zm-1.79-.38h1.39a.54.54,0,0,0-.36-.66A.88.88,0,0,0,41.89,27.21Z" style="fill:#99999a"/><path d="M39.66,27.59H37.82a.64.64,0,0,0,.61.74,1.45,1.45,0,0,0,1-.23l0,.37s-.16.09-.32.16a1.69,1.69,0,0,1-.83.08,1,1,0,0,1-.86-.9,1.47,1.47,0,0,1,1-1.61,1.77,1.77,0,0,1,.56,0,.89.89,0,0,1,.8,1C39.71,27.29,39.68,27.43,39.66,27.59Zm-1.78-.38h1.39a.55.55,0,0,0-.36-.66A.88.88,0,0,0,37.88,27.21Z" style="fill:#99999a"/><path d="M31.37,27.59a1.42,1.42,0,0,1,1.69-1.41,1.06,1.06,0,0,1,.85,1.07,1.45,1.45,0,0,1-1.45,1.47A1.05,1.05,0,0,1,31.37,27.59Zm.45,0a.7.7,0,0,0,1.11.63,1,1,0,0,0,.5-1,.64.64,0,0,0-.7-.6A1,1,0,0,0,31.82,27.57Z" style="fill:#99999a"/><path d="M50.55,29.69l.33-.57a2.21,2.21,0,0,0,.31-.58,1.92,1.92,0,0,0-.13-.64c-.12-.5-.24-1-.37-1.52l0-.15h.44L51.53,28l.1-.16.88-1.62H53l-.07.15L51,29.69Z" style="fill:#99999a"/><path d="M40.22,26.24h.43c0,.11,0,.22,0,.36a.85.85,0,0,1,.89-.36c0,.13,0,.25-.05.37a.82.82,0,0,0-1,.82c0,.2-.06.39-.09.59s-.06.39-.09.6h-.45c.06-.4.12-.79.19-1.19S40.16,26.65,40.22,26.24Z" style="fill:#99999a"/><path id="path14519" d="M68.37,25.22h-.89a.27.27,0,0,0-.22.11L66,27.16l-.53-1.75a.26.26,0,0,0-.25-.19h-.88a.15.15,0,0,0-.14.2l1,2.91-.93,1.31a.15.15,0,0,0,.13.24h.9a.26.26,0,0,0,.21-.11l3-4.31a.15.15,0,0,0-.13-.24m-6,1.74a1,1,0,0,1-1,.85.74.74,0,0,1-.6-.24.78.78,0,0,1-.14-.63,1,1,0,0,1,1-.86.78.78,0,0,1,.6.25.78.78,0,0,1,.15.63m1.24-1.74h-.89a.17.17,0,0,0-.16.13l0,.25-.07-.09a1.26,1.26,0,0,0-1-.37,2.05,2.05,0,0,0-2,1.79,1.7,1.7,0,0,0,.34,1.37,1.39,1.39,0,0,0,1.12.46,1.71,1.71,0,0,0,1.24-.51l0,.24a.15.15,0,0,0,.15.18H63a.26.26,0,0,0,.25-.22l.49-3.05a.16.16,0,0,0-.16-.18m-5.35,0c-.11.67-.62.67-1.11.67h-.28l.19-1.25a.17.17,0,0,1,.16-.13h.13c.33,0,.65,0,.81.19a.65.65,0,0,1,.1.52m-.22-1.74H56.19a.26.26,0,0,0-.26.21l-.75,4.78a.15.15,0,0,0,.15.18h.89a.25.25,0,0,0,.25-.22l.21-1.29a.26.26,0,0,1,.25-.22h.59a1.91,1.91,0,0,0,2.12-1.77,1.45,1.45,0,0,0-.23-1.2,1.75,1.75,0,0,0-1.36-.47" style="fill:#002f86"/><path id="path14523" d="M78,23.63l-.77,4.86a.16.16,0,0,0,.16.18h.77a.26.26,0,0,0,.25-.22l.75-4.77A.15.15,0,0,0,79,23.5h-.86a.14.14,0,0,0-.15.13M75.67,27a1,1,0,0,1-1,.85.74.74,0,0,1-.6-.24.71.71,0,0,1-.14-.63,1,1,0,0,1,1-.86.71.71,0,0,1,.74.88m1.25-1.74H76a.16.16,0,0,0-.15.13l0,.25-.06-.09a1.29,1.29,0,0,0-1.06-.37,2,2,0,0,0-2,1.79,1.73,1.73,0,0,0,.33,1.37,1.42,1.42,0,0,0,1.13.46,1.7,1.7,0,0,0,1.23-.51l0,.24a.16.16,0,0,0,.16.18h.8a.26.26,0,0,0,.26-.22l.48-3.05a.16.16,0,0,0-.15-.18m-5.36,0c-.1.67-.61.67-1.11.67h-.28l.2-1.25a.16.16,0,0,1,.15-.13h.13c.34,0,.66,0,.82.19a.61.61,0,0,1,.09.52m-.21-1.74H69.48a.26.26,0,0,0-.26.21l-.75,4.78a.16.16,0,0,0,.15.18h1a.18.18,0,0,0,.18-.15L70,27.17a.26.26,0,0,1,.26-.22h.59a1.92,1.92,0,0,0,2.12-1.77A1.47,1.47,0,0,0,72.7,24a1.71,1.71,0,0,0-1.35-.47" style="fill:#009cde"/></g></svg>