<svg xmlns="http://www.w3.org/2000/svg" viewBox="0 0 85 43"><g id="background"><g id="Ebene_2" data-name="Ebene 2"><rect width="85" height="43" style="fill:#fff"/></g></g><g id="icon"><g id="Boundingbox"><rect x="5.84" y="13.65" width="73.32" height="15.7" style="fill:none"/></g><path d="M7.68,17.36V16.28H5.84V22H7.68V20.18c0-1.47.7-2.12,2-2.12H10l.08-1.81a1.77,1.77,0,0,0-.41-.05A2.22,2.22,0,0,0,7.68,17.36Z" style="fill:#005ca9"/><path d="M14.89,16.72a2.6,2.6,0,0,0-1.78-.63,2.86,2.86,0,0,0-2.82,3,2.86,2.86,0,0,0,2.82,3,2.65,2.65,0,0,0,1.78-.62V22h1.84V16.3H14.89ZM13.5,20.59a1.37,1.37,0,0,1-1.4-1.47,1.37,1.37,0,0,1,1.4-1.47,1.42,1.42,0,0,1,1.42,1.47A1.44,1.44,0,0,1,13.5,20.59Z" style="fill:#005ca9"/><path d="M20.92,20.52c-.49,0-.78-.24-.78-.83v-2h1.71V16.28H20.14V14.59H18.31v1.69h-1v1.44h1v2.15a2.07,2.07,0,0,0,2.3,2.28,3.25,3.25,0,0,0,1.58-.42l-.42-1.42A2.85,2.85,0,0,1,20.92,20.52Z" style="fill:#005ca9"/><path d="M25.34,16.09a3,3,0,1,0,0,6.06,2.84,2.84,0,0,0,2.85-1.79L26.56,20a1.29,1.29,0,0,1-1.22.64,1.27,1.27,0,0,1-1.24-1.11h4.22v-.47A2.91,2.91,0,0,0,25.34,16.09Zm-1.21,2.38a1.27,1.27,0,0,1,1.21-.9,1.18,1.18,0,0,1,1.17.9Z" style="fill:#005ca9"/><path d="M32.69,16.09a2.32,2.32,0,0,0-1.76.73v-.54H29.09V22h1.84V19.33c0-1.11.46-1.58,1.19-1.58a1,1,0,0,1,1,1.11V22h1.84v-3.5A2.2,2.2,0,0,0,32.69,16.09Z" style="fill:#005ca9"/><polygon points="41.95 16.27 39.72 16.27 37.91 18.21 37.65 18.21 37.65 13.79 35.82 13.79 35.82 21.97 37.65 21.97 37.65 19.92 37.99 19.92 39.85 21.97 42.2 21.97 39.41 18.99 41.95 16.27" style="fill:#005ca9"/><path d="M46.37,16.72a2.63,2.63,0,0,0-1.79-.63,2.86,2.86,0,0,0-2.81,3,2.86,2.86,0,0,0,2.81,3,2.67,2.67,0,0,0,1.79-.62V22h1.84V16.3H46.37ZM45,20.59a1.37,1.37,0,0,1-1.4-1.47A1.37,1.37,0,0,1,45,17.65a1.47,1.47,0,0,1,0,2.94Z" style="fill:#005ca9"/><path d="M53.07,18.91c0,1.12-.47,1.58-1.19,1.58a1,1,0,0,1-1-1.11v-3.1H49.06v3.49a2.19,2.19,0,0,0,2.22,2.38A2.32,2.32,0,0,0,53,21.42V22h1.84V16.28H53v2.63Z" style="fill:#005ca9"/><path d="M58.09,15.91a.69.69,0,0,1,.75-.72,1.47,1.47,0,0,1,.49.1l.38-1.39a2.8,2.8,0,0,0-1.13-.24,2.13,2.13,0,0,0-2.33,2.2v.44h-.83v1.45h.83V22h1.84V17.7h1.57V16.25H58.09Z" style="fill:#005ca9"/><path d="M23.48,25.48a1.26,1.26,0,0,0-.88.31V24.35h-.91v4h.91v-.23a1.29,1.29,0,0,0,.88.31A1.39,1.39,0,0,0,24.85,27,1.41,1.41,0,0,0,23.48,25.48Zm-.21,2.23a.71.71,0,0,1-.7-.73.7.7,0,0,1,.7-.72A.67.67,0,0,1,24,27,.65.65,0,0,1,23.27,27.71Z" style="fill:#005ca9"/><polygon points="26.48 27.22 25.81 25.56 24.85 25.56 26.01 28.28 25.55 29.34 26.53 29.34 28.16 25.56 27.2 25.56 26.48 27.22" style="fill:#005ca9"/><path d="M31.26,25.48a1.48,1.48,0,1,0,0,2.95,1.38,1.38,0,0,0,1.4-.88l-.8-.15a.66.66,0,0,1-1.22-.21h2.07V27A1.4,1.4,0,0,0,31.26,25.48Zm-.59,1.17a.6.6,0,0,1,.59-.44.55.55,0,0,1,.57.44Z" style="fill:#005ca9"/><path d="M35.27,25.79a1.27,1.27,0,0,0-.88-.31,1.48,1.48,0,0,0,0,2.95,1.18,1.18,0,0,0,.88-.31v.26h.91V25.59h-.91Zm-.69,1.92A.68.68,0,0,1,33.9,27a.67.67,0,0,1,.68-.72.69.69,0,0,1,.69.72A.7.7,0,0,1,34.58,27.71Z" style="fill:#005ca9"/><path d="M38.43,26.67l-.67-.13c-.18-.05-.21-.13-.21-.2s.08-.21.31-.21a.43.43,0,0,1,.47.34l.82-.16c-.1-.49-.57-.8-1.29-.8s-1.22.36-1.22,1c0,.44.31.72.83.82l.57.11c.21.05.29.1.29.2s-.13.24-.37.24-.46-.08-.49-.34l-.88.18c.11.57.68.83,1.35.83s1.29-.34,1.29-.93A.92.92,0,0,0,38.43,26.67Z" style="fill:#005ca9"/><polygon points="40.89 27.22 40.21 25.56 39.26 25.56 40.42 28.28 39.98 29.34 40.94 29.34 42.59 25.56 41.61 25.56 40.89 27.22" style="fill:#005ca9"/><path d="M44.74,27.63a1.1,1.1,0,0,1-1.09-1.11,1.08,1.08,0,0,1,1.09-1.11.92.92,0,0,1,1,.8l.91-.21a1.86,1.86,0,0,0-1.92-1.42,2,2,0,1,0,0,3.93A1.81,1.81,0,0,0,46.63,27l-.91-.18A.94.94,0,0,1,44.74,27.63Z" style="fill:#005ca9"/><path d="M48,26.1v-.54H47v2.82H48V27.5c0-.72.33-1.06,1-1.06h.15l.06-.91a.75.75,0,0,0-.21,0A1.15,1.15,0,0,0,48,26.1Z" style="fill:#005ca9"/><path d="M50.79,25.48a1.48,1.48,0,1,0,0,2.95,1.38,1.38,0,0,0,1.4-.88l-.8-.15a.66.66,0,0,1-1.22-.21h2.07V27A1.41,1.41,0,0,0,50.79,25.48Zm-.59,1.17a.59.59,0,0,1,.59-.44.55.55,0,0,1,.57.44Z" style="fill:#005ca9"/><path d="M54.77,25.79a1.27,1.27,0,0,0-.87-.31,1.48,1.48,0,0,0,0,2.95,1.17,1.17,0,0,0,.87-.31v.26h.91v-4h-.91Zm-.69,1.92A.68.68,0,0,1,53.4,27a.67.67,0,0,1,.68-.72.69.69,0,0,1,.69.72A.7.7,0,0,1,54.08,27.71Z" style="fill:#005ca9"/><path d="M56.66,24.24a.5.5,0,0,0-.51.52.48.48,0,0,0,.51.49.51.51,0,1,0,0-1Z" style="fill:#005ca9"/><rect x="56.22" y="25.59" width="0.91" height="2.79" style="fill:#005ca9"/><path d="M59.64,27.55a.83.83,0,0,1-.42.11c-.23,0-.38-.13-.38-.42v-1h.82v-.7h-.82v-.8h-.91v.83h-.52v.69h.52v1.07a1,1,0,0,0,1.14,1.11,1.47,1.47,0,0,0,.77-.21Z" style="fill:#005ca9"/><circle cx="71.86" cy="21.08" r="7.29" style="fill:#005ca9"/><path d="M70.66,21h0a2.27,2.27,0,0,0-2.28,2.28v2.27h7Z" style="fill:#ec6608"/><path d="M70.66,21h2a2.28,2.28,0,1,0,0-4.55h-2a2.27,2.27,0,0,0-2.28,2.28v4.52A2.27,2.27,0,0,1,70.66,21Z" style="fill:#fff"/></g></svg>