<svg xmlns="http://www.w3.org/2000/svg" viewBox="0 0 85 43"><g id="background"><g id="Ebene_2" data-name="Ebene 2"><rect width="85" height="43" style="fill:#0069b4"/></g></g><g id="icon"><g id="Page-1"><g id="logo_white_scalable" data-name="logo white scalable"><g id="logo_white" data-name="logo white"><path id="Shape" d="M10.52,13.7a1.3,1.3,0,0,0-.6-.21,1.12,1.12,0,0,0-.57.1.3.3,0,0,0-.2.33.54.54,0,0,0,.29.38,1.57,1.57,0,0,0,.64.22,1,1,0,0,0,.57-.09.3.3,0,0,0,.17-.35A.5.5,0,0,0,10.52,13.7Zm2.3.75a.78.78,0,0,0-.33-.4,1.24,1.24,0,0,0-.57-.26c-.4-.08-.7.07-.62.35a.83.83,0,0,0,.33.42,1.66,1.66,0,0,0,.6.28C12.66,14.93,12.91,14.74,12.82,14.45Zm1.69.5a1,1,0,0,0-.31-.43,1.12,1.12,0,0,0-.5-.27c-.35-.11-.57,0-.47.33a1,1,0,0,0,.33.44,1.54,1.54,0,0,0,.53.29C14.42,15.41,14.62,15.24,14.51,15Zm.63.55a1.23,1.23,0,0,0,.44.31c.29.11.44-.05.33-.35a1.64,1.64,0,0,0-.3-.44,1,1,0,0,0-.44-.29c-.29-.11-.46,0-.35.33A2.14,2.14,0,0,0,15.14,15.5Zm-2.23,0a1.13,1.13,0,0,0-.6-.29.72.72,0,0,0-.54.07.4.4,0,0,0-.14.42.92.92,0,0,0,.35.53,1.39,1.39,0,0,0,.64.32.67.67,0,0,0,.51-.09.46.46,0,0,0,.11-.45A.72.72,0,0,0,12.91,15.48Zm2.1,1A1.35,1.35,0,0,0,14.7,16a1.1,1.1,0,0,0-.52-.32c-.37-.11-.59.1-.49.46a1.41,1.41,0,0,0,.33.54,1.17,1.17,0,0,0,.53.33C14.92,17.06,15.12,16.84,15,16.47Zm1.41.5a1.22,1.22,0,0,0-.27-.5,1.17,1.17,0,0,0-.42-.31c-.3-.11-.46.07-.35.44a1.54,1.54,0,0,0,.29.53,1,1,0,0,0,.44.33C16.39,17.54,16.52,17.32,16.42,17Zm-1.25.75a1.23,1.23,0,0,0-.51-.35.43.43,0,0,0-.44.11.65.65,0,0,0-.09.52,1.37,1.37,0,0,0,.31.64A1,1,0,0,0,15,19a.38.38,0,0,0,.42-.15.7.7,0,0,0,.08-.53A1.33,1.33,0,0,0,15.17,17.72Zm1.33,1.62c.27.07.44-.2.35-.63a1.31,1.31,0,0,0-.26-.56,1.12,1.12,0,0,0-.41-.34c-.29-.09-.47.17-.38.59a1.68,1.68,0,0,0,.27.61A.93.93,0,0,0,16.5,19.34Zm.66,1.38a1.38,1.38,0,0,0-.2-.61.72.72,0,0,0-.39-.31.32.32,0,0,0-.35.16,1.07,1.07,0,0,0-.09.57,1.48,1.48,0,0,0,.22.65.58.58,0,0,0,.39.29.31.31,0,0,0,.33-.2A.86.86,0,0,0,17.16,20.72Z" style="fill:#fff"/><path id="Shape-2" data-name="Shape" d="M7,15.85a1.19,1.19,0,0,0,.71.2,1.2,1.2,0,0,0,.72-.2.6.6,0,0,0,.28-.48.62.62,0,0,0-.32-.46,1.32,1.32,0,0,0-.68-.18,1.38,1.38,0,0,0-.68.18.63.63,0,0,0-.31.46A.58.58,0,0,0,7,15.85ZM6.92,18a1.22,1.22,0,0,0,.79.28A1.2,1.2,0,0,0,8.5,18a.73.73,0,0,0,.3-.64.91.91,0,0,0-.33-.61,1.29,1.29,0,0,0-.76-.26,1.14,1.14,0,0,0-.75.26.77.77,0,0,0-.33.61A.75.75,0,0,0,6.92,18ZM9.77,18a1.27,1.27,0,0,0,.77.34,1,1,0,0,0,.7-.21.62.62,0,0,0,.2-.6,1.1,1.1,0,0,0-.36-.65,1.41,1.41,0,0,0-.72-.31.92.92,0,0,0-.68.18.66.66,0,0,0-.26.59A1,1,0,0,0,9.77,18ZM7.71,21a1.23,1.23,0,0,0,.85-.33,1,1,0,0,0,.33-.79,1,1,0,0,0-.37-.77,1.18,1.18,0,0,0-.83-.31,1.21,1.21,0,0,0-.82.31,1.11,1.11,0,0,0-.37.77,1,1,0,0,0,.33.79A1.39,1.39,0,0,0,7.71,21Zm3,.07a.95.95,0,0,0,1-1,1.27,1.27,0,0,0-.37-.78,1.29,1.29,0,0,0-.77-.36,1,1,0,0,0-.76.25,1,1,0,0,0-.29.76,1.25,1.25,0,0,0,.37.81A1.22,1.22,0,0,0,10.73,21.1Zm2.53.13a.72.72,0,0,0,.59-.25A1,1,0,0,0,14,20.3a1.25,1.25,0,0,0-.31-.72,1,1,0,0,0-.64-.37.73.73,0,0,0-.61.2,1,1,0,0,0-.2.7,1.29,1.29,0,0,0,.33.77A1,1,0,0,0,13.26,21.23Zm-5.55.48a1.22,1.22,0,1,0,0,2.43,1.24,1.24,0,0,0,.87-.35,1.24,1.24,0,0,0,0-1.73A1.24,1.24,0,0,0,7.71,21.71Zm3,0a1.06,1.06,0,0,0-.8.33,1.24,1.24,0,0,0-.33.84,1.21,1.21,0,0,0,.33.85,1.06,1.06,0,0,0,1.57,0,1.18,1.18,0,0,0,.31-.82,1.32,1.32,0,0,0-.31-.83A1.34,1.34,0,0,0,10.75,21.75Zm2.55.09a.81.81,0,0,0-.64.29,1.27,1.27,0,0,0,0,1.59.73.73,0,0,0,.64.29.91.91,0,0,0,.61-.33,1.33,1.33,0,0,0,.25-.76,1.19,1.19,0,0,0-.25-.75A.91.91,0,0,0,13.3,21.84Zm2.44.42a.61.61,0,0,0-.46-.31.51.51,0,0,0-.47.28,1.2,1.2,0,0,0-.21.71,1.25,1.25,0,0,0,.21.72.57.57,0,0,0,.47.28.6.6,0,0,0,.46-.32,1.32,1.32,0,0,0,.19-.68A1,1,0,0,0,15.74,22.26Z" style="fill:#fff"/><path id="Shape-3" data-name="Shape" d="M28.83,18.68V18.6a2.26,2.26,0,0,0,2-2.46c0-2.66-2.84-2.66-3.76-2.66H22.52V24.14h4.4c1.1,0,4.17,0,4.17-2.87A2.41,2.41,0,0,0,28.83,18.68Zm-3.51-3.09h1.52c.81,0,1.18.2,1.18,1s-.44,1-1.18,1H25.32ZM27,22.06H25.32v-2.3H26.9c.86,0,1.36.24,1.36,1.16A1.11,1.11,0,0,1,27,22.06Zm19.9-.16V13.48H44V24.14h4.56L49,21.9Zm-7.44-8.41H36.55V24.16h6.89V21.91h-4l0-8.42ZM32.21,24.16h2.94V13.49H32.21Z" style="fill:#fff"/><path id="Shape-4" data-name="Shape" d="M59.19,16.38c0-2-1.35-2.89-3.51-2.89h-4.3l-2,10.67h2.9l.68-3.61h2A4,4,0,0,0,59.19,16.38Zm-4.34,2H53.34l.52-2.71h1.25c.84,0,1.25.28,1.25,1.22A1.42,1.42,0,0,1,54.85,18.37Zm7.46-4.88-6,10.67h3.1L60.62,22h3.86l.27,2.19h2.94L66,13.49Zm-.59,6.38L63.14,17c.2-.43.36-.87.55-1.33h.07c0,.37,0,.83.09,1.36l.37,2.87h-2.5Zm13.4-6.38-2.21,3.18a9,9,0,0,0-.64,1.18H72.2a10.32,10.32,0,0,0-.28-1.36l-1-3H67.8l2.61,6.73-.75,3.92h2.9l.76-3.92,5.18-6.73Z" style="fill:#fff"/><path id="Shape-5" data-name="Shape" d="M24.23,27.78H22.87l-.36,1h-.24l1.14-3h.27l1.14,3h-.24Zm-.07-.2L23.55,26,23,27.58Z" style="fill:#fff"/><path id="Shape-6" data-name="Shape" d="M44.34,27.28h0A1.39,1.39,0,0,1,43,28.81a1.46,1.46,0,0,1-1.44-1.57A1.45,1.45,0,0,1,43,25.68a1.33,1.33,0,0,1,1.12.55l-.19.13a1.12,1.12,0,0,0-1-.48,1.22,1.22,0,0,0-1.2,1.35A1.24,1.24,0,0,0,43,28.59a1.16,1.16,0,0,0,1.12-1.11h-1v-.2Z" style="fill:#fff"/><path id="Shape-7" data-name="Shape" d="M45.92,26.58v.22c-.41,0-.66.3-.66.79v1.16H45V26.6h.2V27A.7.7,0,0,1,45.92,26.58Z" style="fill:#fff"/><path id="Shape-8" data-name="Shape" d="M46.23,27.69a1,1,0,0,1,1-1.14,1.05,1.05,0,0,1,1,1.14,1,1,0,1,1-2,0Zm1.8,0a.85.85,0,0,0-.79-.94c-.46,0-.77.38-.77.94a.83.83,0,0,0,.77.93A.85.85,0,0,0,48,27.69Z" style="fill:#fff"/><path id="Shape-9" data-name="Shape" d="M50.55,26.6v2.15h-.2v-.33a.74.74,0,0,1-.68.39.73.73,0,0,1-.76-.79v-1.4h.22V28c0,.44.22.65.57.65a.61.61,0,0,0,.63-.69v-1.3h.22Z" style="fill:#fff"/><path id="Shape-10" data-name="Shape" d="M53.36,27.69a1,1,0,0,1-1,1.12.84.84,0,0,1-.78-.5v1.18h-.22V26.6h.22v.48a.81.81,0,0,1,.78-.52C53,26.56,53.36,27,53.36,27.69Zm-.22,0c0-.54-.29-.94-.75-.94s-.76.38-.76.94.3.92.76.92S53.14,28.22,53.14,27.69Z" style="fill:#fff"/><path id="Shape-11" data-name="Shape" d="M55.05,27.24a1.44,1.44,0,0,1,1.4-1.56,1.33,1.33,0,0,1,1.23.77l-.2.11a1.1,1.1,0,0,0-1-.66,1.38,1.38,0,0,0,0,2.72,1.11,1.11,0,0,0,1-.66l.2.11a1.33,1.33,0,0,1-1.23.77A1.49,1.49,0,0,1,55.05,27.24Z" style="fill:#fff"/><path id="Shape-12" data-name="Shape" d="M58.18,27.69a1,1,0,0,1,1-1.14,1.06,1.06,0,0,1,1,1.14,1,1,0,1,1-2,0Zm1.8,0a.85.85,0,0,0-.79-.94c-.46,0-.78.38-.78.94a.84.84,0,0,0,.78.93A.85.85,0,0,0,60,27.69Z" style="fill:#fff"/><path id="Shape-13" data-name="Shape" d="M63.73,27.32v1.43H63.5V27.41c0-.42-.2-.64-.51-.64a.58.58,0,0,0-.59.64v1.34h-.22V27.41c0-.42-.2-.64-.53-.64a.58.58,0,0,0-.59.64v1.34h-.22V26.6H61V27a.66.66,0,0,1,.63-.39.67.67,0,0,1,.66.43.71.71,0,0,1,.66-.43A.7.7,0,0,1,63.73,27.32Z" style="fill:#fff"/><path id="Shape-14" data-name="Shape" d="M66.52,27.69a1,1,0,0,1-1,1.12.84.84,0,0,1-.77-.5v1.18h-.22V26.6h.22v.48a.81.81,0,0,1,.77-.52C66.15,26.56,66.52,27,66.52,27.69Zm-.22,0c0-.54-.3-.94-.76-.94s-.75.38-.75.94.29.92.75.92S66.3,28.22,66.3,27.69Z" style="fill:#fff"/><path id="Shape-15" data-name="Shape" d="M68.83,28.59v.16h-.07a.35.35,0,0,1-.35-.35.72.72,0,0,1-.68.39.64.64,0,0,1-.7-.63c0-.38.32-.57.7-.66.55-.13.66-.18.66-.35s-.25-.4-.53-.4a.83.83,0,0,0-.61.29l-.14-.13a.92.92,0,0,1,.75-.35.67.67,0,0,1,.73.67v1C68.63,28.49,68.69,28.59,68.83,28.59ZM68.41,28v-.57a2.07,2.07,0,0,1-.59.2c-.36.09-.57.24-.57.49s.21.45.52.45A.58.58,0,0,0,68.41,28Z" style="fill:#fff"/><path id="Shape-16" data-name="Shape" d="M71.17,27.39v1.36H71V27.48c0-.46-.22-.71-.59-.71a.63.63,0,0,0-.64.71v1.27H69.5V26.6h.2V27a.73.73,0,0,1,.7-.41A.76.76,0,0,1,71.17,27.39Z" style="fill:#fff"/><path id="Shape-17" data-name="Shape" d="M73.48,26.6l-.77,2c-.18.46-.33.9-.84.9h-.15v-.19h.13c.29,0,.42-.16.62-.64l-.79-2.08h.24l.66,1.78.68-1.78Z" style="fill:#fff"/><path id="Shape-18" data-name="Shape" d="M28.26,27.45A2.37,2.37,0,0,0,29,25.74h-.68a1.72,1.72,0,0,1-.69,1.39l-.28.21,1.05,1.41h.84Z" style="fill:#fff"/><rect id="Rectangle-path" x="26.55" y="25.74" width="0.7" height="3.01" style="fill:#fff"/><rect id="Rectangle-path-2" data-name="Rectangle-path" x="29.42" y="25.74" width="0.66" height="3.01" style="fill:#fff"/><path id="Shape-19" data-name="Shape" d="M35.65,27.19c.27,0,.42.17.42.46v1.1h.62V27.43a.83.83,0,0,0-.88-.83.71.71,0,0,0-.64.3v-.24h-.63v2.09h.63v-1.1a.44.44,0,0,1,.48-.46" style="fill:#fff"/><path id="Shape-20" data-name="Shape" d="M31.47,28.26a.54.54,0,1,1,0-1.07.54.54,0,1,1,0,1.07ZM32,26.8a1,1,0,0,0-.62-.18,1.11,1.11,0,0,0,0,2.21,1.16,1.16,0,0,0,.62-.19v.13h.63v-2.1H32Z" style="fill:#fff"/><path id="Shape-21" data-name="Shape" d="M34.25,27.28v-.61a.79.79,0,0,0-.61.28v-.28H33v2.1h.64v-1a.57.57,0,0,1,.61-.52Z" style="fill:#fff"/><path id="Shape-22" data-name="Shape" d="M38.07,28.26a.54.54,0,1,1,.57-.54.57.57,0,0,1-.57.54Zm.55-1.46a1,1,0,0,0-.62-.18,1.11,1.11,0,0,0,0,2.21,1.16,1.16,0,0,0,.62-.19v.13h.63v-2.1h-.63Z" style="fill:#fff"/><path id="Shape-23" data-name="Shape" d="M39.65,26.71h0s0,0,0,0,0,0,0,0h0Zm0,.08h0l0,.05h0v-.07s0,0,0,0,0-.06-.05-.06h-.06v.17h0Z" style="fill:#fff"/><path id="Shape-24" data-name="Shape" d="M39.67,26.64c.07,0,.11.05.11.13a.12.12,0,0,1-.11.13.13.13,0,0,1,0-.26m0,.27a.15.15,0,1,0-.15-.14.16.16,0,0,0,.15.14" style="fill:#fff"/><path id="Shape-25" data-name="Shape" d="M39.93,28a.39.39,0,0,0-.39.38.4.4,0,0,0,.39.39.38.38,0,0,0,.38-.39.39.39,0,0,0-.38-.38" style="fill:#fff"/></g></g></g></g></svg>