<svg xmlns="http://www.w3.org/2000/svg" viewBox="0 0 85 43"><g id="background"><g id="Ebene_2" data-name="Ebene 2"><rect width="85" height="43" style="fill:#862165"/></g></g><g id="icon"><path d="M62.76,12l5.7-1V32.9h-5.7Zm8.37,0V33h5.7V11ZM54.65,32.9h5.7v-16h-5.7ZM16.89,19.17c-.76-.07-2.41-.14-2.41-1.65,0-1.79,2.41-1.79,3.3-1.79a20.79,20.79,0,0,1,5.08.89,13.89,13.89,0,0,1,1.51.62h.07v-5h-.07a20.2,20.2,0,0,0-7.48-1.17c-6.46,0-8.72,3.78-8.72,6.94,0,1.85.82,6.25,8.17,6.73.62.07,2.26.13,2.26,1.71,0,1.31-1.37,2.06-3.64,2.06a17.48,17.48,0,0,1-6.38-1.23v5.15a31,31,0,0,0,7.62.89c6.32,0,9.13-3.57,9.13-7.07C25.33,22.12,22.17,19.51,16.89,19.17Zm34.54-2.55c-5.29.14-8,2.55-8,7.28v9h5.77V25.55c0-2.81.34-4.05,3.71-4.12V16.76A8,8,0,0,0,51.43,16.62Zm-15.52.21a20,20,0,0,1-3.23,5.56V11l-5.9,1.17V32.9h5.9V26.44a21.58,21.58,0,0,1,2.54,6.46h7.07c-.68-2.89-3.77-8.24-3.77-8.24a26.37,26.37,0,0,0,4.12-7.83Zm21.56-1.51a2.82,2.82,0,1,0-2.82-2.82A2.84,2.84,0,0,0,57.47,15.32Z" style="fill:#fff"/></g></svg>