<svg xmlns="http://www.w3.org/2000/svg" viewBox="0 0 85 43"><g id="background"><g id="Ebene_2" data-name="Ebene 2"><rect width="85" height="43" style="fill:#fff"/></g></g><g id="icon"><path d="M23.46,13.36a3.67,3.67,0,0,1-2.95,1.39,4.21,4.21,0,0,1,1-3.06,4.47,4.47,0,0,1,2.93-1.51,4.46,4.46,0,0,1-1,3.18m1,1.62c-1.63-.1-3,.92-3.79.92s-2-.88-3.26-.85a4.79,4.79,0,0,0-4.09,2.48c-1.76,3-.46,7.5,1.24,10,.83,1.22,1.83,2.56,3.14,2.51s1.73-.81,3.24-.81,1.94.81,3.25.79,2.22-1.22,3.05-2.44a10.51,10.51,0,0,0,1.36-2.8,4.41,4.41,0,0,1-2.65-4,4.51,4.51,0,0,1,2.15-3.78,4.63,4.63,0,0,0-3.64-2m9.41-3.4V29.85h2.84V23.6h3.93a5.8,5.8,0,0,0,6.1-6,5.72,5.72,0,0,0-6-6ZM36.73,14H40c2.46,0,3.87,1.31,3.87,3.62S42.46,21.22,40,21.22H36.73ZM51.94,30a4.7,4.7,0,0,0,4.19-2.33h.06v2.19h2.62v-9.1c0-2.63-2.11-4.33-5.36-4.33-3,0-5.23,1.72-5.32,4.09h2.56a2.48,2.48,0,0,1,2.68-1.87c1.74,0,2.71.81,2.71,2.3v1l-3.54.21c-3.29.2-5.07,1.55-5.07,3.89S49.31,30,51.94,30Zm.76-2.17c-1.51,0-2.47-.73-2.47-1.84s.93-1.82,2.7-1.92l3.15-.2v1A3.08,3.08,0,0,1,52.7,27.82Zm9.62,7c2.76,0,4.06-1.06,5.2-4.26l5-14H69.62l-3.34,10.8h-.06l-3.34-10.8h-3L64.72,29.9l-.26.8a2.25,2.25,0,0,1-2.39,1.9c-.22,0-.66,0-.83,0v2.19A8.91,8.91,0,0,0,62.32,34.82Z"/></g></svg>