<svg xmlns="http://www.w3.org/2000/svg" viewBox="0 0 85 43"><g id="background"><g id="Ebene_2" data-name="Ebene 2"><rect width="85" height="43" style="fill:#fff"/></g></g><g id="icon"><path id="_92653320" data-name=" 92653320" d="M7.5,11.85a5.42,5.42,0,0,1,5.43-5.4H72.07a5.42,5.42,0,0,1,5.43,5.4v19.3a5.42,5.42,0,0,1-5.43,5.4H12.93a5.42,5.42,0,0,1-5.43-5.4V11.85Z" style="fill:#000268"/><path id="_92186184" data-name=" 92186184" d="M9.73,12V31a3.38,3.38,0,0,0,3.39,3.37h31V8.66h-31A3.38,3.38,0,0,0,9.73,12Zm42.38,9.37c0,1.2-.59,2-1.58,2a1.78,1.78,0,0,1-1.6-1.93c0-1.13.64-2,1.6-2A1.67,1.67,0,0,1,52.11,21.41Zm-5.79,6.91h2.61V24.21h0a2.63,2.63,0,0,0,2.4,1.23c2.25,0,3.46-1.85,3.46-4.09,0-1.83-1.15-3.82-3.24-3.82a3,3,0,0,0-2.82,1.54h0V17.7H46.32Zm12.07-5.45c0-.72.69-1,1.58-1,.39,0,.77,0,1.1.05a1.7,1.7,0,0,1-1.61,1.78C58.85,23.7,58.39,23.4,58.39,22.87Zm5.27,2.4a9,9,0,0,1-.15-1.79V20.67c0-2.31-1.67-3.14-3.6-3.14a7.77,7.77,0,0,0-3,.54l0,1.77a4.9,4.9,0,0,1,2.41-.57c.95,0,1.72.28,1.73,1.31a7.43,7.43,0,0,0-1.22-.1c-1.39,0-3.9.27-3.9,2.58,0,1.64,1.33,2.38,2.83,2.38a2.59,2.59,0,0,0,2.39-1.36h0c0,.39,0,.78.06,1.19Zm1.17,3.05a7.47,7.47,0,0,0,1.63.18c2.4,0,3-1.85,3.7-3.75l2.78-7H70.32l-1.55,4.94h0L67.11,17.7H64.3l3.06,7.74a1.33,1.33,0,0,1-1.32,1,3,3,0,0,1-1-.16Z" style="fill:#fff"/><path id="_47303032" data-name=" 47303032" d="M16.11,21.42c0-1,.51-1.89,1.48-1.89a1.66,1.66,0,0,1,1.67,1.79,1.77,1.77,0,0,1-1.67,1.95C16.81,23.27,16.11,22.6,16.11,21.42Zm5.68-3.72H19.42v1.37h0a3,3,0,0,0-2.58-1.54c-2.35,0-3.41,1.68-3.41,3.94s1.29,3.8,3.37,3.8A3,3,0,0,0,19.32,24h0v.4c0,1.49-.81,2.2-2.32,2.2A5.13,5.13,0,0,1,14.47,26L14.34,28a9,9,0,0,0,2.89.48c3.05,0,4.56-1,4.56-4.12Zm4.42-3.15H23.6v1.92h2.61ZM23.6,25.27h2.61V17.7H23.6Zm9.89-7.65a4.87,4.87,0,0,0-.89-.09,2.33,2.33,0,0,0-2.23,1.57h0V17.7H28v7.57h2.61V22.08c0-1.49.68-2.37,1.9-2.37a3.28,3.28,0,0,1,.89.08Zm4.5,6c-1.2,0-1.7-1-1.7-2.12s.5-2.13,1.7-2.13,1.7,1,1.7,2.13S39.2,23.61,38,23.61Zm0,1.83c2.5,0,4.4-1.45,4.4-4s-1.9-4-4.4-4-4.4,1.45-4.4,4S35.49,25.44,38,25.44Z" style="fill:#ff0007"/></g></svg>