<svg xmlns="http://www.w3.org/2000/svg" viewBox="0 0 85 43"><g id="background"><g id="Ebene_2" data-name="Ebene 2"><rect width="85" height="43" style="fill:#fff"/></g></g><g id="icon"><path d="M21.67,3.13V39.87H43.08c14.13,0,20.25-7.92,20.25-18.41S57.21,3.13,43.08,3.13Z" style="fill:#fff"/><path d="M25.84,7.3V35.69H43.09c10.41,0,16.08-4.85,16.08-14.23C59.17,11.82,53,7.3,43.09,7.3ZM43.09,5.83c15.27,0,17.55,9.79,17.55,15.63,0,10.13-6.23,15.71-17.55,15.71H24.36V5.83Z"/><rect x="28.15" y="23.55" width="5.52" height="9.83"/><path d="M34.34,18.6a3.43,3.43,0,1,1-3.43-3.43,3.43,3.43,0,0,1,3.43,3.43"/><path d="M36.45,17v3.2h1c.68,0,1.31-.19,1.31-1.62S38.05,17,37.44,17Zm16.41-1.59h1.59V20.2H56.8c-.64-8.7-7.49-10.58-13.71-10.58H36.45v5.79h1c1.79,0,2.9,1.21,2.9,3.17s-1.09,3.21-2.9,3.21h-1V33.38h6.64c10.11,0,13.64-4.7,13.76-11.59h-4ZM48.43,19h1.15l-.53-1.8H49ZM45.94,21.8l1.93-6.39h2.26l1.93,6.39H50.4L50,20.56H48L47.6,21.8Zm-.76-1.6v1.59H41.24V15.41h3.81V17H42.83v.74h2.1v1.59h-2.1v.87Z" style="fill:#c06"/></g></svg>