<svg xmlns="http://www.w3.org/2000/svg" viewBox="0 0 85 43"><g id="background"><g id="Ebene_2" data-name="Ebene 2"><rect width="85" height="43" style="fill:#fff"/></g></g><g id="icon"><path d="M31.94,19.75a5.6,5.6,0,0,0-1.08-.91,3.15,3.15,0,0,0-1.58-.34,2.38,2.38,0,0,0-.83.09l-.75.25,1.16-5-3,.5L22.54,28.41a4.54,4.54,0,0,0,1.16.41l1.17.25a3.77,3.77,0,0,0,1,.09h.58a6.13,6.13,0,0,0,2.5-.5,6.64,6.64,0,0,0,2-1.42,6.09,6.09,0,0,0,1.33-2.08,6.7,6.7,0,0,0,.5-2.49,5,5,0,0,0-.25-1.59A4,4,0,0,0,31.94,19.75ZM29.7,24.33A4.46,4.46,0,0,1,29,25.58a5.11,5.11,0,0,1-1,.91,2.34,2.34,0,0,1-1.25.34h-.91L27,21.42a3.15,3.15,0,0,1,.75-.42,2.16,2.16,0,0,1,.67-.08,1.27,1.27,0,0,1,1.16.5A3.14,3.14,0,0,1,30,22.83,4.2,4.2,0,0,1,29.7,24.33ZM33,28.91h2.83l2.41-10.16H35.44Zm3.16-11.74a1.67,1.67,0,0,0,1.08.33,2.52,2.52,0,0,0,.75-.16,1.47,1.47,0,0,0,.58-.42,2.18,2.18,0,0,0,.42-.58,2.54,2.54,0,0,0,.17-.75,1.24,1.24,0,0,0-.5-1.08,1.7,1.7,0,0,0-1.09-.33,2.39,2.39,0,0,0-.74.16,1.48,1.48,0,0,0-.59.42,2.37,2.37,0,0,0-.41.58,2.26,2.26,0,0,0-.17.75A1.24,1.24,0,0,0,36.19,17.17Zm6.24,3.91h3.16l.59-2.33H43l.75-3-3,.5-1.92,8a7.71,7.71,0,0,0-.25,1.83,5,5,0,0,0,.25,1.58,2.53,2.53,0,0,0,1,1.08,4.59,4.59,0,0,0,2.08.42A8.48,8.48,0,0,0,43.51,29c.42-.08.84-.25,1.25-.33l-.16-2.25c-.34.08-.59.17-.84.25a3.21,3.21,0,0,1-.91.08,2.13,2.13,0,0,1-.83-.16,1,1,0,0,1-.42-.42,1.66,1.66,0,0,1-.08-.66,3.93,3.93,0,0,1,.16-.84Zm9.66-.16a1.88,1.88,0,0,1,1,.16,7.65,7.65,0,0,0,.83.25l1-2.24a4.26,4.26,0,0,0-1.25-.42,8.68,8.68,0,0,0-1.58-.17,6.13,6.13,0,0,0-2.5.5,6.83,6.83,0,0,0-1.91,1.33,8.14,8.14,0,0,0-1.25,2,7.84,7.84,0,0,0-.42,2.5,5.25,5.25,0,0,0,.25,1.66A4.84,4.84,0,0,0,47,27.91a3.58,3.58,0,0,0,1.33.91,5,5,0,0,0,2,.34A9.56,9.56,0,0,0,51.92,29a5,5,0,0,0,1.17-.41l-.25-2.34a2.82,2.82,0,0,1-.92.25,4.07,4.07,0,0,1-1.08.09A1.84,1.84,0,0,1,49.26,26a2.93,2.93,0,0,1-.42-1.58,3.94,3.94,0,0,1,.83-2.66A4.23,4.23,0,0,1,52.09,20.92Zm11.23-1.25a3.27,3.27,0,0,0-1.24-.83,5.39,5.39,0,0,0-1.75-.34,4.51,4.51,0,0,0-2.42.59,6,6,0,0,0-1.74,1.49,6.32,6.32,0,0,0-1.09,2.09A7.46,7.46,0,0,0,54.75,25,5.25,5.25,0,0,0,55,26.66,4.27,4.27,0,0,0,55.75,28a3.12,3.12,0,0,0,1.25.83,5.34,5.34,0,0,0,1.75.34,5.08,5.08,0,0,0,2.49-.58A5.32,5.32,0,0,0,63,27.08,6.25,6.25,0,0,0,64.07,25a7.56,7.56,0,0,0,.34-2.33A5.57,5.57,0,0,0,64.16,21,5,5,0,0,0,63.32,19.67Zm-2,4.58a4.19,4.19,0,0,1-.5,1.25,4.27,4.27,0,0,1-.84.91,1.65,1.65,0,0,1-1.08.33,1.13,1.13,0,0,1-1.08-.5,3.25,3.25,0,0,1-.33-1.49,6.58,6.58,0,0,1,.16-1.25,4.09,4.09,0,0,1,.5-1.25,4.32,4.32,0,0,1,.84-.92A1.65,1.65,0,0,1,60.08,21a1.15,1.15,0,0,1,1.08.5,3.27,3.27,0,0,1,.33,1.5A9.07,9.07,0,0,1,61.33,24.25Zm6.41-7.08a1.65,1.65,0,0,0,1.08.33,2.52,2.52,0,0,0,.75-.16,1.55,1.55,0,0,0,.58-.42,2.43,2.43,0,0,0,.42-.58,2.52,2.52,0,0,0,.16-.75,1.22,1.22,0,0,0-.5-1.08,1.65,1.65,0,0,0-1.08-.33,2.52,2.52,0,0,0-.75.16,1.45,1.45,0,0,0-.58.42,2.43,2.43,0,0,0-.42.58,2.52,2.52,0,0,0-.16.75A1.22,1.22,0,0,0,67.74,17.17ZM67,18.75,64.57,28.91H67.4l2.42-10.16Zm12,1.09a3.3,3.3,0,0,0-3.08-1.34,5.82,5.82,0,0,0-1.33.09c-.42.08-.75.08-1.08.16s-.58.17-.92.25l-.75.25-2.24,9.66H72.4l1.83-7.83A5.66,5.66,0,0,1,75.39,21a1.11,1.11,0,0,1,.84.25.86.86,0,0,1,.33.58,1.49,1.49,0,0,1,0,.84c-.08.33-.08.66-.17,1l-1.25,5.25H78l1.34-5.5A4.55,4.55,0,0,0,79,19.84Z" style="fill:#4d4d4e"/><path d="M13,19.09l-.42,1.66c.5.08,1.91.58,2.16-.33S13.47,19.25,13,19.09Zm-.59,2.58L12,23.5c.58.16,2.33.66,2.58-.34S13,21.75,12.38,21.67Zm2.5-7.49a7.59,7.59,0,1,0,5.49,9.15A7.5,7.5,0,0,0,14.88,14.18Zm1.5,6.32a1.34,1.34,0,0,1-1.08,1.25,1.48,1.48,0,0,1,.75,2c-.42,1.25-1.5,1.41-2.92,1.16l-.33,1.42L12,26.08l.33-1.33c-.25-.09-.42-.09-.67-.17l-.33,1.25-.83-.25.33-1.42c-.16-.08-.41-.08-.58-.16l-1.08-.25.41-1,.59.17c.25.16.33,0,.41-.09l.59-2.16h0l.41-1.58a.5.5,0,0,0-.41-.5l-.59-.17.25-.92,1.17.25h0c.16.09.33.09.5.17l.33-1.41.83.25-.41,1.41c.25.08.41.08.66.17L14.22,17l.83.24-.34,1.42C15.8,18.92,16.55,19.42,16.38,20.5Z" style="fill:#f69320"/></g></svg>