<svg xmlns="http://www.w3.org/2000/svg" viewBox="0 0 85 43"><g id="twt-background"><g id="Ebene_2" data-name="Ebene 2"><rect width="85" height="43" style="fill:#fff"/></g></g><g id="twt-primary"><path d="M13.37,24.59a1.88,1.88,0,0,1-.75-.8,2.94,2.94,0,0,1-.26-1.27V17.81a2.87,2.87,0,0,1,.26-1.27,2,2,0,0,1,.75-.81,2.32,2.32,0,0,1,1.18-.28,2.32,2.32,0,0,1,1.18.28,1.77,1.77,0,0,1,.74.81,2.9,2.9,0,0,1,.26,1.27v.57H15.32v-.57a1.35,1.35,0,0,0-.09-.52A.71.71,0,0,0,15,17a.79.79,0,0,0-.84,0,.73.73,0,0,0-.26.33,1.22,1.22,0,0,0-.1.53v4.71a1.18,1.18,0,0,0,.1.52.68.68,0,0,0,.26.33.74.74,0,0,0,.42.12.7.7,0,0,0,.42-.12.71.71,0,0,0,.26-.33,1.4,1.4,0,0,0,.09-.53v-.57h1.41v.57a3,3,0,0,1-.26,1.28,1.76,1.76,0,0,1-.75.8,2.28,2.28,0,0,1-1.17.28A2.32,2.32,0,0,1,13.37,24.59Z"/><path d="M18.23,24.4a2.09,2.09,0,0,1-.4-1.4,2.23,2.23,0,0,1,.54-1.63,2.07,2.07,0,0,1,1.57-.56h.67L20.7,22H20a.74.74,0,0,0-.62.26,1.19,1.19,0,0,0-.21.76.69.69,0,0,0,.16.51.61.61,0,0,0,.47.17.76.76,0,0,0,.59-.22.9.9,0,0,0,.2-.63l.12.57a2,2,0,0,1-.15.81,1.08,1.08,0,0,1-.44.5,1.37,1.37,0,0,1-.7.16A1.46,1.46,0,0,1,18.23,24.4ZM20.57,20a.69.69,0,0,0-.18-.51.67.67,0,0,0-.5-.18.54.54,0,0,0-.43.18.84.84,0,0,0-.16.51H18a1.79,1.79,0,0,1,2-1.93A2.35,2.35,0,0,1,21,18.3a1.55,1.55,0,0,1,.68.66,2.13,2.13,0,0,1,.23,1v4.78H20.57Z"/><path d="M23.93,24.62a1.71,1.71,0,0,1-.71-.7,2.05,2.05,0,0,1-.25-1V22.8h1.32v.07a.82.82,0,0,0,.19.56.67.67,0,0,0,.52.21.69.69,0,0,0,.51-.2.73.73,0,0,0,.19-.51.57.57,0,0,0-.13-.4.91.91,0,0,0-.3-.25,4.78,4.78,0,0,0-.52-.23l-.08,0a.32.32,0,0,1-.09,0h-.06a4.24,4.24,0,0,1-.74-.39,1.76,1.76,0,0,1-.52-.59,2,2,0,0,1-.21-1,2.19,2.19,0,0,1,.23-1,1.65,1.65,0,0,1,.67-.69,2,2,0,0,1,1-.24,2.15,2.15,0,0,1,1,.23,1.65,1.65,0,0,1,.66.65,2,2,0,0,1,.23,1V20l-1.32,0V20a.67.67,0,0,0-.15-.46.54.54,0,0,0-.42-.17.53.53,0,0,0-.42.18.78.78,0,0,0-.15.51.64.64,0,0,0,.13.42.79.79,0,0,0,.31.26,3.08,3.08,0,0,0,.52.21h.1a3.89,3.89,0,0,1,.81.36,1.47,1.47,0,0,1,.55.58,2.06,2.06,0,0,1,.23,1,2.16,2.16,0,0,1-.25,1,1.72,1.72,0,0,1-.71.68,2.31,2.31,0,0,1-1.07.24A2.17,2.17,0,0,1,23.93,24.62Z"/><path d="M28,15.55h1.4v9.23H28Zm2.7,4.63a1,1,0,0,0-.16-.61.57.57,0,0,0-.49-.21.58.58,0,0,0-.49.21,1,1,0,0,0-.16.62l-.13-.87a1.94,1.94,0,0,1,.59-.93,1.32,1.32,0,0,1,.87-.32,1.2,1.2,0,0,1,1,.45,2,2,0,0,1,.36,1.28v5h-1.4Z"/><path d="M36.21,18.19H37.6v9.26H36.21ZM38,24.57a1.65,1.65,0,0,1-.5-.83l.09-1a1.26,1.26,0,0,0,.08.46.59.59,0,0,0,.22.29.62.62,0,0,0,.34.1.56.56,0,0,0,.47-.23,1.06,1.06,0,0,0,.16-.64V20.17a1,1,0,0,0-.16-.62.57.57,0,0,0-.47-.21.62.62,0,0,0-.34.09.54.54,0,0,0-.22.27,1.21,1.21,0,0,0-.08.45l-.13-.87a1.91,1.91,0,0,1,.57-.89,1.2,1.2,0,0,1,.81-.32,1.24,1.24,0,0,1,.75.23,1.42,1.42,0,0,1,.48.67A3,3,0,0,1,40.25,20v2.85A3.14,3.14,0,0,1,40.08,24a1.48,1.48,0,0,1-.5.68,1.31,1.31,0,0,1-.78.23A1.15,1.15,0,0,1,38,24.57Z"/><path d="M41.81,24.4a2.09,2.09,0,0,1-.4-1.4,2.22,2.22,0,0,1,.53-1.63,2.09,2.09,0,0,1,1.57-.56h.68L44.27,22h-.71a.72.72,0,0,0-.62.26,1.19,1.19,0,0,0-.21.76.74.74,0,0,0,.15.51.64.64,0,0,0,.47.17.74.74,0,0,0,.59-.22.86.86,0,0,0,.21-.63l.12.57a2.12,2.12,0,0,1-.16.81,1.06,1.06,0,0,1-.43.5,1.41,1.41,0,0,1-.71.16A1.44,1.44,0,0,1,41.81,24.4ZM44.15,20a.69.69,0,0,0-.18-.51.68.68,0,0,0-.5-.18.52.52,0,0,0-.43.18.78.78,0,0,0-.16.51H41.54a1.9,1.9,0,0,1,.52-1.42,1.94,1.94,0,0,1,1.43-.51,2.39,2.39,0,0,1,1.08.23,1.6,1.6,0,0,1,.68.66,2.25,2.25,0,0,1,.23,1v4.78H44.15Z"/><path d="M46.23,18.19h1.35l1.34,5.7-.68,1.51Zm4.58,0-1.88,8.13a1.56,1.56,0,0,1-.33.67,1.46,1.46,0,0,1-.63.4,2.8,2.8,0,0,1-.92.13h-.34V26.17h.36a1,1,0,0,0,.59-.15.87.87,0,0,0,.28-.53l1.52-7.3Z"/><path d="M51.62,18.19H53v6.59h-1.4Zm2.72,2a1,1,0,0,0-.16-.62.6.6,0,0,0-.49-.2.64.64,0,0,0-.5.2,1,1,0,0,0-.17.63l-.13-.88a2.09,2.09,0,0,1,.61-.92,1.39,1.39,0,0,1,.88-.31,1.45,1.45,0,0,1,.74.19,1.22,1.22,0,0,1,.46.56,2.43,2.43,0,0,1,.16.91v5.05h-1.4Zm2.71,0a1,1,0,0,0-.17-.62.61.61,0,0,0-.5-.2.58.58,0,0,0-.48.2,1,1,0,0,0-.16.63l-.15-.88a2,2,0,0,1,.6-.92,1.44,1.44,0,0,1,.89-.31,1.34,1.34,0,0,1,.74.2,1.27,1.27,0,0,1,.47.59,2.4,2.4,0,0,1,.16.94v5h-1.4Z"/><path d="M60.65,24.62a1.65,1.65,0,0,1-.7-.71,2.54,2.54,0,0,1-.24-1.15V20.3a2.81,2.81,0,0,1,.23-1.21,1.76,1.76,0,0,1,.69-.76,2.15,2.15,0,0,1,1.07-.26,2.17,2.17,0,0,1,1.09.25,1.55,1.55,0,0,1,.69.72,2.54,2.54,0,0,1,.24,1.15V22h-3V20.92h1.62v-.75a1,1,0,0,0-.17-.63.61.61,0,0,0-.51-.22.59.59,0,0,0-.49.23,1.2,1.2,0,0,0-.17.68v2.58a.84.84,0,0,0,.19.58.66.66,0,0,0,.52.21.69.69,0,0,0,.49-.16.61.61,0,0,0,.17-.45v-.14h1.33V23a1.84,1.84,0,0,1-.52,1.41,2,2,0,0,1-1.47.49A2.24,2.24,0,0,1,60.65,24.62Z"/><path d="M65,18.19H66.4v6.59H65Zm2.71,2a1,1,0,0,0-.16-.62.59.59,0,0,0-.5-.21.55.55,0,0,0-.48.21,1,1,0,0,0-.16.63l-.14-.86a2,2,0,0,1,.59-.93,1.36,1.36,0,0,1,.87-.32,1.23,1.23,0,0,1,1,.45,2,2,0,0,1,.35,1.28v5H67.7Z"/><path d="M70,18.19h2.92v1.29H70Zm1,6.18a1.92,1.92,0,0,1-.39-1.31V16.27H72v6.66a.57.57,0,0,0,.12.39.36.36,0,0,0,.32.14h.47v1.35h-.66A1.61,1.61,0,0,1,71,24.37Z"/></g></svg>