<svg xmlns="http://www.w3.org/2000/svg" viewBox="0 0 85 43"><g id="background"><g id="Ebene_2" data-name="Ebene 2"><rect width="85" height="43" style="fill:#fff"/></g></g><g id="icon"><path d="M57.18,21.88H53.07a.82.82,0,0,1-.83-.82.85.85,0,0,1,.83-.85h6.26V17.12H53.07a4,4,0,1,0,0,7.92h4.06a.83.83,0,0,1,.83.82.8.8,0,0,1-.83.79H48.42a6,6,0,0,1-2.91,3.23H57.18a4,4,0,0,0,0-8Z" style="fill:#71706f"/><path d="M41.41,17.12a6.34,6.34,0,0,0-6.32,6.36V36.73h3.15V29.88h3.17a6.38,6.38,0,0,0,0-12.76Zm0,9.53H38.24V23.47a3.18,3.18,0,1,1,6.35,0A3.16,3.16,0,0,1,41.41,26.65Z" style="fill:#71706f"/><path d="M25.09,29.88A6.42,6.42,0,0,1,18.92,25a9.18,9.18,0,0,1-.2-1.52,9.84,9.84,0,0,1,.19-1.54,6.37,6.37,0,0,1,12.55,1.52V25H22.15a3.18,3.18,0,0,0,2.94,1.68h8.37V17.56A2.47,2.47,0,0,0,31,15.1H19.15a2.45,2.45,0,0,0-2.47,2.43V29.39a2.5,2.5,0,0,0,2.47,2.5H31a2.45,2.45,0,0,0,2.43-2Z" style="fill:#c8036f"/><path d="M25.08,20.09a3.43,3.43,0,0,0-2.94,1.79H28A3.43,3.43,0,0,0,25.08,20.09Z" style="fill:#c8036f"/><path d="M30.45,11.24A5.38,5.38,0,0,0,19.7,11.1v1.61a.38.38,0,0,0,.35.38h2a.39.39,0,0,0,.36-.38V11.24h0a2.69,2.69,0,0,1,5.37,0v1.47a.38.38,0,0,0,.35.38h2a.39.39,0,0,0,.36-.38V11.24Z" style="fill:#c8036f"/><path d="M45,34l-.28,1.62a1.32,1.32,0,0,1-1.41,1.19.92.92,0,0,1-.95-1.19L42.59,34H43l-.29,1.62c-.09.51.14.79.57.79a.89.89,0,0,0,.91-.79L44.51,34Zm-1.73-.5a.21.21,0,0,0,.22.2.28.28,0,0,0,.29-.29.19.19,0,0,0-.21-.2A.29.29,0,0,0,43.22,33.47Zm1,0a.2.2,0,0,0,.22.21.29.29,0,0,0,.28-.29.19.19,0,0,0-.2-.2A.28.28,0,0,0,44.18,33.46Z" style="fill:#71706f"/><path d="M46,34l-.2,1.12a1,1,0,0,1,.75-.35.76.76,0,0,1,.83.82,1.15,1.15,0,0,1-1.2,1.22.67.67,0,0,1-.62-.34l-.07.29h-.39L45.61,34Zm-.31,1.89a.47.47,0,0,0,.5.54.79.79,0,0,0,.78-.75.47.47,0,0,0-.5-.53A.79.79,0,0,0,45.71,35.86Z" style="fill:#71706f"/><path d="M48.21,35.92c0,.27.19.49.55.49a1,1,0,0,0,.6-.21l.22.25a1.35,1.35,0,0,1-.9.34.81.81,0,0,1-.89-.86A1.2,1.2,0,0,1,49,34.73c.63,0,1,.39.77,1.19Zm1.25-.33c0-.34-.17-.48-.49-.48a.7.7,0,0,0-.7.48Z" style="fill:#71706f"/><path d="M50.89,34.78l0,.26a.73.73,0,0,1,.63-.3.61.61,0,0,1,.45.16l-.24.36a.45.45,0,0,0-.33-.12.61.61,0,0,0-.62.53l-.19,1.06h-.41l.35-1.95Z" style="fill:#71706f"/><path d="M53.92,34.78l.21,1.54.74-1.54h.46l-1,1.95h-.48l-.2-1.29-.31.64-.34.65H52.5l-.35-1.95h.47l.2,1.54.75-1.54Z" style="fill:#71706f"/><path d="M55.86,35.92c0,.27.19.49.55.49a1,1,0,0,0,.6-.21l.22.25a1.35,1.35,0,0,1-.9.34.81.81,0,0,1-.89-.86,1.2,1.2,0,0,1,1.23-1.2c.63,0,1,.39.77,1.19Zm1.25-.33c0-.34-.17-.48-.5-.48a.7.7,0,0,0-.69.48Z" style="fill:#71706f"/><path d="M58.56,34.78l-.34,1.95h-.41l.35-1.95Zm-.36-.53a.21.21,0,0,0,.22.21.28.28,0,0,0,.3-.3.19.19,0,0,0-.2-.2A.3.3,0,0,0,58.2,34.25Z" style="fill:#71706f"/><path d="M60.38,35.26a.61.61,0,0,0-.49-.18c-.27,0-.46.09-.46.26s.16.2.39.22.81.15.72.66-.43.58-.94.58a.93.93,0,0,1-.83-.36l.26-.29a.84.84,0,0,0,.64.29c.19,0,.42-.07.46-.26s-.12-.24-.41-.27-.69-.15-.69-.52.52-.66.92-.66a.92.92,0,0,1,.71.26Z" style="fill:#71706f"/><path d="M61.67,34.78l-.19,1c-.06.33.09.56.44.56a.69.69,0,0,0,.65-.59l.18-1h.4l-.34,1.95h-.37l0-.29a1,1,0,0,1-.73.33c-.48,0-.77-.35-.67-.94l.19-1Z" style="fill:#71706f"/><path d="M65,36.73l.19-1c.06-.33-.06-.56-.43-.56a.7.7,0,0,0-.66.59l-.18,1h-.4l.34-1.95h.37l0,.28a1,1,0,0,1,.71-.31c.48,0,.79.33.68.93l-.19,1Z" style="fill:#71706f"/><path d="M66.34,37c0,.26.17.37.52.37a.68.68,0,0,0,.7-.59l.06-.34a.93.93,0,0,1-.74.35A.79.79,0,0,1,66,36a1.17,1.17,0,0,1,1.22-1.21.61.61,0,0,1,.6.35l.07-.31h.4l-.34,2a1.11,1.11,0,0,1-1.19,1c-.6,0-.93-.29-.85-.76Zm.11-1.13a.5.5,0,0,0,.53.54c.85,0,1.08-1.3.23-1.3A.75.75,0,0,0,66.45,35.87Z" style="fill:#71706f"/></g></svg>