<svg xmlns="http://www.w3.org/2000/svg" viewBox="0 0 85 43"><g id="background"><g id="Ebene_2" data-name="Ebene 2"><rect width="85" height="43" style="fill:#fff"/></g></g><g id="icon"><circle cx="51" cy="24.11" r="1.34" style="fill:#ff5073"/><path d="M45.15,18.57a3.27,3.27,0,0,0-3.23,3.48,3.2,3.2,0,0,0,3.47,3.39,5,5,0,0,0,2.69-.74l-.58-1.27a3.63,3.63,0,0,1-1.8.51h-.33a.45.45,0,0,1-.11,0h0l-.11,0-.06,0-.07,0-.09,0h0a.45.45,0,0,1-.12-.06,1,1,0,0,1-.23-.18l-.08-.08a.05.05,0,0,1,0,0l-.05-.06-.07-.09a2.08,2.08,0,0,1-.25-.83h4.28v0h0V21.9A3.16,3.16,0,0,0,45.15,18.57Zm-1.07,2.76c.07-.87.51-1.32,1.09-1.32s1,.45,1.09,1.32Z" style="fill:#2d2341"/><path d="M27.28,20.58c0-.31.31-.5.83-.5a4,4,0,0,1,1.52.37l.57-1.35A5,5,0,0,0,28,18.57c-1.53,0-2.77.7-2.77,2.09,0,2.18,3.08,1.78,3.08,2.75,0,.36-.36.54-1,.54a3.77,3.77,0,0,1-1.66-.43L25,24.84a5.54,5.54,0,0,0,2.5.6c1.49,0,2.78-.77,2.78-2.19,0-2.15-3-1.79-3-2.67Z" style="fill:#2d2341"/><path d="M15.4,18.57a5.55,5.55,0,0,0-2.89.78l.56,1.17a5.25,5.25,0,0,1,1.82-.46c.48,0,.9.16.9.67v.43c-2.84-.21-3.65,1-3.65,2.19a2.13,2.13,0,0,0,2.2,2.07A2.93,2.93,0,0,0,15.78,25v.29h2.06V20.72C17.85,19.24,16.91,18.57,15.4,18.57Zm-.35,5.52a.77.77,0,0,1-.86-.76c0-.54.42-1.07,1.66-.87v1.38h0A1.35,1.35,0,0,1,15.05,24.09Z" style="fill:#2d2341"/><path d="M34.17,18.57a5.55,5.55,0,0,0-2.89.78l.56,1.17a5.31,5.31,0,0,1,1.83-.46c.47,0,.89.16.89.67v.43c-2.84-.21-3.65,1-3.65,2.19a2.13,2.13,0,0,0,2.2,2.07A2.9,2.9,0,0,0,34.55,25v.29h2.06V20.72C36.62,19.24,35.69,18.57,34.17,18.57Zm-.42,5.52a.77.77,0,0,1-.86-.76c0-.54.43-1.07,1.66-.87v1.38h0A1.35,1.35,0,0,1,33.75,24.09Z" style="fill:#2d2341"/><path d="M38.3,18.46v.28H37.21v1.4H38.3v5.15h2.05V20.14h1.41V18.73H40.35v-.35c0-.58.23-1,.86-1a2,2,0,0,1,.6.09V16a4,4,0,0,0-1-.13A2.34,2.34,0,0,0,38.3,18.46Z" style="fill:#2d2341"/><polygon points="23.11 18.73 21.7 22.64 20.07 18.73 17.96 18.73 20.73 24.97 19.87 27.11 21.82 27.11 25.14 18.71 23.11 18.73" style="fill:#2d2341"/><path d="M9,16.41H5.63v8.87H7.74V22.05H9a2.77,2.77,0,0,0,3-2.88C12,17.6,11.07,16.41,9,16.41ZM8.81,20.5H7.74V18H8.81A1.15,1.15,0,0,1,10,19.24,1.12,1.12,0,0,1,8.81,20.5Z" style="fill:#2d2341"/><circle cx="51" cy="19.91" r="1.34" style="fill:#7887e6"/><path d="M63.92,18.57a5.51,5.51,0,0,0-2.88.78l.56,1.17a5.19,5.19,0,0,1,1.82-.46c.48,0,.9.16.9.67v.43c-2.84-.21-3.65,1-3.65,2.19a2.12,2.12,0,0,0,2.2,2.07A2.93,2.93,0,0,0,64.31,25v.29h2.07V20.72C66.38,19.24,65.45,18.57,63.92,18.57Zm-.4,5.52a.77.77,0,0,1-.87-.76c0-.54.44-1.07,1.67-.87v1.38A1.35,1.35,0,0,1,63.52,24.09Z" style="fill:#7887e6"/><path d="M67.87,23.51a4,4,0,0,0,1.66.43c.6,0,1-.18,1-.54,0-1-3.08-.56-3.08-2.76,0-1.39,1.23-2.08,2.77-2.08a5,5,0,0,1,2.19.53l-.58,1.36a4,4,0,0,0-1.52-.37c-.51,0-.82.19-.82.5,0,.88,3,.52,3,2.67,0,1.42-1.28,2.19-2.78,2.19a5.55,5.55,0,0,1-2.51-.6l.68-1.33Z" style="fill:#7887e6"/><path d="M77.31,25.28V20.91c0-.49-.22-.82-.71-.82a2.39,2.39,0,0,0-1.3.55v4.64H73.24V16.43H75.3v3a3.48,3.48,0,0,1,2.1-.86c.84,0,2,.43,2,2.23v4.48Z" style="fill:#7887e6"/><path d="M58.16,23a1.18,1.18,0,0,1-1.16,1c-.91,0-1.27-.85-1.27-1.93s.4-1.94,1.27-1.94a1.17,1.17,0,0,1,1.15,1h2A3.14,3.14,0,0,0,57,18.56,3.24,3.24,0,0,0,53.54,22,3.23,3.23,0,0,0,57,25.41a3.13,3.13,0,0,0,3.13-2.48h-2Z" style="fill:#7887e6"/></g></svg>