<svg xmlns="http://www.w3.org/2000/svg" viewBox="0 0 85 43"><g id="twt-background"><g id="Ebene_2" data-name="Ebene 2"><rect width="85" height="43" style="fill:#fff"/></g></g><g id="twt-primary"><path d="M17.7,15.55h1.39v9.23H17.7Zm.9,7.9H20a.67.67,0,0,0,.5-.19.84.84,0,0,0,.17-.55V17.62a.82.82,0,0,0-.17-.55.64.64,0,0,0-.5-.2H18.6V15.55h1.5a2.28,2.28,0,0,1,1.09.23,1.67,1.67,0,0,1,.69.68,2.28,2.28,0,0,1,.24,1.09v5.23a2.27,2.27,0,0,1-.25,1.08,1.62,1.62,0,0,1-.69.68,2.27,2.27,0,0,1-1.08.24H18.6Z"/><path d="M23.37,15.59h1.39V17H23.37Zm0,2.6h1.39v6.59H23.37Z"/><path d="M26.08,18.19h1.4v6.59h-1.4Zm3,1.32h-.18a1.37,1.37,0,0,0-1,.35,1.26,1.26,0,0,0-.36.95l-.14-1.47a2.4,2.4,0,0,1,.78-.93,1.76,1.76,0,0,1,1.05-.34V19.5Z"/><path d="M30.89,24.62a1.65,1.65,0,0,1-.7-.71A2.54,2.54,0,0,1,30,22.76V20.3a3,3,0,0,1,.23-1.21,1.76,1.76,0,0,1,.69-.76A2.16,2.16,0,0,1,32,18.07a2.27,2.27,0,0,1,1.08.25,1.68,1.68,0,0,1,.7.72A2.54,2.54,0,0,1,34,20.19V22H31V20.92h1.62v-.75a1,1,0,0,0-.18-.63.61.61,0,0,0-.5-.22.55.55,0,0,0-.49.24,1.07,1.07,0,0,0-.17.67v2.58a.89.89,0,0,0,.18.59.69.69,0,0,0,.53.2.68.68,0,0,0,.48-.16.61.61,0,0,0,.17-.45v-.14H34V23a1.84,1.84,0,0,1-.52,1.41,2,2,0,0,1-1.46.49A2.25,2.25,0,0,1,30.89,24.62Z"/><path d="M36,24.65a1.55,1.55,0,0,1-.7-.64,2.09,2.09,0,0,1-.24-1V20.06A2.27,2.27,0,0,1,35.34,19a1.7,1.7,0,0,1,.7-.68,2.45,2.45,0,0,1,1.1-.23,2.35,2.35,0,0,1,1.1.24,1.54,1.54,0,0,1,.7.68,2.27,2.27,0,0,1,.24,1.08v.39H37.81v-.33a.87.87,0,0,0-.17-.59.57.57,0,0,0-.48-.21.61.61,0,0,0-.49.21.86.86,0,0,0-.17.57v2.8a.69.69,0,0,0,.17.5.64.64,0,0,0,.49.18.59.59,0,0,0,.48-.19.72.72,0,0,0,.17-.53v-.3H39.2V23A2.11,2.11,0,0,1,39,24a1.63,1.63,0,0,1-.7.65,2.53,2.53,0,0,1-1.11.23A2.45,2.45,0,0,1,36,24.65Z"/><path d="M39.69,18.19h2.92v1.29H39.69Zm1,6.18a1.87,1.87,0,0,1-.4-1.31V16.27h1.39v6.67a.56.56,0,0,0,.11.38.37.37,0,0,0,.32.14h.47v1.35H42A1.58,1.58,0,0,1,40.72,24.37Z"/><path d="M46.3,15.55h1.39v9.23H46.3Zm.91,7.9h1.43a.67.67,0,0,0,.5-.19.84.84,0,0,0,.17-.55V17.62a.82.82,0,0,0-.17-.55.64.64,0,0,0-.5-.2H47.21V15.55H48.7a2.28,2.28,0,0,1,1.09.23,1.67,1.67,0,0,1,.69.68,2.28,2.28,0,0,1,.24,1.09v5.23a2.16,2.16,0,0,1-.25,1.08,1.62,1.62,0,0,1-.69.68,2.27,2.27,0,0,1-1.08.24H47.21Z"/><path d="M52.85,24.62a1.6,1.6,0,0,1-.7-.71,2.54,2.54,0,0,1-.25-1.15V20.3a2.81,2.81,0,0,1,.24-1.21,1.76,1.76,0,0,1,.69-.76,2.12,2.12,0,0,1,1.07-.26,2.28,2.28,0,0,1,1.09.25,1.65,1.65,0,0,1,.69.72,2.54,2.54,0,0,1,.24,1.15V22H53V20.92h1.62v-.75a1,1,0,0,0-.18-.63.65.65,0,0,0-1,0,1.14,1.14,0,0,0-.17.67v2.58a.84.84,0,0,0,.19.59.8.8,0,0,0,1,0,.61.61,0,0,0,.17-.45v-.14h1.33V23a1.84,1.84,0,0,1-.52,1.41,2.06,2.06,0,0,1-1.47.49A2.21,2.21,0,0,1,52.85,24.62Z"/><path d="M57.19,15.55h1.4v9.23h-1.4Zm1.8,9a1.71,1.71,0,0,1-.49-.83l.09-1a1.26,1.26,0,0,0,.08.46.64.64,0,0,0,.21.29.55.55,0,0,0,.34.1.56.56,0,0,0,.47-.23,1.06,1.06,0,0,0,.17-.64V20.17a1,1,0,0,0-.17-.61.55.55,0,0,0-.47-.22.62.62,0,0,0-.34.09.58.58,0,0,0-.21.27,1.25,1.25,0,0,0-.08.45l-.13-.87a2.14,2.14,0,0,1,.57-.89,1.2,1.2,0,0,1,.8-.32,1.29,1.29,0,0,1,.76.23,1.42,1.42,0,0,1,.48.67A3,3,0,0,1,61.24,20v2.85A3.14,3.14,0,0,1,61.07,24a1.48,1.48,0,0,1-.5.68,1.36,1.36,0,0,1-.79.23A1.16,1.16,0,0,1,59,24.57Z"/><path d="M62.43,15.59h1.38V17H62.43Zm0,2.6h1.38v6.59H62.43Z"/><path d="M64.62,18.19h2.92v1.29H64.62Zm1,6.18a1.92,1.92,0,0,1-.39-1.31V16.27h1.38v6.67a.56.56,0,0,0,.12.38.37.37,0,0,0,.32.14h.47v1.35h-.66A1.61,1.61,0,0,1,65.64,24.37Z"/></g></svg>