<svg xmlns="http://www.w3.org/2000/svg" viewBox="0 0 85 43"><g id="background"><g id="Ebene_2" data-name="Ebene 2"><rect width="85" height="43" style="fill:#fccc12"/></g></g><g id="icon"><path id="path24" d="M67.77,27.66l.76-3.59H6.64l-.76,3.59H67.77" style="fill:#fff"/><path id="path26" d="M75.22,19.18s.83-3.81.84-3.84H70.79s-1.09,5.05-1.09,5.07h1.35s.83-3.79.83-3.79h2.56s-.81,3.8-.83,3.83h3.9L77,22.79H73.12s-.78,3.58-.78,3.58H69.41s-.26,1.28-.27,1.29h4.31s.78-3.59.78-3.59H78.1s1-4.87,1-4.89h-3.9" style="fill:#eb1b24"/><path id="path28" d="M65.68,20.3a.91.91,0,0,1,.93,1c0,.11,0,.2,0,.31h-2.4A1.62,1.62,0,0,1,65.68,20.3ZM66.88,25l.3-1.41a4.88,4.88,0,0,1-1.68.32c-.76,0-1.42-.26-1.46-1.17H68a4.5,4.5,0,0,0,.23-1.35A2.21,2.21,0,0,0,65.8,19a3.44,3.44,0,0,0-3.39,3.64,2.49,2.49,0,0,0,2.78,2.6A5.64,5.64,0,0,0,66.88,25Zm-6.44-1.2a1.13,1.13,0,0,1-1.29-1.29A1.9,1.9,0,0,1,61,20.47a3.55,3.55,0,0,1,1.16.26l.28-1.35a4.59,4.59,0,0,0-1.55-.29,3.4,3.4,0,0,0-3.45,3.52,2.38,2.38,0,0,0,2.63,2.59A3.45,3.45,0,0,0,61.34,25l.31-1.38a3.47,3.47,0,0,1-1.21.23Zm-8.19,1.27.65-3c.26-1.21.86-1.62,1.47-1.62.8,0,.89.59.74,1.27l-.71,3.35h1.69l.75-3.44c.37-1.71-.43-2.62-1.67-2.62a2.6,2.6,0,0,0-1.92.88l.15-.7H51.82l-1.26,5.88ZM46.16,23.4c0-.6.52-.93,1.39-.93a6.37,6.37,0,0,1,.86.06l-.07.33A1.53,1.53,0,0,1,46.9,24c-.49,0-.74-.24-.74-.64Zm1.64-4.33a7.21,7.21,0,0,0-1.84.26l-.29,1.36a7.52,7.52,0,0,1,1.79-.3c.89,0,1.21.27,1.21.73a1.27,1.27,0,0,1,0,.27l0,.12c-.43-.05-.83-.08-1-.08-1.69,0-3,.65-3,2.19a1.62,1.62,0,0,0,1.8,1.61,2.24,2.24,0,0,0,1.75-.76l-.13.62h1.5l.74-3.36a3.92,3.92,0,0,0,.08-.76c0-1-.56-1.9-2.51-1.9Zm-8.22,6,.65-3c.27-1.21.86-1.62,1.47-1.62.8,0,.89.59.74,1.27l-.71,3.35h1.69l.75-3.44c.37-1.71-.43-2.62-1.67-2.62a2.6,2.6,0,0,0-1.92.88l.15-.7H39.16l-1.27,5.88Zm-3-7.5a.87.87,0,0,0,.88.95,1,1,0,0,0,1-.95.88.88,0,0,0-.88-.95,1,1,0,0,0-1,.95Zm-.24,1.62L35,25.09h1.69L38,19.21Zm-4.79,5.88L32.19,22h2.56l.31-1.5H32.51l.39-1.89h2.69l.33-1.5H31.48l-1.69,8ZM29.85,20.5l.28-1.29H28.31l.36-1.63L26.9,18l-1.1,5c-.31,1.43.47,2.21,1.9,2.21A4.2,4.2,0,0,0,28.85,25l.28-1.29a4.19,4.19,0,0,1-.95.14c-.48,0-.83-.17-.71-.76L28,20.5Zm-6.42,2.86c0,.47-.58.56-1.07.56a6,6,0,0,1-1.67-.29L20.41,25a8.12,8.12,0,0,0,1.85.24c1.51,0,2.75-.57,2.75-2,0-1.84-2.21-1.52-2.21-2.34,0-.37.36-.5.91-.5a6.39,6.39,0,0,1,1.53.29l.29-1.34a6.58,6.58,0,0,0-1.66-.23c-1.65,0-2.64.74-2.64,2,0,1.79,2.2,1.49,2.2,2.31Zm-6.37,1.91a3.44,3.44,0,0,0,3.4-3.12A2.47,2.47,0,0,0,17.91,19a3.44,3.44,0,0,0-3.4,3.12,2.46,2.46,0,0,0,2.55,3.12Zm.15-1.36c-.68,0-1.21-.54-1-1.76s.84-1.75,1.52-1.75,1.21.54.94,1.75-.83,1.76-1.5,1.76Zm-7.15-1.25h.75c2.38,0,3.71-1.17,3.71-3.13,0-1.45-1-2.4-2.8-2.4H9.52l-1.68,8h1.7l.52-2.43Zm.3-1.46.56-2.62h.71c.78,0,1.16.32,1.16,1.07,0,1-.61,1.55-1.72,1.55h-.71" style="fill:#231f20"/></g></svg>