<svg xmlns="http://www.w3.org/2000/svg" viewBox="0 0 85 43"><g id="background"><g id="Ebene_2" data-name="Ebene 2"><rect width="85" height="43" style="fill:#fff"/></g></g><g id="icon"><path id="Fill-1" d="M77.5,19.11a2,2,0,1,1-2-2,2,2,0,0,1,2,2" style="fill:#7887e6;fill-rule:evenodd"/><path id="Fill-3" d="M77.5,25.39a2,2,0,1,1-2-2,2,2,0,0,1,2,2" style="fill:#ff5073;fill-rule:evenodd"/><path id="Fill-5" d="M12.26,20h-1.6V16.18h1.6A1.73,1.73,0,0,1,14,18.11,1.69,1.69,0,0,1,12.26,20Zm.34-6.13H7.5V27.16h3.16V22.31H12.6A4.16,4.16,0,0,0,17.09,18C17.09,15.64,15.65,13.87,12.6,13.87Zm21.1,3.47-2.12,5.87-2.43-5.87H26l4.16,9.36-1.3,3.22h2.94l5-12.58Zm22.76-.41v.41H54.83v2.1h1.63v7.72h3.07V19.44h2.12v-2.1H59.53v-.52c0-.87.34-1.48,1.29-1.48a3.26,3.26,0,0,1,.9.13v-2.2a5.68,5.68,0,0,0-1.46-.19A3.5,3.5,0,0,0,56.46,16.93ZM50.86,25a2.05,2.05,0,0,1-1.21.39,1.15,1.15,0,0,1-1.29-1.16c0-.8.64-1.6,2.5-1.29Zm-.59-7.89a8.28,8.28,0,0,0-4.34,1.17L46.78,20a7.53,7.53,0,0,1,2.73-.7c.72,0,1.35.25,1.35,1V21c-4.25-.3-5.47,1.57-5.47,3.29a3.19,3.19,0,0,0,3.31,3.1,4.31,4.31,0,0,0,2.16-.66v.43h3.08V20.32C53.94,18.11,52.54,17.11,50.27,17.11ZM22.84,25a2.05,2.05,0,0,1-1.21.39,1.15,1.15,0,0,1-1.3-1.16c0-.8.64-1.6,2.51-1.29Zm-.71-7.89a8.28,8.28,0,0,0-4.34,1.17L18.64,20a7.53,7.53,0,0,1,2.74-.7c.71,0,1.34.25,1.34,1V21c-4.24-.3-5.47,1.57-5.47,3.29a3.19,3.19,0,0,0,3.31,3.1,4.31,4.31,0,0,0,2.16-.66v.43h3.09V20.32C25.81,18.11,24.4,17.11,22.13,17.11Zm17.8,3c0-.46.47-.75,1.24-.75a6,6,0,0,1,2.27.56l.87-2a7.71,7.71,0,0,0-3.3-.79c-2.29,0-4.14,1-4.14,3.12,0,3.27,4.62,2.68,4.62,4.12,0,.54-.54.81-1.44.81a5.72,5.72,0,0,1-2.51-.66l-1,2a8.23,8.23,0,0,0,3.76.9c2.23,0,4.16-1.15,4.16-3.27C44.48,20.88,39.93,21.42,39.93,20.11Zm26.81-.84c.85,0,1.52.67,1.64,2H65.1C65.22,19.94,65.89,19.27,66.74,19.27Zm4.75,3.6V22.1a4.73,4.73,0,0,0-4.75-5,4.9,4.9,0,0,0-4.85,5.2c0,3.1,2,5.08,5.2,5.08a7.4,7.4,0,0,0,4-1.1l-.86-1.91a5.51,5.51,0,0,1-2.69.76h-.26l-.2,0h0l-.15,0-.06,0-.15,0-.08,0-.11,0-.12-.05,0,0-.18-.09h0a1.46,1.46,0,0,1-.34-.26h0l-.12-.12,0,0-.06-.09a.78.78,0,0,1-.1-.15h0a3.07,3.07,0,0,1-.37-1.24h6.39Z" style="fill:#2d2341;fill-rule:evenodd"/></g></svg>