<svg xmlns="http://www.w3.org/2000/svg" viewBox="0 0 85 43"><g id="twt-background"><g id="Ebene_2" data-name="Ebene 2"><rect width="85" height="43" style="fill:#fff"/></g></g><g id="twt-primary"><path d="M18.38,15.55h1.4v9.23h-1.4Zm1.11,5.05,2.1-5.05h1.55l-3.71,7.63Zm.75-.81,1-.94,2.25,5.93H21.89Z"/><path d="M23.93,18.19h1.4v6.59h-1.4Zm2.95,1.32h-.17a1.35,1.35,0,0,0-1,.35,1.26,1.26,0,0,0-.37.95l-.13-1.47a2.3,2.3,0,0,1,.77-.93A1.76,1.76,0,0,1,27,18.07V19.5Z"/><path d="M28.75,24.62a1.68,1.68,0,0,1-.71-.71,2.54,2.54,0,0,1-.24-1.15V20.3A2.81,2.81,0,0,1,28,19.09a1.73,1.73,0,0,1,.68-.76,2.16,2.16,0,0,1,1.08-.26,2.34,2.34,0,0,1,1.09.25,1.71,1.71,0,0,1,.69.72,2.54,2.54,0,0,1,.24,1.15V22h-3V20.92h1.62v-.75a1,1,0,0,0-.18-.63.61.61,0,0,0-.5-.22.56.56,0,0,0-.49.24,1.14,1.14,0,0,0-.17.67v2.58a.89.89,0,0,0,.18.59.71.71,0,0,0,.53.2.65.65,0,0,0,.48-.16A.57.57,0,0,0,30.5,23v-.14h1.34V23a1.88,1.88,0,0,1-.52,1.41,2.06,2.06,0,0,1-1.47.49A2.21,2.21,0,0,1,28.75,24.62Z"/><path d="M33.59,24.67a1.28,1.28,0,0,1-.47-.65A2.8,2.8,0,0,1,33,23V20a2.84,2.84,0,0,1,.16-1,1.44,1.44,0,0,1,.47-.66,1.23,1.23,0,0,1,.74-.23,1.24,1.24,0,0,1,.81.31,2.18,2.18,0,0,1,.6.87l-.14.89a1.11,1.11,0,0,0-.07-.43.58.58,0,0,0-.21-.27.65.65,0,0,0-.35-.09.57.57,0,0,0-.47.21.91.91,0,0,0-.17.58v2.73a.79.79,0,0,0,.17.54.59.59,0,0,0,.47.2.65.65,0,0,0,.35-.09.61.61,0,0,0,.21-.26,1.09,1.09,0,0,0,.07-.42l.09.9a1.73,1.73,0,0,1-.52.85,1.27,1.27,0,0,1-.84.3A1.22,1.22,0,0,1,33.59,24.67Zm2-9.12H37v9.23H35.6Z"/><path d="M38.32,15.59H39.7V17H38.32Zm0,2.6H39.7v6.59H38.32Z"/><path d="M40.52,18.19h2.92v1.29H40.52Zm1,6.18a1.92,1.92,0,0,1-.39-1.31V16.27h1.38v6.67a.61.61,0,0,0,.11.38.39.39,0,0,0,.33.14h.47v1.35h-.66A1.58,1.58,0,0,1,41.54,24.37Z"/><path d="M44.51,15.55h1.38v9.23H44.51Zm.8,6.59,2.3-3.95H49L45.37,24Zm1.06-.74.85-1,2.08,4.36H47.81Z"/><path d="M50.1,24.4a2.09,2.09,0,0,1-.4-1.4,2.24,2.24,0,0,1,.54-1.63,2.07,2.07,0,0,1,1.57-.56h.67L52.57,22h-.72a.74.74,0,0,0-.62.26A1.19,1.19,0,0,0,51,23a.69.69,0,0,0,.16.51.61.61,0,0,0,.47.17.76.76,0,0,0,.59-.22.9.9,0,0,0,.2-.63l.12.57a2,2,0,0,1-.15.81,1.08,1.08,0,0,1-.44.5,1.37,1.37,0,0,1-.7.16A1.47,1.47,0,0,1,50.1,24.4ZM52.44,20a.69.69,0,0,0-.18-.51.65.65,0,0,0-.5-.18.54.54,0,0,0-.43.18.84.84,0,0,0-.16.51H49.83a1.79,1.79,0,0,1,2-1.93,2.35,2.35,0,0,1,1.07.23,1.55,1.55,0,0,1,.68.66,2.13,2.13,0,0,1,.24,1v4.78H52.44Z"/><path d="M55.16,18.19h1.4v6.59h-1.4Zm3,1.32h-.18a1.38,1.38,0,0,0-1,.35,1.26,1.26,0,0,0-.36.95l-.14-1.47a2.4,2.4,0,0,1,.78-.93,1.76,1.76,0,0,1,1-.34V19.5Z"/><path d="M58.78,18.19H61.7v1.29H58.78Zm1,6.18a1.92,1.92,0,0,1-.39-1.31V16.27h1.38v6.67a.56.56,0,0,0,.12.38.36.36,0,0,0,.32.14h.47v1.35H61A1.6,1.6,0,0,1,59.8,24.37Z"/><path d="M63.58,24.62a1.65,1.65,0,0,1-.7-.71,2.54,2.54,0,0,1-.24-1.15V20.3a2.81,2.81,0,0,1,.23-1.21,1.76,1.76,0,0,1,.69-.76,2.15,2.15,0,0,1,1.07-.26,2.28,2.28,0,0,1,1.09.25,1.68,1.68,0,0,1,.7.72,2.68,2.68,0,0,1,.23,1.15V22h-3V20.92h1.61v-.75a1,1,0,0,0-.17-.63.61.61,0,0,0-.51-.22.55.55,0,0,0-.48.24,1.07,1.07,0,0,0-.18.67v2.58a.89.89,0,0,0,.19.59.69.69,0,0,0,.53.2.68.68,0,0,0,.48-.16.61.61,0,0,0,.17-.45v-.14h1.33V23a1.84,1.84,0,0,1-.52,1.41,2,2,0,0,1-1.46.49A2.25,2.25,0,0,1,63.58,24.62Z"/></g></svg>