<svg xmlns="http://www.w3.org/2000/svg" viewBox="0 0 85 43"><g id="background"><g id="Ebene_2" data-name="Ebene 2"><rect width="85" height="43" style="fill:#fff"/></g></g><g id="icon"><path d="M78.73,36.6H6.27a.78.78,0,0,1-.77-.78V7.18a.78.78,0,0,1,.77-.78H78.73a.78.78,0,0,1,.77.78V35.82A.78.78,0,0,1,78.73,36.6ZM6.27,6.83a.35.35,0,0,0-.34.35V35.82a.35.35,0,0,0,.34.35H78.73a.35.35,0,0,0,.34-.35V7.18a.35.35,0,0,0-.34-.35Z" style="fill:#aeb1bc"/><path d="M43.08,22.69a5.64,5.64,0,0,1-2.65-.64l.25-1.66a5,5,0,0,0,2.38.63c.93,0,1.35-.34,1.35-.93,0-1.35-3.94-.78-3.94-3.64,0-1.45.93-2.63,3.1-2.63a6.7,6.7,0,0,1,2.4.44l-.24,1.63a6.86,6.86,0,0,0-2.07-.37c-1.06,0-1.34.37-1.34.82,0,1.34,3.94.72,3.94,3.62C46.26,21.65,45.08,22.69,43.08,22.69Z" style="fill:#005da0"/><path d="M53.68,20.85v1.68H47.86V14h5.82v1.7h-3.9v1.7H53V18.9H49.78v2Z" style="fill:#005da0"/><path d="M58.45,19.74H57.31v2.79H55.38V14h3.07c2.38,0,3.35.93,3.35,2.93C61.8,18.71,60.84,19.74,58.45,19.74Zm0-4.16H57.31V18.2h1.14c.95,0,1.36-.24,1.36-1.31S59.44,15.58,58.45,15.58Z" style="fill:#005da0"/><path d="M67.68,20.86H64.57l-.48,1.67h-2L65,14h2.29l3,8.56H68.16ZM65.9,16.32,65,19.25h2.18l-.82-2.93-.23-.9h0Z" style="fill:#005da0"/><path d="M43,28.09l0,.8H40.47v-4h.9v3.17Z" style="fill:#005da0"/><path d="M45.42,28.58h0a1.1,1.1,0,0,1-.87.36.93.93,0,0,1-1-1.06,1,1,0,0,1,1.14-1,1.89,1.89,0,0,1,.62.09v-.19c0-.32-.17-.47-.61-.47a2,2,0,0,0-.89.18l-.07-.66a2.78,2.78,0,0,1,1.11-.21c.95,0,1.27.4,1.27,1.28v2h-.63Zm-.12-1.07a1.37,1.37,0,0,0-.46-.07c-.36,0-.53.15-.53.43s.18.42.45.42.54-.17.54-.37Z" style="fill:#005da0"/><path d="M47.89,29a2.09,2.09,0,0,1-1-.23l.09-.68a1.9,1.9,0,0,0,.92.23c.32,0,.46-.13.46-.32,0-.52-1.49-.22-1.49-1.34,0-.58.39-1,1.22-1a2.46,2.46,0,0,1,.91.17l-.07.67a2.45,2.45,0,0,0-.85-.16c-.27,0-.42.11-.42.27,0,.49,1.47.2,1.47,1.3C49.12,28.53,48.76,29,47.89,29Z" style="fill:#005da0"/><path d="M50.73,26.29v1.65c0,.25.13.35.38.35a1,1,0,0,0,.26,0l.05.59a1.59,1.59,0,0,1-.56.09.87.87,0,0,1-1-1V26.29h-.36v-.61H50l.14-.73.64-.06v.79h.72v.61Z" style="fill:#005da0"/><path d="M53,29a2.09,2.09,0,0,1-1-.23l.09-.68a1.89,1.89,0,0,0,.91.23c.33,0,.47-.13.47-.32,0-.52-1.49-.22-1.49-1.34,0-.58.39-1,1.22-1a2.46,2.46,0,0,1,.91.17l-.07.67a2.46,2.46,0,0,0-.86-.16c-.27,0-.42.11-.42.27,0,.49,1.47.2,1.47,1.3C54.26,28.53,53.91,29,53,29Z" style="fill:#005da0"/><path d="M57.05,26.46a1.91,1.91,0,0,0-.54-.1c-.6,0-.8.25-.8.93s.28,1,.78,1a1.37,1.37,0,0,0,.58-.12l.06.64a1.58,1.58,0,0,1-.82.19c-1,0-1.45-.55-1.45-1.67s.44-1.66,1.47-1.66a2.26,2.26,0,0,1,.77.13Z" style="fill:#005da0"/><path d="M59.76,28.89v-2a.44.44,0,0,0-.51-.5.68.68,0,0,0-.55.24v2.3h-.82V24.77l.82,0v1.15h0a1.21,1.21,0,0,1,.8-.27c.67,0,1.07.45,1.07,1.23v2Z" style="fill:#005da0"/><path d="M61.45,28.89V25.7l.65,0,.08.53h0a1,1,0,0,1,.88-.57,1.46,1.46,0,0,1,.35,0l-.05.82a1,1,0,0,0-.35-.06.75.75,0,0,0-.75.85v1.61Z" style="fill:#005da0"/><path d="M64.63,25.33c-.31,0-.47-.09-.47-.35s.16-.35.47-.35.47.12.47.35S65,25.33,64.63,25.33Zm-.42,3.56V25.7l.84,0v3.23Z" style="fill:#005da0"/><path d="M66.23,28.89v-2.6h-.4v-.61h.4v-.14c0-.48.34-.88,1.11-.88a2,2,0,0,1,.52.07l0,.53a1.55,1.55,0,0,0-.31,0c-.32,0-.44.13-.44.33v.12h.68v.61h-.68v2.6Z" style="fill:#005da0"/><path d="M69.43,26.29v1.65c0,.25.12.35.38.35a1,1,0,0,0,.25,0l0,.59a1.49,1.49,0,0,1-.55.09.88.88,0,0,1-1-1V26.29h-.36v-.61h.4l.14-.73.65-.06v.79h.71v.61Z" style="fill:#005da0"/><path d="M25.84,15.84l-3.68-2.76-3.67-2.77a.59.59,0,0,0-.82.12l-3.23,4.3a.72.72,0,0,0-.1.22.58.58,0,0,0,.21.61l2.19,1.65,3,2.22,2.19,1.65a.62.62,0,0,0,.83-.13L26,16.65A.58.58,0,0,0,25.84,15.84Zm-7.59-5.2,2.19,1.65h0l1.48,1.11,1.48,1.11h0l2.19,1.65a.19.19,0,0,1,0,.26l-.53.72-2.48-1.86-2.68-2L17.46,11.4l.52-.72A.2.2,0,0,1,18.25,10.64Zm4.14,10.09a.24.24,0,0,1-.11.06.15.15,0,0,1-.14,0l-2.2-1.65-3-2.21-2.2-1.66a.19.19,0,0,1-.07-.12.13.13,0,0,1,0-.12l.6-.8,1.24-1.63,2.47,1.86,2.69,2,2.48,1.86L23,19.93Z" style="fill:#aeb1bc"/><path d="M26.5,22.42,32,15l.57-.75v0a.12.12,0,0,0,0-.17L31,12.93a.11.11,0,0,0-.16,0l0,0-.21.28-6.85,9.16H16.25l-2.83,9.32H32.29l-2.67-9.32Zm-12.57,9,2.58-8.58h7l-.6.81L22,24.8l-.1.18-.09.2-.09.23-.1.25-.09.27-.1.26-.08.27-.09.26-.08.25-.07.22-.06.2-.05.17,0,.12,0,.08,0,0s-.13.12-.21.06-.08-.28-.07-.39l.08-.95c0-.11-.13-.17-.22-.12a2.55,2.55,0,0,0-.83.8l.06-.22A8.68,8.68,0,0,0,20,26c0-.19,0-.42-.25-.46s-.42.23-.54.4a12.32,12.32,0,0,1-1.06,1.66.62.62,0,0,1-.62.23c-.29-.09-.4.26.11.3s.88-.49,1.11-.86.31-.55.48-.83a3,3,0,0,1,.24-.38c0-.05.12-.2.18-.21s.07,0,.07.09a2.62,2.62,0,0,1-.13.48l-.13.51L19.2,28a.15.15,0,0,0,.27.11,4.67,4.67,0,0,1,1-1.29l0,.33a5.66,5.66,0,0,0,0,.57c0,.31.25.52.54.39a1,1,0,0,0,.26-.18h0l.06-.05.11-.07.15-.11.17-.12.19-.13.22-.16.22-.16.22-.16.22-.17.22-.16.2-.15.19-.16.16-.12.13-.12.1-.1h0l.69-.82,1.76-2.36h3.13l2.43,8.58Z" style="fill:#005da0"/><path d="M33.32,14.61l-.21-.15a.09.09,0,0,0-.13,0L30.34,18a.09.09,0,0,0,0,.13l.21.16a.09.09,0,0,0,.13,0l2.64-3.51A.09.09,0,0,0,33.32,14.61Z" style="fill:#005da0"/><polygon points="22.73 29.54 27.98 29.54 27.86 29.13 22.73 29.13 17.6 29.13 17.49 29.54 22.73 29.54" style="fill:#005da0"/></g></svg>