<svg xmlns="http://www.w3.org/2000/svg" viewBox="0 0 85 43"><g id="background"><g id="Ebene_2" data-name="Ebene 2"><rect width="85" height="43" style="fill:#fff"/></g></g><g id="icon"><path d="M67.21,0H17.5V43H67.21V30a2,2,0,0,0,.29-1.1,1.78,1.78,0,0,0-.29-1.1Z" style="fill:#1578be"/><path d="M17.5,21.81h2.39l.54-1.3h1.2l.54,1.3h4.69v-1l.43,1h2.43l.42-1v1H41.81V19.68H42c.16,0,.21,0,.21.28v1.85h6v-.49a4.83,4.83,0,0,0,2.24.49h2.54l.55-1.3h1.2l.54,1.3h4.89V20.58L61,21.81h3.92V13.64H61v1l-.54-1h-4v1l-.5-1H50.61a4.87,4.87,0,0,0-2.34.48v-.48H44.56v.48A2.31,2.31,0,0,0,43,13.64H29.42l-.91,2.11-.93-2.11H23.31v1l-.48-1H19.19L17.5,17.53Zm46.14-1.15h-2L59,16.27v4.39H56.17l-.54-1.31H52.72l-.52,1.31H50.57a3,3,0,0,1-2-.64,3,3,0,0,1-.75-2.24,3.11,3.11,0,0,1,.76-2.29,2.82,2.82,0,0,1,2.12-.69H52v1.26H50.7a1.36,1.36,0,0,0-1.08.35,1.91,1.91,0,0,0-.4,1.33,2,2,0,0,0,.38,1.37,1.36,1.36,0,0,0,1,.3h.64l2-4.61h2.1l2.36,5.54V14.8h2.13l2.46,4.08V14.8h1.42Zm-16.53,0H45.68V14.8h1.43Zm-2.24-4.27a1.64,1.64,0,0,1-1,1.55,1.58,1.58,0,0,1,.69.5,1.71,1.71,0,0,1,.23,1.07v1.15H43.4v-.74a1.71,1.71,0,0,0-.23-1.13c-.2-.21-.51-.25-1-.25h-1.5v2.12h-1.4V14.8h3.22a3.31,3.31,0,0,1,1.69.29,1.36,1.36,0,0,1,.7,1.3m-6.58,4.27H33.62V14.8h4.67V16H35v1h3.19v1.2H35v1.17h3.27Zm-5.71,0H31.15V16.08l-2,4.58H27.9l-2-4.59v4.59H23l-.53-1.31H19.58L19,20.66H17.52L20,14.8h2.07l2.38,5.55V14.8h2.28l1.83,4,1.68-4h2.32Zm22.57-2.53-1-2.33-1,2.33ZM43,17.21a1.34,1.34,0,0,1-.69.12H40.66V16h1.72a1.48,1.48,0,0,1,.66.1.54.54,0,0,1,.29.52.6.6,0,0,1-.29.56M22,18.13,21,15.8l-1,2.33Z" style="fill:#fff"/><path d="M44.58,26.82c0,1.62-1.21,2-2.44,2H40.4v2H37.69L36,28.81l-1.79,1.94H28.65V24.89h5.62L36,26.81l1.77-1.92h4.46c1.11,0,2.36.31,2.36,1.93m-11.11,2.7H30V28.36H33.1v-1.2H30V26.1h3.5l1.53,1.71Zm5.54.7-2.14-2.39L39,25.52Zm3.2-2.63H40.4V26.1h1.82c.51,0,.86.2.86.72s-.33.77-.87.77m9.42-2.7H56.3V26.1H53v1.06h3.19v1.2H53v1.16H56.3v1.22H51.63ZM49.87,28a1.49,1.49,0,0,1,.68.5,1.64,1.64,0,0,1,.23,1.07v1.16h-1.4V30c0-.35,0-.87-.22-1.14a1.37,1.37,0,0,0-1-.26H46.64v2.14h-1.4V24.89h3.22a3.37,3.37,0,0,1,1.68.28,1.37,1.37,0,0,1,.72,1.3,1.62,1.62,0,0,1-1,1.55M49,27.3a1.41,1.41,0,0,1-.68.12h-1.7V26.1h1.72a1.33,1.33,0,0,1,.66.11.54.54,0,0,1,.29.52.65.65,0,0,1-.29.57m12.61.35a1.68,1.68,0,0,1,.42,1.25c0,1.26-.79,1.85-2.2,1.85H57.13V29.49h2.71a.8.8,0,0,0,.57-.15.51.51,0,0,0,0-.76.75.75,0,0,0-.5-.14c-1.3,0-2.94,0-2.94-1.81,0-.85.53-1.74,2-1.74h2.81v1.24H59.21a.94.94,0,0,0-.57.11.46.46,0,0,0-.21.42.46.46,0,0,0,.31.44,1.91,1.91,0,0,0,.54.07l.76,0a2.3,2.3,0,0,1,1.59.46M67.21,30a2.2,2.2,0,0,1-1.9.75h-2.7V29.49H65.3a.78.78,0,0,0,.56-.15.51.51,0,0,0,0-.76.72.72,0,0,0-.49-.14c-1.31,0-3,0-3-1.81,0-.85.54-1.74,2-1.74h2.79V23.72H64.62a2.9,2.9,0,0,0-1.75.48v-.48H59a2.71,2.71,0,0,0-1.67.48v-.48H50.55v.48a3.68,3.68,0,0,0-1.89-.48h-4.5v.48a3.16,3.16,0,0,0-2-.48h-5L36,25l-1.08-1.26H27.38V31.9h7.39L36,30.63l1.12,1.27h4.55V30h.46A4.75,4.75,0,0,0,44,29.69V31.9h3.76V29.77H48c.23,0,.25,0,.25.24V31.9H59.63a3.27,3.27,0,0,0,1.9-.52v.52h3.63a4.9,4.9,0,0,0,2-.38Zm0-3.87H64.65a.92.92,0,0,0-.56.11.48.48,0,0,0-.2.42.44.44,0,0,0,.31.44,1.84,1.84,0,0,0,.53.07l.76,0a2.3,2.3,0,0,1,1.59.46l.13.15Z" style="fill:#fff"/></g></svg>