<svg xmlns="http://www.w3.org/2000/svg" viewBox="0 0 85 43"><g id="background"><g id="Ebene_2" data-name="Ebene 2"><rect width="85" height="43" style="fill:#fff"/></g></g><g id="icon"><rect x="17.5" y="0.95" width="50" height="41.1" style="fill:none"/><path d="M34.65,36.8v-2a1.21,1.21,0,0,0-1.27-1.29,1.25,1.25,0,0,0-1.15.58,1.19,1.19,0,0,0-1.07-.58,1.06,1.06,0,0,0-.95.48v-.4H29.5V36.8h.71V35a.75.75,0,0,1,.8-.86c.47,0,.71.3.71.85V36.8h.71V35a.76.76,0,0,1,.8-.86c.48,0,.71.3.71.85V36.8Zm4-1.62V33.55h-.71V34a1.2,1.2,0,0,0-1-.48,1.71,1.71,0,0,0,0,3.41,1.22,1.22,0,0,0,1-.47v.39h.71Zm-2.63,0a1,1,0,1,1,1,1A1,1,0,0,1,36,35.18Zm17.77-1.71a1.78,1.78,0,0,1,.7.13A1.58,1.58,0,0,1,55,34a1.7,1.7,0,0,1,.36.54,1.68,1.68,0,0,1,.13.68,1.72,1.72,0,0,1-.13.68,2,2,0,0,1-.36.54,1.92,1.92,0,0,1-.56.36,2,2,0,0,1-.7.13,2,2,0,0,1-.7-.13,1.87,1.87,0,0,1-.55-.36,1.76,1.76,0,0,1-.36-.54,1.72,1.72,0,0,1-.14-.68,1.69,1.69,0,0,1,.14-.68,1.63,1.63,0,0,1,.91-.9A1.82,1.82,0,0,1,53.78,33.47Zm0,.66a1.06,1.06,0,0,0-.4.08.89.89,0,0,0-.32.21,1,1,0,0,0-.22.33,1.18,1.18,0,0,0-.08.43,1.16,1.16,0,0,0,.08.42.83.83,0,0,0,.22.33.89.89,0,0,0,.32.21,1.06,1.06,0,0,0,.4.08,1.11,1.11,0,0,0,.41-.08,1,1,0,0,0,.32-.21,1.12,1.12,0,0,0,.22-.33,1.16,1.16,0,0,0,.07-.42,1.18,1.18,0,0,0-.07-.43,1.46,1.46,0,0,0-.22-.33,1,1,0,0,0-.32-.21A1.11,1.11,0,0,0,53.78,34.13Zm-11.29,1A1.55,1.55,0,0,0,41,33.47a1.71,1.71,0,0,0,0,3.41,2,2,0,0,0,1.33-.45L42,35.9a1.53,1.53,0,0,1-.94.34.91.91,0,0,1-1-.79h2.42A2.44,2.44,0,0,0,42.49,35.18Zm-2.42-.29a.83.83,0,0,1,.86-.79.82.82,0,0,1,.83.79Zm5.4-.51a2.13,2.13,0,0,0-1-.28c-.39,0-.62.14-.62.38s.24.28.55.32l.33.05c.71.1,1.14.4,1.14,1s-.54,1.06-1.48,1.06A2.33,2.33,0,0,1,43,36.46l.33-.55a1.69,1.69,0,0,0,1.08.34c.49,0,.74-.14.74-.39s-.18-.29-.57-.34l-.33-.05c-.73-.1-1.12-.43-1.12-1s.53-1,1.35-1a2.39,2.39,0,0,1,1.33.34Zm3.4-.18H47.72v1.47c0,.32.11.54.46.54a1.32,1.32,0,0,0,.63-.18l.2.6a1.59,1.59,0,0,1-.88.25c-.84,0-1.13-.44-1.13-1.2V34.2h-.66v-.65H47v-1h.71v1h1.15Zm2.45-.73a1.51,1.51,0,0,1,.5.09l-.21.66a1.19,1.19,0,0,0-.45-.08c-.46,0-.69.3-.69.84V36.8h-.71V33.55h.7V34a1,1,0,0,1,.86-.48Zm4.9,2.86.13,0,.1.07a.26.26,0,0,1,.07.11.27.27,0,0,1,0,.12.28.28,0,0,1,0,.13.23.23,0,0,1-.07.1l-.1.07a.31.31,0,0,1-.13,0,.28.28,0,0,1-.13,0,.41.41,0,0,1-.11-.07.36.36,0,0,1-.07-.1.4.4,0,0,1,0-.25.3.3,0,0,1,.18-.18Zm0,.58.1,0,.08-.06a.22.22,0,0,0,.05-.08.3.3,0,0,0,0-.1.44.44,0,0,0,0-.1.35.35,0,0,0-.05-.08l-.08,0-.1,0-.1,0-.08,0a.35.35,0,0,0,0,.08.2.2,0,0,0,0,.1.16.16,0,0,0,0,.1.22.22,0,0,0,0,.08l.08.06Zm0-.41a.12.12,0,0,1,.09,0,.08.08,0,0,1,0,.07.09.09,0,0,1,0,.06s0,0-.07,0l.1.11h-.08l-.09-.11h0v.11H56.1v-.3Zm-.08.06v.08h.12a0,0,0,0,0,0,0s0,0,0,0h-.12Z"/><rect x="37.13" y="8.73" width="10.73" height="19.28" style="fill:#7673c0"/><path d="M37.82,18.37A12.25,12.25,0,0,1,42.5,8.73,12.27,12.27,0,1,0,42.5,28,12.24,12.24,0,0,1,37.82,18.37Z" style="fill:#eb001b"/><path d="M61.17,26v-.39h.16V25.5h-.4v.08h.16V26ZM62,26V25.5h-.12l-.15.32-.14-.32h-.12V26h.08v-.36l.14.31h.09l.13-.31V26Z" style="fill:#00a1df"/><path d="M62.34,18.37A12.25,12.25,0,0,1,42.5,28a12.27,12.27,0,0,0,0-19.28,12.26,12.26,0,0,1,19.84,9.64Z" style="fill:#00a1df"/></g></svg>