<svg xmlns="http://www.w3.org/2000/svg" viewBox="0 0 85 43"><g id="background"><g id="Ebene_2" data-name="Ebene 2"><rect width="85" height="43" style="fill:#fff"/></g></g><g id="icon"><path d="M25,8.88H23.52a.21.21,0,0,0-.2.18l-.6,3.81a.13.13,0,0,0,.12.14h.71a.21.21,0,0,0,.21-.17l.16-1a.2.2,0,0,1,.2-.18h.47a1.52,1.52,0,0,0,1.69-1.41,1.11,1.11,0,0,0-.19-1A1.36,1.36,0,0,0,25,8.88Zm.17,1.39c-.08.54-.49.54-.88.54h-.22l.15-1a.12.12,0,0,1,.12-.1h.11c.27,0,.52,0,.65.15A.48.48,0,0,1,25.18,10.27Z" style="fill:#253b80"/><path d="M29.45,10.26h-.71a.12.12,0,0,0-.12.1l0,.2-.05-.07a1,1,0,0,0-.84-.3,1.64,1.64,0,0,0-1.59,1.43,1.34,1.34,0,0,0,.26,1.09,1.12,1.12,0,0,0,.9.37,1.35,1.35,0,0,0,1-.41l0,.2a.13.13,0,0,0,.12.14H29a.2.2,0,0,0,.2-.18l.38-2.43A.11.11,0,0,0,29.45,10.26Zm-1,1.38a.79.79,0,0,1-.8.68.62.62,0,0,1-.48-.19.57.57,0,0,1-.11-.5.8.8,0,0,1,.8-.69.59.59,0,0,1,.47.2A.61.61,0,0,1,28.46,11.64Z" style="fill:#253b80"/><path d="M33.24,10.26h-.71a.19.19,0,0,0-.17.09l-1,1.45L31,10.4a.2.2,0,0,0-.2-.14h-.7a.13.13,0,0,0-.12.16l.79,2.31-.74,1a.12.12,0,0,0,.1.19h.72a.21.21,0,0,0,.17-.09l2.37-3.43A.12.12,0,0,0,33.24,10.26Z" style="fill:#253b80"/><path d="M35.61,8.88H34.12a.21.21,0,0,0-.2.18l-.6,3.81a.13.13,0,0,0,.12.14h.76a.16.16,0,0,0,.15-.12l.17-1.08a.2.2,0,0,1,.2-.18h.47a1.52,1.52,0,0,0,1.69-1.41,1.15,1.15,0,0,0-.19-1A1.36,1.36,0,0,0,35.61,8.88Zm.17,1.39c-.08.54-.49.54-.88.54h-.23l.16-1a.12.12,0,0,1,.12-.1h.11c.27,0,.52,0,.65.15A.48.48,0,0,1,35.78,10.27Z" style="fill:#179bd7"/><path d="M40.05,10.26h-.71a.12.12,0,0,0-.12.1l0,.2,0-.07a1,1,0,0,0-.84-.3,1.64,1.64,0,0,0-1.59,1.43A1.34,1.34,0,0,0,37,12.71a1.12,1.12,0,0,0,.9.37,1.35,1.35,0,0,0,1-.41l0,.2a.13.13,0,0,0,.12.14h.65a.2.2,0,0,0,.2-.18l.38-2.43A.11.11,0,0,0,40.05,10.26Zm-1,1.38a.79.79,0,0,1-.8.68.61.61,0,0,1-.48-.19.57.57,0,0,1-.11-.5.8.8,0,0,1,.79-.69.6.6,0,0,1,.48.2A.61.61,0,0,1,39.06,11.64Z" style="fill:#179bd7"/><path d="M40.89,9l-.61,3.88a.13.13,0,0,0,.12.14H41a.2.2,0,0,0,.2-.17L41.82,9a.13.13,0,0,0-.12-.14H41A.13.13,0,0,0,40.89,9Z" style="fill:#179bd7"/><path d="M16.55,13.75l.11-.72H15.2L16,7.7s0,0,0,0h2.09a1.79,1.79,0,0,1,1.38.42.94.94,0,0,1,.23.41,1.87,1.87,0,0,1,0,.58h0v.15l.11.07a.74.74,0,0,1,.42.59,1.61,1.61,0,0,1,0,.61,2,2,0,0,1-.25.7,1.47,1.47,0,0,1-.39.43,1.65,1.65,0,0,1-.54.24,2.73,2.73,0,0,1-.67.08h-.15A.47.47,0,0,0,18,12a.51.51,0,0,0-.17.29v.07l-.2,1.27v.05s0,0,0,0h-1Z" style="fill:#253b80"/><path d="M20,9.08h0a.5.5,0,0,0,0,.12,2.14,2.14,0,0,1-2.37,1.86H17a.28.28,0,0,0-.29.24h0l-.31,1.95-.08.55a.14.14,0,0,0,.15.17h1.06a.26.26,0,0,0,.25-.21V13.7l.2-1.26v-.07a.26.26,0,0,1,.26-.22h.15a1.87,1.87,0,0,0,2.07-1.62,1.37,1.37,0,0,0-.21-1.22A1.09,1.09,0,0,0,20,9.08Z" style="fill:#179bd7"/><path d="M19.7,9l-.13,0-.13,0a4.39,4.39,0,0,0-.53,0h-1.6a.2.2,0,0,0-.11,0,.24.24,0,0,0-.14.19l-.34,2.15v.06a.28.28,0,0,1,.29-.24h.59A2.14,2.14,0,0,0,20,9.2s0-.08,0-.12A1.45,1.45,0,0,0,19.76,9Z" style="fill:#222d65"/><path d="M17.06,9.09a.24.24,0,0,1,.14-.19.2.2,0,0,1,.11,0h1.6a4.39,4.39,0,0,1,.53,0l.13,0,.13,0,.06,0a1.45,1.45,0,0,1,.22.09,1.29,1.29,0,0,0-.28-1.17,2,2,0,0,0-1.55-.49h-2a.29.29,0,0,0-.29.24L15,13a.19.19,0,0,0,.17.21H16.4l.32-2Z" style="fill:#253b80"/><path d="M56.67,7.77l-2.8,6.6H52.09L50.71,9.1c-.09-.32-.14-.46-.41-.6A7.38,7.38,0,0,0,48.6,8l0-.18h2.93a.78.78,0,0,1,.78.68l.73,3.85,1.79-4.49h1.79Zm7.06,4.44c0-1.74-2.43-1.83-2.39-2.61,0-.23.23-.5.74-.55a3.25,3.25,0,0,1,1.69.28l.32-1.43a5.26,5.26,0,0,0-1.6-.27c-1.7,0-2.89.92-2.89,2.2,0,1,.87,1.47,1.51,1.79s.88.55.88.82c0,.46-.55.64-1,.64a3.57,3.57,0,0,1-1.74-.41l-.33,1.47a6.25,6.25,0,0,0,1.93.36c1.7,0,2.89-.91,2.89-2.29m4.49,2.16h1.6l-1.37-6.6H67a.78.78,0,0,0-.73.5l-2.57,6.14h1.79l.37-1H68ZM66.29,12l.92-2.48.5,2.48ZM59.1,7.77l-1.42,6.6H56l1.42-6.6Z" style="fill:#1a1f71"/><path d="M74.56,31.36H53.09a.23.23,0,0,1-.23-.23V22.64a.23.23,0,0,1,.23-.23H74.56a.23.23,0,0,1,.23.23v8.49A.23.23,0,0,1,74.56,31.36ZM53.09,22.54a.1.1,0,0,0-.1.1v8.49a.09.09,0,0,0,.1.1H74.56a.09.09,0,0,0,.1-.1V22.64a.1.1,0,0,0-.1-.1Z" style="fill:#aeb1bc"/><path d="M64,27.24a1.65,1.65,0,0,1-.79-.19l.08-.49a1.44,1.44,0,0,0,.7.19c.28,0,.4-.11.4-.28,0-.4-1.17-.23-1.17-1.08,0-.43.28-.78.92-.78a2,2,0,0,1,.71.13l-.07.48a2.31,2.31,0,0,0-.61-.11c-.31,0-.4.11-.4.25,0,.39,1.17.21,1.17,1.07C64.94,26.93,64.59,27.24,64,27.24Z" style="fill:#005da0"/><path d="M67.14,26.69v.5H65.41V24.65h1.73v.51H66v.5h.94v.46H66v.57Z" style="fill:#005da0"/><path d="M68.55,26.37h-.34v.82h-.57V24.65h.91c.71,0,1,.28,1,.87S69.26,26.37,68.55,26.37Zm0-1.24h-.34v.78h.34c.28,0,.41-.07.41-.39S68.85,25.13,68.55,25.13Z" style="fill:#005da0"/><path d="M71.29,26.7h-.92l-.14.49h-.61l.88-2.54h.68l.89,2.54h-.64Zm-.53-1.35-.25.87h.64l-.24-.87-.07-.27h0Z" style="fill:#005da0"/><path d="M64,28.84v.24h-.74V27.9h.26v.94Z" style="fill:#005da0"/><path d="M64.69,29h0a.33.33,0,0,1-.26.11.28.28,0,0,1-.3-.31.3.3,0,0,1,.34-.3.54.54,0,0,1,.19,0v-.06c0-.09,0-.14-.19-.14a.75.75,0,0,0-.26.05l0-.19a.88.88,0,0,1,.33-.06c.28,0,.38.12.38.38v.59h-.19Zm0-.32-.14,0c-.11,0-.16,0-.16.12s.06.13.14.13.16,0,.16-.11Z" style="fill:#005da0"/><path d="M65.42,29.1a.65.65,0,0,1-.29-.07l0-.2a.68.68,0,0,0,.27.07c.1,0,.14,0,.14-.1s-.44-.06-.44-.4c0-.17.12-.29.36-.29a.76.76,0,0,1,.27.05l0,.2a.79.79,0,0,0-.25-.05c-.08,0-.13,0-.13.08s.44.06.44.39S65.68,29.1,65.42,29.1Z" style="fill:#005da0"/><path d="M66.27,28.31v.48c0,.08,0,.11.11.11h.07l0,.18-.16,0A.26.26,0,0,1,66,28.8v-.49h-.1v-.18H66l0-.22.2,0v.24h.21v.18Z" style="fill:#005da0"/><path d="M67,29.1a.66.66,0,0,1-.3-.07l0-.2a.64.64,0,0,0,.27.07c.1,0,.14,0,.14-.1s-.45-.06-.45-.4c0-.17.12-.29.37-.29a.81.81,0,0,1,.27.05l0,.2a.85.85,0,0,0-.26-.05c-.08,0-.12,0-.12.08s.43.06.43.39S67.21,29.1,67,29.1Z" style="fill:#005da0"/><path d="M68.14,28.36a.45.45,0,0,0-.16,0c-.18,0-.24.07-.24.27s.08.29.23.29a.47.47,0,0,0,.17,0l0,.19a.4.4,0,0,1-.24.06c-.28,0-.43-.16-.43-.5s.13-.49.43-.49a.79.79,0,0,1,.23,0Z" style="fill:#005da0"/><path d="M68.94,29.08v-.61a.13.13,0,0,0-.15-.15.18.18,0,0,0-.16.08v.68h-.25V27.85h.25v.34h0a.37.37,0,0,1,.24-.08c.2,0,.31.13.31.36v.61Z" style="fill:#005da0"/><path d="M69.44,29.08v-.95h.2l0,.16h0a.29.29,0,0,1,.26-.17H70l0,.24h-.1a.22.22,0,0,0-.22.25v.48Z" style="fill:#005da0"/><path d="M70.39,28c-.1,0-.14,0-.14-.1s0-.11.14-.11.13,0,.13.11S70.48,28,70.39,28Zm-.13,1.06v-.95h.25v1Z" style="fill:#005da0"/><path d="M70.86,29.08v-.77h-.12v-.18h.12v-.05c0-.14.1-.26.33-.26l.15,0V28h-.09c-.1,0-.14,0-.14.1v0h.21v.18H71.1v.77Z" style="fill:#005da0"/><path d="M71.81,28.31v.48c0,.08,0,.11.11.11H72l0,.18-.17,0a.26.26,0,0,1-.28-.29v-.49h-.1v-.18h.11l0-.22.2,0v.24H72v.18Z" style="fill:#005da0"/><path d="M58.89,25.21l-1.09-.82-1.09-.82a.17.17,0,0,0-.24,0l-1,1.27s0,0,0,.07a.19.19,0,0,0,.06.18l.65.48.88.66.65.49a.17.17,0,0,0,.19,0,.12.12,0,0,0,.05-.05l1-1.27A.17.17,0,0,0,58.89,25.21Zm-2.25-1.54.65.49h0l.44.33.43.33h0l.65.48a.07.07,0,0,1,0,.08l-.16.22L57.94,25l-.8-.59-.74-.56.16-.21A.06.06,0,0,1,56.64,23.67Zm1.23,3,0,0h0l-.65-.49-.87-.66L55.61,25s0,0,0,0a0,0,0,0,1,0,0l.18-.24.37-.48.73.55.8.6.73.55-.37.48Z" style="fill:#aeb1bc"/><path d="M59.08,27.16,60.73,25l.16-.22h0s0,0,0-.05l-.46-.33s0,0,0,0h0l-.06.08-2,2.72H56.05l-.84,2.76H60.8L60,27.16Zm-3.72,2.65.77-2.54H58.2l-.18.24-.26.35,0,.06,0,.06,0,.07,0,.07,0,.08,0,.08,0,.08,0,.07,0,.08,0,.06,0,.06v.11h0s0,0-.06,0,0-.08,0-.11l0-.29s0-.05-.06,0a.64.64,0,0,0-.25.24l0-.07c0-.1.06-.2.08-.3a.11.11,0,0,0-.07-.13c-.08,0-.13.06-.16.12a5.14,5.14,0,0,1-.32.49.19.19,0,0,1-.18.07c-.09,0-.12.07,0,.09s.26-.15.33-.26l.14-.24.07-.12s0-.06.06-.06,0,0,0,0,0,.09,0,.14l0,.15-.09.32c0,.05,0,.07.08,0a1.65,1.65,0,0,1,.29-.38v.1c0,.05,0,.11,0,.17s.08.15.16.11a.26.26,0,0,0,.08-.05h0l0,0,0,0,0,0,0,0,.05,0,.07,0,.06-.05.07-.05.07-.05L58,28.4l.06,0,.06-.05,0,0,0,0,0,0h0l.21-.24.52-.7h.93l.72,2.54Z" style="fill:#005da0"/><rect x="59.99" y="25.3" width="1.36" height="0.13" rx="0.03" transform="translate(3.94 58.62) rotate(-53.07)" style="fill:#005da0"/><polygon points="57.97 29.27 59.52 29.27 59.49 29.15 57.97 29.15 56.45 29.15 56.41 29.27 57.97 29.27" style="fill:#005da0"/><g id="Layer_2" data-name="Layer 2"><g id="Layer_1-2" data-name="Layer 1-2"><rect x="26.31" y="17.3" width="22.29" height="18.28" style="fill:none"/><path d="M31.83,33.28v-.91a.54.54,0,0,0-.5-.57s0,0-.07,0a.54.54,0,0,0-.51.25.54.54,0,0,0-.48-.25.49.49,0,0,0-.43.21v-.18h-.31v1.45h.32v-.79a.34.34,0,0,1,.29-.39h.06c.21,0,.32.14.32.38v.81h.31v-.8a.36.36,0,0,1,.3-.39h.06c.22,0,.32.14.32.38v.81Zm4.72-1.45H36v-.44h-.32v.44h-.29v.29h.29v.67c0,.34.13.54.51.54a.69.69,0,0,0,.39-.12l-.09-.27a.66.66,0,0,1-.28.09c-.15,0-.21-.1-.21-.25v-.66h.52Zm2.69,0a.4.4,0,0,0-.38.21v-.18h-.32v1.45h.32v-.81c0-.24.1-.37.3-.37a.64.64,0,0,1,.2,0l.1-.3a.59.59,0,0,0-.23,0ZM35.17,32a1.05,1.05,0,0,0-.6-.15c-.36,0-.6.17-.6.46s.17.38.5.43l.15,0c.17,0,.26.07.26.15s-.12.18-.34.18a.83.83,0,0,1-.48-.15l-.15.24a1,1,0,0,0,.63.19c.42,0,.66-.2.66-.47s-.19-.39-.51-.44l-.15,0c-.14,0-.24,0-.24-.14s.1-.17.27-.17a.93.93,0,0,1,.46.12Zm8.46-.15a.42.42,0,0,0-.39.21v-.18h-.31v1.45h.32v-.81c0-.24.1-.37.3-.37a.69.69,0,0,1,.2,0l.09-.3a.54.54,0,0,0-.22,0Zm-4.07.76a.73.73,0,0,0,.7.76h.07a.74.74,0,0,0,.52-.17l-.15-.25a.65.65,0,0,1-.38.13.48.48,0,0,1-.43-.51.47.47,0,0,1,.43-.42.65.65,0,0,1,.38.13l.15-.26a.74.74,0,0,0-.52-.17.74.74,0,0,0-.77.69v.07Zm2.95,0v-.73H42.2V32a.55.55,0,0,0-.46-.21.76.76,0,1,0,0,1.51.55.55,0,0,0,.46-.21v.18h.31Zm-1.17,0a.44.44,0,0,1,.46-.42.46.46,0,0,1,.42.47.45.45,0,0,1-.44.41.44.44,0,0,1-.44-.43Zm-3.81-.76a.76.76,0,1,0,0,1.51h0a.82.82,0,0,0,.6-.19L38,32.88a.73.73,0,0,1-.42.16.42.42,0,0,1-.44-.36h1.08v-.12a.69.69,0,0,0-.69-.76Zm0,.28a.36.36,0,0,1,.37.35h-.76a.37.37,0,0,1,.38-.35Zm7.91.48V31.25h-.3V32a.55.55,0,0,0-.46-.21.76.76,0,1,0,0,1.51.55.55,0,0,0,.46-.21v.18h.3Zm.53.51H46l0,0s0,0,0,0a.11.11,0,0,1,0,.11s0,0,0,0l0,0H46a.14.14,0,0,1-.14-.09.11.11,0,0,1,0-.11l0,0,0,0Zm0,.26h0l0,0a.12.12,0,0,0,0-.16l0,0h-.09l0,0a.12.12,0,0,0,0,.16l0,0Zm0-.18h0s0,0,0,0a0,0,0,0,1,0,0h0l0,.05h0l0-.05h0v.05h0v-.13Zm0,0v0H46s0,0,0,0,0,0,0,0h-.05Zm-1.67-.61a.44.44,0,0,1,.88,0,.45.45,0,0,1-.44.41.43.43,0,0,1-.44-.43Zm-10.66,0v-.73h-.32V32a.54.54,0,0,0-.45-.21.76.76,0,1,0,0,1.51.54.54,0,0,0,.45-.21v.18h.32Zm-1.18,0a.44.44,0,0,1,.47-.41.44.44,0,0,1,.41.46.43.43,0,0,1-.44.41.42.42,0,0,1-.44-.42v0Z" style="fill:#231f20"/><g id="_Group_" data-name=" Group "><rect x="35.06" y="20.77" width="4.78" height="8.6" style="fill:#ff5f00"/><path id="_Path_" data-name=" Path " d="M35.37,25.07a5.43,5.43,0,0,1,2.08-4.3,5.47,5.47,0,1,0,0,8.6A5.43,5.43,0,0,1,35.37,25.07Z" style="fill:#eb001b"/><path d="M46.3,25.07a5.47,5.47,0,0,1-5.47,5.47,5.54,5.54,0,0,1-3.38-1.17,5.46,5.46,0,0,0,.92-7.68,5.34,5.34,0,0,0-.92-.92,5.47,5.47,0,0,1,8.85,4.3Z" style="fill:#f79e1b"/><path d="M45.78,28.46v-.18h.07v0h-.18v0h.07v.18Zm.35,0v-.22h-.06L46,28.4l-.07-.16h0v.22h0V28.3l.06.13h0l.05-.13v.16Z" style="fill:#f79e1b"/></g></g></g><g id="layer1"><path id="path3078" d="M10.21,21.45h10.6v5.72l-.52.82.52.73v3.33H10.21v-5.4l.33-.37-.33-.36Z" style="fill:#016fd0"/><path id="path3082" d="M12.27,28.84V27.17H14l.19.25.19-.25h6.4v1.55a.84.84,0,0,1-.36.12H16.91l-.21-.27v.27H16v-.45a.65.65,0,0,1-.31.06h-.23v.39H14.4l-.19-.26-.19.26Z" style="fill:#fff"/><path id="path3080" d="M10.21,25.92l.4-.93h.68l.23.52V25h.85l.14.37.13-.37h3.83v.19A.86.86,0,0,1,17,25h1.24l.22.52V25h.72l.2.29V25h.72v1.66h-.72l-.19-.29v.29H18.15L18,26.39h-.28l-.11.26h-.71a.74.74,0,0,1-.47-.18v.18H15.4l-.21-.26v.26h-4l-.1-.26H10.8l-.1.26h-.49Z" style="fill:#fff"/><path id="path3046" d="M10.75,25.19l-.54,1.25h.35l.1-.25h.57l.1.25h.36l-.54-1.25Zm.2.29.17.44h-.35Z" style="fill:#016fd0"/><path id="path3048" d="M11.73,26.44V25.19h.49l.29.8.28-.81h.49v1.25H13v-.92l-.33.92h-.27L12,25.52v.92Z" style="fill:#016fd0"/><path id="path3050" d="M13.5,26.44V25.19h1v.28h-.7v.22h.69V26h-.69v.22h.7v.27Z" style="fill:#016fd0"/><path id="path3052" d="M14.69,25.19v1.25H15V26h.13l.37.44h.38L15.48,26a.37.37,0,0,0,.34-.38.4.4,0,0,0-.43-.41Zm.32.28h.35a.14.14,0,0,1,.15.13.14.14,0,0,1-.14.14H15v-.27Z" style="fill:#016fd0"/><path id="path3054" d="M16.27,26.44H16V25.19h.32Z" style="fill:#016fd0"/><path id="path3056" d="M17,26.44H17a.55.55,0,0,1-.53-.62.58.58,0,0,1,.62-.63h.34v.3H17c-.17,0-.29.13-.29.34a.3.3,0,0,0,.33.34h.08Z" style="fill:#016fd0"/><path id="path3058" d="M17.7,25.19l-.53,1.25h.34l.1-.25h.58l.1.25h.35l-.53-1.25Zm.2.29.18.44h-.36l.18-.44Z" style="fill:#016fd0"/><path id="path3060" d="M18.68,26.44V25.19h.4l.5.79v-.79h.31v1.25h-.38l-.52-.8v.8Z" style="fill:#016fd0"/><path id="path3062" d="M12.48,28.62V27.38h1v.27h-.7v.22h.68v.26H12.8v.22h.7v.27Z" style="fill:#016fd0"/><path id="path3064" d="M17.46,28.62V27.38h1v.27h-.7v.22h.68v.26h-.68v.22h.7v.27Z" style="fill:#016fd0"/><path id="path3066" d="M13.54,28.62,14,28l-.51-.63h.4l.3.39.3-.39h.38l-.5.62.5.62h-.4l-.29-.38-.29.38Z" style="fill:#016fd0"/><path id="path3068" d="M14.93,27.38v1.24h.32v-.39h.33a.43.43,0,0,0,.49-.43.41.41,0,0,0-.45-.42Zm.32.28h.35a.13.13,0,0,1,.15.14.14.14,0,0,1-.15.14h-.35v-.28Z" style="fill:#016fd0"/><path id="path3072" d="M16.2,27.38v1.24h.31v-.44h.14l.37.44h.38L17,28.16a.37.37,0,0,0,.34-.38.4.4,0,0,0-.43-.4Zm.31.27h.36a.15.15,0,0,1,.15.14.14.14,0,0,1-.14.13h-.37Z" style="fill:#016fd0"/><path id="path3074" d="M18.62,28.62v-.27h.63c.09,0,.13-.05.13-.1s0-.11-.13-.11H19a.35.35,0,0,1-.39-.37c0-.2.13-.39.49-.39h.61l-.13.28H19c-.1,0-.13.05-.13.1a.11.11,0,0,0,.12.11h.29c.28,0,.39.15.39.36a.37.37,0,0,1-.4.39Z" style="fill:#016fd0"/><path id="path3076" d="M19.77,28.62v-.27h.62c.09,0,.13-.05.13-.1s0-.11-.13-.11h-.28a.34.34,0,0,1-.38-.37c0-.2.12-.39.49-.39h.6l-.13.28h-.52c-.1,0-.13.05-.13.1a.1.1,0,0,0,.11.11h.3a.34.34,0,0,1,.39.36.37.37,0,0,1-.41.39Z" style="fill:#016fd0"/></g></g></svg>