<svg xmlns="http://www.w3.org/2000/svg" xmlns:xlink="http://www.w3.org/1999/xlink" viewBox="0 0 85 43"><defs><clipPath id="clip-path"><rect x="5.5" y="7.18" width="74" height="28.63" style="fill:none"/></clipPath></defs><g id="background"><g id="Ebene_2" data-name="Ebene 2"><rect width="85" height="43" style="fill:#fff"/></g></g><g id="icon"><g style="clip-path:url(#clip-path)"><path d="M12.21,21.8l-1.73-1.54a2.05,2.05,0,0,1-.9.44A2.19,2.19,0,1,1,11,19.65l1.75,1.55a3.57,3.57,0,0,0-.54.6" style="fill:#f18e00"/><path d="M12.21,21.8l-1.73-1.54a2.05,2.05,0,0,1-.9.44A2.19,2.19,0,1,1,11,19.65l1.75,1.55A3.57,3.57,0,0,0,12.21,21.8Z" style="fill:none;stroke:#f18e00;stroke-width:0.137146547436714px"/><path d="M43.83,28.31H43.4v2a.82.82,0,1,1-1.64,0v-2h-.43v1.88a1.25,1.25,0,1,0,2.5,0Z"/><path d="M45.29,29.26h-.4v2.16h.41V30.24c0-.42.11-.51.17-.57a.58.58,0,0,1,.4-.16c.34,0,.49.19.49.55v1.36h.41v-1.5a.74.74,0,0,0-.82-.73.76.76,0,0,0-.65.39h0Z"/><rect x="48.01" y="29.26" width="0.41" height="2.16"/><rect x="47.97" y="28.31" width="0.49" height="0.44"/><path d="M49.33,29.25v.3h.37v1.37c0,.28,0,.29.1.4a.38.38,0,0,0,.24.14,1.27,1.27,0,0,0,.27,0,2.4,2.4,0,0,0,.28,0v-.31a.76.76,0,0,1-.21,0c-.15,0-.27-.08-.27-.23V29.55h.5v-.3h-.5v-.59l-.41.13v.46Z"/><path d="M53.3,30.41v-.2a.92.92,0,0,0-.95-1c-.69,0-1,.53-1,1.16s.28,1.13,1,1.13a.86.86,0,0,0,1-.73h-.43a.45.45,0,0,1-.52.43c-.42,0-.58-.39-.55-.77Zm-1.53-.28a.58.58,0,0,1,.55-.64c.39,0,.55.28.55.64Z" style="fill-rule:evenodd"/><path d="M54.58,30.33c0-.4.12-.85.61-.85s.61.46.61.85-.12.87-.61.87-.61-.46-.61-.87m1.21-.78h0a.69.69,0,0,0-.67-.36c-.67,0-1,.56-1,1.15s.25,1.14.89,1.14a.76.76,0,0,0,.74-.41h0v.35h.42c0-.13,0-.26,0-.39V28.31h-.41Z" style="fill-rule:evenodd"/><polygon points="60.81 31.41 60.81 31.05 59.36 31.05 59.36 28.31 58.93 28.31 58.93 31.41 60.81 31.41"/><path d="M62.34,29.19a1.15,1.15,0,1,0,1.07,1.15,1,1,0,0,0-1.07-1.15m-.65,1.15c0-.46.16-.85.65-.85s.64.39.64.85-.16.84-.64.84-.65-.38-.65-.84" style="fill-rule:evenodd"/><path d="M64.65,30.29c0-.34.13-.8.61-.8s.6.38.6.8-.16.79-.6.79-.61-.46-.61-.79m1.21-.71s0-.09-.06-.1a.69.69,0,0,0-.58-.29,1,1,0,0,0-1,1.12c0,.6.26,1.07.92,1.07a.78.78,0,0,0,.71-.37h0c0,.49,0,1-.59,1-.29,0-.49-.11-.5-.4h-.43c0,.5.33.69.8.69.79,0,1.13-.32,1.13-1.11V29.65a2.56,2.56,0,0,1,0-.39h-.42Z" style="fill-rule:evenodd"/><rect x="67.42" y="29.26" width="0.41" height="2.16"/><rect x="67.38" y="28.31" width="0.49" height="0.44"/><path d="M68.89,29.85c0,.84,1.31.48,1.31,1,0,.28-.24.37-.48.37a.4.4,0,0,1-.44-.4h-.43c0,.49.37.7.82.7s1-.16,1-.69-.42-.53-.78-.65c-.16-.05-.53-.06-.53-.31s.18-.34.4-.34.44.09.43.37h.43c0-.49-.43-.67-.84-.67s-.85.21-.85.66"/><path d="M71.38,29.25v.3h.37v1.37c0,.28,0,.29.1.4a.36.36,0,0,0,.24.14,1.18,1.18,0,0,0,.27,0,2.4,2.4,0,0,0,.28,0v-.31a.76.76,0,0,1-.21,0c-.15,0-.27-.08-.27-.23V29.55h.5v-.3h-.5v-.59l-.41.13v.46Z"/><rect x="73.65" y="29.26" width="0.41" height="2.16"/><rect x="73.61" y="28.31" width="0.49" height="0.44"/><path d="M76.93,30a.77.77,0,0,0-.82-.76c-.69,0-1,.53-1,1.16s.27,1.13,1,1.13a.82.82,0,0,0,.87-.78h-.4c0,.31-.19.48-.46.48s-.55-.34-.55-.84.16-.85.55-.85.42.19.44.46Z"/><path d="M77.76,29.85c0,.84,1.31.48,1.31,1,0,.28-.25.37-.49.37a.4.4,0,0,1-.44-.4h-.43c0,.49.38.7.83.7s1-.16,1-.69-.42-.53-.79-.65c-.15-.05-.52-.06-.52-.31s.17-.34.39-.34.45.09.43.37h.43c0-.49-.43-.67-.84-.67s-.84.21-.84.66"/><path d="M18.45,26.26l6.82,6.05a1.37,1.37,0,0,1,.53-.21,1.66,1.66,0,0,1,.75,3.23,1.68,1.68,0,0,1-2-1.24,1.64,1.64,0,0,1,.2-1.21l-6.79-6a5,5,0,0,0,.53-.6" style="fill:#f18e00"/><path d="M18.45,26.26l6.82,6.05a1.37,1.37,0,0,1,.53-.21,1.66,1.66,0,0,1,.75,3.23,1.68,1.68,0,0,1-2-1.24,1.64,1.64,0,0,1,.2-1.21l-6.79-6A5,5,0,0,0,18.45,26.26Z" style="fill:none;stroke:#f18e00;stroke-width:0.137146547436714px"/><path d="M15,20.22V11a1.81,1.81,0,1,1,.58,0v9.2a2.71,2.71,0,0,0-.57,0" style="fill:#f18e00"/><path d="M15,20.22V11a1.81,1.81,0,1,1,.58,0v9.2A2.81,2.81,0,0,0,15,20.22Z" style="fill:none;stroke:#f18e00;stroke-width:0.137146547436714px"/><path d="M15.62,27.86v1.77a1.42,1.42,0,1,1-1.7,1.4A1.41,1.41,0,0,1,15,29.64V27.86a3.74,3.74,0,0,0,.58,0" style="fill:#f18e00"/><path d="M15.62,27.86v1.77a1.42,1.42,0,1,1-1.7,1.4A1.41,1.41,0,0,1,15,29.64V27.86A3.74,3.74,0,0,0,15.62,27.86Z" style="fill:none;stroke:#f18e00;stroke-width:0.137146547436714px"/><path d="M17.8,21.11,21.65,17a1.15,1.15,0,0,1-.23-.75,1.23,1.23,0,0,1,2.45.08,1.23,1.23,0,0,1-1.27,1.19,1.25,1.25,0,0,1-.63-.21l-3.85,4.08a2.36,2.36,0,0,0-.32-.31" style="fill:#f18e00"/><path d="M17.8,21.11,21.65,17a1.15,1.15,0,0,1-.23-.75,1.23,1.23,0,0,1,2.45.08,1.23,1.23,0,0,1-1.27,1.19,1.25,1.25,0,0,1-.63-.21l-3.85,4.08A2.36,2.36,0,0,0,17.8,21.11Z" style="fill:none;stroke:#f18e00;stroke-width:0.137146547436714px"/><path d="M12.85,27,7.29,32.85a.74.74,0,0,1,.11.44.8.8,0,0,1-.83.78.82.82,0,0,1-.79-.84.81.81,0,0,1,.84-.78.82.82,0,0,1,.35.09l5.56-5.87c.09.1.23.22.32.3" style="fill:#f18e00"/><path d="M12.85,27,7.29,32.85a.74.74,0,0,1,.11.44.8.8,0,0,1-.83.78.82.82,0,0,1-.79-.84.81.81,0,0,1,.84-.78.82.82,0,0,1,.35.09l5.56-5.87C12.62,26.77,12.76,26.89,12.85,27Z" style="fill:none;stroke:#f18e00;stroke-width:0.137146547436714px"/><path d="M17.13,23.05v-.56H14.57a.74.74,0,0,0-.81.77v.36a.73.73,0,0,0,.81.77h2v.74H13.84s0,.62,0,.61h2.62a.73.73,0,0,0,.81-.77v-.44a.74.74,0,0,0-.81-.77h-2v-.71Z"/><polygon points="19.74 25.75 20.5 25.75 20.5 24.27 22.19 22.49 21.3 22.49 20.17 23.74 19.05 22.49 18.04 22.49 19.74 24.29 19.74 25.75"/><polygon points="29.94 23.07 31.45 23.07 31.45 22.49 27.69 22.49 27.69 23.07 29.18 23.07 29.18 25.75 29.94 25.75 29.94 23.07"/><path d="M37.56,25.74h.61v-2a2.18,2.18,0,0,0,0-.35,1.27,1.27,0,0,0,.2.34l1.22,1.63h.16L41,23.72a1.64,1.64,0,0,0,.19-.34,2.83,2.83,0,0,0,0,.35v2h.7V22.49h-.61l-1.5,2-1.54-2h-.61Z"/><polygon points="32.68 25.75 36.05 25.75 36.05 25.13 33.44 25.13 33.44 24.32 35 24.32 35 23.77 33.44 23.77 33.44 23.04 36.02 23.04 36.02 22.49 32.68 22.49 32.68 25.75"/><path d="M26.42,23.05v-.56H23.86a.74.74,0,0,0-.81.77v.36a.73.73,0,0,0,.81.77h2v.74H23.13s0,.62,0,.61h2.62a.74.74,0,0,0,.81-.77v-.44a.75.75,0,0,0-.81-.78h-2v-.7Z"/><path d="M44.72,25.75h.76l.39-.74h2.07l.4.74h.85l-1.88-3.28h-.73Zm1.47-1.33.73-1.32.7,1.32Z" style="fill-rule:evenodd"/><polygon points="50.34 25.75 53.42 25.75 53.42 25.13 51.09 25.13 51.09 22.49 50.34 22.49 50.34 25.75"/><polygon points="54.47 25.75 57.44 25.75 57.44 25.13 55.23 25.13 55.23 22.49 54.47 22.49 54.47 25.75"/><rect x="58.48" y="22.49" width="0.76" height="3.26"/><path d="M60.38,25.75h.76l.39-.74h2.06l.41.74h.85L63,22.47h-.73Zm1.47-1.33.73-1.32.7,1.32Z" style="fill-rule:evenodd"/><path d="M66,25.74h.68V24a4.22,4.22,0,0,0,0-.52,2.29,2.29,0,0,0,.27.27l2.4,2h.51V22.49h-.68V24.2c0,.1,0,.29,0,.56a2.44,2.44,0,0,0-.37-.35l-2.29-1.92H66Z"/><polygon points="76.12 25.75 79.49 25.75 79.49 25.13 76.88 25.13 76.88 24.32 78.44 24.32 78.44 23.77 76.88 23.77 76.88 23.04 79.46 23.04 79.46 22.49 76.12 22.49 76.12 25.75"/><path d="M72.92,23.07a.64.64,0,0,0-.58.29,1.34,1.34,0,0,0-.27.84,1,1,0,0,0,.26.71.69.69,0,0,0,.59.21h1.66v.63H72.89a2.37,2.37,0,0,1-.61-.07,1.25,1.25,0,0,1-.79-.74,2.13,2.13,0,0,1-.17-.77,1.84,1.84,0,0,1,.43-1.27,1.49,1.49,0,0,1,1.16-.41h1.67v.58Z"/></g></g></svg>