<svg xmlns="http://www.w3.org/2000/svg" viewBox="0 0 85 43"><g id="background"><g id="Ebene_2" data-name="Ebene 2"><rect width="85" height="43" style="fill:#1c146b"/></g></g><g id="icon"><g id="g4574"><path id="path4310" d="M33.17,27.72a1.92,1.92,0,0,0-.76-.18,1.42,1.42,0,0,0-1.35,1.53.74.74,0,0,0,.83.76,1.72,1.72,0,0,0,.48-.08l.21-1.1h.49l-.28,1.45a3.2,3.2,0,0,1-1,.18,1.12,1.12,0,0,1-1.25-1.18,1.9,1.9,0,0,1,1.94-2,3.15,3.15,0,0,1,.83.1Z" style="fill:#fff"/><path id="path4312" d="M33.93,29.27v.24c0,.28.1.38.45.38a1.69,1.69,0,0,0,.62-.14v.39a2,2,0,0,1-.79.14c-.52,0-.76-.25-.76-.77,0-.9.52-1.58,1.24-1.58.49,0,.66.27.66.55C35.35,29,34.86,29.24,33.93,29.27Zm.69-1c-.31,0-.52.27-.62.62.59,0,.9-.14.9-.42s-.1-.2-.28-.2" style="fill:#fff"/><path id="path4314" d="M37.39,30.24h-.45l.24-1.45c.07-.31,0-.45-.14-.45-.38,0-.79.83-.9,1.35l-.1.55h-.48l.24-1.17c.07-.38.14-.8.17-1.11h.49c0,.17-.11.41-.25.83h0c.25-.45.55-.86,1-.86s.55.3.44.76Z" style="fill:#fff"/><path id="path4316" d="M38.56,29.27v.24c0,.28.11.38.45.38a1.79,1.79,0,0,0,.63-.14v.39a2,2,0,0,1-.8.14c-.52,0-.76-.25-.76-.77,0-.9.52-1.58,1.24-1.58.49,0,.66.27.66.55C40,29,39.5,29.24,38.56,29.27Zm.7-1c-.32,0-.52.27-.63.62.63,0,.9-.14.9-.42s-.1-.2-.27-.2" style="fill:#fff"/><path id="path4318" d="M41.78,28.41c-.38-.1-.79.62-.93,1.31l-.07.52h-.49l.21-1.17c.07-.35.14-.76.21-1.11h.45a4.09,4.09,0,0,1-.21.79h0c.24-.52.52-.9.9-.82Z" style="fill:#fff"/><path id="path4320" d="M43.68,30.24H43.2c.07-.21.13-.45.24-.83h0c-.17.34-.49.87-1,.87-.31,0-.49-.21-.49-.7,0-.83.42-1.65,1.38-1.65a5.86,5.86,0,0,1,.76.06C43.85,29.17,43.79,29.69,43.68,30.24Zm-.41-1.93c-.59,0-.83.65-.83,1.2,0,.24.07.35.21.35.34,0,.79-.83.86-1.35l0-.14a.72.72,0,0,0-.27-.06" style="fill:#fff"/><path id="path4322" d="M44.82,30.24h-.48l.59-3.11h.44Z" style="fill:#fff"/><path id="path4324" d="M48.14,30.24H46.66l.58-3.11h.45l-.48,2.66h1Z" style="fill:#fff"/><path id="path4326" d="M49.38,30.28c-.58,0-.82-.28-.82-.8a1.4,1.4,0,0,1,1.31-1.55.74.74,0,0,1,.83.82A1.4,1.4,0,0,1,49.38,30.28Zm.42-1.94c-.48,0-.76.55-.76,1.07,0,.28.1.45.42.45s.76-.45.76-1c0-.31-.14-.48-.42-.48" style="fill:#fff"/><path id="path4328" d="M52.74,30.42c-.1.58-.48,1-1.32,1a1.68,1.68,0,0,1-.62-.1l.11-.45a1.25,1.25,0,0,0,.59.14.68.68,0,0,0,.79-.63,9.25,9.25,0,0,1,.24-.93h0c-.17.34-.48.87-1,.87s-.53-.21-.53-.7a1.48,1.48,0,0,1,1.43-1.65,5.83,5.83,0,0,1,.72.06Zm-.38-2.11c-.59,0-.83.65-.83,1.2,0,.24.07.35.21.35.38,0,.79-.83.9-1.35l0-.14a.9.9,0,0,0-.31-.06" style="fill:#fff"/><path id="path4330" d="M53.91,30.24h-.48L53.88,28h.45Zm.28-2.59a.29.29,0,0,1-.28-.31.31.31,0,0,1,.32-.31c.17,0,.31.13.27.27a.32.32,0,0,1-.31.35" style="fill:#fff"/><path id="path4332" d="M56,28.34a1.06,1.06,0,0,0-.32,0c-.24,0-.38.1-.38.27,0,.35.62.45.62.93s-.31.77-1,.77a1,1,0,0,1-.38,0l.07-.41a1.35,1.35,0,0,0,.34.06c.28,0,.45-.1.45-.31s-.62-.41-.62-.93.31-.72.9-.72c.14,0,.28,0,.38,0Z" style="fill:#fff"/><path id="path4334" d="M57.93,28.34h-.56l-.2,1.11c-.08.34,0,.41.17.41a1,1,0,0,0,.31,0l0,.41a1.75,1.75,0,0,1-.45,0c-.46,0-.59-.21-.49-.77l.21-1.17h-.42l.07-.38H57l.13-.69.49-.11-.14.8H58Z" style="fill:#fff"/><path id="path4336" d="M58.65,30.24h-.48L58.58,28h.49Zm.28-2.59a.29.29,0,0,1-.28-.31A.31.31,0,0,1,59,27a.27.27,0,0,1,.28.27.32.32,0,0,1-.31.35" style="fill:#fff"/><path id="path4338" d="M61,28.41a1,1,0,0,0-.38-.07c-.52,0-.73.59-.73,1.07,0,.21.07.45.42.45a.79.79,0,0,0,.45-.11l0,.42a1.28,1.28,0,0,1-.55.11.7.7,0,0,1-.8-.77c0-.86.49-1.58,1.28-1.58a2.85,2.85,0,0,1,.49.06Z" style="fill:#fff"/><path id="path4340" d="M62.66,28.34a1,1,0,0,0-.31,0c-.24,0-.38.1-.38.27,0,.35.62.45.62.93s-.34.77-1,.77a1.05,1.05,0,0,1-.38,0l.08-.41a1.35,1.35,0,0,0,.34.06c.28,0,.45-.1.45-.31s-.62-.41-.62-.93.31-.72.89-.72c.14,0,.28,0,.39,0Z" style="fill:#fff"/><path id="path4342" d="M66,27.61a1,1,0,0,0-.42-.07c-.41,0-.62.21-.62.45,0,.52.9.52.9,1.25a1.09,1.09,0,0,1-1.21,1,1.34,1.34,0,0,1-.52-.07l.11-.46a1.67,1.67,0,0,0,.44.11c.45,0,.66-.21.66-.52,0-.52-.86-.52-.86-1.24,0-.52.38-1,1.14-1a2.27,2.27,0,0,1,.45,0Z" style="fill:#fff"/><path id="path4344" d="M66.71,31a1.23,1.23,0,0,1-.83.41,1.38,1.38,0,0,1-.35,0l.11-.42c.07,0,.17,0,.27,0a.57.57,0,0,0,.45-.25.85.85,0,0,0,.21-.65A8.1,8.1,0,0,0,66.26,28h.52A8.45,8.45,0,0,1,67,29.69a.78.78,0,0,1,0,.24h0a16.41,16.41,0,0,0,.93-2l.45.14A10.11,10.11,0,0,1,66.71,31" style="fill:#fff"/><path id="path4346" d="M69.75,28.34a1.09,1.09,0,0,0-.31,0c-.28,0-.38.1-.38.27,0,.35.62.45.62.93s-.34.77-1,.77a1.23,1.23,0,0,1-.38,0l.1-.41a1.22,1.22,0,0,0,.35.06c.28,0,.45-.1.45-.31s-.63-.41-.63-.93.28-.72.91-.72c.13,0,.24,0,.38,0Z" style="fill:#fff"/><path id="path4348" d="M71.65,28.34H71.1l-.21,1.11c-.07.34,0,.41.17.41a.77.77,0,0,0,.28,0l0,.41a1.5,1.5,0,0,1-.42,0c-.45,0-.59-.21-.48-.77l.21-1.17H70.2l.07-.38h.41l.14-.69.49-.11-.14.8h.55Z" style="fill:#fff"/><path id="path4350" d="M72.41,29.27a.69.69,0,0,0,0,.24c0,.28.1.38.45.38a1.57,1.57,0,0,0,.62-.14v.39a1.89,1.89,0,0,1-.79.14c-.52,0-.76-.25-.76-.77,0-.9.51-1.58,1.24-1.58.52,0,.69.27.69.55C73.83,29,73.31,29.24,72.41,29.27Zm.66-1c-.31,0-.52.27-.62.62.62,0,.9-.14.9-.42s-.11-.2-.28-.2" style="fill:#fff"/><path id="path4352" d="M77.15,30.24H76.7L77,28.79c0-.31,0-.45-.17-.45s-.76.69-.87,1.35l-.1.55h-.49l.28-1.45c.07-.31,0-.45-.14-.45-.34,0-.79.79-.9,1.35l-.1.55H74l.2-1.17L74.45,28h.45a6,6,0,0,1-.2.83h0c.2-.45.51-.86,1-.86a.41.41,0,0,1,.44.44,1.18,1.18,0,0,1-.1.42h0c.21-.45.55-.86,1-.86s.55.3.48.76Z" style="fill:#fff"/><path id="path4354" d="M79.29,28.34a1.05,1.05,0,0,0-.31,0c-.27,0-.41.1-.41.27,0,.35.62.45.62.93s-.31.77-1,.77a1.14,1.14,0,0,1-.38,0l.07-.41a1.67,1.67,0,0,0,.38.06c.24,0,.42-.1.42-.31s-.63-.41-.63-.93.31-.72.9-.72c.17,0,.28,0,.38,0Z" style="fill:#fff"/><path id="path4356" d="M33.17,27.72a1.92,1.92,0,0,0-.76-.18,1.42,1.42,0,0,0-1.35,1.53.74.74,0,0,0,.83.76,1.72,1.72,0,0,0,.48-.08l.21-1.1h.49l-.28,1.45a3.2,3.2,0,0,1-1,.18,1.12,1.12,0,0,1-1.25-1.18,1.9,1.9,0,0,1,1.94-2,3.15,3.15,0,0,1,.83.1Z" style="fill:#fff"/><path id="path4358" d="M33.93,29.27v.24c0,.28.1.38.45.38a1.69,1.69,0,0,0,.62-.14v.39a2,2,0,0,1-.79.14c-.52,0-.76-.25-.76-.77,0-.9.52-1.58,1.24-1.58.49,0,.66.27.66.55C35.35,29,34.86,29.24,33.93,29.27Zm.69-1c-.31,0-.52.27-.62.62.59,0,.9-.14.9-.42s-.1-.2-.28-.2" style="fill:#fff"/><path id="path4360" d="M37.39,30.24h-.45l.24-1.45c.07-.31,0-.45-.14-.45-.38,0-.79.83-.9,1.35l-.1.55h-.48l.24-1.17c.07-.38.14-.8.17-1.11h.49c0,.17-.11.41-.25.83h0c.25-.45.55-.86,1-.86s.55.3.44.76Z" style="fill:#fff"/><path id="path4362" d="M38.56,29.27v.24c0,.28.11.38.45.38a1.79,1.79,0,0,0,.63-.14v.39a2,2,0,0,1-.8.14c-.52,0-.76-.25-.76-.77,0-.9.52-1.58,1.24-1.58.49,0,.66.27.66.55C40,29,39.5,29.24,38.56,29.27Zm.7-1c-.32,0-.52.27-.63.62.63,0,.9-.14.9-.42s-.1-.2-.27-.2" style="fill:#fff"/><path id="path4364" d="M41.78,28.41c-.38-.1-.79.62-.93,1.31l-.07.52h-.49l.21-1.17c.07-.35.14-.76.21-1.11h.45a4.09,4.09,0,0,1-.21.79h0c.24-.52.52-.9.9-.82Z" style="fill:#fff"/><path id="path4366" d="M43.68,30.24H43.2c.07-.21.13-.45.24-.83h0c-.17.34-.49.87-1,.87-.31,0-.49-.21-.49-.7,0-.83.42-1.65,1.38-1.65a5.86,5.86,0,0,1,.76.06C43.85,29.17,43.79,29.69,43.68,30.24Zm-.41-1.93c-.59,0-.83.65-.83,1.2,0,.24.07.35.21.35.34,0,.79-.83.86-1.35l0-.14a.72.72,0,0,0-.27-.06" style="fill:#fff"/><path id="path4368" d="M44.82,30.24h-.48l.59-3.11h.44Z" style="fill:#fff"/><path id="path4370" d="M48.14,30.24H46.66l.58-3.11h.45l-.48,2.66h1Z" style="fill:#fff"/><path id="path4372" d="M49.38,30.28c-.58,0-.82-.28-.82-.8a1.4,1.4,0,0,1,1.31-1.55.74.74,0,0,1,.83.82A1.4,1.4,0,0,1,49.38,30.28Zm.42-1.94c-.48,0-.76.55-.76,1.07,0,.28.1.45.42.45s.76-.45.76-1c0-.31-.14-.48-.42-.48" style="fill:#fff"/><path id="path4374" d="M52.74,30.42c-.1.58-.48,1-1.32,1a1.68,1.68,0,0,1-.62-.1l.11-.45a1.25,1.25,0,0,0,.59.14.68.68,0,0,0,.79-.63,9.25,9.25,0,0,1,.24-.93h0c-.17.34-.48.87-1,.87s-.53-.21-.53-.7a1.48,1.48,0,0,1,1.43-1.65,5.83,5.83,0,0,1,.72.06Zm-.38-2.11c-.59,0-.83.65-.83,1.2,0,.24.07.35.21.35.38,0,.79-.83.9-1.35l0-.14a.9.9,0,0,0-.31-.06" style="fill:#fff"/><path id="path4376" d="M53.91,30.24h-.48L53.88,28h.45Zm.28-2.59a.29.29,0,0,1-.28-.31.31.31,0,0,1,.32-.31c.17,0,.31.13.27.27a.32.32,0,0,1-.31.35" style="fill:#fff"/><path id="path4378" d="M56,28.34a1.06,1.06,0,0,0-.32,0c-.24,0-.38.1-.38.27,0,.35.62.45.62.93s-.31.77-1,.77a1,1,0,0,1-.38,0l.07-.41a1.35,1.35,0,0,0,.34.06c.28,0,.45-.1.45-.31s-.62-.41-.62-.93.31-.72.9-.72c.14,0,.28,0,.38,0Z" style="fill:#fff"/><path id="path4380" d="M57.93,28.34h-.56l-.2,1.11c-.08.34,0,.41.17.41a1,1,0,0,0,.31,0l0,.41a1.75,1.75,0,0,1-.45,0c-.46,0-.59-.21-.49-.77l.21-1.17h-.42l.07-.38H57l.13-.69.49-.11-.14.8H58Z" style="fill:#fff"/><path id="path4382" d="M58.65,30.24h-.48L58.58,28h.49Zm.28-2.59a.29.29,0,0,1-.28-.31A.31.31,0,0,1,59,27a.27.27,0,0,1,.28.27.32.32,0,0,1-.31.35" style="fill:#fff"/><path id="path4384" d="M61,28.41a1,1,0,0,0-.38-.07c-.52,0-.73.59-.73,1.07,0,.21.07.45.42.45a.79.79,0,0,0,.45-.11l0,.42a1.28,1.28,0,0,1-.55.11.7.7,0,0,1-.8-.77c0-.86.49-1.58,1.28-1.58a2.85,2.85,0,0,1,.49.06Z" style="fill:#fff"/><path id="path4386" d="M62.66,28.34a1,1,0,0,0-.31,0c-.24,0-.38.1-.38.27,0,.35.62.45.62.93s-.34.77-1,.77a1.05,1.05,0,0,1-.38,0l.08-.41a1.35,1.35,0,0,0,.34.06c.28,0,.45-.1.45-.31s-.62-.41-.62-.93.31-.72.89-.72c.14,0,.28,0,.39,0Z" style="fill:#fff"/><path id="path4388" d="M66,27.61a1,1,0,0,0-.42-.07c-.41,0-.62.21-.62.45,0,.52.9.52.9,1.25a1.09,1.09,0,0,1-1.21,1,1.34,1.34,0,0,1-.52-.07l.11-.46a1.67,1.67,0,0,0,.44.11c.45,0,.66-.21.66-.52,0-.52-.86-.52-.86-1.24,0-.52.38-1,1.14-1a2.27,2.27,0,0,1,.45,0Z" style="fill:#fff"/><path id="path4390" d="M66.71,31a1.23,1.23,0,0,1-.83.41,1.38,1.38,0,0,1-.35,0l.11-.42c.07,0,.17,0,.27,0a.57.57,0,0,0,.45-.25.85.85,0,0,0,.21-.65A8.1,8.1,0,0,0,66.26,28h.52A8.45,8.45,0,0,1,67,29.69a.78.78,0,0,1,0,.24h0a16.41,16.41,0,0,0,.93-2l.45.14A10.11,10.11,0,0,1,66.71,31" style="fill:#fff"/><path id="path4392" d="M69.75,28.34a1.09,1.09,0,0,0-.31,0c-.28,0-.38.1-.38.27,0,.35.62.45.62.93s-.34.77-1,.77a1.23,1.23,0,0,1-.38,0l.1-.41a1.22,1.22,0,0,0,.35.06c.28,0,.45-.1.45-.31s-.63-.41-.63-.93.28-.72.91-.72c.13,0,.24,0,.38,0Z" style="fill:#fff"/><path id="path4394" d="M71.65,28.34H71.1l-.21,1.11c-.07.34,0,.41.17.41a.77.77,0,0,0,.28,0l0,.41a1.5,1.5,0,0,1-.42,0c-.45,0-.59-.21-.48-.77l.21-1.17H70.2l.07-.38h.41l.14-.69.49-.11-.14.8h.55Z" style="fill:#fff"/><path id="path4396" d="M72.41,29.27a.69.69,0,0,0,0,.24c0,.28.1.38.45.38a1.57,1.57,0,0,0,.62-.14v.39a1.89,1.89,0,0,1-.79.14c-.52,0-.76-.25-.76-.77,0-.9.51-1.58,1.24-1.58.52,0,.69.27.69.55C73.83,29,73.31,29.24,72.41,29.27Zm.66-1c-.31,0-.52.27-.62.62.62,0,.9-.14.9-.42s-.11-.2-.28-.2" style="fill:#fff"/><path id="path4398" d="M77.15,30.24H76.7L77,28.79c0-.31,0-.45-.17-.45s-.76.69-.87,1.35l-.1.55h-.49l.28-1.45c.07-.31,0-.45-.14-.45-.34,0-.79.79-.9,1.35l-.1.55H74l.2-1.17L74.45,28h.45a6,6,0,0,1-.2.83h0c.2-.45.51-.86,1-.86a.41.41,0,0,1,.44.44,1.18,1.18,0,0,1-.1.42h0c.21-.45.55-.86,1-.86s.55.3.48.76Z" style="fill:#fff"/><path id="path4400" d="M79.29,28.34a1.05,1.05,0,0,0-.31,0c-.27,0-.41.1-.41.27,0,.35.62.45.62.93s-.31.77-1,.77a1.14,1.14,0,0,1-.38,0l.07-.41a1.67,1.67,0,0,0,.38.06c.24,0,.42-.1.42-.31s-.63-.41-.63-.93.31-.72.9-.72c.17,0,.28,0,.38,0Z" style="fill:#fff"/><path id="path4402" d="M44.58,22l1.59-8.16H43.41L41.3,24.75h5L46.86,22Z" style="fill:#fff"/><path id="path4404" d="M52.74,16.27a5.11,5.11,0,0,1,1.49.24L54.71,14a15.67,15.67,0,0,0-1.9-.14c-3,0-4.43,1.8-4.43,3.8,0,2.63,2.7,2.6,2.7,3.74,0,.55-.42.86-1.24.86a5.36,5.36,0,0,1-1.9-.34l-.52,2.7a9.43,9.43,0,0,0,2.14.2c2.7,0,4.56-1.8,4.56-4,0-2.56-2.7-2.6-2.7-3.74,0-.48.35-.83,1.32-.83" style="fill:#fff"/><path id="path4406" d="M39.12,13.85a6.64,6.64,0,0,0-6.81,6.92c0,2.35,1.24,4,4.42,4a9.47,9.47,0,0,0,3.63-.7l1-5.25H38.6L38,22a2.49,2.49,0,0,1-.76.08,1.63,1.63,0,0,1-1.87-1.8,3.56,3.56,0,0,1,3.53-3.84,8.4,8.4,0,0,1,2,.31.47.47,0,0,0,.21.07c.21.1.42.17.56.24l.58-2.83a13.58,13.58,0,0,0-3.14-.42" style="fill:#fff"/><path id="path4408" d="M18.24,13.87l-.74,3.62h5.14c-4.26,6.31-12.72,5.24-15,2.63-1.92-2.26-.26-6.12,5.45-8.5-5.65,1.72-8.82,6.23-7,9.27,2.11,3.45,8.7,4.88,14.55,3.21,3.91-1.37,5.58-3.3,6.19-4.34l-1,5H29.8l2.08-10.9Z" style="fill:#eaaf0f"/></g></g></svg>