<svg xmlns="http://www.w3.org/2000/svg" viewBox="0 0 85 43"><g id="twt-background"><g id="Ebene_2" data-name="Ebene 2"><rect width="85" height="43" style="fill:#fff"/></g></g><g id="twt-primary"><path d="M23.76,24.61a1.69,1.69,0,0,1-.78-.76,2.37,2.37,0,0,1-.27-1.2v-.48H24.1v.46a.89.89,0,0,0,.23.66.9.9,0,0,0,.66.23.82.82,0,0,0,.64-.23.89.89,0,0,0,.22-.66v-.8a.85.85,0,0,0-.15-.51,1.2,1.2,0,0,0-.39-.35,6.09,6.09,0,0,0-.65-.34l0,0h0l-.08,0a6.07,6.07,0,0,1-.91-.54,2,2,0,0,1-.62-.72,2.29,2.29,0,0,1-.25-1.14v-.5a2.59,2.59,0,0,1,.26-1.2,1.74,1.74,0,0,1,.77-.75A2.87,2.87,0,0,1,25,15.45a2.59,2.59,0,0,1,1.2.26,1.7,1.7,0,0,1,.75.75,2.67,2.67,0,0,1,.26,1.21v.5H25.8V17.7a1,1,0,0,0-.21-.67A.82.82,0,0,0,25,16.8a.91.91,0,0,0-.65.22.82.82,0,0,0-.22.61v.59a.92.92,0,0,0,.15.53,1.24,1.24,0,0,0,.37.35c.16.09.37.2.63.32l.11.06.12.06h0l0,0a6.43,6.43,0,0,1,.87.49,2,2,0,0,1,.57.67,2.22,2.22,0,0,1,.23,1.1v.8A2.49,2.49,0,0,1,27,23.85a1.72,1.72,0,0,1-.77.76,2.53,2.53,0,0,1-1.22.26A2.72,2.72,0,0,1,23.76,24.61Z"/><path d="M28.53,18.19h1.4v9.26h-1.4Zm1.8,6.38a1.71,1.71,0,0,1-.49-.83l.09-1a1.26,1.26,0,0,0,.08.46.59.59,0,0,0,.22.29.62.62,0,0,0,.34.1.54.54,0,0,0,.46-.23,1.06,1.06,0,0,0,.17-.64V20.17a1,1,0,0,0-.17-.62.55.55,0,0,0-.46-.21.62.62,0,0,0-.34.09.54.54,0,0,0-.22.27,1.21,1.21,0,0,0-.08.45l-.13-.87a2,2,0,0,1,.56-.89,1.24,1.24,0,0,1,.81-.32,1.27,1.27,0,0,1,.76.23,1.42,1.42,0,0,1,.48.67A3,3,0,0,1,32.58,20v2.85A3.14,3.14,0,0,1,32.41,24a1.48,1.48,0,0,1-.5.68,1.35,1.35,0,0,1-.78.23A1.19,1.19,0,0,1,30.33,24.57Z"/><path d="M34.64,24.62a1.65,1.65,0,0,1-.7-.71,2.54,2.54,0,0,1-.24-1.15V20.3a3,3,0,0,1,.23-1.21,1.76,1.76,0,0,1,.69-.76,2.41,2.41,0,0,1,2.16,0,1.62,1.62,0,0,1,.7.72,2.68,2.68,0,0,1,.23,1.15V22h-3V20.92h1.61v-.75a1,1,0,0,0-.17-.63.61.61,0,0,0-.5-.22.57.57,0,0,0-.49.23,1.12,1.12,0,0,0-.17.68v2.58a.84.84,0,0,0,.18.58.66.66,0,0,0,.53.21.68.68,0,0,0,.48-.16A.61.61,0,0,0,36.4,23v-.14h1.33V23a1.84,1.84,0,0,1-.52,1.41,2,2,0,0,1-1.46.49A2.25,2.25,0,0,1,34.64,24.62Z"/><path d="M39.49,24.67A1.41,1.41,0,0,1,39,24a3,3,0,0,1-.16-1V20A2.88,2.88,0,0,1,39,19a1.39,1.39,0,0,1,.47-.65,1.21,1.21,0,0,1,.74-.23,1.24,1.24,0,0,1,.81.31,2.16,2.16,0,0,1,.59.87l-.13.89a1.33,1.33,0,0,0-.07-.43.54.54,0,0,0-.22-.27.59.59,0,0,0-.34-.09.57.57,0,0,0-.47.21.91.91,0,0,0-.17.58v2.72a.82.82,0,0,0,.17.55.67.67,0,0,0,.81.11.54.54,0,0,0,.22-.27,1.21,1.21,0,0,0,.07-.41l.09.9a1.75,1.75,0,0,1-.53.85,1.25,1.25,0,0,1-.83.3A1.2,1.2,0,0,1,39.49,24.67Zm2-9.12h1.4v9.23H41.5Z"/><path d="M44.22,15.59H45.6V17H44.22Zm0,2.6H45.6v6.59H44.22Z"/><path d="M46.42,18.19h2.91v1.29H46.42Zm1,6.18a1.87,1.87,0,0,1-.4-1.31V16.27h1.39v6.66a.62.62,0,0,0,.11.39.39.39,0,0,0,.33.14h.46v1.35h-.66A1.58,1.58,0,0,1,47.44,24.37Z"/><path d="M50.34,15.59h1.38V17H50.34Zm0,2.6h1.38v6.59H50.34Z"/><path d="M53.81,24.65a1.57,1.57,0,0,1-.67-.63,2.08,2.08,0,0,1-.23-1V19.89a2,2,0,0,1,.23-1,1.49,1.49,0,0,1,.67-.62,2.59,2.59,0,0,1,2.09,0,1.42,1.42,0,0,1,.66.62,2,2,0,0,1,.22,1V23a2.07,2.07,0,0,1-.22,1,1.47,1.47,0,0,1-.66.62,2.59,2.59,0,0,1-2.09,0Zm1.45-1.24a.69.69,0,0,0,.14-.47V20a.69.69,0,0,0-.14-.45.51.51,0,0,0-.41-.16.53.53,0,0,0-.41.16.64.64,0,0,0-.15.45v3a.68.68,0,0,0,.15.47.58.58,0,0,0,.82,0Z"/><path d="M58,18.19h1.4v6.59H58Zm2.7,2a1,1,0,0,0-.16-.62.58.58,0,0,0-.49-.21.57.57,0,0,0-.49.21,1,1,0,0,0-.16.63l-.14-.86a2,2,0,0,1,.59-.93,1.36,1.36,0,0,1,.87-.32,1.23,1.23,0,0,1,1,.45,2,2,0,0,1,.36,1.28v5h-1.4Z"/></g></svg>