<svg xmlns="http://www.w3.org/2000/svg" viewBox="0 0 85 43"><g id="background"><g id="Ebene_2" data-name="Ebene 2"><rect width="85" height="43" style="fill:#ffcc07"/></g></g><g id="icon"><path d="M70.81,15.82a2.95,2.95,0,1,0,3,2.94,2.95,2.95,0,0,0-3-2.94m-6.6,10.87,2.1-2.12h2.07l-2.09,2.12Zm4.88,0H67l2.1-2.12h2.08Zm4.68,0-2.1-2.12h2.08l2.1,2.12Zm2.8,0-2.1-2.12h2.08l2.1,2.12Zm-5.3-2.5c-5.44,0-7.55-4.74-7.27-8.33l1.6-.51a6.33,6.33,0,0,0,.81,4.19,4.39,4.39,0,0,1,4.39-5.23,4.32,4.32,0,0,1,4.48,4.36,13.6,13.6,0,0,0,.66-3.52l3.69.92a8.42,8.42,0,0,1-8.36,8.12" style="fill:#241f21"/><path d="M39.45,20.7a1,1,0,0,0-1.06,1.08h2c0-.59-.3-1.08-1-1.08m11.32.05a1.23,1.23,0,0,0-1.16,1.37c0,.76.25,1.59,1.16,1.59s1.16-.82,1.16-1.59a1.22,1.22,0,0,0-1.16-1.37m-4.9-1.47h-.43v1.9h.43c.63,0,1.19-.2,1.19-.93s-.54-1-1.19-1m-38.55,0H6.63v4.27h.69a2.14,2.14,0,0,0,0-4.27m6,1.42a1,1,0,0,0-1.06,1.08h2c0-.59-.3-1.08-1-1.08M7.08,24.53H5.38V18.29h1.7c1.91,0,3.6.65,3.6,3.12S9,24.53,7.08,24.53m6.53-.77a3.06,3.06,0,0,0,1.53-.46v1a3.16,3.16,0,0,1-1.58.37,2.19,2.19,0,0,1-2.4-2.39,2.15,2.15,0,0,1,2.13-2.43c1.71,0,2.19,1.17,2.19,2.78H12.3a1.2,1.2,0,0,0,1.31,1.16m6.65.77H19.12v-.62h0a1.94,1.94,0,0,1-1.51.73c-1.09,0-1.56-.77-1.56-1.81v-2.9h1.2v2.45c0,.57,0,1.33.77,1.33s1.06-.94,1.06-1.53V19.93h1.2v4.6Zm2.88.11a1.35,1.35,0,0,1-1.46-1.49V20.8H20.8v-.87h.88V19l1.2-.38v1.3H24v.87H22.88V23c0,.39.11.76.56.76a1.21,1.21,0,0,0,.55-.12l0,.94a3.15,3.15,0,0,1-.88.11m2.82,0a5.66,5.66,0,0,1-1.36-.2l.07-1a2.62,2.62,0,0,0,1.18.3c.31,0,.79-.11.79-.56,0-.9-2.08-.29-2.08-1.95,0-1,.86-1.43,1.8-1.43a5.64,5.64,0,0,1,1.31.17l-.08.9a3.1,3.1,0,0,0-1.08-.19c-.31,0-.7.11-.7.51,0,.73,2.08.26,2.08,1.92,0,1.08-.95,1.51-1.93,1.51m4.66,0a2.18,2.18,0,0,1-2.27-2.43,2.18,2.18,0,0,1,2.23-2.39,4.3,4.3,0,0,1,1.16.15l-.11,1a1.81,1.81,0,0,0-.81-.17c-.75,0-1.22.59-1.22,1.46s.4,1.5,1.24,1.5a2.49,2.49,0,0,0,.92-.22l0,1a3.72,3.72,0,0,1-1.19.16m6-.11H35.47V22.07c0-.56,0-1.32-.78-1.32s-1.06.94-1.06,1.53v2.25H32.44v-6.7h1.19v2.72h0a1.73,1.73,0,0,1,1.45-.73c1.09,0,1.56.77,1.56,1.81Zm3-.77a3.12,3.12,0,0,0,1.53-.46v1a3.2,3.2,0,0,1-1.59.37,2.19,2.19,0,0,1-2.4-2.39,2.16,2.16,0,0,1,2.14-2.43c1.71,0,2.19,1.17,2.19,2.78H38.39a1.2,1.2,0,0,0,1.31,1.16M46,22.16h-.53v2.37H44.19V18.29h1.58c1.36,0,2.6.4,2.6,1.89s-1.06,2-2.4,2m4.8,2.48a2.28,2.28,0,0,1-2.41-2.38,2.41,2.41,0,1,1,4.82,0,2.28,2.28,0,0,1-2.41,2.38m4.31,0a5.66,5.66,0,0,1-1.36-.2l.07-1a2.62,2.62,0,0,0,1.18.3c.31,0,.79-.11.79-.56,0-.9-2.08-.29-2.08-1.95,0-1,.87-1.43,1.81-1.43a5.55,5.55,0,0,1,1.3.17l-.08.9a3.08,3.08,0,0,0-1.07-.19c-.32,0-.71.11-.71.51,0,.73,2.08.26,2.08,1.92,0,1.08-.95,1.51-1.93,1.51m4.68,0a1.35,1.35,0,0,1-1.46-1.49V20.8h-.88v-.87h.88V19l1.2-.38v1.3h1.06v.87H59.5V23c0,.39.11.76.56.76a1.21,1.21,0,0,0,.55-.12l0,.94a3.15,3.15,0,0,1-.88.11" style="fill:#241f21"/></g></svg>