<svg xmlns="http://www.w3.org/2000/svg" viewBox="0 0 85 43"><g id="background"><g id="Ebene_2" data-name="Ebene 2"><rect width="85" height="43" style="fill:#fff"/></g></g><g id="icon"><path d="M34.76,16.83l-.28,1.11h-.59l-.28,1.15h.62l-.77,3.32c-.06.31-.1.9.78.9h1.17l.26-1.1s-.63.15-.53-.33.67-2.79.67-2.79h.62l.24-1.15h-.6l.25-1.11Z" style="fill:#1b1c20"/><path d="M37.29,17.94,36,23.31h1.8s.44-1.86.68-2.72.75-1,1-1a5.47,5.47,0,0,1,.61,0l.48-1.64a1.81,1.81,0,0,0-1.16.16c-.47.31-.45.37-.45.37l.14-.53Z" style="fill:#1b1c20"/><path d="M43.21,17.87a3.28,3.28,0,0,0-1.91.45,1.74,1.74,0,0,0-.82,1.25h1.83a1.55,1.55,0,0,1,.06-.26c.12-.44.28-.46.53-.46s.45.32.06.65a12.81,12.81,0,0,1-2.19,1c-.71.32-.85.65-1.06,1.43s-.06,1.39.85,1.44a2.72,2.72,0,0,0,1.55-.49L42,23.3h1.76s.73-2.51,1.14-4S43.63,17.87,43.21,17.87Zm-.8,3.9a.92.92,0,0,1-.52.48c-.38.16-.31-.14-.28-.3A2.34,2.34,0,0,1,42,21a2.59,2.59,0,0,1,.73-.41S42.47,21.6,42.41,21.77Z" style="fill:#1b1c20"/><path d="M45.76,17.94l-1.44,5.37h1.79s.83-3.12,1-3.52.25-.54.62-.54.31.22.24.5-1,3.56-1,3.56h1.79s.75-2.82,1-3.73.12-1.26-.24-1.54-1.36,0-1.56.12l-.58.36.14-.58Z" style="fill:#1b1c20"/><path d="M51.25,21.44H49.62a2.66,2.66,0,0,0-.15,1.21c.13.39.44.76,1.64.76a2.47,2.47,0,0,0,2.28-.89,2.09,2.09,0,0,0,.35-1.12,1,1,0,0,0-.51-.87c-.18-.12-.47-.33-.75-.5s-.72-.44-.65-.7A.45.45,0,0,1,52.4,19c.22.06.22.27.2.43a1.9,1.9,0,0,1-.11.33h1.6a2.26,2.26,0,0,0,.12-1c-.08-.42-.42-.78-1.65-.82a2.28,2.28,0,0,0-1.86.62A1.73,1.73,0,0,0,50.15,20c0,.41.57.8.88,1a6,6,0,0,1,.9.67.46.46,0,0,1-.15.68c-.33.17-.68.06-.67-.25a2,2,0,0,1,.14-.65" style="fill:#1b1c20"/><polygon points="54.27 20.41 54.4 19.95 56.4 19.95 56.27 20.41 54.27 20.41" style="fill:#1b1c20"/><path d="M59.55,18c-1.08,0-2.24.24-2.59,1.43s-.59,2.14-.66,2.43-.42,1.54,1.62,1.54c2.33,0,2.66-1,2.73-1.23s.66-2.16.8-3S60.62,18,59.55,18Zm.09,1.36c0,.18-.66,2.44-.72,2.65a.58.58,0,0,1-.59.4c-.35,0-.27-.38-.25-.5s.57-2.16.67-2.49a.53.53,0,0,1,.58-.42C59.58,19,59.67,19.18,59.64,19.37Z" style="fill:#1b1c20"/><polygon points="61.59 20.41 61.73 19.95 64.03 19.95 63.9 20.41 61.59 20.41" style="fill:#1b1c20"/><path d="M63.73,23.31l.94-4.08H64l.24-1.06h.69a3.1,3.1,0,0,1,.52-1.28,1.41,1.41,0,0,1,1-.34h1.34l-.25,1.07a1.63,1.63,0,0,0-.62.05c-.15.08-.2.5-.2.5h.66l-.23,1.06h-.67l-1,4.08Z" style="fill:#1b1c20"/><polygon points="66.86 23.31 68.28 16.55 70.21 16.55 68.79 23.31 66.86 23.31" style="fill:#1b1c20"/><path d="M74.07,18.44a2.12,2.12,0,0,0-1.62-.56,2.69,2.69,0,0,0-1.66.39A2.13,2.13,0,0,0,70,19.61c-.13.59-.48,2.17-.5,2.39s-.07,1.42,1.81,1.42,2.25-1,2.37-1.32a6.13,6.13,0,0,0,.18-.81H72.15S72,21.86,72,22a.54.54,0,0,1-.54.38c-.35,0-.33-.24-.3-.4s.24-1.17.24-1.17H74s.26-1.15.3-1.5A1.32,1.32,0,0,0,74.07,18.44ZM72.5,19.8h-.89a3.65,3.65,0,0,1,.15-.55.58.58,0,0,1,.51-.36c.29,0,.33.18.33.27A4.34,4.34,0,0,1,72.5,19.8Z" style="fill:#1b1c20"/><polygon points="74.71 17.94 75.33 20.61 73.2 23.31 75.1 23.31 76.12 21.64 76.42 23.31 78.19 23.31 77.43 20.6 79.5 17.94 77.62 17.94 76.7 19.45 76.52 17.94 74.71 17.94" style="fill:#1b1c20"/><path id="path5503" d="M23.12,23.38a2.38,2.38,0,0,0,0-4.75c-1.29,0-3.09,1-3.12,4H17.43c0-5.21,2.9-6.73,5.69-6.73a5.14,5.14,0,0,1,0,10.28H5.5l2.78-2.77Z" style="fill:#ee7900"/><path id="path5511" d="M23.12,26.76a5.75,5.75,0,0,0,0-11.5c-3.12,0-6.24,1.86-6.27,7.34H14.17c0-6.61,4.33-10.1,9-10.1a8.51,8.51,0,0,1,0,17H8.21L5.5,26.76Z" style="fill:#ee7900"/><path id="path5507" d="M23.12,23.38a2.38,2.38,0,0,0,0-4.75c-1.29,0-3.09,1-3.12,4H17.43c0-5.21,2.9-6.73,5.69-6.73a5.14,5.14,0,0,1,0,10.28H5.5l2.78-2.77Zm0,3.38a5.75,5.75,0,0,0,0-11.5c-3.12,0-6.24,1.86-6.27,7.34H14.17c0-6.61,4.33-10.1,9-10.1a8.51,8.51,0,0,1,0,17H8.21L5.5,26.76Z" style="fill:#ee7900;stroke:#f57215;stroke-miterlimit:3.86400008201599;stroke-width:0.01586392077176px"/><path id="path5519" d="M32.73,29.53l.8-3.76H34l-.71,3.35h1.53l-.09.41Z" style="fill:#1b1c20"/><path id="path5523" d="M37.09,29.26c.38,0,.64-.38.81-1.14a3.51,3.51,0,0,0,.08-.61c0-.36-.14-.53-.41-.53s-.62.38-.78,1.14a3.38,3.38,0,0,0-.08.62c0,.34.13.52.38.52m-.77-1.14c.22-1,.66-1.49,1.34-1.49.52,0,.78.28.78.85a3.37,3.37,0,0,1-.08.64c-.21,1-.66,1.48-1.33,1.48s-.78-.28-.78-.84a3.19,3.19,0,0,1,.07-.64" style="fill:#1b1c20"/><path id="path5527" d="M41,27a.54.54,0,0,0-.48.3,2.57,2.57,0,0,0-.28.81,3,3,0,0,0-.06.53c0,.33.12.5.35.5a.62.62,0,0,0,.54-.3,2.31,2.31,0,0,0,.26-.73,2.58,2.58,0,0,0,.07-.56c0-.37-.13-.55-.4-.55m1-.31-.57,2.65c-.16.77-.56,1.15-1.2,1.15s-.78-.2-.78-.6v-.11H40c0,.24.1.36.38.36a.61.61,0,0,0,.54-.24.91.91,0,0,0,.14-.39l.08-.37h0a.74.74,0,0,1-.3.28.87.87,0,0,1-.42.1c-.42,0-.64-.27-.64-.82a2.62,2.62,0,0,1,.07-.59c.21-1,.62-1.49,1.24-1.49a.52.52,0,0,1,.37.13.48.48,0,0,1,.15.3h0l.08-.36Z" style="fill:#1b1c20"/><path id="path5531" d="M43.87,26.27l.11-.51h.44l-.11.51Zm-.69,3.26.6-2.83h.44l-.6,2.83Z" style="fill:#1b1c20"/><path id="path5535" d="M47.41,27.53H47a1.06,1.06,0,0,0,0-.24c0-.21-.1-.31-.32-.31a.51.51,0,0,0-.56.43v.09a.29.29,0,0,0,.18.26l.41.16a1.45,1.45,0,0,1,.38.19.48.48,0,0,1,.17.39,1.8,1.8,0,0,1,0,.22,1.11,1.11,0,0,1-.4.66,1.13,1.13,0,0,1-.71.22c-.53,0-.8-.21-.8-.64a2.81,2.81,0,0,1,0-.36h.45a1.38,1.38,0,0,0,0,.26.37.37,0,0,0,.42.4.53.53,0,0,0,.3-.09.57.57,0,0,0,.27-.38s0-.08,0-.11a.32.32,0,0,0-.19-.3,2,2,0,0,0-.39-.17,1.5,1.5,0,0,1-.38-.18.46.46,0,0,1-.18-.39,1,1,0,0,1,0-.23.9.9,0,0,1,.4-.58,1.15,1.15,0,0,1,.67-.2c.47,0,.71.19.71.57a1.6,1.6,0,0,1,0,.33" style="fill:#1b1c20"/><path id="path5539" d="M49.31,26.7l.17-.82h.45l-.18.82h.49l-.07.35h-.49l-.39,1.82a1.15,1.15,0,0,0,0,.14c0,.12.08.18.25.18l.2,0-.08.37a2.22,2.22,0,0,1-.37,0c-.32,0-.48-.11-.48-.34a1,1,0,0,1,0-.22l.42-2h-.42l.08-.35Z" style="fill:#1b1c20"/><path id="path5543" d="M51.76,26.27l.11-.51h.45l-.11.51Zm-.69,3.26.6-2.83h.45l-.61,2.83Z" style="fill:#1b1c20"/><path id="path5547" d="M55.43,27.56H55a1.23,1.23,0,0,0,0-.19c0-.26-.12-.39-.35-.39a.52.52,0,0,0-.42.19,2.45,2.45,0,0,0-.38,1,3.45,3.45,0,0,0-.08.59c0,.35.13.52.38.52s.52-.24.62-.71h.44a1.5,1.5,0,0,1-.35.7,1,1,0,0,1-.8.35c-.51,0-.76-.26-.76-.8a3.46,3.46,0,0,1,.08-.65c.22-1,.66-1.52,1.34-1.52.49,0,.73.23.73.67a1.09,1.09,0,0,1,0,.26" style="fill:#1b1c20"/><path id="path5551" d="M58.66,27.53h-.45a1.12,1.12,0,0,0,0-.24c0-.21-.11-.31-.33-.31a.5.5,0,0,0-.55.43s0,.06,0,.09a.28.28,0,0,0,.19.26l.41.16a1.36,1.36,0,0,1,.37.19.46.46,0,0,1,.18.39.89.89,0,0,1,0,.22,1.06,1.06,0,0,1-.39.66,1.15,1.15,0,0,1-.71.22c-.54,0-.8-.21-.8-.64a1.71,1.71,0,0,1,0-.36h.44a1.28,1.28,0,0,0,0,.26.36.36,0,0,0,.41.4.59.59,0,0,0,.31-.09.55.55,0,0,0,.26-.38.45.45,0,0,0,0-.11.33.33,0,0,0-.18-.3,1.94,1.94,0,0,0-.4-.17,2,2,0,0,1-.38-.18.48.48,0,0,1-.17-.39,1,1,0,0,1,0-.23.85.85,0,0,1,.39-.58,1.19,1.19,0,0,1,.68-.2c.47,0,.7.19.7.57a2.48,2.48,0,0,1,0,.33" style="fill:#1b1c20"/><path id="path5555" d="M65.06,26.81h-.49a2,2,0,0,0,0-.22c0-.35-.16-.52-.49-.52a.8.8,0,0,0-.7.46A4.17,4.17,0,0,0,63,27.65a4.41,4.41,0,0,0-.13.92c0,.44.17.66.52.66s.78-.43,1-1.28h-.74l.08-.38H64.9l-.42,2h-.35l.11-.51h0a1.07,1.07,0,0,1-.38.41,1,1,0,0,1-.56.17c-.57,0-.86-.33-.86-1a4.8,4.8,0,0,1,.12-1,4,4,0,0,1,.5-1.34,1.32,1.32,0,0,1,1.13-.62c.61,0,.91.27.91.81a1.71,1.71,0,0,1,0,.31" style="fill:#1b1c20"/><path id="path5559" d="M66.12,29.53l.61-2.83h.44l-.09.43h0a.91.91,0,0,1,.72-.5.47.47,0,0,1,.19,0l-.1.43-.23,0a.73.73,0,0,0-.41.16.85.85,0,0,0-.31.51l-.38,1.79Z" style="fill:#1b1c20"/><path id="path5563" d="M69.72,29.26c.37,0,.64-.38.8-1.14a2.74,2.74,0,0,0,.08-.61c0-.36-.13-.53-.4-.53s-.62.38-.78,1.14a2.69,2.69,0,0,0-.08.62c0,.34.12.52.38.52M69,28.12c.21-1,.66-1.49,1.34-1.49.52,0,.78.28.78.85a3.37,3.37,0,0,1-.08.64c-.21,1-.66,1.48-1.34,1.48q-.78,0-.78-.84a3.28,3.28,0,0,1,.08-.64" style="fill:#1b1c20"/><path id="path5567" d="M74.7,26.7l-.61,2.83h-.42l.07-.33h0a.91.91,0,0,1-.34.3,1,1,0,0,1-.43.1c-.4,0-.61-.17-.61-.51a1.88,1.88,0,0,1,.06-.38l.42-2h.45l-.42,2a1.29,1.29,0,0,0,0,.24.29.29,0,0,0,.32.33.65.65,0,0,0,.4-.14.69.69,0,0,0,.29-.43l.41-2Z" style="fill:#1b1c20"/><path id="path5571" d="M76.49,28.12a3.4,3.4,0,0,0-.07.56c0,.36.14.55.41.55a.58.58,0,0,0,.48-.31,3.18,3.18,0,0,0,.28-.86,2.72,2.72,0,0,0,.07-.56c0-.33-.12-.49-.36-.49a.6.6,0,0,0-.54.31,2.81,2.81,0,0,0-.27.8m-.91,2.34.8-3.76h.42l-.07.35h0a.65.65,0,0,1,.28-.29.72.72,0,0,1,.42-.13c.46,0,.69.28.69.83a2.84,2.84,0,0,1-.08.6,2.69,2.69,0,0,1-.4,1,1,1,0,0,1-.85.52.51.51,0,0,1-.32-.1.45.45,0,0,1-.18-.29h0L76,30.46Z" style="fill:#1b1c20"/></g></svg>