<svg xmlns="http://www.w3.org/2000/svg" xmlns:xlink="http://www.w3.org/1999/xlink" viewBox="0 0 85 43"><defs><linearGradient id="Unbenannter_Verlauf_11" x1="7.1" y1="-90.13" x2="21.58" y2="-88.5" gradientTransform="matrix(1, 0, 0, -1, 0, -72)" gradientUnits="userSpaceOnUse"><stop offset="0" stop-color="#eef7fe"/><stop offset="1" stop-color="#1e97d0"/></linearGradient><linearGradient id="Unbenannter_Verlauf_10" x1="96.56" y1="-23.01" x2="99.42" y2="-25.8" gradientTransform="matrix(1, 0, 0, -1, -91.18, -6.72)" gradientUnits="userSpaceOnUse"><stop offset="0" stop-color="#d6e9f7"/><stop offset="1" stop-color="#48a2d7"/></linearGradient><linearGradient id="Unbenannter_Verlauf_3" x1="-189.25" y1="-120" x2="-179.96" y2="-118.01" gradientTransform="matrix(1, 0, 0, -1, 200.49, -97.9)" gradientUnits="userSpaceOnUse"><stop offset="0" stop-color="#d4eaf7"/><stop offset="1" stop-color="#1493c5"/></linearGradient><linearGradient id="Unbenannter_Verlauf_4" x1="-133.79" y1="-143.47" x2="-130.99" y2="-146.75" gradientTransform="matrix(1, 0, 0, -1, 142.98, -123.55)" gradientUnits="userSpaceOnUse"><stop offset="0" stop-color="#d9ebf7"/><stop offset="1" stop-color="#318abb"/></linearGradient><linearGradient id="Unbenannter_Verlauf_5" x1="-52.92" y1="-140.28" x2="-49.03" y2="-138.4" gradientTransform="matrix(1, 0, 0, -1, 68.5, -114.49)" gradientUnits="userSpaceOnUse"><stop offset="0" stop-color="#9dc4df"/><stop offset="1" stop-color="#137eab"/></linearGradient><linearGradient id="Unbenannter_Verlauf_6" x1="-36.12" y1="-134.82" x2="-33.29" y2="-138.15" gradientTransform="matrix(1, 0, 0, -1, 49.82, -110.85)" gradientUnits="userSpaceOnUse"><stop offset="0" stop-color="#deeef8"/><stop offset="1" stop-color="#3586b3"/></linearGradient><linearGradient id="Unbenannter_Verlauf_7" x1="80.06" y1="-63.96" x2="80.06" y2="-60.64" gradientTransform="matrix(1, 0, 0, -1, -59.71, -36.83)" gradientUnits="userSpaceOnUse"><stop offset="0" stop-color="#646368"/><stop offset="1" stop-color="#646368"/></linearGradient><linearGradient id="Unbenannter_Verlauf_8" x1="64.26" y1="-125.09" x2="64.26" y2="-121.86" gradientTransform="matrix(1, 0, 0, -1, -42.86, -102.07)" gradientUnits="userSpaceOnUse"><stop offset="0" stop-color="#636267"/><stop offset="1" stop-color="#646368"/></linearGradient><linearGradient id="Unbenannter_Verlauf_9" x1="90.37" y1="-184.1" x2="90.37" y2="-180.81" gradientTransform="matrix(1, 0, 0, -1, -67.95, -164.99)" gradientUnits="userSpaceOnUse"><stop offset="0" stop-color="#6b6a6f"/><stop offset="1" stop-color="#eaebed"/></linearGradient></defs><g id="background"><g id="Ebene_2" data-name="Ebene 2"><rect width="85" height="43" style="fill:#fff"/></g></g><g id="icon"><g id="layer2"><path id="path2588" d="M20.66,19.13l.85-3.32H5.33l2.8,3.32Z" style="fill:url(#Unbenannter_Verlauf_11)"/><path id="path2594" d="M5.33,16.66l2.58,2.47h.22l-2.8-3.32Z" style="fill:url(#Unbenannter_Verlauf_10)"/><path id="path3415" d="M12.15,23,9.41,19.77H20.47L19.65,23Z" style="fill:url(#Unbenannter_Verlauf_3)"/><path id="path3417" d="M12,23,9.41,20.59v-.82L12.15,23Z" style="fill:url(#Unbenannter_Verlauf_4)"/><path id="path3435" d="M16.7,27.09l-2.77-3.26h5.51l-.85,3.26Z" style="fill:url(#Unbenannter_Verlauf_5)"/><path id="path3437" d="M13.93,24.65l2.61,2.44h.16l-2.77-3.26Z" style="fill:url(#Unbenannter_Verlauf_6)"/><path id="path3457" d="M19.15,27.09h1.57l.83-3.25H20Z" style="fill:url(#Unbenannter_Verlauf_7)"/><path id="path3473" d="M20.21,23h1.55l.83-3.2H21Z" style="fill:url(#Unbenannter_Verlauf_8)"/><path id="path3487" d="M21.23,19.11h1.58l.8-3.29H22Z" style="fill:url(#Unbenannter_Verlauf_9)"/><path id="path3497" d="M36.08,27.1A1.85,1.85,0,0,1,34.62,26a2.23,2.23,0,0,1-.17-1.23,7.41,7.41,0,0,1,.15-1.51,10,10,0,0,1,1.61-3.88A3.85,3.85,0,0,1,39,18.13a4.69,4.69,0,0,1,2.85.43,1.87,1.87,0,0,1,.71,1.79,6.91,6.91,0,0,1-.39,2.2C42,23,42,23,39.33,23H37l-.06.24c-.29,1.1-.25,1.58.2,1.86a4.79,4.79,0,0,0,2.35.16A2.56,2.56,0,0,0,41,24.7c.48-.45.51-.4.27.52-.39,1.5-.47,1.62-1.11,1.83A19.46,19.46,0,0,1,36.08,27.1Zm4.5-5.74c.17-.71.13-1.07-.17-1.35a2,2,0,0,0-2.19,0,2.56,2.56,0,0,0-.7,1.14l-.14.4h3.14Zm24.13,5.71a1.7,1.7,0,0,1-1.27-1l-.22-.43v-1a6.73,6.73,0,0,1,.14-1.61,8.84,8.84,0,0,1,1.69-3.84,4.19,4.19,0,0,1,3.39-1.15c1.67,0,2.42.33,2.79,1.22a5.63,5.63,0,0,1,0,2.41c-.17.71-.34,1.08-.52,1.18a12.36,12.36,0,0,1-2.54.12l-2.4,0-.11.44a2,2,0,0,0,0,1.33.88.88,0,0,0,.4.35c.28.14.38.15,1.28.15a3.19,3.19,0,0,0,2.47-.66c.25-.23.42-.32.42-.22s-.52,1.95-.59,2.1c-.26.49-.93.64-3,.63A7.29,7.29,0,0,1,64.71,27.07Zm4.64-5.83c.22-1.13-.17-1.57-1.35-1.51-.93,0-1.38.42-1.74,1.47-.06.19-.12.36-.12.37s.71,0,1.57,0h1.56ZM23.73,27.06c-.12-.12-.09-.45.11-1.21.93-3.55,2.34-9.12,2.35-9.29a.39.39,0,0,0-.13-.32.35.35,0,0,1-.14-.21c0-.09.15-.1,1.35-.1s1.36,0,1.45.1.12.32-.4,2.3c-.24.93-.42,1.7-.4,1.72s.76,0,1.66,0h1.63l.06-.14c.08-.19.8-3,.85-3.3s0-.26-.12-.39c-.33-.31-.28-.32,1.21-.32s1.52,0,1.52.33c0,.16-.78,3.26-1.54,6.18-.9,3.42-1,4.08-1,4.25a.45.45,0,0,0,.17.22.14.14,0,0,1,.08.13c0,.08-.18.09-1.37.09-1.48,0-1.52,0-1.52-.33,0-.1.27-1.22.6-2.48s.59-2.34.59-2.39-.31-.09-1.68-.09H27.4l-.59,2.32c-.32,1.27-.58,2.36-.58,2.42a.47.47,0,0,0,.15.26.34.34,0,0,1,.12.22A12.82,12.82,0,0,1,23.73,27.06Zm19.16,0a.28.28,0,0,1-.1-.18s.47-1.9,1-4.13c1-3.77,1-4.06.94-4.19s-.12-.15-.16-.15-.06,0-.06-.09.18-.1,1.22-.1c1.59,0,1.53,0,1.26,1.07,0,.1.08,0,.29-.28s.41-.52.49-.61l.16-.18H49.1a6.13,6.13,0,0,1,1.12,0,10.32,10.32,0,0,1-.42,1.44c-.15.22-.38.27-1.38.29-.81,0-1,0-1.19.15-.45.23-.53.44-1.32,3.46-.39,1.52-.73,2.84-.75,2.93a.37.37,0,0,0,.12.36,1,1,0,0,1,.15.22,8,8,0,0,1-1.22,0C43.18,27.13,43,27.12,42.89,27Zm6.42,0a.28.28,0,0,1-.1-.17s.46-1.86,1-4,1-4,1-4.12a.41.41,0,0,0-.13-.26c-.28-.22-.18-.25,1.09-.25,1.52,0,1.55,0,1.32.82a1.22,1.22,0,0,0-.08.35s.12-.1.24-.27c.66-.91.76-1,2.18-1,1,0,1.08,0,1.41.17a1.25,1.25,0,0,1,.67.95l.05.2.35-.52c.52-.78.58-.8,2-.8,1.09,0,1.19,0,1.48.15a1.11,1.11,0,0,1,.73,1.17c0,.19-.33,1.62-.86,3.73-.48,1.94-.83,3.48-.81,3.56a.32.32,0,0,0,.16.2c.29.16.09.19-1.13.19s-1.39,0-1.39-.3c0-.08.34-1.49.75-3.13s.76-3.07.76-3.19c0-.45-.4-.67-1.1-.59a1.21,1.21,0,0,0-1.19.89c-.11.26-1.45,5.3-1.52,5.71a.31.31,0,0,0,.12.38c.09.08.14.17.12.19a10.86,10.86,0,0,1-1.25,0c-1.28,0-1.35,0-1.35-.31,0-.08.34-1.48.75-3.1s.76-3.06.76-3.2c0-.49-.46-.71-1.23-.57a1.08,1.08,0,0,0-.92.61c-.18.33-1.63,5.74-1.63,6.07a.31.31,0,0,0,.13.27.23.23,0,0,1,.12.15c0,.06-.28.08-1.22.08S49.39,27.12,49.31,27ZM71.71,27c-.09-.14-.08-.21.18-1.21.21-.82.29-1.06.38-1.08s.13,0,.18.14c.11.25.32.35.88.42a10.94,10.94,0,0,0,2.77-.08,1,1,0,0,0,.55-.74.56.56,0,0,0-.19-.66,13.08,13.08,0,0,0-1.4-.44c-1.39-.38-1.75-.56-2-.95-.13-.23-.14-.31-.12-.88a3.7,3.7,0,0,1,1.49-3c.5-.26.84-.29,3.09-.29h2.13l-.16.59c-.19.69-.29.89-.48,1a6.93,6.93,0,0,1-1.62.11c-1.28,0-1.51.05-1.65.15a.84.84,0,0,0-.39.61c-.08.41.08.51,1.44.92,1.7.5,2,.69,2.18,1.28a5.87,5.87,0,0,1-.5,2.91,2.14,2.14,0,0,1-1.06,1.13L77,27.1l-2.6,0-2.59,0Z" style="fill:#484649"/></g></g></svg>