<svg xmlns="http://www.w3.org/2000/svg" viewBox="0 0 85 43"><g id="background"><rect width="85" height="43" style="fill:#fc0"/><g id="Ebene_2" data-name="Ebene 2"><rect width="85" height="43" style="fill:#fc0"/></g></g><g id="icon"><polygon points="62.43 29.91 63.42 25.22 6.5 25.22 5.5 29.91 62.43 29.91" style="fill:#fff"/><polygon points="21.03 17 18.91 17 16.81 26.79 18.93 26.79 21.03 17"/><polygon points="28.45 17 22.53 17 20.44 26.79 26.43 26.79 26.81 25.01 22.94 25.01 23.46 22.58 26.82 22.58 27.2 20.82 23.85 20.82 24.28 18.78 28.07 18.78 28.45 17"/><path d="M13.72,17.07A9.85,9.85,0,0,0,12.44,17H9.78l-2.1,9.78h3.53a7.9,7.9,0,0,0,1-.05,5.09,5.09,0,0,0,4.49-4.38C17.24,19.51,16.25,17.43,13.72,17.07Zm.82,5a3.43,3.43,0,0,1-2.48,2.87,4.48,4.48,0,0,1-.85.07h-1l1.31-6.18h.91a5,5,0,0,1,.76.05C14.59,19.11,14.88,20.53,14.54,22.07Z"/><polygon points="63.63 17 56.21 17 55.81 18.82 58.47 18.82 56.76 26.79 58.88 26.79 60.59 18.82 63.23 18.82 63.63 17"/><path d="M44.34,16.9c-3.4,0-4.68,2.3-5.22,5s.59,5,3.68,5c3.4,0,4.69-2.3,5.22-5S47.43,16.9,44.34,16.9Zm1.45,5c-.34,1.58-1,3.21-2.77,3.21s-2-1.61-1.6-3.21,1-3.22,2.77-3.22S46.15,20.31,45.79,21.92Z"/><path d="M49.1,19.88a2.7,2.7,0,0,0,1.38,2.24L51.6,23a4.26,4.26,0,0,1,.59.49.82.82,0,0,1,.26.57.85.85,0,0,1-.41.74,3.14,3.14,0,0,1-1.56.28,7.91,7.91,0,0,1-2.11-.35l-.63,1.78a9.53,9.53,0,0,0,2.87.4,6.12,6.12,0,0,0,2.48-.42A2.61,2.61,0,0,0,54.82,24a2.22,2.22,0,0,0-.5-1.43,6.34,6.34,0,0,0-1-1l-1-.76c-.51-.38-.89-.67-.89-1.12a.85.85,0,0,1,.83-.85,9.24,9.24,0,0,1,1.13,0h1.61L55.32,17H53.54a15.22,15.22,0,0,0-1.76.07,2.85,2.85,0,0,0-2.68,2.82"/><path d="M36.21,17.07a6.52,6.52,0,0,0-1-.07H32.58l-2.1,9.78h2.1l.64-3h1.23a4.9,4.9,0,0,0,1.47-.19,3.9,3.9,0,0,0,2.71-3.06A2.76,2.76,0,0,0,36.21,17.07Zm.32,3.38a1.77,1.77,0,0,1-1.4,1.49,3.6,3.6,0,0,1-.66.06h-.86l.69-3.19h.92a1.83,1.83,0,0,1,.62.08C36.35,19.06,36.68,19.57,36.53,20.45Z"/><path d="M73.55,17l1.25-5.92h-8s-1.65,7.72-1.66,7.75h2s1.27-5.91,1.27-5.91h4s-1.26,5.88-1.27,5.91h6l-.79,3.7H70.42s-1.19,5.53-1.19,5.53h-4.5s-.38,1.83-.38,1.86h6.46S72,24.37,72,24.37h5.92S79.49,17,79.5,17Z" style="fill:red"/></g></svg>