<svg xmlns="http://www.w3.org/2000/svg" viewBox="0 0 85 43"><g id="background"><g id="Ebene_2" data-name="Ebene 2"><rect width="85" height="43" style="fill:#fff"/></g></g><g id="icon"><rect x="8.02" y="24.9" width="76.67" height="10.1" style="fill:#ffcc07"/><g id="Ebene_2-2" data-name="Ebene 2"><rect width="85" height="18.25" style="fill:#ffcc07"/></g><path d="M72.76,24.93l-2.86,10a0,0,0,0,0,0,0H67c-.08-.67-.16-1.31-.24-2l-.52-4.09L66,27.8a.57.57,0,0,0-.11.22c-.45,1.53-.89,3.07-1.33,4.61-.23.78-.44,1.56-.67,2.33H61.76a.41.41,0,0,1,0-.16q1-3.33,1.92-6.69c.3-1.06.6-2.13.91-3.2h2.91l.27,1.88c.24,1.62.48,3.24.73,4.86a.41.41,0,0,0,.07.15l2-6.88Zm-32.49,0h4.56c.2,0,.41.1.61.17a1.64,1.64,0,0,1,1.23,2,3.32,3.32,0,0,1-2.42,2.81l-.38.11c.53.19.69.35.79.83a3,3,0,0,1,.06.43c.06,1.24.11,2.49.17,3.73h-2.6c0-.76,0-1.52,0-2.28,0-.41-.05-.83-.1-1.24a.54.54,0,0,0-.43-.49c-.23,0-.46-.06-.7-.07-.1.36-.2.69-.29,1l-.87,3H37.4L38.24,32Zm1.91,1.66-.74,2.61h.85A1.83,1.83,0,0,0,44,27.73a.79.79,0,0,0-.76-1.06c-.35,0-.71,0-1.09-.06Z" style="fill:#027c38"/><path d="M22.74,35a6,6,0,0,1-1.8.16c-.36,0-.73-.11-1.09-.16l-.07,0A2.71,2.71,0,0,1,18,32.33a7.73,7.73,0,0,1,.71-3.51,6.66,6.66,0,0,1,2.61-3.24,15,15,0,0,1,1.4-.67c.46-.06.93-.12,1.4-.16a5,5,0,0,1,1.53.16,7.81,7.81,0,0,1,.88.52,2.84,2.84,0,0,1,1,2.21,8,8,0,0,1-.73,3.48,7.57,7.57,0,0,1-1.45,2.24A5.77,5.77,0,0,1,22.74,35Zm-2.26-3a6.22,6.22,0,0,0,.15.75,1,1,0,0,0,.82.7,1.82,1.82,0,0,0,1.41-.34,3.35,3.35,0,0,0,.92-1,9,9,0,0,0,1.06-2.83,4.63,4.63,0,0,0,.11-1.7,1.18,1.18,0,0,0-1.29-1.06l-.1,0a2,2,0,0,0-1.1.49,4.14,4.14,0,0,0-1,1.39,9.68,9.68,0,0,0-1,3.61Z" style="fill:#878888"/><path d="M34.41,35c-.58.05-1.16.12-1.74.16A7.56,7.56,0,0,1,30.55,35a.39.39,0,0,0-.11-.06,3,3,0,0,1-2.18-3,7.09,7.09,0,0,1,.33-2.05,6.91,6.91,0,0,1,3.69-4.37c.44-.21.91-.34,1.37-.51a9.63,9.63,0,0,1,2.4-.15c.44,0,.87.1,1.33.15l.74.24-.74,2L37.11,27a4.26,4.26,0,0,0-3.72,0,5.14,5.14,0,0,0-2.52,4.66,1.67,1.67,0,0,0,1.46,1.62,4.15,4.15,0,0,0,.86,0c.55,0,.55,0,.69-.57l.52-1.82H33.05l.48-1.68h3.69a.44.44,0,0,1,0,.18c-.48,1.68-1,3.37-1.45,5.05a.28.28,0,0,1-.21.22Z" style="fill:#027c38"/><path d="M14.15,35c-.57.05-1.15.12-1.72.16a6.71,6.71,0,0,1-2.1-.16l-.05,0A2.85,2.85,0,0,1,8.1,32.57a.1.1,0,0,1-.06,0V31.06A.41.41,0,0,0,8.11,31c.07-.33.13-.69.23-1A6.9,6.9,0,0,1,12,25.44c.44-.21.91-.33,1.37-.51a9.63,9.63,0,0,1,2.4-.15c.44,0,.88.1,1.33.16l.75.23-.72,2L16.89,27a4.17,4.17,0,0,0-3.84.05,4.48,4.48,0,0,0-2,2.36,4.33,4.33,0,0,0-.39,2.35,1.69,1.69,0,0,0,1.09,1.41,2.81,2.81,0,0,0,1.52.08.38.38,0,0,0,.34-.31c.15-.59.33-1.18.5-1.77,0-.08,0-.16.06-.28H12.8l.48-1.66h3.66v.08q-.74,2.57-1.46,5.14a.37.37,0,0,1-.26.24Z" style="fill:#878888"/><path d="M60.28,35H54.05c0-.07,0-.14.05-.21Q55,31.54,56,28.31l1-3.38H63l-.5,1.76H58.81l-.64,2.23h3.49l-.51,1.76h-3.5l-.72,2.53h3.85Zm-7.77,0H46.27a.58.58,0,0,1,0-.19l1.8-6.27c.33-1.19.66-2.39,1-3.59h6l-.49,1.76H51l-.64,2.23h3.48l-.5,1.77H49.89l-.73,2.53H53Z" style="fill:#027c38"/><path d="M16.15,3.08l-2.6,3.53H27.71c.71,0,.7.27.36.75s-.95,1.31-1.32,1.8c-.18.25-.51.7.59.7h5.79l1.71-2.33c1.06-1.44.09-4.44-3.71-4.44Z" style="fill:#d80613"/><path d="M12.5,14.58l5.22-7.09h6.47c.72,0,.71.27.36.75L23.23,10c-.18.24-.52.69.58.69h8.67a9,9,0,0,1-7.25,3.85Zm29.88-3.85-2.83,3.85H32.09l2.83-3.85Zm11.43-.87H35.56l5-6.78H48L45.15,7h3.33l2.86-3.89H58.8Zm-.64.87-2.83,3.85H42.88l2.83-3.85ZM0,12.25H12.85l-.6.82H0Zm0-1.52H14l-.6.82H0Zm0,3H11.73l-.6.81H0Zm85-.7H72.19l.6-.82H85Zm0,1.51H71.08l.6-.81H85ZM73.91,10.73H85v.82H73.31ZM69.13,3.08l-5,6.78H56.23l5-6.78ZM55.59,10.73l-.81,1.11c-.93,1.26-.1,2.74,2.95,2.74h12l2.83-3.85Z" style="fill:#d80613"/><path d="M0,17.92V43H85V17.92ZM84.27,35.63c0,.09,0,.17,0,.27v6.31H.78V18.69H84.22a1.64,1.64,0,0,1,0,.22v6.93l0,.26Z" style="fill:#007a38"/></g></svg>