<svg xmlns="http://www.w3.org/2000/svg" viewBox="0 0 85 43"><g id="background"><g id="Ebene_2" data-name="Ebene 2"><rect width="85" height="43" style="fill:#e71a34"/></g></g><g id="icon"><path d="M52.72,28.57a18.51,18.51,0,0,1-4.44.51c-3.76,0-6.25-2-6.25-5.67a5.39,5.39,0,0,1,5.71-5.71,5.11,5.11,0,0,1,2,.34V13h2.93Zm-2.93-7.94A4.32,4.32,0,0,0,48,20.29a2.79,2.79,0,0,0-3,3,3,3,0,0,0,3.37,3.25,7.5,7.5,0,0,0,1.42-.13Zm27,7.94a18.39,18.39,0,0,1-4.44.51c-3.76,0-6.25-2-6.25-5.67a5.4,5.4,0,0,1,5.71-5.71,5.11,5.11,0,0,1,2,.34V13h2.93Zm-2.93-7.94a4.27,4.27,0,0,0-1.8-.34,2.78,2.78,0,0,0-3,3,3,3,0,0,0,3.37,3.25,7.4,7.4,0,0,0,1.41-.13Zm-16.5,0a5,5,0,0,1,1.75-.27,2.78,2.78,0,0,1,3.06,2.93,3,3,0,0,1-3.23,3.24v2.57h.15c3.78,0,6.06-2.12,6.06-5.91,0-3.44-2.42-5.47-6-5.47a13,13,0,0,0-4.76.91V33.23h3Z" style="fill:#fff"/><path d="M26.12,19.89a.44.44,0,0,1-.43,0L25,19.47a.38.38,0,0,1-.15-.16h0a.47.47,0,0,1-.07-.22l0-.82a.44.44,0,0,1,.21-.37L33.33,13,21.58,6.61a1,1,0,0,0-.94,0L8.89,13l13.16,7.66a.47.47,0,0,1,.22.37V32.22a.48.48,0,0,1-.23.37l-.71.39a.36.36,0,0,1-.21.05h0a.46.46,0,0,1-.23-.05l-.71-.39a.47.47,0,0,1-.22-.37v-10a.28.28,0,0,0-.12-.2L8.24,15.31V28.53a1,1,0,0,0,.46.81l12,7.05a1,1,0,0,0,.92,0l12-7a1,1,0,0,0,.46-.81V15.31Z" style="fill:#fff"/></g></svg>