<svg xmlns="http://www.w3.org/2000/svg" viewBox="0 0 85 43"><g id="background"><g id="Ebene_2" data-name="Ebene 2"><rect width="85" height="43" style="fill:#3a1d00"/></g></g><g id="icon"><path d="M51.08,35.68v1.37h.25v-.57h0s.39.57.39.57H52s-.39-.54-.42-.61a.35.35,0,0,0,.32-.35.41.41,0,0,0-.45-.41Zm.38.19c.22,0,.22.09.22.19s-.06.22-.32.22h0v-.41Zm1,.51a.93.93,0,1,1-.93-.93A.93.93,0,0,1,52.42,36.38Zm-.93-1.15a1.12,1.12,0,0,0,0,2.24,1.11,1.11,0,0,0,1.12-1.12A1.13,1.13,0,0,0,51.49,35.23Zm-9,2.27c-.83-.35-7.62-3.33-9.82-5.12a10.06,10.06,0,0,1-3.62-8.06V8.48a28.37,28.37,0,0,1,13.44-3,28.37,28.37,0,0,1,13.44,3V24.32a10.06,10.06,0,0,1-3.62,8.06C50.18,34.14,43.3,37.15,42.5,37.5Z" style="fill:#fcbf00"/><path d="M30.31,24.32a8.83,8.83,0,0,0,3.17,7.1c1.82,1.5,7.45,4,9.05,4.74,1.57-.71,7.17-3.2,9.06-4.74a8.83,8.83,0,0,0,3.17-7.1V8.83c-7.88-.74-17.12-.29-24.45,6.43Zm1.18-1V16h2.34v7.45c0,.67.16,1.63,1.25,1.63a1.89,1.89,0,0,0,1.12-.28V16h2.33V26.17A6.15,6.15,0,0,1,35,27.1C32.68,27.1,31.49,25.85,31.49,23.36Zm10.56,8.51H39.72V16.6a5.68,5.68,0,0,1,3.16-.83c2.79,0,4.32,2.11,4.32,5.54s-1.5,5.76-4.09,5.76a4.12,4.12,0,0,1-1.06-.13Zm0-14a1.94,1.94,0,0,1,.83-.16c1.35,0,1.92,1.09,1.92,3.71s-.64,3.81-2,3.81a2.23,2.23,0,0,1-.77-.13Zm5.67,1a3.11,3.11,0,0,1,3.13-3,4,4,0,0,1,2.56.77v2.05a3,3,0,0,0-2.08-1c-.67,0-1.34.29-1.37,1.12s.67,1.18,1.53,1.7c1.95,1.15,2.34,2.17,2.27,3.55a3.15,3.15,0,0,1-3.39,3.13,5,5,0,0,1-2.56-.73V24.28a3.68,3.68,0,0,0,2.24,1,1.25,1.25,0,0,0,1.41-1.31c0-.73-.45-1.12-1.47-1.73C48.07,21,47.72,20.06,47.72,18.84Z" style="fill:#3a1d00"/></g></svg>