<svg xmlns="http://www.w3.org/2000/svg" viewBox="0 0 85 43"><g id="background"><g id="Ebene_2" data-name="Ebene 2"><rect width="85" height="43" style="fill:#fff"/></g></g><g id="icon"><rect x="14.18" y="5.73" width="56.64" height="21.06" style="fill:#fff"/><polygon points="70.72 17.51 19.31 17.51 19.31 14.18 19.31 10.84 70.72 10.84 70.72 17.51" style="fill:#fc0"/><path d="M70.56,6V26.54H14.44V6H70.56m.51-.5H13.93V27H71.07Z" style="fill:#007c39"/><path d="M19.46,31.92a1.75,1.75,0,0,1-.15-.72V31a1.79,1.79,0,0,1,.15-.72,1.06,1.06,0,0,1,.42-.47,1.17,1.17,0,0,1,.64-.16,1.11,1.11,0,0,1,.94.43l-.23.25a.93.93,0,0,0-.71-.34.73.73,0,0,0-.61.28,1.16,1.16,0,0,0-.21.75v.2a1.16,1.16,0,0,0,.21.75.73.73,0,0,0,.61.28.89.89,0,0,0,.39-.09,1.07,1.07,0,0,0,.34-.25l.24.25a1.33,1.33,0,0,1-1.61.27A1.06,1.06,0,0,1,19.46,31.92Zm3.06.3a.18.18,0,0,1-.16,0,.26.26,0,0,1-.05-.19V29.5h-.37V32a.58.58,0,0,0,.11.38.47.47,0,0,0,.4.14h.18v-.31h-.11Zm.56.27h.37V30.35h-.37ZM23.26,30a.23.23,0,0,0,.18-.06.28.28,0,0,0,.07-.17.24.24,0,0,0-.07-.16.26.26,0,0,0-.35,0,.2.2,0,0,0-.07.16.23.23,0,0,0,.07.17A.21.21,0,0,0,23.26,30Zm3.23.3a.65.65,0,0,0-.44.14,1.09,1.09,0,0,0-.27.33.64.64,0,0,0-.23-.35.72.72,0,0,0-.4-.12.75.75,0,0,0-.43.13,1,1,0,0,0-.26.32v-.41h-.34v2.14h.36V31a.85.85,0,0,1,.21-.25.48.48,0,0,1,.34-.11.4.4,0,0,1,.33.14.65.65,0,0,1,.11.41v1.3h.36V31a.72.72,0,0,1,.21-.25.48.48,0,0,1,.34-.11.37.37,0,0,1,.32.14.6.6,0,0,1,.12.41v1.3h.36V31.14a.92.92,0,0,0-.18-.62A.66.66,0,0,0,26.49,30.31Zm2.18,2.12a.82.82,0,0,1-.4.1.62.62,0,0,1-.47-.17.65.65,0,0,1,0-.92l0,0a1,1,0,0,1,.61-.19h.48v-.06c0-.37-.16-.55-.5-.55a.75.75,0,0,0-.29.06.61.61,0,0,0-.24.15l-.19-.24a1,1,0,0,1,.75-.29c.55,0,.82.29.82.87V32c0,.15.06.23.18.23h.09v.31h-.18a.39.39,0,0,1-.42-.34v0A.81.81,0,0,1,28.67,32.43Zm-.3-.21a.62.62,0,0,0,.57-.36v-.34H28.5a.56.56,0,0,0-.38.1.32.32,0,0,0,0,.51A.41.41,0,0,0,28.37,32.22Zm2-2.42-.37.08v.47h-.36v.31H30v1.12a1,1,0,0,0,.15.57.59.59,0,0,0,.5.18h.14l.12,0V32.2h-.17a.36.36,0,0,1-.28-.1.46.46,0,0,1-.09-.36v-1.1h.54v-.31h-.54Zm1,2.24a1.25,1.25,0,0,1-.12-.54v-.16a1.29,1.29,0,0,1,.12-.54.77.77,0,0,1,.31-.36.93.93,0,0,1,1,0,.76.76,0,0,1,.3.36,1.24,1.24,0,0,1,.1.54v.2H31.61a.82.82,0,0,0,.17.5.62.62,0,0,0,.47.18.81.81,0,0,0,.57-.23l.18.24a.94.94,0,0,1-.33.23,1.11,1.11,0,0,1-.44.08,1,1,0,0,1-.53-.13.91.91,0,0,1-.33-.37Zm.24-.78h1.1a.8.8,0,0,0-.15-.47.5.5,0,0,0-.4-.18.5.5,0,0,0-.39.18.78.78,0,0,0-.16.47Zm3.91-1a.76.76,0,0,0-.44.13,1.18,1.18,0,0,0-.27.32v-.41h-.34v2.14h.37V31a.72.72,0,0,1,.21-.25.49.49,0,0,1,.35-.11.39.39,0,0,1,.33.14.6.6,0,0,1,.12.41v1.3h.37V31.14a1,1,0,0,0-.19-.62A.67.67,0,0,0,35.52,30.31Zm2.93.49a1.4,1.4,0,0,1,.1.54v.2H37.1a.71.71,0,0,0,.17.5.58.58,0,0,0,.47.18.85.85,0,0,0,.31-.06.9.9,0,0,0,.26-.17l.18.24a1,1,0,0,1-.34.23,1.11,1.11,0,0,1-.44.08,1,1,0,0,1-.52-.13.84.84,0,0,1-.33-.37,1.25,1.25,0,0,1-.12-.54v-.16a1.45,1.45,0,0,1,.11-.54.89.89,0,0,1,.81-.5.87.87,0,0,1,.49.14.76.76,0,0,1,.3.36Zm-.25.46a.81.81,0,0,0-.16-.47.48.48,0,0,0-.39-.18.5.5,0,0,0-.39.18.78.78,0,0,0-.16.47Zm2.21.58a.92.92,0,0,1-.22.26.55.55,0,0,1-.34.11.47.47,0,0,1-.33-.14.69.69,0,0,1-.12-.42v-1.3H39V31.7a.92.92,0,0,0,.19.62.64.64,0,0,0,.5.21.65.65,0,0,0,.43-.13.91.91,0,0,0,.27-.32v.41h.34V30.35h-.36Zm1.5-2-.36.08v.47h-.37v.31h.37v1.12a.89.89,0,0,0,.14.57.61.61,0,0,0,.51.18h.14l.12,0V32.2h-.18a.37.37,0,0,1-.28-.1.56.56,0,0,1-.09-.36v-1.1h.55v-.31h-.55Zm1.71.6a.91.91,0,0,0-.24.2.89.89,0,0,0-.14.25v-.5H42.9v2.14h.36v-1.4a1,1,0,0,1,.26-.29.76.76,0,0,1,.44-.13h.15v-.34l-.15,0a.77.77,0,0,0-.34.08Zm2.58,1.82h0v.31h-.17a.38.38,0,0,1-.42-.34v0a.81.81,0,0,1-.29.29.82.82,0,0,1-.4.1.62.62,0,0,1-.47-.17.65.65,0,0,1,0-.92l0,0a.94.94,0,0,1,.61-.19h.48v-.06c0-.37-.16-.55-.5-.55a.75.75,0,0,0-.29.06.61.61,0,0,0-.24.15l-.19-.24a1,1,0,0,1,.75-.29c.55,0,.82.29.82.87V32c0,.16.06.23.18.23Zm-.57-.7h-.44a.56.56,0,0,0-.38.1.32.32,0,0,0,0,.51.41.41,0,0,0,.28.09.62.62,0,0,0,.57-.36Zm1.62.7a.22.22,0,0,1-.17,0A.26.26,0,0,1,47,32V29.5h-.36V32a.58.58,0,0,0,.11.38.46.46,0,0,0,.4.14h.17v-.31h-.1Zm2.31-.95-.31-.07c-.21-.05-.31-.15-.31-.29a.25.25,0,0,1,.12-.22.48.48,0,0,1,.31-.08.94.94,0,0,1,.58.21l.16-.25a1.22,1.22,0,0,0-.76-.27.86.86,0,0,0-.56.17.59.59,0,0,0-.07.83.72.72,0,0,0,.42.22l.32.08a.31.31,0,0,1,.29.31.31.31,0,0,1-.13.24.6.6,0,0,1-.35.08.84.84,0,0,1-.61-.23l-.17.24a1.09,1.09,0,0,0,.79.3,1,1,0,0,0,.61-.17.56.56,0,0,0,.23-.46.62.62,0,0,0-.56-.64Zm2.12-1a.75.75,0,0,0-.41.12.83.83,0,0,0-.26.3V29.5h-.37v3H51V31a.72.72,0,0,1,.21-.25.48.48,0,0,1,.34-.11.4.4,0,0,1,.34.14.6.6,0,0,1,.12.41v1.3h.36V31.14a.88.88,0,0,0-.19-.62.64.64,0,0,0-.51-.21ZM53,32.49h.37V30.35H53Zm.18-2.93a.22.22,0,0,0-.17.06.2.2,0,0,0-.07.16A.23.23,0,0,0,53,30a.26.26,0,0,0,.35,0,.28.28,0,0,0,.07-.17.24.24,0,0,0-.07-.16.23.23,0,0,0-.18-.06Zm2.61,1.24a1.26,1.26,0,0,1,.1.54v.16a1.31,1.31,0,0,1-.1.55.8.8,0,0,1-.28.35.79.79,0,0,1-.82,0,.92.92,0,0,1-.29-.3V33.3h-.36V30.35h.34v.41a.77.77,0,0,1,.29-.33.77.77,0,0,1,.84,0,.77.77,0,0,1,.28.36Zm-.26.55a.81.81,0,0,0-.15-.52.49.49,0,0,0-.42-.19.62.62,0,0,0-.32.09.78.78,0,0,0-.24.27v.84a.78.78,0,0,0,.24.27.63.63,0,0,0,.32.1.55.55,0,0,0,.42-.19.84.84,0,0,0,.15-.53Zm2.67-.55a1.44,1.44,0,0,1,.1.54v.16a1.49,1.49,0,0,1-.1.55.82.82,0,0,1-.29.35.7.7,0,0,1-.42.13.79.79,0,0,1-.4-.1.8.8,0,0,1-.28-.3V33.3h-.37V30.35h.34v.41a.92.92,0,0,1,.29-.33.79.79,0,0,1,.42-.12.7.7,0,0,1,.42.13.79.79,0,0,1,.29.36Zm-.27.55a.76.76,0,0,0-.15-.52.48.48,0,0,0-.41-.19.63.63,0,0,0-.33.09.67.67,0,0,0-.23.27v.84a.67.67,0,0,0,.23.27.64.64,0,0,0,.33.1.53.53,0,0,0,.41-.19.78.78,0,0,0,.15-.53Zm1.1-1.79a.23.23,0,0,0-.18.06.24.24,0,0,0-.07.16.28.28,0,0,0,.07.17.26.26,0,0,0,.35,0,.23.23,0,0,0,.07-.17.2.2,0,0,0-.07-.16.22.22,0,0,0-.17-.06Zm-.18,2.93h.36V30.35h-.36ZM61,30.31a.76.76,0,0,0-.44.13,1.18,1.18,0,0,0-.27.32v-.41h-.33v2.14h.36V31a.85.85,0,0,1,.21-.25.49.49,0,0,1,.35-.11.38.38,0,0,1,.33.14.56.56,0,0,1,.12.41v1.3h.37V31.14a.93.93,0,0,0-.19-.62.66.66,0,0,0-.51-.21Zm3.08,0v2a1,1,0,0,1-.26.71,1.07,1.07,0,0,1-.75.24,1.09,1.09,0,0,1-.75-.26l.17-.26A1,1,0,0,0,63,33a.56.56,0,0,0,.64-.47.43.43,0,0,0,0-.16v-.32a.86.86,0,0,1-.29.31.8.8,0,0,1-.4.11.75.75,0,0,1-.43-.13.87.87,0,0,1-.28-.35,1.39,1.39,0,0,1-.1-.53v-.16a1.24,1.24,0,0,1,.11-.54.8.8,0,0,1,.28-.35.7.7,0,0,1,.42-.13.79.79,0,0,1,.42.12.88.88,0,0,1,.29.34v-.42Zm-.37.65a.67.67,0,0,0-.23-.27.63.63,0,0,0-.33-.09.49.49,0,0,0-.41.18.76.76,0,0,0-.15.52v.14a.73.73,0,0,0,.15.51.48.48,0,0,0,.41.19.56.56,0,0,0,.33-.1.67.67,0,0,0,.23-.27Zm-42.2,6.13h0L21,35.36h-.49L20,37.13H20l-.44-1.81h-.39l.59,2.13h.5l.46-1.73h0l.45,1.73h.52l.59-2.13h-.38Zm1.24.32h.36V35.32h-.36Zm.18-2.93a.25.25,0,0,0-.17.06.23.23,0,0,0-.07.17.2.2,0,0,0,.07.16.26.26,0,0,0,.35,0,.19.19,0,0,0,.06-.16.22.22,0,0,0-.06-.17A.3.3,0,0,0,22.89,34.52Zm1.32.24-.36.09v.47h-.37v.31h.37v1.11a.86.86,0,0,0,.15.58.61.61,0,0,0,.5.18h.26v-.32l-.09,0h-.08a.38.38,0,0,1-.29-.09.59.59,0,0,1-.09-.36v-1.1h.55v-.31h-.55Zm2,.52a.63.63,0,0,0-.42.12.89.89,0,0,0-.26.29V34.47H25.2v3h.37V36a1,1,0,0,1,.21-.25.61.61,0,0,1,.35-.11.39.39,0,0,1,.33.14.63.63,0,0,1,.12.42v1.29H27V36.11a.9.9,0,0,0-.19-.62.63.63,0,0,0-.51-.21Zm4.18-.3a1.29,1.29,0,0,1,.34,1v.23a1.29,1.29,0,0,1-.34,1,1.21,1.21,0,0,1-.94.34h-1V34.64h1a1.21,1.21,0,0,1,.94.34Zm0,1a1,1,0,0,0-.23-.72.84.84,0,0,0-.67-.25h-.58v2.13h.58a.84.84,0,0,0,.67-.25,1,1,0,0,0,.23-.72Zm2.85-.09H31.78V34.64H31.4v2.81h.38V36.2h1.46v1.25h.38V34.64h-.38Zm1.52-1.22h-.38v2.81h1.73v-.34H34.76Z" style="fill:#007c39"/><path d="M21.94,17.66A2.69,2.69,0,0,1,20,17a2.36,2.36,0,0,1-.71-1.79q0-.24,0-.54a4.31,4.31,0,0,1,.1-.61,4.64,4.64,0,0,1,1.17-2.52,3,3,0,0,1,2.23-.86,2.74,2.74,0,0,1,2.24,1l-.95.86a1.78,1.78,0,0,0-.57-.45,1.68,1.68,0,0,0-.7-.14,1.64,1.64,0,0,0-1.28.53,3.47,3.47,0,0,0-.67,1.69,4.63,4.63,0,0,0-.07.52,3.89,3.89,0,0,0,0,.44,1.27,1.27,0,0,0,.31.91,1.13,1.13,0,0,0,.87.32A1.45,1.45,0,0,0,23,16a1.86,1.86,0,0,0,.52-1.09v-.06H22.21l.22-1.21h2.79l-.16.94C24.7,16.64,23.66,17.66,21.94,17.66Zm6.71,0a2.85,2.85,0,0,1-2-.64A2.25,2.25,0,0,1,26,15.26a5.93,5.93,0,0,1,.12-1.19,4.52,4.52,0,0,1,1.14-2.51,3,3,0,0,1,2.22-.87,2.81,2.81,0,0,1,2,.65,2.24,2.24,0,0,1,.72,1.76A8,8,0,0,1,32,14.29a4.49,4.49,0,0,1-1.15,2.5A3,3,0,0,1,28.65,17.66Zm0-1.28a1.48,1.48,0,0,0,1.21-.54,3.4,3.4,0,0,0,.64-1.67,5,5,0,0,0,.08-.54,4.12,4.12,0,0,0,0-.46,1.16,1.16,0,0,0-.31-.89,1.27,1.27,0,0,0-.91-.31,1.5,1.5,0,0,0-1.21.54,3.6,3.6,0,0,0-.64,1.68,5,5,0,0,0-.07.54,4.37,4.37,0,0,0,0,.46,1.17,1.17,0,0,0,.32.89,1.28,1.28,0,0,0,.9.3Z" style="fill:#4b4b4b"/><path d="M35.54,17.66A2.7,2.7,0,0,1,33.61,17a2.31,2.31,0,0,1-.7-1.79q0-.24,0-.54c0-.2.05-.41.09-.61a4.58,4.58,0,0,1,1.18-2.52,3,3,0,0,1,2.23-.86,2.71,2.71,0,0,1,2.23,1l-1,.86a1.64,1.64,0,0,0-.56-.45,1.68,1.68,0,0,0-.7-.14,1.62,1.62,0,0,0-1.28.53,3.38,3.38,0,0,0-.67,1.69,4.67,4.67,0,0,0-.08.52,3.89,3.89,0,0,0,0,.44,1.27,1.27,0,0,0,.31.91,1.15,1.15,0,0,0,.88.32,1.45,1.45,0,0,0,1-.38,1.79,1.79,0,0,0,.51-1.09v-.06H35.81L36,13.64h2.79l-.16.94C38.29,16.64,37.26,17.66,35.54,17.66Zm3.83-.15,1.17-6.67h2.34a2.79,2.79,0,0,1,1.75.49,1.56,1.56,0,0,1,.64,1.29c0,.08,0,.18,0,.29s0,.22,0,.34a2.43,2.43,0,0,1-.47,1.11,2,2,0,0,1-1,.62l1,2.53H43.14l-.84-2.36h-1l-.42,2.36ZM42.69,12H41.8l-.33,1.9h.91a1.75,1.75,0,0,0,1-.2.89.89,0,0,0,.4-.68.27.27,0,0,0,0-.13v-.06C43.78,12.32,43.42,12,42.69,12Zm3.15,5.47L47,10.84h4.4l-.23,1.27h-2.9L48,13.52h2.61l-.21,1.23H47.82l-.26,1.49h3l-.23,1.27Zm5.78,0,1.17-6.67h4.4L57,12.11H54.06l-.25,1.41h2.61l-.21,1.23H53.6l-.26,1.49h3l-.22,1.27Zm5.73,0,1.17-6.67h1.9l1.35,4.72h.16l.83-4.72h1.4L63,17.51h-1.9l-1.34-4.72h-.17l-.83,4.72Z" style="fill:#007c39"/></g></svg>