<svg xmlns="http://www.w3.org/2000/svg" viewBox="0 0 85 43"><g id="twt-background"><g id="Ebene_2" data-name="Ebene 2"><rect width="85" height="43" style="fill:#fff"/></g></g><g id="twt-primary"><path d="M16.13,20.34a2,2,0,0,1-.75-.81,2.9,2.9,0,0,1-.26-1.27v-4.7a2.92,2.92,0,0,1,.26-1.28,2,2,0,0,1,.75-.81,2.63,2.63,0,0,1,2.36,0,1.82,1.82,0,0,1,.74.81,3,3,0,0,1,.26,1.28v.56H18.08v-.56A1.4,1.4,0,0,0,18,13a.69.69,0,0,0-.26-.34.86.86,0,0,0-.84,0,.76.76,0,0,0-.26.34,1.19,1.19,0,0,0-.1.53v4.7a1.22,1.22,0,0,0,.1.53.78.78,0,0,0,.26.33.82.82,0,0,0,.42.11.7.7,0,0,0,.42-.12.67.67,0,0,0,.26-.33,1.36,1.36,0,0,0,.09-.53v-.56h1.41v.56a3,3,0,0,1-.26,1.28,1.84,1.84,0,0,1-.75.81,2.38,2.38,0,0,1-1.17.27A2.42,2.42,0,0,1,16.13,20.34Z"/><path d="M21.45,20.4a1.59,1.59,0,0,1-.67-.64,2.08,2.08,0,0,1-.23-1V15.64a2,2,0,0,1,.23-1,1.55,1.55,0,0,1,.67-.62,2.71,2.71,0,0,1,2.09,0,1.47,1.47,0,0,1,.66.62,2,2,0,0,1,.22,1v3.14a2,2,0,0,1-.22,1,1.49,1.49,0,0,1-.66.63,2.71,2.71,0,0,1-2.09,0Zm1.45-1.24a.73.73,0,0,0,.14-.47v-3a.7.7,0,0,0-.14-.46.55.55,0,0,0-.41-.16.57.57,0,0,0-.41.16.7.7,0,0,0-.14.46v3a.65.65,0,0,0,.14.46.52.52,0,0,0,.41.17A.51.51,0,0,0,22.9,19.16Z"/><path d="M27.07,18.65a.57.57,0,0,0,.12.39.42.42,0,0,0,.33.13h.28v1.35h-.54a1.49,1.49,0,0,1-1.17-.46,1.82,1.82,0,0,1-.41-1.29V11.29h1.39Z"/><path d="M30.14,18.65a.57.57,0,0,0,.12.39.42.42,0,0,0,.33.13h.28v1.35h-.55a1.47,1.47,0,0,1-1.16-.46,1.82,1.82,0,0,1-.42-1.29V11.29h1.4Z"/><path d="M32.62,20.37a1.74,1.74,0,0,1-.7-.72,2.46,2.46,0,0,1-.24-1.14V16a2.73,2.73,0,0,1,.24-1.2,1.58,1.58,0,0,1,.68-.76,2.06,2.06,0,0,1,1.08-.26,2.34,2.34,0,0,1,1.09.24,1.71,1.71,0,0,1,.69.72,2.55,2.55,0,0,1,.24,1.16v1.8h-3V16.66h1.62v-.74a1,1,0,0,0-.18-.63.61.61,0,0,0-.5-.23.56.56,0,0,0-.49.24A1.09,1.09,0,0,0,33,16v2.58a.87.87,0,0,0,.18.59.66.66,0,0,0,.53.21.65.65,0,0,0,.48-.17.6.6,0,0,0,.17-.45V18.6h1.33v.12a1.83,1.83,0,0,1-.52,1.4,2,2,0,0,1-1.46.49A2.39,2.39,0,0,1,32.62,20.37Z"/><path d="M37.77,20.4a1.63,1.63,0,0,1-.7-.65,2,2,0,0,1-.24-1V15.8a2.23,2.23,0,0,1,.24-1.07,1.64,1.64,0,0,1,.7-.68,2.75,2.75,0,0,1,2.2,0,1.64,1.64,0,0,1,.7.68,2.28,2.28,0,0,1,.25,1.09v.38H39.54v-.32a.89.89,0,0,0-.17-.6.57.57,0,0,0-.48-.2.6.6,0,0,0-.49.2.89.89,0,0,0-.17.58v2.79a.73.73,0,0,0,.17.51.66.66,0,0,0,.49.18.62.62,0,0,0,.48-.19.74.74,0,0,0,.17-.53v-.31l1.39,0v.36a2,2,0,0,1-.25,1,1.66,1.66,0,0,1-.7.66,2.53,2.53,0,0,1-1.11.22A2.6,2.6,0,0,1,37.77,20.4Z"/><path d="M41.42,13.93h2.92v1.3H41.42Zm1,6.18a1.84,1.84,0,0,1-.4-1.3V12h1.39v6.67a.67.67,0,0,0,.11.39.4.4,0,0,0,.32.14h.47v1.34h-.66A1.54,1.54,0,0,1,42.45,20.11Z"/><path d="M45.35,11.33h1.38v1.39H45.35Zm0,2.6h1.38v6.59H45.35Z"/><path d="M48.82,20.4a1.59,1.59,0,0,1-.67-.64,2.08,2.08,0,0,1-.23-1V15.64a2,2,0,0,1,.23-1,1.55,1.55,0,0,1,.67-.62,2.71,2.71,0,0,1,2.09,0,1.47,1.47,0,0,1,.66.62,2,2,0,0,1,.22,1v3.14a2,2,0,0,1-.22,1,1.49,1.49,0,0,1-.66.63,2.71,2.71,0,0,1-2.09,0Zm1.45-1.24a.73.73,0,0,0,.14-.47v-3a.7.7,0,0,0-.14-.46.61.61,0,0,0-.82,0,.65.65,0,0,0-.15.46v3a.65.65,0,0,0,.15.46.52.52,0,0,0,.41.17A.53.53,0,0,0,50.27,19.16Z"/><path d="M53,13.93h1.41v6.59H53Zm2.71,2a1,1,0,0,0-.16-.62.58.58,0,0,0-.49-.2.56.56,0,0,0-.49.21,1,1,0,0,0-.16.62l-.14-.86a2,2,0,0,1,.59-.93,1.35,1.35,0,0,1,.87-.31,1.25,1.25,0,0,1,1,.44,2,2,0,0,1,.36,1.28v5h-1.4Z"/><path d="M61.21,11.29h1.4v9.23h-1.4Zm1.8,9a1.67,1.67,0,0,1-.49-.84l.09-1a1.18,1.18,0,0,0,.07.45.61.61,0,0,0,.22.29.62.62,0,0,0,.81-.12,1.09,1.09,0,0,0,.17-.65V15.92a1,1,0,0,0-.17-.62.55.55,0,0,0-.47-.22.62.62,0,0,0-.34.09.63.63,0,0,0-.22.28,1.16,1.16,0,0,0-.07.44L62.47,15a2.21,2.21,0,0,1,.57-.89,1.21,1.21,0,0,1,.81-.31,1.28,1.28,0,0,1,.76.22,1.47,1.47,0,0,1,.48.67,3,3,0,0,1,.16,1.06v2.85a2.92,2.92,0,0,1-.17,1.08,1.37,1.37,0,0,1-.5.68,1.26,1.26,0,0,1-.78.23A1.15,1.15,0,0,1,63,20.32Z"/><path d="M65.81,13.93h1.35l1.34,5.71-.69,1.51Zm4.58,0-1.88,8.13a1.52,1.52,0,0,1-.34.67,1.34,1.34,0,0,1-.62.4,2.82,2.82,0,0,1-.92.14h-.34V21.92h.36a.94.94,0,0,0,.59-.16.84.84,0,0,0,.28-.52L69,13.93Z"/><path d="M23.55,31.4a1.55,1.55,0,0,1-.69-.65,2,2,0,0,1-.24-1V26.8a2.23,2.23,0,0,1,.24-1.07,1.56,1.56,0,0,1,.69-.68,2.35,2.35,0,0,1,1.1-.23,2.39,2.39,0,0,1,1.11.23,1.7,1.7,0,0,1,.7.68,2.28,2.28,0,0,1,.24,1.09v.38H25.33v-.32a1,1,0,0,0-.17-.6.6.6,0,0,0-.49-.2.58.58,0,0,0-.48.2.84.84,0,0,0-.18.58v2.79a.69.69,0,0,0,.18.51.62.62,0,0,0,.48.18.66.66,0,0,0,.49-.19.78.78,0,0,0,.17-.53v-.31l1.38,0v.36a2.09,2.09,0,0,1-.24,1,1.74,1.74,0,0,1-.71.66,2.46,2.46,0,0,1-1.11.23A2.63,2.63,0,0,1,23.55,31.4Z"/><path d="M28.94,29.77a.62.62,0,0,0,.15.46.64.64,0,0,0,.46.15.61.61,0,0,0,.45-.15.69.69,0,0,0,.15-.48l.09.73a1.78,1.78,0,0,1-.48.85,1.1,1.1,0,0,1-.77.29,1.3,1.3,0,0,1-1.07-.46,2.18,2.18,0,0,1-.36-1.36V24.93h1.38Zm1.21-4.84h1.38v6.59H30.15Z"/><path d="M33.56,31.37a1.77,1.77,0,0,1-.71-.7,2.1,2.1,0,0,1-.26-1.05v-.08h1.33v.08a.75.75,0,0,0,.19.55.66.66,0,0,0,.51.21.66.66,0,0,0,.51-.19.69.69,0,0,0,.19-.52.65.65,0,0,0-.12-.4,1.05,1.05,0,0,0-.3-.25l-.52-.23-.09,0-.08,0h-.06a4.36,4.36,0,0,1-.75-.39,1.77,1.77,0,0,1-.52-.59,1.94,1.94,0,0,1-.21-.95,2.12,2.12,0,0,1,.24-1,1.73,1.73,0,0,1,.66-.68,2,2,0,0,1,1-.24,2.11,2.11,0,0,1,1,.22,1.7,1.7,0,0,1,.67.66,2.11,2.11,0,0,1,.23,1v.08H35.14V26.7a.7.7,0,0,0-.15-.47.54.54,0,0,0-.42-.17.51.51,0,0,0-.41.18.81.81,0,0,0-.15.51.7.7,0,0,0,.12.42.76.76,0,0,0,.32.27,4.45,4.45,0,0,0,.52.2h.09a6,6,0,0,1,.82.36,1.71,1.71,0,0,1,.55.58,2.09,2.09,0,0,1,.22,1,2,2,0,0,1-.25,1,1.63,1.63,0,0,1-.71.69,2.44,2.44,0,0,1-2.13,0Z"/><path d="M37.16,24.93h2.92v1.3H37.16Zm1,6.18a1.89,1.89,0,0,1-.39-1.3V23h1.38v6.67a.67.67,0,0,0,.11.39.42.42,0,0,0,.33.14h.47v1.34h-.66A1.55,1.55,0,0,1,38.18,31.11Z"/><path d="M41.91,31.4a1.59,1.59,0,0,1-.67-.64,2.08,2.08,0,0,1-.23-1V26.64a2,2,0,0,1,.23-1,1.55,1.55,0,0,1,.67-.62A2.71,2.71,0,0,1,44,25a1.47,1.47,0,0,1,.66.62,2,2,0,0,1,.22,1v3.14a2,2,0,0,1-.22,1,1.49,1.49,0,0,1-.66.63,2.59,2.59,0,0,1-2.09,0Zm1.45-1.24a.73.73,0,0,0,.14-.47v-3a.7.7,0,0,0-.14-.46.55.55,0,0,0-.41-.16.57.57,0,0,0-.41.16.65.65,0,0,0-.14.46v3a.65.65,0,0,0,.14.46.52.52,0,0,0,.41.17A.51.51,0,0,0,43.36,30.16Z"/><path d="M46.14,24.93h1.4v6.59h-1.4Zm2.71,2a1,1,0,0,0-.16-.62.69.69,0,0,0-1,0,1,1,0,0,0-.17.62L47.41,26a1.91,1.91,0,0,1,.6-.91,1.36,1.36,0,0,1,.89-.31,1.32,1.32,0,0,1,.73.19,1.14,1.14,0,0,1,.47.56,2.35,2.35,0,0,1,.15.9v5.05h-1.4Zm2.71,0a1,1,0,0,0-.16-.62.63.63,0,0,0-.5-.2.58.58,0,0,0-.49.21,1,1,0,0,0-.16.62l-.15-.87a1.9,1.9,0,0,1,.6-.92,1.38,1.38,0,0,1,.89-.31,1.23,1.23,0,0,1,1.22.78,2.6,2.6,0,0,1,.16.94v5H51.56Z"/><path d="M55.16,31.37a1.8,1.8,0,0,1-.7-.72,2.46,2.46,0,0,1-.24-1.14V27a2.73,2.73,0,0,1,.24-1.2,1.63,1.63,0,0,1,.68-.76,2.06,2.06,0,0,1,1.08-.26,2.34,2.34,0,0,1,1.09.24,1.71,1.71,0,0,1,.69.72,2.55,2.55,0,0,1,.24,1.16v1.8h-3V27.66H56.9v-.74a1,1,0,0,0-.18-.63.61.61,0,0,0-.5-.23.56.56,0,0,0-.49.24,1.16,1.16,0,0,0-.17.67v2.58a.87.87,0,0,0,.18.59.66.66,0,0,0,.53.21.65.65,0,0,0,.48-.17.56.56,0,0,0,.17-.45V29.6h1.34v.12a1.84,1.84,0,0,1-.53,1.4,2,2,0,0,1-1.46.5A2.39,2.39,0,0,1,55.16,31.37Z"/><path d="M59.51,24.93H60.9v6.59H59.51Zm3,1.32h-.18a1.41,1.41,0,0,0-1,.35,1.3,1.3,0,0,0-.37.95l-.13-1.47a2.4,2.4,0,0,1,.78-.93,1.81,1.81,0,0,1,1.05-.33v1.42Z"/></g></svg>