<svg xmlns="http://www.w3.org/2000/svg" viewBox="0 0 85 43"><g id="background"><g id="Ebene_2" data-name="Ebene 2"><rect width="85" height="43" style="fill:#fff"/></g></g><g id="icon"><path d="M73.09,21.49V18.38c0-.51,0-.55.55-.55h2.77a1.62,1.62,0,0,1,1.29.5,2.07,2.07,0,0,1,.07,2.41l-.14.15c-.16.19-.14.34.07.49a2,2,0,0,1,.8,1.71,2,2,0,0,1-1.79,2c-1.07.09-2.15.08-3.22.1-.32,0-.39-.1-.39-.46,0-.55,0-1.09,0-1.64V21.49Zm2.47,2.38h.55a.91.91,0,0,0,.94-.91,1,1,0,0,0-.85-1.08c-.45,0-.89,0-1.34,0a.35.35,0,0,0-.36.38v1.26c0,.24.11.36.35.36Zm-.16-4.82h-.55a.31.31,0,0,0-.35.33,9.91,9.91,0,0,0,0,1.09c0,.11.17.31.26.31a7.86,7.86,0,0,0,1.45-.1.77.77,0,0,0,.56-.86.84.84,0,0,0-.73-.75C75.84,19.05,75.62,19.06,75.4,19.05Z" style="fill:#1a5dad"/><path d="M41.12,21.46c0-1,0-2.07,0-3.1,0-.47.06-.53.54-.53h2.89a1.71,1.71,0,0,1,1.87,1.6,2,2,0,0,1-.59,2c-.16.14-.21.29,0,.45a1.72,1.72,0,0,1,.55,1.18c.07.58.12,1.17.19,1.75,0,.21-.05.32-.26.34h-.09c-1.13,0-1,0-1.1-.92A11.14,11.14,0,0,0,45,23.1a.93.93,0,0,0-.89-.81,11.61,11.61,0,0,0-1.18,0c-.28,0-.38.18-.38.44,0,.62,0,1.23,0,1.85s0,.61-.58.61c-.8,0-.81,0-.81-.78V21.46Zm1.39-1.33h0c0,.23,0,.45,0,.68a.31.31,0,0,0,.34.34,8.57,8.57,0,0,0,1.34,0c.63-.08.83-.37.9-1a1,1,0,0,0-.85-1c-.44,0-.89,0-1.34,0a.35.35,0,0,0-.38.39C42.51,19.69,42.51,19.91,42.51,20.13Z" style="fill:#1a5dad"/><path d="M6.5,21.47v-3.1c0-.47.07-.54.53-.54.8,0,1.6,0,2.39,0a2.48,2.48,0,0,1,2.32,1.52,5.13,5.13,0,0,1-.08,4.38,2.22,2.22,0,0,1-1.93,1.36c-.93.07-1.87.07-2.8.09-.34,0-.43-.11-.43-.48Zm1.33,0c0,.64,0,1.28,0,1.92,0,.37.08.45.44.46a6.94,6.94,0,0,0,.79,0,1.68,1.68,0,0,0,1.54-1.21,3.61,3.61,0,0,0,.09-1.9,1.72,1.72,0,0,0-1.27-1.51,4.74,4.74,0,0,0-1.07-.06c-.46,0-.52.05-.52.5C7.82,20.26,7.83,20.86,7.83,21.46Z" style="fill:#1a5dad"/><path d="M67.62,21.53A4.25,4.25,0,0,1,67,24a3.27,3.27,0,0,1-1.29,1.09,2.71,2.71,0,0,1-1.78.21,2.93,2.93,0,0,1-1.24-.63,3.4,3.4,0,0,1-1.21-2.23A4.83,4.83,0,0,1,62,19a2.8,2.8,0,0,1,2.87-1.33,2.75,2.75,0,0,1,2.28,1.62A4.45,4.45,0,0,1,67.62,21.53Zm-1.42,0A3,3,0,0,0,66,20a1.62,1.62,0,0,0-1.35-1,1.47,1.47,0,0,0-1.45.81,3.6,3.6,0,0,0-.33.9,3.38,3.38,0,0,0,.37,2.54,1.54,1.54,0,0,0,2.62,0A2.83,2.83,0,0,0,66.2,21.55Z" style="fill:#1a5dad"/><path d="M29.49,21.49c0,1.05,0,2.1,0,3.15,0,.47-.07.53-.53.54-.88,0-.88,0-.88-.87,0-.61,0-1.23,0-1.84,0-.44-.09-.53-.51-.53s-1.06,0-1.59,0-.52.1-.52.53c0,.72,0,1.45,0,2.18,0,.43-.09.51-.51.53-.87,0-.89,0-.89-.85V18.45c0-.58,0-.62.61-.62.79,0,.79,0,.79.79,0,.5,0,1,0,1.51s.09.5.49.5c.55,0,1.1,0,1.64,0s.49-.09.49-.5c0-.6,0-1.21,0-1.81,0-.42.07-.48.49-.49.92,0,.92,0,.92.89v2.77Z" style="fill:#1a5dad"/><path d="M61.58,18c-.16.21-.32.42-.48.61-.53.62-1.06,1.23-1.6,1.84a.45.45,0,0,0,0,.63c.74,1.18,1.47,2.37,2.21,3.56a2.07,2.07,0,0,1,.15.25c.1.18.06.31-.15.32a8.26,8.26,0,0,1-1.22,0,.73.73,0,0,1-.43-.35c-.51-.83-1-1.68-1.48-2.53-.19-.32-.29-.3-.57-.05a1.52,1.52,0,0,0-.49,1.35,11.41,11.41,0,0,1,0,1.17c0,.36-.06.43-.4.43-1.11,0-1,.11-1-1V18.43c0-.1,0-.2,0-.3s.1-.31.31-.31h.72c.32,0,.38.06.38.4,0,.62,0,1.23,0,1.85a1.74,1.74,0,0,0,.14.48,2.74,2.74,0,0,0,.36-.32c.57-.7,1.14-1.41,1.72-2.11a.65.65,0,0,1,.36-.26c.48,0,1,0,1.44,0Z" style="fill:#1a5dad"/><path d="M53.37,25.18a.86.86,0,0,1-1-.46c-.12-.2-.26-.18-.45,0a3.18,3.18,0,0,1-.94.6,2,2,0,0,1-1.15,0,2.14,2.14,0,0,1-1.32-1.2,2.36,2.36,0,0,1,.59-2.71l.23-.18c.34-.26.33-.29.12-.68a2,2,0,0,1-.17-1.85,1.73,1.73,0,0,1,1.75-1A1.65,1.65,0,0,1,52.56,19a2,2,0,0,1-.71,2c-.35.31-.34.34-.08.72.09.13.17.26.26.38s.27.21.38,0c.22-.48.28-.52.81-.47.31,0,.4.11.33.4a5.1,5.1,0,0,1-.36,1.06.56.56,0,0,0,.07.68c.27.32.52.66.76,1a1.6,1.6,0,0,1,.11.33,2.12,2.12,0,0,1-.31.09C53.7,25.19,53.57,25.18,53.37,25.18Zm-3.8-1.93a.94.94,0,0,0,.61.78c.41.19.75,0,1.08-.27a.38.38,0,0,0,.09-.58l-.71-1a.32.32,0,0,0-.51-.07A1.3,1.3,0,0,0,49.57,23.25Zm.76-3.71a6.73,6.73,0,0,0,.33.64.25.25,0,0,0,.43,0,2.49,2.49,0,0,0,.39-.76.72.72,0,0,0-.58-.75C50.62,18.69,50.32,19.06,50.33,19.54Z" style="fill:#1a5dad"/><path d="M32.65,25.35a2.65,2.65,0,0,1-2.33-1.06A2.46,2.46,0,0,1,29.88,23c0-.2.08-.31.3-.31h.71a.37.37,0,0,1,.39.34,1.45,1.45,0,0,0,2.34.72c.52-.47.36-1.14-.35-1.41-.52-.2-1.07-.33-1.6-.51a2.18,2.18,0,0,1-1.4-1.1,2.15,2.15,0,0,1,1-2.8,2.94,2.94,0,0,1,3.06.24A1.83,1.83,0,0,1,35,19.62c0,.22-.07.35-.31.35a2.44,2.44,0,0,0-.38,0,.68.68,0,0,1-.79-.5,1.21,1.21,0,0,0-2-.21.71.71,0,0,0,.34,1.1c.55.2,1.12.35,1.68.53A2.18,2.18,0,0,1,34.08,25,2.14,2.14,0,0,1,32.65,25.35Z" style="fill:#1a5dad"/><path d="M35.79,21.49V18.34c0-.49,0-.51.53-.51H40c.56,0,.59,0,.59.6s0,.72-.74.72h-2.1c-.5,0-.54,0-.54.56,0,.15,0,.31,0,.46,0,.51,0,.56.55.56h2c.51,0,.54,0,.54.55,0,.74,0,.74-.73.74H37.69c-.41,0-.47.06-.47.45s0,.62,0,.93.06.45.47.45c.83,0,1.66,0,2.48,0,.48,0,.49,0,.5.5,0,.94,0,.83-.84.83H36.3c-.46,0-.51,0-.51-.5Z" style="fill:#1a5dad"/><path d="M20.77,25.35a3.07,3.07,0,0,1-2.94-2.14A5,5,0,0,1,18.19,19a2.94,2.94,0,0,1,4.31-.8,2.52,2.52,0,0,1,.92,1.6c0,.35,0,.45-.4.47a1.82,1.82,0,0,0-.33,0,.61.61,0,0,1-.71-.45,1.3,1.3,0,0,0-.71-.73,1.54,1.54,0,0,0-2.1,1.07,3.59,3.59,0,0,0,0,2.58,1.61,1.61,0,0,0,1.36,1.16A1.28,1.28,0,0,0,22,23.06c.33-.72.31-.73,1.11-.71.44,0,.47.06.38.51a3,3,0,0,1-1.08,1.92A2,2,0,0,1,20.77,25.35Z" style="fill:#1a5dad"/><path d="M17.18,25.18h-.29a.44.44,0,0,1-.51-.34c-.1-.32-.2-.64-.29-1a.47.47,0,0,0-.53-.37H14c-.4,0-.45.06-.56.42s-.18.59-.27.88a.47.47,0,0,1-.47.36c-.22,0-.44,0-.67,0s-.35-.09-.28-.38.25-.77.38-1.15c.21-.64.42-1.27.64-1.9.29-.89.59-1.78.88-2.66l.34-1a.35.35,0,0,1,.37-.27h.84a.48.48,0,0,1,.48.39c.59,1.85,1.19,3.69,1.79,5.54.11.33.22.66.34,1s.06.42-.3.43C17.41,25.19,17.29,25.18,17.18,25.18ZM14.91,20l-.1,0a1.61,1.61,0,0,0-.24.36c-.19.57-.36,1.14-.54,1.71-.06.2,0,.32.25.33h.83c.36,0,.45-.11.38-.46s-.18-.65-.28-1S15,20.3,14.91,20Z" style="fill:#1a5dad"/><path d="M68.07,21.48V18.42c0-.54.06-.59.61-.59.79,0,.79,0,.79.78v4.61c0,.57.06.63.63.63s1.37,0,2.05,0c.41,0,.45,0,.45.42,0,1,.06.91-.9.91h-3c-.6,0-.66-.06-.66-.64Z" style="fill:#1a5dad"/></g></svg>