<svg xmlns="http://www.w3.org/2000/svg" viewBox="0 0 85 43"><g id="twt-background"><g id="Ebene_2" data-name="Ebene 2"><rect width="85" height="43" style="fill:#fff"/></g></g><g id="twt-primary"><path d="M26.08,15.55h1.4v9.23h-1.4Zm.67,0h3.37v1.34H26.75Zm0,4H29.8v1.33H26.75Zm0,3.91h3.37v1.34H26.75Z"/><path d="M32.63,21.14l.65,1.17-1.13,2.47H30.67Zm-.09.65-1.76-3.6h1.48l1.21,2.95,2,3.64H34Zm.38-1.24,1-2.36h1.49L33.5,21.73Z"/><path d="M36.29,18.19h1.4v9.26h-1.4Zm1.8,6.38a1.63,1.63,0,0,1-.49-.83l.09-1a1.27,1.27,0,0,0,.07.46.58.58,0,0,0,.57.39.54.54,0,0,0,.46-.23,1.06,1.06,0,0,0,.17-.64V20.17a1,1,0,0,0-.17-.62.55.55,0,0,0-.46-.21.65.65,0,0,0-.35.09.6.6,0,0,0-.22.27,1.22,1.22,0,0,0-.07.45l-.14-.87a2.08,2.08,0,0,1,.57-.89,1.22,1.22,0,0,1,.81-.32,1.27,1.27,0,0,1,.76.23,1.42,1.42,0,0,1,.48.67A3,3,0,0,1,40.33,20v2.85A2.92,2.92,0,0,1,40.16,24a1.46,1.46,0,0,1-.49.68,1.35,1.35,0,0,1-.78.23A1.17,1.17,0,0,1,38.09,24.57Z"/><path d="M41.59,18.19H43v6.59H41.59Zm2.95,1.32h-.18a1.37,1.37,0,0,0-1,.35,1.3,1.3,0,0,0-.37.95l-.13-1.47a2.4,2.4,0,0,1,.78-.93,1.76,1.76,0,0,1,1-.34V19.5Z"/><path d="M46.4,24.62a1.6,1.6,0,0,1-.7-.71,2.41,2.41,0,0,1-.25-1.15V20.3a2.81,2.81,0,0,1,.24-1.21,1.76,1.76,0,0,1,.69-.76,2.09,2.09,0,0,1,1.07-.26,2.17,2.17,0,0,1,1.09.25,1.66,1.66,0,0,1,.69.72,2.54,2.54,0,0,1,.24,1.15V22h-3V20.92h1.62v-.75a1,1,0,0,0-.18-.63.66.66,0,0,0-1,0,1.2,1.2,0,0,0-.17.68v2.58a.8.8,0,0,0,.19.58.64.64,0,0,0,.52.21.69.69,0,0,0,.49-.16.61.61,0,0,0,.17-.45v-.14h1.33V23A1.84,1.84,0,0,1,49,24.38a2.06,2.06,0,0,1-1.47.49A2.21,2.21,0,0,1,46.4,24.62Z"/><path d="M51.38,24.62a1.71,1.71,0,0,1-.71-.7,2.05,2.05,0,0,1-.25-1V22.8h1.33v.07a.78.78,0,0,0,.19.56.64.64,0,0,0,.51.21.66.66,0,0,0,.51-.2.69.69,0,0,0,.19-.51.62.62,0,0,0-.12-.4.86.86,0,0,0-.31-.25A4,4,0,0,0,52.2,22l-.08,0A.19.19,0,0,1,52,22H52a4.63,4.63,0,0,1-.74-.39,1.76,1.76,0,0,1-.52-.59,2,2,0,0,1-.21-1,2.08,2.08,0,0,1,.24-1,1.57,1.57,0,0,1,.66-.69,2,2,0,0,1,1-.24,2.15,2.15,0,0,1,1,.23,1.59,1.59,0,0,1,.66.65,2,2,0,0,1,.24,1V20l-1.33,0V20a.67.67,0,0,0-.15-.46.58.58,0,0,0-.83,0,.73.73,0,0,0-.16.51.7.7,0,0,0,.13.42.82.82,0,0,0,.32.26,2.93,2.93,0,0,0,.51.21h.1a3.89,3.89,0,0,1,.81.36,1.41,1.41,0,0,1,.55.58,2.37,2.37,0,0,1,0,2.08,1.66,1.66,0,0,1-.71.68,2.28,2.28,0,0,1-1.07.24A2.17,2.17,0,0,1,51.38,24.62Z"/><path d="M56.13,24.62a1.71,1.71,0,0,1-.71-.7,2.05,2.05,0,0,1-.25-1V22.8h1.32v.07a.82.82,0,0,0,.19.56.75.75,0,0,0,1,0,.73.73,0,0,0,.19-.51.62.62,0,0,0-.12-.4,1,1,0,0,0-.31-.25A4,4,0,0,0,57,22l-.08,0a.19.19,0,0,1-.08,0h-.07a4.24,4.24,0,0,1-.74-.39,1.76,1.76,0,0,1-.52-.59,2,2,0,0,1-.21-1,2.08,2.08,0,0,1,.24-1,1.57,1.57,0,0,1,.66-.69,2,2,0,0,1,1-.24,2.15,2.15,0,0,1,1,.23,1.65,1.65,0,0,1,.66.65,2,2,0,0,1,.24,1V20l-1.33,0V20a.67.67,0,0,0-.15-.46.51.51,0,0,0-.42-.17.5.5,0,0,0-.41.18.73.73,0,0,0-.16.51.64.64,0,0,0,.13.42.86.86,0,0,0,.31.26,3.47,3.47,0,0,0,.52.21h.1a3.89,3.89,0,0,1,.81.36,1.41,1.41,0,0,1,.55.58A2.37,2.37,0,0,1,59,24a1.66,1.66,0,0,1-.71.68,2.31,2.31,0,0,1-1.07.24A2.17,2.17,0,0,1,56.13,24.62Z"/></g></svg>