<svg xmlns="http://www.w3.org/2000/svg" viewBox="0 0 85 43"><g id="background"><g id="Ebene_2" data-name="Ebene 2"><rect width="85" height="43" style="fill:#ffcc07"/></g></g><g id="icon"><path d="M15,15.49l-2.72,3.69H27c.75,0,.74.28.38.78s-1,1.37-1.38,1.89c-.19.26-.54.73.61.73H32.7l1.79-2.44c1.11-1.51.1-4.65-3.88-4.65Z" style="fill:#d80613"/><path d="M11.13,27.51l5.46-7.41h6.77c.75,0,.74.28.37.78l-1.38,1.88c-.19.26-.54.73.61.73H32a9.43,9.43,0,0,1-7.59,4Zm31.24-4-3,4h-7.8l3-4Zm12-.91H35.24l5.22-7.09h7.8l-3,4.06h3.48l3-4.06h7.8Zm-.67.91-2.95,4H42.9l3-4ZM0,25.08H11.49l-.62.85H0Zm0-1.59H12.66l-.63.85H0Zm0,3.17H10.33l-.63.85H0Zm85-.73H73.55l.63-.85H85Zm0,1.58H72.39l.62-.85H85Zm-9.66-4H85v.85H74.72Zm-5-8-5.22,7.09H56.86l5.22-7.09Zm-14.16,8-.84,1.15c-1,1.33-.12,2.87,3.08,2.87H71l3-4Z" style="fill:#d80613"/></g></svg>