<svg xmlns="http://www.w3.org/2000/svg" viewBox="0 0 85 43"><g id="background"><g id="Ebene_2" data-name="Ebene 2"><rect width="85" height="43" style="fill:#fff"/></g></g><g id="icon"><g id="layer1"><path id="path1109" d="M6.5,23h5c3.52,0,5.24-2.86,5.24-6.71,0-4.4-2.25-6.56-5.24-6.56h-5ZM9,12.2h1.82c2.52,0,3.33,1.71,3.33,4.39,0,2.94-1.41,4-2.88,4H9Z" style="fill:#1a5dad"/><path id="path1111" d="M15.77,23h2.58l.9-2.95h4.32L24.45,23h2.63L22.76,9.75h-2.6Zm5.65-10h0l1.46,4.87h-3Z" style="fill:#1a5dad"/><path id="path1113" d="M34.56,14.21A2.6,2.6,0,0,0,32,11.89c-2.29,0-3.14,2.23-3.14,4.55s.85,4.45,3.14,4.45c1.55,0,2.42-1.23,2.62-3h2.46c-.26,3.31-2.25,5.43-5.08,5.43-3.58,0-5.68-3.07-5.68-6.9s2.1-7,5.68-7a4.92,4.92,0,0,1,5,4.78Z" style="fill:#1a5dad"/><path id="path1115" d="M38,9.75h2.54v5.09h4.68V9.75h2.54V23H45.22V17.3H40.54V23H38Z" style="fill:#1a5dad"/><path id="path1117" d="M50.88,18.62a2.3,2.3,0,0,0,2.56,2.45c.88,0,2.24-.29,2.24-1.65s-1.73-1.68-3.42-2.2-3.45-1.28-3.45-3.77a4,4,0,0,1,4.32-4c2.41,0,4.63,1.21,4.63,4.28H55.3c-.09-1.6-1.07-2-2.28-2a1.55,1.55,0,0,0-1.75,1.51c0,1,.55,1.15,3.44,2,.84.24,3.43.85,3.43,3.86,0,2.44-1.66,4.26-4.8,4.26-2.56,0-5-1.45-4.92-4.72Z" style="fill:#1a5dad"/><path id="path1119" d="M59,9.75h8.64V12.2h-6.1v2.85h5.6v2.27h-5.6v3.25h6.23V23H59Z" style="fill:#1a5dad"/><path id="path1121" d="M68.55,23h2.54V17.84h2.54c1.28,0,1.75.61,1.93,2A15.77,15.77,0,0,0,76,23H78.5A8.27,8.27,0,0,1,78,19.88c-.08-1.34-.43-2.73-1.68-3.1v0a3.33,3.33,0,0,0,1.83-3.33,3.41,3.41,0,0,0-3.38-3.66H68.55Zm2.54-11h2.78c1.13,0,1.75.55,1.75,1.84s-.62,1.89-1.75,1.89H71.09Z" style="fill:#1a5dad"/><path id="path1123" d="M6.5,26.53H7.72v5.52H6.5Z" style="fill:#231f20"/><path id="path1125" d="M8.69,28.05h1v.56h0A1.41,1.41,0,0,1,11,27.94c1.17,0,1.46.66,1.46,1.65v2.46h-1.1V29.79c0-.66-.19-1-.7-1s-.85.33-.85,1.14v2.1H8.69Z" style="fill:#231f20"/><path id="path1127" d="M14.67,28.05h.8v.73h-.8v2c0,.37.09.46.46.46a1.87,1.87,0,0,0,.34,0v.86a4.22,4.22,0,0,1-.64,0c-.67,0-1.26-.16-1.26-1V28.78h-.66v-.73h.66v-1.2h1.1Z" style="fill:#231f20"/><path id="path1129" d="M19.81,30.32a2,2,0,1,0-4-.27,2,2,0,0,0,2,2.11,1.79,1.79,0,0,0,1.87-1.35h-1a.92.92,0,0,1-.87.52c-.61,0-.95-.32-1-1Zm-2.88-.7a.86.86,0,0,1,.91-.85c.53,0,.77.29.87.85Z" style="fill:#231f20"/><path id="path1131" d="M20.51,26.53h1.1v5.52h-1.1Z" style="fill:#231f20"/><path id="path1133" d="M22.51,26.53h1.1v5.52h-1.1Z" style="fill:#231f20"/><path id="path1135" d="M25.61,27.43h-1.1v-.9h1.1Zm-1.1.62h1.1v4h-1.1Z" style="fill:#231f20"/><path id="path1137" d="M30.32,28.05H29.27v.53h0a1.26,1.26,0,0,0-1.19-.64,1.79,1.79,0,0,0-1.72,2c0,1.1.51,2,1.71,2a1.36,1.36,0,0,0,1.2-.61h0v.52c0,.57-.27,1-.88,1a.74.74,0,0,1-.82-.55H26.48c.05.91,1,1.29,1.76,1.29,1.84,0,2.08-1.12,2.08-1.77Zm-2,3.06c-.68,0-.89-.63-.89-1.2s.27-1.14.89-1.14.93.58.93,1.23a1,1,0,0,1-.93,1.11" style="fill:#231f20"/><path id="path1139" d="M35,30.32a2,2,0,1,0-4-.27,2,2,0,0,0,2,2.11,1.8,1.8,0,0,0,1.87-1.35H34a.89.89,0,0,1-.86.52c-.61,0-1-.32-1-1Zm-2.88-.7a.86.86,0,0,1,.91-.85c.53,0,.77.29.87.85Z" style="fill:#231f20"/><path id="path1141" d="M35.64,28.05h1v.56h0a1.43,1.43,0,0,1,1.22-.67c1.17,0,1.46.66,1.46,1.65v2.46h-1.1V29.79c0-.66-.19-1-.7-1s-.85.33-.85,1.14v2.1h-1.1Z" style="fill:#231f20"/><path id="path1143" d="M41.62,28.05h.81v.73h-.81v2c0,.37.09.46.47.46l.34,0v.86a4.45,4.45,0,0,1-.65,0c-.67,0-1.26-.16-1.26-1V28.78h-.66v-.73h.66v-1.2h1.1Z" style="fill:#231f20"/><path id="path1145" d="M45.22,26.53h1.21V31h2.7v1H45.22Z" style="fill:#231f20"/><path id="path1147" d="M49.57,30.05a2.07,2.07,0,1,0,4.13,0,2.07,2.07,0,1,0-4.13,0m1.09,0c0-.64.23-1.28,1-1.28s1,.64,1,1.28-.23,1.28-1,1.28-1-.64-1-1.28" style="fill:#231f20"/><path id="path1149" d="M58.26,28.05h-1v.53h0A1.24,1.24,0,0,0,56,27.94a1.79,1.79,0,0,0-1.72,2c0,1.1.51,2,1.71,2a1.36,1.36,0,0,0,1.2-.61h0v.52c0,.57-.27,1-.88,1a.74.74,0,0,1-.82-.55h-1.1c.06.91,1,1.29,1.77,1.29,1.84,0,2.07-1.12,2.07-1.77Zm-2,3.06c-.67,0-.89-.63-.89-1.2s.27-1.14.89-1.14.94.58.94,1.23a1,1,0,0,1-.94,1.11" style="fill:#231f20"/><path id="path1151" d="M60.27,27.43H59.18v-.9h1.09Zm-1.09.62h1.09v4H59.18Z" style="fill:#231f20"/><path id="path1153" d="M62,30.75c0,.48.41.67.84.67s.72-.12.72-.51-.45-.45-1.24-.62S61,29.93,61,29.23c0-1,.88-1.29,1.74-1.29s1.68.3,1.76,1.28h-1c0-.43-.36-.54-.75-.54s-.61,0-.61.37.62.45,1.24.59,1.27.38,1.27,1.13c0,1.05-.91,1.39-1.82,1.39S61,31.81,61,30.75Z" style="fill:#231f20"/><path id="path1155" d="M66.65,28.05h.8v.73h-.8v2c0,.37.09.46.46.46l.34,0v.86a4.4,4.4,0,0,1-.64,0c-.68,0-1.26-.16-1.26-1V28.78h-.67v-.73h.67v-1.2h1.1Z" style="fill:#231f20"/><path id="path1157" d="M69.34,27.43H68.25v-.9h1.09Zm-1.09.62h1.09v4H68.25Z" style="fill:#231f20"/><path id="path1159" d="M72.83,29.46a.75.75,0,0,0-.82-.69c-.7,0-.93.71-.93,1.3s.22,1.26.91,1.26a.85.85,0,0,0,.87-.81h1.06A1.78,1.78,0,0,1,72,32.16a1.94,1.94,0,0,1-2-2,2,2,0,0,1,2-2.17,1.7,1.7,0,0,1,1.88,1.52Z" style="fill:#231f20"/><path id="path1161" d="M75.5,30.75c0,.48.41.67.85.67s.72-.12.72-.51-.46-.45-1.25-.62c-.64-.14-1.27-.36-1.27-1.06,0-1,.88-1.29,1.74-1.29s1.68.3,1.77,1.28H77c0-.43-.36-.54-.75-.54s-.61,0-.61.37.62.45,1.24.59,1.27.38,1.27,1.13c0,1.05-.91,1.39-1.82,1.39s-1.84-.35-1.88-1.41Z" style="fill:#231f20"/></g></g></svg>