<svg xmlns="http://www.w3.org/2000/svg" viewBox="0 0 85 43"><g id="background"><g id="Ebene_2" data-name="Ebene 2"><rect width="85" height="43" style="fill:#fff"/></g></g><g id="icon"><path d="M16.12,36.5V30.22c0-.1,0-.12.13-.12h.94c.17,0,.15,0,.15.15v4.86c0,.15,0,.15.16.15h2.81c.13,0,.13,0,.13.14v1.1Z" style="fill:#565655"/><path d="M24.38,30.1s0,0,0,0Z" style="fill:#565655"/><path d="M25.58,30.23c0-.1,0-.13-.11-.13h-1c-.06,0-.09,0-.09.08q0,3.15,0,6.3v0h1.21s0-.07,0-.11Z" style="fill:#565655"/><path d="M66.25,33.56a.2.2,0,0,1,0-.13l2.56-3.27,0,0v0H67.32l0,0c-.23.3-.46.61-.7.91l-.93,1.17c-.06.08-.08.07-.12,0a3.25,3.25,0,0,0-.23-.29l-1.4-1.81H62.33a.25.25,0,0,0,0,.07l.83,1.05.93,1.18c.24.32.49.64.74,1a.59.59,0,0,1,.15.44c0,.9,0,1.8,0,2.7h1.23V33.56Z" style="fill:#565655"/><polygon points="29.5 30.11 29.5 30.11 29.5 30.11 29.5 30.11" style="fill:#565655"/><path d="M33.82,36.09v-.77s0-.06-.1-.06c-.78,0-1.56,0-2.34,0h-.59s-.05,0-.06,0h0v0h0a.16.16,0,0,1,0-.07V34s0-.05,0-.07h0s0,0,0,0h0s.07,0,.1,0h2.24V32.7a.25.25,0,0,0-.12,0H30.84a.21.21,0,0,1-.11,0h0s0,0,0-.05V31.4h0a.06.06,0,0,1,0,0h3.08a.19.19,0,0,0,0-.08V30.17a.07.07,0,0,0-.06-.07H29.5V36.5h4.31a1,1,0,0,0,0-.17Z" style="fill:#565655"/><path d="M50.3,36.09v-.26c0-.14,0-.28,0-.42v-.09s0-.06-.1-.06c-.78,0-1.56,0-2.34,0h-.59s-.05,0-.06,0h0a0,0,0,0,1,0,0h0a.16.16,0,0,1,0-.07q0-.57,0-1.14s0-.05,0-.07h0s0,0,0,0h0s.07,0,.1,0c.72,0,1.43,0,2.15,0,.08,0,.1,0,.1-.11V32.76s0-.07-.08-.07H47.32s-.08,0-.11,0h0s0,0,0-.05c0-.41,0-.82,0-1.22h0s0,0,0,0h3.07a.29.29,0,0,0,0-.09V30.16a.07.07,0,0,0-.06-.06H46.05c-.06,0-.08,0-.08.08V36.5h4.32c0-.06,0-.11,0-.17Z" style="fill:#565655"/><path d="M42.06,30.35v-.19A.07.07,0,0,0,42,30.1H37.81c-.06,0-.08,0-.08.08V36.5H39s0-.08,0-.12V34.05s0-.08,0-.11h2.3V32.7H39s0,0,0-.06V31.41s0,0,0-.06h3.08s0-.06,0-.09Z" style="fill:#565655"/><path d="M59.8,36.24c-.49-.79-.94-1.62-1.42-2.42,0-.07,0-.11,0-.14a1.28,1.28,0,0,0,.4-.29,1.86,1.86,0,0,0,.59-1.29.86.86,0,0,0,0-.16,1.93,1.93,0,0,0-1.78-1.83H54.32c-.07,0-.11,0-.11.09V36.5h1.21c0-.8,0-1.6,0-2.4,0-.16,0-.16.17-.16h1.34a.12.12,0,0,1,.12.06l1.45,2.51h1.43C59.9,36.41,59.85,36.33,59.8,36.24Zm-2.2-3.55a1.38,1.38,0,0,1-.29,0H55.55c-.09,0-.12,0-.12-.11q0-.57,0-1.14c0-.1,0-.11.12-.11h1.93a.68.68,0,0,1,.12,1.35Z" style="fill:#565655"/><path d="M54.23,30.1s0,0,0,0Z" style="fill:#565655"/><path d="M51.22,14.91v-.22s0-.1,0-.15v-.12s0-.07,0-.11a2.93,2.93,0,0,1,0-.29,7.86,7.86,0,0,0-.36-1.58,9,9,0,0,0-1.89-3.16,9.75,9.75,0,0,0-1.06-1,8.82,8.82,0,0,0-4.46-1.77h-.31a8.34,8.34,0,0,0-2.49.2,8.84,8.84,0,0,0-6.48,6.21,7.31,7.31,0,0,0-.25,1.46s0,.09,0,.13v.14c0,.08,0,.15,0,.23v.65c0,.08,0,.15,0,.23v.14s0,.09,0,.13a4.83,4.83,0,0,0,.11.84,9.48,9.48,0,0,0,.36,1.29,10.68,10.68,0,0,0,.59,1.29A7.93,7.93,0,0,0,36,21.06a9.19,9.19,0,0,0,1.17,1.08,9.59,9.59,0,0,0,1.21.78c.5.25,1,.51,1.46.8a7.24,7.24,0,0,1,1.12.86,7.57,7.57,0,0,1,.87.92,7.85,7.85,0,0,1,.58.84s0,.05,0,.05,0,0,0-.05.12-.21.19-.31a8.13,8.13,0,0,1,1.34-1.53A8.51,8.51,0,0,1,46,23.23a11.24,11.24,0,0,0,1.23-.67A8.74,8.74,0,0,0,50.76,18a9.3,9.3,0,0,0,.42-1.88s0-.07,0-.11v-.12c0-.05,0-.1,0-.15v-.22C51.23,15.32,51.23,15.11,51.22,14.91ZM42.5,21.6a6.39,6.39,0,1,1,6.39-6.25A6.38,6.38,0,0,1,42.5,21.6Z" style="fill:#0089d1"/><path d="M40.39,17.22a5.26,5.26,0,0,1-.34-.82,5.76,5.76,0,0,1-.31-2,4.86,4.86,0,0,1,1.43-3.37A7.2,7.2,0,0,1,42.47,10c0,.1-.06.2-.08.29a3.92,3.92,0,0,0,.17,2.7,3.64,3.64,0,0,0,1.26,1.46s.07,0,.11,0A2.05,2.05,0,0,1,45,14a1.64,1.64,0,0,1,1.26.39.85.85,0,0,0,.58.21,2.65,2.65,0,0,1,.77.13l-.38.14a3.07,3.07,0,0,0-1.85,2,2.36,2.36,0,0,1-.48.93,1.52,1.52,0,0,1-.94.51,7.23,7.23,0,0,1-1.47,0,5.65,5.65,0,0,0-1.48.09,3.65,3.65,0,0,0-2,1.13c-.06.06-.08,0-.11,0a5.72,5.72,0,0,1-1.07-1.18l-.06-.09c-.11-.17-.11-.17.05-.3a3.5,3.5,0,0,1,1.37-.6,6.75,6.75,0,0,1,1.1-.14Z" style="fill:#e74c09"/></g></svg>