<svg xmlns="http://www.w3.org/2000/svg" xmlns:xlink="http://www.w3.org/1999/xlink" viewBox="0 0 85 43"><defs><clipPath id="clip-path"><rect y="0.75" width="85" height="42" style="fill:none"/></clipPath></defs><g id="background"><g id="Ebene_2" data-name="Ebene 2"><rect width="85" height="43" style="fill:#ffcc07"/></g></g><g id="icon"><g style="clip-path:url(#clip-path)"><path d="M-5.41,22v-.87H7.4L6.77,22Z" style="fill:#fff"/><path d="M-5.41,20.19v-.85H8.71l-.62.85Z" style="fill:#fff"/><path d="M-5.41,23.77v-.85H6.08l-.62.85Z" style="fill:#fff"/><path d="M77.64,22l.64-.87H90.41V22Z" style="fill:#fff"/><path d="M77,22.92H90.41v.85H76.34Z" style="fill:#fff"/><path d="M79.59,19.34H90.41v.85H79Z" style="fill:#fff"/><path d="M7.21,23.77l6.08-8.25h7.62c.36,0,.55.06.62.18s0,.32-.25.62l-.67.91c-.31.43-.63.89-.88,1.2s-.31.42-.21.63.41.28.95.28H30.6a10.48,10.48,0,0,1-8.47,4.43H7.21" style="fill:#fff"/><path d="M30.32,23.77c.44-.6,3-4.12,3.25-4.43h8.67L39,23.77H30.32" style="fill:#fff"/><path d="M43.06,23.77c.44-.6,3-4.13,3.25-4.43H55l-3.25,4.43H43.06" style="fill:#fff"/><path d="M60.48,23.77c-1.91,0-3.27-.5-3.71-1.39a1.6,1.6,0,0,1,.28-1.76c.64-.87.86-1.16.93-1.28H77.86L74.6,23.77H60.48" style="fill:#fff"/><path d="M24.6,18.2c-.6,0-.8-.12-.85-.21s.1-.38.2-.53.5-.7.8-1.09l.75-1c.26-.35.33-.57.26-.74s-.31-.23-.72-.23H8.45l3-4H29.1c2.1,0,3.74.82,4.46,2.24a2.79,2.79,0,0,1-.12,2.92c-.85,1.17-1.86,2.54-2,2.73H24.6Z" style="fill:#fff"/><path d="M34.41,18.2l5.82-7.9h8.66l-3.37,4.6h4.06L53,10.3h8.67l-5.81,7.9Z" style="fill:#fff"/><path d="M58.81,18.2l5.82-7.9h9.19L68,18.2H58.81" style="fill:#fff"/><path d="M26.43,32.6,30,27.71h2.8l-.4.52H30.26L29.1,29.8h2l-.37.53h-2l-1.29,1.75H29.6l-.37.52Z" style="fill:#fff"/><path d="M30.08,32.6l3.71-2.52,0-2.37h.77v2l2.86-2h.65L34.72,30V32.6h-.8V30.43l-3.13,2.19Z" style="fill:#fff"/><path d="M38.09,30.08h.85a2.22,2.22,0,0,0,1.73-.9q.27-.39.15-.63a.76.76,0,0,0-.72-.32h-.66l-1.35,1.85M35.62,32.6l3.58-4.9h1.34c.64,0,1,.13,1.14.37s0,.59-.32,1.05a3.63,3.63,0,0,1-2.9,1.48h-.75l-1.47,2h-.62" style="fill:#fff"/><path d="M42.6,29.85h.73a2.14,2.14,0,0,0,1.75-.8q.27-.35.15-.57c-.08-.16-.31-.25-.69-.25h-.75L42.6,29.85m.21,2.75.46-1.67a.58.58,0,0,0,0-.42c-.1-.13-.3-.13-.54-.13h-.48L40.63,32.6H40l3.58-4.9h1.24c.53,0,1.15,0,1.29.34s0,.51-.31.93A2.93,2.93,0,0,1,44,30.08h0l-.05.07.05.05c.13.06.18.14.12.44l-.46,1.94h-.77Z" style="fill:#fff"/><path d="M44.76,32.6l3.58-4.89h2.77l-.37.52H48.56L47.42,29.8h2l-.39.53H47l-1.28,1.75h2.18l-.4.52Z" style="fill:#fff"/><path d="M49.55,32.7a2.16,2.16,0,0,1-.84-.18L49.2,32a2.07,2.07,0,0,0,.88.22,2.25,2.25,0,0,0,1.67-.83.7.7,0,0,0,.18-.52c0-.23-.24-.36-.47-.53a1,1,0,0,1-.51-.55,1.11,1.11,0,0,1,.3-.77,3.3,3.3,0,0,1,2.63-1.34,2.35,2.35,0,0,1,.88.15l-.51.57a1.49,1.49,0,0,0-.81-.2,1.78,1.78,0,0,0-1.44.69.46.46,0,0,0-.13.42c0,.22.23.35.44.49s.47.33.52.61a1.26,1.26,0,0,1-.33.88,3.66,3.66,0,0,1-3,1.46" style="fill:#fff"/><path d="M53.34,32.7a2.16,2.16,0,0,1-.84-.18L53,32a2,2,0,0,0,.89.22,2.23,2.23,0,0,0,1.66-.83.7.7,0,0,0,.18-.52c0-.23-.24-.36-.47-.53a1,1,0,0,1-.51-.55A1.11,1.11,0,0,1,55,29a3.32,3.32,0,0,1,2.63-1.34,2.31,2.31,0,0,1,.88.15l-.5.57a1.61,1.61,0,0,0-.82-.2,1.79,1.79,0,0,0-1.44.69.52.52,0,0,0-.13.42c0,.22.23.35.44.49s.47.33.52.61a1.24,1.24,0,0,1-.32.88,3.67,3.67,0,0,1-3,1.46" style="fill:#fff"/><path d="M-5.46,32.08H90.48v.57H-5.46Z" style="fill:#fff"/><path d="M-5.46,27.65H90.48v.57H-5.46Z" style="fill:#fff"/><path d="M-5.46,29.87H90.48v.57H-5.46Z" style="fill:#fff"/><path d="M26.33,32.66h2.91l.48-.63H27.54l1.21-1.65h2l.46-.64h-2l1.06-1.46h2.18l.45-.63H30Z" style="fill:#d80613"/><path d="M29.91,32.66h.9l3-2.12v2.12h.91V30l3.5-2.38H37.4l-2.78,1.92V27.65h-.86l0,2.4Z" style="fill:#d80613"/><path d="M35.52,32.66h.75l1.47-2h.74a3.64,3.64,0,0,0,2.94-1.5c.83-1.15.21-1.51-.87-1.51H39.18l-3.66,5m3.94-4.38h.64c.45,0,1,.23.52.87a2.22,2.22,0,0,1-1.68.88H38.2l1.26-1.75" style="fill:#d80613"/><path d="M43.81,28.28h.72c.68,0,.83.3.5.74a2.09,2.09,0,0,1-1.7.78H42.7l1.11-1.52m-3.94,4.38h.75l1.62-2.22h.44c.39,0,.64,0,.52.49l-.47,1.73h.85l.47-2c.07-.31,0-.41-.14-.51h0A3.08,3.08,0,0,0,45.82,29c.88-1.2,0-1.36-1-1.36H43.52l-3.67,5" style="fill:#d80613"/><path d="M44.66,32.66h2.91L48,32H45.85l1.21-1.65h2l.46-.64h-2l1.08-1.46h2.17l.46-.63H48.3Z" style="fill:#d80613"/><path d="M54.86,27.74a2.72,2.72,0,0,0-1-.18,3.44,3.44,0,0,0-2.67,1.36c-1.14,1.55,1.33,1.24.51,2.37a2.16,2.16,0,0,1-1.62.82,2,2,0,0,1-.9-.25l-.55.67a2.1,2.1,0,0,0,.91.22,3.67,3.67,0,0,0,3-1.49c1.21-1.65-1.19-1.42-.49-2.39a1.74,1.74,0,0,1,1.41-.67,1.47,1.47,0,0,1,.82.21l.57-.67" style="fill:#d80613"/><path d="M58.65,27.74a2.72,2.72,0,0,0-1-.18A3.44,3.44,0,0,0,55,28.92c-1.14,1.55,1.33,1.24.51,2.37a2.15,2.15,0,0,1-1.62.82,2,2,0,0,1-.9-.25l-.55.67a2.1,2.1,0,0,0,.91.22,3.7,3.7,0,0,0,3-1.49c1.2-1.65-1.2-1.42-.5-2.39a1.75,1.75,0,0,1,1.41-.67,1.45,1.45,0,0,1,.82.21l.57-.67" style="fill:#d80613"/><path d="M-5.46,21.07h13l-.7,1H-5.46Z" style="fill:#d80613"/><path d="M-5.46,19.28H8.83l-.72,1H-5.46Z" style="fill:#d80613"/><path d="M-5.46,22.86H6.2l-.72,1H-5.46Z" style="fill:#d80613"/><path d="M90.46,22H77.55l.7-1H90.46Z" style="fill:#d80613"/><path d="M90.46,23.82H76.22l.72-1H90.46Z" style="fill:#d80613"/><path d="M79.57,19.28H90.46v1H78.85Z" style="fill:#d80613"/><path d="M7.09,23.82l6.17-8.37h7.63c.85,0,.83.33.43.88l-1.56,2.13c-.21.29-.6.83.69.83H30.68a10.64,10.64,0,0,1-8.56,4.55h-15Z" style="fill:#d80613"/><path d="M42.35,19.28,39,23.82H30.21l3.33-4.54Z" style="fill:#d80613"/><path d="M55.09,19.28l-3.34,4.54H42.94l3.35-4.54Z" style="fill:#d80613"/><path d="M58,19.28l-1,1.3c-1.11,1.49-.13,3.24,3.48,3.24H74.62L78,19.28H58" style="fill:#d80613"/><path d="M11.41,10.25,8.34,14.42H25c.85,0,.84.33.43.88s-1.13,1.56-1.56,2.13c-.21.29-.6.83.69.83h6.83s1.1-1.5,2-2.74c1.26-1.7.11-5.25-4.38-5.25H11.41Z" style="fill:#d80613"/><path d="M55.85,18.26H34.31l5.89-8H49l-3.39,4.6h3.94l3.37-4.6h8.81Z" style="fill:#d80613"/><path d="M73.93,10.25l-5.9,8H58.72l5.88-8Z" style="fill:#d80613"/></g></g></svg>