<svg xmlns="http://www.w3.org/2000/svg" viewBox="0 0 85 43"><g id="background"><g id="Ebene_2" data-name="Ebene 2"><rect width="85" height="43" style="fill:#fff"/></g></g><g id="icon"><path d="M71.12,15.71a.33.33,0,0,1,.34.34V18.3a.33.33,0,0,1-.34.34H68.53a5.26,5.26,0,0,1-.66-.05v8.88a.34.34,0,0,1-.35.34H64.73a.34.34,0,0,1-.34-.34V18.59a3,3,0,0,1-.52.05H61.16a.33.33,0,0,1-.34-.34V16.05a.33.33,0,0,1,.34-.34Zm-57.29,0a.33.33,0,0,0-.34.34V18.3a.33.33,0,0,0,.34.34h2.71a3,3,0,0,0,.52-.05v8.88a.34.34,0,0,0,.35.34h2.78a.34.34,0,0,0,.35-.34V18.59a5.26,5.26,0,0,0,.66.05h2.59a.34.34,0,0,0,.35-.34V16.05a.34.34,0,0,0-.35-.34Zm52.28-7.6a13.39,13.39,0,0,0-11.83,7.23,13.29,13.29,0,0,0-23.66,0,13.34,13.34,0,1,0,.05,12.32,13.29,13.29,0,0,0,23.66,0A13.32,13.32,0,0,0,79.5,21.5,13.47,13.47,0,0,0,66.11,8.11M18.84,31.88A10.38,10.38,0,1,1,29.16,21.5,10.37,10.37,0,0,1,18.84,31.88m23.64,0A10.38,10.38,0,1,1,52.8,21.5,10.37,10.37,0,0,1,42.48,31.88m23.63,0A10.38,10.38,0,1,1,76.44,21.5,10.36,10.36,0,0,1,66.11,31.88M47.63,15.49a.36.36,0,0,1,.37.37V27.17a.33.33,0,0,1-.35.34H45.31a.63.63,0,0,1-.39-.19s-4.22-5.77-4.34-5.92a3.41,3.41,0,0,1-.3-.54v6.31a.33.33,0,0,1-.34.34H37.3a.33.33,0,0,1-.35-.34V15.86a.34.34,0,0,1,.35-.35h2.34a.59.59,0,0,1,.39.2l4.34,5.91a3.33,3.33,0,0,1,.3.55V15.86a.34.34,0,0,1,.34-.35s2.44,0,2.62,0" style="fill:#f60"/></g></svg>