<svg xmlns="http://www.w3.org/2000/svg" viewBox="0 0 85 43"><g id="twt-background"><g id="Ebene_2" data-name="Ebene 2"><rect width="85" height="43" style="fill:#fff"/></g></g><g id="twt-primary"><path d="M24.11,24.61a1.69,1.69,0,0,1-.78-.76,2.37,2.37,0,0,1-.27-1.2v-.48h1.39v.46a.89.89,0,0,0,.23.66.9.9,0,0,0,.66.23.82.82,0,0,0,.64-.23.89.89,0,0,0,.22-.66v-.8a.85.85,0,0,0-.15-.51,1.2,1.2,0,0,0-.39-.35,6.09,6.09,0,0,0-.65-.34l0,0h0l-.08,0a6.07,6.07,0,0,1-.91-.54,2,2,0,0,1-.62-.72,2.29,2.29,0,0,1-.25-1.14v-.5a2.59,2.59,0,0,1,.26-1.2,1.74,1.74,0,0,1,.77-.75,2.87,2.87,0,0,1,1.23-.25,2.59,2.59,0,0,1,1.2.26,1.7,1.7,0,0,1,.75.75,2.67,2.67,0,0,1,.26,1.21v.5H26.15V17.7a1,1,0,0,0-.21-.67.82.82,0,0,0-.61-.23.91.91,0,0,0-.65.22.82.82,0,0,0-.22.61v.59a.92.92,0,0,0,.15.53,1.24,1.24,0,0,0,.37.35c.16.09.37.2.63.32l.11.06.12.06h0l0,0a6.43,6.43,0,0,1,.87.49,2,2,0,0,1,.57.67,2.22,2.22,0,0,1,.23,1.1v.8a2.49,2.49,0,0,1-.26,1.21,1.72,1.72,0,0,1-.77.76,2.53,2.53,0,0,1-1.22.26A2.72,2.72,0,0,1,24.11,24.61Z"/><path d="M28.38,18.19H31.3v1.29H28.38Zm1,6.18a1.92,1.92,0,0,1-.4-1.31V16.27h1.39v6.66a.62.62,0,0,0,.11.39.39.39,0,0,0,.33.14h.47v1.35h-.66A1.58,1.58,0,0,1,29.4,24.37Z"/><path d="M32.67,24.4a2.09,2.09,0,0,1-.4-1.4,2.27,2.27,0,0,1,.53-1.63,2.11,2.11,0,0,1,1.58-.56h.67L35.14,22h-.72a.74.74,0,0,0-.62.26,1.19,1.19,0,0,0-.21.76.69.69,0,0,0,.16.51.61.61,0,0,0,.47.17.76.76,0,0,0,.59-.22.9.9,0,0,0,.2-.63l.12.57a2,2,0,0,1-.15.81,1.08,1.08,0,0,1-.44.5,1.37,1.37,0,0,1-.7.16A1.46,1.46,0,0,1,32.67,24.4ZM35,20a.69.69,0,0,0-.18-.51.67.67,0,0,0-.5-.18.54.54,0,0,0-.43.18.84.84,0,0,0-.16.51H32.4a1.79,1.79,0,0,1,2-1.93,2.35,2.35,0,0,1,1.07.23,1.55,1.55,0,0,1,.68.66,2.13,2.13,0,0,1,.23,1v4.78H35Z"/><path d="M37.73,18.19h1.4v6.59h-1.4Zm2.7,2a1,1,0,0,0-.16-.62.57.57,0,0,0-.49-.21.58.58,0,0,0-.49.21,1,1,0,0,0-.16.63L39,19.32a2,2,0,0,1,.59-.93,1.32,1.32,0,0,1,.87-.32,1.22,1.22,0,0,1,1,.45,2,2,0,0,1,.36,1.28v5h-1.4Z"/><path d="M43.72,24.67a1.41,1.41,0,0,1-.48-.65,3,3,0,0,1-.16-1V20a2.88,2.88,0,0,1,.17-1,1.39,1.39,0,0,1,.47-.65,1.21,1.21,0,0,1,.74-.23,1.26,1.26,0,0,1,.81.31,2.16,2.16,0,0,1,.59.87l-.13.89a1.33,1.33,0,0,0-.07-.43.54.54,0,0,0-.22-.27.59.59,0,0,0-.34-.09.57.57,0,0,0-.47.21.85.85,0,0,0-.17.58v2.72a.77.77,0,0,0,.17.55.67.67,0,0,0,.81.11.54.54,0,0,0,.22-.27,1.21,1.21,0,0,0,.07-.41l.09.9a1.75,1.75,0,0,1-.53.85,1.25,1.25,0,0,1-.83.3A1.2,1.2,0,0,1,43.72,24.67Zm2-9.12h1.4v9.23h-1.4Z"/><path d="M48.82,24.4a2.09,2.09,0,0,1-.4-1.4A2.22,2.22,0,0,1,49,21.37a2.09,2.09,0,0,1,1.57-.56h.68L51.28,22h-.71a.71.71,0,0,0-.62.26,1.19,1.19,0,0,0-.21.76.74.74,0,0,0,.15.51.64.64,0,0,0,.47.17.74.74,0,0,0,.59-.22.86.86,0,0,0,.21-.63l.12.57a2.12,2.12,0,0,1-.16.81,1.06,1.06,0,0,1-.43.5,1.41,1.41,0,0,1-.71.16A1.44,1.44,0,0,1,48.82,24.4ZM51.16,20a.69.69,0,0,0-.18-.51.68.68,0,0,0-.5-.18.52.52,0,0,0-.43.18.78.78,0,0,0-.16.51H48.55a1.9,1.9,0,0,1,.52-1.42,1.94,1.94,0,0,1,1.43-.51,2.39,2.39,0,0,1,1.08.23,1.6,1.6,0,0,1,.68.66,2.25,2.25,0,0,1,.23,1v4.78H51.16Z"/><path d="M53.88,18.19h1.39v6.59H53.88Zm2.95,1.32h-.18a1.37,1.37,0,0,0-1,.35,1.3,1.3,0,0,0-.37.95l-.13-1.47a2.4,2.4,0,0,1,.78-.93,1.76,1.76,0,0,1,1-.34V19.5Z"/><path d="M58.38,24.67a1.33,1.33,0,0,1-.47-.65,2.79,2.79,0,0,1-.17-1V20a2.88,2.88,0,0,1,.17-1,1.46,1.46,0,0,1,.47-.65,1.23,1.23,0,0,1,.74-.23,1.24,1.24,0,0,1,.81.31,2.07,2.07,0,0,1,.59.87l-.13.89a1.11,1.11,0,0,0-.07-.43.58.58,0,0,0-.21-.27.65.65,0,0,0-.35-.09.57.57,0,0,0-.47.21.91.91,0,0,0-.17.58v2.72a.82.82,0,0,0,.17.55.59.59,0,0,0,.47.2.65.65,0,0,0,.35-.09.58.58,0,0,0,.21-.27,1,1,0,0,0,.07-.41l.09.9a1.73,1.73,0,0,1-.52.85,1.27,1.27,0,0,1-.84.3A1.22,1.22,0,0,1,58.38,24.67Zm2-9.12h1.4v9.23h-1.4Z"/></g></svg>