<svg xmlns="http://www.w3.org/2000/svg" viewBox="0 0 85 43"><g id="background"><g id="Ebene_2" data-name="Ebene 2"><rect width="85" height="43" style="fill:#fff"/></g></g><g id="icon"><rect x="14.18" y="5.73" width="56.64" height="21.06" style="fill:#fff"/><polygon points="70.72 17.51 19.31 17.51 19.31 14.18 19.31 10.84 70.72 10.84 70.72 17.51" style="fill:#fc0"/><path d="M70.56,6V26.54H14.44V6H70.56m.51-.5H13.93V27H71.07Z" style="fill:#007c39"/><path d="M19.36,32.45v-2.9h.39v1.27h.48l.94-1.27h.45L20.55,31l1.11,1.48h-.48l-.95-1.29h-.48v1.29Zm3.19,0a.53.53,0,0,1-.41-.15A.61.61,0,0,1,22,32V29.37h.37v2.56a.25.25,0,0,0,.05.19.22.22,0,0,0,.17.05h.11v.31l-.18,0Zm.83-2.6a.26.26,0,0,1-.18-.07.24.24,0,0,1-.07-.17.24.24,0,0,1,.07-.16.27.27,0,0,1,.36,0,.17.17,0,0,1,.07.16.18.18,0,0,1-.07.17A.23.23,0,0,1,23.38,29.9Zm-.18,2.55v-2.2h.37v2.2Zm1.07,0v-2.2h.34v.43a1,1,0,0,1,.28-.34.69.69,0,0,1,.44-.13.73.73,0,0,1,.41.12.68.68,0,0,1,.24.36,1,1,0,0,1,.27-.34.71.71,0,0,1,.46-.14.64.64,0,0,1,.52.22.92.92,0,0,1,.19.64v1.38H27V31.12a.63.63,0,0,0-.11-.43.43.43,0,0,0-.34-.15.57.57,0,0,0-.35.12.89.89,0,0,0-.21.26v1.53h-.37V31.12a.64.64,0,0,0-.12-.43.43.43,0,0,0-.34-.15.52.52,0,0,0-.34.12.78.78,0,0,0-.22.26v1.53Zm4.26,0a.67.67,0,0,1-.47-.18.67.67,0,0,1,0-.95l0,0a1,1,0,0,1,.64-.19h.49v-.07c0-.37-.17-.56-.52-.56a.72.72,0,0,0-.29.06.64.64,0,0,0-.25.15L28,30.49a1.06,1.06,0,0,1,.76-.29c.57,0,.85.3.85.89v.85c0,.16.06.23.18.23h.09v.31l-.18,0a.41.41,0,0,1-.43-.35v-.06a.86.86,0,0,1-.3.3A.88.88,0,0,1,28.53,32.5Zm.11-.33a.62.62,0,0,0,.59-.37v-.35h-.46a.64.64,0,0,0-.38.1.34.34,0,0,0-.15.29.32.32,0,0,0,.11.24A.4.4,0,0,0,28.64,32.17Zm1.66.28v-2.2h.35v.43a.9.9,0,0,1,.28-.33.65.65,0,0,1,.44-.14.67.67,0,0,1,.53.22.92.92,0,0,1,.19.64v1.38h-.37V31.12a.64.64,0,0,0-.12-.43.47.47,0,0,0-.35-.15.55.55,0,0,0-.35.12.78.78,0,0,0-.22.26v1.53Zm3.34,0a1,1,0,0,1-.54-.13.92.92,0,0,1-.35-.38,1.15,1.15,0,0,1-.11-.55v-.17a1.22,1.22,0,0,1,.11-.56.88.88,0,0,1,.32-.37.94.94,0,0,1,.51-.14.88.88,0,0,1,.5.14.8.8,0,0,1,.31.37,1.35,1.35,0,0,1,.11.55v.22H33a.81.81,0,0,0,.18.51.57.57,0,0,0,.48.18.7.7,0,0,0,.32-.06.8.8,0,0,0,.27-.18l.19.26a1.09,1.09,0,0,1-.8.31Zm-.07-2a.49.49,0,0,0-.4.18.79.79,0,0,0-.17.49h1.14A.84.84,0,0,0,34,30.7a.49.49,0,0,0-.41-.18Zm2.14,2a.7.7,0,0,1-.51-.22,1,1,0,0,1-.2-.64V30.25h.38v1.34a.67.67,0,0,0,.12.43.44.44,0,0,0,.34.14.49.49,0,0,0,.35-.11.92.92,0,0,0,.22-.26V30.25h.37v2.2h-.34V32a1,1,0,0,1-.28.33.8.8,0,0,1-.45.14Zm2.54,0a.64.64,0,0,1-.52-.19,1,1,0,0,1-.15-.59V30.57h-.37v-.32h.37v-.48l.38-.09v.57h.56v.32H38V31.7a.52.52,0,0,0,.09.38.38.38,0,0,0,.29.09h.09l.09,0v.32l-.13,0Zm.73,0v-2.2h.34v.52a1.17,1.17,0,0,1,.15-.27.72.72,0,0,1,.6-.28l.15,0v.35h-.16a.73.73,0,0,0-.45.14.8.8,0,0,0-.26.29v1.44Zm2.11,0a.7.7,0,0,1-.48-.18.68.68,0,0,1,0-.95l0,0a1,1,0,0,1,.63-.19h.5v-.07c0-.37-.17-.56-.52-.56a.72.72,0,0,0-.29.06.58.58,0,0,0-.25.15l-.2-.25a1.09,1.09,0,0,1,.77-.29c.56,0,.85.3.85.89v.85c0,.16.06.23.18.23h.09v.31l-.18,0a.39.39,0,0,1-.43-.35v-.06a.89.89,0,0,1-.31.3.81.81,0,0,1-.41.11Zm.11-.33a.64.64,0,0,0,.59-.36v-.36h-.46a.67.67,0,0,0-.39.1.36.36,0,0,0-.14.29.32.32,0,0,0,.11.24.39.39,0,0,0,.29.09Zm2.18.33a.51.51,0,0,1-.41-.15.61.61,0,0,1-.12-.4V29.37h.38v2.56a.25.25,0,0,0,.05.19.22.22,0,0,0,.17.05h.11v.31l-.18,0Zm1.52,0a1,1,0,0,1-.54-.13A.84.84,0,0,1,44,32a1.3,1.3,0,0,1-.12-.55v-.17a1.29,1.29,0,0,1,.11-.55.87.87,0,0,1,.33-.38.9.9,0,0,1,.5-.14.91.91,0,0,1,.51.14.93.93,0,0,1,.31.37,1.34,1.34,0,0,1,.1.55v.22h-1.5a.88.88,0,0,0,.18.51.58.58,0,0,0,.48.18.75.75,0,0,0,.33-.06.68.68,0,0,0,.26-.18l.19.26a1,1,0,0,1-.35.23,1,1,0,0,1-.45.08Zm-.06-2a.49.49,0,0,0-.41.18.84.84,0,0,0-.16.49H45.4a.84.84,0,0,0-.16-.49.49.49,0,0,0-.4-.18Zm1.45,1.93v-2.2h.35v.52a1.17,1.17,0,0,1,.15-.27.72.72,0,0,1,.59-.28l.16,0v.35h-.16a.73.73,0,0,0-.45.14.8.8,0,0,0-.26.29v1.44Zm3.24,0-.94-2.9H49l.81,2.54h.07l.81-2.54h.4l-1,2.9Zm2.69,0a1,1,0,0,1-.54-.13.9.9,0,0,1-.34-.38,1.3,1.3,0,0,1-.12-.55v-.17a1.3,1.3,0,0,1,.12-.55.85.85,0,0,1,.32-.38.91.91,0,0,1,.51-.14.9.9,0,0,1,.5.14.86.86,0,0,1,.31.37,1.34,1.34,0,0,1,.1.55v.22H51.59a.76.76,0,0,0,.18.51.57.57,0,0,0,.48.18.7.7,0,0,0,.32-.06.68.68,0,0,0,.26-.18l.19.26a1,1,0,0,1-.35.23,1,1,0,0,1-.45.08Zm-.06-2a.47.47,0,0,0-.4.18.79.79,0,0,0-.17.49h1.13a.84.84,0,0,0-.16-.49.49.49,0,0,0-.4-.18Zm1.46,1.93v-2.2H54v.52a1.17,1.17,0,0,1,.15-.27.72.72,0,0,1,.6-.28l.15,0v.35H54.7a.73.73,0,0,0-.45.14A.8.8,0,0,0,54,31v1.44Zm2.29,0a1.15,1.15,0,0,1-.81-.3l.17-.25a1,1,0,0,0,.63.24.74.74,0,0,0,.36-.09.31.31,0,0,0,.13-.25c0-.16-.1-.27-.29-.32l-.33-.07a.79.79,0,0,1-.43-.23.6.6,0,0,1,.07-.86A.92.92,0,0,1,56,30.2a1.22,1.22,0,0,1,.77.28l-.16.26a.94.94,0,0,0-.59-.22.54.54,0,0,0-.33.08.25.25,0,0,0-.12.22c0,.15.1.25.32.3l.32.08a.63.63,0,0,1,.57.65.56.56,0,0,1-.23.48,1,1,0,0,1-.63.17Zm1.85,0a.7.7,0,0,1-.48-.18.68.68,0,0,1,0-.95l0,0a1,1,0,0,1,.63-.19h.5v-.07c0-.37-.17-.56-.52-.56a.72.72,0,0,0-.29.06.58.58,0,0,0-.25.15l-.2-.25A1.09,1.09,0,0,1,58,30.2c.56,0,.85.3.85.89v.85c0,.16.06.23.18.23h.09v.31l-.18,0a.39.39,0,0,1-.43-.35v-.06a.89.89,0,0,1-.31.3.81.81,0,0,1-.41.11Zm.11-.33a.64.64,0,0,0,.59-.36v-.36H58a.67.67,0,0,0-.39.1.36.36,0,0,0-.14.29.32.32,0,0,0,.11.24.39.39,0,0,0,.29.09Zm1.66.28v-2.2h.35v.43a.87.87,0,0,1,.27-.33.77.77,0,0,1,1,.08.92.92,0,0,1,.19.64v1.38H61V31.12a.6.6,0,0,0-.13-.43.43.43,0,0,0-.34-.15.58.58,0,0,0-.36.12.92.92,0,0,0-.22.26v1.53Zm3.17,0a.8.8,0,0,1-.45-.14A1,1,0,0,1,62,32a1.45,1.45,0,0,1-.1-.55v-.17a1.54,1.54,0,0,1,.1-.56.91.91,0,0,1,.3-.37.76.76,0,0,1,.44-.13.8.8,0,0,1,.4.11.81.81,0,0,1,.3.31V29.37h.37v3.08h-.35V32a.83.83,0,0,1-.3.34.72.72,0,0,1-.42.13Zm-.46-1.08a.82.82,0,0,0,.15.55.5.5,0,0,0,.43.19.56.56,0,0,0,.33-.1.72.72,0,0,0,.25-.27v-.87a.75.75,0,0,0-.25-.28.64.64,0,0,0-.33-.1.54.54,0,0,0-.43.2.81.81,0,0,0-.15.54Zm-42.93,6v-2.2h.35v.43a1,1,0,0,1,.27-.34.78.78,0,0,1,.85,0,.63.63,0,0,1,.24.36,1.16,1.16,0,0,1,.28-.34.68.68,0,0,1,.46-.14.63.63,0,0,1,.51.22,1,1,0,0,1,.2.64v1.38h-.38V36.12a.69.69,0,0,0-.11-.43.45.45,0,0,0-.34-.15.55.55,0,0,0-.35.12.75.75,0,0,0-.21.26v1.53H20.7V36.12a.69.69,0,0,0-.11-.43.45.45,0,0,0-.34-.15.55.55,0,0,0-.35.12.75.75,0,0,0-.21.26v1.53Zm4-2.55a.22.22,0,0,1-.25-.23.21.21,0,0,1,.07-.17.27.27,0,0,1,.36,0,.24.24,0,0,1,.07.17.28.28,0,0,1-.07.17A.25.25,0,0,1,23.32,34.9Zm-.19,2.55v-2.2h.38v2.2Zm1.84,0a.61.61,0,0,1-.51-.19.88.88,0,0,1-.15-.59V35.57h-.38v-.32h.38v-.48l.37-.09v.57h.56v.32h-.56v1.14a.6.6,0,0,0,.09.37.39.39,0,0,0,.29.09h.09l.09,0v.32l-.12,0Zm1.69,0v-2.9h1a1.32,1.32,0,0,1,1,.35,1.39,1.39,0,0,1,.35,1v.23a1.36,1.36,0,0,1-.35,1,1.29,1.29,0,0,1-1,.35Zm1-2.55h-.6v2.2h.6a.9.9,0,0,0,.69-.25,1.07,1.07,0,0,0,.23-.75v-.19a1.07,1.07,0,0,0-.23-.75A1,1,0,0,0,27.65,34.9Zm2,2.55v-2.9H30v1.26h1.5V34.55h.4v2.9h-.4V36.16H30v1.29Zm3.07,0v-2.9h.39V37.1h1.39v.35Z" style="fill:#007c39"/><path d="M21.94,17.66A2.69,2.69,0,0,1,20,17a2.36,2.36,0,0,1-.71-1.79q0-.24,0-.54a4.31,4.31,0,0,1,.1-.61,4.64,4.64,0,0,1,1.17-2.52,3,3,0,0,1,2.23-.86,2.74,2.74,0,0,1,2.24,1l-.95.86a1.78,1.78,0,0,0-.57-.45,1.68,1.68,0,0,0-.7-.14,1.64,1.64,0,0,0-1.28.53,3.47,3.47,0,0,0-.67,1.69,4.63,4.63,0,0,0-.07.52,3.89,3.89,0,0,0,0,.44,1.27,1.27,0,0,0,.31.91,1.13,1.13,0,0,0,.87.32A1.45,1.45,0,0,0,23,16a1.86,1.86,0,0,0,.52-1.09v-.06H22.22l.21-1.21h2.79l-.16.94C24.7,16.64,23.66,17.66,21.94,17.66Zm6.71,0a2.85,2.85,0,0,1-2-.64A2.25,2.25,0,0,1,26,15.26a5.93,5.93,0,0,1,.12-1.19,4.59,4.59,0,0,1,1.14-2.51,3,3,0,0,1,2.22-.87,2.81,2.81,0,0,1,2,.65,2.24,2.24,0,0,1,.72,1.76A8,8,0,0,1,32,14.29a4.49,4.49,0,0,1-1.15,2.5A3,3,0,0,1,28.65,17.66Zm0-1.28a1.48,1.48,0,0,0,1.21-.54,3.4,3.4,0,0,0,.64-1.67,5,5,0,0,0,.08-.54,2.59,2.59,0,0,0,0-.46,1.16,1.16,0,0,0-.31-.89,1.27,1.27,0,0,0-.91-.31,1.5,1.5,0,0,0-1.21.54,3.6,3.6,0,0,0-.64,1.68,5,5,0,0,0-.07.54,4.37,4.37,0,0,0,0,.46,1.17,1.17,0,0,0,.32.89,1.28,1.28,0,0,0,.9.3Z" style="fill:#4b4b4b"/><path d="M35.54,17.66A2.7,2.7,0,0,1,33.61,17a2.31,2.31,0,0,1-.7-1.79q0-.24,0-.54c0-.2.05-.41.09-.61a4.58,4.58,0,0,1,1.18-2.52,3,3,0,0,1,2.23-.86,2.71,2.71,0,0,1,2.23,1l-1,.86a1.64,1.64,0,0,0-.56-.45,1.68,1.68,0,0,0-.7-.14,1.62,1.62,0,0,0-1.28.53,3.38,3.38,0,0,0-.67,1.69,4.67,4.67,0,0,0-.08.52,3.89,3.89,0,0,0,0,.44,1.27,1.27,0,0,0,.31.91,1.15,1.15,0,0,0,.88.32,1.45,1.45,0,0,0,1-.38,1.79,1.79,0,0,0,.51-1.09v-.06H35.81L36,13.64h2.79l-.16.94C38.29,16.64,37.26,17.66,35.54,17.66Zm3.83-.15,1.17-6.67h2.34a2.79,2.79,0,0,1,1.75.49,1.56,1.56,0,0,1,.64,1.29c0,.08,0,.18,0,.29s0,.22,0,.34a2.43,2.43,0,0,1-.47,1.11,2,2,0,0,1-1,.62l1,2.53H43.14l-.84-2.36h-1l-.42,2.36ZM42.69,12H41.8l-.33,1.9h.91a1.75,1.75,0,0,0,1-.2.89.89,0,0,0,.4-.68.27.27,0,0,0,0-.13v-.06C43.78,12.32,43.42,12,42.69,12Zm3.15,5.47L47,10.84h4.4l-.23,1.27h-2.9L48,13.52h2.61l-.21,1.23H47.82l-.26,1.49h3l-.23,1.27Zm5.78,0,1.17-6.67h4.4L57,12.11H54.06l-.25,1.41h2.61l-.21,1.23H53.6l-.26,1.49h3l-.22,1.27Zm5.73,0,1.17-6.67h1.9l1.35,4.72h.16l.83-4.72h1.4L63,17.51h-1.9l-1.35-4.72h-.16l-.83,4.72Z" style="fill:#007c39"/></g></svg>