<svg xmlns="http://www.w3.org/2000/svg" viewBox="0 0 85 43"><g id="background"><g id="Ebene_2" data-name="Ebene 2"><rect width="85" height="43" style="fill:#fff"/></g></g><g id="icon"><g id="g8"><polyline id="polyline10" points="14.2 21.61 18.1 17.95 14.25 17.95 10.33 21.61 14.2 21.61" style="fill:#134c95"/></g><g id="g12"><polyline id="polyline14" points="15.23 25.05 18.08 22.37 9.53 22.37 6.66 25.05 15.23 25.05" style="fill:#134c95"/></g><g id="g16"><g id="g18"><path id="path20" d="M5.5,14.6H19.29V28.39H5.5Zm.79,13H18.5V15.39H6.29Z" style="fill:#134c95"/></g></g><g id="g22"><polyline id="polyline24" points="31.2 14.61 32.94 14.61 32.94 17.21 38.36 17.21 38.36 14.61 40.1 14.61 40.1 21.47 38.36 21.47 38.36 18.87 32.94 18.87 32.94 21.47 31.2 21.47 31.2 14.61" style="fill:#134c95"/></g><g id="g26"><polyline id="polyline28" points="50.1 14.61 41.04 14.61 41.04 21.47 50.1 21.47 50.1 19.82 42.78 19.82 42.78 18.87 49.69 18.87 49.69 17.21 42.78 17.21 42.78 16.26 50.1 16.26 50.1 14.61" style="fill:#134c95"/></g><g id="g30"><polyline id="polyline32" points="57.81 21.47 52.58 16.72 52.58 21.47 50.84 21.47 50.84 14.61 52.89 14.61 58.09 19.34 58.09 14.61 59.83 14.61 59.83 21.47 57.81 21.47" style="fill:#134c95"/></g><g id="g34"><path id="path36" d="M69.67,14.61v5.1a1.78,1.78,0,0,1-1.79,1.76H62.39a1.78,1.78,0,0,1-1.8-1.76v-5.1h1.74v4.64a.57.57,0,0,0,.58.57h4.44a.57.57,0,0,0,.58-.57V14.61h1.74" style="fill:#134c95"/></g><g id="g38"><path id="path40" d="M77.33,21.47a2.13,2.13,0,1,0,0-4.26H72.58a.48.48,0,0,1-.5-.48.48.48,0,0,1,.5-.47h6.68V14.61H72.54a2.13,2.13,0,1,0,0,4.26h4.75a.49.49,0,0,1,.5.49.47.47,0,0,1-.5.46H70.51v1.65h6.82" style="fill:#134c95"/></g><path d="M28.35,18.87a2.13,2.13,0,1,0,0-4.26H21.53v6.86h1.74v-2.6h2.09L28,21.47h2.44l-2.63-2.6Zm-5.08-1.66h0v-.95h5a.48.48,0,0,1,.48.48.47.47,0,0,1-.48.47Z" style="fill:#134c95"/><g id="g48"><path id="path50" d="M66.07,28.37a.81.81,0,0,1-.8-.82v-3a.81.81,0,0,1,.8-.82h5.2v.87H66.63a.43.43,0,0,0-.42.43V27.1a.42.42,0,0,0,.42.42h4.64v.85h-5.2" style="fill:#134c95"/></g><g id="g52"><path id="path54" d="M73.14,28.39v-.87h4.72a.51.51,0,0,0,.52-.5.51.51,0,0,0-.52-.51H74.44a1.38,1.38,0,1,1,0-2.76h4.68v.88H74.47a.5.5,0,0,0-.52.49.51.51,0,0,0,.52.51h3.42a1.38,1.38,0,1,1,0,2.76H73.14" style="fill:#134c95"/></g><g id="g56"><polyline id="polyline58" points="60.51 24.62 58.26 24.62 58.26 28.39 57.32 28.39 57.32 24.62 55.07 24.61 55.07 23.74 60.51 23.74 60.51 24.62" style="fill:#134c95"/></g><g id="g60"><rect id="rect62" x="62.27" y="23.74" width="0.94" height="4.65" style="fill:#134c95"/></g><g id="g64"><path id="path66" d="M47.55,28.39v-.87h4.72a.51.51,0,0,0,.52-.5.52.52,0,0,0-.52-.51H48.85a1.38,1.38,0,1,1,0-2.76h4.68v.88H48.88a.5.5,0,0,0-.52.49.51.51,0,0,0,.52.51H52.3a1.38,1.38,0,1,1,0,2.76H47.55" style="fill:#134c95"/></g><g id="g68"><rect id="rect70" x="44.64" y="23.74" width="0.94" height="4.65" style="fill:#134c95"/></g><g id="g72"><polyline id="polyline74" points="21.49 23.75 22.43 23.75 22.43 27.51 27.42 27.52 27.42 28.4 21.5 28.4 21.49 23.75" style="fill:#134c95"/></g><g id="g76"><g id="g78"><path id="path80" d="M30.48,28.37H29.39a.81.81,0,0,1-.8-.82v-3a.81.81,0,0,1,.8-.82h4.4a.81.81,0,0,1,.8.82v3a.81.81,0,0,1-.8.82H30.48m0-3.76H30a.42.42,0,0,0-.42.43V27.1a.42.42,0,0,0,.42.42h3.28a.42.42,0,0,0,.42-.42V25a.43.43,0,0,0-.42-.43Z" style="fill:#134c95"/></g></g><g id="g82"><path id="path84" d="M38.46,27.52H41a.42.42,0,0,0,.42-.42v-.23a.42.42,0,0,0-.42-.43h-2.3v-.87h2.85a.81.81,0,0,1,.8.82v1.16a.81.81,0,0,1-.8.82H37.15a.81.81,0,0,1-.8-.82v-3a.81.81,0,0,1,.8-.82h5.22v.86H37.72a.43.43,0,0,0-.43.43V27.1a.42.42,0,0,0,.43.42h.74" style="fill:#134c95"/></g></g></svg>