<svg xmlns="http://www.w3.org/2000/svg" viewBox="0 0 85 43"><g id="background"><rect width="85" height="43" style="fill:#ffcc07"/></g><g id="icon"><path d="M36.62,30.37h4.54L36.57,35H32ZM25.91,35h4.54L35,30.37H30.49Zm20.84-4.63H42.21L46.8,35h4.54Zm6.13,0H48.34L52.92,35h4.54ZM59.6,11.83c-.65,9.44-7.74,17.71-18.26,17.7-11.9,0-16.5-10.33-15.88-18.15L29,10.27a13.85,13.85,0,0,0,1.77,9.13A9.58,9.58,0,0,1,40.31,8a9.44,9.44,0,0,1,9.78,9.52,29.61,29.61,0,0,0,1.45-7.69ZM46.78,17.71a6.45,6.45,0,1,0-6.46,6.44h0a6.45,6.45,0,0,0,6.45-6.43Z"/></g></svg>