<svg xmlns="http://www.w3.org/2000/svg" viewBox="0 0 85 43"><g id="background"><g id="Ebene_2" data-name="Ebene 2"><rect width="85" height="43" style="fill:#f4f2f2"/></g></g><g id="icon"><g id="g6"><polygon id="polygon10" points="62.65 14.37 65.28 17.27 67.81 14.37 73.23 14.37 67.94 20.32 73.3 26.32 67.67 26.32 65.06 23.39 62.48 26.32 57.04 26.32 62.35 20.35 57.04 14.37 62.65 14.37" style="fill:#ff5900"/><polygon id="polygon12" points="57.04 14.37 57.04 18.41 51.02 18.41 51.02 22.11 57.04 22.11 57.04 26.32 46.59 26.32 46.59 7.5 57.04 7.5 57.04 11.7 51.02 11.7 51.02 14.37 57.04 14.37" style="fill:#ff5900"/><path id="path14" d="M42.18,7.5v7.7h0a4.48,4.48,0,0,0-3.61-1.51,6.1,6.1,0,0,0-5.85,4.57,6.3,6.3,0,0,0-6.47-4.62,6.56,6.56,0,0,0-6,3.2V14.37H14.63V11.7h6.12V7.5H9.63V26.32h5V18.41h5a7.9,7.9,0,0,0-.22,1.86A6.57,6.57,0,0,0,26.21,27a6.43,6.43,0,0,0,6.46-4.26H28.39a2.16,2.16,0,0,1-2.18,1.07,2.57,2.57,0,0,1-2.5-2.56h8.72A6.35,6.35,0,0,0,38.58,27a4.25,4.25,0,0,0,3.55-1.91h0v1.22h4.41V7.5Zm-18.33,11a2.42,2.42,0,0,1,2.36-2,2.3,2.3,0,0,1,2.39,2Zm15.66,5a2.86,2.86,0,0,1-2.64-3.1c0-1.69.88-3.31,2.64-3.31s2.55,1.62,2.55,3.31S41.29,23.46,39.51,23.46Z" style="fill:#2a007c"/><path id="path16" d="M46.59,35.73V29h3.73v.5H47.21V32h3v.5h-3v2.75h3.25v.5Z" style="fill:#2a007c"/><path id="path18" d="M50.9,35.73l1.82-2.42L51,31h.69l1.41,1.87L54.48,31h.7l-1.75,2.29,1.82,2.42h-.7l-1.51-2-1.44,2Z" style="fill:#2a007c"/><path id="path20" d="M56.43,37.5h-.56V32.42c0-.46,0-.94,0-1.4h.56l0,.71a1.63,1.63,0,0,1,1.51-.82c1.46,0,2.08,1.2,2.08,2.46s-.62,2.47-2.08,2.47a1.66,1.66,0,0,1-1.5-.79Zm3-4.13c0-1-.42-2-1.54-2s-1.44.87-1.44,2,.39,2,1.44,2S59.41,34.38,59.41,33.37Z" style="fill:#2a007c"/><path id="path22" d="M62.93,31.45c-.94,0-1.27.8-1.27,1.62v2.66H61.1V32.4c0-.45,0-.92,0-1.38h.56l0,.68A1.41,1.41,0,0,1,63,30.91l.26,0v.56A2.33,2.33,0,0,0,62.93,31.45Z" style="fill:#2a007c"/><path id="path24" d="M64,33.48c0,1.06.5,1.93,1.54,1.93a1.29,1.29,0,0,0,1.31-1.06h.54a1.78,1.78,0,0,1-1.93,1.49c-1.43,0-2.07-1.06-2.07-2.38s.67-2.55,2.15-2.55,1.9,1.31,1.9,2.57Zm0-.43h2.81c0-.92-.43-1.72-1.33-1.72S64.12,32,64,33.05Z" style="fill:#2a007c"/><path id="path26" d="M69.65,35.84c-1,0-1.7-.45-1.7-1.49h.57a1,1,0,0,0,1.16,1.06c.64,0,1.14-.3,1.14-.94s-.59-.71-1.2-.89-1.56-.45-1.56-1.36.85-1.31,1.64-1.31,1.6.35,1.62,1.33h-.56a.92.92,0,0,0-1-.88c-.47,0-1,.19-1,.8s.58.72,1.19.89,1.57.43,1.57,1.34S70.61,35.84,69.65,35.84Z" style="fill:#2a007c"/><path id="path28" d="M73.59,35.84c-1,0-1.7-.45-1.7-1.49h.57a1,1,0,0,0,1.16,1.06c.64,0,1.14-.3,1.14-.94s-.59-.71-1.2-.89S72,33.13,72,32.22s.85-1.31,1.64-1.31,1.6.35,1.62,1.33H74.7a.92.92,0,0,0-1-.88c-.47,0-1,.19-1,.8s.58.72,1.19.89,1.57.43,1.57,1.34-.82,1.45-1.78,1.45Z" style="fill:#2a007c"/></g></g></svg>