<svg xmlns="http://www.w3.org/2000/svg" viewBox="0 0 85 43"><g id="background"><g id="Ebene_2" data-name="Ebene 2"><rect width="85" height="43" style="fill:#fff"/></g></g><g id="icon"><path id="path2441" d="M6.56,14.53a.76.76,0,0,0-.62.23.75.75,0,0,0-.09.56c.14.42,2,3.62,2.59,4.59l.48.84A9.12,9.12,0,0,1,12,14.52m-1.14,7a7.29,7.29,0,0,0,7.28,7.29c3.39,0,6.52-1.67,10.13-5.41,1.63-1.67,6-6.68,6.84-7.66.4-.44.33-.74.28-.85A.49.49,0,0,0,35,14.6H27.27l-.33.45c-1.25,1.76-4.59,6.44-4.92,6.88l-.35.48c-.84,1.19-1.71,2.4-3.52,2.4a3.36,3.36,0,0,1-3.32-3.26,3.35,3.35,0,0,1,3.32-3.37,3.36,3.36,0,0,1,2.67,1.33l.23.31,2.32-3.39-.19-.16a8.74,8.74,0,0,0-5-2.06,7.29,7.29,0,0,0-7.28,7.29" style="fill:#fd0"/><path id="path2445" d="M8.69,19.67,6.22,15.32a.35.35,0,0,1,0-.32s0-.14.31-.14h4.64a9.65,9.65,0,0,0-2.46,4.81M13,14.18H6.61a1.17,1.17,0,0,0-1,.46,1.15,1.15,0,0,0,.09,1.2L9.2,22A9,9,0,0,1,13,14.18m21.91,1.36c-.68.78-5.16,5.93-6.82,7.65-3.56,3.68-6.63,5.32-9.94,5.32a7,7,0,0,1,0-14,8.47,8.47,0,0,1,4.87,2l-2,2.81A3.56,3.56,0,0,0,15.61,19a3.52,3.52,0,0,0-1,2.58,3.64,3.64,0,0,0,3.59,3.53c2,0,2.9-1.33,3.74-2.51l.35-.48c.36-.48,4.22-5.89,5.17-7.22H35a.2.2,0,0,1,.21.18c0,.11,0,.18-.25.47Zm-7.86-1.35c-.05.07-5,7-5.36,7.5l-.35.49c-.82,1.14-1.6,2.22-3.19,2.22a3,3,0,0,1-2.91-2.86,2.94,2.94,0,0,1,2.91-2.95,3,3,0,0,1,2.67,1.7v0l.12.24,3-4.17a9.46,9.46,0,0,0-5.79-2.59,7.7,7.7,0,0,0,0,15.4c4.55,0,8.13-3.16,10.43-5.53,1.8-1.87,6.89-7.73,6.94-7.79h0a1.12,1.12,0,0,0,.26-1.17A.88.88,0,0,0,35,14.2H27.06" style="fill:#231f20"/><path id="path2457" d="M46.79,20.78a2.57,2.57,0,0,1-1.73.32H43.75V18.93H46a1.08,1.08,0,0,1,1,.65,1.21,1.21,0,0,1-.21,1.19m3.55-2.42c-.58-1.26-1.93-1.53-3.19-1.61H40.23V27.17h3.5V23.39l3.37,0a3.67,3.67,0,0,0,2.71-1.12,4,4,0,0,0,.52-3.89" style="fill:#231f20"/><path id="path2461" d="M57.84,24.82a1.8,1.8,0,0,1-1.89.89,1.67,1.67,0,0,1-1.39-1.12A2.89,2.89,0,0,1,55,21.78a2,2,0,0,1,1.89-.36,1.74,1.74,0,0,1,.86.64,3,3,0,0,1,.1,2.76m3.5-2.62c-.53-1.57-2.18-2.23-3.66-2.41-1.93-.18-4-.12-5.49,1a3.73,3.73,0,0,0-1,4c.65,1.92,2.7,2.43,4.51,2.51s3.63-.09,5-1.3a3.83,3.83,0,0,0,.72-3.83" style="fill:#231f20"/><path id="path2465" d="M63.48,20.53A1.76,1.76,0,0,0,62.76,22a2.2,2.2,0,0,0,.06.5c.25,1.07,1.4,1.34,2.31,1.55l.12,0,.86.15a9.64,9.64,0,0,1,1.69.39.53.53,0,0,1,.31.44.08.08,0,0,1,0,0v0a.59.59,0,0,1-.37.5,2.58,2.58,0,0,1-1.87-.07,1,1,0,0,1-.39-.87H62.63a.53.53,0,0,0,0,.13,2.13,2.13,0,0,0,1.14,1.95,8.56,8.56,0,0,0,4.38.51,3.89,3.89,0,0,0,3-1.38,1.91,1.91,0,0,0,0-1.92,3.76,3.76,0,0,0-2.38-1.13l-.59-.13-1.47-.34-.08,0a1.35,1.35,0,0,1-.55-.27.38.38,0,0,1-.11-.25.49.49,0,0,1,.09-.35.61.61,0,0,1,.24-.18l.18-.05a2.21,2.21,0,0,1,.85,0,1.81,1.81,0,0,1,.45.14.77.77,0,0,1,.33.68l3,0a1.93,1.93,0,0,0-.54-1.37,3.91,3.91,0,0,0-2.62-.91,7.36,7.36,0,0,0-4.38.81" style="fill:#231f20"/><path id="path2469" d="M77.41,19.7l1.88,0,0,1.75-1.89,0v3a.86.86,0,0,0,.45.68,3.89,3.89,0,0,0,1.63.09v1.75A7.42,7.42,0,0,1,75.05,27a2.11,2.11,0,0,1-1-2V21.51l-1.87,0V19.75l1.87,0,0-1.32,3.29-1.06" style="fill:#231f20"/></g></svg>