<svg xmlns="http://www.w3.org/2000/svg" viewBox="0 0 85 43"><g id="twt-background"><g id="Ebene_2" data-name="Ebene 2"><rect width="85" height="43" style="fill:#fff"/></g></g><g id="twt-primary"><path d="M10.23,24.61a1.74,1.74,0,0,1-.78-.76,2.47,2.47,0,0,1-.26-1.2v-.48h1.38v.46a.82.82,0,0,0,.9.89.84.84,0,0,0,.64-.23.89.89,0,0,0,.22-.66v-.8a.85.85,0,0,0-.15-.51,1.2,1.2,0,0,0-.39-.35,7.26,7.26,0,0,0-.65-.34l0,0h0l-.08,0a6.07,6.07,0,0,1-.91-.54,1.91,1.91,0,0,1-.62-.72,2.29,2.29,0,0,1-.25-1.14v-.5a2.47,2.47,0,0,1,.26-1.2,1.74,1.74,0,0,1,.77-.75,2.87,2.87,0,0,1,1.23-.25,2.59,2.59,0,0,1,1.2.26,1.7,1.7,0,0,1,.75.75,2.67,2.67,0,0,1,.26,1.21v.5H12.28V17.7a1,1,0,0,0-.21-.67.82.82,0,0,0-.61-.23.91.91,0,0,0-.65.22.82.82,0,0,0-.22.61v.59a.92.92,0,0,0,.15.53,1.24,1.24,0,0,0,.37.35c.16.09.37.2.63.32l.11.06.11.06h0l0,0a6.43,6.43,0,0,1,.87.49,2,2,0,0,1,.57.67,2.33,2.33,0,0,1,.23,1.1v.8a2.61,2.61,0,0,1-.26,1.21,1.72,1.72,0,0,1-.77.76,2.56,2.56,0,0,1-1.22.26A2.8,2.8,0,0,1,10.23,24.61Z"/><path d="M15.83,24.62a1.68,1.68,0,0,1-.71-.71,2.54,2.54,0,0,1-.24-1.15V20.3a2.81,2.81,0,0,1,.24-1.21,1.73,1.73,0,0,1,.68-.76,2.16,2.16,0,0,1,1.08-.26,2.2,2.2,0,0,1,1.09.25,1.66,1.66,0,0,1,.69.72,2.54,2.54,0,0,1,.24,1.15V22h-3V20.92h1.62v-.75a1,1,0,0,0-.18-.63.61.61,0,0,0-.5-.22.58.58,0,0,0-.49.23,1.2,1.2,0,0,0-.17.68v2.58a.84.84,0,0,0,.18.58.68.68,0,0,0,.53.21.65.65,0,0,0,.48-.16.57.57,0,0,0,.17-.45v-.14h1.34V23a1.88,1.88,0,0,1-.52,1.41,2.06,2.06,0,0,1-1.47.49A2.21,2.21,0,0,1,15.83,24.62Z"/><path d="M21.56,22.9a.57.57,0,0,0,.12.39.43.43,0,0,0,.34.14h.27v1.35h-.54a1.53,1.53,0,0,1-1.17-.46A1.9,1.9,0,0,1,20.17,23V15.55h1.39Z"/><path d="M23.24,15.55h1.39v9.23H23.24Zm1.8,9a1.72,1.72,0,0,1-.5-.83l.09-1a1.26,1.26,0,0,0,.08.46.64.64,0,0,0,.21.29.65.65,0,0,0,.35.1.54.54,0,0,0,.46-.23,1,1,0,0,0,.17-.64V20.17a1,1,0,0,0-.17-.62.55.55,0,0,0-.46-.21.65.65,0,0,0-.35.09.58.58,0,0,0-.21.27,1.21,1.21,0,0,0-.08.45l-.13-.87a2.14,2.14,0,0,1,.57-.89,1.2,1.2,0,0,1,.8-.32,1.27,1.27,0,0,1,.76.23,1.42,1.42,0,0,1,.48.67A3,3,0,0,1,27.28,20v2.85A3.14,3.14,0,0,1,27.11,24a1.48,1.48,0,0,1-.5.68,1.35,1.35,0,0,1-.78.23A1.15,1.15,0,0,1,25,24.57Z"/><path d="M29.17,24.62a1.71,1.71,0,0,1-.71-.7,2.05,2.05,0,0,1-.25-1V22.8h1.32v.07a.82.82,0,0,0,.19.56.75.75,0,0,0,1,0,.73.73,0,0,0,.19-.51.62.62,0,0,0-.12-.4,1,1,0,0,0-.31-.25A4,4,0,0,0,30,22l-.08,0a.19.19,0,0,1-.08,0h-.07a4.63,4.63,0,0,1-.74-.39A1.76,1.76,0,0,1,28.5,21a2,2,0,0,1-.21-1,2.19,2.19,0,0,1,.23-1,1.65,1.65,0,0,1,.67-.69,2,2,0,0,1,1-.24,2.15,2.15,0,0,1,1,.23,1.65,1.65,0,0,1,.66.65,2,2,0,0,1,.24,1V20l-1.33,0V20a.67.67,0,0,0-.15-.46.51.51,0,0,0-.42-.17.5.5,0,0,0-.41.18.73.73,0,0,0-.16.51.64.64,0,0,0,.13.42.86.86,0,0,0,.31.26,3.47,3.47,0,0,0,.52.21h.1a3.89,3.89,0,0,1,.81.36,1.41,1.41,0,0,1,.55.58A2.37,2.37,0,0,1,32,24a1.66,1.66,0,0,1-.71.68,2.28,2.28,0,0,1-1.07.24A2.17,2.17,0,0,1,29.17,24.62Z"/><path d="M32.77,18.19h2.92v1.29H32.77Zm1,6.18a1.87,1.87,0,0,1-.4-1.31V16.27h1.39v6.66a.57.57,0,0,0,.11.39.37.37,0,0,0,.32.14h.47v1.35H35A1.58,1.58,0,0,1,33.8,24.37Z"/><path d="M37.07,24.4a2.09,2.09,0,0,1-.4-1.4,2.22,2.22,0,0,1,.53-1.63,2.09,2.09,0,0,1,1.57-.56h.68L39.54,22h-.72a.72.72,0,0,0-.62.26A1.19,1.19,0,0,0,38,23a.69.69,0,0,0,.16.51.6.6,0,0,0,.46.17.78.78,0,0,0,.6-.22.9.9,0,0,0,.2-.63l.12.57a2.12,2.12,0,0,1-.16.81,1.06,1.06,0,0,1-.43.5,1.41,1.41,0,0,1-.71.16A1.44,1.44,0,0,1,37.07,24.4ZM39.41,20a.69.69,0,0,0-.18-.51.68.68,0,0,0-.5-.18.52.52,0,0,0-.43.18.78.78,0,0,0-.16.51H36.8a1.9,1.9,0,0,1,.52-1.42,1.94,1.94,0,0,1,1.43-.51,2.39,2.39,0,0,1,1.08.23,1.6,1.6,0,0,1,.68.66,2.25,2.25,0,0,1,.23,1v4.78H39.41Z"/><path d="M42.13,15.55h1.39v9.23H42.13Zm1.8,9a1.72,1.72,0,0,1-.5-.83l.09-1a1.26,1.26,0,0,0,.08.46.64.64,0,0,0,.21.29.65.65,0,0,0,.35.1.57.57,0,0,0,.47-.23,1.06,1.06,0,0,0,.16-.64V20.17a1,1,0,0,0-.16-.62.58.58,0,0,0-.47-.21.65.65,0,0,0-.35.09.58.58,0,0,0-.21.27,1.21,1.21,0,0,0-.08.45l-.13-.87a2.14,2.14,0,0,1,.57-.89,1.2,1.2,0,0,1,.8-.32,1.27,1.27,0,0,1,.76.23A1.5,1.5,0,0,1,46,19,3,3,0,0,1,46.17,20v2.85A3.14,3.14,0,0,1,46,24a1.48,1.48,0,0,1-.5.68,1.35,1.35,0,0,1-.78.23A1.15,1.15,0,0,1,43.93,24.57Z"/><path d="M47.42,15.55h1.4v9.23h-1.4Zm2.71,4.63a1,1,0,0,0-.16-.61.59.59,0,0,0-.5-.21.58.58,0,0,0-.49.21,1,1,0,0,0-.16.62l-.13-.87a2,2,0,0,1,.59-.93,1.34,1.34,0,0,1,.87-.32,1.23,1.23,0,0,1,1,.45,2,2,0,0,1,.35,1.28v5H50.13Z"/><path d="M53.67,24.65A1.49,1.49,0,0,1,53,24a2,2,0,0,1-.23-1V19.89a1.9,1.9,0,0,1,.23-1,1.42,1.42,0,0,1,.66-.62,2.59,2.59,0,0,1,2.09,0,1.42,1.42,0,0,1,.66.62,2,2,0,0,1,.23,1V23a2.07,2.07,0,0,1-.23,1,1.47,1.47,0,0,1-.66.62,2.59,2.59,0,0,1-2.09,0Zm1.45-1.24a.65.65,0,0,0,.14-.47V20a.64.64,0,0,0-.14-.45.5.5,0,0,0-.41-.16.51.51,0,0,0-.4.16.64.64,0,0,0-.15.45v3a.73.73,0,0,0,.14.47.53.53,0,0,0,.41.17A.51.51,0,0,0,55.12,23.41Z"/><path d="M59.3,22.9a.57.57,0,0,0,.11.39.43.43,0,0,0,.34.14H60v1.35h-.55a1.49,1.49,0,0,1-1.16-.46A1.86,1.86,0,0,1,57.9,23V15.55h1.4Z"/><path d="M62.29,23a.64.64,0,0,0,.15.46.62.62,0,0,0,.46.15.55.55,0,0,0,.44-.16.66.66,0,0,0,.15-.48l.09.73a1.85,1.85,0,0,1-.47.86,1.11,1.11,0,0,1-.77.28,1.29,1.29,0,0,1-1.08-.46,2.13,2.13,0,0,1-.36-1.35V18.19h1.39Zm1.2-4.84h1.39v6.59H63.49Z"/><path d="M66.26,18.19h1.41v6.59H66.26Zm2.71,2a1,1,0,0,0-.16-.62.59.59,0,0,0-.5-.21.58.58,0,0,0-.49.21,1.08,1.08,0,0,0-.15.63l-.14-.86a2,2,0,0,1,.59-.93,1.36,1.36,0,0,1,.87-.32,1.2,1.2,0,0,1,1,.45,2,2,0,0,1,.36,1.28v5H69Z"/><path d="M72.25,24.67a1.33,1.33,0,0,1-.47-.65,2.8,2.8,0,0,1-.16-1V20a2.9,2.9,0,0,1,.16-1,1.33,1.33,0,0,1,.47-.65,1.27,1.27,0,0,1,1.56.08,2.16,2.16,0,0,1,.59.87l-.13.87a1.1,1.1,0,0,0-.08-.43.58.58,0,0,0-.21-.27.65.65,0,0,0-.35-.09.57.57,0,0,0-.47.21.85.85,0,0,0-.17.58v2.76a.77.77,0,0,0,.17.55.59.59,0,0,0,.47.2.65.65,0,0,0,.35-.09.58.58,0,0,0,.21-.27,1,1,0,0,0,.08-.41l.09.88a1.82,1.82,0,0,1-.53.85,1.34,1.34,0,0,1-1.58.08ZM72.17,27a1.8,1.8,0,0,1-.52-1.38v-.25H73v.23a.59.59,0,0,0,.17.47.61.61,0,0,0,.46.16.61.61,0,0,0,.45-.16.63.63,0,0,0,.16-.45V18.19h1.39v7.39a2,2,0,0,1-.24,1,1.57,1.57,0,0,1-.7.65,2.68,2.68,0,0,1-1.11.21A2,2,0,0,1,72.17,27Z"/></g></svg>