<svg xmlns="http://www.w3.org/2000/svg" viewBox="0 0 85 43"><g id="background"><g id="Ebene_2" data-name="Ebene 2"><rect width="85" height="43" style="fill:#ffcc07"/></g></g><g id="icon"><path d="M85,33.73H0V27H85Z" style="fill:#fdfcfc"/><path d="M66.7,27l-.82,2.86-1.1,3.86h-2L62.18,29h0l-1.36,4.78H59.3l.91-3.17,1-3.56h2v.16c.22,1.42.44,2.83.64,4.25a1.34,1.34,0,0,0,.07.18c.26-.88.5-1.72.74-2.57.19-.66.38-1.33.57-2ZM56.11,27c.31,0,.62-.1.93-.13a3.6,3.6,0,0,1,1.18.13l.19.1a1.68,1.68,0,0,1,.88,1,2.73,2.73,0,0,1,.13,1,5.69,5.69,0,0,1-.55,2.15,4.3,4.3,0,0,1-2.54,2.42l0,0c-.33,0-.63.1-1,.13a3.51,3.51,0,0,1-1.16-.13L54,33.64a1.67,1.67,0,0,1-.95-1.15,3.62,3.62,0,0,1-.08-.87,5.6,5.6,0,0,1,.9-2.83A4,4,0,0,1,56.06,27l0,0ZM54.7,31.55a1.55,1.55,0,0,0,0,.4.78.78,0,0,0,.81.77.64.64,0,0,0,.2,0,1.41,1.41,0,0,0,.83-.48,4.72,4.72,0,0,0,.48-.69,6.14,6.14,0,0,0,.62-1.9,2.48,2.48,0,0,0,0-.94.78.78,0,0,0-.88-.66,1.13,1.13,0,0,0-.18,0,1.63,1.63,0,0,0-1,.76,5.92,5.92,0,0,0-.92,2.74Z" style="fill:#030303"/><path d="M24.09,33.72H22.43c.18-.66.37-1.33.56-2L24.34,27H26a.8.8,0,0,1-.05.21l-.63,2.19a2,2,0,0,0,0,.24l0,0v-.05a1.13,1.13,0,0,0,.2-.13q.62-.66,1.23-1.35c.33-.38.68-.76,1-1.14h1.86a.61.61,0,0,1-.07.1L26.8,29.89l-.26.28,1.3,3.56h-2L25,30.9c0-.06,0-.11-.09-.22Z" style="fill:#d80613"/><path d="M44.27,33.72h-1.7V32.24H40.36l-.88,1.48H37.87l.14-.24,3.92-6.18c.06-.1.11-.2.16-.3H44c0,.72.06,1.44.1,2.16.07,1.52.15,3,.22,4.56Zm-1.62-5.34a21.17,21.17,0,0,0-1.58,2.68,7.52,7.52,0,0,0,1.5,0Z" style="fill:#030303"/><path d="M11.41,33.73H9.81l.15-.27L13.42,28c.21-.33.41-.67.61-1h1.85c.08,1.63.15,3.25.23,4.88l.09,1.85H14.5V32.3s0,0,0-.07H12.29Zm3.18-5.35c-.58.88-1.11,1.77-1.64,2.69h1.56ZM7.3,27h2.9l.42.13a1.21,1.21,0,0,1,.86,1.24,2.53,2.53,0,0,1-.12.77,2.75,2.75,0,0,1-2,2,4,4,0,0,1-.84.09H7.76L7.07,33.7H5.44l0-.13.06-.14c.39-1.39.79-2.78,1.19-4.16C6.89,28.53,7.1,27.77,7.3,27ZM8,30.08h.6a1,1,0,0,0,.67-.28,1.5,1.5,0,0,0,.48-1.05.49.49,0,0,0-.42-.54,2.55,2.55,0,0,0-.78,0Z" style="fill:#d80613"/><path d="M34.06,27l.26.09a4.44,4.44,0,0,1-.39,1.25l-.29-.12a2.27,2.27,0,0,0-1.41-.15,1,1,0,0,0-.69.58.55.55,0,0,0,.21.74,5.86,5.86,0,0,0,.55.3c.23.12.45.24.66.37a1.27,1.27,0,0,1,.55,1.29,2.72,2.72,0,0,1-1.78,2.25l-.28.13a4.67,4.67,0,0,1-1.17.13l-1.08-.11-.22,0-.43-.17.47-1.3.53.23a2.1,2.1,0,0,0,1.1.17,1.14,1.14,0,0,0,1-.76.55.55,0,0,0-.2-.69,1.69,1.69,0,0,0-.41-.24c-.22-.12-.45-.22-.66-.34a1.3,1.3,0,0,1-.66-1.51,2.64,2.64,0,0,1,1.61-2l.28-.13.36-.07a4.79,4.79,0,0,1,1.81,0A1.45,1.45,0,0,0,34.06,27Z" style="fill:#030303"/><path d="M22.88,27l.45.2-.45,1.31-.17-.08a2.24,2.24,0,0,0-2.66.33,3.51,3.51,0,0,0-1,1.82,2.19,2.19,0,0,0,0,1.08,1.17,1.17,0,0,0,1.09.89,3,3,0,0,0,1.35-.2l.33-.13a11.37,11.37,0,0,1-.33,1.4l-.31.12-.52.06a5,5,0,0,1-2-.06l-.08-.05a2.08,2.08,0,0,1-1.33-2,4.91,4.91,0,0,1,3.19-4.58l.11-.06A4.41,4.41,0,0,1,22,26.89C22.27,26.9,22.58,27,22.88,27Z" style="fill:#d80613"/><path d="M35,33.72c.2-.72.4-1.45.61-2.17.29-1,.59-2.06.89-3.1,0-.07,0-.14,0-.24H35.06L35.39,27h4.73l-.33,1.2H38.26l-1.58,5.52Zm12.11,0H45.47v-.09l1.15-4L47,28.2H45.5l.34-1.2h4.72c-.1.4-.21.8-.35,1.21H48.69c-.23.82-.46,1.61-.69,2.4Zm2.34,0,.6-2.14c.43-1.5.86-3,1.3-4.49V27H53a2.17,2.17,0,0,1-.07.24l-1.83,6.48Z" style="fill:#030303"/><path d="M40.78,9.14s6.53,0,6.78,0c-.26.42-.57.79-.85,1.17l-.83,1.14c-.28.38-.59.76-.86,1.19h3l2.61-3.53h6.75a.08.08,0,0,1,0,0v0l-.06.11-4.42,6H36.28ZM34,15.33H28.42a.48.48,0,0,1-.41-.19c-.06-.16,0-.28.12-.4l1-1.42.28-.42a.4.4,0,0,0,.1-.36.4.4,0,0,0-.33-.17h-13s2.1-3,2.3-3.24H32.15a4.7,4.7,0,0,1,2.05.41,2.76,2.76,0,0,1,1.66,2,2.09,2.09,0,0,1-.33,1.73C35,13.92,34.53,14.62,34,15.33Z" style="fill:#d80613"/><path d="M15.13,19.65l4.79-6.5h5.75a1.07,1.07,0,0,1,.66.12.38.38,0,0,1,0,.4l-.27.39L25,15.5c-.09.12-.21.24-.15.42a.39.39,0,0,0,.33.17c.2,0,.39,0,.59,0h7.64a2,2,0,0,1-.14.25,8.25,8.25,0,0,1-5,3.13,8.78,8.78,0,0,1-1.44.14H15.13Zm39.37-3.5H70a1.39,1.39,0,0,1-.11.21L67.53,19.5l-.14.16h-11a5.27,5.27,0,0,1-1.85-.29,2.05,2.05,0,0,1-.84-.55,1.13,1.13,0,0,1-.26-1.11,1.7,1.7,0,0,1,.24-.51c.26-.36.52-.7.78-1.05Zm5.18-7h7.18a1.67,1.67,0,0,1-.12.23l-3.38,4.58-1,1.38H55.2a.46.46,0,0,1,.15-.3c.58-.79,1.16-1.59,1.75-2.38l2.4-3.26A2,2,0,0,1,59.68,9.13ZM39.87,19.64H33.09a.51.51,0,0,1,.07-.17l2.34-3.19.12-.13h6.74c0,.13-.07.19-.13.27-.6.83-1.21,1.66-1.82,2.48Zm9.84,0c-.81.05-6.48,0-6.73,0v-.06l.08-.13,2.42-3.28h6.77C52.15,16.38,50.17,19.11,49.71,19.64ZM16.5,16.11l-.54.74c-.24,0-10.11.06-10.51,0-.07-.11,0-.24,0-.36v-.33c.11-.1.21-.07.32-.07H16.5Zm63.19,2.81a4.33,4.33,0,0,1,0,.72h-11a4.66,4.66,0,0,1,.51-.72ZM15.48,17.49l-.54.77H5.45a2.84,2.84,0,0,1,0-.71c.1-.09.22-.06.33-.06Zm54.25.72.51-.7h9.43a2.74,2.74,0,0,1,0,.7l0,0H69.83S69.79,18.25,69.73,18.21Zm1-1.33a7.85,7.85,0,0,1,.52-.76h8.41a.81.81,0,0,1,0,.38v.33l0,0h-.31Zm-56.27,2-.55.74H5.44a2.6,2.6,0,0,1,0-.68c.11-.09.23-.05.33-.05h8.7Z" style="fill:#d80613"/><path d="M25.28,29.63v.05l0,0Z" style="fill:#fdfcfc"/></g></svg>