<svg xmlns="http://www.w3.org/2000/svg" viewBox="0 0 85 43"><g id="background"><g id="Ebene_2" data-name="Ebene 2"><rect width="85" height="43" style="fill:#fff"/></g></g><g id="icon"><path d="M78.26,28.93a1.88,1.88,0,1,0-1.88,1.93A1.85,1.85,0,0,0,78.26,28.93ZM75.88,29v1.27h-.4V27.5h1c.59,0,.87.26.87.77a.58.58,0,0,1-.49.59h0c.24,0,.33.25.37.64a2.64,2.64,0,0,0,.18.78h-.48a7.8,7.8,0,0,1-.19-.94.41.41,0,0,0-.47-.33h-.4Zm.51-.35c.39,0,.51-.22.51-.4s-.12-.4-.51-.4h-.51v.8Zm-2.34.26a2.33,2.33,0,1,1,2.33,2.3A2.28,2.28,0,0,1,74.05,28.93Z" style="fill:#ff5a00"/><path d="M66,30.83l-2.69-3-2.65,3h-5.6l5.47-6.15-5.47-6.14h5.77l2.71,3,2.61-3H71.7l-5.44,6.12,5.52,6.17Zm-21.68,0V11.47H55.05v4.31H48.86v2.76h6.19v4.15H48.86V26.5h6.19v4.33Z" style="fill:#ff5a00"/><path d="M39.77,11.47v7.92h-.05A4.58,4.58,0,0,0,36,17.84a6.26,6.26,0,0,0-6,4.7,6.48,6.48,0,0,0-6.65-4.76,6.78,6.78,0,0,0-6.15,3.29V18.54H11.44V15.78h6.29V11.47H6.3V30.83h5.14V22.69h5.12a7.29,7.29,0,0,0-.23,1.91,6.77,6.77,0,0,0,7,6.88A6.61,6.61,0,0,0,30,27.09h-4.4a2.22,2.22,0,0,1-2.24,1.1,2.64,2.64,0,0,1-2.57-2.63h9a6.52,6.52,0,0,0,6.31,6,4.38,4.38,0,0,0,3.66-2h.05v1.26h4.54V11.47ZM20.92,22.75a2.48,2.48,0,0,1,2.43-2,2.36,2.36,0,0,1,2.45,2ZM37,27.88a2.93,2.93,0,0,1-2.7-3.18c0-1.74.9-3.41,2.7-3.41S39.64,23,39.64,24.7,38.85,27.88,37,27.88Z" style="fill:#29007c"/></g></svg>