<svg xmlns="http://www.w3.org/2000/svg" viewBox="0 0 85 43"><g id="background"><rect width="85" height="43" style="fill:#fc0"/></g><g id="icon"><path d="M65.06,28.27l.89-4H6.39l-.89,4Z" style="fill:#fff;fill-rule:evenodd"/><path d="M69.12,12.73h6.57l-1,4.87H79.5l-1.26,6.09H73.37l-1,4.58H67l.33-1.59H71.1L72,22.14h4.91l.61-3H72.69l1-4.88h-3.3l-1,4.88H67.74l1.38-6.42Z" style="fill:red;fill-rule:evenodd"/><path d="M24.68,17.76H22.9v0l-2.59,5.65,0-5.61v-.08h-2.2l0,0-2.43,5.65-.21-5.61v-.08H13.66l0,.08.48,7.71v.08h2v0l2.61-5.88.08,5.84v.08H21v0l3.7-7.71,0-.12Zm2.19,0H25.1l-.05.08-1.62,7.71v.08h1.79v-.08l1.62-7.71Zm8.65-.12c-1.39,0-3,.61-3,2.39,0,1.18.86,1.63,1.55,2s1.09.61,1.09,1.22c0,.78-.69,1.1-1.38,1.1a4.1,4.1,0,0,1-1.87-.53l-.08-.05-.05.13-.37,1.3,0,.08h.08a5.84,5.84,0,0,0,2.23.45,3.56,3.56,0,0,0,2.56-.85A2.45,2.45,0,0,0,37,23.12a2.56,2.56,0,0,0-1.62-2.23c-.57-.33-1-.62-1-1.1a.65.65,0,0,1,.21-.45,1.55,1.55,0,0,1,1-.32,3.52,3.52,0,0,1,1.54.37l.13.05v-.08l.37-1.26,0-.08L37.56,18a6,6,0,0,0-2-.33ZM32.07,18,32,18a5.73,5.73,0,0,0-2-.32c-1.33,0-2.93.61-2.93,2.39,0,1.18.81,1.63,1.55,2,.56.32,1.06.61,1.06,1.22,0,.78-.69,1.1-1.38,1.1a3.83,3.83,0,0,1-1.82-.53l-.08-.05-.05.13-.4,1.3v.08H26a6,6,0,0,0,2.23.45,3.56,3.56,0,0,0,2.59-.85,2.42,2.42,0,0,0,.65-1.79,2.57,2.57,0,0,0-1.63-2.23c-.53-.33-1-.62-1-1.1a.65.65,0,0,1,.21-.45A1.53,1.53,0,0,1,30,19a3.63,3.63,0,0,1,1.58.37l.08.05,0-.08.37-1.26V18Zm-20.78-.37c-1.33,0-3,.61-3,2.39,0,1.18.86,1.63,1.58,2,.56.32,1.06.61,1.06,1.22,0,.78-.69,1.1-1.38,1.1a4.06,4.06,0,0,1-1.87-.53l-.08-.05v.13l-.4,1.3,0,.08h.08a5.88,5.88,0,0,0,2.24.45,3.45,3.45,0,0,0,2.56-.85,2.45,2.45,0,0,0,.69-1.79,2.57,2.57,0,0,0-1.63-2.23c-.53-.33-1-.62-1-1.1a.65.65,0,0,1,.21-.45,1.53,1.53,0,0,1,1-.32,3.63,3.63,0,0,1,1.58.37l.08.05v-.08l.37-1.27.05-.08L13.34,18A6.3,6.3,0,0,0,11.29,17.64Zm31.29.12h-1.4v.08l-1.63,7.71v.05l0,0h1.72l.05-.08s.53-2.35.53-2.51h.85a3.68,3.68,0,0,0,2.59-1A2.77,2.77,0,0,0,46,20.13a2.09,2.09,0,0,0-.56-1.5,4.17,4.17,0,0,0-2.88-.87Zm.05,1.39h.45a1.46,1.46,0,0,1,.88.32,1.1,1.1,0,0,1,.33.8,1.57,1.57,0,0,1-1.71,1.39h-.45l.5-2.51ZM53,18.54a3.29,3.29,0,0,0-2.43-.89,3.9,3.9,0,0,0-3.2,1.47,5.2,5.2,0,0,0-1.26,3.41A3.38,3.38,0,0,0,47.05,25a3,3,0,0,0,2.19.85,4.24,4.24,0,0,0,3.33-1.33A5.09,5.09,0,0,0,53.91,21a3.52,3.52,0,0,0-.9-2.49Zm-3.57,5.87a1.45,1.45,0,0,1-1-.4,2,2,0,0,1-.48-1.42A4.32,4.32,0,0,1,49,19.71,2.15,2.15,0,0,1,50.55,19a1.65,1.65,0,0,1,1.09.4,2,2,0,0,1,.48,1.42c0,1.46-.93,3.57-2.68,3.57ZM59.74,18a5.07,5.07,0,0,0-2-.37c-1.39,0-3,.64-3,2.43,0,1.17.8,1.62,1.54,2,.57.33,1.1.61,1.1,1.18,0,.77-.7,1.14-1.39,1.14a4.59,4.59,0,0,1-1.86-.53l-.08-.05v.05l0,.05-.4,1.33v.1h0a6.7,6.7,0,0,0,2.24.45A3.57,3.57,0,0,0,58.48,25a2.48,2.48,0,0,0-1-4c-.53-.32-1-.61-1-1.09a.86.86,0,0,1,.16-.49,1.78,1.78,0,0,1,1.07-.32,3.67,3.67,0,0,1,1.54.4l.08.05v-.05l0,0,.37-1.31V18Zm6.61-.25h-6.1l0,.08L60,19v.08l0,0h2.2l-1.38,6.4v.05l0,0h1.8v-.08s1.34-6.13,1.42-6.41h2.14v0l0-.05.24-1.23v-.08Z" style="fill:#231f20;fill-rule:evenodd"/></g></svg>