<svg xmlns="http://www.w3.org/2000/svg" width="375" viewBox="0 0 375 375" height="375" version="1.0"><path fill="#FFF" d="M-37.5 -37.5H412.5V412.5H-37.5z"/><path fill="#FFF" d="M-37.5 -37.5H412.5V412.5H-37.5z"/><path fill="#1E81E4" d="M 187.507812 344.40625 C 147.492188 344.40625 109.8125 328.828125 81.539062 300.496094 C 53.203125 272.21875 37.628906 234.539062 37.628906 194.523438 C 37.628906 154.507812 53.203125 116.828125 81.539062 88.554688 C 109.8125 60.21875 147.492188 44.644531 187.507812 44.644531 C 227.523438 44.644531 265.203125 60.21875 293.476562 88.554688 C 321.8125 116.886719 337.386719 154.507812 337.386719 194.523438 C 337.386719 234.539062 321.8125 272.21875 293.476562 300.496094 C 265.203125 328.828125 227.523438 344.40625 187.507812 344.40625 Z M 187.507812 53.628906 C 149.886719 53.628906 114.484375 68.304688 87.886719 94.902344 C 61.289062 121.5 46.613281 156.90625 46.613281 194.523438 C 46.613281 232.144531 61.289062 267.546875 87.886719 294.144531 C 114.484375 320.742188 149.886719 335.417969 187.507812 335.417969 C 225.128906 335.417969 260.53125 320.742188 287.128906 294.144531 C 313.726562 267.546875 328.402344 232.144531 328.402344 194.523438 C 328.402344 156.90625 313.726562 121.5 287.128906 94.902344 C 260.53125 68.304688 225.128906 53.628906 187.507812 53.628906 Z M 187.507812 53.628906"/><g fill="#1E81E4"><g><g><path d="M 9.46875 0 L 4.8125 0 C 4.03125 0 3.640625 -0.390625 3.640625 -1.171875 L 3.640625 -34.828125 C 3.640625 -35.617188 4.03125 -36.015625 4.8125 -36.015625 L 9.015625 -36.015625 C 9.796875 -36.015625 10.316406 -35.75 10.578125 -35.21875 L 21.890625 -14 L 22.125 -14 L 22.125 -34.828125 C 22.125 -35.617188 22.515625 -36.015625 23.296875 -36.015625 L 27.9375 -36.015625 C 28.726562 -36.015625 29.125 -35.617188 29.125 -34.828125 L 29.125 -1.171875 C 29.125 -0.390625 28.726562 0 27.9375 0 L 23.859375 0 C 23.035156 0 22.4375 -0.375 22.0625 -1.125 L 10.859375 -21.953125 L 10.640625 -21.953125 L 10.640625 -1.171875 C 10.640625 -0.390625 10.25 0 9.46875 0 Z M 9.46875 0" transform="translate(138.014 149.88)"/></g></g></g><g fill="#1E81E4"><g><g><path d="M 22.0625 -36.015625 L 26.765625 -36.015625 C 27.585938 -36.015625 28 -35.640625 28 -34.890625 L 28 -9.125 C 28 -6.21875 27.1875 -3.96875 25.5625 -2.375 C 23.9375 -0.789062 21.671875 0 18.765625 0 L 12.59375 0 C 9.644531 0 7.367188 -0.78125 5.765625 -2.34375 C 4.160156 -3.914062 3.359375 -6.175781 3.359375 -9.125 L 3.359375 -34.828125 C 3.359375 -35.617188 3.75 -36.015625 4.53125 -36.015625 L 9.296875 -36.015625 C 10.078125 -36.015625 10.46875 -35.617188 10.46875 -34.828125 L 10.46875 -9.46875 C 10.46875 -8.269531 10.71875 -7.414062 11.21875 -6.90625 C 11.726562 -6.40625 12.5625 -6.15625 13.71875 -6.15625 L 17.578125 -6.15625 C 18.773438 -6.15625 19.625 -6.40625 20.125 -6.90625 C 20.632812 -7.414062 20.890625 -8.269531 20.890625 -9.46875 L 20.890625 -34.828125 C 20.890625 -35.617188 21.28125 -36.015625 22.0625 -36.015625 Z M 22.0625 -36.015625" transform="translate(174.69 149.88)"/></g></g></g><g fill="#1E81E4"><g><g><path d="M 9.578125 0 L 4.8125 0 C 4.03125 0 3.640625 -0.390625 3.640625 -1.171875 L 3.640625 -34.828125 C 3.640625 -35.617188 4.03125 -36.015625 4.8125 -36.015625 L 18.140625 -36.015625 C 21.054688 -36.015625 23.332031 -35.207031 24.96875 -33.59375 C 26.613281 -31.988281 27.4375 -29.734375 27.4375 -26.828125 L 27.4375 -22.453125 C 27.4375 -18.234375 25.773438 -15.4375 22.453125 -14.0625 L 22.453125 -13.828125 L 28.453125 -1.34375 C 28.785156 -0.445312 28.46875 0 27.5 0 L 22.953125 0 C 22.285156 0 21.800781 -0.0703125 21.5 -0.21875 C 21.207031 -0.375 20.96875 -0.691406 20.78125 -1.171875 L 15.171875 -13.265625 L 11.421875 -13.265625 C 10.972656 -13.265625 10.75 -13.0625 10.75 -12.65625 L 10.75 -1.171875 C 10.75 -0.390625 10.359375 0 9.578125 0 Z M 11.375 -18.984375 L 16.859375 -18.984375 C 18.046875 -18.984375 18.921875 -19.234375 19.484375 -19.734375 C 20.046875 -20.242188 20.328125 -21.054688 20.328125 -22.171875 L 20.328125 -26.546875 C 20.328125 -27.703125 20.046875 -28.539062 19.484375 -29.0625 C 18.921875 -29.582031 18.046875 -29.84375 16.859375 -29.84375 L 11.375 -29.84375 C 10.957031 -29.84375 10.75 -29.640625 10.75 -29.234375 L 10.75 -19.59375 C 10.75 -19.1875 10.957031 -18.984375 11.375 -18.984375 Z M 11.375 -18.984375" transform="translate(209.965 149.88)"/></g></g></g><g fill="#1E81E4"><g><g><path d="M 11.375 -5.9375 L 17.640625 -5.9375 C 18.867188 -5.9375 19.753906 -6.1875 20.296875 -6.6875 C 20.835938 -7.195312 21.109375 -8.03125 21.109375 -9.1875 L 21.109375 -12.4375 C 21.109375 -13.59375 20.828125 -14.410156 20.265625 -14.890625 C 19.710938 -15.378906 18.800781 -15.625 17.53125 -15.625 L 11.375 -15.625 C 10.957031 -15.625 10.75 -15.421875 10.75 -15.015625 L 10.75 -6.546875 C 10.75 -6.140625 10.957031 -5.9375 11.375 -5.9375 Z M 11.375 -21.390625 L 17.078125 -21.390625 C 18.273438 -21.390625 19.148438 -21.640625 19.703125 -22.140625 C 20.265625 -22.648438 20.546875 -23.484375 20.546875 -24.640625 L 20.546875 -26.828125 C 20.546875 -27.984375 20.273438 -28.8125 19.734375 -29.3125 C 19.191406 -29.820312 18.328125 -30.078125 17.140625 -30.078125 L 11.375 -30.078125 C 10.957031 -30.078125 10.75 -29.867188 10.75 -29.453125 L 10.75 -22.015625 C 10.75 -21.597656 10.957031 -21.390625 11.375 -21.390625 Z M 3.640625 -1.171875 L 3.640625 -34.828125 C 3.640625 -35.617188 4.03125 -36.015625 4.8125 -36.015625 L 18.25 -36.015625 C 21.207031 -36.015625 23.488281 -35.226562 25.09375 -33.65625 C 26.695312 -32.082031 27.5 -29.84375 27.5 -26.9375 L 27.5 -24.640625 C 27.5 -21.460938 26.023438 -19.410156 23.078125 -18.484375 C 24.566406 -18.253906 25.757812 -17.644531 26.65625 -16.65625 C 27.550781 -15.664062 28 -14.257812 28 -12.4375 L 28 -9.078125 C 28 -6.160156 27.195312 -3.914062 25.59375 -2.34375 C 23.988281 -0.78125 21.726562 0 18.8125 0 L 4.8125 0 C 4.03125 0 3.640625 -0.390625 3.640625 -1.171875 Z M 3.640625 -1.171875" transform="translate(59.287 210.77)"/></g></g></g><g fill="#1E81E4"><g><g><path d="M 23.125 0 L 4.8125 0 C 4.03125 0 3.640625 -0.390625 3.640625 -1.171875 L 3.640625 -34.828125 C 3.640625 -35.617188 4.03125 -36.015625 4.8125 -36.015625 L 23.125 -36.015625 C 23.875 -36.015625 24.25 -35.617188 24.25 -34.828125 L 24.25 -31.03125 C 24.25 -30.238281 23.875 -29.84375 23.125 -29.84375 L 11.421875 -29.84375 C 10.972656 -29.84375 10.75 -29.640625 10.75 -29.234375 L 10.75 -21.953125 C 10.75 -21.546875 10.972656 -21.34375 11.421875 -21.34375 L 21 -21.34375 C 21.78125 -21.34375 22.171875 -20.945312 22.171875 -20.15625 L 22.171875 -16.359375 C 22.171875 -15.566406 21.78125 -15.171875 21 -15.171875 L 11.421875 -15.171875 C 10.972656 -15.171875 10.75 -14.96875 10.75 -14.5625 L 10.75 -6.78125 C 10.75 -6.363281 10.972656 -6.15625 11.421875 -6.15625 L 23.125 -6.15625 C 23.875 -6.15625 24.25 -5.765625 24.25 -4.984375 L 24.25 -1.171875 C 24.25 -0.390625 23.875 0 23.125 0 Z M 23.125 0" transform="translate(94.283 210.77)"/></g></g></g><g fill="#1E81E4"><g><g><path d="M 18.25 0 L 12.3125 0 C 9.363281 0 7.085938 -0.78125 5.484375 -2.34375 C 3.878906 -3.914062 3.078125 -6.175781 3.078125 -9.125 L 3.078125 -26.875 C 3.078125 -29.820312 3.878906 -32.082031 5.484375 -33.65625 C 7.085938 -35.226562 9.363281 -36.015625 12.3125 -36.015625 L 18.25 -36.015625 C 21.164062 -36.015625 23.425781 -35.21875 25.03125 -33.625 C 26.632812 -32.039062 27.4375 -29.789062 27.4375 -26.875 L 27.4375 -25.203125 C 27.4375 -24.378906 27.046875 -23.96875 26.265625 -23.96875 L 21.5 -23.96875 C 20.71875 -23.96875 20.328125 -24.378906 20.328125 -25.203125 L 20.328125 -26.546875 C 20.328125 -27.742188 20.082031 -28.59375 19.59375 -29.09375 C 19.113281 -29.59375 18.273438 -29.84375 17.078125 -29.84375 L 13.4375 -29.84375 C 12.28125 -29.84375 11.445312 -29.59375 10.9375 -29.09375 C 10.4375 -28.59375 10.1875 -27.742188 10.1875 -26.546875 L 10.1875 -9.46875 C 10.1875 -8.269531 10.4375 -7.414062 10.9375 -6.90625 C 11.445312 -6.40625 12.28125 -6.15625 13.4375 -6.15625 L 17.078125 -6.15625 C 18.273438 -6.15625 19.113281 -6.40625 19.59375 -6.90625 C 20.082031 -7.414062 20.328125 -8.269531 20.328125 -9.46875 L 20.328125 -12.984375 C 20.328125 -13.398438 20.125 -13.609375 19.71875 -13.609375 L 16.359375 -13.609375 C 15.566406 -13.609375 15.171875 -14 15.171875 -14.78125 L 15.171875 -18.59375 C 15.171875 -19.375 15.566406 -19.765625 16.359375 -19.765625 L 26.15625 -19.765625 C 27.007812 -19.765625 27.4375 -19.335938 27.4375 -18.484375 L 27.4375 -9.125 C 27.4375 -6.21875 26.632812 -3.96875 25.03125 -2.375 C 23.425781 -0.789062 21.164062 0 18.25 0 Z M 18.25 0" transform="translate(125.023 210.77)"/></g></g></g><g fill="#1E81E4"><g><g><path d="M 9.578125 0 L 4.8125 0 C 4.03125 0 3.640625 -0.390625 3.640625 -1.171875 L 3.640625 -34.828125 C 3.640625 -35.617188 4.03125 -36.015625 4.8125 -36.015625 L 18.140625 -36.015625 C 21.054688 -36.015625 23.332031 -35.207031 24.96875 -33.59375 C 26.613281 -31.988281 27.4375 -29.734375 27.4375 -26.828125 L 27.4375 -22.453125 C 27.4375 -18.234375 25.773438 -15.4375 22.453125 -14.0625 L 22.453125 -13.828125 L 28.453125 -1.34375 C 28.785156 -0.445312 28.46875 0 27.5 0 L 22.953125 0 C 22.285156 0 21.800781 -0.0703125 21.5 -0.21875 C 21.207031 -0.375 20.96875 -0.691406 20.78125 -1.171875 L 15.171875 -13.265625 L 11.421875 -13.265625 C 10.972656 -13.265625 10.75 -13.0625 10.75 -12.65625 L 10.75 -1.171875 C 10.75 -0.390625 10.359375 0 9.578125 0 Z M 11.375 -18.984375 L 16.859375 -18.984375 C 18.046875 -18.984375 18.921875 -19.234375 19.484375 -19.734375 C 20.046875 -20.242188 20.328125 -21.054688 20.328125 -22.171875 L 20.328125 -26.546875 C 20.328125 -27.703125 20.046875 -28.539062 19.484375 -29.0625 C 18.921875 -29.582031 18.046875 -29.84375 16.859375 -29.84375 L 11.375 -29.84375 C 10.957031 -29.84375 10.75 -29.640625 10.75 -29.234375 L 10.75 -19.59375 C 10.75 -19.1875 10.957031 -18.984375 11.375 -18.984375 Z M 11.375 -18.984375" transform="translate(159.459 210.77)"/></g></g></g><g fill="#1E81E4"><g><g><path d="M 23.125 0 L 4.8125 0 C 4.03125 0 3.640625 -0.390625 3.640625 -1.171875 L 3.640625 -34.828125 C 3.640625 -35.617188 4.03125 -36.015625 4.8125 -36.015625 L 23.125 -36.015625 C 23.875 -36.015625 24.25 -35.617188 24.25 -34.828125 L 24.25 -31.03125 C 24.25 -30.238281 23.875 -29.84375 23.125 -29.84375 L 11.421875 -29.84375 C 10.972656 -29.84375 10.75 -29.640625 10.75 -29.234375 L 10.75 -21.953125 C 10.75 -21.546875 10.972656 -21.34375 11.421875 -21.34375 L 21 -21.34375 C 21.78125 -21.34375 22.171875 -20.945312 22.171875 -20.15625 L 22.171875 -16.359375 C 22.171875 -15.566406 21.78125 -15.171875 21 -15.171875 L 11.421875 -15.171875 C 10.972656 -15.171875 10.75 -14.96875 10.75 -14.5625 L 10.75 -6.78125 C 10.75 -6.363281 10.972656 -6.15625 11.421875 -6.15625 L 23.125 -6.15625 C 23.875 -6.15625 24.25 -5.765625 24.25 -4.984375 L 24.25 -1.171875 C 24.25 -0.390625 23.875 0 23.125 0 Z M 23.125 0" transform="translate(194.007 210.77)"/></g></g></g><g fill="#1E81E4"><g><g><path d="M 9.46875 0 L 4.8125 0 C 4.03125 0 3.640625 -0.390625 3.640625 -1.171875 L 3.640625 -34.828125 C 3.640625 -35.617188 4.03125 -36.015625 4.8125 -36.015625 L 9.015625 -36.015625 C 9.796875 -36.015625 10.316406 -35.75 10.578125 -35.21875 L 21.890625 -14 L 22.125 -14 L 22.125 -34.828125 C 22.125 -35.617188 22.515625 -36.015625 23.296875 -36.015625 L 27.9375 -36.015625 C 28.726562 -36.015625 29.125 -35.617188 29.125 -34.828125 L 29.125 -1.171875 C 29.125 -0.390625 28.726562 0 27.9375 0 L 23.859375 0 C 23.035156 0 22.4375 -0.375 22.0625 -1.125 L 10.859375 -21.953125 L 10.640625 -21.953125 L 10.640625 -1.171875 C 10.640625 -0.390625 10.25 0 9.46875 0 Z M 9.46875 0" transform="translate(224.747 210.77)"/></g></g></g><g fill="#1E81E4"><g><g><path d="M 2.6875 -1.171875 L 2.6875 -4.53125 C 2.6875 -5.769531 2.929688 -6.6875 3.421875 -7.28125 L 18.25 -29.171875 L 18.25 -29.40625 L 4.875 -29.40625 C 4.09375 -29.40625 3.703125 -29.796875 3.703125 -30.578125 L 3.703125 -34.828125 C 3.703125 -35.617188 4.09375 -36.015625 4.875 -36.015625 L 24.75 -36.015625 C 25.5 -36.015625 25.875 -35.617188 25.875 -34.828125 L 25.875 -30.015625 C 25.875 -28.898438 25.59375 -27.929688 25.03125 -27.109375 L 11.09375 -6.828125 L 11.09375 -6.609375 L 25.3125 -6.609375 C 26.0625 -6.609375 26.4375 -6.253906 26.4375 -5.546875 L 26.4375 -1.28125 C 26.4375 -0.425781 26.0625 0 25.3125 0 L 3.859375 0 C 3.078125 0 2.6875 -0.390625 2.6875 -1.171875 Z M 2.6875 -1.171875" transform="translate(261.422 210.77)"/></g></g></g><g fill="#1E81E4"><g><g><path d="M 14.78125 0 L 10.078125 0 C 9.253906 0 8.84375 -0.390625 8.84375 -1.171875 L 8.84375 -29.234375 C 8.84375 -29.640625 8.640625 -29.84375 8.234375 -29.84375 L 1.84375 -29.84375 C 1.0625 -29.84375 0.671875 -30.238281 0.671875 -31.03125 L 0.671875 -34.828125 C 0.671875 -35.617188 1.0625 -36.015625 1.84375 -36.015625 L 23.015625 -36.015625 C 23.796875 -36.015625 24.1875 -35.617188 24.1875 -34.828125 L 24.1875 -31.03125 C 24.1875 -30.238281 23.796875 -29.84375 23.015625 -29.84375 L 16.625 -29.84375 C 16.175781 -29.84375 15.953125 -29.640625 15.953125 -29.234375 L 15.953125 -1.171875 C 15.953125 -0.390625 15.5625 0 14.78125 0 Z M 14.78125 0" transform="translate(294.514 210.77)"/></g></g></g><g fill="#1E81E4"><g><g><path d="M 13.078125 0 L 7.84375 0 C 7.28125 0 6.945312 -0.28125 6.84375 -0.84375 L 0.640625 -24.796875 C 0.453125 -25.410156 0.71875 -25.71875 1.4375 -25.71875 L 5.203125 -25.71875 C 5.734375 -25.71875 6.050781 -25.4375 6.15625 -24.875 L 10.359375 -5.203125 L 10.515625 -5.203125 L 14.71875 -24.875 C 14.820312 -25.4375 15.144531 -25.71875 15.6875 -25.71875 L 19.4375 -25.71875 C 20.101562 -25.71875 20.367188 -25.410156 20.234375 -24.796875 L 14.046875 -0.84375 C 13.910156 -0.28125 13.585938 0 13.078125 0 Z M 13.078125 0" transform="translate(82.891 263.159)"/></g></g></g><g fill="#1E81E4"><g><g><path d="M 16.515625 0 L 3.4375 0 C 2.875 0 2.59375 -0.28125 2.59375 -0.84375 L 2.59375 -24.875 C 2.59375 -25.4375 2.875 -25.71875 3.4375 -25.71875 L 16.515625 -25.71875 C 17.046875 -25.71875 17.3125 -25.4375 17.3125 -24.875 L 17.3125 -22.15625 C 17.3125 -21.59375 17.046875 -21.3125 16.515625 -21.3125 L 8.15625 -21.3125 C 7.84375 -21.3125 7.6875 -21.164062 7.6875 -20.875 L 7.6875 -15.6875 C 7.6875 -15.382812 7.84375 -15.234375 8.15625 -15.234375 L 15 -15.234375 C 15.5625 -15.234375 15.84375 -14.957031 15.84375 -14.40625 L 15.84375 -11.6875 C 15.84375 -11.125 15.5625 -10.84375 15 -10.84375 L 8.15625 -10.84375 C 7.84375 -10.84375 7.6875 -10.695312 7.6875 -10.40625 L 7.6875 -4.84375 C 7.6875 -4.550781 7.84375 -4.40625 8.15625 -4.40625 L 16.515625 -4.40625 C 17.046875 -4.40625 17.3125 -4.125 17.3125 -3.5625 L 17.3125 -0.84375 C 17.3125 -0.28125 17.046875 0 16.515625 0 Z M 16.515625 0" transform="translate(106.53 263.159)"/></g></g></g><g fill="#1E81E4"><g><g><path d="M 6.84375 0 L 3.4375 0 C 2.875 0 2.59375 -0.28125 2.59375 -0.84375 L 2.59375 -24.875 C 2.59375 -25.4375 2.875 -25.71875 3.4375 -25.71875 L 12.953125 -25.71875 C 15.035156 -25.71875 16.660156 -25.144531 17.828125 -24 C 19.003906 -22.851562 19.59375 -21.238281 19.59375 -19.15625 L 19.59375 -16.046875 C 19.59375 -13.023438 18.410156 -11.023438 16.046875 -10.046875 L 16.046875 -9.875 L 20.3125 -0.953125 C 20.5625 -0.316406 20.335938 0 19.640625 0 L 16.40625 0 C 15.925781 0 15.578125 -0.0507812 15.359375 -0.15625 C 15.148438 -0.257812 14.976562 -0.488281 14.84375 -0.84375 L 10.84375 -9.484375 L 8.15625 -9.484375 C 7.84375 -9.484375 7.6875 -9.335938 7.6875 -9.046875 L 7.6875 -0.84375 C 7.6875 -0.28125 7.40625 0 6.84375 0 Z M 8.125 -13.5625 L 12.046875 -13.5625 C 12.890625 -13.5625 13.507812 -13.738281 13.90625 -14.09375 C 14.3125 -14.457031 14.515625 -15.039062 14.515625 -15.84375 L 14.515625 -18.953125 C 14.515625 -19.785156 14.3125 -20.382812 13.90625 -20.75 C 13.507812 -21.125 12.890625 -21.3125 12.046875 -21.3125 L 8.125 -21.3125 C 7.832031 -21.3125 7.6875 -21.164062 7.6875 -20.875 L 7.6875 -14 C 7.6875 -13.707031 7.832031 -13.5625 8.125 -13.5625 Z M 8.125 -13.5625" transform="translate(128.487 263.159)"/></g></g></g><g fill="#1E81E4"><g><g><path d="M 6.84375 0 L 3.4375 0 C 2.875 0 2.59375 -0.28125 2.59375 -0.84375 L 2.59375 -24.875 C 2.59375 -25.4375 2.875 -25.71875 3.4375 -25.71875 L 16.203125 -25.71875 C 16.734375 -25.71875 17 -25.4375 17 -24.875 L 17 -22.15625 C 17 -21.59375 16.734375 -21.3125 16.203125 -21.3125 L 8.15625 -21.3125 C 7.84375 -21.3125 7.6875 -21.164062 7.6875 -20.875 L 7.6875 -14.6875 C 7.6875 -14.363281 7.84375 -14.203125 8.15625 -14.203125 L 15 -14.203125 C 15.5625 -14.203125 15.84375 -13.921875 15.84375 -13.359375 L 15.84375 -10.6875 C 15.84375 -10.09375 15.5625 -9.796875 15 -9.796875 L 8.15625 -9.796875 C 7.84375 -9.796875 7.6875 -9.648438 7.6875 -9.359375 L 7.6875 -0.84375 C 7.6875 -0.28125 7.40625 0 6.84375 0 Z M 6.84375 0" transform="translate(153.165 263.159)"/></g></g></g><g fill="#1E81E4"><g><g><path d="M 5.046875 -29.125 L 5.046875 -32.640625 C 5.046875 -33.171875 5.296875 -33.4375 5.796875 -33.4375 L 9 -33.4375 C 9.507812 -33.4375 9.765625 -33.1875 9.765625 -32.6875 L 9.765625 -29.125 C 9.765625 -28.5625 9.507812 -28.28125 9 -28.28125 L 5.796875 -28.28125 C 5.296875 -28.28125 5.046875 -28.5625 5.046875 -29.125 Z M 12.640625 -29.125 L 12.640625 -32.640625 C 12.640625 -33.171875 12.894531 -33.4375 13.40625 -33.4375 L 16.59375 -33.4375 C 17.101562 -33.4375 17.359375 -33.1875 17.359375 -32.6875 L 17.359375 -29.125 C 17.359375 -28.5625 17.101562 -28.28125 16.59375 -28.28125 L 13.40625 -28.28125 C 12.894531 -28.28125 12.640625 -28.5625 12.640625 -29.125 Z M 15.765625 -25.71875 L 19.125 -25.71875 C 19.707031 -25.71875 20 -25.453125 20 -24.921875 L 20 -6.515625 C 20 -4.441406 19.414062 -2.835938 18.25 -1.703125 C 17.09375 -0.566406 15.476562 0 13.40625 0 L 9 0 C 6.894531 0 5.269531 -0.554688 4.125 -1.671875 C 2.976562 -2.796875 2.40625 -4.410156 2.40625 -6.515625 L 2.40625 -24.875 C 2.40625 -25.4375 2.679688 -25.71875 3.234375 -25.71875 L 6.640625 -25.71875 C 7.203125 -25.71875 7.484375 -25.4375 7.484375 -24.875 L 7.484375 -6.765625 C 7.484375 -5.910156 7.660156 -5.300781 8.015625 -4.9375 C 8.378906 -4.582031 8.972656 -4.40625 9.796875 -4.40625 L 12.5625 -4.40625 C 13.414062 -4.40625 14.019531 -4.582031 14.375 -4.9375 C 14.738281 -5.300781 14.921875 -5.910156 14.921875 -6.765625 L 14.921875 -24.875 C 14.921875 -25.4375 15.203125 -25.71875 15.765625 -25.71875 Z M 15.765625 -25.71875" transform="translate(173.963 263.159)"/></g></g></g><g fill="#1E81E4"><g><g><path d="M 13.046875 0 L 8.796875 0 C 6.691406 0 5.066406 -0.554688 3.921875 -1.671875 C 2.773438 -2.796875 2.203125 -4.410156 2.203125 -6.515625 L 2.203125 -19.203125 C 2.203125 -21.304688 2.773438 -22.914062 3.921875 -24.03125 C 5.066406 -25.15625 6.691406 -25.71875 8.796875 -25.71875 L 13.046875 -25.71875 C 15.117188 -25.71875 16.726562 -25.148438 17.875 -24.015625 C 19.019531 -22.878906 19.59375 -21.273438 19.59375 -19.203125 L 19.59375 -18 C 19.59375 -17.414062 19.316406 -17.125 18.765625 -17.125 L 15.359375 -17.125 C 14.796875 -17.125 14.515625 -17.414062 14.515625 -18 L 14.515625 -18.953125 C 14.515625 -19.804688 14.34375 -20.410156 14 -20.765625 C 13.65625 -21.128906 13.054688 -21.3125 12.203125 -21.3125 L 9.59375 -21.3125 C 8.769531 -21.3125 8.175781 -21.128906 7.8125 -20.765625 C 7.457031 -20.410156 7.28125 -19.804688 7.28125 -18.953125 L 7.28125 -6.765625 C 7.28125 -5.910156 7.457031 -5.300781 7.8125 -4.9375 C 8.175781 -4.582031 8.769531 -4.40625 9.59375 -4.40625 L 12.203125 -4.40625 C 13.054688 -4.40625 13.65625 -4.582031 14 -4.9375 C 14.34375 -5.300781 14.515625 -5.910156 14.515625 -6.765625 L 14.515625 -9.28125 C 14.515625 -9.570312 14.367188 -9.71875 14.078125 -9.71875 L 11.6875 -9.71875 C 11.125 -9.71875 10.84375 -10 10.84375 -10.5625 L 10.84375 -13.28125 C 10.84375 -13.84375 11.125 -14.125 11.6875 -14.125 L 18.6875 -14.125 C 19.289062 -14.125 19.59375 -13.816406 19.59375 -13.203125 L 19.59375 -6.515625 C 19.59375 -4.441406 19.019531 -2.835938 17.875 -1.703125 C 16.726562 -0.566406 15.117188 0 13.046875 0 Z M 13.046875 0" transform="translate(199.161 263.159)"/></g></g></g><g fill="#1E81E4"><g><g><path d="M 8.125 -4.234375 L 12.59375 -4.234375 C 13.476562 -4.234375 14.113281 -4.410156 14.5 -4.765625 C 14.882812 -5.128906 15.078125 -5.726562 15.078125 -6.5625 L 15.078125 -8.875 C 15.078125 -9.707031 14.875 -10.296875 14.46875 -10.640625 C 14.070312 -10.984375 13.421875 -11.15625 12.515625 -11.15625 L 8.125 -11.15625 C 7.832031 -11.15625 7.6875 -11.007812 7.6875 -10.71875 L 7.6875 -4.6875 C 7.6875 -4.382812 7.832031 -4.234375 8.125 -4.234375 Z M 8.125 -15.28125 L 12.203125 -15.28125 C 13.054688 -15.28125 13.679688 -15.457031 14.078125 -15.8125 C 14.484375 -16.175781 14.6875 -16.769531 14.6875 -17.59375 L 14.6875 -19.15625 C 14.6875 -19.988281 14.488281 -20.582031 14.09375 -20.9375 C 13.707031 -21.300781 13.085938 -21.484375 12.234375 -21.484375 L 8.125 -21.484375 C 7.832031 -21.484375 7.6875 -21.335938 7.6875 -21.046875 L 7.6875 -15.71875 C 7.6875 -15.425781 7.832031 -15.28125 8.125 -15.28125 Z M 2.59375 -0.84375 L 2.59375 -24.875 C 2.59375 -25.4375 2.875 -25.71875 3.4375 -25.71875 L 13.046875 -25.71875 C 15.148438 -25.71875 16.773438 -25.15625 17.921875 -24.03125 C 19.066406 -22.914062 19.640625 -21.316406 19.640625 -19.234375 L 19.640625 -17.59375 C 19.640625 -15.332031 18.585938 -13.867188 16.484375 -13.203125 C 17.546875 -13.035156 18.394531 -12.597656 19.03125 -11.890625 C 19.675781 -11.191406 20 -10.1875 20 -8.875 L 20 -6.484375 C 20 -4.398438 19.425781 -2.796875 18.28125 -1.671875 C 17.132812 -0.554688 15.519531 0 13.4375 0 L 3.4375 0 C 2.875 0 2.59375 -0.28125 2.59375 -0.84375 Z M 2.59375 -0.84375" transform="translate(223.759 263.159)"/></g></g></g><g fill="#1E81E4"><g><g><path d="M 5.28125 0 L 1.4375 0 C 0.957031 0 0.796875 -0.28125 0.953125 -0.84375 L 7.28125 -24.875 C 7.46875 -25.4375 7.867188 -25.71875 8.484375 -25.71875 L 13.796875 -25.71875 C 14.460938 -25.71875 14.863281 -25.4375 15 -24.875 L 21.3125 -0.84375 C 21.476562 -0.28125 21.320312 0 20.84375 0 L 17 0 C 16.707031 0 16.503906 -0.0546875 16.390625 -0.171875 C 16.285156 -0.296875 16.207031 -0.519531 16.15625 -0.84375 L 15.046875 -5.234375 L 7.234375 -5.234375 L 6.125 -0.84375 C 6.070312 -0.519531 5.984375 -0.296875 5.859375 -0.171875 C 5.742188 -0.0546875 5.550781 0 5.28125 0 Z M 11.078125 -20.875 L 8.203125 -9.3125 L 14.125 -9.3125 L 11.234375 -20.875 Z M 11.078125 -20.875" transform="translate(248.757 263.159)"/></g></g></g><g fill="#1E81E4"><g><g><path d="M 6.84375 0 L 3.4375 0 C 2.875 0 2.59375 -0.28125 2.59375 -0.84375 L 2.59375 -24.875 C 2.59375 -25.4375 2.875 -25.71875 3.4375 -25.71875 L 12.953125 -25.71875 C 15.035156 -25.71875 16.660156 -25.144531 17.828125 -24 C 19.003906 -22.851562 19.59375 -21.238281 19.59375 -19.15625 L 19.59375 -16.046875 C 19.59375 -13.023438 18.410156 -11.023438 16.046875 -10.046875 L 16.046875 -9.875 L 20.3125 -0.953125 C 20.5625 -0.316406 20.335938 0 19.640625 0 L 16.40625 0 C 15.925781 0 15.578125 -0.0507812 15.359375 -0.15625 C 15.148438 -0.257812 14.976562 -0.488281 14.84375 -0.84375 L 10.84375 -9.484375 L 8.15625 -9.484375 C 7.84375 -9.484375 7.6875 -9.335938 7.6875 -9.046875 L 7.6875 -0.84375 C 7.6875 -0.28125 7.40625 0 6.84375 0 Z M 8.125 -13.5625 L 12.046875 -13.5625 C 12.890625 -13.5625 13.507812 -13.738281 13.90625 -14.09375 C 14.3125 -14.457031 14.515625 -15.039062 14.515625 -15.84375 L 14.515625 -18.953125 C 14.515625 -19.785156 14.3125 -20.382812 13.90625 -20.75 C 13.507812 -21.125 12.890625 -21.3125 12.046875 -21.3125 L 8.125 -21.3125 C 7.832031 -21.3125 7.6875 -21.164062 7.6875 -20.875 L 7.6875 -14 C 7.6875 -13.707031 7.832031 -13.5625 8.125 -13.5625 Z M 8.125 -13.5625" transform="translate(273.835 263.159)"/></g></g></g></svg>