<svg xmlns="http://www.w3.org/2000/svg" width="375" viewBox="0 0 375 375" height="375" version="1.0"><defs><clipPath id="a"><path d="M 127.699219 136.074219 L 244.699219 136.074219 L 244.699219 253.074219 L 127.699219 253.074219 Z M 127.699219 136.074219"/></clipPath><clipPath id="b"><path d="M 127 132.019531 L 252 132.019531 L 252 257.269531 L 127 257.269531 Z M 127 132.019531"/></clipPath></defs><path fill="#FFF" d="M-37.5 -37.5H412.5V412.5H-37.5z"/><path fill="#FFF" d="M-37.5 -37.5H412.5V412.5H-37.5z"/><path fill="#1E81E4" d="M 187.507812 344.40625 C 147.492188 344.40625 109.8125 328.828125 81.539062 300.496094 C 53.203125 272.21875 37.628906 234.539062 37.628906 194.523438 C 37.628906 154.507812 53.203125 116.828125 81.539062 88.554688 C 109.8125 60.21875 147.492188 44.644531 187.507812 44.644531 C 227.523438 44.644531 265.203125 60.21875 293.476562 88.554688 C 321.8125 116.886719 337.386719 154.507812 337.386719 194.523438 C 337.386719 234.539062 321.8125 272.21875 293.476562 300.496094 C 265.203125 328.828125 227.523438 344.40625 187.507812 344.40625 Z M 187.507812 53.628906 C 149.886719 53.628906 114.484375 68.304688 87.886719 94.902344 C 61.289062 121.5 46.613281 156.90625 46.613281 194.523438 C 46.613281 232.144531 61.289062 267.546875 87.886719 294.144531 C 114.484375 320.742188 149.886719 335.417969 187.507812 335.417969 C 225.128906 335.417969 260.53125 320.742188 287.128906 294.144531 C 313.726562 267.546875 328.402344 232.144531 328.402344 194.523438 C 328.402344 156.90625 313.726562 121.5 287.128906 94.902344 C 260.53125 68.304688 225.128906 53.628906 187.507812 53.628906 Z M 187.507812 53.628906"/><g clip-path="url(#a)"><path fill="#1E81E4" d="M 186.199219 141.921875 C 215.230469 141.921875 238.847656 165.539062 238.847656 194.574219 C 238.847656 223.605469 215.230469 247.222656 186.199219 247.222656 C 157.164062 247.222656 133.546875 223.605469 133.546875 194.574219 C 133.546875 165.539062 157.164062 141.921875 186.199219 141.921875 M 186.199219 136.074219 C 153.886719 136.074219 127.699219 162.261719 127.699219 194.574219 C 127.699219 226.882812 153.886719 253.074219 186.199219 253.074219 C 218.507812 253.074219 244.699219 226.882812 244.699219 194.574219 C 244.699219 162.261719 218.507812 136.074219 186.199219 136.074219 Z M 186.199219 136.074219"/></g><g clip-path="url(#b)"><path fill="#1E81E4" d="M 195.988281 195.621094 L 208.652344 182.234375 C 210.40625 183.015625 212.355469 183.503906 214.304688 183.503906 C 218.007812 183.503906 221.417969 182.039062 223.949219 179.5 L 225.3125 178.132812 L 251.132812 152.242188 C 251.910156 151.460938 251.910156 150.289062 251.132812 149.507812 C 250.351562 148.726562 249.183594 148.726562 248.402344 149.507812 L 222.78125 175.105469 C 222.195312 175.105469 220.832031 174.613281 218.980469 173.34375 L 245.675781 146.574219 C 246.457031 145.792969 246.457031 144.621094 245.675781 143.839844 C 244.894531 143.058594 243.726562 143.058594 242.949219 143.839844 L 215.863281 171 C 215.375 170.609375 214.890625 170.121094 214.402344 169.632812 C 213.914062 169.144531 213.425781 168.65625 213.039062 168.167969 L 240.121094 141.007812 C 240.902344 140.226562 240.902344 139.050781 240.121094 138.269531 C 239.34375 137.488281 238.175781 137.488281 237.394531 138.269531 L 210.699219 165.039062 C 209.433594 163.085938 208.945312 161.71875 208.945312 161.230469 L 234.570312 135.535156 C 235.347656 134.753906 235.347656 133.582031 234.570312 132.800781 C 233.789062 132.019531 232.621094 132.019531 231.839844 132.800781 L 206.023438 158.59375 L 204.660156 159.960938 C 202.027344 162.597656 200.664062 166.019531 200.664062 169.632812 C 200.664062 171.195312 200.664062 172.660156 201.152344 174.027344 L 192.382812 182.234375 L 192.382812 182.039062 L 192.675781 182.039062 C 192.675781 181.941406 192.773438 181.941406 192.773438 181.84375 C 192.773438 181.746094 192.871094 181.746094 192.773438 181.648438 L 192.773438 181.550781 C 192.773438 181.453125 192.675781 181.355469 192.675781 181.355469 C 192.285156 181.0625 159.550781 150.484375 137.335938 137 C 132.855469 134.363281 130.128906 135.632812 128.570312 137.195312 C 127.59375 138.171875 127.105469 139.347656 127.105469 140.714844 C 127.105469 141.984375 127.59375 143.253906 128.570312 144.230469 L 179.621094 195.425781 L 129.25 244.371094 C 126.328125 247.304688 126.230469 252.1875 129.25 255.117188 C 130.710938 256.585938 132.660156 257.269531 134.511719 257.269531 C 136.460938 257.269531 138.410156 256.488281 139.96875 255.019531 L 188.195312 203.925781 L 239.050781 255.019531 C 240.511719 256.488281 242.363281 257.269531 244.410156 257.269531 C 246.457031 257.269531 248.304688 256.488281 249.769531 255.019531 C 251.230469 253.554688 252.007812 251.699219 251.910156 249.648438 C 251.910156 247.597656 251.132812 245.738281 249.671875 244.273438 Z M 195.988281 195.621094"/></g><g fill="#1E81E4"><g><g><path d="M 6.65625 -11.703125 L 4.5 -7.90625 C 3.414062 -6.007812 2.078125 -4.832031 0.484375 -4.375 C -1.097656 -3.914062 -2.835938 -4.222656 -4.734375 -5.296875 L -16.125 -11.78125 C -18.007812 -12.851562 -19.160156 -14.191406 -19.578125 -15.796875 C -20.003906 -17.398438 -19.675781 -19.148438 -18.59375 -21.046875 L -16.4375 -24.84375 C -15.363281 -26.71875 -14.023438 -27.878906 -12.421875 -28.328125 C -10.828125 -28.773438 -9.097656 -28.46875 -7.234375 -27.40625 L -6.140625 -26.796875 C -5.617188 -26.492188 -5.5 -26.097656 -5.78125 -25.609375 L -7.53125 -22.546875 C -7.8125 -22.035156 -8.210938 -21.929688 -8.734375 -22.234375 L -9.609375 -22.71875 C -10.367188 -23.15625 -11 -23.304688 -11.5 -23.171875 C -12 -23.046875 -12.46875 -22.601562 -12.90625 -21.84375 L -14.234375 -19.515625 C -14.660156 -18.773438 -14.800781 -18.148438 -14.65625 -17.640625 C -14.519531 -17.128906 -14.070312 -16.65625 -13.3125 -16.21875 L -2.359375 -9.984375 C -1.585938 -9.546875 -0.945312 -9.398438 -0.4375 -9.546875 C 0.0625 -9.691406 0.523438 -10.132812 0.953125 -10.875 L 2.28125 -13.203125 C 2.71875 -13.960938 2.863281 -14.585938 2.71875 -15.078125 C 2.570312 -15.578125 2.113281 -16.046875 1.34375 -16.484375 L -0.921875 -17.78125 C -1.179688 -17.925781 -1.390625 -17.867188 -1.546875 -17.609375 L -2.765625 -15.453125 C -3.046875 -14.953125 -3.4375 -14.84375 -3.9375 -15.125 L -6.375 -16.515625 C -6.882812 -16.804688 -7 -17.203125 -6.71875 -17.703125 L -3.140625 -23.984375 C -2.828125 -24.535156 -2.394531 -24.65625 -1.84375 -24.34375 L 4.15625 -20.921875 C 6.019531 -19.859375 7.171875 -18.523438 7.609375 -16.921875 C 8.046875 -15.316406 7.726562 -13.578125 6.65625 -11.703125 Z M 6.65625 -11.703125" transform="translate(91.495 154.537)"/></g></g></g><g fill="#1E81E4"><g><g><path d="M 11.34375 -12.734375 L 2.359375 -2.640625 C 1.972656 -2.210938 1.5625 -2.191406 1.125 -2.578125 L -17.40625 -19.09375 C -17.84375 -19.488281 -17.867188 -19.898438 -17.484375 -20.328125 L -8.5 -30.421875 C -8.125 -30.835938 -7.71875 -30.847656 -7.28125 -30.453125 L -5.1875 -28.59375 C -4.757812 -28.207031 -4.734375 -27.804688 -5.109375 -27.390625 L -10.84375 -20.953125 C -11.0625 -20.703125 -11.054688 -20.476562 -10.828125 -20.28125 L -6.8125 -16.703125 C -6.59375 -16.503906 -6.375 -16.53125 -6.15625 -16.78125 L -1.453125 -22.0625 C -1.066406 -22.488281 -0.65625 -22.503906 -0.21875 -22.109375 L 1.890625 -20.25 C 2.316406 -19.863281 2.335938 -19.457031 1.953125 -19.03125 L -2.75 -13.75 C -2.96875 -13.5 -2.96875 -13.273438 -2.75 -13.078125 L 1.546875 -9.25 C 1.773438 -9.050781 2 -9.078125 2.21875 -9.328125 L 7.953125 -15.765625 C 8.328125 -16.179688 8.734375 -16.191406 9.171875 -15.796875 L 11.25 -13.9375 C 11.6875 -13.550781 11.71875 -13.148438 11.34375 -12.734375 Z M 11.34375 -12.734375" transform="translate(103.02 134.667)"/></g></g></g><g fill="#1E81E4"><g><g><path d="M 13.640625 -10.25 L 2.828125 -2.125 C 2.378906 -1.78125 1.976562 -1.84375 1.625 -2.3125 L -13.28125 -22.15625 C -13.632812 -22.625 -13.585938 -23.03125 -13.140625 -23.375 L -2.328125 -31.5 C -1.890625 -31.832031 -1.492188 -31.765625 -1.140625 -31.296875 L 0.546875 -29.046875 C 0.890625 -28.585938 0.84375 -28.191406 0.40625 -27.859375 L -6.484375 -22.671875 C -6.753906 -22.472656 -6.796875 -22.253906 -6.609375 -22.015625 L -3.390625 -17.71875 C -3.203125 -17.476562 -2.972656 -17.457031 -2.703125 -17.65625 L 2.9375 -21.90625 C 3.394531 -22.25 3.796875 -22.1875 4.140625 -21.71875 L 5.828125 -19.46875 C 6.171875 -19.007812 6.113281 -18.609375 5.65625 -18.265625 L 0.015625 -14.015625 C -0.253906 -13.816406 -0.296875 -13.597656 -0.109375 -13.359375 L 3.34375 -8.765625 C 3.519531 -8.523438 3.742188 -8.503906 4.015625 -8.703125 L 10.90625 -13.890625 C 11.34375 -14.222656 11.738281 -14.15625 12.09375 -13.6875 L 13.765625 -11.453125 C 14.117188 -10.984375 14.078125 -10.582031 13.640625 -10.25 Z M 13.640625 -10.25" transform="translate(116.627 119.486)"/></g></g></g><g fill="#1E81E4"><g><g><path d="M -4.765625 -26.53125 L 6.796875 -4.5625 C 7.066406 -4.039062 6.945312 -3.648438 6.4375 -3.390625 L 3.328125 -1.75 C 2.816406 -1.476562 2.425781 -1.601562 2.15625 -2.125 L -9.40625 -24.09375 C -9.675781 -24.613281 -9.554688 -25.007812 -9.046875 -25.28125 L -5.9375 -26.921875 C -5.425781 -27.179688 -5.035156 -27.050781 -4.765625 -26.53125 Z M -4.765625 -26.53125" transform="translate(133.5 107.347)"/></g></g></g><g fill="#1E81E4"><g><g><path d="M 12.8125 -4.125 L 8.65625 -2.796875 C 6.582031 -2.117188 4.800781 -2.144531 3.3125 -2.875 C 1.832031 -3.613281 0.757812 -5.019531 0.09375 -7.09375 L -3.9375 -19.578125 C -4.601562 -21.648438 -4.546875 -23.414062 -3.765625 -24.875 C -2.992188 -26.34375 -1.570312 -27.414062 0.5 -28.09375 L 4.65625 -29.421875 C 6.707031 -30.085938 8.472656 -30.046875 9.953125 -29.296875 C 11.441406 -28.546875 12.515625 -27.148438 13.171875 -25.109375 L 13.5625 -23.921875 C 13.75 -23.335938 13.570312 -22.957031 13.03125 -22.78125 L 9.6875 -21.703125 C 9.132812 -21.523438 8.765625 -21.726562 8.578125 -22.3125 L 8.265625 -23.265625 C 7.992188 -24.085938 7.628906 -24.617188 7.171875 -24.859375 C 6.710938 -25.109375 6.066406 -25.101562 5.234375 -24.84375 L 2.671875 -24.015625 C 1.859375 -23.753906 1.332031 -23.382812 1.09375 -22.90625 C 0.851562 -22.4375 0.867188 -21.789062 1.140625 -20.96875 L 5.015625 -8.953125 C 5.285156 -8.117188 5.65625 -7.582031 6.125 -7.34375 C 6.59375 -7.101562 7.234375 -7.113281 8.046875 -7.375 L 10.609375 -8.203125 C 11.441406 -8.460938 11.972656 -8.828125 12.203125 -9.296875 C 12.429688 -9.765625 12.410156 -10.414062 12.140625 -11.25 L 11.34375 -13.734375 C 11.25 -14.023438 11.054688 -14.125 10.765625 -14.03125 L 8.40625 -13.265625 C 7.851562 -13.085938 7.488281 -13.269531 7.3125 -13.8125 L 6.453125 -16.5 C 6.265625 -17.050781 6.445312 -17.414062 7 -17.59375 L 13.875 -19.8125 C 14.476562 -20.007812 14.878906 -19.804688 15.078125 -19.203125 L 17.203125 -12.625 C 17.859375 -10.582031 17.800781 -8.820312 17.03125 -7.34375 C 16.269531 -5.863281 14.863281 -4.789062 12.8125 -4.125 Z M 12.8125 -4.125" transform="translate(143.891 101.415)"/></g></g></g><g fill="#1E81E4"><g><g><path d="M 6.953125 -0.578125 L 3.53125 -0.296875 C 2.957031 -0.242188 2.644531 -0.507812 2.59375 -1.09375 L 0.5625 -25.828125 C 0.507812 -26.410156 0.769531 -26.726562 1.34375 -26.78125 L 4.453125 -27.03125 C 5.015625 -27.070312 5.414062 -26.910156 5.65625 -26.546875 L 15.265625 -11.625 L 15.421875 -11.640625 L 14.15625 -26.953125 C 14.101562 -27.535156 14.363281 -27.847656 14.9375 -27.890625 L 18.375 -28.171875 C 18.9375 -28.222656 19.242188 -27.957031 19.296875 -27.375 L 21.328125 -2.640625 C 21.378906 -2.054688 21.125 -1.738281 20.5625 -1.6875 L 17.546875 -1.4375 C 16.941406 -1.394531 16.476562 -1.632812 16.15625 -2.15625 L 6.65625 -16.8125 L 6.5 -16.796875 L 7.75 -1.515625 C 7.800781 -0.929688 7.535156 -0.617188 6.953125 -0.578125 Z M 6.953125 -0.578125" transform="translate(165.566 94.36)"/></g></g></g><g fill="#1E81E4"><g><g><path d="M 16.90625 2.3125 L 3.515625 0.484375 C 2.941406 0.398438 2.695312 0.0703125 2.78125 -0.5 L 6.125 -25.109375 C 6.207031 -25.679688 6.535156 -25.925781 7.109375 -25.84375 L 20.5 -24.015625 C 21.039062 -23.941406 21.269531 -23.617188 21.1875 -23.046875 L 20.8125 -20.265625 C 20.738281 -19.691406 20.429688 -19.441406 19.890625 -19.515625 L 11.34375 -20.6875 C 11.007812 -20.726562 10.820312 -20.597656 10.78125 -20.296875 L 10.046875 -14.96875 C 10.003906 -14.675781 10.148438 -14.507812 10.484375 -14.46875 L 17.484375 -13.515625 C 18.046875 -13.429688 18.289062 -13.097656 18.21875 -12.515625 L 17.828125 -9.734375 C 17.753906 -9.160156 17.4375 -8.914062 16.875 -9 L 9.875 -9.953125 C 9.539062 -9.992188 9.351562 -9.867188 9.3125 -9.578125 L 8.53125 -3.875 C 8.488281 -3.570312 8.632812 -3.398438 8.96875 -3.359375 L 17.515625 -2.1875 C 18.054688 -2.113281 18.289062 -1.789062 18.21875 -1.21875 L 17.84375 1.5625 C 17.757812 2.132812 17.445312 2.382812 16.90625 2.3125 Z M 16.90625 2.3125" transform="translate(190.041 92.625)"/></g></g></g><g fill="#1E81E4"><g><g><path d="M 10.328125 3.515625 L 7.046875 2.390625 C 6.472656 2.203125 6.28125 1.832031 6.46875 1.28125 L 13.140625 -18.3125 C 13.234375 -18.601562 13.132812 -18.800781 12.84375 -18.90625 L 8.375 -20.421875 C 7.832031 -20.609375 7.65625 -20.972656 7.84375 -21.515625 L 8.75 -24.171875 C 8.9375 -24.722656 9.300781 -24.90625 9.84375 -24.71875 L 24.640625 -19.6875 C 25.191406 -19.5 25.375 -19.128906 25.1875 -18.578125 L 24.28125 -15.921875 C 24.09375 -15.378906 23.722656 -15.203125 23.171875 -15.390625 L 18.71875 -16.90625 C 18.40625 -17.007812 18.203125 -16.914062 18.109375 -16.625 L 11.4375 2.96875 C 11.25 3.519531 10.878906 3.703125 10.328125 3.515625 Z M 10.328125 3.515625" transform="translate(210.285 95.524)"/></g></g></g><g fill="#1E81E4"><g><g><path d="M 5.75 4.09375 L 2.890625 2.0625 C 2.421875 1.726562 2.359375 1.320312 2.703125 0.84375 L 17.109375 -19.359375 C 17.453125 -19.835938 17.859375 -19.910156 18.328125 -19.578125 L 29.0625 -11.921875 C 29.507812 -11.597656 29.5625 -11.195312 29.21875 -10.71875 L 27.59375 -8.4375 C 27.257812 -7.96875 26.867188 -7.894531 26.421875 -8.21875 L 19.671875 -13.03125 C 19.398438 -13.226562 19.175781 -13.203125 19 -12.953125 L 15.28125 -7.75 C 15.082031 -7.46875 15.117188 -7.226562 15.390625 -7.03125 L 21.140625 -2.9375 C 21.597656 -2.601562 21.660156 -2.203125 21.328125 -1.734375 L 19.71875 0.515625 C 19.363281 1.003906 18.957031 1.082031 18.5 0.75 L 12.75 -3.34375 C 12.476562 -3.539062 12.253906 -3.515625 12.078125 -3.265625 L 6.984375 3.890625 C 6.640625 4.367188 6.226562 4.4375 5.75 4.09375 Z M 5.75 4.09375" transform="translate(237.858 106.643)"/></g></g></g><g fill="#1E81E4"><g><g><path d="M 25.671875 -16.53125 L 28.34375 -18.984375 C 28.75 -19.359375 29.132812 -19.347656 29.5 -18.953125 L 31.734375 -16.53125 C 32.078125 -16.144531 32.054688 -15.773438 31.671875 -15.421875 L 28.96875 -12.9375 C 28.539062 -12.539062 28.15625 -12.535156 27.8125 -12.921875 L 25.578125 -15.34375 C 25.210938 -15.738281 25.242188 -16.132812 25.671875 -16.53125 Z M 31 -10.734375 L 33.671875 -13.1875 C 34.078125 -13.5625 34.457031 -13.5625 34.8125 -13.1875 L 37.046875 -10.75 C 37.398438 -10.363281 37.382812 -9.992188 37 -9.640625 L 34.296875 -7.15625 C 33.867188 -6.757812 33.476562 -6.753906 33.125 -7.140625 L 30.890625 -9.578125 C 30.535156 -9.953125 30.570312 -10.335938 31 -10.734375 Z M 30.578125 -6 L 32.921875 -3.4375 C 33.335938 -2.988281 33.34375 -2.578125 32.9375 -2.203125 L 18.9375 10.65625 C 17.363281 12.113281 15.738281 12.796875 14.0625 12.703125 C 12.382812 12.609375 10.820312 11.769531 9.375 10.1875 L 6.296875 6.84375 C 4.816406 5.238281 4.101562 3.609375 4.15625 1.953125 C 4.207031 0.304688 5.035156 -1.253906 6.640625 -2.734375 L 20.609375 -15.5625 C 21.035156 -15.957031 21.441406 -15.941406 21.828125 -15.515625 L 24.203125 -12.9375 C 24.597656 -12.507812 24.582031 -12.097656 24.15625 -11.703125 L 10.375 0.96875 C 9.726562 1.5625 9.390625 2.117188 9.359375 2.640625 C 9.335938 3.171875 9.613281 3.75 10.1875 4.375 L 12.125 6.484375 C 12.71875 7.128906 13.28125 7.460938 13.8125 7.484375 C 14.34375 7.515625 14.929688 7.234375 15.578125 6.640625 L 29.359375 -6.03125 C 29.785156 -6.425781 30.191406 -6.414062 30.578125 -6 Z M 30.578125 -6" transform="translate(253.525 117.59)"/></g></g></g><g fill="#1E81E4"><g><g><path d="M 3.5 6.140625 L 1.75 3.078125 C 1.46875 2.578125 1.582031 2.179688 2.09375 1.890625 L 23.65625 -10.390625 C 24.164062 -10.679688 24.5625 -10.578125 24.84375 -10.078125 L 29.71875 -1.515625 C 30.78125 0.347656 31.09375 2.097656 30.65625 3.734375 C 30.226562 5.378906 29.082031 6.734375 27.21875 7.796875 L 24.421875 9.390625 C 21.710938 10.929688 19.3125 10.890625 17.21875 9.265625 L 17.0625 9.359375 L 11.25 17.765625 C 10.789062 18.296875 10.390625 18.253906 10.046875 17.640625 L 8.375 14.71875 C 8.132812 14.289062 8.003906 13.957031 7.984375 13.71875 C 7.972656 13.476562 8.09375 13.195312 8.34375 12.875 L 14.0625 4.890625 L 12.6875 2.484375 C 12.519531 2.191406 12.304688 2.117188 12.046875 2.265625 L 4.6875 6.453125 C 4.175781 6.742188 3.78125 6.640625 3.5 6.140625 Z M 16.328125 0.359375 L 18.328125 3.875 C 18.765625 4.644531 19.242188 5.113281 19.765625 5.28125 C 20.296875 5.457031 20.921875 5.34375 21.640625 4.9375 L 24.453125 3.328125 C 25.191406 2.910156 25.625 2.425781 25.75 1.875 C 25.882812 1.332031 25.734375 0.675781 25.296875 -0.09375 L 23.296875 -3.609375 C 23.140625 -3.878906 22.929688 -3.9375 22.671875 -3.78125 L 16.5 -0.265625 C 16.226562 -0.117188 16.171875 0.0859375 16.328125 0.359375 Z M 16.328125 0.359375" transform="translate(269.34 134.894)"/></g></g></g><g fill="#1E81E4"><g><g><path d="M 6.484375 12 L 4.375 8.09375 C 3.332031 6.164062 3.039062 4.390625 3.5 2.765625 C 3.957031 1.148438 5.160156 -0.179688 7.109375 -1.234375 L 18.78125 -7.53125 C 20.71875 -8.570312 22.488281 -8.835938 24.09375 -8.328125 C 25.695312 -7.828125 27.019531 -6.613281 28.0625 -4.6875 L 30.171875 -0.78125 C 31.203125 1.132812 31.484375 2.898438 31.015625 4.515625 C 30.546875 6.140625 29.351562 7.46875 27.4375 8.5 L 26.328125 9.09375 C 25.785156 9.382812 25.367188 9.269531 25.078125 8.75 L 23.40625 5.640625 C 23.125 5.109375 23.253906 4.695312 23.796875 4.40625 L 24.6875 3.9375 C 25.46875 3.507812 25.9375 3.050781 26.09375 2.5625 C 26.257812 2.070312 26.128906 1.429688 25.703125 0.640625 L 24.40625 -1.75 C 24 -2.507812 23.539062 -2.96875 23.03125 -3.125 C 22.519531 -3.28125 21.875 -3.144531 21.09375 -2.71875 L 9.859375 3.34375 C 9.066406 3.769531 8.59375 4.238281 8.4375 4.75 C 8.289062 5.257812 8.421875 5.894531 8.828125 6.65625 L 10.125 9.046875 C 10.550781 9.835938 11.015625 10.300781 11.515625 10.4375 C 12.015625 10.570312 12.660156 10.425781 13.453125 10 L 15.765625 8.75 C 16.035156 8.601562 16.097656 8.398438 15.953125 8.140625 L 14.75 5.921875 C 14.476562 5.410156 14.597656 5.015625 15.109375 4.734375 L 17.609375 3.390625 C 18.140625 3.109375 18.539062 3.222656 18.8125 3.734375 L 22.296875 10.1875 C 22.609375 10.75 22.476562 11.179688 21.90625 11.484375 L 15.765625 14.796875 C 13.847656 15.835938 12.078125 16.109375 10.453125 15.609375 C 8.835938 15.117188 7.515625 13.914062 6.484375 12 Z M 6.484375 12" transform="translate(71.406 242.034)"/></g></g></g><g fill="#1E81E4"><g><g><path d="M 3.640625 4.15625 L 0.984375 1.125 C 0.660156 0.75 0.769531 0.429688 1.3125 0.171875 L 24.609375 -11.421875 C 25.171875 -11.671875 25.664062 -11.554688 26.09375 -11.078125 L 29.765625 -6.890625 C 30.222656 -6.367188 30.273438 -5.851562 29.921875 -5.34375 L 15.359375 16.203125 C 15.035156 16.710938 14.707031 16.78125 14.375 16.40625 L 11.734375 13.390625 C 11.523438 13.148438 11.429688 12.945312 11.453125 12.78125 C 11.472656 12.613281 11.585938 12.398438 11.796875 12.140625 L 14.5 8.21875 L 9.125 2.09375 L 4.875 4.234375 C 4.59375 4.421875 4.359375 4.503906 4.171875 4.484375 C 3.992188 4.472656 3.816406 4.363281 3.640625 4.15625 Z M 24.0625 -5.671875 L 12.984375 0.03125 L 17.0625 4.6875 L 24.171875 -5.546875 Z M 24.0625 -5.671875" transform="translate(85.478 266.824)"/></g></g></g><g fill="#1E81E4"><g><g><path d="M 5.6875 -4.34375 L 6.171875 -5.03125 C 6.515625 -5.5 6.925781 -5.5625 7.40625 -5.21875 L 10.28125 -3.125 C 10.757812 -2.78125 10.828125 -2.375 10.484375 -1.90625 L 10.296875 -1.640625 C 9.671875 -0.773438 9.410156 -0.0664062 9.515625 0.484375 C 9.628906 1.046875 10.132812 1.65625 11.03125 2.3125 L 12.625 3.46875 C 13.507812 4.101562 14.25 4.378906 14.84375 4.296875 C 15.4375 4.210938 16.070312 3.707031 16.75 2.78125 L 17.046875 2.390625 C 17.515625 1.722656 17.613281 1.019531 17.34375 0.28125 C 17.070312 -0.445312 16.5625 -1.128906 15.8125 -1.765625 C 15.070312 -2.410156 14.3125 -3.15625 13.53125 -4 C 12.757812 -4.851562 12.085938 -5.71875 11.515625 -6.59375 C 10.953125 -7.476562 10.726562 -8.554688 10.84375 -9.828125 C 10.957031 -11.109375 11.519531 -12.445312 12.53125 -13.84375 L 13.390625 -15.03125 C 14.671875 -16.800781 16.160156 -17.8125 17.859375 -18.0625 C 19.566406 -18.320312 21.300781 -17.816406 23.0625 -16.546875 L 26.453125 -14.078125 C 28.234375 -12.785156 29.265625 -11.289062 29.546875 -9.59375 C 29.835938 -7.894531 29.34375 -6.160156 28.0625 -4.390625 L 27.59375 -3.75 C 27.257812 -3.28125 26.851562 -3.222656 26.375 -3.578125 L 23.5 -5.65625 C 23.019531 -6 22.945312 -6.40625 23.28125 -6.875 L 23.4375 -7.078125 C 24.070312 -7.960938 24.335938 -8.6875 24.234375 -9.25 C 24.140625 -9.8125 23.640625 -10.421875 22.734375 -11.078125 L 21.40625 -12.046875 C 20.488281 -12.710938 19.738281 -12.988281 19.15625 -12.875 C 18.570312 -12.769531 17.910156 -12.207031 17.171875 -11.1875 L 16.703125 -10.53125 C 15.929688 -9.46875 16.414062 -8.1875 18.15625 -6.6875 C 19.945312 -5.144531 21.375 -3.523438 22.4375 -1.828125 C 22.976562 -0.910156 23.195312 0.171875 23.09375 1.421875 C 23 2.679688 22.457031 3.988281 21.46875 5.34375 L 20.640625 6.5 C 19.359375 8.257812 17.867188 9.257812 16.171875 9.5 C 14.472656 9.75 12.742188 9.238281 10.984375 7.96875 L 7.28125 5.28125 C 5.519531 4.007812 4.492188 2.523438 4.203125 0.828125 C 3.910156 -0.859375 4.40625 -2.582031 5.6875 -4.34375 Z M 5.6875 -4.34375" transform="translate(105.087 288.173)"/></g></g></g><g fill="#1E81E4"><g><g><path d="M 10.0625 4.546875 L 6.859375 3.109375 C 6.296875 2.847656 6.132812 2.453125 6.375 1.921875 L 15.015625 -17.1875 C 15.140625 -17.46875 15.066406 -17.671875 14.796875 -17.796875 L 10.4375 -19.765625 C 9.90625 -20.003906 9.757812 -20.390625 10 -20.921875 L 11.171875 -23.515625 C 11.421875 -24.054688 11.8125 -24.207031 12.34375 -23.96875 L 26.765625 -17.4375 C 27.296875 -17.195312 27.4375 -16.804688 27.1875 -16.265625 L 26.015625 -13.671875 C 25.773438 -13.140625 25.390625 -12.992188 24.859375 -13.234375 L 20.515625 -15.203125 C 20.210938 -15.335938 20 -15.265625 19.875 -14.984375 L 11.234375 4.125 C 10.992188 4.65625 10.601562 4.796875 10.0625 4.546875 Z M 10.0625 4.546875" transform="translate(128.15 303.974)"/></g></g></g><g fill="#1E81E4"><g><g><path d="M 6.984375 1.5625 L 3.5 0.78125 C 2.9375 0.65625 2.71875 0.304688 2.84375 -0.265625 L 8.34375 -24.8125 C 8.46875 -25.382812 8.8125 -25.609375 9.375 -25.484375 L 19.109375 -23.296875 C 21.234375 -22.828125 22.765625 -21.867188 23.703125 -20.421875 C 24.640625 -18.984375 24.867188 -17.203125 24.390625 -15.078125 L 23.6875 -11.890625 C 23 -8.816406 21.328125 -7.046875 18.671875 -6.578125 L 18.640625 -6.421875 L 20.96875 3.671875 C 21.070312 4.367188 20.765625 4.640625 20.046875 4.484375 L 16.734375 3.75 C 16.253906 3.632812 15.914062 3.5 15.71875 3.34375 C 15.53125 3.195312 15.40625 2.925781 15.34375 2.53125 L 13.234375 -7.203125 L 10.515625 -7.828125 C 10.179688 -7.898438 9.976562 -7.78125 9.90625 -7.46875 L 8.03125 0.890625 C 7.90625 1.460938 7.554688 1.6875 6.984375 1.5625 Z M 11.390625 -11.984375 L 15.390625 -11.09375 C 16.253906 -10.894531 16.929688 -10.9375 17.421875 -11.21875 C 17.921875 -11.5 18.265625 -12.046875 18.453125 -12.859375 L 19.15625 -16.046875 C 19.34375 -16.890625 19.273438 -17.546875 18.953125 -18.015625 C 18.628906 -18.492188 18.035156 -18.832031 17.171875 -19.03125 L 13.171875 -19.921875 C 12.867188 -19.992188 12.679688 -19.875 12.609375 -19.5625 L 11.046875 -12.546875 C 10.972656 -12.242188 11.085938 -12.054688 11.390625 -11.984375 Z M 11.390625 -11.984375" transform="translate(150.148 313.552)"/></g></g></g><g fill="#1E81E4"><g><g><path d="M 10.03125 -4.65625 L 13 -4.65625 C 13.894531 -4.664062 14.53125 -4.859375 14.90625 -5.234375 C 15.28125 -5.609375 15.460938 -6.242188 15.453125 -7.140625 L 15.40625 -19.90625 C 15.40625 -20.800781 15.210938 -21.4375 14.828125 -21.8125 C 14.453125 -22.1875 13.816406 -22.367188 12.921875 -22.359375 L 9.953125 -22.359375 C 9.054688 -22.347656 8.429688 -22.15625 8.078125 -21.78125 C 7.722656 -21.40625 7.546875 -20.769531 7.546875 -19.875 L 7.59375 -7.109375 C 7.601562 -6.210938 7.785156 -5.578125 8.140625 -5.203125 C 8.503906 -4.828125 9.132812 -4.644531 10.03125 -4.65625 Z M 13.890625 -0.0625 L 9.203125 -0.03125 C 7.003906 -0.0195312 5.300781 -0.597656 4.09375 -1.765625 C 2.882812 -2.941406 2.273438 -4.632812 2.265625 -6.84375 L 2.21875 -20.109375 C 2.207031 -22.316406 2.800781 -24.003906 4 -25.171875 C 5.195312 -26.347656 6.894531 -26.941406 9.09375 -26.953125 L 13.78125 -26.984375 C 15.988281 -26.984375 17.691406 -26.398438 18.890625 -25.234375 C 20.097656 -24.066406 20.707031 -22.378906 20.71875 -20.171875 L 20.765625 -6.90625 C 20.773438 -4.695312 20.179688 -3.003906 18.984375 -1.828125 C 17.796875 -0.648438 16.097656 -0.0625 13.890625 -0.0625 Z M 13.890625 -0.0625" transform="translate(178.168 319.182)"/></g></g></g><g fill="#1E81E4"><g><g><path d="M 6.890625 -1.640625 L 3.5 -0.84375 C 2.925781 -0.707031 2.570312 -0.921875 2.4375 -1.484375 L -3.421875 -25.953125 C -3.554688 -26.535156 -3.335938 -26.894531 -2.765625 -27.03125 L 0.28125 -27.75 C 0.863281 -27.894531 1.289062 -27.796875 1.5625 -27.453125 L 13.46875 -14 L 13.640625 -14.03125 L 10.015625 -29.15625 C 9.878906 -29.738281 10.09375 -30.097656 10.65625 -30.234375 L 14.046875 -31.046875 C 14.617188 -31.179688 14.972656 -30.957031 15.109375 -30.375 L 20.96875 -5.90625 C 21.101562 -5.34375 20.882812 -4.992188 20.3125 -4.859375 L 17.34375 -4.15625 C 16.738281 -4.007812 16.238281 -4.179688 15.84375 -4.671875 L 4.09375 -17.84375 L 3.921875 -17.8125 L 7.53125 -2.703125 C 7.664062 -2.140625 7.453125 -1.785156 6.890625 -1.640625 Z M 6.890625 -1.640625" transform="translate(207.045 318.477)"/></g></g></g><g fill="#1E81E4"><g><g><path d="M 6.890625 -8.640625 L 9.546875 -9.96875 C 10.347656 -10.375 10.832031 -10.828125 11 -11.328125 C 11.164062 -11.828125 11.046875 -12.476562 10.640625 -13.28125 L 4.90625 -24.6875 C 4.507812 -25.476562 4.054688 -25.957031 3.546875 -26.125 C 3.046875 -26.300781 2.394531 -26.1875 1.59375 -25.78125 L -1.0625 -24.453125 C -1.851562 -24.046875 -2.320312 -23.59375 -2.46875 -23.09375 C -2.625 -22.59375 -2.503906 -21.945312 -2.109375 -21.15625 L 3.625 -9.75 C 4.03125 -8.945312 4.476562 -8.457031 4.96875 -8.28125 C 5.457031 -8.113281 6.097656 -8.234375 6.890625 -8.640625 Z M 12.40625 -6.234375 L 8.21875 -4.140625 C 6.257812 -3.148438 4.476562 -2.90625 2.875 -3.40625 C 1.269531 -3.914062 -0.0234375 -5.15625 -1.015625 -7.125 L -6.984375 -18.984375 C -7.972656 -20.953125 -8.191406 -22.726562 -7.640625 -24.3125 C -7.085938 -25.90625 -5.832031 -27.195312 -3.875 -28.1875 L 0.3125 -30.28125 C 2.289062 -31.28125 4.078125 -31.523438 5.671875 -31.015625 C 7.265625 -30.503906 8.554688 -29.265625 9.546875 -27.296875 L 15.515625 -15.4375 C 16.503906 -13.46875 16.726562 -11.691406 16.1875 -10.109375 C 15.644531 -8.523438 14.382812 -7.234375 12.40625 -6.234375 Z M 12.40625 -6.234375" transform="translate(236.282 310.708)"/></g></g></g><g fill="#1E81E4"><g><g><path d="M -2.34375 -33.8125 L 2.296875 -37.90625 C 2.734375 -38.289062 3.144531 -38.265625 3.53125 -37.828125 L 20.171875 -18.953125 C 20.554688 -18.515625 20.53125 -18.101562 20.09375 -17.71875 L 17.515625 -15.453125 C 17.078125 -15.066406 16.664062 -15.09375 16.28125 -15.53125 L 3.15625 -30.421875 L 3.03125 -30.296875 L 9.09375 -16.96875 C 9.34375 -16.425781 9.269531 -15.984375 8.875 -15.640625 L 6.234375 -13.3125 C 5.835938 -12.957031 5.390625 -12.9375 4.890625 -13.25 L -7.671875 -20.921875 L -7.796875 -20.8125 L 5.359375 -5.890625 C 5.578125 -5.640625 5.6875 -5.429688 5.6875 -5.265625 C 5.6875 -5.097656 5.550781 -4.894531 5.28125 -4.65625 L 2.703125 -2.375 C 2.265625 -1.988281 1.851562 -2.015625 1.46875 -2.453125 L -15.171875 -21.328125 C -15.554688 -21.765625 -15.53125 -22.175781 -15.09375 -22.5625 L -10.40625 -26.703125 C -10.125 -26.953125 -9.800781 -26.976562 -9.4375 -26.78125 L 3.65625 -18.625 L 3.859375 -18.796875 L -2.5625 -32.84375 C -2.757812 -33.1875 -2.6875 -33.507812 -2.34375 -33.8125 Z M -2.34375 -33.8125" transform="translate(262.276 297.269)"/></g></g></g><g fill="#1E81E4"><g><g><path d="M -15.875 -22.203125 L 4.25 -7.125 C 4.71875 -6.769531 4.773438 -6.363281 4.421875 -5.90625 L 2.28125 -3.046875 C 1.9375 -2.578125 1.53125 -2.519531 1.0625 -2.875 L -19.0625 -17.953125 C -19.539062 -18.304688 -19.609375 -18.71875 -19.265625 -19.1875 L -17.125 -22.046875 C -16.769531 -22.503906 -16.351562 -22.554688 -15.875 -22.203125 Z M -15.875 -22.203125" transform="translate(288.053 272.494)"/></g></g></g><g fill="#1E81E4"><g><g><path d="M 8.03125 -15.3125 L 1.671875 -3.1875 C 1.398438 -2.664062 1.003906 -2.539062 0.484375 -2.8125 L -21.78125 -14.5 C -22.3125 -14.769531 -22.441406 -15.164062 -22.171875 -15.6875 L -15.8125 -27.8125 C -15.550781 -28.300781 -15.15625 -28.410156 -14.625 -28.140625 L -12.109375 -26.8125 C -11.597656 -26.539062 -11.472656 -26.160156 -11.734375 -25.671875 L -15.796875 -17.921875 C -15.953125 -17.617188 -15.890625 -17.394531 -15.609375 -17.25 L -10.796875 -14.734375 C -10.523438 -14.585938 -10.3125 -14.664062 -10.15625 -14.96875 L -6.828125 -21.3125 C -6.554688 -21.832031 -6.160156 -21.957031 -5.640625 -21.6875 L -3.125 -20.359375 C -2.601562 -20.085938 -2.476562 -19.691406 -2.75 -19.171875 L -6.078125 -12.828125 C -6.234375 -12.523438 -6.175781 -12.304688 -5.90625 -12.171875 L -0.75 -9.453125 C -0.476562 -9.316406 -0.265625 -9.398438 -0.109375 -9.703125 L 3.953125 -17.453125 C 4.210938 -17.941406 4.601562 -18.050781 5.125 -17.78125 L 7.640625 -16.453125 C 8.160156 -16.179688 8.289062 -15.800781 8.03125 -15.3125 Z M 8.03125 -15.3125" transform="translate(297.668 259.611)"/></g></g></g></svg>