<svg xmlns="http://www.w3.org/2000/svg" width="375" viewBox="0 0 375 375" height="375" version="1.0"><path fill="#FFF" d="M-37.5 -37.5H412.5V412.5H-37.5z"/><path fill="#FFF" d="M-37.5 -37.5H412.5V412.5H-37.5z"/><path fill="#1E81E4" d="M 187.507812 344.40625 C 147.492188 344.40625 109.8125 328.828125 81.539062 300.496094 C 53.203125 272.21875 37.628906 234.539062 37.628906 194.523438 C 37.628906 154.507812 53.203125 116.828125 81.539062 88.554688 C 109.8125 60.21875 147.492188 44.644531 187.507812 44.644531 C 227.523438 44.644531 265.203125 60.21875 293.476562 88.554688 C 321.8125 116.886719 337.386719 154.507812 337.386719 194.523438 C 337.386719 234.539062 321.8125 272.21875 293.476562 300.496094 C 265.203125 328.828125 227.523438 344.40625 187.507812 344.40625 Z M 187.507812 53.628906 C 149.886719 53.628906 114.484375 68.304688 87.886719 94.902344 C 61.289062 121.5 46.613281 156.90625 46.613281 194.523438 C 46.613281 232.144531 61.289062 267.546875 87.886719 294.144531 C 114.484375 320.742188 149.886719 335.417969 187.507812 335.417969 C 225.128906 335.417969 260.53125 320.742188 287.128906 294.144531 C 313.726562 267.546875 328.402344 232.144531 328.402344 194.523438 C 328.402344 156.90625 313.726562 121.5 287.128906 94.902344 C 260.53125 68.304688 225.128906 53.628906 187.507812 53.628906 Z M 187.507812 53.628906"/><g fill="#1E81E4"><g><g><path d="M 2.75 -9.1875 L 2.75 -10.296875 C 2.75 -11.085938 3.140625 -11.484375 3.921875 -11.484375 L 8.6875 -11.484375 C 9.46875 -11.484375 9.859375 -11.085938 9.859375 -10.296875 L 9.859375 -9.859375 C 9.859375 -8.441406 10.132812 -7.46875 10.6875 -6.9375 C 11.25 -6.414062 12.28125 -6.15625 13.78125 -6.15625 L 16.40625 -6.15625 C 17.863281 -6.15625 18.878906 -6.4375 19.453125 -7 C 20.035156 -7.5625 20.328125 -8.609375 20.328125 -10.140625 L 20.328125 -10.8125 C 20.328125 -11.894531 19.890625 -12.722656 19.015625 -13.296875 C 18.140625 -13.878906 17.046875 -14.222656 15.734375 -14.328125 C 14.429688 -14.441406 13.019531 -14.65625 11.5 -14.96875 C 9.988281 -15.289062 8.578125 -15.703125 7.265625 -16.203125 C 5.960938 -16.710938 4.875 -17.703125 4 -19.171875 C 3.125 -20.648438 2.6875 -22.546875 2.6875 -24.859375 L 2.6875 -26.828125 C 2.6875 -29.734375 3.503906 -31.988281 5.140625 -33.59375 C 6.785156 -35.207031 9.066406 -36.015625 11.984375 -36.015625 L 17.578125 -36.015625 C 20.535156 -36.015625 22.832031 -35.207031 24.46875 -33.59375 C 26.113281 -31.988281 26.9375 -29.734375 26.9375 -26.828125 L 26.9375 -25.765625 C 26.9375 -24.972656 26.546875 -24.578125 25.765625 -24.578125 L 21 -24.578125 C 20.21875 -24.578125 19.828125 -24.972656 19.828125 -25.765625 L 19.828125 -26.09375 C 19.828125 -27.550781 19.546875 -28.539062 18.984375 -29.0625 C 18.421875 -29.582031 17.394531 -29.84375 15.90625 -29.84375 L 13.71875 -29.84375 C 12.1875 -29.84375 11.148438 -29.550781 10.609375 -28.96875 C 10.066406 -28.394531 9.796875 -27.269531 9.796875 -25.59375 L 9.796875 -24.53125 C 9.796875 -22.769531 11.328125 -21.757812 14.390625 -21.5 C 17.566406 -21.238281 20.382812 -20.601562 22.84375 -19.59375 C 24.15625 -19.039062 25.25 -18.046875 26.125 -16.609375 C 27 -15.171875 27.4375 -13.332031 27.4375 -11.09375 L 27.4375 -9.1875 C 27.4375 -6.269531 26.613281 -4.007812 24.96875 -2.40625 C 23.332031 -0.800781 21.054688 0 18.140625 0 L 12.046875 0 C 9.128906 0 6.847656 -0.800781 5.203125 -2.40625 C 3.566406 -4.007812 2.75 -6.269531 2.75 -9.1875 Z M 2.75 -9.1875" transform="translate(88.373 179.22)"/></g></g></g><g fill="#1E81E4"><g><g><path d="M 13.4375 -6.15625 L 17.421875 -6.15625 C 18.609375 -6.15625 19.453125 -6.40625 19.953125 -6.90625 C 20.460938 -7.414062 20.71875 -8.269531 20.71875 -9.46875 L 20.71875 -26.546875 C 20.71875 -27.742188 20.460938 -28.59375 19.953125 -29.09375 C 19.453125 -29.59375 18.609375 -29.84375 17.421875 -29.84375 L 13.4375 -29.84375 C 12.238281 -29.84375 11.394531 -29.59375 10.90625 -29.09375 C 10.425781 -28.59375 10.1875 -27.742188 10.1875 -26.546875 L 10.1875 -9.46875 C 10.1875 -8.269531 10.425781 -7.414062 10.90625 -6.90625 C 11.394531 -6.40625 12.238281 -6.15625 13.4375 -6.15625 Z M 18.59375 0 L 12.3125 0 C 9.363281 0 7.085938 -0.78125 5.484375 -2.34375 C 3.878906 -3.914062 3.078125 -6.175781 3.078125 -9.125 L 3.078125 -26.875 C 3.078125 -29.820312 3.878906 -32.082031 5.484375 -33.65625 C 7.085938 -35.226562 9.363281 -36.015625 12.3125 -36.015625 L 18.59375 -36.015625 C 21.539062 -36.015625 23.816406 -35.226562 25.421875 -33.65625 C 27.023438 -32.082031 27.828125 -29.820312 27.828125 -26.875 L 27.828125 -9.125 C 27.828125 -6.175781 27.023438 -3.914062 25.421875 -2.34375 C 23.816406 -0.78125 21.539062 0 18.59375 0 Z M 18.59375 0" transform="translate(122.473 179.22)"/></g></g></g><g fill="#1E81E4"><g><g><path d="M 9.46875 0 L 4.8125 0 C 4.03125 0 3.640625 -0.390625 3.640625 -1.171875 L 3.640625 -34.828125 C 3.640625 -35.617188 4.03125 -36.015625 4.8125 -36.015625 L 9.015625 -36.015625 C 9.796875 -36.015625 10.316406 -35.75 10.578125 -35.21875 L 21.890625 -14 L 22.125 -14 L 22.125 -34.828125 C 22.125 -35.617188 22.515625 -36.015625 23.296875 -36.015625 L 27.9375 -36.015625 C 28.726562 -36.015625 29.125 -35.617188 29.125 -34.828125 L 29.125 -1.171875 C 29.125 -0.390625 28.726562 0 27.9375 0 L 23.859375 0 C 23.035156 0 22.4375 -0.375 22.0625 -1.125 L 10.859375 -21.953125 L 10.640625 -21.953125 L 10.640625 -1.171875 C 10.640625 -0.390625 10.25 0 9.46875 0 Z M 9.46875 0" transform="translate(157.3 179.22)"/></g></g></g><g fill="#1E81E4"><g><g><path d="M 11.375 -6.15625 L 17.46875 -6.15625 C 18.664062 -6.15625 19.515625 -6.40625 20.015625 -6.90625 C 20.523438 -7.414062 20.78125 -8.269531 20.78125 -9.46875 L 20.78125 -26.546875 C 20.78125 -27.742188 20.523438 -28.59375 20.015625 -29.09375 C 19.515625 -29.59375 18.664062 -29.84375 17.46875 -29.84375 L 11.375 -29.84375 C 10.957031 -29.84375 10.75 -29.640625 10.75 -29.234375 L 10.75 -6.78125 C 10.75 -6.363281 10.957031 -6.15625 11.375 -6.15625 Z M 3.640625 -1.171875 L 3.640625 -34.828125 C 3.640625 -35.617188 4.03125 -36.015625 4.8125 -36.015625 L 18.640625 -36.015625 C 21.554688 -36.015625 23.828125 -35.21875 25.453125 -33.625 C 27.078125 -32.039062 27.890625 -29.789062 27.890625 -26.875 L 27.890625 -9.125 C 27.890625 -6.21875 27.078125 -3.96875 25.453125 -2.375 C 23.828125 -0.789062 21.554688 0 18.640625 0 L 4.8125 0 C 4.03125 0 3.640625 -0.390625 3.640625 -1.171875 Z M 3.640625 -1.171875" transform="translate(193.976 179.22)"/></g></g></g><g fill="#1E81E4"><g><g><path d="M 23.125 0 L 4.8125 0 C 4.03125 0 3.640625 -0.390625 3.640625 -1.171875 L 3.640625 -34.828125 C 3.640625 -35.617188 4.03125 -36.015625 4.8125 -36.015625 L 23.125 -36.015625 C 23.875 -36.015625 24.25 -35.617188 24.25 -34.828125 L 24.25 -31.03125 C 24.25 -30.238281 23.875 -29.84375 23.125 -29.84375 L 11.421875 -29.84375 C 10.972656 -29.84375 10.75 -29.640625 10.75 -29.234375 L 10.75 -21.953125 C 10.75 -21.546875 10.972656 -21.34375 11.421875 -21.34375 L 21 -21.34375 C 21.78125 -21.34375 22.171875 -20.945312 22.171875 -20.15625 L 22.171875 -16.359375 C 22.171875 -15.566406 21.78125 -15.171875 21 -15.171875 L 11.421875 -15.171875 C 10.972656 -15.171875 10.75 -14.96875 10.75 -14.5625 L 10.75 -6.78125 C 10.75 -6.363281 10.972656 -6.15625 11.421875 -6.15625 L 23.125 -6.15625 C 23.875 -6.15625 24.25 -5.765625 24.25 -4.984375 L 24.25 -1.171875 C 24.25 -0.390625 23.875 0 23.125 0 Z M 23.125 0" transform="translate(228.86 179.22)"/></g></g></g><g fill="#1E81E4"><g><g><path d="M 9.578125 0 L 4.8125 0 C 4.03125 0 3.640625 -0.390625 3.640625 -1.171875 L 3.640625 -34.828125 C 3.640625 -35.617188 4.03125 -36.015625 4.8125 -36.015625 L 18.140625 -36.015625 C 21.054688 -36.015625 23.332031 -35.207031 24.96875 -33.59375 C 26.613281 -31.988281 27.4375 -29.734375 27.4375 -26.828125 L 27.4375 -22.453125 C 27.4375 -18.234375 25.773438 -15.4375 22.453125 -14.0625 L 22.453125 -13.828125 L 28.453125 -1.34375 C 28.785156 -0.445312 28.46875 0 27.5 0 L 22.953125 0 C 22.285156 0 21.800781 -0.0703125 21.5 -0.21875 C 21.207031 -0.375 20.96875 -0.691406 20.78125 -1.171875 L 15.171875 -13.265625 L 11.421875 -13.265625 C 10.972656 -13.265625 10.75 -13.0625 10.75 -12.65625 L 10.75 -1.171875 C 10.75 -0.390625 10.359375 0 9.578125 0 Z M 11.375 -18.984375 L 16.859375 -18.984375 C 18.046875 -18.984375 18.921875 -19.234375 19.484375 -19.734375 C 20.046875 -20.242188 20.328125 -21.054688 20.328125 -22.171875 L 20.328125 -26.546875 C 20.328125 -27.703125 20.046875 -28.539062 19.484375 -29.0625 C 18.921875 -29.582031 18.046875 -29.84375 16.859375 -29.84375 L 11.375 -29.84375 C 10.957031 -29.84375 10.75 -29.640625 10.75 -29.234375 L 10.75 -19.59375 C 10.75 -19.1875 10.957031 -18.984375 11.375 -18.984375 Z M 11.375 -18.984375" transform="translate(259.6 179.22)"/></g></g></g><g fill="#1E81E4"><g><g><path d="M 7.390625 0 L 2.015625 0 C 1.347656 0 1.125 -0.390625 1.34375 -1.171875 L 10.1875 -34.828125 C 10.445312 -35.617188 11.007812 -36.015625 11.875 -36.015625 L 19.3125 -36.015625 C 20.25 -36.015625 20.8125 -35.617188 21 -34.828125 L 29.84375 -1.171875 C 30.070312 -0.390625 29.847656 0 29.171875 0 L 23.796875 0 C 23.390625 0 23.109375 -0.0820312 22.953125 -0.25 C 22.804688 -0.414062 22.695312 -0.722656 22.625 -1.171875 L 21.0625 -7.34375 L 10.140625 -7.34375 L 8.5625 -1.171875 C 8.488281 -0.722656 8.367188 -0.414062 8.203125 -0.25 C 8.035156 -0.0820312 7.765625 0 7.390625 0 Z M 15.515625 -29.234375 L 11.484375 -13.046875 L 19.765625 -13.046875 L 15.734375 -29.234375 Z M 15.515625 -29.234375" transform="translate(73.508 238.805)"/></g></g></g><g fill="#1E81E4"><g><g><path d="M 9.46875 0 L 4.8125 0 C 4.03125 0 3.640625 -0.390625 3.640625 -1.171875 L 3.640625 -34.828125 C 3.640625 -35.617188 4.03125 -36.015625 4.8125 -36.015625 L 9.015625 -36.015625 C 9.796875 -36.015625 10.316406 -35.75 10.578125 -35.21875 L 21.890625 -14 L 22.125 -14 L 22.125 -34.828125 C 22.125 -35.617188 22.515625 -36.015625 23.296875 -36.015625 L 27.9375 -36.015625 C 28.726562 -36.015625 29.125 -35.617188 29.125 -34.828125 L 29.125 -1.171875 C 29.125 -0.390625 28.726562 0 27.9375 0 L 23.859375 0 C 23.035156 0 22.4375 -0.375 22.0625 -1.125 L 10.859375 -21.953125 L 10.640625 -21.953125 L 10.640625 -1.171875 C 10.640625 -0.390625 10.25 0 9.46875 0 Z M 9.46875 0" transform="translate(108.616 238.805)"/></g></g></g><g fill="#1E81E4"><g><g><path d="M 18.25 0 L 12.3125 0 C 9.363281 0 7.085938 -0.78125 5.484375 -2.34375 C 3.878906 -3.914062 3.078125 -6.175781 3.078125 -9.125 L 3.078125 -26.875 C 3.078125 -29.820312 3.878906 -32.082031 5.484375 -33.65625 C 7.085938 -35.226562 9.363281 -36.015625 12.3125 -36.015625 L 18.25 -36.015625 C 21.164062 -36.015625 23.425781 -35.21875 25.03125 -33.625 C 26.632812 -32.039062 27.4375 -29.789062 27.4375 -26.875 L 27.4375 -25.203125 C 27.4375 -24.378906 27.046875 -23.96875 26.265625 -23.96875 L 21.5 -23.96875 C 20.71875 -23.96875 20.328125 -24.378906 20.328125 -25.203125 L 20.328125 -26.546875 C 20.328125 -27.742188 20.082031 -28.59375 19.59375 -29.09375 C 19.113281 -29.59375 18.273438 -29.84375 17.078125 -29.84375 L 13.4375 -29.84375 C 12.28125 -29.84375 11.445312 -29.59375 10.9375 -29.09375 C 10.4375 -28.59375 10.1875 -27.742188 10.1875 -26.546875 L 10.1875 -9.46875 C 10.1875 -8.269531 10.4375 -7.414062 10.9375 -6.90625 C 11.445312 -6.40625 12.28125 -6.15625 13.4375 -6.15625 L 17.078125 -6.15625 C 18.273438 -6.15625 19.113281 -6.40625 19.59375 -6.90625 C 20.082031 -7.414062 20.328125 -8.269531 20.328125 -9.46875 L 20.328125 -12.984375 C 20.328125 -13.398438 20.125 -13.609375 19.71875 -13.609375 L 16.359375 -13.609375 C 15.566406 -13.609375 15.171875 -14 15.171875 -14.78125 L 15.171875 -18.59375 C 15.171875 -19.375 15.566406 -19.765625 16.359375 -19.765625 L 26.15625 -19.765625 C 27.007812 -19.765625 27.4375 -19.335938 27.4375 -18.484375 L 27.4375 -9.125 C 27.4375 -6.21875 26.632812 -3.96875 25.03125 -2.375 C 23.425781 -0.789062 21.164062 0 18.25 0 Z M 18.25 0" transform="translate(145.291 238.805)"/></g></g></g><g fill="#1E81E4"><g><g><path d="M 23.125 0 L 4.8125 0 C 4.03125 0 3.640625 -0.390625 3.640625 -1.171875 L 3.640625 -34.828125 C 3.640625 -35.617188 4.03125 -36.015625 4.8125 -36.015625 L 23.125 -36.015625 C 23.875 -36.015625 24.25 -35.617188 24.25 -34.828125 L 24.25 -31.03125 C 24.25 -30.238281 23.875 -29.84375 23.125 -29.84375 L 11.421875 -29.84375 C 10.972656 -29.84375 10.75 -29.640625 10.75 -29.234375 L 10.75 -21.953125 C 10.75 -21.546875 10.972656 -21.34375 11.421875 -21.34375 L 21 -21.34375 C 21.78125 -21.34375 22.171875 -20.945312 22.171875 -20.15625 L 22.171875 -16.359375 C 22.171875 -15.566406 21.78125 -15.171875 21 -15.171875 L 11.421875 -15.171875 C 10.972656 -15.171875 10.75 -14.96875 10.75 -14.5625 L 10.75 -6.78125 C 10.75 -6.363281 10.972656 -6.15625 11.421875 -6.15625 L 23.125 -6.15625 C 23.875 -6.15625 24.25 -5.765625 24.25 -4.984375 L 24.25 -1.171875 C 24.25 -0.390625 23.875 0 23.125 0 Z M 23.125 0" transform="translate(179.727 238.805)"/></g></g></g><g fill="#1E81E4"><g><g><path d="M 11.375 -5.9375 L 17.640625 -5.9375 C 18.867188 -5.9375 19.753906 -6.1875 20.296875 -6.6875 C 20.835938 -7.195312 21.109375 -8.03125 21.109375 -9.1875 L 21.109375 -12.4375 C 21.109375 -13.59375 20.828125 -14.410156 20.265625 -14.890625 C 19.710938 -15.378906 18.800781 -15.625 17.53125 -15.625 L 11.375 -15.625 C 10.957031 -15.625 10.75 -15.421875 10.75 -15.015625 L 10.75 -6.546875 C 10.75 -6.140625 10.957031 -5.9375 11.375 -5.9375 Z M 11.375 -21.390625 L 17.078125 -21.390625 C 18.273438 -21.390625 19.148438 -21.640625 19.703125 -22.140625 C 20.265625 -22.648438 20.546875 -23.484375 20.546875 -24.640625 L 20.546875 -26.828125 C 20.546875 -27.984375 20.273438 -28.8125 19.734375 -29.3125 C 19.191406 -29.820312 18.328125 -30.078125 17.140625 -30.078125 L 11.375 -30.078125 C 10.957031 -30.078125 10.75 -29.867188 10.75 -29.453125 L 10.75 -22.015625 C 10.75 -21.597656 10.957031 -21.390625 11.375 -21.390625 Z M 3.640625 -1.171875 L 3.640625 -34.828125 C 3.640625 -35.617188 4.03125 -36.015625 4.8125 -36.015625 L 18.25 -36.015625 C 21.207031 -36.015625 23.488281 -35.226562 25.09375 -33.65625 C 26.695312 -32.082031 27.5 -29.84375 27.5 -26.9375 L 27.5 -24.640625 C 27.5 -21.460938 26.023438 -19.410156 23.078125 -18.484375 C 24.566406 -18.253906 25.757812 -17.644531 26.65625 -16.65625 C 27.550781 -15.664062 28 -14.257812 28 -12.4375 L 28 -9.078125 C 28 -6.160156 27.195312 -3.914062 25.59375 -2.34375 C 23.988281 -0.78125 21.726562 0 18.8125 0 L 4.8125 0 C 4.03125 0 3.640625 -0.390625 3.640625 -1.171875 Z M 3.640625 -1.171875" transform="translate(210.467 238.805)"/></g></g></g><g fill="#1E81E4"><g><g><path d="M 13.4375 -6.15625 L 17.421875 -6.15625 C 18.609375 -6.15625 19.453125 -6.40625 19.953125 -6.90625 C 20.460938 -7.414062 20.71875 -8.269531 20.71875 -9.46875 L 20.71875 -26.546875 C 20.71875 -27.742188 20.460938 -28.59375 19.953125 -29.09375 C 19.453125 -29.59375 18.609375 -29.84375 17.421875 -29.84375 L 13.4375 -29.84375 C 12.238281 -29.84375 11.394531 -29.59375 10.90625 -29.09375 C 10.425781 -28.59375 10.1875 -27.742188 10.1875 -26.546875 L 10.1875 -9.46875 C 10.1875 -8.269531 10.425781 -7.414062 10.90625 -6.90625 C 11.394531 -6.40625 12.238281 -6.15625 13.4375 -6.15625 Z M 18.59375 0 L 12.3125 0 C 9.363281 0 7.085938 -0.78125 5.484375 -2.34375 C 3.878906 -3.914062 3.078125 -6.175781 3.078125 -9.125 L 3.078125 -26.875 C 3.078125 -29.820312 3.878906 -32.082031 5.484375 -33.65625 C 7.085938 -35.226562 9.363281 -36.015625 12.3125 -36.015625 L 18.59375 -36.015625 C 21.539062 -36.015625 23.816406 -35.226562 25.421875 -33.65625 C 27.023438 -32.082031 27.828125 -29.820312 27.828125 -26.875 L 27.828125 -9.125 C 27.828125 -6.175781 27.023438 -3.914062 25.421875 -2.34375 C 23.816406 -0.78125 21.539062 0 18.59375 0 Z M 18.59375 0" transform="translate(245.463 238.805)"/></g></g></g><g fill="#1E81E4"><g><g><path d="M 14.78125 0 L 10.078125 0 C 9.253906 0 8.84375 -0.390625 8.84375 -1.171875 L 8.84375 -29.234375 C 8.84375 -29.640625 8.640625 -29.84375 8.234375 -29.84375 L 1.84375 -29.84375 C 1.0625 -29.84375 0.671875 -30.238281 0.671875 -31.03125 L 0.671875 -34.828125 C 0.671875 -35.617188 1.0625 -36.015625 1.84375 -36.015625 L 23.015625 -36.015625 C 23.796875 -36.015625 24.1875 -35.617188 24.1875 -34.828125 L 24.1875 -31.03125 C 24.1875 -30.238281 23.796875 -29.84375 23.015625 -29.84375 L 16.625 -29.84375 C 16.175781 -29.84375 15.953125 -29.640625 15.953125 -29.234375 L 15.953125 -1.171875 C 15.953125 -0.390625 15.5625 0 14.78125 0 Z M 14.78125 0" transform="translate(280.29 238.805)"/></g></g></g></svg>