<svg xmlns="http://www.w3.org/2000/svg" width="375" viewBox="0 0 375 375" height="375" version="1.0"><path fill="#FFF" d="M-37.5 -37.5H412.5V412.5H-37.5z"/><path fill="#FFF" d="M-37.5 -37.5H412.5V412.5H-37.5z"/><path fill="#1E81E4" d="M 187.507812 344.40625 C 147.492188 344.40625 109.8125 328.828125 81.539062 300.496094 C 53.203125 272.21875 37.628906 234.539062 37.628906 194.523438 C 37.628906 154.507812 53.203125 116.828125 81.539062 88.554688 C 109.8125 60.21875 147.492188 44.644531 187.507812 44.644531 C 227.523438 44.644531 265.203125 60.21875 293.476562 88.554688 C 321.8125 116.886719 337.386719 154.507812 337.386719 194.523438 C 337.386719 234.539062 321.8125 272.21875 293.476562 300.496094 C 265.203125 328.828125 227.523438 344.40625 187.507812 344.40625 Z M 187.507812 53.628906 C 149.886719 53.628906 114.484375 68.304688 87.886719 94.902344 C 61.289062 121.5 46.613281 156.90625 46.613281 194.523438 C 46.613281 232.144531 61.289062 267.546875 87.886719 294.144531 C 114.484375 320.742188 149.886719 335.417969 187.507812 335.417969 C 225.128906 335.417969 260.53125 320.742188 287.128906 294.144531 C 313.726562 267.546875 328.402344 232.144531 328.402344 194.523438 C 328.402344 156.90625 313.726562 121.5 287.128906 94.902344 C 260.53125 68.304688 225.128906 53.628906 187.507812 53.628906 Z M 187.507812 53.628906"/><g fill="#1E81E4"><g><g><path d="M 27.953125 0 L 19.046875 0 C 17.492188 0 16.71875 -0.738281 16.71875 -2.21875 L 16.71875 -55.265625 C 16.71875 -56.035156 16.332031 -56.421875 15.5625 -56.421875 L 3.5 -56.421875 C 2.007812 -56.421875 1.265625 -57.160156 1.265625 -58.640625 L 1.265625 -65.84375 C 1.265625 -67.320312 2.007812 -68.0625 3.5 -68.0625 L 43.515625 -68.0625 C 44.992188 -68.0625 45.734375 -67.320312 45.734375 -65.84375 L 45.734375 -58.640625 C 45.734375 -57.160156 44.992188 -56.421875 43.515625 -56.421875 L 31.4375 -56.421875 C 30.59375 -56.421875 30.171875 -56.035156 30.171875 -55.265625 L 30.171875 -2.21875 C 30.171875 -0.738281 29.429688 0 27.953125 0 Z M 27.953125 0" transform="translate(101.175 201.286)"/></g></g></g><g fill="#1E81E4"><g><g><path d="M 25.40625 -11.640625 L 32.921875 -11.640625 C 35.179688 -11.640625 36.785156 -12.113281 37.734375 -13.0625 C 38.691406 -14.019531 39.171875 -15.628906 39.171875 -17.890625 L 39.171875 -50.171875 C 39.171875 -52.429688 38.691406 -54.035156 37.734375 -54.984375 C 36.785156 -55.941406 35.179688 -56.421875 32.921875 -56.421875 L 25.40625 -56.421875 C 23.144531 -56.421875 21.554688 -55.941406 20.640625 -54.984375 C 19.722656 -54.035156 19.265625 -52.429688 19.265625 -50.171875 L 19.265625 -17.890625 C 19.265625 -15.628906 19.722656 -14.019531 20.640625 -13.0625 C 21.554688 -12.113281 23.144531 -11.640625 25.40625 -11.640625 Z M 35.140625 0 L 23.28125 0 C 17.707031 0 13.40625 -1.476562 10.375 -4.4375 C 7.34375 -7.40625 5.828125 -11.675781 5.828125 -17.25 L 5.828125 -50.8125 C 5.828125 -56.382812 7.34375 -60.648438 10.375 -63.609375 C 13.40625 -66.578125 17.707031 -68.0625 23.28125 -68.0625 L 35.140625 -68.0625 C 40.722656 -68.0625 45.03125 -66.578125 48.0625 -63.609375 C 51.09375 -60.648438 52.609375 -56.382812 52.609375 -50.8125 L 52.609375 -17.25 C 52.609375 -11.675781 51.09375 -7.40625 48.0625 -4.4375 C 45.03125 -1.476562 40.722656 0 35.140625 0 Z M 35.140625 0" transform="translate(155.48 201.286)"/></g></g></g><g fill="#1E81E4"><g><g><path d="M 18.109375 0 L 9.109375 0 C 7.617188 0 6.875 -0.738281 6.875 -2.21875 L 6.875 -65.84375 C 6.875 -67.320312 7.617188 -68.0625 9.109375 -68.0625 L 34.9375 -68.0625 C 40.4375 -68.0625 44.703125 -66.5625 47.734375 -63.5625 C 50.773438 -60.5625 52.296875 -56.3125 52.296875 -50.8125 L 52.296875 -40.65625 C 52.296875 -35.144531 50.773438 -30.890625 47.734375 -27.890625 C 44.703125 -24.890625 40.4375 -23.390625 34.9375 -23.390625 L 21.59375 -23.390625 C 20.75 -23.390625 20.328125 -23.003906 20.328125 -22.234375 L 20.328125 -2.21875 C 20.328125 -0.738281 19.585938 0 18.109375 0 Z M 21.484375 -35.140625 L 32.703125 -35.140625 C 34.960938 -35.140625 36.550781 -35.613281 37.46875 -36.5625 C 38.382812 -37.519531 38.84375 -39.09375 38.84375 -41.28125 L 38.84375 -50.171875 C 38.84375 -52.429688 38.382812 -54.035156 37.46875 -54.984375 C 36.550781 -55.941406 34.960938 -56.421875 32.703125 -56.421875 L 21.484375 -56.421875 C 20.710938 -56.421875 20.328125 -56.035156 20.328125 -55.265625 L 20.328125 -36.3125 C 20.328125 -35.53125 20.710938 -35.140625 21.484375 -35.140625 Z M 21.484375 -35.140625" transform="translate(221.323 201.286)"/></g></g></g><g fill="#1E81E4"><g><g><path d="M 10.296875 -4.546875 L 13.21875 -4.546875 C 14.101562 -4.546875 14.726562 -4.726562 15.09375 -5.09375 C 15.46875 -5.46875 15.65625 -6.097656 15.65625 -6.984375 L 15.65625 -19.59375 C 15.65625 -20.46875 15.46875 -21.09375 15.09375 -21.46875 C 14.726562 -21.84375 14.101562 -22.03125 13.21875 -22.03125 L 10.296875 -22.03125 C 9.410156 -22.03125 8.785156 -21.84375 8.421875 -21.46875 C 8.066406 -21.09375 7.890625 -20.46875 7.890625 -19.59375 L 7.890625 -6.984375 C 7.890625 -6.097656 8.066406 -5.46875 8.421875 -5.09375 C 8.785156 -4.726562 9.410156 -4.546875 10.296875 -4.546875 Z M 17.859375 5.5 L 14.84375 5.5 C 14.09375 5.5 13.550781 5.207031 13.21875 4.625 L 10.53125 0 L 9.421875 0 C 7.242188 0 5.5625 -0.578125 4.375 -1.734375 C 3.195312 -2.890625 2.609375 -4.554688 2.609375 -6.734375 L 2.609375 -19.84375 C 2.609375 -22.019531 3.195312 -23.6875 4.375 -24.84375 C 5.5625 -26 7.242188 -26.578125 9.421875 -26.578125 L 14.046875 -26.578125 C 16.222656 -26.578125 17.90625 -26 19.09375 -24.84375 C 20.28125 -23.6875 20.875 -22.019531 20.875 -19.84375 L 20.875 -6.734375 C 20.875 -4.921875 20.4375 -3.445312 19.5625 -2.3125 C 18.695312 -1.1875 17.46875 -0.472656 15.875 -0.171875 L 18.515625 4.421875 C 18.648438 4.753906 18.648438 5.015625 18.515625 5.203125 C 18.378906 5.398438 18.160156 5.5 17.859375 5.5 Z M 17.859375 5.5" transform="translate(99.754 253.43)"/></g></g></g><g fill="#1E81E4"><g><g><path d="M 16.28125 -26.578125 L 19.75 -26.578125 C 20.363281 -26.578125 20.671875 -26.300781 20.671875 -25.75 L 20.671875 -6.734375 C 20.671875 -4.585938 20.066406 -2.925781 18.859375 -1.75 C 17.660156 -0.582031 15.988281 0 13.84375 0 L 9.296875 0 C 7.117188 0 5.4375 -0.578125 4.25 -1.734375 C 3.070312 -2.890625 2.484375 -4.554688 2.484375 -6.734375 L 2.484375 -25.703125 C 2.484375 -26.285156 2.769531 -26.578125 3.34375 -26.578125 L 6.859375 -26.578125 C 7.441406 -26.578125 7.734375 -26.285156 7.734375 -25.703125 L 7.734375 -6.984375 C 7.734375 -6.097656 7.914062 -5.46875 8.28125 -5.09375 C 8.65625 -4.726562 9.269531 -4.546875 10.125 -4.546875 L 12.984375 -4.546875 C 13.859375 -4.546875 14.484375 -4.726562 14.859375 -5.09375 C 15.234375 -5.46875 15.421875 -6.097656 15.421875 -6.984375 L 15.421875 -25.703125 C 15.421875 -26.285156 15.707031 -26.578125 16.28125 -26.578125 Z M 16.28125 -26.578125" transform="translate(126.158 253.43)"/></g></g></g><g fill="#1E81E4"><g><g><path d="M 5.453125 0 L 1.484375 0 C 0.992188 0 0.828125 -0.289062 0.984375 -0.875 L 7.515625 -25.703125 C 7.710938 -26.285156 8.128906 -26.578125 8.765625 -26.578125 L 14.265625 -26.578125 C 14.953125 -26.578125 15.363281 -26.285156 15.5 -25.703125 L 22.03125 -0.875 C 22.195312 -0.289062 22.03125 0 21.53125 0 L 17.5625 0 C 17.257812 0 17.050781 -0.0625 16.9375 -0.1875 C 16.832031 -0.3125 16.753906 -0.539062 16.703125 -0.875 L 15.546875 -5.40625 L 7.484375 -5.40625 L 6.328125 -0.875 C 6.265625 -0.539062 6.171875 -0.3125 6.046875 -0.1875 C 5.929688 -0.0625 5.734375 0 5.453125 0 Z M 11.453125 -21.578125 L 8.46875 -9.625 L 14.59375 -9.625 L 11.609375 -21.578125 Z M 11.453125 -21.578125" transform="translate(152.19 253.43)"/></g></g></g><g fill="#1E81E4"><g><g><path d="M 17.15625 0 L 3.546875 0 C 2.972656 0 2.6875 -0.289062 2.6875 -0.875 L 2.6875 -25.703125 C 2.6875 -26.285156 2.972656 -26.578125 3.546875 -26.578125 L 7.0625 -26.578125 C 7.644531 -26.578125 7.9375 -26.285156 7.9375 -25.703125 L 7.9375 -5.046875 C 7.9375 -4.742188 8.101562 -4.59375 8.4375 -4.59375 L 17.15625 -4.59375 C 17.707031 -4.59375 17.984375 -4.285156 17.984375 -3.671875 L 17.984375 -0.875 C 17.984375 -0.289062 17.707031 0 17.15625 0 Z M 17.15625 0" transform="translate(178.1 253.43)"/></g></g></g><g fill="#1E81E4"><g><g><path d="M 8.140625 -25.703125 L 8.140625 -0.875 C 8.140625 -0.289062 7.851562 0 7.28125 0 L 3.765625 0 C 3.179688 0 2.890625 -0.289062 2.890625 -0.875 L 2.890625 -25.703125 C 2.890625 -26.285156 3.179688 -26.578125 3.765625 -26.578125 L 7.28125 -26.578125 C 7.851562 -26.578125 8.140625 -26.285156 8.140625 -25.703125 Z M 8.140625 -25.703125" transform="translate(199.545 253.43)"/></g></g></g><g fill="#1E81E4"><g><g><path d="M 10.90625 0 L 7.4375 0 C 6.832031 0 6.53125 -0.289062 6.53125 -0.875 L 6.53125 -21.578125 C 6.53125 -21.878906 6.378906 -22.03125 6.078125 -22.03125 L 1.359375 -22.03125 C 0.785156 -22.03125 0.5 -22.316406 0.5 -22.890625 L 0.5 -25.703125 C 0.5 -26.285156 0.785156 -26.578125 1.359375 -26.578125 L 16.984375 -26.578125 C 17.566406 -26.578125 17.859375 -26.285156 17.859375 -25.703125 L 17.859375 -22.890625 C 17.859375 -22.316406 17.566406 -22.03125 16.984375 -22.03125 L 12.28125 -22.03125 C 11.945312 -22.03125 11.78125 -21.878906 11.78125 -21.578125 L 11.78125 -0.875 C 11.78125 -0.289062 11.488281 0 10.90625 0 Z M 10.90625 0" transform="translate(213.47 253.43)"/></g></g></g><g fill="#1E81E4"><g><g><path d="M 5.125 -30.09375 L 5.125 -33.71875 C 5.125 -34.269531 5.382812 -34.546875 5.90625 -34.546875 L 9.21875 -34.546875 C 9.738281 -34.546875 10 -34.285156 10 -33.765625 L 10 -30.09375 C 10 -29.507812 9.738281 -29.21875 9.21875 -29.21875 L 5.90625 -29.21875 C 5.382812 -29.21875 5.125 -29.507812 5.125 -30.09375 Z M 12.984375 -30.09375 L 12.984375 -33.71875 C 12.984375 -34.269531 13.242188 -34.546875 13.765625 -34.546875 L 17.0625 -34.546875 C 17.59375 -34.546875 17.859375 -34.285156 17.859375 -33.765625 L 17.859375 -30.09375 C 17.859375 -29.507812 17.59375 -29.21875 17.0625 -29.21875 L 13.765625 -29.21875 C 13.242188 -29.21875 12.984375 -29.507812 12.984375 -30.09375 Z M 5.453125 0 L 1.484375 0 C 0.992188 0 0.828125 -0.289062 0.984375 -0.875 L 7.515625 -25.703125 C 7.710938 -26.285156 8.128906 -26.578125 8.765625 -26.578125 L 14.265625 -26.578125 C 14.953125 -26.578125 15.363281 -26.285156 15.5 -25.703125 L 22.03125 -0.875 C 22.195312 -0.289062 22.03125 0 21.53125 0 L 17.5625 0 C 17.257812 0 17.050781 -0.0625 16.9375 -0.1875 C 16.832031 -0.3125 16.753906 -0.539062 16.703125 -0.875 L 15.546875 -5.40625 L 7.484375 -5.40625 L 6.328125 -0.875 C 6.265625 -0.539062 6.171875 -0.3125 6.046875 -0.1875 C 5.929688 -0.0625 5.734375 0 5.453125 0 Z M 11.453125 -21.578125 L 8.46875 -9.625 L 14.59375 -9.625 L 11.609375 -21.578125 Z M 11.453125 -21.578125" transform="translate(234.668 253.43)"/></g></g></g><g fill="#1E81E4"><g><g><path d="M 10.90625 0 L 7.4375 0 C 6.832031 0 6.53125 -0.289062 6.53125 -0.875 L 6.53125 -21.578125 C 6.53125 -21.878906 6.378906 -22.03125 6.078125 -22.03125 L 1.359375 -22.03125 C 0.785156 -22.03125 0.5 -22.316406 0.5 -22.890625 L 0.5 -25.703125 C 0.5 -26.285156 0.785156 -26.578125 1.359375 -26.578125 L 16.984375 -26.578125 C 17.566406 -26.578125 17.859375 -26.285156 17.859375 -25.703125 L 17.859375 -22.890625 C 17.859375 -22.316406 17.566406 -22.03125 16.984375 -22.03125 L 12.28125 -22.03125 C 11.945312 -22.03125 11.78125 -21.878906 11.78125 -21.578125 L 11.78125 -0.875 C 11.78125 -0.289062 11.488281 0 10.90625 0 Z M 10.90625 0" transform="translate(260.535 253.43)"/></g></g></g></svg>