<svg xmlns="http://www.w3.org/2000/svg" width="375" viewBox="0 0 375 375" height="375" version="1.0"><path fill="#FFF" d="M-37.5 -37.5H412.5V412.5H-37.5z"/><path fill="#FFF" d="M-37.5 -37.5H412.5V412.5H-37.5z"/><path fill="#1E81E4" d="M 187.507812 344.40625 C 147.492188 344.40625 109.8125 328.828125 81.539062 300.496094 C 53.203125 272.21875 37.628906 234.539062 37.628906 194.523438 C 37.628906 154.507812 53.203125 116.828125 81.539062 88.554688 C 109.8125 60.21875 147.492188 44.644531 187.507812 44.644531 C 227.523438 44.644531 265.203125 60.21875 293.476562 88.554688 C 321.8125 116.886719 337.386719 154.507812 337.386719 194.523438 C 337.386719 234.539062 321.8125 272.21875 293.476562 300.496094 C 265.203125 328.828125 227.523438 344.40625 187.507812 344.40625 Z M 187.507812 53.628906 C 149.886719 53.628906 114.484375 68.304688 87.886719 94.902344 C 61.289062 121.5 46.613281 156.90625 46.613281 194.523438 C 46.613281 232.144531 61.289062 267.546875 87.886719 294.144531 C 114.484375 320.742188 149.886719 335.417969 187.507812 335.417969 C 225.128906 335.417969 260.53125 320.742188 287.128906 294.144531 C 313.726562 267.546875 328.402344 232.144531 328.402344 194.523438 C 328.402344 156.90625 313.726562 121.5 287.128906 94.902344 C 260.53125 68.304688 225.128906 53.628906 187.507812 53.628906 Z M 187.507812 53.628906"/><g fill="#1E81E4"><g><g><path d="M 13.515625 0 L 8.09375 0 C 7.519531 0 7.175781 -0.289062 7.0625 -0.875 L 0.65625 -25.625 C 0.46875 -26.257812 0.742188 -26.578125 1.484375 -26.578125 L 5.375 -26.578125 C 5.925781 -26.578125 6.253906 -26.285156 6.359375 -25.703125 L 10.703125 -5.375 L 10.875 -5.375 L 15.203125 -25.703125 C 15.316406 -26.285156 15.648438 -26.578125 16.203125 -26.578125 L 20.078125 -26.578125 C 20.773438 -26.578125 21.050781 -26.257812 20.90625 -25.625 L 14.5 -0.875 C 14.363281 -0.289062 14.035156 0 13.515625 0 Z M 13.515625 0" transform="translate(102.502 137.714)"/></g></g></g><g fill="#1E81E4"><g><g><path d="M 17.0625 0 L 3.546875 0 C 2.972656 0 2.6875 -0.289062 2.6875 -0.875 L 2.6875 -25.703125 C 2.6875 -26.285156 2.972656 -26.578125 3.546875 -26.578125 L 17.0625 -26.578125 C 17.613281 -26.578125 17.890625 -26.285156 17.890625 -25.703125 L 17.890625 -22.890625 C 17.890625 -22.316406 17.613281 -22.03125 17.0625 -22.03125 L 8.4375 -22.03125 C 8.101562 -22.03125 7.9375 -21.878906 7.9375 -21.578125 L 7.9375 -16.203125 C 7.9375 -15.898438 8.101562 -15.75 8.4375 -15.75 L 15.5 -15.75 C 16.070312 -15.75 16.359375 -15.457031 16.359375 -14.875 L 16.359375 -12.0625 C 16.359375 -11.488281 16.070312 -11.203125 15.5 -11.203125 L 8.4375 -11.203125 C 8.101562 -11.203125 7.9375 -11.050781 7.9375 -10.75 L 7.9375 -5 C 7.9375 -4.695312 8.101562 -4.546875 8.4375 -4.546875 L 17.0625 -4.546875 C 17.613281 -4.546875 17.890625 -4.253906 17.890625 -3.671875 L 17.890625 -0.875 C 17.890625 -0.289062 17.613281 0 17.0625 0 Z M 17.0625 0" transform="translate(126.923 137.714)"/></g></g></g><g fill="#1E81E4"><g><g><path d="M 7.0625 0 L 3.546875 0 C 2.972656 0 2.6875 -0.289062 2.6875 -0.875 L 2.6875 -25.703125 C 2.6875 -26.285156 2.972656 -26.578125 3.546875 -26.578125 L 13.390625 -26.578125 C 15.535156 -26.578125 17.210938 -25.984375 18.421875 -24.796875 C 19.640625 -23.609375 20.25 -21.941406 20.25 -19.796875 L 20.25 -16.578125 C 20.25 -13.460938 19.023438 -11.394531 16.578125 -10.375 L 16.578125 -10.203125 L 21 -0.984375 C 21.238281 -0.328125 21.003906 0 20.296875 0 L 16.9375 0 C 16.445312 0 16.09375 -0.0507812 15.875 -0.15625 C 15.65625 -0.269531 15.472656 -0.507812 15.328125 -0.875 L 11.203125 -9.796875 L 8.4375 -9.796875 C 8.101562 -9.796875 7.9375 -9.644531 7.9375 -9.34375 L 7.9375 -0.875 C 7.9375 -0.289062 7.644531 0 7.0625 0 Z M 8.390625 -14.015625 L 12.4375 -14.015625 C 13.320312 -14.015625 13.96875 -14.195312 14.375 -14.5625 C 14.789062 -14.9375 15 -15.535156 15 -16.359375 L 15 -19.59375 C 15 -20.445312 14.789062 -21.066406 14.375 -21.453125 C 13.96875 -21.835938 13.320312 -22.03125 12.4375 -22.03125 L 8.390625 -22.03125 C 8.085938 -22.03125 7.9375 -21.878906 7.9375 -21.578125 L 7.9375 -14.46875 C 7.9375 -14.164062 8.085938 -14.015625 8.390625 -14.015625 Z M 8.390625 -14.015625" transform="translate(149.608 137.714)"/></g></g></g><g fill="#1E81E4"><g><g><path d="M 2.03125 -6.78125 L 2.03125 -7.609375 C 2.03125 -8.179688 2.316406 -8.46875 2.890625 -8.46875 L 6.40625 -8.46875 C 6.988281 -8.46875 7.28125 -8.179688 7.28125 -7.609375 L 7.28125 -7.28125 C 7.28125 -6.226562 7.484375 -5.507812 7.890625 -5.125 C 8.304688 -4.738281 9.066406 -4.546875 10.171875 -4.546875 L 12.109375 -4.546875 C 13.179688 -4.546875 13.929688 -4.75 14.359375 -5.15625 C 14.785156 -5.570312 15 -6.347656 15 -7.484375 L 15 -7.96875 C 15 -8.769531 14.675781 -9.382812 14.03125 -9.8125 C 13.382812 -10.238281 12.578125 -10.492188 11.609375 -10.578125 C 10.648438 -10.660156 9.609375 -10.816406 8.484375 -11.046875 C 7.367188 -11.285156 6.328125 -11.585938 5.359375 -11.953125 C 4.398438 -12.328125 3.597656 -13.054688 2.953125 -14.140625 C 2.304688 -15.234375 1.984375 -16.632812 1.984375 -18.34375 L 1.984375 -19.796875 C 1.984375 -21.941406 2.585938 -23.609375 3.796875 -24.796875 C 5.015625 -25.984375 6.695312 -26.578125 8.84375 -26.578125 L 12.984375 -26.578125 C 15.148438 -26.578125 16.835938 -25.984375 18.046875 -24.796875 C 19.265625 -23.609375 19.875 -21.941406 19.875 -19.796875 L 19.875 -19.015625 C 19.875 -18.429688 19.585938 -18.140625 19.015625 -18.140625 L 15.5 -18.140625 C 14.914062 -18.140625 14.625 -18.429688 14.625 -19.015625 L 14.625 -19.265625 C 14.625 -20.335938 14.414062 -21.066406 14 -21.453125 C 13.59375 -21.835938 12.835938 -22.03125 11.734375 -22.03125 L 10.125 -22.03125 C 9 -22.03125 8.234375 -21.816406 7.828125 -21.390625 C 7.429688 -20.960938 7.234375 -20.128906 7.234375 -18.890625 L 7.234375 -18.109375 C 7.234375 -16.804688 8.363281 -16.0625 10.625 -15.875 C 12.96875 -15.675781 15.046875 -15.207031 16.859375 -14.46875 C 17.828125 -14.050781 18.632812 -13.3125 19.28125 -12.25 C 19.925781 -11.1875 20.25 -9.832031 20.25 -8.1875 L 20.25 -6.78125 C 20.25 -4.625 19.640625 -2.953125 18.421875 -1.765625 C 17.210938 -0.585938 15.535156 0 13.390625 0 L 8.890625 0 C 6.734375 0 5.050781 -0.585938 3.84375 -1.765625 C 2.632812 -2.953125 2.03125 -4.625 2.03125 -6.78125 Z M 2.03125 -6.78125" transform="translate(175.104 137.714)"/></g></g></g><g fill="#1E81E4"><g><g><path d="M 5.453125 0 L 1.484375 0 C 0.992188 0 0.828125 -0.289062 0.984375 -0.875 L 7.515625 -25.703125 C 7.710938 -26.285156 8.128906 -26.578125 8.765625 -26.578125 L 14.265625 -26.578125 C 14.953125 -26.578125 15.363281 -26.285156 15.5 -25.703125 L 22.03125 -0.875 C 22.195312 -0.289062 22.03125 0 21.53125 0 L 17.5625 0 C 17.257812 0 17.050781 -0.0625 16.9375 -0.1875 C 16.832031 -0.3125 16.753906 -0.539062 16.703125 -0.875 L 15.546875 -5.40625 L 7.484375 -5.40625 L 6.328125 -0.875 C 6.265625 -0.539062 6.171875 -0.3125 6.046875 -0.1875 C 5.929688 -0.0625 5.734375 0 5.453125 0 Z M 11.453125 -21.578125 L 8.46875 -9.625 L 14.59375 -9.625 L 11.609375 -21.578125 Z M 11.453125 -21.578125" transform="translate(200.268 137.714)"/></g></g></g><g fill="#1E81E4"><g><g><path d="M 6.984375 0 L 3.546875 0 C 2.972656 0 2.6875 -0.289062 2.6875 -0.875 L 2.6875 -25.703125 C 2.6875 -26.285156 2.972656 -26.578125 3.546875 -26.578125 L 6.65625 -26.578125 C 7.226562 -26.578125 7.613281 -26.382812 7.8125 -26 L 16.15625 -10.328125 L 16.328125 -10.328125 L 16.328125 -25.703125 C 16.328125 -26.285156 16.613281 -26.578125 17.1875 -26.578125 L 20.625 -26.578125 C 21.195312 -26.578125 21.484375 -26.285156 21.484375 -25.703125 L 21.484375 -0.875 C 21.484375 -0.289062 21.195312 0 20.625 0 L 17.609375 0 C 17.003906 0 16.5625 -0.273438 16.28125 -0.828125 L 8.015625 -16.203125 L 7.859375 -16.203125 L 7.859375 -0.875 C 7.859375 -0.289062 7.566406 0 6.984375 0 Z M 6.984375 0" transform="translate(226.177 137.714)"/></g></g></g><g fill="#1E81E4"><g><g><path d="M 8.390625 -4.546875 L 12.890625 -4.546875 C 13.773438 -4.546875 14.398438 -4.726562 14.765625 -5.09375 C 15.140625 -5.46875 15.328125 -6.097656 15.328125 -6.984375 L 15.328125 -19.59375 C 15.328125 -20.46875 15.140625 -21.09375 14.765625 -21.46875 C 14.398438 -21.84375 13.773438 -22.03125 12.890625 -22.03125 L 8.390625 -22.03125 C 8.085938 -22.03125 7.9375 -21.878906 7.9375 -21.578125 L 7.9375 -5 C 7.9375 -4.695312 8.085938 -4.546875 8.390625 -4.546875 Z M 2.6875 -0.875 L 2.6875 -25.703125 C 2.6875 -26.285156 2.972656 -26.578125 3.546875 -26.578125 L 13.765625 -26.578125 C 15.910156 -26.578125 17.582031 -25.988281 18.78125 -24.8125 C 19.976562 -23.644531 20.578125 -21.988281 20.578125 -19.84375 L 20.578125 -6.734375 C 20.578125 -4.585938 19.976562 -2.925781 18.78125 -1.75 C 17.582031 -0.582031 15.910156 0 13.765625 0 L 3.546875 0 C 2.972656 0 2.6875 -0.289062 2.6875 -0.875 Z M 2.6875 -0.875" transform="translate(253.242 137.714)"/></g></g></g><g fill="#1E81E4"><g><g><path d="M 8.4375 0 L 4.234375 0 C 3.546875 0 3.203125 -0.34375 3.203125 -1.03125 L 3.203125 -30.671875 C 3.203125 -31.359375 3.546875 -31.703125 4.234375 -31.703125 L 8.4375 -31.703125 C 9.125 -31.703125 9.46875 -31.359375 9.46875 -30.671875 L 9.46875 -16.625 L 9.5625 -16.625 C 9.832031 -17.40625 10.34375 -18.421875 11.09375 -19.671875 L 18.59375 -30.671875 C 19.019531 -31.359375 19.660156 -31.703125 20.515625 -31.703125 L 25.34375 -31.703125 C 25.707031 -31.703125 25.929688 -31.59375 26.015625 -31.375 C 26.097656 -31.164062 26.003906 -30.898438 25.734375 -30.578125 L 16.375 -17.609375 L 26.828125 -1.234375 C 27.054688 -0.835938 27.097656 -0.53125 26.953125 -0.3125 C 26.804688 -0.101562 26.5 0 26.03125 0 L 22.4375 0 C 21.289062 0 20.519531 -0.34375 20.125 -1.03125 L 12.578125 -13.109375 L 9.46875 -9.46875 L 9.46875 -1.03125 C 9.46875 -0.34375 9.125 0 8.4375 0 Z M 8.4375 0" transform="translate(102.49 192.464)"/></g></g></g><g fill="#1E81E4"><g><g><path d="M 11.828125 -5.421875 L 15.34375 -5.421875 C 16.394531 -5.421875 17.140625 -5.640625 17.578125 -6.078125 C 18.023438 -6.523438 18.25 -7.273438 18.25 -8.328125 L 18.25 -23.375 C 18.25 -24.425781 18.023438 -25.171875 17.578125 -25.609375 C 17.140625 -26.054688 16.394531 -26.28125 15.34375 -26.28125 L 11.828125 -26.28125 C 10.773438 -26.28125 10.035156 -26.054688 9.609375 -25.609375 C 9.179688 -25.171875 8.96875 -24.425781 8.96875 -23.375 L 8.96875 -8.328125 C 8.96875 -7.273438 9.179688 -6.523438 9.609375 -6.078125 C 10.035156 -5.640625 10.773438 -5.421875 11.828125 -5.421875 Z M 16.375 0 L 10.84375 0 C 8.25 0 6.242188 -0.6875 4.828125 -2.0625 C 3.421875 -3.445312 2.71875 -5.4375 2.71875 -8.03125 L 2.71875 -23.671875 C 2.71875 -26.265625 3.421875 -28.25 4.828125 -29.625 C 6.242188 -31.007812 8.25 -31.703125 10.84375 -31.703125 L 16.375 -31.703125 C 18.96875 -31.703125 20.972656 -31.007812 22.390625 -29.625 C 23.804688 -28.25 24.515625 -26.265625 24.515625 -23.671875 L 24.515625 -8.03125 C 24.515625 -5.4375 23.804688 -3.445312 22.390625 -2.0625 C 20.972656 -0.6875 18.96875 0 16.375 0 Z M 16.375 0" transform="translate(133.46 192.464)"/></g></g></g><g fill="#1E81E4"><g><g><path d="M 2.421875 -8.09375 L 2.421875 -9.078125 C 2.421875 -9.765625 2.765625 -10.109375 3.453125 -10.109375 L 7.640625 -10.109375 C 8.328125 -10.109375 8.671875 -9.765625 8.671875 -9.078125 L 8.671875 -8.671875 C 8.671875 -7.429688 8.914062 -6.578125 9.40625 -6.109375 C 9.90625 -5.648438 10.8125 -5.421875 12.125 -5.421875 L 14.453125 -5.421875 C 15.734375 -5.421875 16.628906 -5.664062 17.140625 -6.15625 C 17.648438 -6.65625 17.90625 -7.578125 17.90625 -8.921875 L 17.90625 -9.515625 C 17.90625 -10.472656 17.515625 -11.203125 16.734375 -11.703125 C 15.960938 -12.210938 15 -12.515625 13.84375 -12.609375 C 12.695312 -12.710938 11.457031 -12.90625 10.125 -13.1875 C 8.800781 -13.46875 7.5625 -13.828125 6.40625 -14.265625 C 5.257812 -14.710938 4.296875 -15.585938 3.515625 -16.890625 C 2.742188 -18.191406 2.359375 -19.859375 2.359375 -21.890625 L 2.359375 -23.625 C 2.359375 -26.1875 3.082031 -28.171875 4.53125 -29.578125 C 5.976562 -30.992188 7.984375 -31.703125 10.546875 -31.703125 L 15.484375 -31.703125 C 18.078125 -31.703125 20.097656 -30.992188 21.546875 -29.578125 C 22.992188 -28.171875 23.71875 -26.1875 23.71875 -23.625 L 23.71875 -22.6875 C 23.71875 -21.988281 23.375 -21.640625 22.6875 -21.640625 L 18.5 -21.640625 C 17.800781 -21.640625 17.453125 -21.988281 17.453125 -22.6875 L 17.453125 -22.984375 C 17.453125 -24.265625 17.207031 -25.132812 16.71875 -25.59375 C 16.226562 -26.050781 15.320312 -26.28125 14 -26.28125 L 12.078125 -26.28125 C 10.734375 -26.28125 9.820312 -26.023438 9.34375 -25.515625 C 8.863281 -25.003906 8.625 -24.007812 8.625 -22.53125 L 8.625 -21.59375 C 8.625 -20.050781 9.972656 -19.164062 12.671875 -18.9375 C 15.460938 -18.707031 17.945312 -18.148438 20.125 -17.265625 C 21.269531 -16.765625 22.226562 -15.878906 23 -14.609375 C 23.769531 -13.347656 24.15625 -11.734375 24.15625 -9.765625 L 24.15625 -8.09375 C 24.15625 -5.519531 23.429688 -3.523438 21.984375 -2.109375 C 20.546875 -0.703125 18.546875 0 15.984375 0 L 10.609375 0 C 8.035156 0 6.023438 -0.703125 4.578125 -2.109375 C 3.140625 -3.523438 2.421875 -5.519531 2.421875 -8.09375 Z M 2.421875 -8.09375" transform="translate(164.133 192.464)"/></g></g></g><g fill="#1E81E4"><g><g><path d="M 13.015625 0 L 8.875 0 C 8.15625 0 7.796875 -0.34375 7.796875 -1.03125 L 7.796875 -25.734375 C 7.796875 -26.097656 7.613281 -26.28125 7.25 -26.28125 L 1.625 -26.28125 C 0.9375 -26.28125 0.59375 -26.625 0.59375 -27.3125 L 0.59375 -30.671875 C 0.59375 -31.359375 0.9375 -31.703125 1.625 -31.703125 L 20.265625 -31.703125 C 20.953125 -31.703125 21.296875 -31.359375 21.296875 -30.671875 L 21.296875 -27.3125 C 21.296875 -26.625 20.953125 -26.28125 20.265625 -26.28125 L 14.640625 -26.28125 C 14.242188 -26.28125 14.046875 -26.097656 14.046875 -25.734375 L 14.046875 -1.03125 C 14.046875 -0.34375 13.703125 0 13.015625 0 Z M 13.015625 0" transform="translate(194.165 192.464)"/></g></g></g><g fill="#1E81E4"><g><g><path d="M 20.359375 0 L 4.234375 0 C 3.546875 0 3.203125 -0.34375 3.203125 -1.03125 L 3.203125 -30.671875 C 3.203125 -31.359375 3.546875 -31.703125 4.234375 -31.703125 L 20.359375 -31.703125 C 21.023438 -31.703125 21.359375 -31.359375 21.359375 -30.671875 L 21.359375 -27.3125 C 21.359375 -26.625 21.023438 -26.28125 20.359375 -26.28125 L 10.0625 -26.28125 C 9.664062 -26.28125 9.46875 -26.097656 9.46875 -25.734375 L 9.46875 -19.328125 C 9.46875 -18.960938 9.664062 -18.78125 10.0625 -18.78125 L 18.5 -18.78125 C 19.1875 -18.78125 19.53125 -18.4375 19.53125 -17.75 L 19.53125 -14.40625 C 19.53125 -13.707031 19.1875 -13.359375 18.5 -13.359375 L 10.0625 -13.359375 C 9.664062 -13.359375 9.46875 -13.179688 9.46875 -12.828125 L 9.46875 -5.96875 C 9.46875 -5.601562 9.664062 -5.421875 10.0625 -5.421875 L 20.359375 -5.421875 C 21.023438 -5.421875 21.359375 -5.078125 21.359375 -4.390625 L 21.359375 -1.03125 C 21.359375 -0.34375 21.023438 0 20.359375 0 Z M 20.359375 0" transform="translate(219.464 192.464)"/></g></g></g><g fill="#1E81E4"><g><g><path d="M 8.328125 0 L 4.234375 0 C 3.546875 0 3.203125 -0.34375 3.203125 -1.03125 L 3.203125 -30.671875 C 3.203125 -31.359375 3.546875 -31.703125 4.234375 -31.703125 L 7.9375 -31.703125 C 8.625 -31.703125 9.082031 -31.472656 9.3125 -31.015625 L 19.28125 -12.328125 L 19.484375 -12.328125 L 19.484375 -30.671875 C 19.484375 -31.359375 19.828125 -31.703125 20.515625 -31.703125 L 24.609375 -31.703125 C 25.296875 -31.703125 25.640625 -31.359375 25.640625 -30.671875 L 25.640625 -1.03125 C 25.640625 -0.34375 25.296875 0 24.609375 0 L 21 0 C 20.28125 0 19.753906 -0.328125 19.421875 -0.984375 L 9.5625 -19.328125 L 9.375 -19.328125 L 9.375 -1.03125 C 9.375 -0.34375 9.023438 0 8.328125 0 Z M 8.328125 0" transform="translate(246.537 192.464)"/></g></g></g><g fill="#1E81E4"><g><g><path d="M 15.53125 0 L 7.8125 0 C 6.539062 0 5.90625 -0.632812 5.90625 -1.90625 L 5.90625 -56.515625 C 5.90625 -57.785156 6.539062 -58.421875 7.8125 -58.421875 L 36.796875 -58.421875 C 38.003906 -58.421875 38.609375 -57.785156 38.609375 -56.515625 L 38.609375 -50.34375 C 38.609375 -49.0625 38.003906 -48.421875 36.796875 -48.421875 L 18.53125 -48.421875 C 17.800781 -48.421875 17.4375 -48.085938 17.4375 -47.421875 L 17.4375 -33.34375 C 17.4375 -32.613281 17.800781 -32.25 18.53125 -32.25 L 34.078125 -32.25 C 35.347656 -32.25 35.984375 -31.613281 35.984375 -30.34375 L 35.984375 -24.265625 C 35.984375 -22.929688 35.347656 -22.265625 34.078125 -22.265625 L 18.53125 -22.265625 C 17.800781 -22.265625 17.4375 -21.929688 17.4375 -21.265625 L 17.4375 -1.90625 C 17.4375 -0.632812 16.800781 0 15.53125 0 Z M 15.53125 0" transform="translate(100.58 280.007)"/></g></g></g><g fill="#1E81E4"><g><g><path d="M 15.53125 0 L 7.8125 0 C 6.539062 0 5.90625 -0.632812 5.90625 -1.90625 L 5.90625 -56.515625 C 5.90625 -57.785156 6.539062 -58.421875 7.8125 -58.421875 L 29.4375 -58.421875 C 34.164062 -58.421875 37.859375 -57.117188 40.515625 -54.515625 C 43.179688 -51.910156 44.515625 -48.242188 44.515625 -43.515625 L 44.515625 -36.4375 C 44.515625 -29.59375 41.820312 -25.050781 36.4375 -22.8125 L 36.4375 -22.4375 L 46.15625 -2.1875 C 46.695312 -0.726562 46.179688 0 44.609375 0 L 37.25 0 C 36.15625 0 35.363281 -0.117188 34.875 -0.359375 C 34.394531 -0.609375 34.003906 -1.125 33.703125 -1.90625 L 24.625 -21.53125 L 18.53125 -21.53125 C 17.800781 -21.53125 17.4375 -21.195312 17.4375 -20.53125 L 17.4375 -1.90625 C 17.4375 -0.632812 16.800781 0 15.53125 0 Z M 18.4375 -30.796875 L 27.34375 -30.796875 C 29.28125 -30.796875 30.703125 -31.203125 31.609375 -32.015625 C 32.523438 -32.835938 32.984375 -34.160156 32.984375 -35.984375 L 32.984375 -43.0625 C 32.984375 -44.945312 32.523438 -46.3125 31.609375 -47.15625 C 30.703125 -48 29.28125 -48.421875 27.34375 -48.421875 L 18.4375 -48.421875 C 17.769531 -48.421875 17.4375 -48.085938 17.4375 -47.421875 L 17.4375 -31.796875 C 17.4375 -31.128906 17.769531 -30.796875 18.4375 -30.796875 Z M 18.4375 -30.796875" transform="translate(147.826 280.007)"/></g></g></g><g fill="#1E81E4"><g><g><path d="M 37.53125 0 L 7.8125 0 C 6.539062 0 5.90625 -0.632812 5.90625 -1.90625 L 5.90625 -56.515625 C 5.90625 -57.785156 6.539062 -58.421875 7.8125 -58.421875 L 37.53125 -58.421875 C 38.738281 -58.421875 39.34375 -57.785156 39.34375 -56.515625 L 39.34375 -50.34375 C 39.34375 -49.0625 38.738281 -48.421875 37.53125 -48.421875 L 18.53125 -48.421875 C 17.800781 -48.421875 17.4375 -48.085938 17.4375 -47.421875 L 17.4375 -35.609375 C 17.4375 -34.953125 17.800781 -34.625 18.53125 -34.625 L 34.078125 -34.625 C 35.347656 -34.625 35.984375 -33.984375 35.984375 -32.703125 L 35.984375 -26.53125 C 35.984375 -25.257812 35.347656 -24.625 34.078125 -24.625 L 18.53125 -24.625 C 17.800781 -24.625 17.4375 -24.289062 17.4375 -23.625 L 17.4375 -11 C 17.4375 -10.332031 17.800781 -10 18.53125 -10 L 37.53125 -10 C 38.738281 -10 39.34375 -9.363281 39.34375 -8.09375 L 39.34375 -1.90625 C 39.34375 -0.632812 38.738281 0 37.53125 0 Z M 37.53125 0" transform="translate(203.884 280.007)"/></g></g></g><g fill="#1E81E4"><g><g><path d="M 17.90625 -56.515625 L 17.90625 -1.90625 C 17.90625 -0.632812 17.265625 0 15.984375 0 L 8.265625 0 C 6.992188 0 6.359375 -0.632812 6.359375 -1.90625 L 6.359375 -56.515625 C 6.359375 -57.785156 6.992188 -58.421875 8.265625 -58.421875 L 15.984375 -58.421875 C 17.265625 -58.421875 17.90625 -57.785156 17.90625 -56.515625 Z M 17.90625 -56.515625" transform="translate(253.765 280.007)"/></g></g></g></svg>